<?xml version="1.0" encoding="utf-8"?>
<!-- Generator: Adobe Illustrator 24.0.0, SVG Export Plug-In . SVG Version: 6.00 Build 0)  -->
<svg version="1.1" id="Layer_1" xmlns="http://www.w3.org/2000/svg" xmlns:xlink="http://www.w3.org/1999/xlink" x="0px" y="0px"
	 viewBox="0 0 1920 1080" style="enable-background:new 0 0 1920 1080;" xml:space="preserve">
<style type="text/css">
	.st0{fill:none;}
	.st1{fill:#00427E;}
	.st2{opacity:0.4;fill:#9DDCF9;enable-background:new    ;}
	.st3{fill:#285585;}
	.st4{fill:#5753B1;}
	.st5{fill:#00994C;}
	.st6{fill:#1F4A00;stroke:#0B1F00;stroke-miterlimit:10;}
	.st7{fill:#5F445E;}
	.st8{fill:#5C2C9B;}
	.st9{fill:#283466;}
	.st10{fill:#FFFFFF;}
	.st11{fill:#33333A;}
	.st12{fill:#FFA53F;}
	.st13{fill:#7CCEE7;}
	.st14{fill:url(#SVGID_1_);stroke:#000000;stroke-miterlimit:10;}
	.st15{fill:#808080;stroke:#000000;stroke-miterlimit:10;}
	.st16{fill:url(#SVGID_2_);stroke:#000000;stroke-miterlimit:10;}
	.st17{fill:none;stroke:#000000;stroke-width:3;stroke-linecap:round;stroke-miterlimit:10;}
	.st18{fill:#F4FFF3;stroke:#000000;stroke-width:0.2;stroke-miterlimit:10;}
	.st19{fill:#F4FFF3;stroke:#000000;stroke-width:0.5;stroke-miterlimit:10;}
	.st20{fill:#999999;stroke:#000000;stroke-width:0.5;stroke-miterlimit:10;}
	.st21{fill:#754C24;}
	.st22{fill:#A67C52;}
	.st23{fill:#D9E021;}
	.st24{fill:#D9E021;stroke:#000000;stroke-width:0.5;stroke-miterlimit:10;}
	.st25{fill:#C1272D;}
	.st26{fill:#2E3192;}
	.st27{fill:#006837;}
	.st28{fill:#B5B299;}
	.st29{fill:#CCDBD9;}
	.st30{fill:#AAC67E;}
	.st31{fill:#0066A9;stroke:#000000;stroke-miterlimit:10;}
	.st32{fill:none;stroke:#000000;stroke-miterlimit:10;}
	.st33{fill:#603813;stroke:#000000;stroke-miterlimit:10;}
	.st34{stroke:#000000;stroke-width:1;stroke-miterlimit:10;}
	.st35{fill:#C69C6D;stroke:#000000;stroke-miterlimit:10;}
	.st36{fill:url(#SVGID_3_);stroke:#000000;stroke-miterlimit:10;}
	.st37{fill:#333333;stroke:#000000;stroke-miterlimit:10;}
	.st38{fill:#F5C67E;}
	.st39{fill:#00A99D;}
	.st40{fill:#F7931E;}
	.st41{fill:#0071BC;}
	.st42{fill:url(#SVGID_4_);stroke:#000000;stroke-miterlimit:10;}
	.st43{fill:#9FB2C2;stroke:#000000;stroke-miterlimit:10;}
	.st44{fill:#DAB2C2;stroke:#000000;stroke-miterlimit:10;}
	.st45{fill:#783333;stroke:#000000;stroke-miterlimit:10;}
	.st46{fill:#488033;stroke:#000000;stroke-miterlimit:10;}
	.st47{fill:#D78033;stroke:#000000;stroke-miterlimit:10;}
	.st48{fill:#D780C9;}
	.st49{fill:#FFFFFF;stroke:#4D4D4D;stroke-miterlimit:10;}
	.st50{fill:#B3B3B3;stroke:#4D4D4D;stroke-miterlimit:10;}
	.st51{fill:#001E3F;stroke:#4D4D4D;stroke-miterlimit:10;}
	.st52{fill:#C7B2CE;stroke:#000000;stroke-miterlimit:10;}
	.st53{opacity:0.4;fill:#C7B299;stroke:#C69C6D;stroke-miterlimit:10;enable-background:new    ;}
	.st54{fill:#E6E6E6;stroke:#4D4D4D;stroke-miterlimit:10;}
	.st55{fill:#CCCCCC;stroke:#000000;stroke-width:0.5;stroke-miterlimit:10;}
	.st56{fill:#B3B3B3;stroke:#000000;stroke-width:0.5;stroke-miterlimit:10;}
	.st57{fill:#FFFFFF;stroke:#000000;stroke-width:0.5;stroke-miterlimit:10;}
	.st58{fill:#8C7ED9;stroke:#000000;stroke-miterlimit:10;}
	.st59{fill:url(#SVGID_5_);stroke:#000000;stroke-width:0.3;stroke-miterlimit:10;}
	.st60{fill:url(#SVGID_6_);stroke:#000000;stroke-width:0.3;stroke-miterlimit:10;}
	.st61{fill:#F2F2F2;stroke:#666666;stroke-width:0.3;stroke-miterlimit:10;}
	.st62{fill:#F2F2F2;stroke:#808080;stroke-width:0.3;stroke-miterlimit:10;}
	.st63{fill:#534741;}
	.st64{fill:#A67C52;stroke:#000000;stroke-width:0.3;stroke-miterlimit:10;}
	.st65{fill:url(#SVGID_7_);stroke:#000000;stroke-width:0.3;stroke-miterlimit:10;}
	.st66{fill:#B12900;stroke:#000000;stroke-miterlimit:10;}
	.st67{fill:#736357;stroke:#000000;stroke-miterlimit:10;}
	.st68{fill:#E6E6E6;stroke:#000000;stroke-miterlimit:10;}
	.st69{fill:#998675;stroke:#000000;stroke-miterlimit:10;}
	.st70{fill:#F2F2F2;stroke:#000000;stroke-miterlimit:10;}
	.st71{fill:#42210B;stroke:#000000;stroke-miterlimit:10;}
	.st72{fill:#DAE1FF;stroke:#000000;stroke-miterlimit:10;}
	.st73{fill:#FBB03B;stroke:#000000;stroke-miterlimit:10;}
	.st74{fill:#0071BC;stroke:#000000;stroke-miterlimit:10;}
	.st75{fill:#C1492D;stroke:#000000;stroke-miterlimit:10;}
	.st76{fill:#006A02;stroke:#000000;stroke-miterlimit:10;}
	.st77{fill:#B36F5E;}
	.st78{fill:#EFE3CA;stroke:#000000;stroke-miterlimit:10;}
</style>
<pattern  y="1080" width="108.3" height="109.6" patternUnits="userSpaceOnUse" id="Jive" viewBox="47.5 -131.8 108.3 109.6" style="overflow:visible;">
	<g>
		<rect x="47.5" y="-131.8" class="st0" width="108.3" height="109.6"/>
		<rect x="47.5" y="-131.8" class="st0" width="108.3" height="109.6"/>
		<path class="st1" d="M135-166.5c0,0.1,0.1,0.2,0.2,0.2c12.9,0.1,24.8,3.3,34,11.5c-8-5.6-22.9-7.5-31.5-3.6
			c-0.1,0.1-0.2,0.2-0.1,0.3c0,0.1,0.1,0.2,0.2,0.2c10.7-0.3,19.3,3,26,9c-6.9,0.4-12.6,4.7-12.6,9.8c0,0.1,0.1,0.2,0.2,0.2
			c0.1,0,0.2,0,0.3-0.1c1.1-2.5,4.8-3.8,8.6-2.9c4.2,1,7,4.2,6.3,7.2c-0.5,2-2.4,3.4-4.9,3.8c-0.1,0-0.2,0.1-0.2,0.3
			c0,0.1,0.1,0.2,0.2,0.2c1.1,0.1,2.2,0.1,3.3,0c6.5-0.6,11.5-4.6,12-9.2c4.7,0.6,8.9,3.2,10.4,6.8c0,0.1,0.2,0.2,0.3,0.2
			c0.1,0,0.2-0.1,0.2-0.2c0.4-4.8-1.3-7.8-5-10.9c5.6,2.2,11.8,2,17.2-0.5c0.1,0,0.2-0.2,0.1-0.3c0-0.1-0.1-0.2-0.2-0.2
			c-4.4,0-8.7-1.8-11.7-5.1c18.3,5.1,33.1-6.2,28-23.1c0-0.1-0.1-0.2-0.3-0.2c-0.1,0-0.2,0.1-0.2,0.2c-0.9,9.7-7.7,16.1-17.9,17.1
			c6.6-2.4,11.2-8.5,11.6-15.5c0-0.1-0.1-0.2-0.2-0.3c-0.1,0-0.2,0-0.3,0.1c-2.5,5.6-8,9.4-14.2,9.8c6.3-2.6,10.4-8.6,11.6-16.4
			c0-0.1-0.1-0.2-0.2-0.3c-0.1,0-0.2,0-0.3,0.1c-3.9,7.6-12.2,12.8-22.4,8.8c-10.6-4.1-15.3-16.4-16.3-25c0-0.1-0.1-0.2-0.2-0.2
			c-0.1,0-0.2,0.1-0.3,0.2c-3.7,15.7,3.6,31.9,16.6,38.8c-7.1-2-13.4-6.3-17-13.4c-8.3-1-14-3.9-16.9-9.2c-0.1-0.1-0.2-0.2-0.3-0.1
			c-0.1,0-0.2,0.1-0.2,0.3c0.2,2.1,0.9,6.3,4.1,8.3c-7,0-12.5,0.9-17.8,3C135.1-166.7,135-166.6,135-166.5
			C135-166.5,135-166.5,135-166.5z M164.5-220c-0.1,0.1-0.2,0.1-0.3,0c-0.1-0.1-0.1-0.2-0.1-0.3c1.6-2.8,0.1-6.8-3-6.8
			c-5.7,0-8.5,10.8-7.6,20.6c2.2-5.8,4-8,7.4-10.8c0.1-0.1,0.2-0.1,0.3,0c0.1,0.1,0.1,0.2,0.1,0.3c-4.1,7.3-6.1,15.7-5.9,24.1
			c1.5-6,3.2-9.3,8.1-14.4c0.1-0.1,0.2-0.1,0.3,0c0.1,0.1,0.1,0.2,0.1,0.3c-4.9,10.8-5.3,23.2-1,34.3c0,0.1,0,0.2-0.1,0.3
			c-0.1,0.1-0.2,0.1-0.3,0c-5.2-2.6-8.3-4.2-12.8-10.4c1.4-7.4,0.2-11.1-3.2-17.2c3.9,9.9,1.8,23.9-8.2,29.6c-0.1,0.1-0.2,0-0.3-0.1
			c-0.1-0.1-0.1-0.2,0-0.3c4.6-4.8,6.2-11.6,4.2-17.9c1.5,10.4-7.6,19.1-17.8,19.1c-9.6,0-16.2-7.5-15.6-14.9s5.4-11,9.7-12.5
			c0.1,0,0.2,0,0.3,0.1c0.1,0.1,0.1,0.2,0,0.3c-5.6,5.7-6.4,16.5,3.6,19.8c-5.9-5.1-3.7-16.8,5.7-17.7c0.1,0,0.2,0.1,0.3,0.2
			c0,0.1,0,0.2-0.1,0.3c-2.2,1.4-3.6,3.9-3.7,6.6c0,4.7,3.4,6.5,5.7,6.5c3.4,0,6.3-3.2,6.3-8.2c0-5.8-5.3-10.7-12-11.4
			s-12.8,2.1-15.8,6.5c-0.1,0.1-0.2,0.1-0.3,0.1c-0.1,0-0.2-0.2-0.1-0.3c2.3-9.2,11.7-14.7,20.8-12.4c2.2,0.6,4.2,1.5,6.1,2.9
			c-6.6-7.5-17-7.6-25.7,0.1c-0.1,0.1-0.2,0.1-0.3,0c-0.1-0.1-0.1-0.2-0.1-0.3c2.7-5.4,9.2-11.8,18.6-10.9c8.6,0.9,13.5,9,14.5,15.7
			c0.6-8.5-1.4-14.5-8.8-20.1c-0.1-0.1-0.1-0.2-0.1-0.3c0.1-0.1,0.2-0.2,0.3-0.1c6.8,2,12.2,5.4,15,12.6c0-6.2-2.1-12.4-7.5-16.5
			c-0.1-0.1-0.1-0.2-0.1-0.3c0.1-0.1,0.2-0.2,0.3-0.1c3.5,1,6.2,2.5,8.1,5.2c1.3-11.1,6.5-17.7,12.5-17.7c4.1,0,7.2,3,7.2,7.9
			C169.2-225.4,167.5-222,164.5-220z M263.7-128.3c-3.2,3.9-9.5,5.4-16.4,4c0.5,3.9-0.1,7.9-1.6,11.5c-0.1,0.1-0.2,0.2-0.3,0.1
			c-0.1,0-0.2-0.1-0.2-0.3c0.4-8.8-4.6-15.8-13.4-18.9c6.9,4.7,8.9,14.2,5.6,19.1c-0.1,0.1-0.2,0.1-0.3,0.1c-0.1,0-0.2-0.2-0.1-0.3
			c0.4-2.1-0.6-4.7-2.7-6.7c-2.9-2.8-6.8-3.4-8.8-1.4s-1.2,6,1.7,8.8c1,1,2.1,1.7,3.4,2.2c0.1,0,0.2,0.2,0.2,0.3
			c0,0.1-0.1,0.2-0.2,0.2c-6.4,0.6-10.8-3.2-13.5-7.9s-7.6-8.4-13.2-7.7c-0.1,0-0.2-0.1-0.3-0.2c0-0.1,0-0.2,0.1-0.3
			c2.9-1.9,6.6-2.3,9.9-1.1c-5.8-4.9-14.1-7.7-21.8-5.2c-0.1,0-0.2,0-0.3-0.1c-0.1-0.1-0.1-0.2,0-0.3c5.9-6.6,17.7-6.7,25.1-1.4
			c-3-4.3-7.1-7.5-14.3-8.5c-0.1,0-0.2-0.1-0.2-0.2c0-0.1,0.1-0.2,0.2-0.3c8.3-3.1,16.6,0,23.4,8.2c-2.8-6.5-8.2-11.5-14.8-14
			c-0.1,0-0.2-0.2-0.2-0.3c0-0.1,0.1-0.2,0.2-0.2c3.9-0.1,7.5,0.9,12.3,3.6c-3.5-5.7-2.7-15.7,2.4-22.3c0.1-0.1,0.2-0.1,0.3-0.1
			c0.1,0,0.2,0.2,0.1,0.3c-1.2,7.2,1.3,15.3,5.6,19.6c-2.3-7.1,0.1-14.9,5.9-19.6c0.1-0.1,0.2-0.1,0.2-0.1c0.1,0,0.2,0.1,0.2,0.2
			c1.2,9.4,11.8,19,20.6,19.8c0.1,0,0.2,0.1,0.2,0.2c0,0.1-0.1,0.2-0.2,0.2c-4.1,0.9-8.5,0.6-12.4-1c2.6,2.9,5.9,5.1,9.6,6.2
			c0.1,0,0.2,0.2,0.2,0.3c0,0.1-0.1,0.2-0.2,0.2c-4.5,0.3-9-1-12.7-3.5c4.5,6.9,11.5,11.7,19.4,13.5c0.1,0,0.2,0.2,0.2,0.3
			c0,0,0,0,0,0c0,0.1-0.1,0.2-0.2,0.2c-11.9,1.3-21.7-3.3-28.2-11.9c1.6,4.9,6.4,9.8,12.9,12.6c5.9,2.5,11.8,2.9,16.4,1.5
			c0.1,0,0.2,0,0.3,0.1C263.8-128.5,263.8-128.4,263.7-128.3L263.7-128.3z M210.8-203.9c4.8,10.5,4.5,18.7,0.6,29
			c-0.1,0.1-0.2,0.2-0.3,0.1c-0.1,0-0.2-0.1-0.2-0.2c0.6-12.6-2.8-21.6-10.3-27.8c8.2,9.9,4.4,29.6-8.8,29.6
			c-9.6,0-17.5-8-19.4-17.5c0-0.1,0-0.2,0.2-0.3c0.1,0,0.2,0,0.3,0.1c2.8,4.8,7.4,7.9,12.4,7.9c8.1,0,10.5-6.5,10.5-11
			c0-6.2-4.9-11.3-8.7-11.3c-2.7,0-5,2.1-5,4.9c0,0,0,0,0,0.1c0.1,3.8,2.7,7.1,6.4,8.2c0.1,0,0.2,0.2,0.2,0.3c0,0.1-0.1,0.2-0.2,0.2
			c-4,0.1-7.8-2-9.6-5.6c-0.4,2.6-0.2,5.2,0.6,7.7c0,0.1,0,0.2-0.1,0.3c-0.1,0.1-0.2,0-0.3-0.1c-7.4-9.4-3.8-25.6,2-32.3
			c-5.5,4-10.4,12.6-10.3,24.4c0,0.1-0.1,0.2-0.2,0.2c-0.1,0-0.2,0-0.3-0.1c-4.1-10.3-1.9-29.2,9.3-39.9c-3.1-0.5-6.2-0.2-9.1,0.7
			c-0.1,0-0.2,0-0.3-0.1c-0.1-0.1,0-0.2,0.1-0.3c4.1-3.5,9.8-4.5,15.3-4.5c-4.7,5.5-3.1,16.6,4.4,16.6c5.4,0,7.8-8.3,3.6-12.8
			c-0.1-0.1-0.1-0.2,0-0.3c0.1-0.1,0.2-0.1,0.3-0.1c4.8,1.6,9.9,5.8,9.9,11c0,5-4.8,9.4-11.8,9.1c8.8,2.5,18-0.3,22.9-6.3
			c0.1-0.1,0.2-0.1,0.3-0.1c0.1,0.1,0.2,0.2,0.1,0.3c-2.8,10.7-12,15.2-23.4,13.7c9.3,3.8,23.2,0.5,29.4-7.3
			c0.1-0.1,0.2-0.1,0.3-0.1c0.1,0,0.2,0.2,0.1,0.3C220-210.8,216.5-205.9,210.8-203.9L210.8-203.9z"/>
		<path class="st2" d="M237.2-184.6c0-0.1-0.1-0.2-0.2-0.2c-12.9-0.1-24.8-3.3-34-11.5c8,5.6,22.9,7.5,31.5,3.6
			c0.1-0.1,0.2-0.2,0.1-0.3c0-0.1-0.1-0.2-0.3-0.2c-10.7,0.3-19.3-3-26-9c6.9-0.4,12.6-4.7,12.6-9.8c0-0.1-0.1-0.2-0.2-0.2
			c-0.1,0-0.1,0.1-0.2,0.2c-1.1,2.5-4.8,3.8-8.6,2.9c-4.2-1-7-4.2-6.3-7.2c0.5-2,2.4-3.4,5-3.8c0.1,0,0.2-0.1,0.2-0.2
			c0-0.1-0.1-0.2-0.2-0.2c-1.1-0.1-2.2-0.1-3.3,0c-6.5,0.6-11.5,4.6-11.9,9.2c-4.7-0.6-8.9-3.2-10.4-6.8c0-0.1-0.2-0.2-0.3-0.2
			c-0.1,0-0.2,0.1-0.2,0.2c-0.4,4.8,1.3,7.8,5,10.9c-5.6-2.2-11.8-2-17.2,0.5c-0.1,0.1-0.2,0.2-0.1,0.4c0,0.1,0.1,0.1,0.2,0.1
			c4.4,0,8.7,1.8,11.7,5.1c-18.3-5.1-33.1,6.2-28,23.1c0,0.1,0.1,0.2,0.3,0.2c0.1,0,0.2-0.1,0.2-0.2c0.9-9.7,7.7-16.1,17.9-17.1
			c-6.6,2.4-11.2,8.5-11.6,15.5c0,0.1,0.1,0.2,0.2,0.3c0.1,0,0.2,0,0.3-0.1c2.5-5.6,8-9.4,14.2-9.8c-6.3,2.6-10.4,8.6-11.6,16.4
			c0,0.1,0.1,0.2,0.2,0.3c0.1,0,0.2,0,0.3-0.1c3.9-7.6,12.2-12.8,22.5-8.8c10.6,4.1,15.3,16.4,16.3,25c0,0.1,0.1,0.2,0.2,0.2
			c0.1,0,0.2-0.1,0.3-0.2c3.7-15.7-3.6-31.9-16.6-38.8c7.1,2,13.4,6.3,17,13.4c8.3,1,14,3.9,16.9,9.2c0.1,0.1,0.2,0.2,0.3,0.1
			c0.1,0,0.2-0.1,0.2-0.3c-0.2-2.1-0.9-6.3-4.1-8.3c7,0,12.5-0.9,17.8-3C237.2-184.5,237.2-184.5,237.2-184.6z M207.7-131.2
			c0.1-0.1,0.2-0.1,0.3,0c0.1,0.1,0.1,0.2,0,0.3c-1.6,2.8-0.1,6.8,3.1,6.8c5.7,0,8.5-10.8,7.6-20.6c-2.2,5.8-4,8-7.4,10.8
			c-0.1,0.1-0.2,0.1-0.3,0c-0.1-0.1-0.1-0.2-0.1-0.3c4.1-7.4,6.1-15.7,5.9-24.1c-1.5,6-3.2,9.3-8.1,14.4c-0.1,0.1-0.2,0.1-0.3,0
			c-0.1-0.1-0.1-0.2-0.1-0.3c4.9-10.8,5.3-23.2,0.9-34.3c0-0.1,0-0.2,0.1-0.3c0.1-0.1,0.2-0.1,0.3,0c5.2,2.6,8.3,4.2,12.8,10.4
			c-1.4,7.4-0.2,11.1,3.2,17.2c-3.9-9.9-1.8-23.9,8.2-29.6c0.1-0.1,0.2,0,0.3,0.1c0.1,0.1,0.1,0.2,0,0.3c-4.6,4.8-6.2,11.6-4.2,17.9
			c-1.5-10.4,7.6-19.1,17.8-19.1c9.6,0,16.1,7.5,15.6,14.9c-0.5,7.4-5.4,11-9.7,12.5c-0.1,0-0.2,0-0.3-0.1c-0.1-0.1-0.1-0.2,0-0.3
			c5.6-5.7,6.4-16.5-3.6-19.8c5.9,5,3.7,16.8-5.7,17.7c-0.1,0-0.2-0.1-0.3-0.2c0-0.1,0-0.2,0.1-0.3c2.2-1.4,3.6-3.9,3.7-6.6
			c0-4.7-3.4-6.5-5.7-6.5c-3.4,0-6.3,3.2-6.3,8.2c0,5.8,5.3,10.7,12,11.4s12.8-2.1,15.7-6.5c0.1-0.1,0.2-0.1,0.3-0.1
			c0.1,0,0.2,0.2,0.1,0.3c-2.3,9.2-11.7,14.7-20.8,12.4c-2.2-0.5-4.2-1.5-6-2.8c6.6,7.5,17,7.6,25.7-0.1c0.1-0.1,0.2-0.1,0.3,0
			c0.1,0.1,0.1,0.2,0.1,0.3c-2.7,5.4-9.2,11.8-18.6,10.9c-8.6-0.9-13.5-9-14.5-15.7c-0.6,8.5,1.4,14.5,8.8,20.1
			c0.1,0.1,0.1,0.2,0.1,0.3c-0.1,0.1-0.2,0.2-0.3,0.1c-6.8-2-12.2-5.4-15-12.5c0,6.2,2.1,12.4,7.5,16.5c0.1,0.1,0.1,0.2,0.1,0.3
			c-0.1,0.1-0.2,0.2-0.3,0.1c-3.5-1-6.2-2.5-8.1-5.2c-1.3,11.1-6.5,17.7-12.5,17.7c-4.1,0-7.2-3-7.2-7.9
			C203-125.7,204.8-129.1,207.7-131.2z M108.5-222.8c3.2-3.9,9.5-5.4,16.4-4c-0.5-3.9,0.1-7.9,1.6-11.5c0.1-0.1,0.2-0.2,0.3-0.1
			c0.1,0,0.2,0.1,0.2,0.3c-0.4,8.8,4.6,15.8,13.4,18.9c-6.9-4.7-8.9-14.2-5.6-19.1c0.1-0.1,0.2-0.1,0.3-0.1c0.1,0,0.2,0.2,0.2,0.3
			c-0.4,2.1,0.6,4.7,2.7,6.7c2.9,2.8,6.9,3.4,8.8,1.4s1.2-6-1.7-8.8c-1-1-2.2-1.7-3.4-2.2c-0.1-0.1-0.1-0.2-0.1-0.3
			c0-0.1,0.1-0.2,0.2-0.2c6.4-0.6,10.8,3.3,13.5,7.9s7.6,8.4,13.2,7.7c0.1,0,0.2,0.1,0.3,0.2c0,0.1,0,0.2-0.1,0.3
			c-2.9,1.9-6.6,2.3-9.9,1.1c5.8,4.9,14.1,7.7,21.8,5.2c0.1,0,0.2,0,0.3,0.1c0.1,0.1,0.1,0.2,0,0.3c-5.9,6.6-17.7,6.7-25.1,1.4
			c3,4.3,7.1,7.5,14.3,8.5c0.1,0,0.2,0.1,0.2,0.2c0,0.1-0.1,0.2-0.2,0.3c-8.3,3.1-16.6,0-23.4-8.2c2.8,6.5,8.2,11.5,14.8,14
			c0.1,0,0.2,0.2,0.2,0.3c0,0.1-0.1,0.2-0.2,0.2c-3.9,0.1-7.5-0.9-12.3-3.6c3.5,5.7,2.7,15.6-2.4,22.3c-0.1,0.1-0.2,0.1-0.3,0.1
			c-0.1,0-0.2-0.2-0.1-0.3c1.2-7.2-1.3-15.3-5.6-19.6c2.3,7.1-0.1,14.9-5.9,19.6c-0.1,0.1-0.2,0.1-0.2,0.1c-0.1,0-0.2-0.1-0.2-0.2
			c-1.2-9.4-11.8-19-20.6-19.8c-0.1,0-0.2-0.1-0.2-0.2s0.1-0.2,0.2-0.2c4.1-0.9,8.5-0.6,12.4,1c-2.6-2.9-5.9-5-9.6-6.2
			c-0.1,0-0.2-0.2-0.2-0.3c0-0.1,0.1-0.2,0.2-0.2c4.5-0.3,9,1,12.7,3.5c-4.5-6.9-11.4-11.7-19.4-13.5c-0.1,0-0.2-0.1-0.2-0.3
			c0-0.1,0.1-0.2,0.2-0.2c11.9-1.3,21.8,3.3,28.2,11.9c-1.6-4.9-6.4-9.8-12.9-12.6c-5.8-2.5-11.8-2.9-16.4-1.5c-0.1,0-0.2,0-0.3-0.1
			C108.4-222.6,108.4-222.7,108.5-222.8z M161.4-147.2c-4.8-10.5-4.5-18.7-0.6-29c0.1-0.1,0.2-0.2,0.3-0.1c0.1,0,0.2,0.1,0.2,0.2
			c-0.6,12.6,2.8,21.6,10.3,27.8c-8.2-9.9-4.4-29.6,8.8-29.6c9.6,0,17.5,8,19.4,17.5c0,0.1,0,0.2-0.2,0.3c-0.1,0-0.2,0-0.3-0.1
			c-2.9-4.8-7.4-7.9-12.5-7.9c-8.1,0-10.5,6.5-10.5,11c0,6.2,4.9,11.3,8.7,11.3c2.7,0.1,5-2.1,5-4.8c0,0,0-0.1,0-0.1
			c-0.2-3.8-2.7-7.1-6.4-8.2c-0.1,0-0.2-0.2-0.2-0.3c0-0.1,0.1-0.2,0.2-0.2c4-0.1,7.8,2,9.6,5.6c0.4-2.6,0.2-5.2-0.6-7.7
			c0-0.1,0-0.2,0.1-0.3c0.1-0.1,0.2,0,0.3,0.1c7.4,9.4,3.8,25.6-2,32.3c5.5-4,10.4-12.6,10.3-24.4c0-0.1,0.1-0.3,0.3-0.2
			c0.1,0,0.2,0.1,0.2,0.1c4.1,10.3,1.9,29.2-9.3,39.9c3.1,0.5,6.2,0.2,9.1-0.7c0.1,0,0.2,0,0.3,0.1c0.1,0.1,0,0.2-0.1,0.3
			c-4.1,3.4-9.8,4.5-15.3,4.5c4.7-5.5,3.1-16.5-4.4-16.5c-5.3,0-7.8,8.3-3.6,12.8c0.1,0.1,0.1,0.2,0,0.3c-0.1,0.1-0.2,0.1-0.3,0.1
			c-4.8-1.7-9.9-5.8-9.9-11c0-5,4.8-9.4,11.8-9c-8.8-2.5-18.1,0.3-22.9,6.3c-0.1,0.1-0.2,0.1-0.3,0.1c-0.1-0.1-0.1-0.2-0.1-0.3
			c2.8-10.7,12-15.2,23.4-13.7c-9.3-3.8-23.2-0.5-29.4,7.3c-0.1,0.1-0.2,0.1-0.3,0.1c-0.1-0.1-0.2-0.2-0.1-0.3
			C152.1-140.3,155.6-145.2,161.4-147.2L161.4-147.2z"/>
		<path class="st1" d="M26.7-166.5c0,0.1,0.1,0.2,0.2,0.2c12.9,0.1,24.8,3.3,34,11.5c-8-5.6-22.9-7.5-31.5-3.6
			c-0.1,0.1-0.2,0.2-0.1,0.3c0,0.1,0.1,0.2,0.3,0.2c10.7-0.3,19.3,3,26,9c-6.9,0.4-12.6,4.7-12.5,9.8c0,0.1,0.1,0.2,0.2,0.2
			c0.1,0,0.2,0,0.3-0.1c1.1-2.5,4.8-3.8,8.6-2.9c4.2,1,7,4.2,6.3,7.2c-0.5,2-2.4,3.4-5,3.8c-0.1,0-0.2,0.1-0.2,0.2
			c0,0.1,0.1,0.2,0.2,0.2c1.1,0.1,2.2,0.1,3.3,0c6.5-0.6,11.5-4.6,12-9.2c4.7,0.6,8.9,3.2,10.4,6.8c0,0.1,0.2,0.2,0.3,0.2
			c0.1,0,0.2-0.1,0.2-0.2c0.4-4.8-1.3-7.8-5-10.9c5.6,2.2,11.8,2,17.2-0.5c0.1,0,0.2-0.2,0.2-0.3c0-0.1-0.1-0.2-0.2-0.2
			c-4.4,0-8.7-1.8-11.7-5.1c18.2,5.1,33.1-6.2,28-23.1c0-0.1-0.1-0.2-0.3-0.2c-0.1,0-0.2,0.1-0.2,0.2c-0.9,9.7-7.7,16.1-17.9,17.1
			c6.6-2.4,11.2-8.5,11.6-15.5c0-0.1-0.1-0.3-0.2-0.3c-0.1,0-0.2,0.1-0.3,0.2c-2.6,5.6-8,9.4-14.2,9.8c6.3-2.6,10.4-8.6,11.6-16.4
			c0-0.1-0.1-0.2-0.2-0.3c-0.1-0.1-0.3-0.1-0.4,0c0,0,0,0.1,0,0.1c-3.9,7.6-12.2,12.8-22.4,8.8c-10.6-4.1-15.3-16.4-16.3-25
			c0-0.1-0.1-0.2-0.2-0.2c-0.1,0-0.2,0.1-0.3,0.2c-3.8,15.6,3.6,31.9,16.6,38.8c-7.1-2-13.4-6.3-17-13.4c-8.3-1-14-3.9-16.9-9.2
			c-0.1-0.1-0.2-0.2-0.3-0.1c-0.1,0-0.2,0.1-0.2,0.3c0.2,2.1,1,6.3,4.1,8.3c-7,0-12.5,0.9-17.8,3C26.7-166.7,26.6-166.6,26.7-166.5z
			 M56.1-220c-0.1,0.1-0.2,0.1-0.3,0c-0.1-0.1-0.1-0.2,0-0.3c1.6-2.8,0.1-6.8-3-6.8c-5.7,0-8.5,10.8-7.6,20.6c2.2-5.8,4-8,7.3-10.8
			c0.1-0.1,0.2-0.1,0.3,0c0.1,0.1,0.1,0.2,0.1,0.3c-4.1,7.3-6.1,15.7-5.9,24.1c1.5-6,3.2-9.3,8.1-14.4c0.1-0.1,0.2-0.1,0.3,0
			c0.1,0.1,0.1,0.2,0.1,0.3c-4.9,10.8-5.3,23.2-1,34.3c0,0.1,0,0.2-0.1,0.3c-0.1,0.1-0.2,0.1-0.3,0c-5.2-2.6-8.3-4.2-12.8-10.4
			c1.4-7.4,0.2-11.1-3.2-17.2c3.9,9.9,1.8,23.9-8.2,29.6c-0.1,0.1-0.2,0-0.3-0.1c-0.1-0.1-0.1-0.2,0-0.3c4.6-4.7,6.2-11.6,4.2-17.9
			c1.5,10.4-7.6,19.1-17.8,19.1c-9.6,0-16.1-7.5-15.6-14.9s5.5-11,9.7-12.5c0.1,0,0.2,0,0.3,0.1c0.1,0.1,0.1,0.2,0,0.3
			c-5.6,5.7-6.4,16.5,3.6,19.8c-5.9-5.1-3.7-16.8,5.7-17.7c0.1,0,0.2,0.1,0.3,0.2c0,0.1,0,0.2-0.1,0.3c-2.2,1.4-3.6,3.9-3.7,6.6
			c0,4.7,3.4,6.5,5.7,6.5c3.4,0,6.3-3.2,6.3-8.2c0-5.8-5.3-10.7-12-11.4s-12.8,2.1-15.7,6.5c-0.1,0.1-0.2,0.1-0.3,0.1
			c-0.1,0-0.2-0.2-0.1-0.3c2.3-9.2,11.7-14.7,20.8-12.4c2.2,0.6,4.2,1.5,6,2.9c-6.6-7.5-17-7.6-25.7,0.1c-0.1,0.1-0.2,0.1-0.3,0
			c-0.1-0.1-0.1-0.2-0.1-0.3C3.4-209.6,10-216,19.4-215c8.6,0.9,13.5,9,14.5,15.7c0.6-8.5-1.4-14.5-8.8-20.1
			c-0.1-0.1-0.1-0.2-0.1-0.3c0.1-0.1,0.2-0.2,0.3-0.1c6.8,2,12.2,5.4,15.1,12.6c0-6.2-2.1-12.4-7.5-16.5c-0.1-0.1-0.1-0.2-0.1-0.3
			c0.1-0.1,0.2-0.2,0.3-0.1c3.5,1,6.2,2.5,8.1,5.2c1.3-11.1,6.5-17.7,12.5-17.7c4.1,0,7.2,3,7.2,7.9C60.9-225.4,59.1-222,56.1-220z
			 M155.4-128.3c-3.2,3.9-9.5,5.4-16.4,4c0.5,3.9-0.1,7.9-1.6,11.5c-0.1,0.1-0.2,0.2-0.3,0.1c-0.1,0-0.2-0.1-0.2-0.2
			c0.4-8.8-4.6-15.8-13.4-18.9c6.9,4.7,8.9,14.2,5.6,19.1c-0.1,0.1-0.2,0.2-0.3,0.1c-0.1-0.1-0.2-0.2-0.1-0.3
			c0.4-2.1-0.6-4.7-2.7-6.7c-2.9-2.8-6.8-3.4-8.8-1.4s-1.2,6,1.7,8.8c1,1,2.2,1.7,3.4,2.2c0.1,0,0.2,0.2,0.2,0.3
			c0,0.1-0.1,0.2-0.2,0.2c-6.4,0.6-10.8-3.3-13.5-7.9s-7.6-8.4-13.2-7.7c-0.1,0-0.2-0.1-0.3-0.2c0-0.1,0-0.2,0.1-0.3
			c2.9-1.9,6.6-2.3,9.9-1.1c-5.8-4.9-14-7.7-21.8-5.2c-0.1,0-0.2,0-0.3-0.1c-0.1-0.1-0.1-0.2,0-0.3c5.9-6.6,17.7-6.7,25.1-1.4
			c-3-4.3-7.1-7.5-14.3-8.5c-0.1,0-0.2-0.1-0.2-0.2c0-0.1,0.1-0.2,0.2-0.3c8.3-3.1,16.6,0,23.4,8.2c-2.8-6.5-8.2-11.5-14.8-14
			c-0.1,0-0.2-0.2-0.2-0.3c0-0.1,0.1-0.2,0.2-0.2c3.9-0.1,7.5,0.9,12.3,3.6c-3.5-5.7-2.7-15.6,2.4-22.3c0.1-0.1,0.2-0.1,0.3-0.1
			c0.1,0.1,0.2,0.2,0.1,0.3c-1.2,7.2,1.3,15.3,5.6,19.6c-2.3-7.1,0.1-14.9,5.9-19.6c0.1-0.1,0.2-0.1,0.3-0.1c0.1,0,0.1,0.1,0.2,0.2
			c1.2,9.4,11.8,19,20.6,19.8c0.1,0,0.2,0.1,0.2,0.2c0,0.1-0.1,0.2-0.2,0.2c-4.1,0.9-8.5,0.6-12.4-1c2.6,2.9,5.9,5.1,9.6,6.2
			c0.1,0,0.2,0.1,0.2,0.3c0,0.1-0.1,0.2-0.2,0.2c-4.5,0.2-9-1-12.7-3.6c4.5,6.9,11.4,11.7,19.4,13.5c0.1,0,0.2,0.1,0.2,0.3
			c0,0.1-0.1,0.2-0.2,0.2c-11.9,1.3-21.8-3.3-28.2-11.9c1.7,4.9,6.4,9.8,12.9,12.6c5.8,2.5,11.8,2.9,16.4,1.5c0.1,0,0.3,0,0.3,0.2
			C155.4-128.5,155.4-128.4,155.4-128.3L155.4-128.3z M102.5-203.9c4.8,10.5,4.5,18.7,0.6,29c0,0.1-0.2,0.2-0.3,0.2
			c-0.1,0-0.2-0.1-0.2-0.3c0.6-12.6-2.8-21.6-10.3-27.8c8.2,9.9,4.3,29.6-8.8,29.6c-9.6,0-17.5-8-19.4-17.5c0-0.1,0.1-0.3,0.2-0.3
			c0.1,0,0.2,0,0.2,0.1c2.8,4.8,7.4,7.9,12.4,7.9c8.1,0,10.5-6.5,10.5-11c0-6.2-4.9-11.3-8.7-11.3c-2.7,0-5,2.1-5,4.9c0,0,0,0,0,0.1
			c0.1,3.8,2.7,7.1,6.4,8.2c0.1,0,0.2,0.2,0.2,0.3c0,0.1-0.1,0.2-0.2,0.2c-4,0.1-7.8-2-9.6-5.6c-0.4,2.6-0.2,5.2,0.6,7.7
			c0,0.1,0,0.2-0.1,0.3c-0.1,0.1-0.2,0-0.3-0.1c-7.4-9.4-3.8-25.6,2-32.3c-5.5,4-10.4,12.6-10.3,24.4c0,0.1-0.1,0.2-0.2,0.2
			c-0.1,0-0.2,0-0.3-0.1c-4.2-10.2-2-29.2,9.2-39.8c-3.1-0.5-6.2-0.2-9.1,0.7c-0.1,0-0.2,0-0.3-0.1c-0.1-0.1,0-0.2,0.1-0.3
			c4.1-3.5,9.8-4.5,15.3-4.5c-4.7,5.5-3.1,16.6,4.4,16.6c5.3,0,7.8-8.3,3.7-12.8c-0.1-0.1-0.1-0.2,0-0.3c0.1-0.1,0.2-0.1,0.3-0.1
			c4.8,1.6,9.9,5.8,9.9,11c0,5-4.8,9.4-11.8,9.1c8.8,2.5,18-0.3,22.9-6.3c0.1-0.1,0.3-0.1,0.4,0c0.1,0.1,0.1,0.2,0.1,0.3
			c-2.8,10.7-12,15.2-23.4,13.7c9.3,3.8,23.2,0.5,29.4-7.3c0.1-0.1,0.2-0.1,0.3-0.1c0.1,0.1,0.2,0.2,0.1,0.3
			C111.7-210.8,108.2-205.9,102.5-203.9z"/>
		<path class="st2" d="M128.8-184.6c0-0.1-0.1-0.2-0.2-0.2c-12.9-0.1-24.8-3.3-34-11.5c8,5.6,22.9,7.5,31.5,3.6
			c0.1,0,0.2-0.2,0.1-0.3c0-0.1-0.1-0.2-0.3-0.2c-10.7,0.3-19.3-3-26-9c6.9-0.4,12.6-4.7,12.6-9.8c0-0.1-0.1-0.3-0.3-0.2
			c-0.1,0-0.2,0.1-0.2,0.1c-1.1,2.5-4.8,3.8-8.6,2.9c-4.2-1-7-4.2-6.3-7.2c0.5-2,2.4-3.4,5-3.8c0.1,0,0.2-0.1,0.2-0.2
			s-0.1-0.2-0.2-0.2c-1.1-0.1-2.2-0.1-3.3,0c-6.5,0.6-11.5,4.6-12,9.2c-4.7-0.6-8.9-3.2-10.4-6.8c0-0.1-0.2-0.2-0.3-0.2
			c-0.1,0-0.2,0.1-0.2,0.2c-0.4,4.8,1.3,7.8,5,10.9c-5.6-2.2-11.8-2-17.2,0.5c-0.1,0.1-0.2,0.2-0.1,0.3c0,0.1,0.1,0.2,0.2,0.2
			c4.4,0,8.7,1.8,11.7,5.1c-18.2-5.1-33.1,6.2-27.9,23.1c0,0.1,0.1,0.2,0.3,0.2c0.1,0,0.2-0.1,0.2-0.2c0.9-9.7,7.7-16.1,17.9-17.1
			c-6.6,2.4-11.2,8.5-11.6,15.5c0,0.1,0.1,0.2,0.2,0.3c0.1,0,0.2,0,0.3-0.1c2.5-5.6,8-9.4,14.2-9.8c-6.3,2.6-10.4,8.6-11.6,16.4
			c0,0.1,0.1,0.2,0.2,0.3c0.1,0,0.2,0,0.3-0.1c3.9-7.6,12.2-12.8,22.5-8.8c10.6,4.1,15.3,16.4,16.3,25c0,0.1,0.1,0.2,0.2,0.2
			c0.1,0,0.2-0.1,0.3-0.2c3.7-15.7-3.6-31.9-16.6-38.8c7.1,2,13.4,6.3,17,13.4c8.3,1,14,3.9,16.9,9.2c0.1,0.1,0.2,0.2,0.3,0.1
			c0.1,0,0.2-0.1,0.2-0.3c-0.2-2.1-0.9-6.3-4.1-8.3c7,0,12.5-0.9,17.8-3C128.8-184.4,128.8-184.5,128.8-184.6z M99.4-131.2
			c0.1-0.1,0.2-0.1,0.3,0c0.1,0.1,0.1,0.2,0,0.3c-1.6,2.8-0.1,6.8,3,6.8c5.7,0,8.5-10.8,7.6-20.6c-2.2,5.8-4,8-7.3,10.8
			c-0.1,0.1-0.2,0.1-0.3,0c-0.1-0.1-0.1-0.2-0.1-0.3c4.1-7.3,6.2-15.7,6-24.1c-1.5,6-3.2,9.3-8.1,14.4c-0.1,0.1-0.2,0.1-0.3,0
			c-0.1-0.1-0.1-0.2-0.1-0.3c4.9-10.8,5.3-23.2,1-34.3c0-0.1,0-0.2,0.1-0.3c0.1-0.1,0.2-0.1,0.3,0c5.2,2.5,8.2,4.2,12.7,10.4
			c-1.4,7.4-0.2,11.1,3.2,17.2c-3.9-9.9-1.8-23.9,8.2-29.6c0.1-0.1,0.2,0,0.3,0.1c0.1,0.1,0.1,0.2,0,0.3c-4.6,4.7-6.2,11.6-4.2,17.9
			c-1.5-10.4,7.6-19.1,17.8-19.1c9.6,0,16.1,7.5,15.6,14.9c-0.5,7.4-5.4,11-9.7,12.5c-0.1,0-0.2,0-0.3-0.1c-0.1-0.1-0.1-0.2,0-0.3
			c5.6-5.7,6.4-16.5-3.6-19.8c5.9,5,3.7,16.8-5.7,17.7c-0.1,0-0.2-0.1-0.3-0.2c0-0.1,0-0.2,0.1-0.3c2.2-1.4,3.6-3.9,3.7-6.6
			c0-4.7-3.4-6.5-5.7-6.5c-3.4,0-6.3,3.2-6.3,8.2c0,5.8,5.3,10.7,12,11.4c6.7,0.8,12.8-2.1,15.8-6.5c0.1-0.1,0.2-0.1,0.3-0.1
			c0.1,0,0.2,0.2,0.1,0.3c-2.3,9.2-11.7,14.7-20.9,12.4c-2.1-0.5-4.2-1.5-5.9-2.8c6.6,7.5,17,7.6,25.7-0.1c0.1-0.1,0.2-0.1,0.3,0
			c0.1,0.1,0.1,0.2,0.1,0.3c-2.7,5.4-9.3,11.8-18.6,10.9c-8.6-0.9-13.5-9-14.5-15.7c-0.6,8.5,1.4,14.5,8.8,20.1
			c0.1,0.1,0.1,0.3,0,0.4c-0.1,0.1-0.2,0.1-0.2,0.1c-6.8-2-12.2-5.4-15.1-12.5c0,6.2,2.1,12.4,7.5,16.5c0.1,0.1,0.1,0.2,0.1,0.3
			c-0.1,0.1-0.2,0.2-0.3,0.1c-3.4-1-6.2-2.5-8.1-5.2c-1.3,11.1-6.5,17.7-12.5,17.7c-4.1,0-7.2-3-7.2-7.9
			C94.6-125.7,96.4-129.1,99.4-131.2z M0.1-222.8c3.2-3.9,9.5-5.4,16.4-4c-0.5-3.9,0.1-7.9,1.6-11.5c0.1-0.1,0.2-0.2,0.3-0.1
			c0.1,0,0.2,0.1,0.2,0.3c-0.4,8.8,4.6,15.8,13.4,18.9c-6.9-4.8-8.9-14.2-5.6-19.1c0.1-0.1,0.2-0.1,0.3-0.1c0.1,0,0.2,0.2,0.1,0.3
			c-0.4,2.1,0.6,4.7,2.7,6.7c2.9,2.8,6.9,3.4,8.8,1.4c2-2,1.2-6-1.7-8.8c-1-1-2.2-1.7-3.5-2.2c-0.1,0-0.2-0.2-0.2-0.3
			c0-0.1,0.1-0.2,0.2-0.2c6.4-0.6,10.8,3.3,13.5,7.9s7.6,8.4,13.2,7.7c0.1,0,0.2,0.1,0.3,0.2c0,0.1,0,0.2-0.1,0.3
			c-2.9,1.9-6.6,2.3-9.9,1.1c5.8,4.9,14,7.7,21.8,5.2c0.1,0,0.2,0,0.3,0.1c0.1,0.1,0.1,0.2,0,0.3c-5.9,6.6-17.7,6.7-25.1,1.4
			c3,4.3,7.1,7.5,14.3,8.5c0.1,0,0.2,0.1,0.2,0.2c0,0.1-0.1,0.2-0.2,0.3c-8.3,3.1-16.6,0-23.4-8.2c2.8,6.5,8.2,11.5,14.8,14
			c0.1,0,0.2,0.2,0.2,0.3c0,0.1-0.1,0.2-0.2,0.2c-3.9,0.1-7.5-0.9-12.3-3.6c3.5,5.7,2.7,15.6-2.4,22.3c-0.1,0.1-0.2,0.1-0.3,0.1
			c-0.1,0-0.2-0.2-0.1-0.3c1.2-7.2-1.3-15.3-5.6-19.6c2.3,7.1-0.1,14.9-5.9,19.6c-0.1,0.1-0.2,0.1-0.2,0.1c-0.1,0-0.2-0.1-0.2-0.2
			c-1.2-9.4-11.8-19-20.6-19.8c-0.1,0-0.2-0.1-0.2-0.2c0-0.1,0.1-0.2,0.2-0.3c4.1-0.9,8.5-0.6,12.4,1c-2.6-2.9-5.9-5-9.6-6.1
			c-0.1,0-0.2-0.2-0.2-0.3c0-0.1,0.1-0.2,0.2-0.2c4.5-0.3,9,1,12.7,3.5c-4.5-6.9-11.4-11.7-19.4-13.5c-0.1,0-0.2-0.1-0.2-0.3
			c0-0.1,0.1-0.2,0.2-0.2c11.9-1.3,21.8,3.3,28.2,11.9c-1.6-4.9-6.4-9.8-12.9-12.6c-5.8-2.5-11.8-2.9-16.4-1.5c-0.1,0-0.2,0-0.3-0.1
			C0-222.6,0-222.7,0.1-222.8z M53-147.2c-4.8-10.5-4.5-18.7-0.6-29.1c0.1-0.1,0.2-0.2,0.3-0.1c0.1,0,0.2,0.1,0.2,0.2
			c-0.6,12.6,2.8,21.6,10.3,27.8c-8.2-9.9-4.4-29.6,8.8-29.6c9.6,0,17.5,8,19.5,17.5c0,0.1,0,0.2-0.2,0.3c-0.1,0-0.2,0-0.3-0.1
			c-2.8-4.8-7.4-7.9-12.5-7.9c-8.1,0-10.5,6.5-10.5,11c0,6.2,4.9,11.3,8.7,11.3c2.7,0,5-2.2,5-4.9c0,0,0,0,0-0.1
			c-0.2-3.8-2.7-7.1-6.4-8.2c-0.1,0-0.2-0.2-0.2-0.3c0-0.1,0.1-0.2,0.2-0.2c4-0.1,7.8,2,9.6,5.6c0.4-2.6,0.2-5.2-0.6-7.7
			c0-0.1,0-0.2,0.1-0.3c0.1-0.1,0.2,0,0.3,0.1c7.4,9.4,3.8,25.6-2,32.3c5.5-4,10.4-12.6,10.3-24.4c0-0.1,0.1-0.2,0.2-0.2
			c0.1,0,0.2,0,0.3,0.1c4.1,10.3,1.9,29.2-9.3,39.9c3.1,0.5,6.2,0.2,9.1-0.7c0.1,0,0.2,0,0.3,0.1c0.1,0.1,0.1,0.2,0,0.3
			c-4.1,3.4-9.8,4.5-15.3,4.5c4.7-5.5,3.1-16.5-4.3-16.5c-5.3,0-7.8,8.3-3.7,12.8c0.1,0.1,0.1,0.2,0,0.3c-0.1,0.1-0.2,0.1-0.3,0.1
			c-4.8-1.7-10-5.8-10-11c0-5,4.8-9.4,11.8-9c-8.8-2.5-18,0.3-22.9,6.3c-0.1,0.1-0.2,0.1-0.3,0.1c-0.1-0.1-0.1-0.2-0.1-0.3
			c2.8-10.7,12-15.2,23.4-13.7c-9.3-3.8-23.3-0.5-29.4,7.3c-0.1,0.1-0.2,0.1-0.3,0.1c-0.1,0-0.2-0.2-0.1-0.3
			C43.8-140.3,47.3-145.2,53-147.2z"/>
		<path class="st1" d="M135-56.8c0,0.1,0.1,0.2,0.2,0.2c12.9,0.1,24.8,3.3,34,11.5c-8-5.6-22.9-7.5-31.5-3.6c-0.1,0-0.2,0.2-0.2,0.3
			c0,0.1,0.1,0.2,0.3,0.2c10.7-0.3,19.3,3,26,9c-6.9,0.4-12.6,4.7-12.6,9.8c0,0.1,0.1,0.2,0.2,0.2c0.1,0,0.2,0,0.3-0.1
			c1.1-2.5,4.8-3.8,8.6-2.9c4.2,1,7,4.2,6.3,7.2c-0.5,2-2.4,3.4-4.9,3.8c-0.1,0-0.2,0.1-0.2,0.3c0,0.1,0.1,0.2,0.2,0.2
			c1.1,0.1,2.2,0.1,3.3,0c6.5-0.6,11.5-4.6,12-9.2c4.7,0.6,8.9,3.2,10.4,6.8c0.1,0.1,0.2,0.2,0.3,0.1c0.1,0,0.1-0.1,0.1-0.2
			c0.4-4.8-1.3-7.8-5-10.9c5.6,2.2,11.8,2,17.2-0.5c0.1,0,0.2-0.2,0.1-0.3c0-0.1-0.1-0.2-0.2-0.2c-4.4,0-8.7-1.8-11.7-5.1
			c18.3,5.1,33.1-6.2,28-23c0-0.1-0.1-0.2-0.3-0.2c-0.1,0-0.2,0.1-0.2,0.2c-0.9,9.7-7.7,16.1-17.9,17.1c6.6-2.4,11.2-8.5,11.6-15.5
			c0-0.1-0.1-0.2-0.2-0.3c-0.1,0-0.2,0-0.3,0.1c-2.5,5.6-8,9.4-14.2,9.8c6.3-2.6,10.4-8.6,11.6-16.4c0-0.1-0.1-0.2-0.2-0.3
			c-0.1,0-0.2,0-0.3,0.1c-3.9,7.6-12.2,12.8-22.4,8.8c-10.6-4.1-15.3-16.4-16.3-25c0-0.1-0.1-0.2-0.2-0.2c-0.1,0-0.2,0.1-0.3,0.2
			c-3.8,15.6,3.5,31.9,16.6,38.8c-7.1-2-13.4-6.3-17-13.3c-8.3-1-14-3.9-16.9-9.2c-0.1-0.1-0.2-0.2-0.3-0.1c-0.1,0-0.2,0.1-0.2,0.3
			c0.2,2.1,0.9,6.3,4.1,8.3c-7,0-12.5,0.9-17.8,3C135.1-57.1,135-57,135-56.8z M164.5-110.3c-0.1,0.1-0.2,0.1-0.3,0
			c-0.1-0.1-0.1-0.2-0.1-0.3c1.6-2.8,0.1-6.8-3-6.8c-5.7,0-8.5,10.8-7.6,20.6c2.2-5.8,4-8.1,7.4-10.8c0.1-0.1,0.2-0.1,0.3,0
			c0.1,0.1,0.1,0.2,0.1,0.3c-4.1,7.3-6.1,15.7-5.9,24.1c1.5-6,3.2-9.3,8.1-14.4c0.1-0.1,0.2-0.1,0.3,0c0.1,0.1,0.1,0.2,0.1,0.3
			c-4.9,10.8-5.3,23.2-1,34.3c0,0.1,0,0.2-0.1,0.3c-0.1,0.1-0.2,0.1-0.3,0c-5.2-2.6-8.3-4.2-12.8-10.4c1.4-7.4,0.2-11-3.2-17.2
			c3.9,9.9,1.8,23.9-8.2,29.6c-0.1,0.1-0.2,0-0.3-0.1c-0.1-0.1-0.1-0.2,0-0.3c4.6-4.8,6.2-11.7,4.1-18c1.5,10.4-7.6,19.2-17.8,19.2
			c-9.6,0-16.2-7.5-15.6-14.9c0.5-7.4,5.4-11,9.7-12.5c0.1,0,0.2,0,0.3,0.1c0.1,0.1,0.1,0.2,0,0.3c-5.6,5.7-6.4,16.5,3.6,19.8
			c-5.9-5.1-3.7-16.8,5.7-17.7c0.1,0,0.2,0.1,0.3,0.2c0,0.1,0,0.2-0.1,0.3c-2.2,1.4-3.6,3.9-3.7,6.6c0,4.7,3.4,6.5,5.7,6.5
			c3.4,0,6.3-3.2,6.3-8.2c0-5.8-5.3-10.7-12-11.4s-12.8,2.2-15.8,6.5c-0.1,0.1-0.2,0.1-0.3,0.1c-0.1-0.1-0.2-0.2-0.1-0.3
			c2.3-9.2,11.7-14.7,20.8-12.4c2.2,0.6,4.2,1.5,6.1,2.9c-6.6-7.5-17-7.6-25.7,0.1c-0.1,0.1-0.2,0.1-0.3,0c-0.1-0.1-0.1-0.2-0.1-0.3
			c2.7-5.4,9.2-11.8,18.6-10.9c8.6,0.9,13.5,9,14.5,15.7c0.6-8.5-1.4-14.5-8.8-20.1c-0.1-0.1-0.1-0.2-0.1-0.3
			c0.1-0.1,0.2-0.2,0.3-0.1c6.8,2,12.2,5.4,15,12.6c0-6.2-2.1-12.4-7.5-16.5c-0.1-0.1-0.1-0.3,0-0.4c0.1-0.1,0.2-0.1,0.2-0.1
			c3.5,1,6.2,2.5,8.1,5.2c1.3-11.1,6.5-17.7,12.5-17.7c4.1,0,7.2,3,7.2,7.9C169.2-115.8,167.4-112.4,164.5-110.3z M263.7-18.7
			c-3.2,3.9-9.5,5.4-16.4,4c0.5,3.9-0.1,7.9-1.6,11.5c-0.1,0.1-0.2,0.2-0.3,0.1c-0.1,0-0.2-0.1-0.2-0.3c0.3-8.8-4.7-15.8-13.4-18.9
			c6.9,4.8,8.9,14.2,5.6,19.1c-0.1,0.1-0.2,0.1-0.3,0.1c-0.1,0-0.2-0.2-0.1-0.3c0.4-2.1-0.6-4.7-2.7-6.7c-2.9-2.8-6.8-3.4-8.8-1.4
			s-1.2,6,1.7,8.8c1,1,2.1,1.7,3.4,2.2c0.1,0,0.2,0.2,0.2,0.3c0,0.1-0.1,0.2-0.2,0.2c-6.4,0.5-10.8-3.2-13.5-7.9s-7.6-8.4-13.2-7.7
			c-0.1,0-0.2-0.1-0.3-0.2c0-0.1,0-0.2,0.1-0.3c2.9-1.9,6.6-2.2,9.9-1c-5.8-5-14-7.8-21.8-5.3c-0.1,0-0.2,0-0.3-0.1
			c-0.1-0.1-0.1-0.2,0-0.3c5.9-6.6,17.7-6.7,25.1-1.4c-3-4.3-7.1-7.5-14.3-8.5c-0.1,0-0.2-0.1-0.2-0.2c0-0.1,0.1-0.2,0.2-0.3
			c8.3-3.1,16.6,0,23.4,8.2c-2.8-6.5-8.2-11.5-14.8-14c-0.1,0-0.2-0.2-0.2-0.3c0-0.1,0.1-0.2,0.2-0.2c3.9-0.1,7.5,0.9,12.3,3.6
			c-3.5-5.7-2.7-15.7,2.4-22.3c0.1-0.1,0.2-0.1,0.3-0.1c0.1,0,0.2,0.2,0.1,0.3c-1.2,7.2,1.3,15.3,5.6,19.6
			c-2.3-7.1,0.1-14.9,5.9-19.6c0.1,0,0.2,0,0.2,0c0.1,0,0.1,0.1,0.2,0.2c1.2,9.4,11.8,19,20.6,19.8c0.1,0,0.2,0.1,0.2,0.2
			c0,0.1-0.1,0.2-0.2,0.3c-4.1,0.9-8.5,0.6-12.4-1c2.6,2.9,5.9,5.1,9.6,6.2c0.1,0,0.2,0.2,0.2,0.3c0,0.1-0.1,0.2-0.2,0.2
			c-4.5,0.3-9-1-12.7-3.5c4.5,6.8,11.4,11.7,19.4,13.5c0.1,0,0.2,0.1,0.2,0.3c0,0.1-0.1,0.2-0.2,0.2c-11.9,1.3-21.8-3.3-28.2-11.9
			c1.6,4.9,6.4,9.8,12.9,12.6c5.9,2.6,11.9,3,16.4,1.5c0.1,0,0.2,0,0.3,0.1C263.8-18.9,263.8-18.8,263.7-18.7z M210.8-94.3
			c4.8,10.5,4.5,18.7,0.6,29.1c-0.1,0.1-0.2,0.2-0.3,0.2c-0.1,0-0.2-0.1-0.2-0.3c0.6-12.6-2.8-21.7-10.3-27.8
			c8.2,9.8,4.4,29.6-8.8,29.6c-9.6,0-17.5-8-19.4-17.5c0-0.1,0-0.2,0.2-0.3c0.1,0,0.2,0,0.3,0.1c2.8,4.8,7.4,7.8,12.4,7.8
			c8.1,0,10.5-6.5,10.5-11c0-6.2-4.9-11.3-8.7-11.3c-2.7,0-5,2.2-5,4.9c0,0,0,0,0,0.1c0.1,3.8,2.7,7.1,6.4,8.2
			c0.1,0,0.2,0.2,0.2,0.3c0,0.1-0.1,0.2-0.2,0.2c-4,0.1-7.8-2-9.6-5.6c-0.4,2.6-0.2,5.2,0.6,7.7c0,0.1,0,0.2-0.1,0.3
			c-0.1,0.1-0.2,0-0.3-0.1c-7.4-9.4-3.8-25.6,2-32.4c-5.6,4-10.4,12.6-10.4,24.4c0,0.1-0.1,0.2-0.2,0.2c-0.1,0-0.2,0-0.3-0.2
			c-4.1-10.2-1.9-29.2,9.3-39.8c-3.1-0.5-6.2-0.2-9.1,0.7c-0.1,0-0.2,0-0.3-0.1c-0.1-0.1,0-0.2,0.1-0.3c4.1-3.4,9.8-4.5,15.3-4.5
			c-4.7,5.5-3.1,16.6,4.4,16.6c5.4,0,7.8-8.3,3.6-12.8c-0.1-0.1-0.1-0.2,0-0.3c0.1-0.1,0.2-0.1,0.3-0.1c4.8,1.7,9.9,5.8,9.9,11
			c0,5-4.8,9.4-11.8,9.1c8.8,2.5,18-0.3,22.9-6.2c0.1-0.1,0.2-0.1,0.3-0.1c0.1,0.1,0.2,0.2,0.1,0.3c-2.8,10.7-12,15.2-23.4,13.7
			c9.3,3.8,23.2,0.5,29.4-7.3c0.1-0.1,0.2-0.1,0.3-0.1c0.1,0,0.2,0.2,0.1,0.3C220-101.2,216.5-96.2,210.8-94.3z"/>
		<path class="st2" d="M237.2-75c0-0.1-0.1-0.2-0.2-0.2c-12.9-0.1-24.8-3.3-34-11.5c8,5.6,22.9,7.5,31.5,3.6
			c0.1-0.1,0.2-0.2,0.1-0.3c0-0.1-0.1-0.2-0.3-0.2c-10.7,0.3-19.3-3-26-9c6.9-0.4,12.6-4.7,12.6-9.8c0-0.1-0.1-0.2-0.2-0.2
			c-0.1,0-0.2,0-0.3,0.2c-1.1,2.5-4.8,3.8-8.6,2.9c-4.2-1-7-4.2-6.3-7.2c0.5-2,2.4-3.4,5-3.8c0.1,0,0.2-0.1,0.2-0.2
			c0-0.1-0.1-0.2-0.2-0.2c-1.1-0.1-2.2-0.1-3.3,0c-6.5,0.6-11.5,4.6-11.9,9.2c-4.7-0.5-8.9-3.2-10.4-6.8c0-0.1-0.2-0.2-0.3-0.2
			c-0.1,0-0.2,0.1-0.2,0.2c-0.4,4.8,1.3,7.8,5,10.8c-5.6-2.2-11.9-2-17.3,0.6c-0.1,0-0.2,0.2-0.1,0.3c0,0.1,0.1,0.2,0.2,0.2
			c4.4,0,8.7,1.9,11.7,5.1c-18.3-5.1-33.1,6.2-28,23.1c0,0.1,0.1,0.2,0.3,0.2c0.1,0,0.2-0.1,0.2-0.2c0.9-9.7,7.7-16.1,17.9-17.1
			c-6.6,2.4-11.2,8.5-11.5,15.5c0,0.1,0.1,0.2,0.2,0.3c0.1,0,0.2,0,0.3-0.2c2.5-5.6,8-9.4,14.2-9.8c-6.3,2.6-10.4,8.6-11.6,16.4
			c0,0.1,0.1,0.2,0.2,0.3c0.1,0,0.2,0,0.3-0.1c3.9-7.6,12.2-12.8,22.4-8.9c10.6,4.1,15.3,16.4,16.3,25c0,0.1,0.1,0.2,0.2,0.2
			s0.2-0.1,0.2-0.2c3.7-15.7-3.6-32-16.6-38.8c7.1,2,13.4,6.3,17,13.4c8.3,1,14,3.9,16.9,9.2c0.1,0.1,0.2,0.1,0.3,0.1
			c0.1,0,0.2-0.1,0.2-0.3c-0.2-2.1-0.9-6.3-4.1-8.3c6.1,0.2,12.1-0.8,17.8-3C237.1-74.8,237.2-74.9,237.2-75z M207.7-21.5
			c0.1-0.1,0.2-0.1,0.3,0c0.1,0.1,0.1,0.2,0,0.3c-1.6,2.8-0.1,6.8,3.1,6.8c5.7,0,8.5-10.8,7.6-20.6c-2.2,5.8-4,8-7.4,10.8
			c-0.1,0.1-0.2,0.1-0.3,0c-0.1-0.1-0.1-0.2-0.1-0.3c4.1-7.4,6.1-15.7,5.9-24.1c-1.5,6-3.2,9.3-8.1,14.4c-0.1,0.1-0.2,0.1-0.3,0
			c-0.1-0.1-0.1-0.2-0.1-0.3c4.9-10.8,5.3-23.2,0.9-34.3c-0.1-0.1,0-0.3,0.1-0.3c0.1,0,0.1,0,0.2,0c5.2,2.5,8.3,4.2,12.8,10.4
			c-1.4,7.4-0.2,11,3.2,17.2c-3.9-9.9-1.8-23.9,8.2-29.6c0.1-0.1,0.2,0,0.3,0.1c0.1,0.1,0.1,0.2,0,0.3c-4.6,4.8-6.2,11.6-4.2,17.9
			c-1.5-10.4,7.7-19.1,17.8-19.1c9.6,0,16.1,7.5,15.6,14.9c-0.5,7.4-5.4,11-9.7,12.5c-0.1,0-0.2,0-0.3-0.1c-0.1-0.1-0.1-0.2,0-0.3
			c5.6-5.7,6.4-16.5-3.6-19.8c5.9,5,3.7,16.8-5.7,17.7c-0.1,0-0.2-0.1-0.3-0.2c0-0.1,0-0.2,0.1-0.3c2.2-1.4,3.6-3.9,3.7-6.6
			c0-4.7-3.4-6.5-5.7-6.5c-3.4,0-6.3,3.3-6.3,8.2c0,5.8,5.3,10.7,12,11.4s12.8-2.2,15.8-6.5c0.1-0.1,0.2-0.1,0.3-0.1
			c0.1,0.1,0.1,0.2,0.1,0.3c-2.3,9.2-11.6,14.7-20.8,12.4c-2.2-0.6-4.3-1.5-6.1-2.9c6.6,7.5,17,7.6,25.7-0.1c0.1-0.1,0.2-0.1,0.3,0
			c0.1,0.1,0.1,0.2,0.1,0.3c-2.7,5.4-9.2,11.8-18.6,10.9c-8.6-0.9-13.5-9-14.5-15.7c-0.6,8.5,1.4,14.5,8.8,20.1
			c0.1,0.1,0.1,0.2,0.1,0.3c-0.1,0.1-0.2,0.2-0.3,0.1c-6.8-2-12.2-5.4-15-12.5c0,6.2,2.1,12.4,7.5,16.5c0.1,0.1,0.1,0.2,0.1,0.3
			c-0.1,0.1-0.2,0.2-0.3,0.1c-3.5-1-6.2-2.5-8.1-5.2c-1.3,11.1-6.5,17.7-12.5,17.7c-4.1,0-7.2-3-7.2-7.9
			C203-16.1,204.8-19.4,207.7-21.5z M108.5-113.2c3.2-3.9,9.5-5.4,16.4-4c-0.5-3.9,0.1-7.8,1.6-11.4c0-0.1,0.2-0.2,0.3-0.1
			c0.1,0,0.2,0.1,0.2,0.3c-0.4,8.8,4.6,15.8,13.4,18.9c-6.9-4.8-8.9-14.2-5.6-19.1c0.1-0.1,0.2-0.1,0.3-0.1c0.1,0,0.2,0.2,0.2,0.3
			c-0.4,2.1,0.6,4.7,2.7,6.7c2.9,2.8,6.9,3.5,8.8,1.4s1.2-5.9-1.7-8.8c-1-1-2.2-1.7-3.4-2.2c-0.1,0-0.2-0.2-0.2-0.3
			c0-0.1,0.1-0.2,0.2-0.2c6.4-0.6,10.8,3.2,13.5,7.9s7.6,8.4,13.2,7.7c0.1,0,0.2,0.1,0.3,0.2c0,0.1,0,0.2-0.1,0.3
			c-2.9,1.9-6.6,2.3-9.9,1.1c5.8,4.9,14.1,7.7,21.8,5.2c0.1,0,0.2,0,0.3,0.1c0.1,0.1,0.1,0.2,0,0.3c-5.9,6.6-17.7,6.7-25.1,1.4
			c3,4.3,7.1,7.5,14.3,8.5c0.1,0,0.2,0.1,0.2,0.2c0,0.1-0.1,0.2-0.2,0.3c-8.3,3.1-16.6,0-23.4-8.2c2.8,6.5,8.2,11.5,14.8,14
			c0.1,0,0.2,0.2,0.2,0.3c0,0.1-0.1,0.2-0.2,0.2c-3.9,0.1-7.5-0.9-12.3-3.6c3.5,5.7,2.7,15.6-2.4,22.3c-0.1,0.1-0.2,0.1-0.3,0.1
			c-0.1,0-0.2-0.2-0.1-0.3c1.2-7.2-1.3-15.3-5.6-19.6c2.3,7.1-0.1,14.9-5.9,19.7c-0.1,0-0.2,0-0.2,0c-0.1,0-0.2-0.1-0.2-0.2
			c-1.2-9.4-11.8-19-20.6-19.8c-0.1,0-0.2-0.1-0.2-0.2c0-0.1,0.1-0.2,0.2-0.3c4.1-0.9,8.5-0.6,12.4,1c-2.6-2.9-5.9-5-9.6-6.2
			c-0.1,0-0.2-0.2-0.2-0.3c0-0.1,0.1-0.2,0.2-0.2c4.5-0.3,9,1,12.7,3.5c-4.5-6.9-11.5-11.7-19.5-13.5c-0.1,0-0.2-0.1-0.2-0.3
			c0-0.1,0.1-0.2,0.2-0.2c11.9-1.3,21.8,3.3,28.2,11.9c-1.6-4.9-6.4-9.7-12.9-12.6c-5.8-2.5-11.8-2.9-16.4-1.5c-0.1,0-0.2,0-0.3-0.1
			C108.4-112.9,108.4-113.1,108.5-113.2z M161.4-37.6c-4.8-10.5-4.5-18.7-0.6-29c0.1-0.1,0.2-0.2,0.3-0.1c0.1,0,0.2,0.1,0.2,0.2
			c-0.6,12.6,2.8,21.6,10.3,27.8c-8.2-9.9-4.4-29.6,8.8-29.6c9.6,0,17.5,8,19.4,17.5c0,0.1,0,0.2-0.2,0.3c-0.1,0-0.2,0-0.3-0.1
			c-2.9-4.8-7.4-7.8-12.5-7.8c-8.1,0-10.5,6.5-10.5,11c0,6.2,4.9,11.3,8.7,11.3c2.7,0.1,5-2.1,5-4.8c0,0,0-0.1,0-0.1
			c-0.2-3.8-2.8-7.1-6.4-8.1c-0.1,0-0.2-0.2-0.2-0.3c0-0.1,0.1-0.2,0.2-0.2c4-0.1,7.8,2,9.6,5.6c0.4-2.6,0.2-5.2-0.6-7.7
			c0-0.1,0-0.2,0.1-0.3c0.1-0.1,0.2,0,0.3,0.1c7.4,9.4,3.8,25.6-2,32.4c5.5-4,10.4-12.6,10.3-24.4c0-0.1,0.1-0.2,0.2-0.2
			c0.1,0,0.2,0,0.3,0.2c4.1,10.2,1.9,29.2-9.3,39.8c3.1,0.5,6.2,0.2,9.1-0.7c0.1,0,0.2,0,0.3,0.1c0.1,0.1,0,0.2-0.1,0.3
			c-4.1,3.5-9.8,4.5-15.3,4.5c4.7-5.5,3.1-16.5-4.4-16.5c-5.3,0-7.8,8.3-3.6,12.8c0.1,0.1,0.1,0.2,0,0.3c-0.1,0.1-0.2,0.1-0.3,0.1
			c-4.8-1.6-9.9-5.8-9.9-11c0-5.1,4.8-9.4,11.8-9.1c-8.8-2.5-18.1,0.3-22.9,6.3c-0.1,0.1-0.2,0.1-0.3,0c-0.1-0.1-0.2-0.2-0.1-0.3
			c2.8-10.7,12-15.2,23.4-13.7c-9.3-3.8-23.2-0.5-29.4,7.3c-0.1,0.1-0.2,0.1-0.3,0.1c-0.1-0.1-0.2-0.2-0.1-0.3
			C152.1-30.7,155.6-35.6,161.4-37.6L161.4-37.6z"/>
		<path class="st1" d="M26.7-56.8c0,0.1,0.1,0.2,0.2,0.2c12.9,0.1,24.8,3.3,34,11.5c-8-5.6-22.9-7.5-31.5-3.6
			c-0.1,0.1-0.2,0.2-0.1,0.3c0,0.1,0.1,0.2,0.3,0.2c10.7-0.3,19.3,3,26,9c-6.9,0.4-12.6,4.7-12.6,9.8c0,0.1,0.1,0.2,0.2,0.2
			c0.1,0,0.2,0,0.3-0.1c1.2-2.5,4.8-3.8,8.6-2.9c4.2,1,7,4.2,6.3,7.2c-0.5,2-2.4,3.4-5,3.8c-0.1,0-0.2,0.1-0.2,0.3
			c0,0.1,0.1,0.2,0.2,0.2c1.1,0.1,2.2,0.1,3.3,0c6.5-0.6,11.5-4.6,12-9.2c4.7,0.6,8.9,3.2,10.3,6.8C79-23,79.1-23,79.2-23
			c0.1,0,0.2-0.1,0.2-0.2c0.4-4.8-1.3-7.8-5-10.9c5.6,2.2,11.8,2,17.2-0.5c0.1,0,0.2-0.2,0.2-0.3c0-0.1-0.1-0.2-0.2-0.2
			c-4.4,0-8.7-1.8-11.7-5.1c18.2,5.1,33.1-6.2,28-23c0-0.1-0.1-0.2-0.3-0.2c-0.1,0-0.2,0.1-0.2,0.2c-0.9,9.7-7.7,16.1-17.9,17
			c6.6-2.4,11.2-8.5,11.5-15.5c0-0.1-0.1-0.3-0.2-0.3c-0.1,0-0.2,0.1-0.3,0.2c-2.5,5.6-8,9.4-14.2,9.8c6.3-2.6,10.4-8.6,11.6-16.4
			c0-0.1-0.1-0.2-0.2-0.3c-0.1,0-0.2,0-0.3,0.1c-3.9,7.6-12.2,12.8-22.5,8.8c-10.6-4.1-15.3-16.4-16.3-25c0-0.1-0.1-0.2-0.2-0.2
			c-0.1,0-0.2,0.1-0.3,0.2C54.5-69.2,61.8-52.9,74.9-46c-7.1-2-13.4-6.3-17-13.3c-8.3-1-14-3.9-16.9-9.2c-0.1-0.1-0.2-0.2-0.3-0.1
			c-0.1,0-0.2,0.1-0.2,0.3c0.2,2.1,1,6.3,4.1,8.3c-7,0-12.5,0.9-17.8,3C26.7-57.1,26.6-57,26.7-56.8z M56.1-110.3
			c-0.1,0.1-0.2,0.1-0.3,0c-0.1-0.1-0.1-0.2,0-0.3c1.6-2.8,0.1-6.8-3-6.8c-5.7,0-8.5,10.8-7.6,20.6c2.2-5.8,4-8.1,7.3-10.8
			c0.1-0.1,0.2-0.1,0.3,0c0.1,0.1,0.1,0.2,0.1,0.3c-4.1,7.3-6.2,15.6-6,24.1c1.5-6,3.2-9.3,8.1-14.4c0.1-0.1,0.2-0.1,0.3,0
			c0.1,0.1,0.1,0.2,0.1,0.3c-4.9,10.8-5.3,23.1-1,34.2c0.1,0.1,0.1,0.2,0,0.3c-0.1,0.1-0.2,0.1-0.3,0C49-65.3,45.9-67,41.5-73.2
			c1.4-7.4,0.2-11-3.2-17.2c3.9,9.9,1.8,23.9-8.2,29.6c-0.1,0.1-0.2,0-0.3-0.1c-0.1-0.1-0.1-0.2,0-0.3c4.6-4.8,6.2-11.7,4.2-18
			C35.5-68.7,26.4-60,16.2-60C6.6-60,0-67.5,0.6-74.9c0.5-7.4,5.5-11,9.7-12.5c0.1,0,0.2,0,0.3,0.1c0.1,0.1,0.1,0.2,0,0.3
			c-5.6,5.7-6.4,16.5,3.6,19.8c-5.9-5.1-3.7-16.8,5.7-17.7c0.1,0,0.2,0.1,0.3,0.2c0,0.1,0,0.2-0.1,0.3c-2.2,1.4-3.6,3.9-3.7,6.6
			c0,4.7,3.4,6.5,5.7,6.5c3.4,0,6.3-3.2,6.3-8.2c0-5.8-5.3-10.7-12-11.4S3.4-88.9,0.5-84.6c-0.1,0.1-0.2,0.1-0.3,0.1
			C0-84.5,0-84.7,0-84.8C2.4-94,11.7-99.5,20.9-97.2c2.2,0.6,4.2,1.5,6,2.9c-6.6-7.5-17-7.6-25.7,0.1c-0.1,0.1-0.2,0.1-0.3,0
			c-0.1-0.1-0.1-0.2-0.1-0.3c2.7-5.4,9.2-11.8,18.6-10.9c8.6,0.9,13.5,9,14.5,15.7c0.6-8.5-1.4-14.5-8.8-20.1
			c-0.1-0.1-0.1-0.2-0.1-0.3c0.1-0.1,0.2-0.2,0.3-0.1c6.8,2,12.2,5.4,15.1,12.6c0-6.2-2.1-12.4-7.5-16.5c-0.1-0.1-0.1-0.2-0.1-0.3
			c0.1-0.1,0.2-0.2,0.3-0.1c3.5,1,6.2,2.5,8.1,5.2c1.3-11.1,6.5-17.7,12.5-17.7c4.1,0,7.2,3,7.2,7.9
			C60.9-115.7,59.1-112.4,56.1-110.3z M155.4-18.7c-3.2,3.9-9.5,5.4-16.4,4c0.5,3.9-0.1,7.9-1.6,11.5c-0.1,0.1-0.2,0.2-0.3,0.1
			c-0.1,0-0.2-0.1-0.2-0.3c0.4-8.8-4.6-15.8-13.4-18.9c6.9,4.8,8.9,14.2,5.6,19.1c-0.1,0.1-0.2,0.1-0.3,0.1c-0.1,0-0.2-0.2-0.1-0.3
			c0.4-2.1-0.6-4.7-2.7-6.7c-2.9-2.8-6.8-3.4-8.8-1.4s-1.2,6,1.7,8.8c1,1,2.2,1.7,3.4,2.2c0.1,0,0.2,0.2,0.2,0.3
			c0,0.1-0.1,0.2-0.2,0.2c-6.4,0.5-10.8-3.2-13.5-7.9s-7.6-8.5-13.2-7.7c-0.1,0-0.2-0.1-0.3-0.2c0-0.1,0-0.2,0.1-0.3
			c2.9-1.9,6.6-2.2,9.9-1c-5.8-5-14-7.8-21.8-5.3c-0.1,0-0.2,0-0.3-0.1c-0.1-0.1-0.1-0.2,0-0.3c5.9-6.6,17.7-6.7,25.1-1.3
			c-3-4.3-7.1-7.5-14.3-8.5c-0.1,0-0.2-0.1-0.2-0.2c0-0.1,0-0.2,0.2-0.3c8.3-3.1,16.6,0,23.4,8.2c-2.8-6.5-8.2-11.5-14.8-14
			c-0.1,0-0.2-0.2-0.2-0.3c0-0.1,0.1-0.2,0.2-0.2c3.9-0.1,7.5,0.9,12.3,3.6c-3.5-5.7-2.7-15.7,2.4-22.3c0.1-0.1,0.3-0.1,0.4,0
			c0.1,0,0.2,0.2,0.1,0.3c-1.2,7.2,1.3,15.3,5.6,19.6c-2.3-7.1,0.1-14.9,5.9-19.6c0.1,0,0.2,0,0.3,0c0.1,0,0.1,0.1,0.2,0.2
			c1.2,9.4,11.8,19,20.6,19.8c0.1,0,0.2,0.1,0.2,0.2c0,0.1-0.1,0.2-0.2,0.3c-4.1,0.9-8.5,0.6-12.4-1c2.6,2.9,5.9,5.1,9.6,6.2
			c0.1,0,0.2,0.1,0.2,0.3c0,0.1-0.1,0.2-0.2,0.2c-4.6,0.2-9.1-1-12.8-3.7C139-28.5,146-23.6,154-21.8c0.1,0,0.2,0.1,0.2,0.3
			c0,0.1-0.1,0.2-0.2,0.2c-11.9,1.3-21.8-3.3-28.2-11.9c1.7,4.9,6.4,9.8,12.9,12.6c5.9,2.6,11.9,3,16.4,1.5c0.1,0,0.2,0,0.3,0.1
			C155.5-19,155.5-18.8,155.4-18.7z M102.5-94.3c4.8,10.5,4.5,18.7,0.6,29.1c-0.1,0.1-0.2,0.2-0.3,0.2c-0.1,0-0.2-0.1-0.2-0.3
			c0.6-12.6-2.8-21.7-10.3-27.8c8.2,9.9,4.3,29.6-8.8,29.6c-9.6,0-17.5-8-19.4-17.5c0-0.1,0-0.2,0.2-0.3c0.1,0,0.2,0,0.3,0.1
			c2.8,4.8,7.4,7.8,12.4,7.8c8.1,0,10.5-6.5,10.5-11c0-6.2-4.9-11.3-8.7-11.3c-2.7,0-5,2.2-5,4.9c0,0,0,0,0,0.1
			c0.1,3.8,2.7,7.1,6.4,8.2c0.1,0,0.2,0.2,0.2,0.3c0,0.1-0.1,0.2-0.2,0.2c-4,0.1-7.8-2-9.6-5.6c-0.4,2.6-0.2,5.2,0.6,7.7
			c0,0.1,0,0.2-0.1,0.3c-0.1,0.1-0.2,0-0.3-0.1c-7.4-9.4-3.9-25.6,1.9-32.4c-5.5,4-10.4,12.6-10.3,24.4c0,0.1-0.1,0.2-0.2,0.2
			c-0.1,0-0.2,0-0.3-0.2c-4.1-10.2-1.9-29.2,9.3-39.8c-3.1-0.5-6.2-0.2-9.1,0.7c-0.1,0-0.2,0-0.3-0.1c-0.1-0.1,0-0.2,0.1-0.3
			c4.1-3.4,9.8-4.5,15.3-4.5c-4.7,5.5-3.1,16.6,4.4,16.6c5.3,0,7.8-8.3,3.7-12.8c-0.1-0.1-0.1-0.2,0-0.3c0.1-0.1,0.2-0.1,0.3-0.1
			c4.8,1.7,9.9,5.8,9.9,11c0,5-4.8,9.4-11.8,9.1c8.8,2.5,18-0.3,22.9-6.2c0.1-0.1,0.3-0.1,0.4,0c0.1,0.1,0.1,0.2,0.1,0.2
			c-2.8,10.7-12,15.2-23.4,13.7c9.3,3.8,23.3,0.5,29.4-7.3c0.1-0.1,0.2-0.1,0.3-0.1c0.1,0.1,0.2,0.2,0.1,0.3
			C111.7-101.2,108.2-96.2,102.5-94.3z"/>
		<path class="st2" d="M128.8-75c0-0.1-0.1-0.2-0.2-0.2c-12.9-0.1-24.8-3.3-34-11.5c8,5.6,22.9,7.5,31.5,3.6
			c0.1-0.1,0.2-0.2,0.1-0.4c0-0.1-0.1-0.1-0.2-0.1c-10.7,0.3-19.3-3-26-9c6.9-0.4,12.6-4.7,12.6-9.8c0-0.1-0.1-0.3-0.3-0.2
			c-0.1,0-0.2,0.1-0.2,0.1c-1.1,2.5-4.8,3.8-8.6,2.9c-4.2-1-7-4.2-6.3-7.2c0.5-2,2.4-3.4,5-3.8c0.1,0,0.2-0.1,0.2-0.2
			c0-0.1-0.1-0.2-0.2-0.2c-1.1-0.1-2.2-0.1-3.3,0c-6.5,0.6-11.5,4.6-12,9.2c-4.7-0.5-8.9-3.2-10.4-6.8c0-0.1-0.2-0.2-0.3-0.2
			c-0.1,0-0.2,0.1-0.2,0.2c-0.4,4.8,1.3,7.8,5,10.8c-5.6-2.2-11.8-2-17.2,0.6c-0.1,0.1-0.2,0.2-0.1,0.3c0,0.1,0.1,0.2,0.2,0.2
			c4.4,0,8.7,1.9,11.7,5.1c-18.3-5.2-33.1,6.2-28,23c0,0.1,0.1,0.2,0.3,0.2c0.1,0,0.2-0.1,0.2-0.2c0.9-9.7,7.7-16.1,17.9-17.1
			c-6.6,2.4-11.2,8.5-11.6,15.5c0,0.1,0.1,0.2,0.2,0.3c0.1,0,0.2,0,0.3-0.2c2.5-5.6,8-9.4,14.2-9.8c-6.3,2.6-10.4,8.6-11.6,16.4
			c0,0.1,0.1,0.2,0.2,0.3c0.1,0,0.2,0,0.3-0.1c3.9-7.6,12.2-12.8,22.4-8.9c10.6,4.1,15.3,16.4,16.3,25c0,0.1,0.1,0.2,0.2,0.2
			c0.1,0,0.2-0.1,0.3-0.2c3.7-15.7-3.6-32-16.6-38.8c7.1,2,13.4,6.3,17,13.4c8.3,1,14,3.9,16.9,9.2c0.1,0.1,0.2,0.2,0.3,0.1
			c0.1,0,0.2-0.1,0.2-0.3c-0.2-2.1-0.9-6.3-4.1-8.3c6.1,0.2,12.1-0.8,17.8-3C128.8-74.8,128.8-74.9,128.8-75z M99.4-21.5
			c0.1-0.1,0.2-0.1,0.3,0c0.1,0.1,0.1,0.2,0,0.3c-1.6,2.8-0.1,6.8,3,6.8c5.8,0,8.6-10.8,7.7-20.6c-2.2,5.7-4,8-7.3,10.8
			c-0.1,0.1-0.2,0.1-0.3,0c-0.1-0.1-0.1-0.2-0.1-0.3c4.1-7.4,6.1-15.7,5.9-24.1c-1.5,6-3.2,9.3-8.1,14.4c-0.1,0.1-0.2,0.1-0.3,0
			c-0.1-0.1-0.1-0.2-0.1-0.3c4.9-10.8,5.3-23.2,1-34.3c-0.1-0.1,0-0.3,0.1-0.3c0.1,0,0.1,0,0.2,0c5.2,2.6,8.2,4.3,12.7,10.4
			c-1.4,7.4-0.2,11,3.2,17.2c-3.9-9.9-1.8-23.9,8.2-29.6c0.1-0.1,0.2,0,0.3,0.1c0.1,0.1,0.1,0.2,0,0.3c-4.6,4.7-6.2,11.6-4.2,17.9
			c-1.5-10.4,7.6-19.1,17.8-19.1c9.6,0,16.1,7.5,15.6,14.9c-0.5,7.4-5.4,11-9.7,12.5c-0.1,0-0.2,0-0.3-0.1c-0.1-0.1-0.1-0.2,0-0.3
			c5.6-5.7,6.4-16.5-3.6-19.8c5.9,5,3.7,16.8-5.7,17.7c-0.1,0-0.2-0.1-0.3-0.2c0-0.1,0-0.2,0.1-0.3c2.2-1.4,3.6-3.9,3.7-6.6
			c0-4.7-3.4-6.5-5.7-6.5c-3.4,0-6.3,3.3-6.3,8.2c0,5.8,5.3,10.7,12,11.4c6.7,0.8,12.8-2.2,15.8-6.5c0.1-0.1,0.2-0.2,0.3-0.1
			s0.2,0.2,0.1,0.3c-2.3,9.2-11.6,14.7-20.8,12.4c-2.2-0.6-4.3-1.5-6.1-2.9c6.6,7.5,17,7.6,25.7-0.1c0.1-0.1,0.2-0.1,0.3,0
			c0.1,0.1,0.1,0.2,0.1,0.3c-2.6,5.4-9.2,11.8-18.6,10.9c-8.6-0.9-13.5-9-14.5-15.7c-0.6,8.5,1.4,14.5,8.8,20.1
			c0.1,0.1,0.1,0.2,0.1,0.3c-0.1,0.1-0.2,0.2-0.3,0.1c-6.8-2-12.2-5.4-15.1-12.5c0,6.2,2.1,12.4,7.5,16.5c0.1,0.1,0.1,0.2,0.1,0.3
			c-0.1,0.1-0.2,0.2-0.3,0.1c-3.5-1-6.2-2.5-8.1-5.2c-1.3,11.1-6.5,17.7-12.5,17.7c-4.1,0-7.2-3-7.2-7.9
			C94.6-16.1,96.4-19.4,99.4-21.5z M0.1-113.2c3.2-3.9,9.5-5.4,16.4-4c-0.5-3.9,0.1-7.9,1.6-11.5c0-0.1,0.2-0.2,0.3-0.1
			c0.1,0,0.2,0.1,0.2,0.3c-0.4,8.8,4.6,15.8,13.4,18.9c-6.9-4.8-8.9-14.2-5.6-19.1c0.1-0.1,0.2-0.1,0.3-0.1c0.1,0,0.2,0.2,0.1,0.3
			c-0.4,2.1,0.6,4.7,2.7,6.7c2.9,2.8,6.9,3.5,8.8,1.4c2-2,1.2-5.9-1.7-8.8c-1-1-2.2-1.7-3.5-2.2c-0.1,0-0.2-0.2-0.2-0.3
			c0-0.1,0.1-0.2,0.2-0.2c6.4-0.6,10.8,3.2,13.5,7.9s7.6,8.4,13.2,7.7c0.1,0,0.2,0.1,0.3,0.2c0,0.1,0,0.2-0.1,0.3
			c-2.9,1.9-6.6,2.3-9.9,1.1c5.8,4.9,14.1,7.7,21.8,5.2c0.1,0,0.3,0,0.3,0.2c0,0.1,0,0.2,0,0.2c-5.9,6.5-17.7,6.7-25.1,1.3
			c3,4.3,7.1,7.5,14.3,8.5c0.1,0,0.2,0.1,0.2,0.2c0,0.1-0.1,0.2-0.2,0.3c-8.3,3.1-16.6,0-23.4-8.2c2.8,6.5,8.2,11.5,14.8,14
			c0.1,0,0.2,0.2,0.2,0.3c0,0.1-0.1,0.2-0.2,0.2c-3.9,0.1-7.5-0.9-12.3-3.6c3.5,5.7,2.7,15.6-2.4,22.3c-0.1,0.1-0.2,0.1-0.3,0.1
			c-0.1,0-0.2-0.2-0.1-0.3c1.2-7.2-1.3-15.3-5.6-19.6c2.3,7.1-0.1,14.9-5.9,19.7c-0.1,0-0.2,0-0.2,0C26-73.9,26-74,26-74.1
			c-1.2-9.4-11.8-19-20.6-19.8c-0.1,0-0.2-0.1-0.2-0.2c0-0.1,0.1-0.2,0.2-0.3c4.1-0.9,8.5-0.6,12.4,1c-2.6-2.9-5.9-5-9.6-6.2
			C8-99.6,8-99.8,8-99.9c0-0.1,0.1-0.2,0.2-0.2c4.5-0.3,9,1,12.7,3.5c-4.5-6.8-11.4-11.7-19.4-13.5c-0.1,0-0.2-0.1-0.2-0.3
			c0-0.1,0.1-0.2,0.2-0.2c11.9-1.3,21.8,3.3,28.2,11.9c-1.6-4.9-6.4-9.8-12.9-12.6c-5.8-2.5-11.9-2.9-16.4-1.5c-0.1,0-0.2,0-0.3-0.1
			C0-112.9,0.1-113.1,0.1-113.2z M53-37.6c-4.8-10.5-4.5-18.7-0.6-29.1c0.1-0.1,0.2-0.2,0.3-0.1c0.1,0,0.2,0.1,0.2,0.2
			c-0.6,12.6,2.8,21.7,10.3,27.8c-8.2-9.9-4.4-29.6,8.8-29.6c9.6,0,17.5,8,19.5,17.5c0,0.1,0,0.2-0.2,0.3c-0.1,0-0.2,0-0.3-0.1
			c-2.8-4.8-7.4-7.8-12.5-7.8c-8.1,0-10.5,6.5-10.5,11c0,6.2,4.9,11.3,8.7,11.3c2.7,0,5-2.2,5-4.9c0,0,0,0,0,0
			c-0.2-3.8-2.7-7.1-6.3-8.2c-0.1,0-0.2-0.2-0.2-0.3c0-0.1,0.1-0.2,0.2-0.2c4-0.1,7.8,2,9.6,5.6c0.4-2.6,0.2-5.2-0.6-7.7
			c0-0.1,0-0.2,0.1-0.3c0.1-0.1,0.2,0,0.3,0.1c7.4,9.4,3.8,25.6-2,32.4c5.5-4,10.4-12.6,10.3-24.4c0-0.1,0.1-0.2,0.2-0.2
			c0.1,0,0.2,0,0.3,0.2c4.1,10.2,1.9,29.2-9.3,39.8c3.1,0.5,6.2,0.2,9.1-0.7c0.1,0,0.2,0,0.3,0.1c0.1,0.1,0.1,0.2,0,0.3
			C89.8-1.1,84.1,0,78.7,0c4.7-5.5,3.1-16.5-4.3-16.5c-5.4,0-7.8,8.3-3.7,12.8c0.1,0.1,0.1,0.2,0,0.3c-0.1,0.1-0.2,0.1-0.3,0.1
			c-4.8-1.6-10-5.8-10-11c0-5.1,4.8-9.4,11.8-9.1c-8.8-2.5-18,0.3-22.9,6.3c-0.1,0.1-0.2,0.1-0.3,0.1c-0.1-0.1-0.2-0.2-0.1-0.3
			c2.8-10.7,12-15.2,23.4-13.7C63-34.9,49-31.6,42.9-23.8c-0.1,0.1-0.2,0.2-0.3,0.1c-0.1,0-0.2-0.2-0.1-0.3
			C43.8-30.7,47.3-35.6,53-37.6z"/>
	</g>
</pattern>
<title>baggrund</title>
<rect x="0.8" y="0.2" class="st3" width="1919" height="565"/>
<path class="st4" d="M1919.8,743.2H0.8v-224c56.2,14.4,113.3,24.7,171,31c243.9,26.5,372.4-34.5,579-44c171.2-7.9,198.5,28.6,426,56
	c173,20.8,424.8,31.8,744-22C1920.4,607.9,1920.1,675.6,1919.8,743.2z"/>
<path class="st5" d="M1920.3,1079.8H0.3v-381c86.3-9.3,173.5-6.6,259,8c23.5,4,39.9,7.7,46,9c176.4,38.2,478.3-7.4,516-13
	c205.5-30.7,394.7-58.9,607-42c45.4,3.6,178.6,16.2,389,31c43.2,3,79,5.4,103,7V1079.8z"/>
<path class="st6" d="M1631.8,1026.2c-0.9-5.1-1.4-10.3-1.5-15.5c-0.2-8.8,0.8-14.8,0-15c-1.6-0.3-6,25.7-10.5,25.5
	c-2.9-0.1-4.9-10.8-5.5-15.5c-1.1-8.7,0.2-14.3-0.5-14.5s-3.8,6.9-13,38"/>
<path class="st6" d="M252.8,761.9c-0.9-5.1-1.4-10.3-1.5-15.5c-0.2-8.8,0.8-14.8,0-15c-1.6-0.3-5.9,25.7-10.5,25.5
	c-2.9-0.1-4.9-10.8-5.5-15.5c-1.1-8.7,0.2-14.3-0.5-14.5s-3.8,6.9-13,38"/>
<path class="st6" d="M152.6,955.9c0.6-4,1-8.1,1.1-12.2c0.1-6.9-0.5-11.7,0-11.8c1.1-0.2,4.2,20.2,7.5,20c2.1-0.1,3.5-8.5,3.9-12.2
	c0.8-6.8-0.1-11.2,0.4-11.4s2.7,5.4,9.3,29.8"/>
<path class="st6" d="M1872.4,1049.8c0.6-4,1-8.1,1.1-12.2c0.1-6.9-0.5-11.7,0-11.8c1.1-0.2,4.2,20.2,7.5,20
	c2.1-0.1,3.5-8.5,3.9-12.2c0.8-6.8-0.2-11.2,0.4-11.4s2.7,5.4,9.3,29.8"/>
<path class="st7" d="M135.7,770.5c0.9-4.1,4.6-23-0.6-25.2c-0.8-0.3-1.6-0.3-2.3,0c-6.4,2.1-5.8,21.6-5.9,21.7
	c-2.5-3.1-5.5-5.9-8.8-8.2c-4.8-3.3-6.9-3.2-8.2-2.9c-0.8,0.2-2.3,0.6-2.9,1.8c-3.4,6.7,18.7,23.6,13.5,18.2
	c-1.1,1.2-12.5,13.8-9.4,18.2c0.4,0.6,1.1,1,1.8,1.2c6.6,2.2,16.4-10.8,17-11.7c0.3,1,5.2,16.6,11.1,16.4c0.6,0,1.3-0.2,1.8-0.6
	c3.8-3.2-3.7-17.5-4.7-19.3c7-0.8,21.1-2.8,21.7-7.6c0.2-1.9-1.7-3.5-2.3-4.1C152.9,764.3,144.3,765.3,135.7,770.5z"/>
<path class="st7" d="M251.5,1031.9c0.9-4.1,4.6-23-0.6-25.2c-0.8-0.3-1.6-0.3-2.4,0c-6.4,2.1-5.8,21.6-5.9,21.7
	c-2.5-3.1-5.5-5.9-8.8-8.2c-4.8-3.3-6.9-3.2-8.2-2.9c-0.8,0.2-2.3,0.6-2.9,1.8c-3.4,6.7,18.7,23.6,13.5,18.2
	c-1.1,1.2-12.5,13.8-9.4,18.2c0.5,0.6,1.1,1,1.8,1.2c6.6,2.2,16.4-10.8,17-11.7c0.3,1,5.2,16.6,11.1,16.4c0.6,0,1.2-0.2,1.8-0.6
	c3.8-3.2-3.7-17.5-4.7-19.3c7-0.8,21.1-2.8,21.7-7.6c0.2-1.9-1.7-3.6-2.3-4.1C268.7,1025.7,260.1,1026.7,251.5,1031.9z"/>
<path class="st7" d="M65.5,926.9c0.8-4.1,4.6-23-0.6-25.2c-0.8-0.3-1.6-0.3-2.3,0c-6.4,2.1-5.8,21.6-5.9,21.7
	c-2.5-3.1-5.5-5.9-8.8-8.2c-4.8-3.3-6.9-3.2-8.2-2.9c-0.8,0.2-2.3,0.6-2.9,1.8c-3.4,6.7,18.7,23.6,13.5,18.2
	c-1.1,1.2-12.5,13.8-9.4,18.2c0.5,0.6,1.1,1,1.8,1.2c6.5,2.2,16.4-10.8,17-11.7c0.3,1,5.2,16.6,11.1,16.4c0.6,0,1.2-0.2,1.8-0.6
	c3.8-3.2-3.7-17.5-4.7-19.3c7-0.8,21.1-2.8,21.7-7.6c0.2-1.9-1.7-3.5-2.3-4.1C82.7,920.7,74.1,921.7,65.5,926.9z"/>
<path class="st7" d="M1848.5,980.9c0.8-4.1,4.6-23-0.6-25.2c-0.8-0.3-1.6-0.3-2.3,0c-6.4,2.1-5.8,21.6-5.9,21.7
	c-2.5-3.1-5.5-5.9-8.8-8.2c-4.8-3.3-6.9-3.2-8.2-2.9c-0.8,0.2-2.3,0.6-2.9,1.8c-3.4,6.7,18.7,23.6,13.5,18.2
	c-1.1,1.2-12.5,13.8-9.4,18.2c0.5,0.6,1.1,1,1.8,1.2c6.6,2.2,16.3-10.8,17-11.7c0.3,1,5.2,16.6,11.1,16.4c0.6,0,1.2-0.2,1.8-0.6
	c3.8-3.2-3.7-17.5-4.7-19.3c7-0.8,21.1-2.8,21.7-7.6c0.2-1.9-1.7-3.5-2.3-4.1C1865.7,974.7,1857.1,975.7,1848.5,980.9z"/>
<path class="st7" d="M1725.5,1033.9c0.8-4.1,4.6-23-0.6-25.2c-0.8-0.3-1.6-0.3-2.3,0c-6.4,2.1-5.8,21.6-5.9,21.7
	c-2.5-3.1-5.5-5.9-8.8-8.2c-4.8-3.3-6.9-3.2-8.2-2.9c-0.8,0.2-2.3,0.6-2.9,1.8c-3.4,6.7,18.7,23.6,13.5,18.2
	c-1.1,1.2-12.5,13.8-9.4,18.2c0.5,0.6,1.1,1,1.8,1.2c6.6,2.2,16.3-10.8,17-11.7c0.3,1,5.2,16.6,11.1,16.4c0.6,0,1.2-0.2,1.8-0.6
	c3.8-3.2-3.7-17.5-4.7-19.3c7-0.8,21.1-2.8,21.7-7.6c0.2-1.9-1.7-3.6-2.3-4.1C1742.7,1027.7,1734.1,1028.7,1725.5,1033.9z"/>
<path class="st8" d="M1919.8,223.2c-196.5-113.2-351.6-129-456-123c-177.6,10.1-203.7,82.9-426,89c-170.2,4.7-217.4-36.3-355,3
	c-95.7,27.3-127.9,62.8-213,58c-92.7-5.3-118.9-51.1-211-69c-58-11.3-143.8-11.9-259,42v-109c179-16.7,325.4-24.2,425-28
	c338.4-13,507.6-19.4,610-10c125.2,11.5,254.3,33.3,386-17c24-9.2,56.9-24.1,108-32c43.2-6.7,87.2-6.4,229,18
	c42.3,7.3,97.4,17.4,162,31V223.2z"/>
<path class="st8" d="M1919.8,567.2c-32.8,5.6-82.8,13.2-144,19c-140.1,13.3-239.3,7.4-494-12c-326-24.8-382.2-31.9-496-17
	c-102,13.4-123.2,27.8-221,46c-130.2,24.2-319.4,41-565,0v-146c50.7,7.6,127,17.6,220,24c84,5.8,241.2,12.9,647-24
	c354.5-32.2,482.5-60.2,619,7c21.8,10.7,58.5,31.1,115,43c127.6,26.9,243.3-13.5,319-50V567.2z"/>
<path class="st9" d="M1919.8,348.2c-21,9-54.3,20.1-95,19c-23.2-0.6-46.2-5-68-13c-99.4-34.9-418.8,55.4-683,57
	c-241.7,1.5-254.1-72.3-435-42c-62.9,10.5-162.3,36.4-290,11c-41.5-8.2-61.7-17.1-105-22c-100.6-11.4-185.9,14.1-243,38v-137
	c77.4,12.5,155.6,19.5,234,21c139.8,2.6,227.7-13.5,309-21c214.4-19.8,260.7,59.6,465,38c63.4-6.7,65.5-13.1,127-17
	c163.7-10.3,185.5,32.8,321,30c126.9-2.6,143.8-41.3,323-51c46.6-2.5,93.4-2.5,140,0V348.2z"/>
<circle class="st10" cx="176.8" cy="68.2" r="3"/>
<circle class="st10" cx="232.8" cy="80.2" r="3"/>
<circle class="st10" cx="217.8" cy="259.2" r="3"/>
<circle class="st10" cx="152.8" cy="508.2" r="3"/>
<circle class="st10" cx="63.8" cy="321.2" r="3"/>
<circle class="st10" cx="135.8" cy="392.2" r="3"/>
<circle class="st10" cx="55.8" cy="159.2" r="3"/>
<circle class="st10" cx="248.8" cy="533.2" r="3"/>
<circle class="st10" cx="1830.8" cy="39.2" r="3"/>
<circle class="st10" cx="1698.8" cy="71.2" r="3"/>
<circle class="st10" cx="1878.8" cy="156.2" r="3"/>
<circle class="st10" cx="1833.8" cy="344.2" r="3"/>
<circle class="st10" cx="1663.8" cy="213.2" r="3"/>
<circle class="st10" cx="1748.8" cy="324.2" r="3"/>
<circle class="st10" cx="1897.8" cy="505.2" r="3"/>
<circle class="st10" cx="1751.8" cy="565.2" r="3"/>
<circle class="st10" cx="1779.8" cy="423.2" r="3"/>
<path class="st10" d="M1784.1,89.9c0.2,0-0.1,7.1,1.6,16.2c1.1,5.6,1.6,8.4,3.2,10.5c6.1,7.9,21.8,5.8,21.8,6.5s-15.2-2-21.8,5.7
	c-2.2,2.5-2.8,5.4-4,11.3c-1.9,9-1.4,16.2-1.6,16.2s0.1-7.1-1.6-16.2c-1.1-5.7-1.6-8.6-3.2-10.5c-6.3-7.3-22.6-3.4-22.6-4
	s17.1,0.4,23.4-8.9c1.6-2.3,2.1-5,3.2-10.5C1784.3,97.1,1783.8,89.9,1784.1,89.9z"/>
<path class="st10" d="M1696.8,420.1c0.2,0-0.1,7.1,1.6,16.2c1.1,5.6,1.6,8.4,3.2,10.5c6.1,8,21.8,5.8,21.8,6.5s-15.2-2-21.8,5.7
	c-2.2,2.5-2.8,5.4-4,11.3c-1.9,9-1.4,16.2-1.6,16.2s0.1-7.1-1.6-16.2c-1.1-5.7-1.6-8.6-3.2-10.5c-6.3-7.3-22.6-3.4-22.7-4
	s17.1,0.4,23.4-8.9c1.6-2.3,2.1-5,3.2-10.5C1697,427.2,1696.6,420.1,1696.8,420.1z"/>
<path class="st10" d="M164.8,577.1c0.2,0-0.1,7.1,1.6,16.2c1.1,5.6,1.6,8.4,3.2,10.5c6.1,8,21.9,5.8,21.8,6.5s-15.2-2-21.8,5.7
	c-2.1,2.5-2.8,5.4-4,11.3c-1.9,9-1.4,16.2-1.6,16.2s0.1-7.1-1.6-16.2c-1.1-5.7-1.6-8.6-3.2-10.5c-6.3-7.3-22.6-3.4-22.6-4
	s17.1,0.4,23.4-8.9c1.6-2.3,2.1-5,3.2-10.5C165,584.2,164.6,577.1,164.8,577.1z"/>
<path class="st10" d="M390.8,35.1c0.2,0-0.1,7.1,1.6,16.2c1.1,5.6,1.6,8.4,3.2,10.5c6.1,7.9,21.9,5.8,21.8,6.5s-15.2-2-21.8,5.7
	c-2.1,2.5-2.8,5.4-4,11.3c-1.9,9-1.4,16.2-1.6,16.2s0.1-7.1-1.6-16.2c-1.1-5.7-1.6-8.6-3.2-10.5c-6.3-7.3-22.6-3.4-22.6-4
	s17.1,0.3,23.5-8.9c1.6-2.3,2.1-5,3.2-10.5C391,42.2,390.6,35.1,390.8,35.1z"/>
<path class="st10" d="M90.8,217.1c0.2,0-0.1,7.1,1.6,16.2c1.1,5.6,1.6,8.4,3.2,10.5c6.1,8,21.8,5.8,21.8,6.5s-15.2-2-21.8,5.7
	c-2.2,2.5-2.8,5.4-4,11.3c-1.9,9-1.4,16.2-1.6,16.2s0.1-7.1-1.6-16.2c-1.1-5.7-1.6-8.6-3.2-10.5c-6.3-7.3-22.6-3.4-22.7-4
	s17.1,0.3,23.5-8.9c1.6-2.3,2.1-5,3.2-10.5C91,224.2,90.6,217.1,90.8,217.1z"/>
<path class="st10" d="M934.2,19.2c0.2,0-0.1,7.1,1.6,16.2c1.1,5.6,1.6,8.4,3.2,10.5c6.1,8,21.8,5.8,21.8,6.5s-15.2-2-21.8,5.7
	c-2.2,2.5-2.8,5.4-4,11.3c-1.9,9-1.4,16.2-1.6,16.2s0.1-7.1-1.6-16.2c-1.1-5.7-1.6-8.6-3.2-10.5c-6.3-7.3-22.6-3.4-22.7-4
	s17.1,0.3,23.5-8.9c1.6-2.3,2.1-5,3.2-10.5C934.4,26.3,934,19.2,934.2,19.2z"/>
<circle class="st10" cx="507.8" cy="35.2" r="3"/>
<circle class="st10" cx="727.8" cy="61.2" r="3"/>
<circle class="st10" cx="634.8" cy="23.2" r="3"/>
<circle class="st10" cx="968.8" cy="23.2" r="3"/>
<circle class="st10" cx="1154.8" cy="73.2" r="3"/>
<circle class="st10" cx="1242.8" cy="43.2" r="3"/>
<circle class="st10" cx="1426.8" cy="15.2" r="3"/>
<g id="uIoFoc.tif">
	<g id="Layer_0" transform="translate(929.77 477.25)">

			<image style="overflow:visible;enable-background:new    ;" width="63" height="127" id="image" xlink:href="160DFF233E6C06E2.png"  transform="matrix(0.9841 0 0 0.9841 929.77 477.7579)">
		</image>
	</g>
</g>
<g id="CqIFDv.tif">
	<g id="Layer_0-2" transform="translate(929.77 477.25)">

			<image style="overflow:visible;enable-background:new    ;" width="63" height="127" id="image_2_" xlink:href="160DFF233E6C06E6.png"  transform="matrix(0.9841 0 0 0.9841 929.77 477.7579)">
		</image>
	</g>
</g>
<rect x="267.3" y="321.2" class="st11" width="18.5" height="604.2"/>
<rect x="1578.5" y="321.3" class="st11" width="18.5" height="604.2"/>
<rect x="266.8" y="556.2" class="st11" width="1330" height="19"/>
<rect x="913.6" y="154.2" class="st11" width="18.2" height="770.8"/>
<path class="st12" d="M925.4,153.7L211.3,337.4l-12.8-49.2L923.4,98.8L925.4,153.7z"/>
<path class="st12" d="M922.1,154.1l727.2,187l12.8-49.2L923.9,99.1L922.1,154.1z"/>
<rect x="931.8" y="575.2" class="st13" width="647" height="331"/>
<circle class="st11" cx="1033.3" cy="845.8" r="3.5"/>
<linearGradient id="SVGID_1_" gradientUnits="userSpaceOnUse" x1="1161.77" y1="302.5" x2="1246.77" y2="302.5" gradientTransform="matrix(1 0 0 -1 0 1080)">
	<stop  offset="0.36" style="stop-color:#CCCCCC"/>
	<stop  offset="0.71" style="stop-color:#8D8B8B"/>
	<stop  offset="1" style="stop-color:#5B5757"/>
</linearGradient>
<rect x="1161.8" y="648.8" class="st14" width="85" height="257.5"/>
<rect x="931.3" y="773.8" class="st15" width="232" height="4"/>
<linearGradient id="SVGID_2_" gradientUnits="userSpaceOnUse" x1="1247.02" y1="302.25" x2="1332.02" y2="302.25" gradientTransform="matrix(1 0 0 -1 0 1080)">
	<stop  offset="0.1" style="stop-color:#CCCCCC"/>
	<stop  offset="1" style="stop-color:#5B5757"/>
</linearGradient>
<rect x="1247" y="648.8" class="st16" width="85" height="258"/>
<rect x="266.8" y="906.2" class="st11" width="1330" height="19"/>
<path class="st17" d="M1231.3,763.8c-6.7,8.9-6.7,21.1,0,30"/>
<path class="st17" d="M1261.9,763.4c6.7,8.9,6.7,21.1,0,30"/>
<path class="st18" d="M993.8,622.2v38"/>
<path class="st19" d="M1022.8,661.2h-75v-52h75V661.2z"/>
<path class="st19" d="M949.3,620.8h72"/>
<path d="M957.2,611.3c0,0.1,0,0.1-0.1,0.2l-0.2,0.1c-0.1,0.1-0.2,0.5-0.3,1.1c-0.1,0.4-0.1,0.9-0.1,1.3v3.8c0,0.4-0.1,0.7-0.2,1.1
	c-0.2,0.5-0.4,0.8-0.7,0.8c-0.4,0-0.8-0.4-1.1-1.1c-0.2-0.6-0.4-1.1-0.6-1.7c-0.2-0.8-0.6-2.1-1.1-3.8c-0.1,0-0.1,0.1-0.2,0.2
	s-0.1,0.8-0.2,1.8c-0.1,0.6-0.1,1.2-0.1,1.8c-0.1,0.8,0,1.6,0.2,2.3c0.1,0.1,0.1,0.1,0.1,0.2c0,0.1-0.1,0.2-0.2,0.3
	c-0.1,0.1-0.2,0.1-0.3,0.1c-0.3,0-0.5-0.5-0.5-1.6c0-0.2,0-0.4,0-0.6s0-0.5,0-0.6c0-0.5,0.1-1.1,0.2-1.6c0.1-0.5,0.1-1.1,0.2-1.7
	v-1.6c0,0,0-0.1,0-0.1c0,0,0-0.1,0-0.1c0-0.2,0.2-0.3,0.6-0.3c0.3,0,0.6,0.1,0.7,0.3c0.1,0.2,0.1,0.4,0.1,0.5c0,0.2,0,0.4,0.1,0.6
	c0.2,1.1,0.5,2.2,0.9,3.3c0.6,1.8,1,2.7,1.2,2.7s0.3-0.4,0.3-1.3v-3.8c0-0.5,0.1-1,0.2-1.5c0.2-0.7,0.5-1.1,0.8-1.1
	C957.1,611.2,957.2,611.2,957.2,611.3z"/>
<path d="M961.3,617.2c0,0.7-0.2,1.3-0.5,1.9c-0.3,0.6-0.9,1-1.6,1c-0.6,0-1.2-0.3-1.5-0.8c-0.3-0.5-0.4-1.1-0.4-1.7
	c0-0.7,0.2-1.4,0.5-2.1c0.4-0.8,0.9-1.3,1.5-1.3c0.2,0,0.5,0.1,0.7,0.3C960.9,615.1,961.3,616.2,961.3,617.2z M960.7,617.2
	c0-0.5-0.1-1-0.2-1.4c-0.2-0.6-0.5-0.9-1-0.9s-0.9,0.3-1.2,1c-0.2,0.5-0.3,1.1-0.3,1.6c0,0.5,0.1,0.9,0.2,1.3c0.1,0.4,0.5,0.8,1,0.7
	c0.5,0,1-0.4,1.1-0.8C960.5,618.3,960.7,617.7,960.7,617.2L960.7,617.2z"/>
<path d="M965.5,614.7c0,1-0.1,2-0.5,3c-0.4,1.4-0.8,2.1-1.2,2.1s-1-0.5-1.4-1.6c-0.3-0.7-0.5-1.5-0.7-2.3c-0.1-0.4-0.1-0.9-0.1-1.3
	c0-0.1,0-0.1,0.1-0.2c0-0.1,0.1-0.1,0.2-0.1c0.2,0,0.3,0.1,0.5,0.2c0,0.1-0.1,0.3,0,0.4c0,0.6,0.1,1.2,0.3,1.8
	c0.2,0.6,0.4,1.2,0.7,1.8c0.1,0.3,0.2,0.4,0.3,0.4c0.3,0,0.6-0.7,0.8-2c0.2-0.8,0.2-1.6,0.3-2.5c0-0.1,0.1-0.1,0.1-0.2
	c0.1-0.1,0.1-0.1,0.2-0.1C965.3,614.3,965.5,614.5,965.5,614.7z"/>
<path d="M969.5,618.5c0,0.4-0.2,0.7-0.7,1c-0.4,0.2-0.8,0.4-1.2,0.4c-1.1,0-1.7-0.7-1.7-2.1c0-0.7,0.1-1.4,0.3-2
	c0.3-0.9,0.7-1.4,1.2-1.4c0.5,0,1,0.3,1.3,0.6c0.4,0.3,0.7,0.7,0.7,1.2c0,0.5-0.2,1-0.6,1.3c-0.4,0.4-0.9,0.6-1.4,0.6
	c-0.1,0-0.2-0.1-0.3-0.1c-0.1-0.1-0.2-0.1-0.3-0.1c-0.1,0-0.2,0-0.2,0.1c0,1,0.3,1.4,1,1.4c0.3,0,0.6-0.1,0.9-0.3
	c0.2-0.2,0.4-0.4,0.5-0.6c0.2-0.2,0.3-0.3,0.3-0.3S969.5,618.2,969.5,618.5z M968.6,616.2c0-0.3-0.1-0.6-0.2-0.8
	c-0.1-0.2-0.4-0.4-0.7-0.4c-0.4,0-0.7,0.3-0.8,0.6c-0.2,0.3-0.3,0.7-0.3,1.1c0,0.2,0.1,0.4,0.2,0.6c0.2,0.2,0.4,0.2,0.6,0.2
	c0.3,0,0.7-0.2,0.8-0.4C968.5,616.8,968.6,616.5,968.6,616.2L968.6,616.2z"/>
<path d="M975.8,619.8c-0.1,0.1-0.3,0.1-0.4,0.2c-0.1,0-0.2,0-0.2-0.1v-1.4c0-2.6-0.3-3.9-0.8-3.9c-0.3,0-0.6,0.4-0.8,1.2
	c-0.2,0.5-0.3,1.1-0.3,1.6v1.2c0,0.1,0,0.2,0.1,0.3c0,0.1,0.1,0.2,0.1,0.3c0,0.1,0,0.1-0.1,0.2c-0.1,0.1-0.2,0.1-0.2,0.1
	c-0.1,0-0.2-0.1-0.2-0.2c-0.1-0.1-0.1-0.2-0.1-0.3v-2.5c0-0.3-0.1-0.7-0.1-1c-0.1-0.5-0.3-0.8-0.4-0.8s-0.2,0.1-0.4,0.3
	c-0.6,0.8-1,1.9-0.9,3c0,0.2,0,0.4,0,0.6s0,0.5,0,0.6s-0.1,0.4-0.3,0.4c-0.1,0-0.2,0-0.3-0.1c-0.1-0.2-0.1-0.4-0.1-0.6
	c0-0.2-0.1-0.4-0.1-0.6v-3c0-0.8,0.1-1.3,0.3-1.3c0.1,0,0.2,0.1,0.3,0.1c0.1,0.1,0.1,0.2,0.1,0.2c0,0.2,0,0.5-0.1,0.7
	c0,0.4-0.1,0.6-0.1,0.7l0.1,0.1c0.2-0.3,0.3-0.7,0.5-1.1s0.5-0.7,0.8-0.7s0.8,0.5,1.1,1.4c0.1-0.2,0.2-0.4,0.3-0.6
	c0.1-0.2,0.2-0.5,0.3-0.7c0.1-0.2,0.3-0.3,0.6-0.3c0.3,0,0.6,0.2,0.8,0.5c0.6,0.9,0.9,1.9,0.8,3L975.8,619.8z"/>
<path d="M980.1,616.9c0,0.6-0.1,1.2-0.3,1.8c-0.2,0.6-0.7,1-1.3,1c-0.2,0-0.4-0.1-0.6-0.1l-0.6-0.2c0,0.1,0,0.1,0,0.2
	c0,0.1,0,0.1,0,0.2s0,0.1,0,0.2c0,0.1-0.1,0.2-0.2,0.2c-0.1,0-0.3-0.1-0.3-0.2c-0.1-0.2-0.2-0.5-0.1-0.7c0-0.3,0-0.6,0-0.8v-0.1
	l0.2-7h0.2c0.1,0,0.3,0.1,0.3,0.2c0.1,0.1,0.1,0.2,0.2,0.4c0,0.5-0.1,0.9-0.1,1.4c-0.1,0.5-0.1,0.9-0.1,1.4v0.5
	c0.1,0,0.2-0.1,0.2-0.3c0.1-0.2,0.2-0.3,0.3-0.4c0.2-0.2,0.4-0.2,0.6-0.2c0.4,0,0.8,0.2,1.1,0.5c0.3,0.3,0.5,0.7,0.6,1.1
	C980.1,616.1,980.2,616.5,980.1,616.9z M979.5,617c0-0.5,0-0.9-0.2-1.3c-0.2-0.6-0.4-0.9-0.8-0.9s-0.8,0.3-1.1,1
	c-0.2,0.5-0.3,1.1-0.3,1.6c0,0.4,0.1,0.9,0.2,1.2c0.1,0.4,0.5,0.7,1,0.7c0.4,0,0.7-0.3,1-0.9C979.4,618,979.5,617.5,979.5,617
	L979.5,617z"/>
<path d="M984.4,618.5c0,0.4-0.2,0.7-0.7,1c-0.4,0.2-0.8,0.4-1.2,0.4c-1.1,0-1.7-0.7-1.7-2.1c0-0.7,0.1-1.4,0.3-2
	c0.3-0.9,0.7-1.4,1.1-1.4c0.5,0,1,0.3,1.3,0.6c0.4,0.3,0.7,0.7,0.7,1.2c0,0.5-0.2,1-0.6,1.3c-0.4,0.4-0.9,0.6-1.4,0.6
	c-0.1,0-0.2-0.1-0.3-0.1c-0.1-0.1-0.2-0.1-0.3-0.1c-0.1,0-0.2,0-0.2,0.1c0,1,0.3,1.4,1,1.4c0.3,0,0.6-0.1,0.9-0.3
	c0.2-0.2,0.4-0.4,0.5-0.6c0.2-0.2,0.3-0.3,0.3-0.3S984.4,618.2,984.4,618.5z M983.6,616.2c0-0.3-0.1-0.6-0.2-0.8
	c-0.1-0.2-0.4-0.4-0.7-0.4c-0.4,0-0.7,0.3-0.8,0.6c-0.2,0.3-0.3,0.7-0.3,1.1c0,0.2,0.1,0.4,0.2,0.6c0.2,0.2,0.4,0.2,0.6,0.2
	c0.3,0,0.7-0.2,0.8-0.4C983.5,616.8,983.6,616.5,983.6,616.2L983.6,616.2z"/>
<path d="M987.8,615.2c0,0,0,0.1,0,0.2s-0.2,0.2-0.3,0.2s-0.1,0-0.2-0.1c0-0.5-0.2-0.8-0.7-0.8s-0.5,0.5-0.8,1.5
	c-0.1,0.5-0.2,1-0.2,1.4c0,0.5,0,0.9,0.1,1.4l0.1,0.2c0,0.1,0,0.1,0,0.2c0,0.2-0.1,0.3-0.4,0.3c-0.2,0-0.4-0.1-0.4-0.3
	c0,0,0-0.1,0-0.1c0-0.1,0-0.1,0-0.2c0-0.1,0-0.1,0-0.2c0-0.5,0-1.1-0.1-2.1s-0.1-1.6-0.1-2.1c0-0.2,0-0.3,0.1-0.3
	c0.1,0,0.2-0.1,0.3-0.1c0.2,0,0.3,0.1,0.4,0.2s0,0.3,0,0.5l0.4-0.6c0.1-0.2,0.3-0.3,0.6-0.3c0.2,0,0.3,0.1,0.5,0.1
	c0.1,0.1,0.2,0.2,0.3,0.4C987.6,614.9,987.7,615.1,987.8,615.2z"/>
<path class="st18" d="M948.8,627.2h73"/>
<path class="st18" d="M948.8,633.1h73"/>
<path class="st18" d="M948.8,638.1h73"/>
<path class="st18" d="M948.8,643.1h73"/>
<path class="st18" d="M948.8,648.1h73"/>
<path class="st18" d="M957.3,622.2v38"/>
<path class="st18" d="M966.3,622.2v38"/>
<path class="st18" d="M975.8,622.2v38"/>
<path class="st18" d="M984.8,622.2v38"/>
<path class="st18" d="M994.8,622.2v38"/>
<path class="st18" d="M1004.8,622.2v38"/>
<path class="st20" d="M1069.8,773.8c-0.4-9.1-1.1-16.8-1.7-22.6c-1.1-9.8-2-13.7-5.2-15.7c-2.9-1.7-6.4-1.9-9.5-0.7
	c-1.1,0.5-2.1,1.2-3,2c-1.8,1.6-3.1,3.5-4,5.7l3.5,1.7l1-1l1.2-1.2c1.7-1.6,3.5-3.4,5.3-3.3c0.4,0,1.5,0.2,2.9,1.9
	c3.4,4.2,3.4,11.2,3.5,17.4s0,11.7,0,15.7L1069.8,773.8z"/>
<path class="st20" d="M1071.3,772.8h-3c-1.3-2.5-1.3-5.5,0-8h3V772.8z"/>
<ellipse class="st20" cx="1071.3" cy="768.8" rx="2" ry="4"/>
<path class="st21" d="M1441,866.9l-43.3,1c-1.6,0-3.1-0.9-3.7-2.4c-2.8-6.7-5.6-13.4-8.3-20.2c-0.8-2,0.1-4.2,2.1-5.1
	c0.5-0.2,0.9-0.3,1.4-0.3l39.4-0.5c1.4,0,2.6,0.7,3.3,1.8l12.2,19.7c1.1,1.8,0.5,4.2-1.3,5.3C1442.3,866.7,1441.7,866.9,1441,866.9z
	"/>
<path class="st21" d="M1399.9,904.6c-1.1,0.8-2.6,0.8-3.6,0c-0.4-12.9-0.8-25.9-1.2-38.8h6.1
	C1400.7,878.8,1400.3,891.7,1399.9,904.6z"/>
<path class="st21" d="M1394,883.4c-0.5,0.4-1.2,0.6-1.8,0.6c-0.7,0-1.3-0.2-1.8-0.6c-0.4-12.9-0.8-25.9-1.2-38.8h6.1
	C1394.8,857.5,1394.4,870.5,1394,883.4z"/>
<path class="st21" d="M1428.5,883.4c-1.1,0.8-2.6,0.8-3.6,0c-0.4-12.9-0.8-25.9-1.2-38.8h6.1
	C1429.3,857.5,1428.9,870.5,1428.5,883.4z"/>
<path class="st21" d="M1438.2,904.6c-0.5,0.4-1.2,0.6-1.8,0.6c-0.7,0-1.3-0.2-1.8-0.6c-0.4-12.9-0.8-25.9-1.2-38.8h6.1
	C1439,878.8,1438.6,891.7,1438.2,904.6z"/>
<path class="st21" d="M1428,840.1l1.8-0.1c1.6-9.4,2-19,1.1-28.6c-0.4-4.6-1-7.7-2.9-10.8c-3.5-5.7-9.5-9.5-16.2-10.2
	c-0.9-0.1-10.1-0.8-16.7,5.6c-1.2,1.2-4.4,4.7-6.5,17.3c-1.4,8.8-1.6,17.8-0.6,26.7l1.8-0.1c-0.4-8.6,0.1-17.2,1.3-25.8
	c1.6-10.8,3.5-14.1,6.1-16.4c5.2-4.6,12-4.3,13.3-4.2c1.1,0,9.6,0.6,14.6,7.3c2.2,2.9,2.7,5.7,3.6,10.3c1,4.9,0.8,8.6,0.6,14.6
	C1429.1,830.6,1428.7,835.4,1428,840.1z"/>
<rect x="1402" y="794.3" class="st21" width="2.4" height="45.5"/>
<rect x="1393.7" y="798.5" class="st21" width="2.4" height="42.2"/>
<rect x="1411.1" y="793.1" class="st21" width="2.4" height="47.3"/>
<rect x="1420.2" y="794.9" class="st21" width="2.4" height="45.5"/>
<path class="st21" d="M1490.2,864.4l43.3,1c1.6,0,3.1-0.9,3.7-2.4c2.8-6.7,5.5-13.4,8.3-20.2c0.8-2-0.1-4.2-2.1-5.1
	c-0.5-0.2-0.9-0.3-1.4-0.3l-39.4-0.5c-1.4,0-2.6,0.7-3.3,1.8c-4.1,6.6-8.2,13.1-12.2,19.7c-1.1,1.8-0.6,4.2,1.2,5.3
	C1488.9,864.1,1489.6,864.3,1490.2,864.4z"/>
<path class="st21" d="M1531.4,902.1c0.5,0.4,1.2,0.6,1.8,0.6c0.7,0,1.3-0.2,1.8-0.6c0.4-12.9,0.8-25.9,1.2-38.8h-6.1
	C1530.5,876.2,1531,889.2,1531.4,902.1z"/>
<path class="st21" d="M1537.3,880.9c0.5,0.4,1.2,0.6,1.8,0.6c0.7,0,1.3-0.2,1.8-0.6c0.4-12.9,0.8-25.9,1.2-38.8h-6.1
	C1536.5,855,1536.9,867.9,1537.3,880.9z"/>
<path class="st21" d="M1502.7,880.9c1.1,0.8,2.6,0.8,3.6,0c0.4-12.9,0.8-25.9,1.2-38.8h-6.1C1501.9,855,1502.3,867.9,1502.7,880.9z"
	/>
<path class="st21" d="M1493,902.1c1.1,0.8,2.6,0.8,3.6,0c0.4-12.9,0.8-25.9,1.2-38.8h-6.1C1492.2,876.2,1492.6,889.2,1493,902.1z"/>
<path class="st21" d="M1503.2,837.6l-1.8-0.1c-1.6-9.4-2-19-1.1-28.6c0.4-4.6,1-7.7,2.9-10.8c3.6-5.7,9.6-9.5,16.3-10.1
	c0.9-0.1,10.1-0.8,16.7,5.6c1.2,1.2,4.4,4.7,6.5,17.3c1.4,8.8,1.6,17.8,0.6,26.7l-1.8-0.1c0.4-8.6-0.1-17.2-1.3-25.8
	c-1.6-10.8-3.5-14.1-6.1-16.4c-5.2-4.6-12-4.3-13.3-4.2c-1.1,0-9.6,0.6-14.6,7.3c-2.2,2.9-2.7,5.7-3.6,10.3c-1,4.9-0.8,8.6-0.6,14.6
	C1502.1,826.9,1502.4,831.8,1503.2,837.6z"/>
<rect x="1526.8" y="791.7" class="st21" width="2.4" height="45.5"/>
<rect x="1535.1" y="796" class="st21" width="2.4" height="42.2"/>
<rect x="1517.7" y="790.5" class="st21" width="2.4" height="47.3"/>
<rect x="1508.6" y="792.4" class="st21" width="2.4" height="45.5"/>
<ellipse class="st22" cx="1470.3" cy="840.8" rx="81.5" ry="19.9"/>
<path class="st22" d="M1425.2,904.9c-0.4,0.5-1.1,0.9-1.7,0.9c-0.7,0-1.3-0.3-1.7-0.9v-57.2h3.5V904.9z"/>
<path class="st22" d="M1492.8,908.4c-0.4,0.5-1.1,0.9-1.7,0.9c-0.7,0-1.3-0.3-1.7-0.9v-57.2h3.5V908.4z"/>
<path class="st22" d="M1448.6,888.4c-0.4,0.5-1.1,0.9-1.7,0.9c-0.7,0-1.3-0.3-1.7-0.9v-57.2h3.5V888.4z"/>
<path class="st22" d="M1520.6,898c-0.7,1-2.1,1.2-3,0.4c-0.2-0.1-0.3-0.3-0.4-0.4v-57.2h3.5V898z"/>
<path class="st23" d="M1480.3,838.3c-6.1,2.6-13,2.6-19.1,0c-1.1-4.7-2.3-9.5-3.4-14.2h26C1482.6,828.8,1481.4,833.5,1480.3,838.3z"
	/>
<ellipse class="st24" cx="1470.8" cy="824.3" rx="13" ry="1.7"/>
<circle class="st25" cx="1462.2" cy="829.5" r="0.7"/>
<circle class="st25" cx="1479.6" cy="827.2" r="0.7"/>
<circle class="st25" cx="1465.4" cy="836.1" r="0.7"/>
<circle class="st25" cx="1475.7" cy="832.7" r="0.7"/>
<circle class="st26" cx="1468.3" cy="828.7" r="0.7"/>
<circle class="st26" cx="1465.9" cy="832.2" r="0.7"/>
<circle class="st26" cx="1470.8" cy="837.5" r="0.7"/>
<circle class="st26" cx="1479.6" cy="835.1" r="0.7"/>
<circle class="st27" cx="1461.9" cy="833.6" r="0.7"/>
<circle class="st27" cx="1471.3" cy="832.7" r="0.7"/>
<circle class="st27" cx="1473.2" cy="828.7" r="0.7"/>
<circle class="st27" cx="1475.7" cy="836.6" r="0.7"/>
<circle class="st27" cx="1480.1" cy="830.2" r="0.7"/>
<path class="st28" d="M931.8,556.2h647v-233l-647-167V556.2z"/>
<path class="st29" d="M914.8,556.2h-629v-238l628-162L914.8,556.2z"/>
<rect x="285.8" y="575.2" class="st30" width="628" height="331"/>
<path class="st31" d="M399.8,861.8c1.8,1.1,4.3,1.5,9.3,2.2c5.8,0.8,11.7,1.1,17.6,0.9c9.9-0.5,19.8,0.2,29.6,0
	c21-0.3,18.3,0.3,41.7,0c22.2-0.2,20.9-0.8,41.7-0.9s31.3-0.2,34,0c6.2,0.4,12.4-0.1,18.7,0c5,0.1,10.6,0.2,15.4-2.6
	c7.4-4.4,3.3-9.7,9.3-20.4c4-7.1,7.8-8.9,10.2-12.9c0.9-1.4,1.5-2.9,1.8-4.5c0.2-0.9,2.1-8.9-3.8-15.2c-2.8-3-6.7-4.3-14.3-7
	c-5.9-2-12-3.6-18.1-4.8c1.2-2.3,2.2-4.7,3-7.1c1.7-5.1,1.9-10.5,1.4-12.8c-3.5-15.7-74.5-19.2-79.6-19.5c-9-0.4-19.3-0.5-30.8,0
	c-18.2,0.6-36.2,3.2-53.8,7.8c-15,3.9-22.5,6-25.8,10.8c-5.8,8.5,0.8,19.2,2.8,22.1c-4.5,0.8-8.9,2-13.2,3.5
	c-3.3,0.9-6.4,2.2-9.3,3.9c-0.6,0.3-11.3,7.1-10.4,16c0.2,2.4,2.4,5.4,6.6,11.3c6,8.4,6.6,7.4,8.8,11.3
	C397.6,853.1,394.1,858.4,399.8,861.8z"/>
<path class="st32" d="M584.8,863.1c0.2-3.8,0.3-9.9,0-17.4c-0.3-9-1-11.1,0-15.6c0.8-3.9,2.4-11.4,9.9-17.3
	c9.3-7.4,21.8-7.8,25.3-7.8"/>
<path class="st32" d="M420.8,864.6c-0.1-3.8-0.3-9.9,0-17.3c0.4-9,1-11.1,0-15.6c-0.8-3.9-1.3-11.4-8.8-17.4
	c-9.3-7.4-22.9-7.8-26.4-7.8"/>
<path class="st32" d="M501.4,832.8c2.2-2.6,9.8-0.1,19.8,0.9c8.5,0.8,16.3,0,31.8-1.7c7.3-0.8,14.8-0.3,22-1.7
	c2.4-0.5,5.5-1.3,7.7,0c2.7,1.5,2.4,5.1,2.2,8.7s-0.5,6.9-3.3,8.7s-6.8,1.1-8.8,0.9c-9.4-1.3-19,0.3-28.6,0
	c-25.7-0.8-37.2,3-40.6-1.7c-1-1.4-1.4-3.8-2.2-8.7C500.9,835,500.7,833.5,501.4,832.8z"/>
<path class="st32" d="M422.3,845.8c1.7,1.5,4.3,1.7,5.5,1.7c11.2,0.6,26.8-0.8,37.3-0.9c16.5-0.1,24.7-0.2,28.5,0.9
	c0.9,0.2,3.6,1,5.5,0c2.3-1.2,2.3-4.3,2.2-9.5c-0.1-4.2-0.7-4.9-1.1-5.2c-2.4-2.1-7.7-1.2-9.9-0.9c-10.5,1.6-20.2,0.9-33,0
	c-9.1-0.7-18.4-0.6-27.5-1.7c-1.2-0.2-4.4-0.6-6.6,0.9c-1.6,1.1-1.9,3.1-2.2,6.9C420.8,842.2,420.7,844.3,422.3,845.8z"/>
<path class="st32" d="M434.4,817.1c-1.7-4.8-4.8-9-8.8-12.1c-4.2-3.3-9.1-5.7-14.3-7"/>
<path class="st32" d="M420.1,828.4c2.8-1.8,5.8-3.8,8.8-6.1c2.4-1.8,4.6-3.5,6.6-5.2"/>
<path class="st32" d="M436.6,817.1c17.9,1.4,32.6,1.7,42.8,1.7c19.1,0,18-1.1,37.3-0.9c11.8,0.1,21.6,0.6,36.2-0.9
	c5.6-0.6,10.2-1.2,13.2-1.7"/>
<path class="st32" d="M592.5,796.3c-5.1,1.6-9.9,4-14.3,6.9c-4.8,3.2-8.9,7.3-12.1,12.2"/>
<path class="st32" d="M584.8,830.2c-3.1-1.5-6-3.2-8.8-5.2c-3.7-2.7-7.1-5.9-9.9-9.5"/>
<path class="st32" d="M501.4,818c-0.3,1.7-0.3,3.5,0,5.2c0.4,1.9,0.9,2.7,1.1,4.3c0.1,1.8-0.2,3.6-1.1,5.2"/>
<path class="st33" d="M419.3,878.8h-8.9l-2.4-14h13.7L419.3,878.8z"/>
<path class="st33" d="M596.6,878.2h-8.9l-2.4-14H599L596.6,878.2z"/>
<rect x="533.3" y="865.4" transform="matrix(2.967042e-03 -1 1 2.967042e-03 -314.4131 1417.7081)" class="st34" width="40.9" height="2.3"/>
<rect x="520.7" y="881.3" transform="matrix(2.967042e-03 -1 1 2.967042e-03 -342.8156 1420.9867)" class="st34" width="40.9" height="2.3"/>
<rect x="409.3" y="869.6" transform="matrix(2.967042e-03 -1 1 2.967042e-03 -442.19 1297.9362)" class="st34" width="40.9" height="2.3"/>
<rect x="395.7" y="880.9" transform="matrix(2.967042e-03 -1 1 2.967042e-03 -467.1423 1295.5485)" class="st34" width="40.9" height="2.3"/>
<path class="st35" d="M545.7,868.8l-136.5,0.7c5.7-9.8,11.4-19.7,17.1-29.5l136.4,0.4L545.7,868.8z"/>
<radialGradient id="SVGID_3_" cx="455.56" cy="428" r="33.8595" gradientTransform="matrix(1 0 0 -1 0 1080)" gradientUnits="userSpaceOnUse">
	<stop  offset="0" style="stop-color:#CCE0F4"/>
	<stop  offset="0.14" style="stop-color:#A5D1EE"/>
	<stop  offset="0.45" style="stop-color:#44ABDD"/>
	<stop  offset="0.57" style="stop-color:#1E9CD7"/>
	<stop  offset="0.87" style="stop-color:#0075BE"/>
	<stop  offset="0.99" style="stop-color:#005B97"/>
</radialGradient>
<path class="st36" d="M496.9,670.3c-27,7.9-55.6,7.9-82.6,0c2-19.5,15-36,33.4-42.6h16.4C481.8,635.1,494.3,651.3,496.9,670.3z"/>
<rect x="454.3" y="575.8" class="st37" width="2" height="52"/>
<rect x="615.8" y="635.2" class="st21" width="232.5" height="81"/>
<rect x="621" y="640.5" class="st38" width="222.1" height="70.5"/>
<rect x="621.9" y="666.6" class="st25" width="6.1" height="44.4"/>
<rect x="628" y="669.2" class="st39" width="12.2" height="41.8"/>
<rect x="640.2" y="660.5" class="st27" width="3.5" height="50.5"/>
<rect x="643.6" y="676.2" class="st40" width="6.1" height="34.8"/>
<rect x="649.7" y="671" class="st41" width="8.7" height="40.1"/>
<rect x="729.9" y="640.5" class="st21" width="4.3" height="70.5"/>
<pattern  id="SVGID_4_" xlink:href="#Jive" patternTransform="matrix(1 0 0 -1 0 -16647.5859)">
</pattern>
<path class="st42" d="M686.3,706.7c3.1,5.4,17.7,5.5,20.9,0c3.4-5.8-8.1-14-7-28.7c0.4-4.6,1.9-9.1,4.4-13.1
	c-4.9-1.1-9.9-1.1-14.8,0c2.6,4.2,4.1,9,4.3,13.9C694.8,693.3,683.1,701,686.3,706.7z"/>
<path class="st43" d="M791.7,681.5h-42.2l13.8-28.4h16.1C783.5,662.6,787.6,672,791.7,681.5z"/>
<ellipse class="st44" cx="771" cy="696.5" rx="12.3" ry="15"/>
<path class="st45" d="M363.8,898.3c-22.5,8.5-47.3,8.5-69.8,0v-48.4c22.8,6.6,47,6.6,69.8,0V898.3z"/>
<ellipse class="st37" cx="328.9" cy="850.3" rx="34.9" ry="5.3"/>
<path class="st46" d="M333.5,854.8c11.5-3.3,20.9-0.6,21.1-1.8c0.2-1.5-12.8-4-12.6-5.5c0.2-1.7,18.6,0.1,18.9-1.7
	c0.2-1.6-13.9-4.1-13.8-6.5c0.2-2.8,19-3.3,19.1-5.3c0-1.5-11.6-1.7-12-4.6c-0.6-3.8,17.9-9.9,17.6-10.9c-0.3-0.8-12.7,4.9-16.4,0.9
	s2.7-16.1,2.1-16.4s-3.8,11.2-8.9,11.7s-10-10.5-10.6-10.1s8.7,14.5,5.7,17.7s-16.6-5.6-17.2-4.5s12.7,9.4,11.8,11.2
	s-17.4-5.1-18.3-3.3c-0.3,0.7,2.3,2.2,5.8,5.9c3.2,3.4,7.9,9.7,6.6,11.3c-1.9,2.5-16.4-6.8-17.9-4.7c-0.4,0.6,0.3,1.5,3.6,6.1
	c6.3,8.9,7.5,10.9,10.2,11.5C330,856,331.3,855.5,333.5,854.8z"/>
<path class="st46" d="M329.2,851.7c8.5-8.5,18-10.7,17.6-11.8c-0.5-1.4-13.1,2.6-13.6,1.3c-0.6-1.6,16.3-8.9,15.7-10.6
	c-0.5-1.5-14.2,3.2-15.2,0.9c-1.2-2.6,15.1-12.1,14.1-13.9c-0.8-1.4-11,4.1-12.8,1.8c-2.4-3.1,10.9-17.3,10.1-18s-8.7,10.4-14,8.7
	s-5.4-15.4-6.1-15.3s2.1,11.7-2.2,14.5s-13.8-4.3-14.2-3.7s14.6,8.5,13.5,12.7s-17.2,3.1-17.2,4.4s15.7,2.1,15.7,4.1s-17.7,4-17.6,6
	c0.1,0.8,3.1,0.8,8,2.4c4.4,1.5,11.6,4.6,11.3,6.7c-0.5,3.1-17.7,1.9-18,4.6c-0.1,0.7,1,1.2,6.1,3.6c9.8,4.7,11.9,5.9,14.5,5.1
	C326.8,854.5,327.6,853.4,329.2,851.7z"/>
<path class="st46" d="M319.8,854.6c-8.7-2.4-15.7-0.3-15.9-1.3c-0.2-1.1,9.6-3.1,9.4-4.2c-0.2-1.3-14,0.2-14.2-1.2s10.5-3.1,10.3-5
	c-0.2-2.1-14.3-2.4-14.4-3.9c0-1.2,8.7-1.3,9-3.5c0.4-2.9-13.5-7.3-13.3-8.1s9.6,3.6,12.4,0.6s-2.1-12.1-1.6-12.3s2.9,8.4,6.8,8.7
	s7.5-7.9,7.9-7.7s-6.5,11-4.2,13.3s12.4-4.3,12.9-3.5s-9.5,7.1-8.8,8.5s13.1-3.9,13.7-2.6c0.3,0.5-1.7,1.7-4.3,4.5
	c-2.4,2.6-5.9,7.3-4.9,8.5c1.5,1.9,12.3-5.2,13.4-3.6c0.3,0.4-0.2,1.1-2.6,4.6c-4.7,6.7-5.6,8.2-7.6,8.7
	C322.5,855.5,321.5,855.1,319.8,854.6z"/>
<ellipse class="st47" cx="749.8" cy="879.8" rx="133.5" ry="16"/>
<ellipse class="st48" cx="667.8" cy="877.2" rx="20" ry="2"/>
<ellipse class="st48" cx="719.8" cy="873.2" rx="20" ry="2"/>
<ellipse class="st48" cx="729.8" cy="891.2" rx="20" ry="2"/>
<ellipse class="st48" cx="769.8" cy="867.2" rx="20" ry="2"/>
<ellipse class="st48" cx="771.8" cy="883.2" rx="20" ry="2"/>
<ellipse class="st48" cx="823.8" cy="873.2" rx="20" ry="2"/>
<ellipse class="st48" cx="843.8" cy="883.2" rx="20" ry="2"/>
<path class="st49" d="M351.2,554.1h-26.5c0.9-6.1,0.4-12.4-1.2-18.3l28.9,0.9c-1.6,3.6-2.3,7.5-2.2,11.4
	C350.3,550.1,350.6,552.2,351.2,554.1z"/>
<path class="st49" d="M306.8,513.6c-0.1,2.1,0.1,4.8,1.9,6.4c1.6,1.5,3,0.8,5.1,2c2.7,1.6,1.9,3.9,4.7,8.5c1.9,3.2,4.6,5.9,7.8,7.8
	c2,1,4.2,1.8,6.4,2.3c6.9,2,14,2.5,21.1,1.7c5-0.6,9.3-1.1,14.3-3.6c4.7-2.1,8.7-5.6,11.5-10c1.9-3.1,3-6.5,3.5-10.1
	c-3.8,1.5-7.7,2.7-11.7,3.6l-0.9,0.2c-6.7,1.2-13.4,1.6-20.2,1.5c0,0-29.2-1.1-34.2-6.3l-2.7-2.8c-1.1-0.1-2.3-0.3-3.6-0.5
	S307.8,513.9,306.8,513.6z"/>
<path class="st49" d="M295.6,473.7c3.8,0.7,7.7,0.9,11.5,0.6c1.9-0.1,2.4-0.3,2.9-0.3h0.4c1.4,0.1,17,28.1,10.2,32.9
	c-1.4,1-3.3,0.8-5.1,2.8c-1.2,1.4-1.9,3.2-2,5c-6.6-1.2-11.5-2.4-12.2-2.7c-0.6-0.2-1.1-0.6-1.5-1.1l0,0c-0.9-1.2-1.4-2.6-1.6-4
	c-1.1-7.6-1.7-15.2-2-22.8C296.2,481.8,296,478.1,295.6,473.7z"/>
<path class="st49" d="M292,464.3c0.9-1.7,3.5-1.7,10-1.9c9.1-0.3,10-0.3,10.9,0.6c2.1,2.4,1.1,7.9-1.9,10.4
	c-1.6,1.3-4.3,1.1-9.7,0.9c-7.1-0.3-8.2-1.7-8.6-2.3c-0.5-0.9-0.6-2-0.8-4.1S291.7,465,292,464.3z"/>
<ellipse class="st49" cx="329.4" cy="474.9" rx="26.2" ry="32.7"/>
<path class="st49" d="M386.7,514.8c-2,9.1-32.9,9.2-36.3,9.2c-14.1,0-35-2.5-36.3-9.2c-0.5-2.4,1.7-4.6,2-5c2-2.1,4.8-2.4,9.4-2.8
	c8.7-0.8,13-1.1,17-1.2c1.4,0,5.5-0.1,12.4-0.1c0.5,0,8.2,0,18.6,0.6c6.4,0.4,9.3,0.7,11.3,2.9C385.2,509.6,387.2,512.1,386.7,514.8
	z"/>
<ellipse class="st50" cx="350.4" cy="511.9" rx="27" ry="2.9"/>
<rect x="736.3" y="243.8" class="st51" width="178" height="5"/>
<path class="st52" d="M910.8,542.2c-4.5,1.7-9.2,2.3-14,2c-6.4-0.5-8-2.7-14-2c-4.2,0.5-5.7,1.8-9,1c-3.7-0.9-3.9-3-7-4
	c-4.4-1.4-7.2,1.8-14,4c-5.8,1.7-12,2.1-18,1c-9.3-1.6-10.3-5.7-17-5c-5.7,0.5-5.8,3.5-12,4c-6,0.5-7.1-2.3-14-2c-6,0.2-6,2.3-11,2
	c-6.7-0.4-7.2-4.1-13-4c-5.5,0.1-6.3,3.4-12,3c-3.5-0.3-4.2-1.6-8-2c-3.5-0.3-6.9,0.4-10,2v-290c5.9,4.5,9.6,4.7,12,4
	c3.1-0.9,3.4-3.1,7-4s4.6,1.2,10,1c4.2-0.1,4.7-1.4,8-1c3.5,0.5,3.8,2,7,3c5.5,1.7,7.8-2.1,15-2c5.5,0.1,4.9,2.4,11,3
	c8,0.8,9.8-3.2,17-2c5.7,1,5,3.5,10,4c7.5,0.7,10-5,18-4c3.7,0.4,3.8,1.8,8,2c4.7,0.3,7-1.5,11-2c6.5-0.8,10.1,1.1,15,2
	c5.4,1,13.3,0.9,24-4V542.2z"/>
<path class="st53" d="M763.8,257.2c-1,4.3-1.7,8.6-2,13c-1.3,18.3,4.5,29,7,41c3.9,18.9-5.1,17.7-6,49c-0.8,27.3,5.9,33.5,2,59
	c-2.4,15.4-4.7,12.3-6,25c-2.4,23.1,5.2,34,5,61c-0.1,7.7-0.7,15.4-2,23"/>
<path class="st53" d="M798.8,266.9c-1,4.3-1.7,8.6-2,13c-1.1,16.2,4.3,21.4,7,41c1.1,8.1,2.5,19.2-0.5,32.9c-1.6,7.2-3,8.4-5.5,16.1
	c-4.9,15.1-5.1,27-5.5,47.9c-0.3,16.7-0.5,25.1,1.5,36.1c3.2,18.4,8.1,23.1,7.5,38.9c-0.2,5.5-0.8,6.2-2.5,22.1
	c-1,9.8-1.6,17.8-2,23"/>
<path class="st53" d="M893.8,262.9c-1,4.3-1.7,8.6-2,13c-1.3,18.3,4.5,29,7,41c3.9,18.9-5.1,17.7-6,49c-0.8,27.3,5.9,33.5,2,59
	c-2.4,15.4-4.7,12.3-6,25c-2.4,23.1,5.2,34,5,61c-0.1,7.7-0.7,15.4-2,23"/>
<path class="st53" d="M850.3,256.9c1,4.3,1.7,8.6,2,13c1.3,18.3-4.5,29-7,41c-4,18.9,5.1,17.7,6,49c0.8,27.3-5.9,33.5-2,59
	c2.4,15.4,4.7,12.3,6,25c2.4,23.1-5.2,34-5,61c0.1,7.7,0.7,15.4,2,23"/>
<ellipse class="st32" cx="740.8" cy="251.8" rx="1.5" ry="3"/>
<ellipse class="st32" cx="762.8" cy="251.8" rx="1.5" ry="3"/>
<ellipse class="st32" cx="790.8" cy="251.8" rx="1.5" ry="3"/>
<ellipse class="st32" cx="822.8" cy="251.8" rx="1.5" ry="3"/>
<ellipse class="st32" cx="852.8" cy="251.8" rx="1.5" ry="3"/>
<ellipse class="st32" cx="875.8" cy="251.8" rx="1.5" ry="3"/>
<ellipse class="st32" cx="907.8" cy="251.8" rx="1.5" ry="3"/>
<path class="st49" d="M535.3,470.1c2,3.3-2.9,9.9-8.6,13.1c-3.5,2-6.2,2.1-23,2.1s-19.5-0.1-23-2.1c-5.6-3.2-10.6-9.7-8.6-13.1
	c2.2-3.8,11.6-0.6,32.8-0.7C524.5,469.3,533.1,466.5,535.3,470.1z"/>
<ellipse class="st49" cx="504" cy="467" rx="32.8" ry="7.2"/>
<ellipse class="st54" cx="503.3" cy="467" rx="24.5" ry="3.1"/>
<path class="st49" d="M510.6,485.9c0.5,1.3-3,4.8-6.9,4.8s-7.4-3.5-6.9-4.8c0.2-0.7,2.5-0.7,6.9-0.7S510.3,485.2,510.6,485.9z"/>
<path class="st55" d="M507,461.1c-0.2-6.3-0.7-11.6-1.2-15.6c-0.8-6.7-1.4-9.4-3.6-10.8c-2.7-1.7-6.3-1.4-8.6,0.9
	c-1.2,1.1-2.2,2.4-2.8,3.9l2.4,1.2l0.7-0.6c0.5-0.5,0.8-0.8,0.9-0.8c1.2-1.1,2.4-2.3,3.7-2.2c0.3,0,1.1,0.1,2,1.3
	c2.4,2.9,2.4,7.7,2.4,12s0,8.1,0,10.8L507,461.1z"/>
<path class="st56" d="M507.8,460.4h-2.1c-0.4-0.8-0.7-1.8-0.7-2.8c0-1,0.2-1.9,0.7-2.8h2.1V460.4z"/>
<ellipse class="st56" cx="507.8" cy="457.7" rx="1.4" ry="2.8"/>
<rect x="503.3" y="495.8" class="st57" width="54" height="58"/>
<rect x="449" y="495.8" class="st57" width="54" height="58"/>
<rect x="445.8" y="493.2" class="st39" width="114" height="2"/>
<rect x="495.8" y="524.2" class="st39" width="2" height="5"/>
<rect x="508.8" y="524.2" class="st39" width="2" height="5"/>
<path class="st58" d="M571.9,426.6c4.9-0.3,9.5,26.4,10.6,39c0,0,0.7,8.4-0.5,8.6c-0.9,0.2-2-5.1-3.5-5.1
	c-2.2,0.1-2.9,11.1-4.6,11.1c-1.8,0-2.9-13.2-4.5-13.2c-1.3,0-1.4,8.8-3.5,9.1c-1.5,0.2-3.7-3.8-4.5-7.6c-1.6-6.6,0.9-11.7,3.5-19.2
	C570.7,432.7,569.6,426.8,571.9,426.6z"/>
<ellipse class="st32" cx="571.7" cy="425.1" rx="1.5" ry="2.3"/>
<linearGradient id="SVGID_5_" gradientUnits="userSpaceOnUse" x1="377.15" y1="604.8" x2="398.77" y2="604.8" gradientTransform="matrix(1 0 0 -1 0 1080)">
	<stop  offset="0" style="stop-color:#FFFFFF"/>
	<stop  offset="0.27" style="stop-color:#FDFDFD"/>
	<stop  offset="0.41" style="stop-color:#F5F5F5"/>
	<stop  offset="0.52" style="stop-color:#E8E8E8"/>
	<stop  offset="0.61" style="stop-color:#D5D5D5"/>
	<stop  offset="0.69" style="stop-color:#BCBCBC"/>
	<stop  offset="0.77" style="stop-color:#9E9E9E"/>
	<stop  offset="0.84" style="stop-color:#7A7A7A"/>
	<stop  offset="0.9" style="stop-color:#505050"/>
	<stop  offset="0.96" style="stop-color:#222222"/>
	<stop  offset="1" style="stop-color:#000000"/>
</linearGradient>
<path class="st59" d="M378.1,473.2h19.6c0.6,0,1,0.4,1,1v1.9c0,0.6-0.4,1-1,1h-19.6c-0.6,0-1-0.4-1-1v-1.9
	C377.1,473.7,377.6,473.2,378.1,473.2z"/>
<linearGradient id="SVGID_6_" gradientUnits="userSpaceOnUse" x1="370.6833" y1="598.2211" x2="377.15" y2="598.2211" gradientTransform="matrix(1 0 0 -1 0 1080)">
	<stop  offset="0" style="stop-color:#FFFFFF"/>
	<stop  offset="0.27" style="stop-color:#FDFDFD"/>
	<stop  offset="0.41" style="stop-color:#F5F5F5"/>
	<stop  offset="0.52" style="stop-color:#E8E8E8"/>
	<stop  offset="0.61" style="stop-color:#D5D5D5"/>
	<stop  offset="0.69" style="stop-color:#BCBCBC"/>
	<stop  offset="0.77" style="stop-color:#9E9E9E"/>
	<stop  offset="0.84" style="stop-color:#7A7A7A"/>
	<stop  offset="0.9" style="stop-color:#505050"/>
	<stop  offset="0.96" style="stop-color:#222222"/>
	<stop  offset="1" style="stop-color:#000000"/>
</linearGradient>
<path class="st60" d="M377.1,474.5c-3.1-0.3-4.4,0.5-5.1,1.3c-0.7,1.2-1.1,2.5-1.3,3.9l0,0c-0.1,1.7-0.1,3.5,0,5.2
	c0.2,2.9,0.7,3.6,1.3,3.9s1,0.3,1.3,0c0.5-0.5-0.8-1.8-1.3-3.9c-0.3-1.3-0.3-2.6,0-3.9c0.3-1.8,0.7-4.4,2.5-5.2
	c0.8-0.3,1.7-0.3,2.5,0"/>
<path class="st61" d="M392.4,499.2h-17.8c-5-4.9-5.1-13-0.2-18c0.1-0.1,0.1-0.1,0.2-0.2h17.8V499.2z"/>
<ellipse class="st62" cx="391.8" cy="490.1" rx="5.7" ry="9.1"/>
<ellipse class="st63" cx="391.8" cy="490.1" rx="1.9" ry="2.6"/>
<path class="st64" d="M625.5,543c-10.9,5.6-23.8,5.6-34.6,0c-1.3-19-2.7-37.9-4.1-56.9c14.4,3.7,29.6,3.7,44,0L625.5,543z"/>
<ellipse class="st64" cx="608.8" cy="486.6" rx="22" ry="2.4"/>
<linearGradient id="SVGID_7_" gradientUnits="userSpaceOnUse" x1="433.77" y1="695.75" x2="574.77" y2="695.75" gradientTransform="matrix(1 0 0 -1 0 1080)">
	<stop  offset="0" style="stop-color:#FFFFFF"/>
	<stop  offset="0.12" style="stop-color:#F6F6F6"/>
	<stop  offset="0.31" style="stop-color:#DEDEDE"/>
	<stop  offset="0.55" style="stop-color:#B7B7B7"/>
	<stop  offset="0.57" style="stop-color:#B3B3B3"/>
</linearGradient>
<ellipse class="st65" cx="504.3" cy="384.2" rx="70.5" ry="42"/>
<path class="st66" d="M1487.2,537.2c-2.9-0.6-5.8-0.9-8.8-1c-12.8-0.4-18.3,3.9-28.4,5c-12.2,1.3-10.5-4.2-25.2-4
	c-14.2,0.2-19.4,5.5-32.8,3c-4.3-0.8-5.3-1.6-9.8-2c-9.2-0.7-12.5,2.1-20.8,3c-11.6,1.3-11.3-3.5-25.2-3c-9.2,0.4-11.8,2.6-20.8,2
	c-4.9-0.3-9.7-1.3-14.3-3c-5.1,2.7-15.9,7.7-20.8,4c-2.3-1.7-2.2-4.5-3.3-12c-1-7.2-2.3-13-3.3-17v-31c0-13.8,12.2-25,27.3-25h186.1
	c15.1,0,27.3,11.2,27.3,25v31.1c-0.6,3.3-0.9,6.6-1.1,10c-0.2,2.7-0.2,5.3,0,8c0.5,6.3,1.9,7.6,1.1,9
	C1513.3,541.4,1507.5,542.4,1487.2,537.2z"/>
<path class="st67" d="M1482.3,455.8h-179v-46c58.8-14.7,120.2-14.7,179,0V455.8z"/>
<rect x="1298.3" y="406.8" class="st67" width="12" height="49"/>
<rect x="1478.3" y="406.8" class="st67" width="12" height="49"/>
<ellipse class="st67" cx="1304.3" cy="405.2" rx="9" ry="3.5"/>
<ellipse class="st67" cx="1484.3" cy="405.2" rx="9" ry="3.5"/>
<path class="st67" d="M1313.3,418.8c53.3-12,108.7-12,162,0"/>
<path class="st68" d="M1456,466.8c-5.7-1.5-11.5-2.7-17.4-3.3c-3.8-0.4-7.8-0.6-15.8-0.8c-8.8-0.3-13.2-0.3-16.6,0
	c-5.2,0.5-10.3,1.9-15,4.1c-0.4-6.1,0.1-12.3,1.7-18.3c1-3.9,2.4-7.5,1.7-12.5c-0.5-3-1.6-5.8-3.3-8.3c8.3-0.6,16.6-0.6,24.9,0
	c7.7,0.6,11.2,1.5,18.3,1.7c7.2,0.2,14.5-0.3,21.6-1.7c-3,7.9-4.1,16.5-3.3,24.9C1453.1,457.5,1454.3,462.2,1456,466.8z"/>
<path class="st68" d="M1391.7,421.3c-6,1.9-12.1,3.4-18.3,4.4c-4,0.6-8.2,1-16.7,1.7c-9.2,0.8-13.9,1-17.6,0.8
	c-5.5-0.3-10.9-1.5-16-3.6c-0.1,6.5,0.8,13,2.7,19.3c1.3,4.1,3,7.9,2.4,13.1c-0.4,3.2-1.4,6.3-3.1,9c8.8,0.3,17.6-0.2,26.4-1.2
	c8.1-1,11.8-2.1,19.3-2.7c7.6-0.6,15.3-0.4,22.9,0.7c-3.6-8.3-5.2-17.2-4.8-26.2C1389.2,431.3,1390.1,426.2,1391.7,421.3z"/>
<rect x="1227.6" y="525.1" transform="matrix(0.2375 -0.9714 0.9714 0.2375 433.8708 1603.8683)" class="st69" width="22" height="1"/>
<rect x="1228.6" y="528.1" transform="matrix(0.1613 -0.9869 0.9869 0.1613 518.0018 1666.698)" class="st69" width="22" height="1"/>
<rect x="1247.1" y="516.4" transform="matrix(0.9348 -0.3553 0.3553 0.9348 -105.977 477.6504)" class="st69" width="1" height="22"/>
<rect x="1527.2" y="521.8" transform="matrix(0.2375 -0.9714 0.9714 0.2375 665.4833 1892.4664)" class="st69" width="22" height="1"/>
<rect x="1528.2" y="524.8" transform="matrix(0.1613 -0.9869 0.9869 0.1613 772.5288 1959.6976)" class="st69" width="22" height="1"/>
<rect x="1546.8" y="513.1" transform="matrix(0.9348 -0.3553 0.3553 0.9348 -85.2633 583.8871)" class="st69" width="1" height="22"/>
<ellipse class="st69" cx="1542.1" cy="508.5" rx="20.8" ry="6.2"/>
<ellipse class="st69" cx="1242.4" cy="511.8" rx="20.8" ry="6.2"/>
<rect x="932.8" y="213.2" class="st70" width="89" height="342"/>
<ellipse class="st63" cx="1008.8" cy="396.8" rx="6" ry="2.5"/>
<rect x="1078.3" y="286.8" class="st71" width="190" height="76"/>
<rect x="1084.3" y="292.6" class="st72" width="177.6" height="63.2"/>
<path class="st73" d="M1128.1,325.7c-7-3.7-11.2-13.4-8.4-18c3.7-5.9,15.9,1.9,37.7-0.6c21.5-2.4,24.8-11.7,39.5-9.6
	c18.5,2.7,31.9,20,29.9,23.3c-2.3,3.9-27.6-9.6-31.7-3.6c-3.3,4.8,9.8,17.5,7.2,20.4c-2.2,2.3-13-3.3-20.9-9
	c-14-9.9-17.5-18.5-23.3-17.4c-5.3,1.1-4.3,8.5-12.6,13.2C1144.3,325.2,1135.8,329.8,1128.1,325.7z"/>
<path class="st74" d="M1231.7,323.6c-11.8-3.3-24.5,9.1-27.3,6.7c-2.5-2.2,8.6-11.8,5.2-16.9c-3-4.5-16.2-4-25.6,0.5
	c-11.7,5.7-19.8,18.8-15.7,24.6c3.1,4.4,10.5,0.6,27.3,4.1s27.2,10.8,29.6,8.2c1.7-1.9-3.7-6-1.7-9.7c2.7-5.3,16.2-2.4,18-6.7
	C1242.8,331.3,1238,325.3,1231.7,323.6z"/>
<path class="st75" d="M1145.2,321.9c-0.8,8-28,15.1-31.8,9.4c-1.7-2.5,2-6.2-0.2-8.9s-9-2.7-10.8-0.2c-1.9,2.7,3.2,5.9,1.9,12.4
	c-0.5,2.6-1.6,3.2-2.6,7.5c-0.8,3.7-1.3,5.5-0.5,6.3c2.5,2.6,12.9-7.1,30.3-10.7c8.6-1.8,8.7,0.1,19.7-1.9
	c10.7-1.9,25.7-6.4,25.6-10.4c-0.1-2.6-6.6-1.8-13-7.4c-8.2-7.2-6.2-16.2-11-17c-4.5-0.7-11.5,6.3-11.3,12.3
	C1141.6,317.9,1145.5,318.8,1145.2,321.9z"/>
<path class="st76" d="M1854.1,733.3c-4-5.6,4.4-10.4,1.6-20.8c-2.3-8.7-11.7-18.4-22.3-19.5c-19.8-2.1-37,26.7-44.6,23.4
	c-5.8-2.5,4.4-19-4.8-26c-6.8-5.2-22.4-3.5-31.9,2.6c-13.5,8.7-10.4,23.8-17.5,24.7c-9.2,1.3-14.6-23.5-33.4-26
	c-8.3-1.1-18.3,2.2-22.3,7.8c-6.5,9.1,6.5,18.6,1.6,24.7c-8.9,11.2-58.9-12.7-78,2.6c-7.2,5.8-8.2,15.6-6.4,22.1
	c4.8,16.7,32.2,22.9,30.3,27.3c-1.6,3.7-19.9-2.7-41.4,3.9c-5.3,1.6-21.6,6.6-23.9,16.9s10.9,19.6,12.7,20.8
	c17.3,11.8,40.6,7.3,41.4,11.7c0.6,3.3-13.1,4.9-27.1,15.6c-6.1,4.7-17.9,13.8-15.9,23.4c2.1,10.1,18.7,17.2,31.9,18.2
	c13.3,1,20.2-4.3,23.9-1.3c6.7,5.5-16,23.9-8,37.7c4.5,7.8,17,11.2,25.5,11.7c20.2,1.2,28.5-13.7,39.8-10.4
	c14,4.1,7.1,28.6,23.9,35.1c11.6,4.5,27.1-2.5,30.3-3.9c17-7.7,18.9-20.1,27.1-19.5c9,0.7,8.1,15.6,22.3,20.8
	c9.5,3.5,22.3,1.3,30.3-3.9c13-8.5,6.6-20.6,17.5-26c12.5-6.2,26.7,6.8,39.8,0c7.9-4.1,11.2-13.1,11.2-19.5
	c-0.1-10.7-9.4-14.8-6.4-20.8s12.8-3.3,20.7-10.4c7.3-6.5,9.1-17.9,4.8-26c-6.2-11.7-22.9-12.6-22.3-18.2
	c0.7-6.8,25.5-5.2,31.9-16.9c4.2-7.7-0.9-18.6-8-24.7c-9.3-8.1-22.2-7.8-22.3-11.7c0-3.6,10.6-3.6,15.9-10.4s4-18.4-3.2-24.7
	C1886.1,732.5,1860.7,742.6,1854.1,733.3z"/>
<path class="st77" d="M1797,807.8c0.2-1.2,1.3-6.4-0.2-7c-0.2-0.1-0.4-0.1-0.7,0c-1.8,0.6-1.6,6-1.6,6.1c-0.7-0.9-1.5-1.7-2.5-2.3
	c-1.3-0.9-1.9-0.9-2.3-0.8c-0.3,0-0.6,0.2-0.8,0.5c-1,1.9,5.2,6.6,3.8,5.1c-0.3,0.3-3.5,3.8-2.6,5.1c0.1,0.2,0.3,0.3,0.5,0.3
	c1.8,0.6,4.6-3,4.8-3.3c0.1,0.3,1.4,4.7,3.1,4.6c0.2,0,0.3-0.1,0.5-0.2c1.1-0.9-1-4.9-1.3-5.4c2-0.2,5.9-0.8,6.1-2.1
	c0.1-0.5-0.5-1-0.7-1.1C1801.8,806.1,1799.4,806.3,1797,807.8z"/>
<path class="st77" d="M1694.2,763.5c0.2-1.2,1.3-6.4-0.2-7c-0.2-0.1-0.4-0.1-0.7,0c-1.8,0.6-1.6,6-1.6,6.1c-0.7-0.9-1.5-1.7-2.5-2.3
	c-1.3-0.9-1.9-0.9-2.3-0.8s-0.7,0.2-0.8,0.5c-0.9,1.9,5.2,6.6,3.8,5.1c-0.3,0.3-3.5,3.8-2.6,5.1c0.1,0.2,0.3,0.3,0.5,0.3
	c1.8,0.6,4.6-3,4.8-3.3c0.1,0.3,1.4,4.7,3.1,4.6c0.2,0,0.4-0.1,0.5-0.2c1.1-0.9-1-4.9-1.3-5.4c2-0.2,5.9-0.8,6.1-2.1
	c0.1-0.5-0.5-1-0.7-1.2C1699,761.8,1696.6,762,1694.2,763.5z"/>
<path class="st77" d="M1672.2,880.5c0.2-1.2,1.3-6.4-0.2-7c-0.2-0.1-0.4-0.1-0.7,0c-1.8,0.6-1.6,6-1.6,6.1c-0.7-0.9-1.5-1.7-2.5-2.3
	c-1.3-0.9-1.9-0.9-2.3-0.8s-0.7,0.2-0.8,0.5c-0.9,1.9,5.2,6.6,3.8,5.1c-0.3,0.3-3.5,3.8-2.6,5.1c0.1,0.2,0.3,0.3,0.5,0.3
	c1.8,0.6,4.6-3,4.8-3.3c0.1,0.3,1.4,4.7,3.1,4.6c0.2,0,0.4-0.1,0.5-0.2c1.1-0.9-1-4.9-1.3-5.4c2-0.2,5.9-0.8,6.1-2.1
	c0.1-0.5-0.5-1-0.7-1.2C1677,878.8,1674.6,879,1672.2,880.5z"/>
<path class="st77" d="M1617.2,804.5c0.2-1.2,1.3-6.4-0.2-7c-0.2-0.1-0.4-0.1-0.7,0c-1.8,0.6-1.6,6-1.6,6.1c-0.7-0.9-1.5-1.7-2.5-2.3
	c-1.3-0.9-1.9-0.9-2.3-0.8s-0.7,0.2-0.8,0.5c-0.9,1.9,5.2,6.6,3.8,5.1c-0.3,0.3-3.5,3.8-2.6,5.1c0.1,0.2,0.3,0.3,0.5,0.3
	c1.8,0.6,4.6-3,4.8-3.3c0.1,0.3,1.4,4.7,3.1,4.6c0.2,0,0.4-0.1,0.5-0.2c1.1-0.9-1-4.9-1.3-5.4c2-0.2,5.9-0.8,6.1-2.1
	c0.1-0.5-0.5-1-0.7-1.2C1622,802.8,1619.6,803,1617.2,804.5z"/>
<path class="st77" d="M1827.2,735.5c0.2-1.2,1.3-6.4-0.2-7c-0.2-0.1-0.4-0.1-0.7,0c-1.8,0.6-1.6,6-1.6,6.1c-0.7-0.9-1.5-1.7-2.5-2.3
	c-1.3-0.9-1.9-0.9-2.3-0.8s-0.7,0.2-0.8,0.5c-0.9,1.9,5.2,6.6,3.8,5.1c-0.3,0.3-3.5,3.8-2.6,5.1c0.1,0.2,0.3,0.3,0.5,0.3
	c1.8,0.6,4.6-3,4.8-3.3c0.1,0.3,1.4,4.7,3.1,4.6c0.2,0,0.4-0.1,0.5-0.2c1.1-0.9-1-4.9-1.3-5.4c2-0.2,5.9-0.8,6.1-2.1
	c0.1-0.5-0.5-1-0.7-1.2C1832,733.8,1829.6,734,1827.2,735.5z"/>
<path class="st77" d="M1724.2,841.5c0.2-1.2,1.3-6.4-0.2-7c-0.2-0.1-0.4-0.1-0.7,0c-1.8,0.6-1.6,6-1.6,6.1c-0.7-0.9-1.5-1.7-2.5-2.3
	c-1.3-0.9-1.9-0.9-2.3-0.8s-0.7,0.2-0.8,0.5c-0.9,1.9,5.2,6.6,3.8,5.1c-0.3,0.3-3.5,3.8-2.6,5.1c0.1,0.2,0.3,0.3,0.5,0.3
	c1.8,0.6,4.6-3,4.8-3.3c0.1,0.3,1.4,4.7,3.1,4.6c0.2,0,0.4-0.1,0.5-0.2c1.1-0.9-1-4.9-1.3-5.4c2-0.2,5.9-0.8,6.1-2.1
	c0.1-0.5-0.5-1-0.7-1.2C1729,839.8,1726.6,840,1724.2,841.5z"/>
<path class="st77" d="M1877.2,850.5c0.2-1.2,1.3-6.4-0.2-7c-0.2-0.1-0.4-0.1-0.7,0c-1.8,0.6-1.6,6-1.6,6.1c-0.7-0.9-1.5-1.7-2.5-2.3
	c-1.3-0.9-1.9-0.9-2.3-0.8s-0.7,0.2-0.8,0.5c-0.9,1.9,5.2,6.6,3.8,5.1c-0.3,0.3-3.5,3.8-2.6,5.1c0.1,0.2,0.3,0.3,0.5,0.3
	c1.8,0.6,4.6-3,4.8-3.3c0.1,0.3,1.4,4.7,3.1,4.6c0.2,0,0.4-0.1,0.5-0.2c1.1-0.9-1-4.9-1.3-5.4c2-0.2,5.9-0.8,6.1-2.1
	c0.1-0.5-0.5-1-0.7-1.2C1882,848.8,1879.6,849,1877.2,850.5z"/>
<path class="st77" d="M1808.2,895.5c0.2-1.2,1.3-6.4-0.2-7c-0.2-0.1-0.4-0.1-0.7,0c-1.8,0.6-1.6,6-1.6,6.1c-0.7-0.9-1.5-1.7-2.5-2.3
	c-1.3-0.9-1.9-0.9-2.3-0.8s-0.7,0.2-0.8,0.5c-0.9,1.9,5.2,6.6,3.8,5.1c-0.3,0.3-3.5,3.8-2.6,5.1c0.1,0.2,0.3,0.3,0.5,0.3
	c1.8,0.6,4.6-3,4.8-3.3c0.1,0.3,1.4,4.7,3.1,4.6c0.2,0,0.4-0.1,0.5-0.2c1.1-0.9-1-4.9-1.3-5.4c2-0.2,5.9-0.8,6.1-2.1
	c0.1-0.5-0.5-1-0.7-1.2C1813,893.8,1810.6,894,1808.2,895.5z"/>
<rect x="932.3" y="777.6" class="st78" width="112" height="128.3"/>
<circle class="st11" cx="1030" cy="844.2" r="3.5"/>
<rect x="1044.8" y="777.6" class="st78" width="116.8" height="128.3"/>
<circle class="st11" cx="1060.9" cy="844.5" r="3.5"/>
</svg>
