<svg id="Layer_1" data-name="Layer 1" xmlns="http://www.w3.org/2000/svg" viewBox="0 0 200 205"><defs><style>.cls-1,.cls-3{fill:#fff;}.cls-1{stroke:#000;stroke-miterlimit:10;stroke-width:6px;}.cls-2{fill:#9f9d95;}</style></defs><title>billedeknap</title><rect class="cls-1" x="30.8" y="28.06" width="138.4" height="148.88" transform="translate(-33.14 49.78) rotate(-24.1)"/><rect class="cls-2" x="36.6" y="38.54" width="120.23" height="113.24" transform="translate(-30.43 47.8) rotate(-24.1)"/><path class="cls-3" d="M95.59,157.69l-20.41,9.14L61.47,48.91,80,40.63Z"/><path class="cls-3" d="M117.93,147.7l-9.31,4.16L94.92,33.94l8.66-3.88Q110.75,88.89,117.93,147.7Z"/><rect class="cls-1" x="73.51" y="65.23" width="113.46" height="122.06" transform="translate(15.48 -14.22) rotate(6.64)"/><rect class="cls-2" x="81.72" y="73.3" width="98.56" height="92.83" transform="translate(14.73 -14.35) rotate(6.64)"/><path class="cls-3" d="M104,163.3l-18.21-2.12,39.77-88.83,16.5,1.92Z"/><path class="cls-3" d="M123.92,165.62l-8.3-1,39.77-88.83,7.73.9Q143.53,121.18,123.92,165.62Z"/></svg>
