<svg id="Layer_1" data-name="Layer 1" xmlns="http://www.w3.org/2000/svg" viewBox="0 0 961.56 961"><defs><style>.cls-1{fill:#009245;}.cls-1,.cls-13,.cls-14,.cls-15,.cls-16,.cls-17,.cls-18,.cls-19,.cls-2{stroke:#000;stroke-miterlimit:10;}.cls-2{fill:#2e3192;}.cls-15,.cls-19,.cls-3{fill:#fff;}.cls-4{fill:#ffc5a2;}.cls-10,.cls-5,.cls-7{fill:#006837;}.cls-5{opacity:0.87;}.cls-6{fill:#0b4c24;opacity:0.83;}.cls-7{opacity:0.93;}.cls-8{fill:#1d4c24;}.cls-11,.cls-12,.cls-9{fill:#165700;}.cls-11{opacity:0.61;}.cls-12{opacity:0.89;}.cls-13{fill:red;}.cls-14{fill:#c1272d;}.cls-16{fill:#ffd0ba;}.cls-17{fill:#ffe1d4;}.cls-18{fill:none;}.cls-19{stroke-width:4px;}</style></defs><title>busk1</title><rect class="cls-1" x="0.5" y="640.5" width="960" height="320"/><rect class="cls-2" x="0.5" y="0.5" width="960" height="640"/><ellipse class="cls-3" cx="805.43" cy="360.61" rx="5.14" ry="5.02"/><polygon class="cls-4" points="525.75 251.14 599.88 121.06 622.36 133.24 548.24 263.33 525.75 251.14"/><ellipse class="cls-4" cx="614.87" cy="103.36" rx="17.66" ry="4.26" transform="matrix(0.5, -0.87, 0.87, 0.5, 220, 585.88)"/><ellipse class="cls-4" cx="631.36" cy="112.29" rx="17.74" ry="4.24" transform="translate(133.43 516.39) rotate(-49.15)"/><ellipse class="cls-4" cx="635.17" cy="119.97" rx="12.27" ry="3.99" transform="translate(55.09 405.16) rotate(-36.88)"/><ellipse class="cls-4" cx="625.53" cy="105.31" rx="17.66" ry="4.26" transform="translate(223.67 596.12) rotate(-60.25)"/><ellipse class="cls-4" cx="605.29" cy="102.95" rx="16.72" ry="6" transform="translate(473.34 702.59) rotate(-87.24)"/><ellipse class="cls-4" cx="616.03" cy="120.25" rx="16.8" ry="18.77" transform="translate(260.61 637.59) rotate(-66.56)"/><polygon class="cls-4" points="192.44 350.88 56.64 282.95 68.39 260.64 204.18 328.57 192.44 350.88"/><ellipse class="cls-4" cx="38" cy="268.93" rx="4.2" ry="17.91" transform="translate(-219.62 182.91) rotate(-63.49)"/><ellipse class="cls-4" cx="46.61" cy="252.56" rx="4.22" ry="17.84" transform="translate(-182.4 136.32) rotate(-52.63)"/><ellipse class="cls-4" cx="54.35" cy="248.6" rx="4.02" ry="12.2" transform="translate(-148.5 94.96) rotate(-40.53)"/><ellipse class="cls-4" cx="39.65" cy="258.48" rx="4.2" ry="17.91" transform="translate(-209.35 178.59) rotate(-63.49)"/><ellipse class="cls-4" cx="37.9" cy="278.27" rx="5.85" ry="17.15" transform="translate(-240.84 312.54) rotate(-89.25)"/><ellipse class="cls-4" cx="55.28" cy="267.23" rx="18.51" ry="17.04" transform="matrix(0.56, -0.83, 0.83, 0.56, -196.55, 162.11)"/><ellipse class="cls-5" cx="443.59" cy="323.83" rx="164.63" ry="160.52"/><ellipse class="cls-6" cx="262.66" cy="411.61" rx="180.92" ry="219.87"/><ellipse class="cls-7" cx="533.37" cy="465.5" rx="229.95" ry="185.17" transform="matrix(0.1, -1, 1, 0.1, 18.55, 951.44)"/><ellipse class="cls-8" cx="377.56" cy="607.24" rx="143.2" ry="156.34"/><ellipse class="cls-9" cx="458.16" cy="314.63" rx="117.47" ry="104.5"/><ellipse class="cls-9" cx="176.92" cy="618.94" rx="117.47" ry="104.5"/><ellipse class="cls-10" cx="137.47" cy="409.94" rx="117.47" ry="104.5"/><ellipse class="cls-10" cx="633.08" cy="368.14" rx="117.47" ry="104.5"/><ellipse class="cls-9" cx="262.66" cy="279.52" rx="117.47" ry="104.5"/><ellipse class="cls-11" cx="489.03" cy="501.06" rx="143.2" ry="117.04"/><ellipse class="cls-12" cx="583.35" cy="650.71" rx="143.2" ry="111.19"/><ellipse class="cls-10" cx="262.66" cy="700.87" rx="84.89" ry="91.13"/><path class="cls-13" d="M209.13,457.31l-7.4,16.83a117.77,117.77,0,0,1,21.16,63.36,133,133,0,0,1-5.21,41.85,23.1,23.1,0,0,0,11.59,10.09,24.37,24.37,0,0,0,15.88.35A139.63,139.63,0,0,1,286.58,562a121.09,121.09,0,0,1,59.84-9.58l6.23-14.16a194.7,194.7,0,0,1-143.52-81Z"/><path class="cls-3" d="M204.52,467.8l2-4.62a195.76,195.76,0,0,0,143,80l-1.78,4a188.11,188.11,0,0,1-143.26-79.4Z"/><path class="cls-3" d="M264.91,522,257.63,507a27.17,27.17,0,0,0-7.31,11.35,25,25,0,0,0-1.25,8.13q3.85-1.26,8-2.42C259.77,523.26,262.39,522.59,264.91,522Z"/><ellipse class="cls-3" cx="265.09" cy="521.6" rx="2.66" ry="2.12" transform="translate(-319.84 535.62) rotate(-64.43)"/><path class="cls-3" d="M265.09,521.6a51.47,51.47,0,0,1,8-2.42,47.45,47.45,0,0,1,5-.8,13.15,13.15,0,0,1-.19,5.69c-1.82,7.08-8.83,10.35-9.27,10.54l-1.77-6.51Z"/><path class="cls-14" d="M657.09,239.39c.6-23.79,1.08-44.33,1.72-63.54,0,0,4-11.49-4.1-39.31a115.81,115.81,0,0,0-6.19-15.87,17.58,17.58,0,0,0-18.87-10A17.17,17.17,0,0,0,615.94,124a257.69,257.69,0,0,0,0,118.21l5.21-4.41c-1-5.09-2.44-12.63-3.5-21.84-.68-5.93-.83-9.12-1.71-35.11-.7-20.28-.82-24.56,0-31.77a128.57,128.57,0,0,1,3.43-18.39A13.3,13.3,0,0,1,629.65,119a13.7,13.7,0,0,1,15.44,8.36,62.18,62.18,0,0,0,1.71,10c1.7,6.56,3.75,10,5.15,13.38,2.44,5.9,2.23,12.93,1.71,26.75-.44,11.91-1.27,14.67-1.58,19.49,0,0-.11,1.88-.13,3.92C651.9,205.51,653.64,220,657.09,239.39Z"/><path class="cls-13" d="M631.56,233.38c-15.11,5.65-22.67,19.85-23.48,24.37a156,156,0,0,0,4.65,73.92c4.64,15,22.64,18.22,31.11,21.29,4.79,1.73,21.92,7.7,42.41,3.47,18-3.72,19.72-11.44,36-11.7,4.27-.07,17.43-.11,27.44,8.36,2.55,2.16,3.81,4,10.29,15.05,14.18,24.29,13.53,25.3,17.15,28.42,11.24,9.69,24.91,11.1,30.87,11.71,5.34.54,18.72,1.75,32.58-5,15.27-7.45,22-20.14,29.15-33.44,7.87-14.72,14-26.14,12-41.8-2.06-16.42-12.08-30.39-24-38.46-8.57-5.8-16.79-7.64-27.44-10-9.84-2.21-17.85-4-27.44-1.67a17,17,0,0,0-1.8.51,39.73,39.73,0,0,0-7.81,3.57c-4.79,3-10.18,7.74-14.4,11-5.8,4.43-10.55,6.78-17.15,10-8.23,4.06-12.4,6.07-15.43,5-3.94-1.38-4.28-5.47-8.58-16.72-4.22-11.06-8-20.81-16.22-29.68-1.26-1.36-3.43-3.28-7.78-7.1-9.16-8-14.65-12.79-22.61-16.9-2.39-1.24-5.92-3.57-11.22-4.64A108.76,108.76,0,0,0,646.8,231C638.82,231.78,634.83,232.15,631.56,233.38Z"/><path class="cls-14" d="M852.59,286.21a256.22,256.22,0,0,1,29.7-22.54,259.3,259.3,0,0,1,44.05-22.94,79.18,79.18,0,0,1,19.2,12.13,77.6,77.6,0,0,1,15.46,18l-13.91,34.07L916.28,334l-49.12,15.47.5-9.15a75.33,75.33,0,0,0,9.7.15,79.84,79.84,0,0,0,36.57-11.24,112.55,112.55,0,0,0,28.35-26.74,67.33,67.33,0,0,0,12.6-28.18,24.51,24.51,0,0,0-3.46-10.69,25.32,25.32,0,0,0-8.35-8.41,71.6,71.6,0,0,0-14.43-7.33c-1.23-.46-2.43-.87-3.62-1.24a152.63,152.63,0,0,0-40.35,19.46,149.56,149.56,0,0,0-26.93,23.47Z"/><ellipse class="cls-3" cx="627.08" cy="260.29" rx="5.14" ry="5.02"/><ellipse class="cls-3" cx="693.96" cy="295.4" rx="5.14" ry="5.02"/><ellipse class="cls-3" cx="827.73" cy="370.64" rx="5.14" ry="5.02"/><ellipse class="cls-3" cx="826.01" cy="328.84" rx="5.14" ry="5.02"/><ellipse class="cls-3" cx="678.53" cy="328.84" rx="5.14" ry="5.02"/><ellipse class="cls-3" cx="659.67" cy="250.26" rx="5.14" ry="5.02"/><ellipse class="cls-3" cx="632.23" cy="290.39" rx="5.14" ry="5.02"/><ellipse class="cls-3" cx="644.23" cy="318.81" rx="5.14" ry="5.02"/><ellipse class="cls-3" cx="693.96" cy="266.98" rx="5.14" ry="5.02"/><ellipse class="cls-3" cx="781.43" cy="377.33" rx="5.14" ry="5.02"/><ellipse class="cls-3" cx="764.28" cy="318.81" rx="5.14" ry="5.02"/><ellipse class="cls-3" cx="719.69" cy="273.67" rx="5.14" ry="5.02"/><ellipse class="cls-3" cx="810.58" cy="395.73" rx="5.14" ry="5.02"/><ellipse class="cls-3" cx="832.87" cy="260.29" rx="5.14" ry="5.02"/><ellipse class="cls-3" cx="769.42" cy="343.89" rx="5.14" ry="5.02"/><ellipse class="cls-3" cx="796.86" cy="307.11" rx="5.14" ry="5.02"/><ellipse class="cls-3" cx="796.86" cy="355.6" rx="5.14" ry="5.02"/><ellipse class="cls-3" cx="800.29" cy="265.31" rx="5.14" ry="5.02"/><ellipse class="cls-3" cx="735.12" cy="307.11" rx="5.14" ry="5.02"/><ellipse class="cls-3" cx="827.73" cy="295.4" rx="5.14" ry="5.02"/><ellipse class="cls-3" cx="666.53" cy="285.37" rx="5.14" ry="5.02"/><ellipse class="cls-3" cx="856.88" cy="333.86" rx="5.14" ry="5.02"/><ellipse class="cls-3" cx="856.88" cy="263.63" rx="5.14" ry="5.02"/><path class="cls-15" d="M654.38,228.88l-17.57-8.35a24.66,24.66,0,0,0-.89,12.14,25.11,25.11,0,0,0,6.18,12.4l12.63-14.55a3.25,3.25,0,0,0,3,1.94,3.28,3.28,0,0,0,2.65-4l10.2,10.72a13.63,13.63,0,0,0,5.57-14.81,14,14,0,0,0-10.86-9.73q-2.64,6.09-5.26,12.18a4.11,4.11,0,0,0-4.37,0A3.55,3.55,0,0,0,654.38,228.88Z"/><path class="cls-15" d="M868.93,342.57l-3.68-26a39,39,0,0,0-15,9.34,37.94,37.94,0,0,0-9.86,17.17l26.89,1.25a4.26,4.26,0,0,0,.06,4.92c1.41,1.61,4.58,1.65,6.71-.5l-4.78,20.07A20.75,20.75,0,0,0,891,362.25a19.28,19.28,0,0,0,3.1-19.94L875.71,347a5,5,0,0,0-3.42-4.67A5.27,5.27,0,0,0,868.93,342.57Z"/><path class="cls-16" d="M365.75,341.84a236.47,236.47,0,0,0,66.6-32.26c9.47-13.93,21.45-21.74,30.51-18.89a13.49,13.49,0,0,1,4.77,2.71,5.86,5.86,0,0,0,4.52-.84c1.71-1.27,1.4-3.07,3.52-5,.38-.35,2.29-2.09,3.34-1.53,1.34.72.76,4.94-.52,7.81a8.41,8.41,0,0,1-2.86,3.81,7.78,7.78,0,0,1-4.19,1.35,20.43,20.43,0,0,1,4.95,11.54,19.73,19.73,0,0,1-2.46,11.37A133.36,133.36,0,0,1,448.1,351.4a134.85,134.85,0,0,1-55.33,28c-1.1-.19-19.46-3.63-25.82-19.69A30.29,30.29,0,0,1,365.75,341.84Z"/><path class="cls-17" d="M396.38,378.76l-8.26-.34a41.05,41.05,0,0,1-22.66-30.05,14.37,14.37,0,0,1,5.39-8.13,13.61,13.61,0,0,1,5.68-2.37l-4.35-2.64a11.48,11.48,0,0,0-8.14,1.44c-4,2.6-5.91,8-4.6,13.57A55.71,55.71,0,0,0,383.88,385a12.17,12.17,0,0,0,6.61,2.21c5.62.06,11-4.45,13.41-11.36Z"/><path class="cls-18" d="M382.21,340.33C395.69,342.43,405,356.14,403,371"/><path class="cls-3" d="M453.38,343.19A33.37,33.37,0,0,1,443,350.38c-11,4.87-23.75,3.28-24.22.83s12.93-3,26.14-14.06c13.74-11.49,16.26-25.23,18.36-24.41C465.66,313.66,464.58,331.67,453.38,343.19Z"/><path class="cls-19" d="M948.5,769.34c1.72,50.22-73.19,101.19-151.87,112.26-50,7-107.42,10.49-107.42,10.49a37.46,37.46,0,0,0-3.7,28.33c4.49,16.21,19.11,27,25.93,31.47a566.48,566.48,0,0,1-83.34-25.18,438.19,438.19,0,0,1-55.56-26.23,2241.41,2241.41,0,0,1-224.1,5.25c-89-2.35-134.14-4.32-185.2-17.84C102.76,871.88,9,830.67,9.53,775.64c.44-49.09,75.63-83,105.56-96.52C211.48,635.62,320.31,634,480.86,633c157.75-1.05,259.86-.91,354.66,38.81C866.65,684.82,946.75,718.38,948.5,769.34Z"/><path d="M169.85,746.4c-.12.75-.33,1.16-.62,1.22a5.53,5.53,0,0,1-2.39-.33c-1.25-.35-2-.7-2.14-1a1,1,0,0,1-.07-.39,3.31,3.31,0,0,1,.06-.51,3.71,3.71,0,0,0,.07-.59V733q-1.23,2.4-3.2,10.76a.88.88,0,0,0,0,.24,6.05,6.05,0,0,0,.09.83,6.53,6.53,0,0,1,.09.73,7.39,7.39,0,0,1-.07,1,.76.76,0,0,1-.55.62,3.68,3.68,0,0,1-.91.08q-3.37,0-4.65-1.17a.7.7,0,0,1-.16-.65,2.2,2.2,0,0,0,0-.75q-1-3-1.72-5.2a58,58,0,0,0-2.36-6.37v10.34a3.05,3.05,0,0,0,.21.94,7.89,7.89,0,0,1,.28.91,4.51,4.51,0,0,1,.05,1.25c0,.59-.15,1-.36,1.09a1.17,1.17,0,0,1-.6.1,9.75,9.75,0,0,1-2.29-.33,3.31,3.31,0,0,1-1.69-.71.76.76,0,0,1-.13-.44,2.2,2.2,0,0,1,.1-.52,2.5,2.5,0,0,0,.09-.57V726.75a1.32,1.32,0,0,1,.26-.72,1.28,1.28,0,0,1,.59-.53,10.17,10.17,0,0,1,3.41.62c2.06.54,3.16,1,3.28,1.41a1.37,1.37,0,0,1,0,.62c0,.36-.08.58-.08.65a1.08,1.08,0,0,0,.08.42l3.51,9.44q.73-2.32,2.65-9.39c.65-2.41,1.16-3.67,1.56-3.77a1.38,1.38,0,0,1,.42,0,7.31,7.31,0,0,1,1.48.23,9.39,9.39,0,0,0,1.59.31c1.37.12,2.16.2,2.36.24.82.15,1.28.44,1.38.85a1.31,1.31,0,0,1,0,.39,2.93,2.93,0,0,1-.13.75,3.38,3.38,0,0,0-.13.71v15.91a1.66,1.66,0,0,0,.33.78A1.19,1.19,0,0,1,169.85,746.4Z"/><path d="M188.34,745.65c0,.15-.05.53-.11,1.12a1.21,1.21,0,0,1-.2.7,1,1,0,0,1-.45.08,6.66,6.66,0,0,1-2.13-.45,4,4,0,0,1-1.87-1,4.21,4.21,0,0,1-.42-1.56,19.84,19.84,0,0,0-.65-2.89,19.66,19.66,0,0,0-2.88.72,10.83,10.83,0,0,0-2.47,1c-.26.75-.61,1.66-1,2.76-.05.24-.11.47-.17.69a.9.9,0,0,1-.46.53.46.46,0,0,1-.23,0,6.25,6.25,0,0,1-2.09-.65c-1-.43-1.49-.72-1.52-.86a3.92,3.92,0,0,1,.49-1.79q.83-2.08,1-2.55a1.58,1.58,0,0,1-.54-1.09,1.52,1.52,0,0,1,0-.29c0-.2.56-.58,1.59-1.12l3.35-11.46a4.71,4.71,0,0,0,0-1.15c0-.46,0-.76.15-.88a1,1,0,0,1,.63-.13,14.5,14.5,0,0,1,3.48.62,7,7,0,0,1,2.71,1.12,77.87,77.87,0,0,0,1.17,8.66Q187,742.95,188.34,745.65Zm-6.79-7.9c-.22-1.1-.36-1.82-.41-2.16a29.71,29.71,0,0,1-.39-3.62q-.52,1.28-1.23,3.54a19.47,19.47,0,0,0-.8,3A23.36,23.36,0,0,1,181.55,737.75Z"/><path d="M204.92,743.62c.16.3-.15,1-.92,2.17s-1.42,1.72-1.93,1.71a1.57,1.57,0,0,1-1.33-.89,3.38,3.38,0,0,0-.39-.75l-5.49-5.13v4.81a1.79,1.79,0,0,0,.22.73,1.67,1.67,0,0,1,.22.65c0,.52-.33.81-1,.86a7.74,7.74,0,0,1-2.31-.28c-1.11-.25-1.67-.51-1.67-.79a1.18,1.18,0,0,1,.07-.35,2.12,2.12,0,0,0,.06-.56V727.66a.72.72,0,0,0-.07-.33.42.42,0,0,1-.08-.22c0-.47.36-.74,1-.83a4.33,4.33,0,0,1,1.41.25,5.63,5.63,0,0,0,1.58.27,6.49,6.49,0,0,0,1.8-.72,5.47,5.47,0,0,1,2.38-.69,4.63,4.63,0,0,1,.81.08,2.93,2.93,0,0,1,1.32.68c.4.35.79.69,1.15,1,.95.9,1.45,1.38,1.48,1.43a2.87,2.87,0,0,1,.73,1.74q.15,3-5.15,7.75,1.09,1,4.81,4.81a5.5,5.5,0,0,1,.68.31A4.23,4.23,0,0,1,204.92,743.62Zm-5.74-14.53c-.82,0-2.25.85-4.32,2.54v4a8.72,8.72,0,0,0,2.94-2.68c1.21-1.49,1.82-2.6,1.82-3.32C199.62,729.26,199.47,729.09,199.18,729.09Z"/><path d="M212,726.67a1.43,1.43,0,0,1-.12.49c-.08.21-.13.34-.14.39a12,12,0,0,0-.32,1.62v16a1.08,1.08,0,0,0,.16.56.87.87,0,0,1,.16.4c0,1.11-.21,1.71-.63,1.79a7.35,7.35,0,0,1-1.82-.33,6.81,6.81,0,0,1-1.92-.65,1.34,1.34,0,0,1-.57-.91.4.4,0,0,1,.1-.24.69.69,0,0,0,.1-.44V727a.68.68,0,0,0-.09-.32.75.75,0,0,1-.09-.33c0-.41.36-.69,1-.83a5.6,5.6,0,0,1,1.2,0,9.32,9.32,0,0,1,1.87.29C211.62,726,212,726.29,212,726.67Z"/><path d="M230.3,745.65c0,.15-.05.53-.1,1.12a1.29,1.29,0,0,1-.21.7,1,1,0,0,1-.44.08,6.66,6.66,0,0,1-2.14-.45,4,4,0,0,1-1.87-1,4.08,4.08,0,0,1-.41-1.56,21.25,21.25,0,0,0-.65-2.89,20,20,0,0,0-2.89.72,11,11,0,0,0-2.47,1c-.26.75-.61,1.66-1,2.76-.05.24-.11.47-.17.69a.91.91,0,0,1-.45.53.51.51,0,0,1-.24,0,6.32,6.32,0,0,1-2.09-.65c-1-.43-1.49-.72-1.52-.86a3.92,3.92,0,0,1,.49-1.79q.84-2.08,1-2.55a1.58,1.58,0,0,1-.54-1.09c0-.09,0-.18,0-.29s.57-.58,1.59-1.12l3.35-11.46a4.24,4.24,0,0,0,0-1.15c0-.46,0-.76.16-.88s.29-.13.62-.13a14.34,14.34,0,0,1,3.48.62,7,7,0,0,1,2.71,1.12,77.87,77.87,0,0,0,1.17,8.66Q228.94,742.95,230.3,745.65Zm-6.79-7.9c-.22-1.1-.36-1.82-.41-2.16a34.28,34.28,0,0,1-.39-3.62c-.35.85-.76,2-1.22,3.54a18.77,18.77,0,0,0-.81,3A23.36,23.36,0,0,1,223.51,737.75Z"/><path d="M246.86,747.5a3.42,3.42,0,0,1-1.22-.15l-1.33-.4c-.52-.14-1.33-.39-2.44-.75a6.14,6.14,0,0,1-3.15-3.59,15.69,15.69,0,0,1-.93-5.72,26.16,26.16,0,0,1,.93-6.37q1.28-4.89,3.31-4.89a2,2,0,0,1,.5.09l.51.12a12.16,12.16,0,0,1,2.47-.55,4.53,4.53,0,0,1,.52,0q3.12.39,4.91,3.9a16.41,16.41,0,0,1,1.62,7.56,16.17,16.17,0,0,1-1.46,7.15Q249.54,747.19,246.86,747.5Zm-.47-19.06c-.38-.11-.76.4-1.13,1.53s-.75,1.69-1.13,1.69a.94.94,0,0,1-.38-.14,1.15,1.15,0,0,0-.4-.17,13.86,13.86,0,0,0-.88,5.56,17.25,17.25,0,0,0,.6,4.86c.45,1.51,1.07,2.35,1.87,2.5s1.69-.79,2.26-2.89a25.11,25.11,0,0,0,.75-6.55,20.13,20.13,0,0,0-.39-4.31C247.29,729.27,246.9,728.58,246.39,728.44Z"/><path d="M269.46,737.85a1.37,1.37,0,0,1-.91,1.32.55.55,0,0,1-.37-.09.82.82,0,0,0-.34-.11.85.85,0,0,0-.33.07,44.67,44.67,0,0,1-1.59,5.21,5.72,5.72,0,0,1-2.7,3.22,2.12,2.12,0,0,1-.91.21A10.05,10.05,0,0,1,260,747c-.47-.12-1.2-.37-2.21-.75a5.27,5.27,0,0,1-2.34-3.36,19.09,19.09,0,0,1-.75-5.69,22.92,22.92,0,0,1,1.19-7.65c.87-2.44,2-3.81,3.44-4.1a2.54,2.54,0,0,1,.41,0,8.14,8.14,0,0,1,3.17.83,6.13,6.13,0,0,1,2.71,2,5.15,5.15,0,0,1,.75,2.19c.16,1,.25,1.55.29,1.63.05.3.12.65.21,1.07a1.39,1.39,0,0,1-.26.79,1.32,1.32,0,0,1-.55.56,5,5,0,0,1-2-.37,7.59,7.59,0,0,1-2-.8,1.24,1.24,0,0,1-.39-1.22.67.67,0,0,1,.13-.32.63.63,0,0,0,.13-.35c0-1.24-.14-1.85-.41-1.85-.59,0-1.11,1-1.56,3a28.11,28.11,0,0,0-.63,6.14q0,4.93,1.38,5.67c.28.14.66-.34,1.13-1.43a10.1,10.1,0,0,0,.85-3.07A8.48,8.48,0,0,0,261,739c-.62-.26-1-.48-1-.67a1.71,1.71,0,0,1,.26-1.11,2.1,2.1,0,0,1,.76-.92,2.77,2.77,0,0,1,1.14-.24,6.93,6.93,0,0,0,1.19,0,9.47,9.47,0,0,0,1.43-.44,3.75,3.75,0,0,1,1.22-.31l.29,0a5.32,5.32,0,0,1,1.91,1.18C269.06,737.14,269.47,737.61,269.46,737.85Z"/><path d="M288.49,743.18a4.23,4.23,0,0,1-1.28,3.16,5,5,0,0,1-3.53,1.28,4.56,4.56,0,0,1-1.22-.18l-1.25-.34-1.26-.27a2.29,2.29,0,0,1-1.11-.58,4.41,4.41,0,0,1-1.14-2,10.69,10.69,0,0,0-.83-2.05,3.55,3.55,0,0,1-.5-.73,1.12,1.12,0,0,1,.14-.77,1,1,0,0,1,.54-.48,1.87,1.87,0,0,1,.57-.05,13.33,13.33,0,0,1,2.22.22,3.64,3.64,0,0,1,1.47.4,6.93,6.93,0,0,1,.42,1.87c.15,1,.39,1.62.7,1.75a.59.59,0,0,0,.23,0c.33,0,.61-.28.85-.82a4.78,4.78,0,0,0,.35-1.86,3.12,3.12,0,0,0-1.4-3,16.79,16.79,0,0,1-4.53-3.22,5.37,5.37,0,0,1-1.35-4.06,8.3,8.3,0,0,1,1.42-3.94,4.8,4.8,0,0,1,2.71-2.32c.4-.09,1.62.29,3.64,1.14.51.19,1,.39,1.52.6a3,3,0,0,1,1.24.91,5.17,5.17,0,0,1,.73,3.14q0,.42,0,1.23c0,.46,0,.79,0,1a2.35,2.35,0,0,0,.18.59,1.17,1.17,0,0,1,.1.58c0,.76-.35,1.18-1,1.27a5.19,5.19,0,0,1-1.93-.39,4,4,0,0,1-2-1.07,1.27,1.27,0,0,1,0-.52q0-.39.09-1.77c.06-.91.09-1.58.09-2,0-.74-.09-1.11-.26-1.09-.54,0-1,.42-1.34,1.16a5.61,5.61,0,0,0-.53,2.51,3.81,3.81,0,0,0,1.37,3.32l3.13,2a6.31,6.31,0,0,1,2.05,1.93A7,7,0,0,1,288.49,743.18Z"/><path d="M298.86,747.5a3.42,3.42,0,0,1-1.22-.15l-1.33-.4c-.52-.14-1.33-.39-2.44-.75a6.14,6.14,0,0,1-3.15-3.59,15.69,15.69,0,0,1-.93-5.72,26.16,26.16,0,0,1,.93-6.37q1.27-4.89,3.3-4.89a2,2,0,0,1,.51.09l.51.12a12,12,0,0,1,2.47-.55,4.53,4.53,0,0,1,.52,0q3.12.39,4.91,3.9a16.41,16.41,0,0,1,1.61,7.56,16.17,16.17,0,0,1-1.45,7.15Q301.54,747.19,298.86,747.5Zm-.47-19.06c-.38-.11-.76.4-1.13,1.53s-.75,1.69-1.13,1.69a.94.94,0,0,1-.38-.14,1.15,1.15,0,0,0-.4-.17,13.86,13.86,0,0,0-.88,5.56,17.65,17.65,0,0,0,.59,4.86c.46,1.51,1.08,2.35,1.88,2.5s1.69-.79,2.26-2.89a25.11,25.11,0,0,0,.75-6.55,20.13,20.13,0,0,0-.39-4.31C299.29,729.27,298.9,728.58,298.39,728.44Z"/><path d="M318,727.87a2.13,2.13,0,0,1-.36.88,1.31,1.31,0,0,1-.89.6,1.19,1.19,0,0,1-.47-.09,1.21,1.21,0,0,0-.44-.12,8.39,8.39,0,0,0-2.23.75,12.38,12.38,0,0,0-2.79,1.49v4.75q.13,0,1.23-.72a2.59,2.59,0,0,1,1.17-.47c.31,0,.89.47,1.74,1.45s1.26,1.65,1.22,2a1.58,1.58,0,0,1-.52.93,1.62,1.62,0,0,1-.73.47.54.54,0,0,1-.41-.06,1.13,1.13,0,0,0-.37-.12.3.3,0,0,0-.15,0l-1.33.57a7.36,7.36,0,0,0-1.85,1.07v3.8a1,1,0,0,0,.28.56,1,1,0,0,1,.27.69,1.64,1.64,0,0,1-1.38,1.74,12.24,12.24,0,0,1-2.47-1.49c-.74-.6-1.11-1.13-1.11-1.58V727.81a1.54,1.54,0,0,0-.3-.84c-.2-.29-.29-.5-.25-.64a1.4,1.4,0,0,1,.49-.79,1.6,1.6,0,0,1,.94-.43,4.24,4.24,0,0,1,1.43.74,7,7,0,0,0,1.58.85l2.86-1.18a5.6,5.6,0,0,1,1.17-.59c.44,0,1.17.33,2.19,1.15S318,727.5,318,727.87Z"/><path d="M332.09,727.45c0-.19,0,1.46,0,5q0,14.8-4.14,15.28a4.22,4.22,0,0,1-1.75-.26l-2-.67c-.57-.14-1.15-.29-1.73-.46a2.81,2.81,0,0,1-1.36-.79c-.71-.78-1.29-2.48-1.72-5.1a51.6,51.6,0,0,1-.57-8,43.53,43.53,0,0,1,.36-6,1.15,1.15,0,0,1,.76-1,5.66,5.66,0,0,1,2,.37,5.15,5.15,0,0,1,2,.8.62.62,0,0,1,.13.42,2.36,2.36,0,0,1-.26.92,2.06,2.06,0,0,0-.23.92,16.77,16.77,0,0,0-.13,2.86,74.51,74.51,0,0,0,.42,8.3c.34,3.19.85,4.75,1.51,4.68q1.25-.13,1.87-4.55a56.78,56.78,0,0,0,.49-8,23.44,23.44,0,0,0-.18-3.82,1.94,1.94,0,0,0-.1-.86,5.24,5.24,0,0,1-.24-.62,1.2,1.2,0,0,1,.57-1.33,1,1,0,0,1,.44-.08,8.45,8.45,0,0,1,2.19.4,4.57,4.57,0,0,1,1.64.64A1.69,1.69,0,0,1,332.09,727.45Z"/><path d="M346.21,743.18a4.23,4.23,0,0,1-1.28,3.16,5,5,0,0,1-3.53,1.28,4.69,4.69,0,0,1-1.23-.18l-1.24-.34-1.26-.27a2.29,2.29,0,0,1-1.11-.58,4.41,4.41,0,0,1-1.14-2,9.86,9.86,0,0,0-.84-2.05,4.07,4.07,0,0,1-.49-.73,1.12,1.12,0,0,1,.14-.77,1,1,0,0,1,.54-.48,1.87,1.87,0,0,1,.57-.05,13.33,13.33,0,0,1,2.22.22,3.64,3.64,0,0,1,1.47.4,7.4,7.4,0,0,1,.42,1.87c.15,1,.39,1.62.7,1.75a.59.59,0,0,0,.23,0c.33,0,.61-.28.85-.82a4.78,4.78,0,0,0,.35-1.86,3.11,3.11,0,0,0-1.41-3,16.87,16.87,0,0,1-4.52-3.22,5.37,5.37,0,0,1-1.35-4.06,8.19,8.19,0,0,1,1.42-3.94,4.8,4.8,0,0,1,2.71-2.32c.4-.09,1.61.29,3.64,1.14.51.19,1,.39,1.52.6a3,3,0,0,1,1.24.91,5.17,5.17,0,0,1,.73,3.14q0,.42,0,1.23t0,1a3.1,3.1,0,0,0,.19.59,1.17,1.17,0,0,1,.1.58c0,.76-.35,1.18-1,1.27a5.19,5.19,0,0,1-1.93-.39,4,4,0,0,1-2-1.07,1.27,1.27,0,0,1-.05-.52q0-.39.09-1.77c.06-.91.09-1.58.09-2,0-.74-.09-1.11-.26-1.09-.54,0-1,.42-1.34,1.16a5.61,5.61,0,0,0-.53,2.51,3.81,3.81,0,0,0,1.37,3.32l3.12,2a6.26,6.26,0,0,1,2.06,1.93A7,7,0,0,1,346.21,743.18Z"/><path d="M368.8,736.89a1.58,1.58,0,0,1-.61.89c-.39.36-.67.54-.85.54a3.12,3.12,0,0,0-.44,0v6.55a7.53,7.53,0,0,1,.26,1q.24,1.67-.39,1.95a1.18,1.18,0,0,1-.39.05,6.12,6.12,0,0,1-2.34-.65,3.76,3.76,0,0,1-1.87-1.35c0-.16,0-.39-.08-.7a.67.67,0,0,1,.18-.5,1.17,1.17,0,0,0,.24-.39V739a17.51,17.51,0,0,0-1.95.39,17.27,17.27,0,0,0-1.93.52v5.28a.85.85,0,0,0,.17.43,1.14,1.14,0,0,1,.2.37q-.11.42-.18.81a.5.5,0,0,1-.29.36,5.17,5.17,0,0,1-2.33-.48c-1.27-.42-1.94-.77-2-1a1.78,1.78,0,0,1-.05-.62,5.75,5.75,0,0,0,.07-.73V727.68a7.42,7.42,0,0,1,.24-1.43c0-.17.33-.41.88-.73a1.4,1.4,0,0,1,.29,0,7.16,7.16,0,0,1,2,.31c.92.28,1.4.64,1.45,1.09a2.25,2.25,0,0,1-.22.89,3.28,3.28,0,0,0-.25.88V735c1.18-.29,2.47-.59,3.88-.91v-7.25a2.66,2.66,0,0,0-.12-.39.9.9,0,0,1-.06-.54c.08-.32.37-.52.85-.6s.73-.1,1.1-.13a3.7,3.7,0,0,1,1.67.33c.74.28,1.15.58,1.24.89a.88.88,0,0,1-.11.55,2,2,0,0,0-.18.72v7.18c.09.1.5.48,1.22,1.12C368.59,736.39,368.82,736.7,368.8,736.89Z"/><path d="M385.6,727.53q.15,1.35-.63,1.71a2.94,2.94,0,0,0-.41.21,57,57,0,0,0-4,8.14,38.62,38.62,0,0,0-2.42,6.63,2.45,2.45,0,0,0,.1.73,2.9,2.9,0,0,1,.11.85c-.11,1.18-.4,1.82-.89,1.9a5.7,5.7,0,0,1-1.8-.39,8.8,8.8,0,0,1-1.94-.75c-.59-.42-.88-.83-.88-1.25a1.69,1.69,0,0,1,.18-.7c.24-.68.75-2.06,1.53-4.16-1.44-3-2.41-5-2.91-6.14a43,43,0,0,1-2.13-5.54,2.24,2.24,0,0,0-.3-.39.69.69,0,0,1-.25-.46q0-.39,1-1.17c1.43-1.11,2.42-1.63,3-1.56a1.06,1.06,0,0,1,.75.54,1.71,1.71,0,0,1,.34.7,11.83,11.83,0,0,0,.16,1.59,26.65,26.65,0,0,0,2.49,7c1-2.37,1.52-3.68,1.64-3.92a30.7,30.7,0,0,1,2.24-4.13,8.94,8.94,0,0,1,.36-1.07,1.55,1.55,0,0,1,1.41-.5,5.76,5.76,0,0,1,1.91.91C385.12,726.86,385.56,727.27,385.6,727.53Z"/><path d="M401,737.85a1.35,1.35,0,0,1-.91,1.32.53.53,0,0,1-.36-.09.82.82,0,0,0-.34-.11.9.9,0,0,0-.34.07,43.28,43.28,0,0,1-1.58,5.21,5.77,5.77,0,0,1-2.71,3.22,2.06,2.06,0,0,1-.91.21,10.17,10.17,0,0,1-2.31-.68,23.09,23.09,0,0,1-2.21-.75,5.2,5.2,0,0,1-2.34-3.36,19.09,19.09,0,0,1-.75-5.69,22.67,22.67,0,0,1,1.19-7.65q1.31-3.66,3.43-4.1a2.58,2.58,0,0,1,.42,0,8.19,8.19,0,0,1,3.17.83,6.13,6.13,0,0,1,2.71,2,5.15,5.15,0,0,1,.75,2.19c.16,1,.25,1.55.29,1.63.05.3.12.65.2,1.07a1.81,1.81,0,0,1-.8,1.35,5,5,0,0,1-2-.37,7.59,7.59,0,0,1-2-.8,1.24,1.24,0,0,1-.39-1.22.58.58,0,0,1,.13-.32.63.63,0,0,0,.13-.35c0-1.24-.14-1.85-.41-1.85-.59,0-1.11,1-1.56,3a28.11,28.11,0,0,0-.63,6.14q0,4.93,1.38,5.67c.28.14.65-.34,1.13-1.43a10.1,10.1,0,0,0,.85-3.07,8.48,8.48,0,0,0-1.59-.81c-.62-.26-1-.48-1-.67a1.65,1.65,0,0,1,.26-1.11,2,2,0,0,1,.76-.92,2.76,2.76,0,0,1,1.13-.24,7,7,0,0,0,1.2,0,9.83,9.83,0,0,0,1.43-.44,3.69,3.69,0,0,1,1.22-.31l.29,0a5.32,5.32,0,0,1,1.91,1.18C400.62,737.14,401,737.61,401,737.85Z"/><path d="M417.5,737.85a1.36,1.36,0,0,1-.91,1.32.55.55,0,0,1-.37-.09.82.82,0,0,0-.34-.11.85.85,0,0,0-.33.07,44.67,44.67,0,0,1-1.59,5.21,5.72,5.72,0,0,1-2.7,3.22,2.12,2.12,0,0,1-.91.21A10.19,10.19,0,0,1,408,747c-.47-.12-1.2-.37-2.21-.75a5.27,5.27,0,0,1-2.34-3.36,19.09,19.09,0,0,1-.75-5.69,22.92,22.92,0,0,1,1.19-7.65q1.31-3.66,3.44-4.1a2.54,2.54,0,0,1,.41,0,8.23,8.23,0,0,1,3.18.83,6.15,6.15,0,0,1,2.7,2,5.15,5.15,0,0,1,.75,2.19c.16,1,.25,1.55.29,1.63.05.3.12.65.21,1.07a1.39,1.39,0,0,1-.26.79,1.32,1.32,0,0,1-.55.56,5,5,0,0,1-2-.37,7.46,7.46,0,0,1-2-.8c-.32-.21-.45-.61-.4-1.22a.67.67,0,0,1,.13-.32.66.66,0,0,0,.14-.35c0-1.24-.14-1.85-.42-1.85-.59,0-1.11,1-1.56,3a28.11,28.11,0,0,0-.63,6.14q0,4.93,1.38,5.67c.28.14.66-.34,1.13-1.43a10.1,10.1,0,0,0,.85-3.07,8.48,8.48,0,0,0-1.59-.81c-.62-.26-1-.48-1-.67a1.71,1.71,0,0,1,.26-1.11,2,2,0,0,1,.77-.92,2.68,2.68,0,0,1,1.13-.24,6.85,6.85,0,0,0,1.19,0,9.47,9.47,0,0,0,1.43-.44,3.75,3.75,0,0,1,1.22-.31l.29,0a5.32,5.32,0,0,1,1.91,1.18C417.1,737.14,417.51,737.61,417.5,737.85Z"/><path d="M430.86,743.83a2.32,2.32,0,0,1-.45.95,1.76,1.76,0,0,1-.67.61c-.05,0-.15,0-.28-.09a.73.73,0,0,0-.34-.12.23.23,0,0,0-.11,0,10,10,0,0,0-1.61.62,15,15,0,0,0-3.53,2.26L421,746.92c-1.07-.46-1.61-.81-1.61-1V726.33c0-.12.2-.29.61-.52a1.88,1.88,0,0,1,.9-.31,5.87,5.87,0,0,1,1.25.4,4.33,4.33,0,0,0,1.53.38,4.56,4.56,0,0,0,2-.7c.76-.45,1.24-.64,1.43-.58a6.58,6.58,0,0,1,1.86,1.37,4.6,4.6,0,0,1,1.34,1.65q0,.24-.48.81c-.36.38-.65.57-.88.57a.82.82,0,0,1-.41-.08c-.09-.05-.15-.07-.18-.05a15.2,15.2,0,0,0-1.75.49,7.93,7.93,0,0,0-2.83,1.51v4.24a18.52,18.52,0,0,1,2.37-1c.27,0,.86.35,1.75,1.15s1.34,1.37,1.34,1.68a1.1,1.1,0,0,1-.36.68,1.72,1.72,0,0,1-.71.49l-.91.05a13.48,13.48,0,0,0-3.48,1.67V743c.52-.32,1.23-.68,2.12-1.11a6.41,6.41,0,0,1,1.65-.64,5.38,5.38,0,0,1,1.83,1.14C430.42,743.14,430.9,743.62,430.86,743.83Z"/><path d="M447.21,743.62c.16.3-.15,1-.92,2.17s-1.42,1.72-1.94,1.71a1.56,1.56,0,0,1-1.32-.89,3.38,3.38,0,0,0-.39-.75l-5.49-5.13v4.81a1.79,1.79,0,0,0,.22.73,1.67,1.67,0,0,1,.22.65c0,.52-.33.81-1,.86a7.74,7.74,0,0,1-2.31-.28c-1.11-.25-1.67-.51-1.67-.79a1.18,1.18,0,0,1,.07-.35,2.12,2.12,0,0,0,.06-.56V727.66a.62.62,0,0,0-.08-.33.49.49,0,0,1-.07-.22c0-.47.36-.74,1-.83a4.37,4.37,0,0,1,1.41.25,5.63,5.63,0,0,0,1.58.27,6.49,6.49,0,0,0,1.8-.72,5.47,5.47,0,0,1,2.38-.69,4.63,4.63,0,0,1,.81.08,2.93,2.93,0,0,1,1.32.68c.4.35.78.69,1.15,1,.95.9,1.44,1.38,1.48,1.43a2.87,2.87,0,0,1,.73,1.74q.15,3-5.15,7.75,1.1,1,4.81,4.81a5.5,5.5,0,0,1,.68.31A4.23,4.23,0,0,1,447.21,743.62Zm-5.74-14.53q-1.23,0-4.32,2.54v4a8.72,8.72,0,0,0,2.94-2.68c1.21-1.49,1.82-2.6,1.82-3.32C441.91,729.26,441.76,729.09,441.47,729.09Z"/><path d="M466.58,743.18a4.22,4.22,0,0,1-1.27,3.16,5,5,0,0,1-3.54,1.28,4.62,4.62,0,0,1-1.22-.18c-.8-.22-1.21-.34-1.25-.34l-1.26-.27a2.3,2.3,0,0,1-1.1-.58,4.5,4.5,0,0,1-1.15-2,10,10,0,0,0-.83-2.05,3.6,3.6,0,0,1-.49-.73,1.06,1.06,0,0,1,.14-.77,1,1,0,0,1,.53-.48,2,2,0,0,1,.58-.05,13.53,13.53,0,0,1,2.22.22,3.77,3.77,0,0,1,1.47.4,7.15,7.15,0,0,1,.41,1.87c.16,1,.39,1.62.71,1.75a.56.56,0,0,0,.23,0c.33,0,.61-.28.85-.82a4.78,4.78,0,0,0,.35-1.86,3.11,3.11,0,0,0-1.41-3,16.71,16.71,0,0,1-4.52-3.22,5.33,5.33,0,0,1-1.35-4.06,8.28,8.28,0,0,1,1.41-3.94,4.85,4.85,0,0,1,2.72-2.32c.4-.09,1.61.29,3.64,1.14l1.52.6a3,3,0,0,1,1.24.91,5.18,5.18,0,0,1,.72,3.14c0,.28,0,.69,0,1.23s0,.79,0,1a3.72,3.72,0,0,0,.18.59,1.08,1.08,0,0,1,.11.58c0,.76-.36,1.18-1,1.27a5.19,5.19,0,0,1-1.93-.39,4,4,0,0,1-2-1.07,1.19,1.19,0,0,1-.06-.52c0-.26,0-.85.1-1.77s.09-1.58.09-2c0-.74-.09-1.11-.26-1.09-.54,0-1,.42-1.34,1.16a5.61,5.61,0,0,0-.54,2.51,3.79,3.79,0,0,0,1.38,3.32l3.12,2a6.26,6.26,0,0,1,2.06,1.93A7,7,0,0,1,466.58,743.18Z"/><path d="M473.89,726.67a1.43,1.43,0,0,1-.12.49c-.07.21-.12.34-.14.39a12.35,12.35,0,0,0-.31,1.62v16a1.07,1.07,0,0,0,.15.56.77.77,0,0,1,.16.4c0,1.11-.21,1.71-.62,1.79a7.21,7.21,0,0,1-1.82-.33,7.08,7.08,0,0,1-1.93-.65,1.34,1.34,0,0,1-.57-.91.4.4,0,0,1,.1-.24.69.69,0,0,0,.11-.44V727a.68.68,0,0,0-.09-.32.75.75,0,0,1-.09-.33c0-.41.35-.69,1-.83a5.52,5.52,0,0,1,1.19,0,9.56,9.56,0,0,1,1.88.29C473.51,726,473.89,726.29,473.89,726.67Z"/><path d="M490.45,737.85a1.35,1.35,0,0,1-.91,1.32.53.53,0,0,1-.36-.09.82.82,0,0,0-.34-.11.9.9,0,0,0-.34.07,43.28,43.28,0,0,1-1.58,5.21,5.77,5.77,0,0,1-2.71,3.22,2.09,2.09,0,0,1-.91.21A10.17,10.17,0,0,1,481,747a23.09,23.09,0,0,1-2.21-.75,5.2,5.2,0,0,1-2.34-3.36,18.76,18.76,0,0,1-.76-5.69,22.67,22.67,0,0,1,1.2-7.65q1.31-3.66,3.43-4.1a2.58,2.58,0,0,1,.42,0,8.23,8.23,0,0,1,3.17.83,6.15,6.15,0,0,1,2.7,2,5.15,5.15,0,0,1,.76,2.19c.15,1,.25,1.55.28,1.63.06.3.12.65.21,1.07a1.31,1.31,0,0,1-.26.79,1.27,1.27,0,0,1-.55.56,5,5,0,0,1-2-.37,7.44,7.44,0,0,1-2-.8,1.24,1.24,0,0,1-.39-1.22.58.58,0,0,1,.13-.32.63.63,0,0,0,.13-.35c0-1.24-.14-1.85-.42-1.85-.59,0-1.11,1-1.56,3a28.76,28.76,0,0,0-.62,6.14q0,4.93,1.38,5.67c.27.14.65-.34,1.13-1.43a10.06,10.06,0,0,0,.84-3.07A8,8,0,0,0,482,739c-.63-.26-1-.48-1-.67a1.71,1.71,0,0,1,.26-1.11,2.11,2.11,0,0,1,.77-.92,2.76,2.76,0,0,1,1.13-.24,7,7,0,0,0,1.2,0,9.83,9.83,0,0,0,1.43-.44,3.63,3.63,0,0,1,1.22-.31l.28,0a5.26,5.26,0,0,1,1.92,1.18C490.06,737.14,490.47,737.61,490.45,737.85Z"/><path d="M511,727.45c0-.19,0,1.46,0,5q0,14.8-4.13,15.28a4.26,4.26,0,0,1-1.76-.26l-2-.67c-.58-.14-1.15-.29-1.73-.46a2.84,2.84,0,0,1-1.37-.79q-1.07-1.17-1.71-5.1a51.6,51.6,0,0,1-.57-8,43.53,43.53,0,0,1,.36-6,1.16,1.16,0,0,1,.75-1,5.63,5.63,0,0,1,2,.37,5.14,5.14,0,0,1,2,.8.62.62,0,0,1,.13.42,2.55,2.55,0,0,1-.26.92,2.06,2.06,0,0,0-.23.92,16.77,16.77,0,0,0-.13,2.86,77.16,77.16,0,0,0,.41,8.3q.52,4.79,1.51,4.68c.83-.09,1.46-1.61,1.87-4.55a56.64,56.64,0,0,0,.5-8,23.44,23.44,0,0,0-.18-3.82,1.81,1.81,0,0,0-.11-.86,6.28,6.28,0,0,1-.23-.62,1.17,1.17,0,0,1,.57-1.33.93.93,0,0,1,.44-.08,8.52,8.52,0,0,1,2.19.4,4.39,4.39,0,0,1,1.63.64C511,726.56,511,726.89,511,727.45Z"/><path d="M525.92,734.08a14.88,14.88,0,0,1-1.54,6.16,25,25,0,0,1-3.07,5,8.57,8.57,0,0,1-2.42,2.36,2.42,2.42,0,0,1-.88.16,8.06,8.06,0,0,1-4.55-2V727.06a.87.87,0,0,1,.78-.81s.49,0,1.3.18a5.53,5.53,0,0,0,1.55-.54,5.8,5.8,0,0,1,2.25-.57,4.29,4.29,0,0,1,2.18.6,14.54,14.54,0,0,1,1.79,1.4,7,7,0,0,1,2.27,3.17A13.85,13.85,0,0,1,525.92,734.08Zm-4.32-5a.89.89,0,0,0-.42-.08,6.55,6.55,0,0,0-3.3,1.2v11.7c1.18-.68,2.18-2.33,3-5a20.88,20.88,0,0,0,1.06-6.19C522,729.75,521.84,729.2,521.6,729.06Z"/><path d="M539.54,743.83a2.36,2.36,0,0,1-.46.95,1.68,1.68,0,0,1-.66.61s-.15,0-.29-.09a.7.7,0,0,0-.33-.12.23.23,0,0,0-.11,0,9.68,9.68,0,0,0-1.61.62,15.31,15.31,0,0,0-3.54,2.26l-2.83-1.17c-1.07-.46-1.61-.81-1.61-1V726.33c0-.12.2-.29.61-.52a1.88,1.88,0,0,1,.9-.31,5.85,5.85,0,0,1,1.24.4,4.43,4.43,0,0,0,1.54.38,4.6,4.6,0,0,0,2-.7c.76-.45,1.24-.64,1.43-.58a6.58,6.58,0,0,1,1.86,1.37A4.53,4.53,0,0,1,539,728q.06.24-.48.81t-.87.57a.82.82,0,0,1-.41-.08c-.09-.05-.15-.07-.19-.05a15.6,15.6,0,0,0-1.74.49,7.85,7.85,0,0,0-2.83,1.51v4.24a17.73,17.73,0,0,1,2.36-1c.28,0,.87.35,1.76,1.15s1.34,1.37,1.34,1.68a1.08,1.08,0,0,1-.37.68,1.63,1.63,0,0,1-.7.49l-.91.05a13.32,13.32,0,0,0-3.48,1.67V743a23.88,23.88,0,0,1,2.12-1.11,6.41,6.41,0,0,1,1.65-.64,5.38,5.38,0,0,1,1.83,1.14C539.1,743.14,539.57,743.62,539.54,743.83Z"/><path d="M552.07,726.67a1.43,1.43,0,0,1-.12.49c-.07.21-.12.34-.14.39a12.35,12.35,0,0,0-.31,1.62v16a1.07,1.07,0,0,0,.15.56.77.77,0,0,1,.16.4c0,1.11-.21,1.71-.62,1.79a7.21,7.21,0,0,1-1.82-.33,7.08,7.08,0,0,1-1.93-.65,1.34,1.34,0,0,1-.57-.91.4.4,0,0,1,.1-.24.69.69,0,0,0,.11-.44V727a.68.68,0,0,0-.09-.32.75.75,0,0,1-.09-.33c0-.41.35-.69,1-.83a5.52,5.52,0,0,1,1.19,0,9.56,9.56,0,0,1,1.88.29C551.69,726,552.07,726.29,552.07,726.67Z"/><path d="M572.66,737.35a5.27,5.27,0,0,1,.05.78,8,8,0,0,1-1.84,4.66,17.23,17.23,0,0,1-3.64,3.59c-1.32,1-2.21,1.39-2.68,1.32a10.28,10.28,0,0,1-2.76-1.15,6.41,6.41,0,0,1-2.13-1.45.56.56,0,0,1,0-.23,1.17,1.17,0,0,1,.09-.4,1.24,1.24,0,0,0,.09-.38V727.24c0-.28.38-.41,1.15-.41a3.57,3.57,0,0,1,.91.1,13.7,13.7,0,0,1,3.08-1.39,10.4,10.4,0,0,1,3.18-.61,2.64,2.64,0,0,1,1.21.22,2.06,2.06,0,0,1,.79.77,7.36,7.36,0,0,0,.65.93l.86.7a1.81,1.81,0,0,1,.6.83,2.15,2.15,0,0,1,.1.68q0,2.06-2.73,4.47Q572.38,735.65,572.66,737.35Zm-4.55-8.44c0-.07-.13-.11-.28-.11a5.08,5.08,0,0,0-1.88.62,4.94,4.94,0,0,0-1.71,1.2v2.71a22.81,22.81,0,0,0,2.87-2.71C567.92,729.7,568.25,729.13,568.11,728.91Zm.94,7.69a8.38,8.38,0,0,0-2.29.65,9.34,9.34,0,0,0-2.52,1.38v4.83a8.63,8.63,0,0,0,4.81-6.86Z"/><path d="M587.87,727.45c0-.19,0,1.46,0,5q0,14.8-4.14,15.28a4.22,4.22,0,0,1-1.75-.26l-2-.67c-.57-.14-1.15-.29-1.73-.46a2.81,2.81,0,0,1-1.36-.79q-1.06-1.17-1.72-5.1a51.6,51.6,0,0,1-.57-8,41.88,41.88,0,0,1,.37-6,1.14,1.14,0,0,1,.75-1,5.66,5.66,0,0,1,2,.37,5.23,5.23,0,0,1,2,.8.68.68,0,0,1,.13.42,2.55,2.55,0,0,1-.26.92,2.11,2.11,0,0,0-.24.92,18,18,0,0,0-.13,2.86,74.51,74.51,0,0,0,.42,8.3q.52,4.79,1.51,4.68,1.25-.13,1.87-4.55a56.78,56.78,0,0,0,.49-8,23.44,23.44,0,0,0-.18-3.82,1.81,1.81,0,0,0-.1-.86,5.24,5.24,0,0,1-.24-.62,1.19,1.19,0,0,1,.58-1.33.9.9,0,0,1,.44-.08,8.39,8.39,0,0,1,2.18.4,4.48,4.48,0,0,1,1.64.64A1.69,1.69,0,0,1,587.87,727.45Z"/><path d="M602,743.18a4.23,4.23,0,0,1-1.28,3.16,5,5,0,0,1-3.53,1.28,4.56,4.56,0,0,1-1.22-.18l-1.25-.34-1.26-.27a2.33,2.33,0,0,1-1.11-.58,4.5,4.5,0,0,1-1.14-2,10.69,10.69,0,0,0-.83-2.05,3.55,3.55,0,0,1-.5-.73,1.07,1.07,0,0,1,.15-.77,1,1,0,0,1,.53-.48,1.87,1.87,0,0,1,.57-.05,13.33,13.33,0,0,1,2.22.22,3.64,3.64,0,0,1,1.47.4,6.52,6.52,0,0,1,.42,1.87c.15,1,.39,1.62.7,1.75a.6.6,0,0,0,.24,0c.32,0,.61-.28.84-.82a4.78,4.78,0,0,0,.35-1.86,3.12,3.12,0,0,0-1.4-3,16.79,16.79,0,0,1-4.53-3.22,5.41,5.41,0,0,1-1.35-4.06,8.3,8.3,0,0,1,1.42-3.94,4.83,4.83,0,0,1,2.71-2.32c.4-.09,1.62.29,3.64,1.14l1.53.6a2.92,2.92,0,0,1,1.23.91,5.1,5.1,0,0,1,.73,3.14q0,.42,0,1.23c0,.46,0,.79,0,1a2.88,2.88,0,0,0,.18.59,1.07,1.07,0,0,1,.1.58c0,.76-.35,1.18-1,1.27a5.12,5.12,0,0,1-1.92-.39,4.06,4.06,0,0,1-2-1.07,1.49,1.49,0,0,1-.05-.52q0-.39.09-1.77c.06-.91.09-1.58.09-2,0-.74-.09-1.11-.26-1.09-.54,0-1,.42-1.34,1.16a5.75,5.75,0,0,0-.53,2.51,3.79,3.79,0,0,0,1.38,3.32l3.12,2a6.21,6.21,0,0,1,2,1.93A6.88,6.88,0,0,1,602,743.18Z"/><path d="M618,743.13a5.32,5.32,0,0,1-.89,2.44c-.67,1.25-1.23,1.85-1.66,1.8s-1.62-1.11-3.3-3.1a33,33,0,0,0-3.46-3.8v4.79a1.67,1.67,0,0,0,.16.54,3.4,3.4,0,0,1,.18.58c.08.69-.06,1.14-.44,1.35a1.84,1.84,0,0,1-.86.15,5.84,5.84,0,0,1-2.24-.44c-.81-.33-1.22-.71-1.22-1.14v-19a2.3,2.3,0,0,1,.34-1.11,1.59,1.59,0,0,1,.75-.77l.24,0a6.23,6.23,0,0,1,2.14.57c.93.38,1.44.7,1.52,1a9.36,9.36,0,0,1-.26,1.9,19.66,19.66,0,0,0-.34,3,5.21,5.21,0,0,0,0,.6l4.47-6.86a1.08,1.08,0,0,1,1-.57,4.37,4.37,0,0,1,1.92.83c1,.62,1.44,1.21,1.46,1.77a19.26,19.26,0,0,1-2.08,2.91,53.34,53.34,0,0,0-4.11,5.87l5.25,6a1.56,1.56,0,0,0,.84.33Q618,742.82,618,743.13Z"/><path d="M631.39,743.83a2.32,2.32,0,0,1-.45.95,1.68,1.68,0,0,1-.66.61c-.06,0-.15,0-.29-.09a.73.73,0,0,0-.34-.12.19.19,0,0,0-.1,0,9.36,9.36,0,0,0-1.61.62,15.11,15.11,0,0,0-3.54,2.26l-2.83-1.17c-1.08-.46-1.61-.81-1.61-1V726.33c0-.12.2-.29.61-.52a1.82,1.82,0,0,1,.89-.31,5.7,5.7,0,0,1,1.25.4,4.38,4.38,0,0,0,1.54.38,4.57,4.57,0,0,0,2-.7c.77-.45,1.24-.64,1.43-.58a6.31,6.31,0,0,1,1.86,1.37A4.6,4.6,0,0,1,630.9,728c0,.16-.13.43-.48.81s-.65.57-.87.57a.89.89,0,0,1-.42-.08c-.08-.05-.14-.07-.18-.05a15.6,15.6,0,0,0-1.74.49,7.85,7.85,0,0,0-2.83,1.51v4.24a17.73,17.73,0,0,1,2.36-1c.28,0,.86.35,1.76,1.15s1.33,1.37,1.33,1.68a1.1,1.1,0,0,1-.36.68,1.7,1.7,0,0,1-.7.49l-.91.05a13.32,13.32,0,0,0-3.48,1.67V743a23.47,23.47,0,0,1,2.11-1.11,6.7,6.7,0,0,1,1.65-.64,5.29,5.29,0,0,1,1.84,1.14Q631.45,743.52,631.39,743.83Z"/><path d="M647.75,726.67a1.41,1.41,0,0,1-.11.54,3.75,3.75,0,0,0-.23.71v17.16c0-.06,0,.27.13,1s0,1.32-.31,1.56a3.45,3.45,0,0,1-2.11.21,9.65,9.65,0,0,1-2.16-.5c-1.05-.33-1.63-.67-1.74-1a5.64,5.64,0,0,0-.08-1.11c-1-2.57-2.09-5.39-3.38-8.45v7.69a1.19,1.19,0,0,0,.19.55,4.58,4.58,0,0,1,.23.47,2.28,2.28,0,0,1,.13.78c0,.69-.31,1-.94,1a9.27,9.27,0,0,1-2.57-.52,4.81,4.81,0,0,1-1.77-.8,1,1,0,0,1,0-1.07,2.86,2.86,0,0,0,.31-.8V727.73a2,2,0,0,0-.07-.46.89.89,0,0,1,0-.5,1.46,1.46,0,0,1,1.59-1.25,8.55,8.55,0,0,1,2.08.27,3.78,3.78,0,0,1,1.92.88c.48.52,1.12,2.1,1.9,4.76A54.62,54.62,0,0,0,643,738V727.81a2.25,2.25,0,0,0-.1-.58,2.42,2.42,0,0,1-.11-.59.64.64,0,0,1,.06-.28c.08-.3.41-.51,1-.65a3.75,3.75,0,0,1,1.31-.13,8.25,8.25,0,0,1,1.43.28C647.32,726.11,647.73,726.37,647.75,726.67Z"/><path d="M666.42,738.79a2.31,2.31,0,0,1-.86.1,3.63,3.63,0,0,1-.77-.16,4,4,0,0,0-1-.15h-4a1.27,1.27,0,0,0-.68.27,1.12,1.12,0,0,1-.67.25,1.09,1.09,0,0,1-.84-.59c-.2-.35-.4-.7-.59-1s-.39-.5-.59-.77a1.22,1.22,0,0,1-.3-.64,1.36,1.36,0,0,1,1-1.32c.33,0,.88,0,1.66,0l1.95-.13c1.39-.08,2.49-.12,3.31-.12a4.17,4.17,0,0,1,1.69.18,3.17,3.17,0,0,1,.83,1.5,6.4,6.4,0,0,1,.31,1.8A.81.81,0,0,1,666.42,738.79Z"/><path d="M159.56,765.28a14.88,14.88,0,0,1-1.54,6.16,25,25,0,0,1-3.07,5,8.71,8.71,0,0,1-2.41,2.36,2.28,2.28,0,0,1-.89.16,6,6,0,0,1-2.6-.73,6.28,6.28,0,0,1-2-1.3V758.26a.87.87,0,0,1,.78-.81c.05,0,.49,0,1.3.18a5.53,5.53,0,0,0,1.55-.54,5.8,5.8,0,0,1,2.25-.57,4.29,4.29,0,0,1,2.18.6,15.23,15.23,0,0,1,1.8,1.4,7.08,7.08,0,0,1,2.26,3.17A13.85,13.85,0,0,1,159.56,765.28Zm-4.32-5a.89.89,0,0,0-.42-.08,6.58,6.58,0,0,0-3.3,1.2v11.7c1.18-.68,2.19-2.33,3-5a20.88,20.88,0,0,0,1.06-6.19C155.6,761,155.48,760.4,155.24,760.26Z"/><path d="M173.18,775a2.23,2.23,0,0,1-.46,1,1.68,1.68,0,0,1-.66.61c-.05,0-.15,0-.28-.09a.77.77,0,0,0-.34-.12.23.23,0,0,0-.11,0,10,10,0,0,0-1.61.62,15,15,0,0,0-3.53,2.26l-2.84-1.17c-1.07-.46-1.61-.81-1.61-1V757.53c0-.12.2-.29.61-.52a1.88,1.88,0,0,1,.9-.31,5.87,5.87,0,0,1,1.25.4,4.33,4.33,0,0,0,1.53.38,4.44,4.44,0,0,0,2-.7c.76-.45,1.24-.64,1.43-.57a6.28,6.28,0,0,1,1.86,1.36,4.6,4.6,0,0,1,1.34,1.65q0,.24-.48.81c-.36.38-.65.57-.88.57a.82.82,0,0,1-.41-.08c-.09,0-.15-.07-.18,0A15.2,15.2,0,0,0,169,761a7.93,7.93,0,0,0-2.83,1.51v4.24a17.94,17.94,0,0,1,2.37-1c.27,0,.86.35,1.75,1.15s1.34,1.37,1.34,1.68a1.1,1.1,0,0,1-.36.68,1.72,1.72,0,0,1-.71.49l-.91,0a13.48,13.48,0,0,0-3.48,1.67v2.73c.52-.32,1.23-.68,2.12-1.11a6.2,6.2,0,0,1,1.65-.63,5.27,5.27,0,0,1,1.83,1.13C172.74,774.34,173.21,774.82,173.18,775Z"/><path d="M187,761a1.6,1.6,0,0,1-.58-.17,1,1,0,0,0-.59-.12l-2.68.73v13.68a4.39,4.39,0,0,0,.36,1.64,1.88,1.88,0,0,1-.05,1,1.51,1.51,0,0,1-.49,1,1.18,1.18,0,0,1-.26,0,11.59,11.59,0,0,1-2.39-.34,4.67,4.67,0,0,1-2-.75,1.11,1.11,0,0,1,0-1.25,2.54,2.54,0,0,0,.34-1V762.58l-1.84.46a1.55,1.55,0,0,0-.43.22.7.7,0,0,1-.51.15c-.4-.11-.95-.62-1.64-1.55s-1-1.56-.91-1.89a1.69,1.69,0,0,1,1.22-.9,1.48,1.48,0,0,1,.68,0,2.31,2.31,0,0,0,.65,0l9.05-2.32a5.27,5.27,0,0,0,.75-.31,1.42,1.42,0,0,1,.75-.13,1.22,1.22,0,0,1,1,.58,4.78,4.78,0,0,1,.39,1.17,6.87,6.87,0,0,1,.26,1.76,2,2,0,0,1-.14.87C187.87,760.86,187.56,761,187,761Z"/><path d="M218.55,777.6c-.12.75-.33,1.16-.62,1.23a5.82,5.82,0,0,1-2.4-.34c-1.24-.35-2-.7-2.13-1a1,1,0,0,1-.08-.39,2.58,2.58,0,0,1,.07-.51,3.56,3.56,0,0,0,.06-.59v-11.8q-1.22,2.4-3.19,10.76a.88.88,0,0,0,0,.24,6.05,6.05,0,0,0,.09.83,6.53,6.53,0,0,1,.09.73,6.86,6.86,0,0,1-.08,1,.75.75,0,0,1-.54.62,3.74,3.74,0,0,1-.91.08c-2.26,0-3.81-.39-4.66-1.17a.71.71,0,0,1-.15-.65,2.93,2.93,0,0,0,0-.75c-.64-2-1.22-3.71-1.72-5.2a58,58,0,0,0-2.36-6.37v10.35a3,3,0,0,0,.2.93,6.84,6.84,0,0,1,.29.91,4.51,4.51,0,0,1,.05,1.25c0,.59-.15,1-.36,1.09a1.19,1.19,0,0,1-.6.11,9.83,9.83,0,0,1-2.29-.34,3.38,3.38,0,0,1-1.69-.7.75.75,0,0,1-.13-.45,2.64,2.64,0,0,1,.09-.52,2.5,2.5,0,0,0,.09-.57V758a1.41,1.41,0,0,1,.26-.72,1.35,1.35,0,0,1,.6-.53,10.17,10.17,0,0,1,3.41.62q3.09.81,3.27,1.41a1.35,1.35,0,0,1,0,.62c-.05.36-.08.58-.08.65a1.08,1.08,0,0,0,.08.42l3.51,9.44q.74-2.33,2.65-9.39c.64-2.41,1.16-3.67,1.56-3.77a1.34,1.34,0,0,1,.42-.05,7.41,7.41,0,0,1,1.48.23,9.39,9.39,0,0,0,1.59.31c1.37.12,2.15.2,2.36.24.82.15,1.28.44,1.38.86a1.58,1.58,0,0,1,.05.38,2.93,2.93,0,0,1-.13.75,3.38,3.38,0,0,0-.13.71V776a1.66,1.66,0,0,0,.33.78A1.32,1.32,0,0,1,218.55,777.6Z"/><path d="M233,776.72a6.09,6.09,0,0,1-.23,1.45,1,1,0,0,1-.39.06,6.16,6.16,0,0,1-1.69-.31,3.63,3.63,0,0,1-1.49-.81,3.07,3.07,0,0,1-.34-1.25,16.45,16.45,0,0,0-.51-2.31,15.88,15.88,0,0,0-2.31.57,8.72,8.72,0,0,0-2,.78c-.21.59-.49,1.32-.84,2.21,0,.19-.1.37-.14.55a.64.64,0,0,1-.35.41.48.48,0,0,1-.18,0,4.86,4.86,0,0,1-1.68-.51,3.83,3.83,0,0,1-1.21-.66,3.39,3.39,0,0,1,.39-1.46c.43-1.11.69-1.78.76-2a1.34,1.34,0,0,1-.42-1.09c0-.17.48-.48,1.27-.91l2.68-9.18v-1.14c0-.38.22-.57.65-.57a11.6,11.6,0,0,1,2.78.5,5.86,5.86,0,0,1,2.19.9,65.22,65.22,0,0,0,.93,6.92A32.14,32.14,0,0,0,233,776.72Zm-4.29-17.81a2.56,2.56,0,0,1-2.21,1.14,2,2,0,0,1-1.4-.52,2.13,2.13,0,0,1-.73-1.69,2.73,2.73,0,0,1,.54-1.63,2.53,2.53,0,0,1,2.16-1.12,2.07,2.07,0,0,1,1.41.52,2.17,2.17,0,0,1,.78,1.69A2.72,2.72,0,0,1,228.69,758.91Zm-1.15,11.49c-.2-1.09-.32-1.66-.33-1.72-.14-.93-.24-1.89-.29-2.88q-.39,1-1,2.85a17.31,17.31,0,0,0-.65,2.35C225.49,770.91,226.25,770.71,227.54,770.4Zm-.46-13.7a1.29,1.29,0,0,0-1.2,1.18c0,.44.24.66.7.66a1.13,1.13,0,0,0,.81-.38,1.15,1.15,0,0,0,.39-.82C227.78,756.91,227.54,756.7,227.08,756.7Z"/><path d="M253.62,765.28a14.86,14.86,0,0,1-1.53,6.16,25.43,25.43,0,0,1-3.07,5,8.7,8.7,0,0,1-2.42,2.36,2.23,2.23,0,0,1-.88.16,8.06,8.06,0,0,1-4.55-2V758.26a.87.87,0,0,1,.78-.81c.05,0,.48,0,1.3.18a5.64,5.64,0,0,0,1.55-.54,5.8,5.8,0,0,1,2.24-.57,4.3,4.3,0,0,1,2.19.6,14.54,14.54,0,0,1,1.79,1.4,7.11,7.11,0,0,1,2.27,3.17A14,14,0,0,1,253.62,765.28Zm-4.31-5a.89.89,0,0,0-.42-.08,6.55,6.55,0,0,0-3.3,1.2v11.7c1.18-.68,2.18-2.33,3-5a20.6,20.6,0,0,0,1.07-6.19C249.67,761,249.55,760.4,249.31,760.26Z"/><path d="M268.91,758.65c0-.19,0,1.46,0,5q0,14.82-4.14,15.28a4.06,4.06,0,0,1-1.75-.26l-2-.67c-.57-.14-1.15-.29-1.73-.46a2.81,2.81,0,0,1-1.36-.79q-1.06-1.17-1.72-5.1a51.6,51.6,0,0,1-.57-8,41.88,41.88,0,0,1,.37-6,1.14,1.14,0,0,1,.75-1,5.66,5.66,0,0,1,2,.37,5.23,5.23,0,0,1,2,.8.68.68,0,0,1,.13.42,2.55,2.55,0,0,1-.26.92,2.11,2.11,0,0,0-.24.92,18,18,0,0,0-.13,2.86,74.51,74.51,0,0,0,.42,8.3q.52,4.78,1.51,4.68,1.24-.14,1.87-4.55a56.78,56.78,0,0,0,.49-8,23.44,23.44,0,0,0-.18-3.82,1.81,1.81,0,0,0-.1-.86A5.24,5.24,0,0,1,264,758a1.19,1.19,0,0,1,.58-1.33.9.9,0,0,1,.44-.08,8.39,8.39,0,0,1,2.18.4,4.68,4.68,0,0,1,1.64.64A1.69,1.69,0,0,1,268.91,758.65Z"/><path d="M289.84,768.55a5.27,5.27,0,0,1,.05.78,8,8,0,0,1-1.84,4.66,17.47,17.47,0,0,1-3.64,3.59c-1.32.95-2.21,1.39-2.68,1.32a10.28,10.28,0,0,1-2.76-1.15,6.29,6.29,0,0,1-2.13-1.45.56.56,0,0,1,0-.23,1.17,1.17,0,0,1,.09-.4,1.24,1.24,0,0,0,.09-.38V758.44c0-.28.38-.41,1.14-.41a3.52,3.52,0,0,1,.91.1,14,14,0,0,1,3.09-1.39,10.34,10.34,0,0,1,3.18-.61,2.67,2.67,0,0,1,1.21.22,2.13,2.13,0,0,1,.79.77,6.41,6.41,0,0,0,.65.93l.86.7a1.81,1.81,0,0,1,.6.83,2.15,2.15,0,0,1,.1.68q0,2.06-2.73,4.47Q289.56,766.85,289.84,768.55Zm-4.55-8.44c0-.07-.13-.11-.29-.11a5.1,5.1,0,0,0-1.87.62,4.94,4.94,0,0,0-1.71,1.2v2.71a22.81,22.81,0,0,0,2.87-2.71C285.1,760.9,285.43,760.33,285.29,760.11Zm.94,7.69a8.77,8.77,0,0,0-2.29.65,9.34,9.34,0,0,0-2.52,1.38v4.84a6.62,6.62,0,0,0,3.33-2.87A6.48,6.48,0,0,0,286.23,767.8Z"/><path d="M307.26,776.85c0,.15-.05.53-.1,1.12a1.29,1.29,0,0,1-.21.7,1,1,0,0,1-.44.08,6.66,6.66,0,0,1-2.14-.45,4,4,0,0,1-1.87-1,4.08,4.08,0,0,1-.41-1.56,21.25,21.25,0,0,0-.65-2.89,20,20,0,0,0-2.89.72,11,11,0,0,0-2.47,1c-.26.75-.61,1.66-1,2.76-.05.24-.11.47-.17.69a.91.91,0,0,1-.45.53.51.51,0,0,1-.24.05,6.32,6.32,0,0,1-2.09-.65c-1-.43-1.49-.72-1.52-.86a3.92,3.92,0,0,1,.49-1.79q.84-2.09,1-2.55a1.58,1.58,0,0,1-.54-1.09c0-.09,0-.18,0-.29s.57-.58,1.59-1.11l3.35-11.47a4.24,4.24,0,0,0,0-1.15c0-.46,0-.76.16-.88s.29-.13.62-.13a14,14,0,0,1,3.48.63,6.87,6.87,0,0,1,2.71,1.11,77.87,77.87,0,0,0,1.17,8.66Q305.9,774.15,307.26,776.85Zm-6.79-7.9c-.22-1.1-.36-1.82-.41-2.16a34.28,34.28,0,0,1-.39-3.62c-.35.85-.76,2-1.22,3.54a18.77,18.77,0,0,0-.81,3A23.36,23.36,0,0,1,300.47,769Z"/><path d="M323.85,774.82c.15.3-.15,1-.93,2.17s-1.41,1.72-1.93,1.71a1.57,1.57,0,0,1-1.33-.89,3.38,3.38,0,0,0-.39-.75l-5.48-5.13v4.82a1.64,1.64,0,0,0,.22.72,1.86,1.86,0,0,1,.22.65c0,.52-.34.81-1,.86a7.74,7.74,0,0,1-2.31-.28c-1.11-.25-1.66-.51-1.66-.78a1.48,1.48,0,0,1,.06-.36,2.07,2.07,0,0,0,.07-.56V758.86a.73.73,0,0,0-.08-.33.54.54,0,0,1-.08-.22c0-.47.36-.74,1-.83a4.42,4.42,0,0,1,1.42.25,5.58,5.58,0,0,0,1.57.27,6.51,6.51,0,0,0,1.81-.72,5.57,5.57,0,0,1,2.38-.69,4.52,4.52,0,0,1,.8.08,3,3,0,0,1,1.33.68c.4.35.78.69,1.14,1,1,.9,1.45,1.38,1.48,1.43a2.82,2.82,0,0,1,.73,1.74q.16,3-5.15,7.75,1.1,1,4.81,4.81a4.93,4.93,0,0,1,1.28.7Zm-5.75-14.53q-1.22,0-4.31,2.54v4a8.81,8.81,0,0,0,2.93-2.68c1.22-1.49,1.82-2.59,1.82-3.32C318.54,760.46,318.4,760.29,318.1,760.29Z"/><path d="M337.34,775a2.32,2.32,0,0,1-.45,1,1.76,1.76,0,0,1-.67.61c-.05,0-.14,0-.28-.09a.73.73,0,0,0-.34-.12.17.17,0,0,0-.1,0,9.78,9.78,0,0,0-1.62.62,15,15,0,0,0-3.53,2.26l-2.84-1.17c-1.07-.46-1.61-.81-1.61-1V757.53c0-.12.2-.29.61-.52a1.88,1.88,0,0,1,.9-.31,5.87,5.87,0,0,1,1.25.4,4.33,4.33,0,0,0,1.53.38,4.44,4.44,0,0,0,2-.7c.76-.45,1.24-.64,1.43-.57a6.16,6.16,0,0,1,1.86,1.36,4.6,4.6,0,0,1,1.34,1.65q0,.24-.48.81t-.87.57a.86.86,0,0,1-.42-.08c-.09,0-.15-.07-.18,0a14.47,14.47,0,0,0-1.74.49,7.9,7.9,0,0,0-2.84,1.51v4.24a18.52,18.52,0,0,1,2.37-1c.27,0,.86.35,1.75,1.15s1.34,1.37,1.34,1.68a1.1,1.1,0,0,1-.36.68,1.72,1.72,0,0,1-.71.49l-.91,0a13.63,13.63,0,0,0-3.48,1.67v2.73c.52-.32,1.23-.68,2.12-1.11a6.2,6.2,0,0,1,1.65-.63,5.27,5.27,0,0,1,1.83,1.13C336.9,774.34,337.38,774.82,337.34,775Z"/><path d="M359.47,768.09a1.58,1.58,0,0,1-.61.89c-.39.36-.68.54-.85.54a3.12,3.12,0,0,0-.44,0v6.55a7.53,7.53,0,0,1,.26,1q.24,1.66-.39,2a1.27,1.27,0,0,1-.39,0,6,6,0,0,1-2.34-.65,3.71,3.71,0,0,1-1.87-1.35c0-.16,0-.39-.08-.7,0-.13,0-.29.18-.5a1.17,1.17,0,0,0,.24-.39v-5.25a17.51,17.51,0,0,0-1.95.39,16.05,16.05,0,0,0-1.93.52v5.28a.85.85,0,0,0,.17.43,1.38,1.38,0,0,1,.2.37c-.07.28-.13.55-.19.81a.47.47,0,0,1-.28.36,5.15,5.15,0,0,1-2.33-.48c-1.27-.42-1.95-.77-2-1a1.85,1.85,0,0,1-.06-.63,4.66,4.66,0,0,0,.08-.73V758.88a7.42,7.42,0,0,1,.24-1.43c0-.17.32-.41.88-.73a1.33,1.33,0,0,1,.29,0,7.1,7.1,0,0,1,2,.31c.92.28,1.41.64,1.46,1.09a2.46,2.46,0,0,1-.22.89,2.93,2.93,0,0,0-.25.88v6.34c1.18-.29,2.47-.59,3.88-.91v-7.25a2.66,2.66,0,0,0-.12-.39,1,1,0,0,1-.07-.54c.09-.32.38-.52.86-.6s.73-.1,1.09-.13a3.76,3.76,0,0,1,1.68.33c.74.28,1.15.58,1.24.89a.88.88,0,0,1-.11.55,2,2,0,0,0-.18.72v7.18c.09.1.49.48,1.22,1.12C359.26,767.59,359.48,767.9,359.47,768.09Z"/><path d="M376.45,776.85c0,.15-.06.53-.11,1.12a1.29,1.29,0,0,1-.21.7.9.9,0,0,1-.44.08,6.66,6.66,0,0,1-2.13-.45,4,4,0,0,1-1.87-1,4.21,4.21,0,0,1-.42-1.56,21.25,21.25,0,0,0-.65-2.89,19.66,19.66,0,0,0-2.88.72,11.19,11.19,0,0,0-2.48,1c-.26.75-.6,1.66-1,2.76-.05.24-.1.47-.16.69a.93.93,0,0,1-.46.53.46.46,0,0,1-.23.05,6.29,6.29,0,0,1-2.1-.65c-1-.43-1.48-.72-1.52-.86a4,4,0,0,1,.5-1.79q.83-2.09,1-2.55a1.55,1.55,0,0,1-.55-1.09,1.59,1.59,0,0,1,0-.29c0-.2.56-.58,1.59-1.11l3.35-11.47a4.71,4.71,0,0,0,0-1.15c0-.46,0-.76.15-.88a1,1,0,0,1,.62-.13,14.11,14.11,0,0,1,3.49.63,6.73,6.73,0,0,1,2.7,1.11,83,83,0,0,0,1.17,8.66Q375.1,774.15,376.45,776.85Zm-6.79-7.9q-.35-1.65-.42-2.16a34.28,34.28,0,0,1-.39-3.62c-.34.85-.75,2-1.22,3.54a19.47,19.47,0,0,0-.8,3A22.8,22.8,0,0,1,369.66,769Z"/><path d="M390.17,758.39a88.67,88.67,0,0,0-3.06,10.5,57.38,57.38,0,0,0-1.54,7.23,9.53,9.53,0,0,0,.05,1.2,2,2,0,0,1-.18,1.09c-.17.42-.41.65-.7.7a7.78,7.78,0,0,1-3-.57c-1.52-.49-2.39-.91-2.61-1.28a1.3,1.3,0,0,1-.18-.67,4.33,4.33,0,0,0-.08-.7,76.58,76.58,0,0,1-3.56-16.82,2.9,2.9,0,0,0-.13-.55,1.59,1.59,0,0,1-.06-.55,1.21,1.21,0,0,1,.76-1.11,6.3,6.3,0,0,1,2.18.49c1.32.41,2.05.77,2.18,1.07a2.66,2.66,0,0,1,0,1.09,1.36,1.36,0,0,1-.18.45,1,1,0,0,0-.13.51c.26,1.82.51,3.42.73,4.81a32.8,32.8,0,0,0,1.3,5.93q.45-2.43,1.56-6.19a56.16,56.16,0,0,0,1.56-6.29,7.75,7.75,0,0,1,.24-1.33,1.44,1.44,0,0,1,.85-.81,4.35,4.35,0,0,1,1.95.45A4.1,4.1,0,0,1,390.17,758.39Z"/><path d="M403.64,775a2.32,2.32,0,0,1-.45,1,1.76,1.76,0,0,1-.67.61s-.14,0-.28-.09a.73.73,0,0,0-.34-.12.23.23,0,0,0-.11,0,10,10,0,0,0-1.61.62,15,15,0,0,0-3.53,2.26l-2.84-1.17c-1.07-.46-1.61-.81-1.61-1V757.53c0-.12.2-.29.61-.52a1.88,1.88,0,0,1,.9-.31,5.87,5.87,0,0,1,1.25.4,4.33,4.33,0,0,0,1.53.38,4.44,4.44,0,0,0,2-.7c.76-.45,1.24-.64,1.43-.57a6.16,6.16,0,0,1,1.86,1.36,4.6,4.6,0,0,1,1.34,1.65q0,.24-.48.81c-.36.38-.65.57-.88.57a.82.82,0,0,1-.41-.08c-.09,0-.15-.07-.18,0a14.47,14.47,0,0,0-1.74.49,7.9,7.9,0,0,0-2.84,1.51v4.24a18.52,18.52,0,0,1,2.37-1c.27,0,.86.35,1.75,1.15s1.34,1.37,1.34,1.68a1.1,1.1,0,0,1-.36.68,1.72,1.72,0,0,1-.71.49l-.91,0a13.63,13.63,0,0,0-3.48,1.67v2.73c.52-.32,1.23-.68,2.12-1.11a6.2,6.2,0,0,1,1.65-.63,5.27,5.27,0,0,1,1.83,1.13C403.2,774.34,403.68,774.82,403.64,775Z"/><path d="M422.62,775a2.32,2.32,0,0,1-.45,1,1.76,1.76,0,0,1-.67.61c-.05,0-.15,0-.28-.09a.77.77,0,0,0-.34-.12.23.23,0,0,0-.11,0,10,10,0,0,0-1.61.62,15,15,0,0,0-3.53,2.26l-2.84-1.17c-1.07-.46-1.61-.81-1.61-1V757.53c0-.12.2-.29.61-.52a1.88,1.88,0,0,1,.9-.31,5.87,5.87,0,0,1,1.25.4,4.33,4.33,0,0,0,1.53.38,4.44,4.44,0,0,0,2-.7c.76-.45,1.24-.64,1.43-.57a6.28,6.28,0,0,1,1.86,1.36,4.6,4.6,0,0,1,1.34,1.65q0,.24-.48.81c-.36.38-.65.57-.88.57a.82.82,0,0,1-.41-.08c-.09,0-.15-.07-.18,0a15.2,15.2,0,0,0-1.75.49,7.93,7.93,0,0,0-2.83,1.51v4.24a18.52,18.52,0,0,1,2.37-1c.27,0,.86.35,1.75,1.15s1.34,1.37,1.34,1.68a1.1,1.1,0,0,1-.36.68,1.72,1.72,0,0,1-.71.49l-.91,0a13.48,13.48,0,0,0-3.48,1.67v2.73c.52-.32,1.23-.68,2.12-1.11a6.2,6.2,0,0,1,1.65-.63,5.27,5.27,0,0,1,1.83,1.13C422.18,774.34,422.66,774.82,422.62,775Z"/><path d="M436.48,761a1.51,1.51,0,0,1-.57-.17,1.06,1.06,0,0,0-.6-.12l-2.68.73v13.68a4.23,4.23,0,0,0,.37,1.64,2,2,0,0,1-.06,1,1.51,1.51,0,0,1-.49,1,1.18,1.18,0,0,1-.26,0,11.59,11.59,0,0,1-2.39-.34,4.67,4.67,0,0,1-2-.75,1.15,1.15,0,0,1,0-1.25,2.54,2.54,0,0,0,.34-1V762.58l-1.84.46a1.55,1.55,0,0,0-.43.22.7.7,0,0,1-.51.15c-.4-.11-.94-.62-1.64-1.55s-1-1.56-.91-1.89a1.69,1.69,0,0,1,1.22-.9,1.48,1.48,0,0,1,.68,0,2.31,2.31,0,0,0,.65,0l9-2.32a4.42,4.42,0,0,0,.75-.31,1.44,1.44,0,0,1,.76-.13,1.22,1.22,0,0,1,1,.58,4.3,4.3,0,0,1,.4,1.17,7.27,7.27,0,0,1,.25,1.76,2,2,0,0,1-.14.87C437.31,760.86,437,761,436.48,761Z"/><path d="M457.82,768.55a5.32,5.32,0,0,1,.06.78A8,8,0,0,1,456,774a17.23,17.23,0,0,1-3.64,3.59c-1.32.95-2.21,1.39-2.68,1.32a10.13,10.13,0,0,1-2.75-1.15,6.39,6.39,0,0,1-2.14-1.45.56.56,0,0,1-.05-.23,1.17,1.17,0,0,1,.09-.4,1.24,1.24,0,0,0,.09-.38V758.44c0-.28.38-.41,1.15-.41a3.57,3.57,0,0,1,.91.1,13.7,13.7,0,0,1,3.08-1.39,10.4,10.4,0,0,1,3.18-.61,2.64,2.64,0,0,1,1.21.22,2.23,2.23,0,0,1,.8.77,5.67,5.67,0,0,0,.65.93s.32.27.85.7a1.74,1.74,0,0,1,.6.83,2.15,2.15,0,0,1,.11.68q0,2.06-2.73,4.47Q457.54,766.85,457.82,768.55Zm-4.55-8.44c0-.07-.13-.11-.28-.11a7.06,7.06,0,0,0-3.59,1.82v2.71a22.14,22.14,0,0,0,2.87-2.71C453.08,760.9,453.41,760.33,453.27,760.11Zm.94,7.69a8.87,8.87,0,0,0-2.29.65,9.34,9.34,0,0,0-2.52,1.38v4.84a8.67,8.67,0,0,0,4.81-6.87Z"/><path d="M465.1,757.87a1.63,1.63,0,0,1-.11.49l-.15.39a14.31,14.31,0,0,0-.31,1.62v16a1,1,0,0,0,.16.56.83.83,0,0,1,.15.4c0,1.11-.2,1.71-.62,1.79a7.28,7.28,0,0,1-1.82-.33,6.81,6.81,0,0,1-1.92-.65,1.33,1.33,0,0,1-.58-.91A.42.42,0,0,1,460,777a.69.69,0,0,0,.1-.44V758.18a.68.68,0,0,0-.09-.32.75.75,0,0,1-.09-.33c0-.41.36-.69,1-.83a5.6,5.6,0,0,1,1.2,0A9.44,9.44,0,0,1,464,757C464.72,757.19,465.1,757.49,465.1,757.87Z"/><path d="M479.27,774.87a2,2,0,0,1-1,1.49,1.13,1.13,0,0,1-.56,0,1,1,0,0,0-.51,0L473.37,778a1,1,0,0,0-.38.44c-.13.24-.25.38-.37.42a4.72,4.72,0,0,1-2.42-.39,5.08,5.08,0,0,1-2.24-1.12,1.93,1.93,0,0,1-.18-1.3,4.53,4.53,0,0,0,.05-.65V758a1,1,0,0,0-.2-.45.49.49,0,0,1-.16-.31c0-.33.34-.57.91-.73a6.35,6.35,0,0,1,2.37.4c1.36.39,2.06.86,2.08,1.4a1.3,1.3,0,0,1-.29.62,1.36,1.36,0,0,0-.29.63v14.37l2.71-1.17a3.36,3.36,0,0,1,.88-.46c.24,0,.89.33,2,1.1S479.34,774.63,479.27,774.87Z"/><path d="M491.75,774.87c-.21.82-.53,1.31-1,1.49a1.08,1.08,0,0,1-.55,0,1,1,0,0,0-.51,0L485.85,778a1,1,0,0,0-.38.44c-.13.24-.25.38-.37.42a4.72,4.72,0,0,1-2.42-.39,5.08,5.08,0,0,1-2.24-1.12,1.93,1.93,0,0,1-.18-1.3,4.53,4.53,0,0,0,.05-.65V758a1,1,0,0,0-.2-.45.49.49,0,0,1-.16-.31c0-.33.34-.57.91-.73a6.29,6.29,0,0,1,2.36.4c1.37.39,2.07.86,2.08,1.4a1.25,1.25,0,0,1-.28.62,1.36,1.36,0,0,0-.29.63v14.37l2.71-1.17a3.36,3.36,0,0,1,.88-.46c.24,0,.89.33,1.95,1.1S491.82,774.63,491.75,774.87Z"/><path d="M504.23,775a2.32,2.32,0,0,1-.45,1,1.68,1.68,0,0,1-.66.61c-.06,0-.15,0-.29-.09a.73.73,0,0,0-.34-.12.19.19,0,0,0-.1,0,9.36,9.36,0,0,0-1.61.62,14.9,14.9,0,0,0-3.54,2.26l-2.83-1.17c-1.08-.46-1.62-.81-1.62-1V757.53c0-.12.21-.29.61-.52a1.88,1.88,0,0,1,.9-.31,5.7,5.7,0,0,1,1.25.4,4.33,4.33,0,0,0,1.53.38,4.44,4.44,0,0,0,2-.7c.76-.45,1.24-.64,1.43-.57a6,6,0,0,1,1.86,1.36,4.6,4.6,0,0,1,1.34,1.65q0,.24-.48.81t-.87.57a.89.89,0,0,1-.42-.08c-.09,0-.15-.07-.18,0a15,15,0,0,0-1.74.49,7.9,7.9,0,0,0-2.84,1.51v4.24a18.52,18.52,0,0,1,2.37-1c.28,0,.86.35,1.75,1.15s1.34,1.37,1.34,1.68a1.1,1.1,0,0,1-.36.68,1.7,1.7,0,0,1-.7.49l-.91,0a13.49,13.49,0,0,0-3.49,1.67v2.73c.52-.32,1.23-.68,2.12-1.11a6.34,6.34,0,0,1,1.65-.63,5.18,5.18,0,0,1,1.84,1.13Q504.29,774.72,504.23,775Z"/><path d="M518.56,765.28a14.73,14.73,0,0,1-1.54,6.16,24.92,24.92,0,0,1-3.06,5,8.84,8.84,0,0,1-2.42,2.36,2.28,2.28,0,0,1-.89.16,6,6,0,0,1-2.6-.73,6.28,6.28,0,0,1-1.95-1.3V758.26a.88.88,0,0,1,.78-.81,13,13,0,0,1,1.3.18,5.43,5.43,0,0,0,1.55-.54,5.88,5.88,0,0,1,2.25-.57,4.29,4.29,0,0,1,2.18.6,15.23,15.23,0,0,1,1.8,1.4,7.08,7.08,0,0,1,2.26,3.17A13.42,13.42,0,0,1,518.56,765.28Zm-4.32-5a.82.82,0,0,0-.41-.08,6.61,6.61,0,0,0-3.31,1.2v11.7c1.18-.68,2.19-2.33,3-5a20.92,20.92,0,0,0,1.07-6.19C514.61,761,514.48,760.4,514.24,760.26Z"/><path d="M532.18,775a2.32,2.32,0,0,1-.45,1,1.69,1.69,0,0,1-.67.61s-.14,0-.28-.09a.73.73,0,0,0-.34-.12.19.19,0,0,0-.1,0,9.78,9.78,0,0,0-1.62.62,15,15,0,0,0-3.53,2.26l-2.84-1.17c-1.07-.46-1.61-.81-1.61-1V757.53c0-.12.21-.29.61-.52a1.88,1.88,0,0,1,.9-.31,5.7,5.7,0,0,1,1.25.4,4.33,4.33,0,0,0,1.53.38,4.44,4.44,0,0,0,2-.7c.76-.45,1.24-.64,1.43-.57a6,6,0,0,1,1.86,1.36,4.6,4.6,0,0,1,1.34,1.65q0,.24-.48.81t-.87.57a.89.89,0,0,1-.42-.08c-.09,0-.15-.07-.18,0A15,15,0,0,0,528,761a7.9,7.9,0,0,0-2.84,1.51v4.24a18.52,18.52,0,0,1,2.37-1c.28,0,.86.35,1.75,1.15s1.34,1.37,1.34,1.68a1.1,1.1,0,0,1-.36.68,1.7,1.7,0,0,1-.7.49l-.91,0a13.49,13.49,0,0,0-3.49,1.67v2.73c.52-.32,1.23-.68,2.12-1.11a6.2,6.2,0,0,1,1.65-.63,5.18,5.18,0,0,1,1.84,1.13Q532.24,774.72,532.18,775Z"/><path d="M555.69,776.85c0,.15-.06.53-.11,1.12a1.21,1.21,0,0,1-.21.7.9.9,0,0,1-.44.08,6.66,6.66,0,0,1-2.13-.45,4,4,0,0,1-1.87-1,4.21,4.21,0,0,1-.42-1.56,21.25,21.25,0,0,0-.65-2.89,19.66,19.66,0,0,0-2.88.72,10.83,10.83,0,0,0-2.47,1c-.26.75-.61,1.66-1,2.76-.06.24-.11.47-.17.69a.93.93,0,0,1-.46.53.46.46,0,0,1-.23.05,6.19,6.19,0,0,1-2.09-.65c-1-.43-1.49-.72-1.53-.86a4,4,0,0,1,.5-1.79q.82-2.09,1-2.55a1.37,1.37,0,0,1-.52-1.38c0-.2.56-.58,1.59-1.11l3.35-11.47a4.71,4.71,0,0,0,0-1.15c0-.46,0-.76.15-.88a1,1,0,0,1,.63-.13,14.12,14.12,0,0,1,3.48.63,6.73,6.73,0,0,1,2.7,1.11A83,83,0,0,0,553,767Q554.34,774.15,555.69,776.85ZM548.9,769c-.23-1.1-.36-1.82-.42-2.16a34.28,34.28,0,0,1-.39-3.62c-.34.85-.75,2-1.22,3.54a19.47,19.47,0,0,0-.8,3A23.36,23.36,0,0,1,548.9,769Z"/><path d="M569.31,759.07a2.28,2.28,0,0,1-.36.88,1.31,1.31,0,0,1-.89.6,1.16,1.16,0,0,1-.47-.09,1.21,1.21,0,0,0-.44-.12,8.39,8.39,0,0,0-2.23.75,12.38,12.38,0,0,0-2.79,1.49v4.75q.14,0,1.23-.72a2.59,2.59,0,0,1,1.17-.47c.31,0,.89.47,1.74,1.45s1.25,1.65,1.22,2a1.64,1.64,0,0,1-.52.93,1.68,1.68,0,0,1-.73.47.54.54,0,0,1-.41-.06,1.13,1.13,0,0,0-.37-.12.3.3,0,0,0-.15.05c-.51.21-.95.4-1.33.58a7.11,7.11,0,0,0-1.85,1.06v3.8a.94.94,0,0,0,.28.56,1,1,0,0,1,.27.69,1.64,1.64,0,0,1-1.38,1.74,12.7,12.7,0,0,1-2.47-1.48c-.74-.61-1.12-1.14-1.12-1.59V759a1.46,1.46,0,0,0-.3-.84c-.2-.29-.28-.5-.24-.64a1.4,1.4,0,0,1,.49-.79,1.6,1.6,0,0,1,.94-.43,4.33,4.33,0,0,1,1.43.74,6.82,6.82,0,0,0,1.58.85l2.86-1.18a5.6,5.6,0,0,1,1.17-.59c.44,0,1.16.33,2.19,1.15S569.34,758.7,569.31,759.07Z"/><path d="M575.13,770.43c0,.64-.2,1-.49,1.06a1.15,1.15,0,0,1-.26,0,4.34,4.34,0,0,1-1.9-.6,6.26,6.26,0,0,1-1.87-1.43c-.21-.22-.21-.64,0-1.25s.31-.92.31-.93v-9.83a1,1,0,0,1,.78-.94,1.66,1.66,0,0,1,.44,0,5.32,5.32,0,0,1,1.67.31,2.32,2.32,0,0,1,1.17.68,8.83,8.83,0,0,1,0,1.4v10.61a3.65,3.65,0,0,0,.05.46A2.43,2.43,0,0,1,575.13,770.43Zm0,3.77a4.05,4.05,0,0,1,0,1.27c-.07.9-.1,1.46-.1,1.66a10.81,10.81,0,0,1-.1,1.62.76.76,0,0,1-.65.67,4.81,4.81,0,0,1-1.8-.52,4.64,4.64,0,0,1-1.87-1.11c-.12-.2-.08-.51.13-.94a2.45,2.45,0,0,0,.18-1q0-.57,0-2.19c.07-.62.33-.92.78-.91a7.25,7.25,0,0,1,2,.59C574.6,773.73,575.06,774,575.13,774.2Z"/><path d="M606.07,777.6c-.12.75-.33,1.16-.62,1.23a5.77,5.77,0,0,1-2.39-.34c-1.25-.35-2-.7-2.14-1a1,1,0,0,1-.07-.39,3.31,3.31,0,0,1,.06-.51A2.82,2.82,0,0,0,601,776v-11.8q-1.23,2.4-3.2,10.76a.88.88,0,0,0,0,.24,6.05,6.05,0,0,0,.09.83c.06.38.1.63.1.73a8.59,8.59,0,0,1-.08,1,.76.76,0,0,1-.55.62,3.68,3.68,0,0,1-.91.08q-3.37,0-4.65-1.17a.73.73,0,0,1-.16-.65,2.2,2.2,0,0,0,0-.75q-1-3-1.71-5.2a59.35,59.35,0,0,0-2.37-6.37v10.35a3.06,3.06,0,0,0,.21.93,6.18,6.18,0,0,1,.28.91,4.51,4.51,0,0,1,0,1.25c0,.59-.15,1-.36,1.09a1.14,1.14,0,0,1-.6.11,9.83,9.83,0,0,1-2.29-.34,3.33,3.33,0,0,1-1.68-.7.75.75,0,0,1-.13-.45,2.64,2.64,0,0,1,.09-.52,2.5,2.5,0,0,0,.09-.57V758a1.32,1.32,0,0,1,.26-.72,1.25,1.25,0,0,1,.6-.53,10.13,10.13,0,0,1,3.4.62c2.06.54,3.16,1,3.28,1.41a1.37,1.37,0,0,1,0,.62c-.05.36-.07.58-.07.65a1.09,1.09,0,0,0,.07.42l3.51,9.44q.74-2.33,2.66-9.39c.64-2.41,1.16-3.67,1.56-3.77a1.28,1.28,0,0,1,.41-.05,7.31,7.31,0,0,1,1.48.23,9.57,9.57,0,0,0,1.59.31c1.37.12,2.16.2,2.36.24.82.15,1.28.44,1.38.86a1.21,1.21,0,0,1,.06.38,3.45,3.45,0,0,1-.13.75,3,3,0,0,0-.14.71V776a1.66,1.66,0,0,0,.33.78A1.19,1.19,0,0,1,606.07,777.6Z"/><path d="M619.93,775a2.32,2.32,0,0,1-.45,1,1.76,1.76,0,0,1-.67.61s-.14,0-.28-.09a.73.73,0,0,0-.34-.12.23.23,0,0,0-.11,0,10,10,0,0,0-1.61.62,15,15,0,0,0-3.53,2.26l-2.84-1.17c-1.07-.46-1.61-.81-1.61-1V757.53c0-.12.2-.29.61-.52a1.88,1.88,0,0,1,.9-.31,5.87,5.87,0,0,1,1.25.4,4.33,4.33,0,0,0,1.53.38,4.44,4.44,0,0,0,2-.7c.76-.45,1.24-.64,1.43-.57a6.16,6.16,0,0,1,1.86,1.36,4.6,4.6,0,0,1,1.34,1.65q0,.24-.48.81c-.36.38-.65.57-.88.57a.82.82,0,0,1-.41-.08c-.09,0-.15-.07-.18,0a14.47,14.47,0,0,0-1.74.49,7.9,7.9,0,0,0-2.84,1.51v4.24a18.52,18.52,0,0,1,2.37-1c.27,0,.86.35,1.75,1.15s1.34,1.37,1.34,1.68a1.1,1.1,0,0,1-.36.68,1.72,1.72,0,0,1-.71.49l-.91,0a13.63,13.63,0,0,0-3.48,1.67v2.73c.52-.32,1.23-.68,2.12-1.11a6.2,6.2,0,0,1,1.65-.63,5.27,5.27,0,0,1,1.83,1.13C619.49,774.34,620,774.82,619.93,775Z"/><path d="M636.28,757.87a1.49,1.49,0,0,1-.1.55,3.48,3.48,0,0,0-.23.7v17.16c0-.06,0,.27.13,1s0,1.32-.32,1.56a3.41,3.41,0,0,1-2.1.21,9,9,0,0,1-2.16-.5c-1.06-.33-1.64-.67-1.74-1a5.64,5.64,0,0,0-.08-1.11q-1.45-3.86-3.38-8.45v7.69a1.28,1.28,0,0,0,.18.55,3.78,3.78,0,0,1,.24.47,2.6,2.6,0,0,1,.13.78c0,.69-.32,1-.94,1a9.49,9.49,0,0,1-2.57-.51,4.93,4.93,0,0,1-1.77-.81,1,1,0,0,1,0-1.07,2.86,2.86,0,0,0,.31-.8V758.93a2.2,2.2,0,0,0-.08-.46,1,1,0,0,1,0-.5,1.72,1.72,0,0,1,1-1.19,1.7,1.7,0,0,1,.57-.06,8.43,8.43,0,0,1,2.08.27,3.82,3.82,0,0,1,1.93.88c.48.52,1.11,2.1,1.89,4.76a54.12,54.12,0,0,0,2.24,6.6V759a2.25,2.25,0,0,0-.1-.58,2.42,2.42,0,0,1-.11-.59.82.82,0,0,1,.05-.28c.09-.3.42-.51,1-.65a3.69,3.69,0,0,1,1.3-.13,7.91,7.91,0,0,1,1.43.28C635.86,757.31,636.27,757.57,636.28,757.87Z"/><path d="M667.51,777.6c-.12.75-.33,1.16-.62,1.23a5.82,5.82,0,0,1-2.4-.34c-1.24-.35-2-.7-2.13-1a1,1,0,0,1-.08-.39,3.67,3.67,0,0,1,.07-.51,3.71,3.71,0,0,0,.07-.59v-11.8q-1.23,2.4-3.2,10.76a.88.88,0,0,0,0,.24,6.05,6.05,0,0,0,.09.83,6.53,6.53,0,0,1,.09.73,5.7,5.7,0,0,1-.08,1,.73.73,0,0,1-.54.62,3.68,3.68,0,0,1-.91.08c-2.26,0-3.81-.39-4.66-1.17a.73.73,0,0,1-.15-.65,2.93,2.93,0,0,0,0-.75q-1-3-1.72-5.2a58,58,0,0,0-2.36-6.37v10.35a3.31,3.31,0,0,0,.2.93,6.84,6.84,0,0,1,.29.91,4.51,4.51,0,0,1,0,1.25c0,.59-.15,1-.36,1.09a1.17,1.17,0,0,1-.6.11,9.83,9.83,0,0,1-2.29-.34,3.43,3.43,0,0,1-1.69-.7.82.82,0,0,1-.13-.45,2.64,2.64,0,0,1,.09-.52,2.5,2.5,0,0,0,.09-.57V758a1.41,1.41,0,0,1,.26-.72,1.35,1.35,0,0,1,.6-.53,10.17,10.17,0,0,1,3.41.62q3.09.81,3.27,1.41a1.22,1.22,0,0,1,0,.62c0,.36-.08.58-.08.65a1.08,1.08,0,0,0,.08.42l3.51,9.44q.74-2.33,2.65-9.39c.64-2.41,1.16-3.67,1.56-3.77a1.34,1.34,0,0,1,.42-.05,7.41,7.41,0,0,1,1.48.23,9.39,9.39,0,0,0,1.59.31c1.37.12,2.15.2,2.36.24.82.15,1.28.44,1.38.86a1.2,1.2,0,0,1,0,.38,2.93,2.93,0,0,1-.13.75,3.38,3.38,0,0,0-.13.71V776a1.66,1.66,0,0,0,.33.78A1.32,1.32,0,0,1,667.51,777.6Z"/><path d="M681.94,776.72a6.09,6.09,0,0,1-.23,1.45,1,1,0,0,1-.39.06,6.22,6.22,0,0,1-1.69-.31,3.63,3.63,0,0,1-1.49-.81,3,3,0,0,1-.33-1.25,17.81,17.81,0,0,0-.52-2.31,15.82,15.82,0,0,0-2.3.57,8.66,8.66,0,0,0-2,.78c-.21.59-.49,1.32-.84,2.21,0,.19-.1.37-.14.55a.64.64,0,0,1-.35.41.48.48,0,0,1-.18,0,4.86,4.86,0,0,1-1.68-.51,3.83,3.83,0,0,1-1.21-.66,3.39,3.39,0,0,1,.39-1.46c.43-1.11.69-1.78.76-2a1.34,1.34,0,0,1-.42-1.09c0-.17.48-.48,1.27-.91l2.68-9.18v-1.14c0-.38.22-.57.65-.57a11.6,11.6,0,0,1,2.78.5,5.78,5.78,0,0,1,2.19.9,65.22,65.22,0,0,0,.93,6.92A32.14,32.14,0,0,0,681.94,776.72Zm-4.29-17.81a2.56,2.56,0,0,1-2.21,1.14,2,2,0,0,1-1.4-.52,2.13,2.13,0,0,1-.73-1.69,2.73,2.73,0,0,1,.54-1.63,2.53,2.53,0,0,1,2.16-1.12,2.07,2.07,0,0,1,1.41.52,2.14,2.14,0,0,1,.78,1.69A2.72,2.72,0,0,1,677.65,758.91Zm-1.14,11.49c-.21-1.09-.32-1.66-.34-1.72-.14-.93-.24-1.89-.29-2.88q-.39,1-1,2.85a19.07,19.07,0,0,0-.65,2.35C674.45,770.91,675.21,770.71,676.51,770.4ZM676,756.7a1.29,1.29,0,0,0-1.2,1.18c0,.44.24.66.7.66a1.13,1.13,0,0,0,.81-.38,1.15,1.15,0,0,0,.39-.82C676.74,756.91,676.51,756.7,676,756.7Z"/><path d="M705.83,776.85c0,.15-.05.53-.1,1.12a1.29,1.29,0,0,1-.21.7.93.93,0,0,1-.44.08,6.66,6.66,0,0,1-2.13-.45,3.91,3.91,0,0,1-1.87-1,4.21,4.21,0,0,1-.42-1.56,21.25,21.25,0,0,0-.65-2.89,20,20,0,0,0-2.89.72,11.26,11.26,0,0,0-2.47,1c-.26.75-.6,1.66-1,2.76-.05.24-.11.47-.17.69a.91.91,0,0,1-.45.53.46.46,0,0,1-.23.05,6.29,6.29,0,0,1-2.1-.65c-1-.43-1.48-.72-1.52-.86a4,4,0,0,1,.5-1.79q.83-2.09,1-2.55a1.55,1.55,0,0,1-.55-1.09,1.59,1.59,0,0,1,0-.29c0-.2.56-.58,1.58-1.11L695,758.78a4.37,4.37,0,0,0,0-1.15c0-.46,0-.76.16-.88a.94.94,0,0,1,.62-.13,14.11,14.11,0,0,1,3.49.63,6.73,6.73,0,0,1,2.7,1.11,83,83,0,0,0,1.17,8.66Q704.48,774.15,705.83,776.85Zm-6.78-7.9q-.34-1.65-.42-2.16a34.28,34.28,0,0,1-.39-3.62c-.35.85-.75,2-1.22,3.54a21.52,21.52,0,0,0-.81,3A23.75,23.75,0,0,1,699.05,769Z"/><path d="M719.43,774.87a2,2,0,0,1-1,1.49,1.12,1.12,0,0,1-.56,0,.94.94,0,0,0-.5,0L713.53,778a1,1,0,0,0-.38.44c-.13.24-.25.38-.38.42a4.68,4.68,0,0,1-2.41-.39,5.08,5.08,0,0,1-2.24-1.12,1.93,1.93,0,0,1-.18-1.3c0-.28,0-.49,0-.65V758a.9.9,0,0,0-.21-.45.52.52,0,0,1-.15-.31c0-.33.33-.57.91-.73a6.29,6.29,0,0,1,2.36.4c1.37.39,2.07.86,2.08,1.4a1.25,1.25,0,0,1-.28.62,1.36,1.36,0,0,0-.29.63v14.37l2.71-1.17a3.36,3.36,0,0,1,.88-.46c.24,0,.89.33,2,1.1S719.5,774.63,719.43,774.87Z"/><path d="M731.91,774.87a2,2,0,0,1-1,1.49,1.12,1.12,0,0,1-.56,0,.94.94,0,0,0-.5,0L726,778a1,1,0,0,0-.38.44c-.13.24-.25.38-.38.42a4.68,4.68,0,0,1-2.41-.39,5.08,5.08,0,0,1-2.24-1.12,1.93,1.93,0,0,1-.18-1.3c0-.28.05-.49.05-.65V758a.9.9,0,0,0-.21-.45.52.52,0,0,1-.15-.31c0-.33.34-.57.91-.73a6.29,6.29,0,0,1,2.36.4c1.37.39,2.07.86,2.08,1.4a1.25,1.25,0,0,1-.28.62,1.36,1.36,0,0,0-.29.63v14.37l2.71-1.17a3.36,3.36,0,0,1,.88-.46c.24,0,.89.33,1.95,1.1S732,774.63,731.91,774.87Z"/><path d="M744.39,775a2.32,2.32,0,0,1-.45,1,1.76,1.76,0,0,1-.67.61s-.15,0-.28-.09a.73.73,0,0,0-.34-.12.23.23,0,0,0-.11,0,10,10,0,0,0-1.61.62,15,15,0,0,0-3.53,2.26l-2.84-1.17c-1.07-.46-1.61-.81-1.61-1V757.53c0-.12.2-.29.61-.52a1.88,1.88,0,0,1,.9-.31,5.87,5.87,0,0,1,1.25.4,4.33,4.33,0,0,0,1.53.38,4.44,4.44,0,0,0,2-.7c.76-.45,1.24-.64,1.43-.57a6.16,6.16,0,0,1,1.86,1.36,4.6,4.6,0,0,1,1.34,1.65q0,.24-.48.81c-.36.38-.65.57-.88.57a.82.82,0,0,1-.41-.08c-.09,0-.15-.07-.18,0a14.47,14.47,0,0,0-1.74.49,7.9,7.9,0,0,0-2.84,1.51v4.24a18.52,18.52,0,0,1,2.37-1c.27,0,.86.35,1.75,1.15s1.34,1.37,1.34,1.68a1.1,1.1,0,0,1-.36.68,1.72,1.72,0,0,1-.71.49l-.91,0a13.63,13.63,0,0,0-3.48,1.67v2.73c.52-.32,1.23-.68,2.12-1.11a6.2,6.2,0,0,1,1.65-.63,5.27,5.27,0,0,1,1.83,1.13C744,774.34,744.43,774.82,744.39,775Z"/><path d="M767.89,776.85c0,.15,0,.53-.1,1.12a1.29,1.29,0,0,1-.21.7.9.9,0,0,1-.44.08,6.66,6.66,0,0,1-2.13-.45,3.91,3.91,0,0,1-1.87-1,4.21,4.21,0,0,1-.42-1.56,21.25,21.25,0,0,0-.65-2.89,20,20,0,0,0-2.89.72,11.26,11.26,0,0,0-2.47,1c-.26.75-.6,1.66-1,2.76a7,7,0,0,1-.17.69.91.91,0,0,1-.45.53.46.46,0,0,1-.23.05,6.29,6.29,0,0,1-2.1-.65c-1-.43-1.48-.72-1.52-.86a4,4,0,0,1,.5-1.79q.82-2.09,1-2.55a1.55,1.55,0,0,1-.55-1.09,1.59,1.59,0,0,1,0-.29c0-.2.56-.58,1.58-1.11l3.36-11.47a4.37,4.37,0,0,0,0-1.15c0-.46,0-.76.16-.88a.94.94,0,0,1,.62-.13,14.11,14.11,0,0,1,3.49.63,6.73,6.73,0,0,1,2.7,1.11,83,83,0,0,0,1.17,8.66Q766.55,774.15,767.89,776.85Zm-6.78-7.9q-.35-1.65-.42-2.16a34.28,34.28,0,0,1-.39-3.62c-.34.85-.75,2-1.22,3.54a21.52,21.52,0,0,0-.81,3A23.75,23.75,0,0,1,761.11,769Z"/><path d="M784.69,757.87a1.49,1.49,0,0,1-.1.55,3.63,3.63,0,0,0-.24.7v17.16c0-.06,0,.27.13,1s0,1.32-.31,1.56a3.43,3.43,0,0,1-2.11.21,9,9,0,0,1-2.15-.5c-1.06-.33-1.64-.67-1.75-1a5.45,5.45,0,0,0-.07-1.11q-1.46-3.86-3.38-8.45v7.69a1.28,1.28,0,0,0,.18.55,4.58,4.58,0,0,1,.23.47,2.32,2.32,0,0,1,.13.78c0,.69-.31,1-.93,1a9.55,9.55,0,0,1-2.58-.51,4.93,4.93,0,0,1-1.77-.81,1,1,0,0,1,0-1.07,3.05,3.05,0,0,0,.32-.8V758.93a2.2,2.2,0,0,0-.08-.46,1.12,1.12,0,0,1,0-.5,1.71,1.71,0,0,1,1-1.19,1.62,1.62,0,0,1,.57-.06,8.49,8.49,0,0,1,2.08.27,3.73,3.73,0,0,1,1.92.88c.49.52,1.12,2.1,1.9,4.76a52.38,52.38,0,0,0,2.24,6.6V759a2.36,2.36,0,0,0-.11-.58,2.31,2.31,0,0,1-.1-.59.64.64,0,0,1,0-.28c.09-.3.42-.51,1-.65a3.67,3.67,0,0,1,1.3-.13,8.08,8.08,0,0,1,1.43.28C784.26,757.31,784.67,757.57,784.69,757.87Z"/><path d="M799.12,765.28a14.86,14.86,0,0,1-1.53,6.16,25.43,25.43,0,0,1-3.07,5,8.7,8.7,0,0,1-2.42,2.36,2.26,2.26,0,0,1-.88.16,6,6,0,0,1-2.6-.73,6,6,0,0,1-2-1.3V758.26a.87.87,0,0,1,.78-.81s.48,0,1.3.18a5.52,5.52,0,0,0,1.54-.54,5.88,5.88,0,0,1,2.25-.57,4.35,4.35,0,0,1,2.19.6,16.26,16.26,0,0,1,1.79,1.4,7.08,7.08,0,0,1,2.26,3.17A13.42,13.42,0,0,1,799.12,765.28Zm-4.32-5a.82.82,0,0,0-.41-.08,6.55,6.55,0,0,0-3.3,1.2v11.7c1.17-.68,2.18-2.33,3-5a20.92,20.92,0,0,0,1.07-6.19C795.17,761,795.05,760.4,794.8,760.26Z"/><path d="M815.76,774.82c.16.3-.15,1-.92,2.17s-1.42,1.72-1.94,1.71a1.57,1.57,0,0,1-1.33-.89,3.38,3.38,0,0,0-.39-.75l-5.48-5.13v4.82a1.64,1.64,0,0,0,.22.72,1.67,1.67,0,0,1,.22.65c0,.52-.34.81-1,.86a7.8,7.8,0,0,1-2.32-.28c-1.11-.25-1.66-.51-1.66-.78a1.48,1.48,0,0,1,.06-.36,1.74,1.74,0,0,0,.07-.56V758.86a.73.73,0,0,0-.08-.33.54.54,0,0,1-.08-.22c0-.47.37-.74,1-.83a4.42,4.42,0,0,1,1.42.25,5.63,5.63,0,0,0,1.57.27,6.39,6.39,0,0,0,1.81-.72,5.57,5.57,0,0,1,2.38-.69,4.43,4.43,0,0,1,.8.08,3,3,0,0,1,1.33.68c.4.35.78.69,1.14,1,1,.9,1.45,1.38,1.49,1.43a2.8,2.8,0,0,1,.72,1.74q.16,3-5.14,7.75c.72.66,2.33,2.26,4.81,4.81a5.52,5.52,0,0,1,.67.31A4.92,4.92,0,0,1,815.76,774.82ZM810,760.29q-1.21,0-4.31,2.54v4a8.91,8.91,0,0,0,2.94-2.68c1.21-1.49,1.82-2.59,1.82-3.32C810.46,760.46,810.31,760.29,810,760.29Z"/><path d="M829.25,775a2.32,2.32,0,0,1-.45,1,1.63,1.63,0,0,1-.67.61s-.14,0-.28-.09a.73.73,0,0,0-.34-.12.19.19,0,0,0-.1,0,9.78,9.78,0,0,0-1.62.62,15,15,0,0,0-3.53,2.26l-2.84-1.17c-1.07-.46-1.61-.81-1.61-1V757.53c0-.12.21-.29.61-.52a1.88,1.88,0,0,1,.9-.31,5.7,5.7,0,0,1,1.25.4,4.33,4.33,0,0,0,1.53.38,4.44,4.44,0,0,0,2-.7c.76-.45,1.24-.64,1.43-.57a6,6,0,0,1,1.86,1.36,4.6,4.6,0,0,1,1.34,1.65q0,.24-.48.81t-.87.57a.89.89,0,0,1-.42-.08c-.09,0-.15-.07-.18,0a15,15,0,0,0-1.74.49,7.9,7.9,0,0,0-2.84,1.51v4.24a18.52,18.52,0,0,1,2.37-1c.28,0,.86.35,1.75,1.15s1.34,1.37,1.34,1.68a1.1,1.1,0,0,1-.36.68,1.7,1.7,0,0,1-.7.49l-.91,0a13.49,13.49,0,0,0-3.49,1.67v2.73c.52-.32,1.23-.68,2.12-1.11a6.2,6.2,0,0,1,1.65-.63,5.18,5.18,0,0,1,1.84,1.13Q829.31,774.72,829.25,775Z"/><path d="M155.71,809.9a3.39,3.39,0,0,1-1.22-.15c-.45-.13-.9-.26-1.33-.4s-1.33-.39-2.44-.75a6.14,6.14,0,0,1-3.15-3.59,15.68,15.68,0,0,1-.94-5.72,26.22,26.22,0,0,1,.94-6.37q1.27-4.89,3.3-4.89a2.1,2.1,0,0,1,.51.09,4.9,4.9,0,0,0,.51.12,12,12,0,0,1,2.47-.55l.52,0c2.08.26,3.71,1.56,4.91,3.9a16.41,16.41,0,0,1,1.61,7.56,16.17,16.17,0,0,1-1.45,7.15C158.91,808.5,157.49,809.69,155.71,809.9Zm-.47-19.06c-.38-.11-.76.41-1.13,1.53s-.75,1.69-1.13,1.69a.94.94,0,0,1-.38-.14,1.24,1.24,0,0,0-.4-.17,13.84,13.84,0,0,0-.89,5.56,17.25,17.25,0,0,0,.6,4.86c.45,1.51,1.08,2.35,1.87,2.5.94.17,1.69-.79,2.27-2.88a25.25,25.25,0,0,0,.75-6.56,20.13,20.13,0,0,0-.39-4.31C156.13,791.67,155.74,791,155.24,790.84Z"/><path d="M178.3,800.25a1.37,1.37,0,0,1-.91,1.33.62.62,0,0,1-.36-.1.82.82,0,0,0-.34-.11.76.76,0,0,0-.34.08,43.55,43.55,0,0,1-1.58,5.2,5.77,5.77,0,0,1-2.71,3.22,2.09,2.09,0,0,1-.91.21,10.17,10.17,0,0,1-2.31-.68,23.09,23.09,0,0,1-2.21-.75,5.2,5.2,0,0,1-2.34-3.36,19.07,19.07,0,0,1-.76-5.69,22.56,22.56,0,0,1,1.2-7.64q1.31-3.68,3.43-4.11a2.58,2.58,0,0,1,.42,0,8.19,8.19,0,0,1,3.17.83,6.09,6.09,0,0,1,2.7,2,5,5,0,0,1,.76,2.19c.15,1,.25,1.55.28,1.63l.21,1.07a1.81,1.81,0,0,1-.8,1.35,5,5,0,0,1-2-.37,7.59,7.59,0,0,1-2-.8,1.24,1.24,0,0,1-.39-1.22.58.58,0,0,1,.13-.32.63.63,0,0,0,.13-.35c0-1.24-.14-1.85-.42-1.85-.58,0-1.1,1-1.56,3a28.76,28.76,0,0,0-.62,6.14q0,4.94,1.38,5.67c.28.14.65-.34,1.13-1.43a9.78,9.78,0,0,0,.84-3.07,8,8,0,0,0-1.58-.81c-.63-.26-1-.48-1-.67a1.71,1.71,0,0,1,.26-1.11,2.11,2.11,0,0,1,.77-.92,2.62,2.62,0,0,1,1.13-.23,6.55,6.55,0,0,0,1.2-.06,9.83,9.83,0,0,0,1.43-.44,3.69,3.69,0,0,1,1.22-.31l.29,0a5.32,5.32,0,0,1,1.91,1.18C177.91,799.54,178.32,800,178.3,800.25Z"/><path d="M190.11,805.58a4.21,4.21,0,0,1-1.28,3.16A5.08,5.08,0,0,1,185.3,810a4.73,4.73,0,0,1-1.23-.19l-1.24-.34-1.26-.27a2.29,2.29,0,0,1-1.11-.58,4.41,4.41,0,0,1-1.14-2,10.48,10.48,0,0,0-.84-2,3.6,3.6,0,0,1-.49-.73,1.12,1.12,0,0,1,.14-.77,1,1,0,0,1,.54-.48,1.87,1.87,0,0,1,.57-.05,13.43,13.43,0,0,1,2.22.22,3.83,3.83,0,0,1,1.47.4,7.4,7.4,0,0,1,.42,1.87c.15,1,.39,1.62.7,1.75a.59.59,0,0,0,.23.05c.33,0,.61-.28.85-.82a4.78,4.78,0,0,0,.35-1.86,3.11,3.11,0,0,0-1.41-3,16.71,16.71,0,0,1-4.52-3.22,5.33,5.33,0,0,1-1.35-4.06,8.19,8.19,0,0,1,1.42-3.94,4.8,4.8,0,0,1,2.71-2.32c.4-.09,1.61.29,3.64,1.14l1.52.6a3,3,0,0,1,1.24.91,5.17,5.17,0,0,1,.73,3.14q0,.42,0,1.23c0,.47,0,.79,0,1a3.1,3.1,0,0,0,.19.59,1.17,1.17,0,0,1,.1.58c0,.76-.36,1.18-1,1.27a5.19,5.19,0,0,1-1.93-.39,4,4,0,0,1-2-1.07,1.27,1.27,0,0,1-.05-.52q0-.39.09-1.77c.06-.91.09-1.58.09-2,0-.74-.09-1.11-.26-1.09-.54,0-1,.42-1.34,1.16a5.61,5.61,0,0,0-.53,2.51,3.84,3.84,0,0,0,1.37,3.33l3.12,2a6.26,6.26,0,0,1,2.06,1.93A7,7,0,0,1,190.11,805.58Z"/><path d="M204.61,807.92a5.75,5.75,0,0,1-.23,1.46,1.27,1.27,0,0,1-.39,0,6.29,6.29,0,0,1-1.69-.31,3.58,3.58,0,0,1-1.48-.81,2.91,2.91,0,0,1-.34-1.25,17.81,17.81,0,0,0-.52-2.31,15.82,15.82,0,0,0-2.3.57,8.66,8.66,0,0,0-2,.78c-.21.59-.49,1.32-.83,2.21-.05.19-.1.37-.14.55a.68.68,0,0,1-.36.41.48.48,0,0,1-.18,0,4.92,4.92,0,0,1-1.68-.51,3.56,3.56,0,0,1-1.2-.66,3.1,3.1,0,0,1,.39-1.46c.43-1.11.68-1.78.75-2a1.33,1.33,0,0,1-.42-1.09c.06-.17.48-.48,1.28-.91l2.68-9.18v-1.14c0-.38.21-.57.65-.57a11.68,11.68,0,0,1,2.78.5,5.78,5.78,0,0,1,2.18.9,65.85,65.85,0,0,0,.94,6.92A32.25,32.25,0,0,0,204.61,807.92Zm-4.29-17.81a2.55,2.55,0,0,1-2.21,1.14,2,2,0,0,1-1.4-.52A2.13,2.13,0,0,1,196,789a2.67,2.67,0,0,1,.55-1.63,2.5,2.5,0,0,1,2.16-1.12,2.06,2.06,0,0,1,1.4.52,2.14,2.14,0,0,1,.78,1.69A2.66,2.66,0,0,1,200.32,790.11Zm-1.14,11.49c-.21-1.09-.32-1.66-.34-1.72-.14-.93-.23-1.89-.28-2.88q-.39,1-1,2.85a15.84,15.84,0,0,0-.65,2.35C197.13,802.11,197.88,801.91,199.18,801.6Zm-.47-13.7a1.15,1.15,0,0,0-.82.37,1.13,1.13,0,0,0-.37.81c0,.44.23.67.7.67a1.13,1.13,0,0,0,.8-.39,1.15,1.15,0,0,0,.39-.82C199.41,788.11,199.18,787.9,198.71,787.9Z"/><path d="M224.14,790.27a2.28,2.28,0,0,1-.36.88,1.31,1.31,0,0,1-.89.6,1.16,1.16,0,0,1-.47-.09,1.21,1.21,0,0,0-.44-.12,8.39,8.39,0,0,0-2.23.75,12.38,12.38,0,0,0-2.79,1.49v4.75q.14,0,1.23-.72a2.59,2.59,0,0,1,1.17-.47c.31,0,.89.47,1.74,1.45s1.25,1.65,1.22,2a1.69,1.69,0,0,1-.52.94,1.74,1.74,0,0,1-.73.46.54.54,0,0,1-.41-.06,1.13,1.13,0,0,0-.37-.12.3.3,0,0,0-.15,0c-.51.21-.95.4-1.33.58a7.11,7.11,0,0,0-1.85,1.06v3.8a.94.94,0,0,0,.28.56,1,1,0,0,1,.27.69,1.64,1.64,0,0,1-1.38,1.74,12.7,12.7,0,0,1-2.47-1.48c-.74-.61-1.12-1.14-1.12-1.59V790.21a1.46,1.46,0,0,0-.3-.84c-.2-.29-.28-.5-.24-.64a1.4,1.4,0,0,1,.49-.79,1.6,1.6,0,0,1,.94-.43,4.33,4.33,0,0,1,1.43.74,6.82,6.82,0,0,0,1.58.85l2.86-1.18a5.6,5.6,0,0,1,1.17-.59c.44-.05,1.16.33,2.19,1.15S224.17,789.9,224.14,790.27Z"/><path d="M238,807.92a5.75,5.75,0,0,1-.23,1.46,1.27,1.27,0,0,1-.39,0,6.22,6.22,0,0,1-1.69-.31,3.58,3.58,0,0,1-1.48-.81,2.91,2.91,0,0,1-.34-1.25,17.81,17.81,0,0,0-.52-2.31,15.82,15.82,0,0,0-2.3.57,8.66,8.66,0,0,0-2,.78c-.21.59-.49,1.32-.83,2.21l-.15.55a.64.64,0,0,1-.35.41.48.48,0,0,1-.18,0,4.92,4.92,0,0,1-1.68-.51,3.83,3.83,0,0,1-1.21-.66,3.31,3.31,0,0,1,.4-1.46c.43-1.11.68-1.78.75-2a1.33,1.33,0,0,1-.42-1.09c.05-.17.48-.48,1.28-.91l2.68-9.18v-1.14c0-.38.21-.57.64-.57a11.66,11.66,0,0,1,2.79.5,5.78,5.78,0,0,1,2.18.9,65.85,65.85,0,0,0,.94,6.92A31.79,31.79,0,0,0,238,807.92Zm-4.29-17.81a2.55,2.55,0,0,1-2.21,1.14,2,2,0,0,1-1.4-.52,2.13,2.13,0,0,1-.73-1.69,2.67,2.67,0,0,1,.55-1.63,2.5,2.5,0,0,1,2.15-1.12,2.07,2.07,0,0,1,1.41.52,2.14,2.14,0,0,1,.78,1.69A2.66,2.66,0,0,1,233.73,790.11Zm-1.14,11.49c-.21-1.09-.32-1.66-.34-1.72C232.11,799,232,798,232,797c-.25.66-.58,1.61-1,2.85a15.84,15.84,0,0,0-.65,2.35C230.54,802.11,231.29,801.91,232.59,801.6Zm-.47-13.7a1.29,1.29,0,0,0-1.2,1.18c0,.44.24.67.71.67a1.36,1.36,0,0,0,1.19-1.21C232.82,788.11,232.59,787.9,232.12,787.9Z"/><path d="M258.67,796.48a14.73,14.73,0,0,1-1.54,6.16,25,25,0,0,1-3.07,5.05,8.71,8.71,0,0,1-2.41,2.36,2.28,2.28,0,0,1-.89.16,6,6,0,0,1-2.6-.73,6.28,6.28,0,0,1-1.95-1.3V789.46a.87.87,0,0,1,.78-.81s.49.05,1.3.18a5.53,5.53,0,0,0,1.55-.54,5.8,5.8,0,0,1,2.25-.57,4.29,4.29,0,0,1,2.18.6,15.23,15.23,0,0,1,1.8,1.4,7.08,7.08,0,0,1,2.26,3.17A13.85,13.85,0,0,1,258.67,796.48Zm-4.32-5a.89.89,0,0,0-.42-.08,6.61,6.61,0,0,0-3.3,1.2v11.7c1.18-.68,2.19-2.33,3-5a20.88,20.88,0,0,0,1.06-6.19C254.71,792.15,254.59,791.6,254.35,791.46Z"/><path d="M272.29,806.23a2.23,2.23,0,0,1-.46.95,1.68,1.68,0,0,1-.66.61c-.05,0-.15,0-.28-.09a.77.77,0,0,0-.34-.12.23.23,0,0,0-.11,0,10,10,0,0,0-1.61.62,15,15,0,0,0-3.53,2.26l-2.84-1.17c-1.07-.46-1.61-.81-1.61-1V788.73c0-.12.2-.29.61-.52a1.88,1.88,0,0,1,.9-.31,5.87,5.87,0,0,1,1.25.4,4.33,4.33,0,0,0,1.53.38,4.44,4.44,0,0,0,2-.7c.76-.45,1.24-.64,1.43-.57a6.28,6.28,0,0,1,1.86,1.36,4.6,4.6,0,0,1,1.34,1.65q0,.24-.48.81c-.36.38-.65.57-.88.57a.82.82,0,0,1-.41-.08c-.09-.05-.15-.07-.18-.05a15.2,15.2,0,0,0-1.75.49,7.93,7.93,0,0,0-2.83,1.51v4.24a18.52,18.52,0,0,1,2.37-1c.27,0,.86.35,1.75,1.15s1.34,1.37,1.34,1.68a1.1,1.1,0,0,1-.36.68,1.72,1.72,0,0,1-.71.49l-.91,0a13.48,13.48,0,0,0-3.48,1.67v2.73c.52-.32,1.23-.68,2.12-1.11a6.2,6.2,0,0,1,1.65-.63,5.27,5.27,0,0,1,1.83,1.13C271.85,805.54,272.33,806,272.29,806.23Z"/><path d="M286.15,792.19a1.51,1.51,0,0,1-.57-.17,1.06,1.06,0,0,0-.6-.12l-2.68.73v13.68a4.23,4.23,0,0,0,.37,1.64,2,2,0,0,1-.06,1,1.51,1.51,0,0,1-.49,1,1.18,1.18,0,0,1-.26,0,11.59,11.59,0,0,1-2.39-.34,4.54,4.54,0,0,1-2-.75,1.15,1.15,0,0,1,0-1.25,2.54,2.54,0,0,0,.34-1V793.78l-1.84.46a1.55,1.55,0,0,0-.43.22.7.7,0,0,1-.51.15c-.4-.11-.94-.62-1.64-1.55s-1-1.56-.91-1.89a1.69,1.69,0,0,1,1.22-.9,1.64,1.64,0,0,1,.68,0,2.31,2.31,0,0,0,.65,0l9.05-2.32a4.42,4.42,0,0,0,.75-.31,1.44,1.44,0,0,1,.76-.13,1.22,1.22,0,0,1,1,.58,4.3,4.3,0,0,1,.4,1.17,7.27,7.27,0,0,1,.25,1.76,2,2,0,0,1-.14.87C287,792.06,286.67,792.17,286.15,792.19Z"/><path d="M299.8,793.52a5.43,5.43,0,0,1-1.17,3.87,19.27,19.27,0,0,1-3,2.78,14.18,14.18,0,0,0-2.78,2.78c-.34.56-.64.81-.88.76-.59-.12-1.45-.86-2.58-2.21a.44.44,0,0,1-.07-.26,1.76,1.76,0,0,1,.41-1,28.26,28.26,0,0,1,3-2.8,28.84,28.84,0,0,0,3.42-3.28c1-1.21,1.2-2.17.68-2.86a1.7,1.7,0,0,0-1.46-.6,10.1,10.1,0,0,0-4.65,1.64.35.35,0,0,1-.16,0c-.26,0-.65-.29-1.17-.86a9.09,9.09,0,0,1-1-1.41c-.14-.22-.09-.48.14-.78a5.73,5.73,0,0,1,2-1.09,10.81,10.81,0,0,1,3.67-.73,4.59,4.59,0,0,1,2.42.58A6.61,6.61,0,0,1,299.8,793.52ZM294,807.61a.41.41,0,0,1,.05.21,1,1,0,0,1-.34.55,1.8,1.8,0,0,0-.41.59l-.37,1.07c-.19.53-.43.77-.72.7a6.75,6.75,0,0,1-2.86-2.06.22.22,0,0,1-.08-.26l.1-.2c.12-.32.25-.63.39-.94a2.71,2.71,0,0,0,.21-1.12.6.6,0,0,1,.32-.56,1.52,1.52,0,0,1,.77-.22,3.11,3.11,0,0,1,1.67.87A4.49,4.49,0,0,1,294,807.61Z"/></svg>
