<svg id="Layer_1" data-name="Layer 1" xmlns="http://www.w3.org/2000/svg" viewBox="0 0 560 465"><defs><style>.cls-1,.cls-2,.cls-4,.cls-5,.cls-7{fill:#fff;}.cls-2,.cls-3,.cls-4,.cls-5,.cls-6,.cls-7{stroke:#000;stroke-miterlimit:10;}.cls-2,.cls-3,.cls-5{stroke-width:6px;}.cls-4,.cls-6{stroke-width:5px;}.cls-5{stroke-linecap:round;}.cls-6{fill:none;}.cls-7{stroke-width:3px;}</style></defs><title>diplom</title><path class="cls-1" d="M505.88,153q-38.4,57.36-80,116-72.12,101.57-144,193l-223-160L364.24,61.65Z"/><path class="cls-2" d="M549.88,142q-34.78-18.24-70.68-36.4Q452.38,92,425.88,79s-28.43-14.34-144-74a407,407,0,0,0-49,44c-42,44.39-58.7,82.36-87,130a951.1,951.1,0,0,1-83,118"/><path class="cls-2" d="M500.38,165.45q8.63,4.77,17.5,9.5,11.63,6.21,23,12c2.06-3.35,5-8.45,8.2-14.91,5.28-10.79,7.9-16.28,6.8-21.09-1.74-7.65-10.73-13.36-17.5-14.5-19.68-3.3-40.86,28.69-51,45-25.8,41.55-134.29,223.22-160,255-2.13,2.64-17.56,21.28-37,23.85a31.1,31.1,0,0,1-7,.15c-12.25-1.11-24.81-9.64-28-19-5.11-15,16-40,16-40s-14.25-21-115-64c-59.12-25.21-66.79-27.51-79-34-6.77-3.59-12.85-6.06-25-11-15.71-6.38-21-6-21-6s-16.67,14.46-23,28c-5.57,11.92-4.69,16.71-4,19,2.05,6.75,8.23,10.42,11,12,50.1,28.67,136,62,136,62,27.7,10.75,25.94,11.66,72,30,23.76,9.47,44.22,17.19,60,23"/><path class="cls-3" d="M552.3,164.85l-31.68-19.1.82-1.37c5-6.18,15.24-6.85,23.28-1.8,7.48,4.69,11.31,13.26,8.82,20.22C553.13,163.49,552.71,164.17,552.3,164.85Z"/><path class="cls-4" d="M502.88,161l39,21"/><path class="cls-4" d="M508,153.56l40.1,18.81"/><path class="cls-5" d="M3.88,328l129,60"/><path class="cls-5" d="M8.13,318.05,176.88,397"/><path class="cls-5" d="M16.13,307.05,200.88,392"/><path class="cls-5" d="M22.59,295.12,234.88,390"/><path class="cls-5" d="M32.79,288.66C74,304.31,118,322.87,163.88,345c38.9,18.73,74.91,37.94,108,57"/><path class="cls-6" d="M260.25,418.33c-.88,1.83-5.88,12.63-.87,23.12,3.67,7.68,10.66,10.92,13,12,14.94,6.92,37.74-1.88,58-21"/><path class="cls-7" d="M282.54,320.64a15.06,15.06,0,0,0-17.44-21.91l57.13-45.46,17.43,21.91Z"/><path class="cls-7" d="M337.92,340.1a15.06,15.06,0,0,0-27.7-4.07l10.63-72.23,27.7,4.08Z"/><circle class="cls-7" cx="340.88" cy="250.95" r="39"/><path d="M274.41,98q-3.82,7-12.35,13.11a70.14,70.14,0,0,1-14.87,8.15q-7,2.7-9.55,2.43a7.48,7.48,0,0,1-2.54-.88,18.55,18.55,0,0,1-5.85-5.52,18.5,18.5,0,0,1-3.37-6l25.26-46.51a2.52,2.52,0,0,1,3.14-.89,30.86,30.86,0,0,1,3.17,2.31c.39.27,2,.55,4.8.85a18.22,18.22,0,0,1,6.69,1.8,13.48,13.48,0,0,1,4.93,4.6,45.16,45.16,0,0,1,2.83,6q2.54,6.24,1.66,11.11Q277.75,91.81,274.41,98Zm-4.58-18.63a2.47,2.47,0,0,0-1-.79q-3.63-2-10.3-1.74l-15.79,29.06q6,0,14.63-8A56,56,0,0,0,268.55,84C269.86,81.56,270.28,80,269.83,79.32Z"/><path d="M276.34,138.56q-1,2.48-3.29,2a5.68,5.68,0,0,1-1-.46,27.72,27.72,0,0,1-5.56-4.27q-3.33-3.15-3.39-4.68c0-.47.53-1,1.71-1.67a8.13,8.13,0,0,0,2.54-3.22L282.1,99.11a14.81,14.81,0,0,1,1-3.74c.3-.56,1.3-.38,3,.54a22.32,22.32,0,0,1,5.06,4.29c2,2.12,3.09,3.62,3.27,4.5a1.16,1.16,0,0,1-.15.75,5.78,5.78,0,0,1-1.84,1.51,5.9,5.9,0,0,0-1.94,1.71l-14.1,26a3.16,3.16,0,0,0-.09,2.05A4.26,4.26,0,0,1,276.34,138.56ZM300.79,94a1.62,1.62,0,0,1-.21.55A16.75,16.75,0,0,1,298,97.94c-1.35,1.39-2.27,2.06-2.77,2s-2.26-1.6-5.13-4.58-4.28-4.77-4.25-5.37a2,2,0,0,1,.32-1.08,9.41,9.41,0,0,1,2.95-3.16c1.53-1.07,2.79-1.44,3.8-1.12s2.76,1.76,4.85,4.1S300.85,92.85,300.79,94Z"/><path d="M300.06,154.21a3.46,3.46,0,0,1-1.47-.39q-1.79-1-3.81-7.17L288,159.12a10.55,10.55,0,0,0-.39,2.18,6.38,6.38,0,0,1-.52,2.26c-.49.91-1.37,1-2.65.32a23.56,23.56,0,0,1-4.5-3.62q-1.67-1.65-3.3-3.38a2.77,2.77,0,0,1-.89-3.08,6.78,6.78,0,0,1,1.88-2.24,17.22,17.22,0,0,0,1.81-1.77l22.84-42a7.51,7.51,0,0,0,1.13-2.9c-.1-1.45.1-2.31.61-2.6s1.06-.09,2.06.45a33.19,33.19,0,0,1,4.4,3.14q3.24,2.69,3.51,2.83a2.56,2.56,0,0,1,.94,2.52,4.56,4.56,0,0,1-.43.94,64.1,64.1,0,0,1-5.1,7.43c2.22-1.47,4.42-2.92,6.62-4.35,2.88-1.84,4.88-2.31,6-1.43q12,9.93,4.84,23a34.69,34.69,0,0,1-12.32,12.67Q306.25,154.72,300.06,154.21Zm14.81-30.86q-2.31-1.59-18.2,20.32,4.71.45,10.8-3.34c4.06-2.54,6.94-5.37,8.65-8.52Q319.11,126.32,314.87,123.35Z"/><path d="M359.19,120.16a4.07,4.07,0,0,1-1,1.06l-.9.76a32.74,32.74,0,0,0-3,3.56L332.77,165.2a2.8,2.8,0,0,0-.34,1.61,2.29,2.29,0,0,1-.13,1.23q-2.25,4.13-4.06,3.56-.69-.19-3.87-3.23a19.77,19.77,0,0,1-3.62-4c-.56-1.36-.65-2.39-.28-3.08a1.08,1.08,0,0,1,.59-.43,2,2,0,0,0,.87-.95l24.74-45.54a2,2,0,0,0,.2-.94,1.8,1.8,0,0,1,.2-.93c.65-1,1.87-1.22,3.65-.7a16.77,16.77,0,0,1,2.87,1.56,26.17,26.17,0,0,1,4,3.09C359.17,118,359.7,119.21,359.19,120.16Z"/><path d="M380.09,148.66q2.85,3.72,2.13,9.94a34,34,0,0,1-4.12,12A38.73,38.73,0,0,1,366.74,184q-7.2,4.95-12.05,1.48-1.67-1.49-5.14-4.22a36.62,36.62,0,0,1-4.53-3.71q-3.37-3.09-2.82-9.65a32.62,32.62,0,0,1,4.13-12.64,36.39,36.39,0,0,1,8.74-10.9c3.8-3.07,7.6-4.59,11.43-4.58a5.22,5.22,0,0,1,2.26.73,37.07,37.07,0,0,1,4.95,3.77A47.3,47.3,0,0,1,380.09,148.66Zm-10.81,1.65c-1.23-.67-3.14.13-5.72,2.38a26.4,26.4,0,0,0-6,7.25,41.46,41.46,0,0,0-3.82,9.8c-.92,3.75-.87,6.06.13,6.93q1.94,1.65,6.42-2.53a38.81,38.81,0,0,0,7.53-10,27.72,27.72,0,0,0,2.66-7Q371.88,151.73,369.28,150.31Z"/><path d="M425.6,216a6.92,6.92,0,0,1-.79,2.76,3,3,0,0,1-3,1.79,5.82,5.82,0,0,1-1.81-.73,31.18,31.18,0,0,1-5.17-3.69c-1.9-1.62-3-2.76-3.18-3.44a1.44,1.44,0,0,1,.11-1,6,6,0,0,1,2.28-1.73,6,6,0,0,0,2.27-1.74q13.95-25.38,13.52-25.86c-.62-.62-3,.28-7.22,2.69q-6.92,3.93-9.31,8.33L406.42,206a9.11,9.11,0,0,1-.79,2.58,3,3,0,0,1-3.11,1.49,6.09,6.09,0,0,1-1.81-.73,32.23,32.23,0,0,1-5.17-3.69c-1.9-1.62-3-2.76-3.18-3.44a1,1,0,0,1,.08-.8,6.75,6.75,0,0,1,2.26-1.78,6.61,6.61,0,0,0,2.32-1.92q14-25.38,13.52-25.87-.78-.84-7.88,3.26-7.47,4.31-9.26,7.6l-6.56,12.07a3.14,3.14,0,0,1-.23,2.56,3.81,3.81,0,0,1-4.15,2.09,2.19,2.19,0,0,1-.89-.32,29.28,29.28,0,0,1-5-3.74q-3.12-2.73-3.25-3.47a2.08,2.08,0,0,1,.22-1.39,3,3,0,0,1,1.63-1.12,3.58,3.58,0,0,0,1.42-.74l16.31-30a3.12,3.12,0,0,0,.19-1.66,1.89,1.89,0,0,1,.43-1.6,2.94,2.94,0,0,1,3.07-.6c.82.23,2.4,1.39,4.74,3.5q3.81,3.4,3.63,4.73a3.82,3.82,0,0,1-1.37,2,18.41,18.41,0,0,0-2.15,2.18,5.6,5.6,0,0,0-.57,1.69,22.71,22.71,0,0,1,6-4.19c2.61-1.2,4.66-1.4,6.16-.58a18.56,18.56,0,0,1,5.07,4.84c1.77,2.3,2.72,4,2.87,5,.13.74-.25,2.54-1.16,5.4l6.27-3.88q4.11-2,6.23-.88a19.12,19.12,0,0,1,5.19,4.78c1.91,2.35,2.83,4,2.75,5.05Q440,189.54,425.6,216Z"/></svg>
