<svg id="Layer_1" data-name="Layer 1" xmlns="http://www.w3.org/2000/svg" viewBox="0 0 185 115"><defs><style>.cls-1{fill:#1f1f1f;}.cls-1,.cls-10,.cls-11,.cls-13,.cls-2,.cls-3,.cls-4,.cls-5,.cls-6,.cls-8,.cls-9{stroke:#000;stroke-miterlimit:10;}.cls-1,.cls-2{stroke-width:3px;}.cls-12,.cls-2{fill:#333;}.cls-3{fill:#a96147;}.cls-13,.cls-3{stroke-width:4px;}.cls-10,.cls-4{fill:#b3b3b3;}.cls-4,.cls-6{stroke-width:7px;}.cls-5,.cls-9{fill:#67362b;}.cls-6{fill:#eee;}.cls-7{fill:#ccc;}.cls-8{fill:gray;}.cls-10,.cls-8{stroke-width:2px;}.cls-9{stroke-width:1.5px;}.cls-11{fill:#884a3c;}.cls-13{fill:#8b493a;}</style></defs><title>Artboard 8</title><path class="cls-1" d="M164.72,111.56c7.76.64,14.8-3.61,17.22-10.33,2.33-6.47-.1-13.93-6.05-18.47L112.18,59.58a92.32,92.32,0,0,1-10.56,29Z"/><ellipse class="cls-2" cx="106.74" cy="74.13" rx="15.2" ry="4.97" transform="translate(0.86 149.49) rotate(-70.22)"/><path class="cls-3" d="M103.1,86.48A64.12,64.12,0,0,0,111.55,63L71.87,48.71l-8.45,23.5Z"/><ellipse class="cls-4" cx="31.35" cy="77.09" rx="10.24" ry="28.9" transform="translate(-51.86 78.05) rotate(-68.53)"/><path class="cls-5" d="M56.73,85.45l4.09-8.59a60,60,0,0,1-31.5-5.19A59.18,59.18,0,0,1,10,57.13C9,59.67,8.06,62.2,7.12,64.74A51.6,51.6,0,0,0,27,81.26,51.85,51.85,0,0,0,56.73,85.45Z"/><ellipse class="cls-6" cx="53.3" cy="19.31" rx="10.24" ry="27.78" transform="translate(15.82 61.85) rotate(-68.53)"/><ellipse class="cls-7" cx="51.13" cy="19.76" rx="7.86" ry="24.71" transform="translate(14.03 60.12) rotate(-68.53)"/><path class="cls-8" d="M77.44,32.21l-1,2.59a59.76,59.76,0,0,1-33.64-6.13,58.35,58.35,0,0,1-17.23-13.6l.93-2.14A53.42,53.42,0,0,0,50.66,30.15,53.27,53.27,0,0,0,77.44,32.21Z"/><path class="cls-5" d="M73.69,44.07l3-9.22a60,60,0,0,1-31.5-5.2A59.5,59.5,0,0,1,25.76,15.12l-2.82,7.6A54.06,54.06,0,0,0,42.82,39.24,54.58,54.58,0,0,0,73.69,44.07Z"/><path class="cls-9" d="M62,75.1c2.29-4.8,4.58-10.11,6.74-15.91,2-5.31,3.59-10.38,4.92-15.12a57.18,57.18,0,0,1-32.41-4.22A56.09,56.09,0,0,1,21.91,25.31c-2.11,4.86-4.2,10.05-6.2,15.56Q13,48.24,11,55.1A55.51,55.51,0,0,0,32.13,71.19,55.74,55.74,0,0,0,62,75.1Z"/><path class="cls-10" d="M73.78,42.3l-1,2.59a59.73,59.73,0,0,1-33.64-6.12,58.52,58.52,0,0,1-17.23-13.6L22.81,23A53.33,53.33,0,0,0,47,40.24,53.12,53.12,0,0,0,73.78,42.3Z"/><path class="cls-10" d="M62.35,74.7,60.6,77.37a62.59,62.59,0,0,1-33.37-7A61,61,0,0,1,10,56.82l.93-2.14a55.9,55.9,0,0,0,51.42,20Z"/><path class="cls-11" d="M10.72,51.56l3,1.08a31.69,31.69,0,0,0,5.2-9.2A31.53,31.53,0,0,0,20.78,33l-3-1.07a25.26,25.26,0,0,1-1.4,10.6A25.42,25.42,0,0,1,10.72,51.56Z"/><path class="cls-12" d="M161.24,103c9.31,4.69,18.84.36,20.71-5.08,1.77-5.17-2.5-13.77-11.75-16.52l-55.71-19.8a37.87,37.87,0,0,1-6.76,22.56Z"/><ellipse class="cls-13" cx="13.85" cy="41.52" rx="10.45" ry="3.18" transform="translate(-29.91 40.5) rotate(-70.22)"/></svg>
