<svg id="Layer_1" data-name="Layer 1" xmlns="http://www.w3.org/2000/svg" viewBox="0 0 302.55 169.47"><defs><style>.cls-1{fill:#f39131;stroke:#fff;stroke-miterlimit:10;stroke-width:4px;}.cls-2{fill:#1f2532;}</style></defs><title>help_1</title><path class="cls-1" d="M246.28,92c.21,17.17-9.09,34.59-18.86,38.37a77.57,77.57,0,0,1-13.34,3.59,33.27,33.27,0,0,0-.46,9.68,27.78,27.78,0,0,0,3.22,10.76,48.85,48.85,0,0,1-10.35-8.6,65,65,0,0,1-6.9-9,102.15,102.15,0,0,1-27.83,1.79c-11.06-.8-16.66-1.47-23-6.09-7.51-5.48-19.15-19.57-19.09-38.38.06-16.78,9.4-28.38,13.11-33,12-14.87,25.49-15.42,45.43-15.78,19.58-.36,32.27-.31,44,13.27C236.11,63.08,246.06,74.55,246.28,92Z"/><path class="cls-1" d="M16.21,64.3c-4.47,24.89,4,52.33,16.39,60.06a103,103,0,0,0,17.32,8.25,51.8,51.8,0,0,1-1.73,14.17,42.87,42.87,0,0,1-7,14.9,68.86,68.86,0,0,0,16.21-10.14A95.39,95.39,0,0,0,69,140.09a132.87,132.87,0,0,0,37.52,9c15.27,1.36,23.08,1.66,32.85-3.61,11.57-6.23,30.88-24,35.37-51.39,4-24.38-5.91-43.37-9.86-50.92-12.71-24.33-31-28.21-58.11-33.3C80.12,4.84,62.81,2,43.46,19.05,37.1,24.65,20.74,39,16.21,64.3Z"/><path class="cls-2" d="M109.24,34.17q5.51,4.29,5.5,10.3,0,5.6-6,16-8.1,13.8-9.7,18.1a8.32,8.32,0,0,0-.7,2.8,4.46,4.46,0,0,0,.2,1,3.16,3.16,0,0,1,.1,1.4c.07-.67.14.56.2,3.7a3,3,0,0,1-1.1,2.65,4.31,4.31,0,0,1-2.5.75A9.64,9.64,0,0,1,89,88.22a8.73,8.73,0,0,1-3.4-5.65q-.49-4.6,7.6-19.8,8.4-15.6,8.4-19.6c0-1.8-.46-2.7-1.4-2.7q-3.19,0-11,11.1A9.41,9.41,0,0,0,87.79,54a5.14,5.14,0,0,1-2.05,2.45,5.82,5.82,0,0,1-2.8.65,8.09,8.09,0,0,1-5.1-1.8,5.06,5.06,0,0,1-2.2-4.3q.21-4,4.8-5.8a79.85,79.85,0,0,1,9.2-9.7q5.7-4.61,10.9-4.6A14.19,14.19,0,0,1,109.24,34.17Zm-6.4,78.9a4.16,4.16,0,0,1-3.8,2.2,8.41,8.41,0,0,1-4.75-1.7,12,12,0,0,1-3.65-3.8,6.39,6.39,0,0,1-.8-3.2V103a13.75,13.75,0,0,0-.55-2.4,8.74,8.74,0,0,1-.45-2.2,3.21,3.21,0,0,1,.65-1.9c.44-.6,1.75-.9,4-.9q6,0,8,3.4a5.91,5.91,0,0,1,.8,3.2v3.4a20.44,20.44,0,0,0,.6,2.85,11.39,11.39,0,0,1,.5,2.75A3.8,3.8,0,0,1,102.84,113.07Z"/><path class="cls-2" d="M202.49,82.11a7.69,7.69,0,0,1-1.08,3,7.74,7.74,0,0,0-1.09,3.39v20.58a15,15,0,0,0,.77,4,15,15,0,0,1,.77,3.53,2.29,2.29,0,0,1-1.12,2.1,6.87,6.87,0,0,1-3.78,1.12,4.08,4.08,0,0,1-3.78-1.82q-1.47-2.23-1.47-13.37,0-2.66.11-8.29t.1-8.23a20.18,20.18,0,0,0-.21-2.55,19.53,19.53,0,0,1-.21-2.28,5.45,5.45,0,0,1,1.68-4,3.7,3.7,0,0,1,2.59-.7,12.43,12.43,0,0,1,3.78.6A4.66,4.66,0,0,1,202,80.57,2.74,2.74,0,0,1,202.49,82.11ZM201.58,65a1,1,0,0,1,.21.7,9.67,9.67,0,0,1-.42,2.17c-.33,1.26-.54,2.13-.63,2.59a12.84,12.84,0,0,0,.14,3.08A2,2,0,0,1,200,75.5a4.83,4.83,0,0,1-2.21.45,10.36,10.36,0,0,1-3.85-.77c-1.59-.65-2.38-1.51-2.38-2.59a3.47,3.47,0,0,1,.42-1.36,5,5,0,0,0,.49-1.44,13.23,13.23,0,0,0,0-2.8,2.57,2.57,0,0,1,.7-2.38,7,7,0,0,1,4-.84Q200.32,63.77,201.58,65Z"/></svg>
