<svg id="Layer_1" data-name="Layer 1" xmlns="http://www.w3.org/2000/svg" viewBox="0 0 960 960"><defs><style>.cls-1{fill:#ff9207;}.cls-2{fill:#f2c69c;}.cls-15,.cls-27,.cls-3{fill:#fff;}.cls-3{stroke:#28231f;}.cls-11,.cls-25,.cls-27,.cls-3,.cls-5{stroke-miterlimit:10;}.cls-4{fill:#68594a;}.cls-5,.cls-6{fill:#ebbf8d;}.cls-5{stroke:#28190c;}.cls-7{fill:#1f1403;}.cls-8{fill:#28190c;}.cls-9{fill:#594939;}.cls-10{fill:#d8995b;}.cls-11{fill:#e5e2e1;}.cls-11,.cls-27{stroke:#000;}.cls-12{fill:#3f2d20;}.cls-13{fill:#5b381e;}.cls-14{fill:#0a0806;opacity:0.49;isolation:isolate;}.cls-16{fill:#514337;}.cls-17{fill:#050505;}.cls-18{fill:#fcc07e;}.cls-19{fill:#1f2532;}.cls-20,.cls-25{fill:none;}.cls-21{fill:#9b928c;}.cls-22{fill:#280a07;}.cls-23{fill:#c1c4cd;}.cls-24{fill:#e1e6f0;}.cls-25{stroke:#160b0c;stroke-width:2px;}.cls-26{fill:#5e4d41;}.cls-27{stroke-width:4px;}</style></defs><title>maagodt</title><rect class="cls-1" x="-0.3" y="-0.93" width="960" height="960"/><path class="cls-2" d="M567,960.07H215.34A526.45,526.45,0,0,1,79.7,606.57c0-291.88,236.62-528.5,528.5-528.5A526.49,526.49,0,0,1,959.7,211.91V960.07H567Z"/><g id="mand"><g id="trøje"><path class="cls-3" d="M959.7,646.26V764.78c-2.83,3.32-1.33,12.75,0,23.68v56.82c-2,16.61-5.26,31-7.86,42.55-6.64,29.2-4.92,33.33-4.3,53.23.13,5.43.16,11.12.7,19H507.87A95.28,95.28,0,0,1,506.69,947c-.85-17.86,3.45-27.22,6.93-45.56,2.06-11.13.64-7.81,3.58-43.72,2.63-32.16,3.82-33.46,6.25-63,1.9-23,1.4-23.87,3.44-47.14,3.37-37.18-1.25-47.89,4.71-58.55,3.92-7.31,17.34-18.27,30.32-24.69,8.39-4.22,13-6.43,35-7.75,21.27-1.16,29.59-3.5,35.76-4.84,28.26-6.16,62.53-30.54,76.46-30.51h.16a11.84,11.84,0,0,1,1.24.09h0a5.72,5.72,0,0,1,2.36.83c2.27,1.43.65,3.12-2.13,5h0l-.22.15-.06,0h0l-.89.59c-5.58,3.51-13.8,7.62-8.56,11.92a63.16,63.16,0,0,1,14.78,15.91l9.56,5.7c.77-4.54,23.06,12.47,43.67,14,5.31.41,15.16-2.16,27.78-9.81,14.9-9,20-17,22.16-26.24,1.39-5.68-1.77-9.09-5.11-11.48h0c-.21-.15-.41-.29-.62-.42h0l-.32-.22h0c-.43-.26-.84-.53-1.24-.78h0a0,0,0,0,1,0,0c-2.93-1.8-5.19-3-3.59-4.53a13.44,13.44,0,0,1,4.55-2.74h0a6.51,6.51,0,0,1,.91-.32h0a2.51,2.51,0,0,1,.46-.16h0c21-6.41,74.94,10.57,131.5,23.82C951.13,643.94,955.78,645.14,959.7,646.26Z"/><path class="cls-4" d="M959.66,722.38a1,1,0,0,1,0-.29V724A14,14,0,0,1,959.66,722.38Z"/><path class="cls-4" d="M605.72,912.28c-2.71-1.76-6.38,4-16,5.3-3.25.44-5.44.06-6.16,1.49-1,1.91,1,5.56,3.72,7.48,5.43,3.68,15.92,1.24,18.93-5.41C607.51,918.13,607.8,913.6,605.72,912.28Z"/><path class="cls-4" d="M620.1,957.33c0,1,0,1.87,0,2.74h-7.29c-.31-10.23-.75-19.82-1.15-24.5-.5-7.09-2-11.09-4.55-17.31l0,0h0c-.77-1.84-1.63-3.87-2.58-6.24h0a302.28,302.28,0,0,1-10.94-33.11c-6-21.4-6.47-34-8.48-45.58-2.4-13.28-5.36-25.62-7.45-51.07-1.17-14.11-1.94-25.44-3.69-46.39-1-12.72,6.12-6.62,6.43-6.63.78-.18-.12,20.71,5.76,55.33,11.48,66.63,10.35,61.54,11.31,66.33Z"/></g><path class="cls-5" d="M571.32,392.25c12.56-1.12,24.23,14.61,26.91,35.52a1.9,1.9,0,0,1,1.38-.68c3.73-.14,7.14,11.39,7.7,25.69a72,72,0,0,1-1.17,17.79c6.75,17.32,6.43,33.05-1.51,36.94-9.31,4.57-25.38-8.34-35.84-28.94A92.87,92.87,0,0,1,563.47,466c-6.34-6.91-11.14-18.24-12.28-31.43C549.23,412.41,558.29,393.38,571.32,392.25Z"/><path class="cls-5" d="M929.43,372.13c-12.62-.13-23,16.47-24.06,37.52a1.87,1.87,0,0,0-1.42-.57c-3.73.15-6.22,11.92-5.66,26.22a71.48,71.48,0,0,0,2.56,17.64c-5.38,17.8-3.83,33.45,4.39,36.71,9.65,3.83,24.66-10.3,33.47-31.66A92.52,92.52,0,0,0,943,445.06c5.78-7.39,9.68-19.06,9.78-32.29C952.87,390.51,942.5,372.24,929.43,372.13Z"/><path class="cls-5" d="M697,627.16a14.65,14.65,0,0,0-1.82,9.1c.2,1.23.59,3.24,6.12,9.25s8.45,9.16,10.38,10.64c7.85,5.92,8.18,6.37,17.61,12.7,5.76,3.82,6.18,2.71,11.91,6.07a65.78,65.78,0,0,0,17.1,7.42c2.52.52,7,0,12.43-.64,6.2-.71,10.31-3.05,18.22-7.57,5.63-3.33,12.34-7,19.53-14,6-5.69,5-6.58,11.2-12.11,3.76-3.26,6.65-5.09,8.66-9.37.58-1.11,3.16-6.66,1.18-9.54-3.14-4.7-21-2.6-25-1.36-8.93,2.53-17.67,5.83-30.17,8.5s-26.24,1.81-35.8.16C712.08,632,701.91,618.71,697,627.16Z"/><path class="cls-6" d="M798,648.72l-70.86,2.78a16.66,16.66,0,0,1-17.28-16L704.49,498a16.66,16.66,0,0,1,16-17.28l70.86-2.78a16.66,16.66,0,0,1,17.28,16L814,631.44A16.66,16.66,0,0,1,798,648.72Z"/><path class="cls-5" d="M904.85,392.39a180.24,180.24,0,0,0,3-41.36c-3.68-93.86-77.06-167.09-164.08-163.67s-154.44,82.16-150.76,176a175.43,175.43,0,0,0,5.71,38.38c-.19,7-.23,14,.05,21.16a265.13,265.13,0,0,0,18,86.92c16,57.73,62.19,101.37,118.41,110.37A114.19,114.19,0,0,0,760.56,622l.93,0,1.24-.05c78.17-3.07,139.3-71.3,139.65-153.8a272.16,272.16,0,0,0,3.82-57.27C906,404.65,905.56,398.44,904.85,392.39Z"/><path class="cls-7" d="M602.35,437.57c3.69-1.24,3.28-23.48-3.73-43.59-1.94-5.84-4.48-11-3.68-18.53.45-4.22,2-8.17,5.29-15.93,4.55-10.92,6.8-13,7.64-19.44.12-.94.23-2-.47-11.81-1-14.28-1.6-17.06-1.91-25-.38-9.63-.57-14.45.67-18.7.68-2.36,3.74-11.66,12.57-16.68,4.27-2.34,8-2.8,12.63-3.45,6.66-.88,9.34.1,19.17.65,6.24.38,10.75.35,19.61.16,8.4-.17,10.11-.39,20.52-.8,17.87-.7,18.36.06,27.52-.61,9.31-.68,8.82-1.28,27.39-4,9.13-1.29,18.43-2.28,37.18-4.41,12.86-1.44,19.37-2.16,24.5-2.36,9.63-.54,16.17-.48,29.41-.22,15.26.33,18.71,1,22.66,2.53a35.78,35.78,0,0,1,14.59,10.79c4.58,5.74,6.2,11.27,7.47,15.89a62.63,62.63,0,0,1,2.09,17.66c.13,7.16-.79,7.66-.37,14.18.18,4.82.52,9.48,2.59,14.69,2.08,5.36,3.63,5.15,7.81,12.45,1.84,3.35,5.34,9.29,7,16.85,1.13,5.09.75,7.28,1.1,16.14.46,11.81,1.22,11.16,1.76,21.1.93,15.68-.43,20.71,1.78,21.56,2.85,1.13,9-4.71,10.3-11.14.65-3.3-.33-4.66-.4-10.26-.11-2.8.24-5.92,1.54-12.35,2.1-10.05,4.6-17.62,7.36-26.75,3.85-12.91,5.77-19.37,6.34-24.84.58-4.85.18-11.06-.46-23.48-1.16-21.59-2.74-26.36-4.1-29.26-2.57-5.81-4-6.07-6.41-12.51-3.47-9.2-1.56-12.08-3.74-19.93-3.46-12.94-12.82-21.44-16.69-24.87-8.39-7.61-10.64-5.34-16.2-12.13-4.41-5.43-3.9-8.25-11-19.64-7-11.4-9.33-11.62-10.25-11.43-2.78.73-2,8.49-4.63,9.06s-3.55-7.18-10.74-11.88c-5.43-3.52-7.82-1.09-13.9-5.37-4.64-3.24-6.18-6.6-8-6.06-2.47.72-.52,6.71-3.54,9-3.18,2.3-8.35-2.48-18.92-6.11-5.68-2-4.22-.61-23.68-4.52-11.6-2.34-12.72-2.92-17.86-3.19-5.3-.26-5.75.23-17.1.67-7.46.3-7.31,0-20.06.32-11.35.29-17,.36-20.05.79-7.27,1.06-12.49,2.82-20.94,5.8a132.28,132.28,0,0,0-19.76,8.09c-8.84,4.71-7.86,5.76-15.81,9.49-3.67,1.7-7,2.92-15.91,7a44.57,44.57,0,0,0-7.62,4.19,30.79,30.79,0,0,0-7.5,7.14c-3.26,4.17-2.24,6.47-5.52,10-1.2,1.29-1.81,1.47-4.84,3.62-5,3.46-8.63,6.09-11.91,9.8-3,3.23-4.58,6.25-6.9,10.54a75.49,75.49,0,0,0-4,8.57c-3,7-2.49,7.72-4.92,13.42-2.26,5.69-2.76,4.93-6.78,13.49A80,80,0,0,0,566,283.51c-.4,1.73-.52,2.51-1.32,10-1.39,12.19-1.38,12.35-1.5,13.28-.38,6.09.4,10.1.91,15.22,2.12,18.28-.37,18.38,1.79,29.81,1.19,6.65,3.45,12.47,7.94,24,2.6,6.75,5.33,12.86,9.27,21.89,6.31,14.23,6.28,13.3,7.34,16.68,1.82,6.62,2,11.28,6,17.2C597.85,433.85,600.66,438.1,602.35,437.57Z"/><rect class="cls-8" x="812.59" y="611.08" width="1.4" height="16.48" transform="translate(-23.65 32.36) rotate(-2.25)"/><rect class="cls-8" x="709.14" y="613.58" width="1.4" height="13.84" transform="translate(-23.78 28.3) rotate(-2.25)"/><path class="cls-9" d="M910.24,454.44c1.09,4,2.91,6.58,5.09,6.8,5,.58,10.34-10.21,12-24,1.64-13.92-1-25.49-5.85-26.07-2.66-.37-5.64,2.86-7.93,8.09-.32-.3-.48-.45-.79-.44a2.61,2.61,0,0,0-1.23.52c2.82-7.58,6.83-12.41,10.74-11.94,6.1.7,9.43,14.11,7.4,29.9-1.87,15.8-8.39,28-14.34,27.34-3-.35-5.28-3.84-6.74-9.23A2.42,2.42,0,0,0,910.24,454.44Z"/><path class="cls-9" d="M913.22,403.43c10.47-11,15.86-16.34,16.34-15.9s-4.53,7.34-15.22,20.52Z"/><path class="cls-9" d="M596.89,472.8c-.78,4.08-2.38,6.79-4.55,7.18-4.94,1-11.1-9.37-13.81-23s-1-25.48,3.78-26.45c2.63-.57,5.86,2.42,8.54,7.45.3-.32.45-.49.76-.5a2.51,2.51,0,0,1,1.26.42c-3.4-7.34-7.78-11.84-11.64-11.06-6,1.17-8.29,14.8-5,30.39,3.1,15.6,10.57,27.29,16.43,26.12,2.94-.58,5-4.24,6-9.72A2.39,2.39,0,0,1,596.89,472.8Z"/><path class="cls-9" d="M589.92,422.18c-11.29-10.14-17.09-15.05-17.53-14.56s5.09,6.95,16.78,19.26Z"/><ellipse class="cls-10" cx="586.38" cy="455.02" rx="8.4" ry="27.22" transform="translate(-82.64 133.61) rotate(-12.15)"/><ellipse class="cls-10" cx="918.76" cy="436.73" rx="27.22" ry="9.02" transform="translate(363.49 1289.1) rotate(-82.34)"/><path class="cls-7" d="M777.32,355.06c-1.13,3-1,7.36,1.28,8.82,2.55,1.62,6.68-.41,13.12-2.84,2.6-1,7.51-3,18.49-4.78,14.07-2.26,21.34-3.48,26.32-3.52,8.09-.16,12.6-.18,18.28,1.77,11.83,4.05,17.78,13,19.59,11.53,1.21-1-.84-5.72-2.83-8.76a26.64,26.64,0,0,0-9.67-8.49c-11.14-6.26-19-8.28-20.73-8.53-4.53-.6-13.67.54-26.71,1.52-10.54.88-18.6,1.82-27.8,5.45C782.38,349.11,778.72,351.12,777.32,355.06Z"/><path class="cls-11" d="M828.51,378.58c2.18-.09,6.67-.57,8.86-.5,22.15,1.31,38.49,13.12,39.16,30.21h-.16l-4.78,5.16-4.92,5.33v-.15a8,8,0,0,1-4.75,1.9l-60.29,2.36-.63,0h0l-3,0-4.31-2.64a8.92,8.92,0,0,1-2.9-2.53l-4.9-5.88c-.6-15.22,11.36-27.83,29.54-32.44C819.33,378.47,824.16,378.75,828.51,378.58Z"/><circle class="cls-12" cx="829.36" cy="400.02" r="20.68"/><circle class="cls-13" cx="829.36" cy="400.02" r="18.97"/><circle class="cls-14" cx="829.36" cy="400.02" r="10.11"/><circle class="cls-15" cx="832.76" cy="391.64" r="4.35"/><path class="cls-7" d="M722.76,360.63c1.35,2.9,1.53,7.25-.59,8.89-2.42,1.81-6.69.11-13.3-1.81-2.68-.83-7.72-2.34-18.81-3.31-14.2-1.15-21.54-1.8-26.51-1.45-8.08.47-12.58.81-18.09,3.2-11.47,5-16.71,14.35-18.63,13-1.28-.89.4-5.78,2.14-9a26.57,26.57,0,0,1,9-9.22c10.61-7.11,18.29-9.75,20-10.12,4.48-1,13.67-.54,26.75-.59,10.58,0,18.69.36,28.14,3.26C717.25,355.24,721.06,357,722.76,360.63Z"/><path class="cls-14" d="M642.92,392.55a43.45,43.45,0,0,1,7.15-4.17,41.64,41.64,0,0,1,5.83-2.25,68.76,68.76,0,0,1,7.11-1.21c6.5-1,5.56-1.16,7.73-1.24,2-.24,2-.08,10.59.05,4.52.14,5.45.1,7.32.18a39.23,39.23,0,0,1,6.89,1Z"/><path class="cls-16" d="M773.41,402.22c-1.08.2-2.67,7.26-2.15,12.69,0,1.24-.35,2.82,1.89,12.38,1.69,7.4,2.46,11.11,3.54,14.8,1.44,4.92,2.65,8.14,3.7,10.9,1.57,4.46,2.43,6.6,2.74,6.59.62-.18-1.14-5.25-3-13.42-1.14-5.09-3.23-10.77-4.25-17-.62-3.86-2.23-9.25-2.57-14.06C772.88,408.47,774.35,402.18,773.41,402.22Z"/><path class="cls-16" d="M801.53,480.34a10.2,10.2,0,0,1,2.42,6L804,488a9.54,9.54,0,0,1-8.95,10l-19.27.76a9.06,9.06,0,0,1-4,2.33,15,15,0,0,1-12.61,7.65A15.17,15.17,0,0,1,746,502a8,8,0,0,1-3.81-2l-19.43.76a9.53,9.53,0,0,1-9.7-9.27l-.07-1.71a9.37,9.37,0,0,1,1.5-5.5,9.23,9.23,0,0,0-2.68,6.95l.06,1.71a9.69,9.69,0,0,0,10,9.25l19.89-.78a8.48,8.48,0,0,0,4,2,16,16,0,0,0,26.73-.9,8.78,8.78,0,0,0,4.11-2.34l19.74-.77a9.69,9.69,0,0,0,9.25-10l-.06-1.71A10.51,10.51,0,0,0,801.53,480.34Z"/><path class="cls-11" d="M676.37,388.28c-2.17.09-6.69,0-8.86.2-22,3-37.35,16.09-36.68,33.18H631l5.17,4.78,5.33,4.92v-.15a8,8,0,0,0,4.88,1.52l60.3-2.37.62,0h0l3-.27,4.08-3a9.13,9.13,0,0,0,2.7-2.76l4.42-6.24c-.6-15.23-13.5-26.86-32-30C685.52,387.46,680.72,388.11,676.37,388.28Z"/><path class="cls-14" d="M865.64,380.7a43.86,43.86,0,0,0-7.46-3.6,41.24,41.24,0,0,0-6-1.78,69.58,69.58,0,0,0-7.19-.66c-6.55-.52-5.63-.71-7.8-.62-2-.08-2,.08-10.55.88-4.5.48-5.43.52-7.29.75a39,39,0,0,0-6.78,1.51Z"/><path class="cls-17" d="M920.89,344.92c-.16-.15-.49-.45-.49-.61-4.06-4.19-7.82-5-10.54-6.74-1.28-.88-.81-.9-6.77-10-4.81-7.44-6.11-8.94-7.12-10.77,1.47-2.24,2.25-6.16,1.92-10.5a.55.55,0,0,0,.46-.18c2.27-1.8-3.07-14.82-8.22-23.17a40,40,0,0,1-4.26-9.33c-1.24-3.84-2.12-6.61-.82-9.15,2-4.28,8.37-4.69,8.18-5.77s-5.78-.55-14-2.41c-3-.66-3.78-1.1-4-1.87-.57-2.62,11.42-6.36,11-7.75-.53-1.69-18.29,1.81-18.66.27-.19-.77,5.38-1.61,8.16-6.24,2-3.34.58-8.89.58-8.89s-15.66,17.27-17.58,15.94l-.16-.15c-1.35-2.59,2.12-9.42,3-13.66,1.45-6.59-5-15.05-5-15.05S845.24,245.63,841.64,245c-3.29-.64-.85-25.64-3-25.87-2-.23-5.8,22.64-8.92,22.45-2.66-.2-2.54-17.17-5.67-17.52s-7,16.31-8.24,16c-.79-.13,1.33-5.82-.48-12.28-1.83-6.93-7.35-12.79-9.81-11.91-1.38.52-1,2.53-2.18,7.87-1.45,6.59-2.77,12.71-7.16,16-3,2.14-7.95,3.42-10.22,1.33s.24-5.92-1.41-12.24c-1.82-6.78-9.79-11.44-9.79-11.44a39.16,39.16,0,0,1-2.92,12.87,24.94,24.94,0,0,1-6.49,9.13c-6.14-9.88-6.85-12-6.85-12-2.11-6.14.32-7.79-1.84-11.29-3.16-5-14.36-4.88-14.36-4.88s-.53,6.25.75,19.11c1.08,11.48,1.85,19.39-1.65,21.23-2.9,1.52-7.84-1.4-10.46-4.57-3.26-3.76-2.62-7.52-4-14-2-10.35-9.66-20.17-9.66-20.17s-1.48,1.93-3.7,16.8c-1.72,11.59-1.94,13.93-3.33,14.29-4.92,1.6-16-19.76-17.4-18.92-.91.5,5.24,10.37,2.54,13.13-3.74,3.88-22.57-8-22.86-7.51-.14.31,6,2.72,10.6,8.45,3.44,4.23,8,12.3,5.61,16-5.87,9-51.66-11.51-52.94-8.66-.58,1.27,8.47,5.74,7.6,7.48-.43.95-3.1.28-7.3.29a38,38,0,0,0-16,4c-2.75,1.35-5.15,3.47-10,7.71-4.36,3.75-6.62,5.7-7.48,7.61-2.31,4.6-.2,6.7-2.43,13.32-1.25,3.94-2,3.35-3.6,7.46-.85,2.21-3.25,8.53-1.89,15.32,1.19,6.49,4.28,6.06,4.79,11.18.27,2.79-.45,4.22-6.2,16.43-4.46,9.35-4.3,9.35-5,10.47-1.6,2.7-10.66,13.8-11.71,18.66-.27,1.1,2.47,11.42,8.08,23.66,7.51,16.82,16.66,35.76,15.76,36.57l1.57.57c.72-13.57-3-24.17-3.89-31.76-1.51-14.72-1-20.66,1.79-29.95,2.59-9.13,3.39-8.69,5.65-18.43.8-3.46.73-5.32,0-23-.75-19.11-.93-19.73-.4-22.08,3-13.82,13.15-21.84,14.82-23.15,6.79-5.25,13.91-10.35,16.69-10.93a55,55,0,0,1,17.68-1.62,183.46,183.46,0,0,0,34.36-.89c10.84-1.35,5.59-.37,23.44-1.38,12.12-.63,12.12-.63,31.84-1.72,15.69-.77,21.71-2.09,34-2.27,15.08-.28,12.87-1.12,20.32-1.73,11-1,16.13-1.41,30.9-1.68,12.44-.33,9.61-1,18.15-1.64,8.37-.8,11.88,1.4,19.46,8.11,4.68,4.17,9.08,5.24,10.62,8.92,3.93,8.87,3.8,13.39,5.39,18.31a29.85,29.85,0,0,0,.54,9.78,25.62,25.62,0,0,0,1.61,5.23c.25,2.64.9,7.12,2.29,14.85,1.23,7.42,1.42,8.35,1.78,9.74a58.55,58.55,0,0,0,6,13.46c4.51,7.76,6.36,7.53,7.8,12.45.72,2.47.85,5.73,1,12.26a109,109,0,0,0,.55,14.14,23,23,0,0,0,1.67,6.79s11.45-9.64,15.38-20.68C923.82,360.06,925,349.74,920.89,344.92Z"/><path class="cls-17" d="M903.53,259.38s8.51,2.93,10.32,1.46c2.11-1.8-3.41-11.7-4.75-14.13-2.85-5.18-7-11.25-14.15-19.37-5.2-5.71-12.53-14-15.27-12.47-1.67,1,.2,5.12-2.53,10.83a14.63,14.63,0,0,1-4.78,5.33,35.78,35.78,0,0,0,2.3-16.9c0-.62,0,.15-3.08-10.93-.72-2.62-1.27-4.62-3-5.64-1.27-.73-3.47-1.27-4.83-.12-3.18,2.3,1,9.92-2.46,12.54-.91.66-3.25.44-3.25.44s1.46-6.44-1-10.23c-.82-1.21-1.45-1.19-3-2.52-3.39-3-2.9-6.27-4.76-10.25-2.39-5.19-7.15-7.65-14.46-11.57-4.3-2.32-7-3.61-8.2-2.63-2.86,2.44,3.87,15.41,3.42,15.74-.46.17-3.36-10.3-12.32-16.33-1.11-.73-2.87-1.75-10.11-4a191.31,191.31,0,0,0-24.67-5.88c-11.9-1.87-24.11-3.72-25.1-1-1,3.15,14,10.81,13.68,11.29s-12.62-8.06-28.91-10.85c-4.86-.74-8.85.66-16.32.49-12.47-.29-27-2.52-27-1-.09,1.72,23.35,3.91,23.22,4.54s-19.12.75-34.25-.06c-3.43-.18-7.74,1.08-13.06,4.25-3,1.83-3.24.75-7,3.39-5,3.46-8.27,3.43-14.63,7.73-2.73,1.82-4.84,3.62-3.91,3.58,5.29,0,18.66,3.62,18.66,3.47s-12.81-1.06-27.2.91a43.06,43.06,0,0,0-20.44,14.65c-1.77,2.56-3.85,5.13-2.83,7.12,1,2.14,4.9,2.14,4.92,2.61-.13.62-5.32-.73-9.89,1.63-1.83,1-1.65,1.62-4.94,5-4.05,4-5.13,4.09-9.33,8.15-3.9,3.73-5.69,5.67-5.76,7.85,0,3.89,4.69,8.69,8.74,8.68,8.25,0,13.23,0,13.22-.2,0,0-7.23,2.15-16.75,5.48-2.45.87-1,1.13-9.91,9.1-2.11,1.8-5.72,5.05-10.38,9.28-5.71,5.2-5.93,7.39-7.07,10.08-1,2.38-2.36,3.36-2.5,7.88-1,17.63-1.06,16.54-1,17.78.14,3.58.34,4.66,1.08,11.64.23,2,3.28,4.22,2.62,7.21-.82,3-.39,5.93-.32,7.79,1,9.77,0,7.94.58,10.72,1.55,7.87,3.83,14.48,2.78,23.23-.12.94-.61,4.54-1.08,4.4-.62,0-1.11-4.47-1.32-6-1.44-12.71-3.7-14.8-6.24-32.13a170.71,170.71,0,0,1-2.3-26.68c-.13-11.36,0-17,2.2-23.28,3-7.89,5.9-8.32,10-19.38,1.41-3.79,1.65-5.51,4.32-12.93a107.66,107.66,0,0,1,4.82-12,48.88,48.88,0,0,1,8.57-11.54c6.44-6.48,8.68-5,14.8-11.63,2.54-2.74,3.11-4,7.59-9a64.32,64.32,0,0,1,6.43-6.48,67.3,67.3,0,0,1,14.09-9.89c6.55-3.68,6.4-3.36,12.49-7,4.1-2.49,8.06-4.83,10.93-6.81,5.61-4,6.2-4.75,8.94-6.26a40.26,40.26,0,0,1,10.59-3.84c9.26-1.92,13,1.2,17.36-1.93,3-2.14,2.32-4.29,5.52-6,3.05-1.52,5.27-.68,11.2-.13,6.25.53,4.81-.35,16.81,0,9.66.25,6.41.84,12.17.77,2.8,0,4.67,0,6.73,1,2.07,1.17,3.06,2.68,4.3,2.48,1.39-.37,1.31-2.23,2.86-2.45.77-.18,1.26.42,2.36.69a8.16,8.16,0,0,0,4-.32c3.07-.9,7.17.5,12.35,1.39,7.67,1.25,7-.12,13.89,1.16,1.1.12,5,1.36,13.22,3.69,9.13,2.6,10.07,2.87,11.82,3.74,5.08,2.44,7.51,5,8.42,4.33,1.66-1.31-2.45-10.79-2.45-10.79a137.92,137.92,0,0,1,15.42,8.11c10.5,6,12.69,6.19,15.81,10.27,3.77,4.83,4.43,9.79,5.82,9.58,2.33-.25,2.92-12.88,2.92-12.88S870,186.76,873.65,196c1.56,4.14,2.66,8.45,6.85,12.18a25.81,25.81,0,0,0,5.43,3.52,60,60,0,0,1,18,14.55,62.31,62.31,0,0,1,11.83,19.92c2.94,7.67,4.34,11.51,3.92,16.66-.34,3.28-1.17,6,.35,8.86,1.68,3.2,6.15,6.14,6.15,6.14a50.4,50.4,0,0,1,.1,10.42c-1.23,8.3,1.09,8.05,1,21.75,0,10.9-1.52,8.93-1.08,16.07.63,8.07,2.72,13.9-.69,18.08a22.23,22.23,0,0,1-2.73,1.82,151.33,151.33,0,0,1-.26-22.4c.19-3.12,0-11.21-.3-27.38-.13-3.42-.12-7-1.7-11.61-.52-1.38-.67-1.37-6.18-10.8-4.16-7-5.34-9.13-8-9.81Z"/><path class="cls-17" d="M577.72,285.7a25.51,25.51,0,0,1,3.42-7.92c1.47-2.39,3.11-4,6.42-6.94,3.31-3.09,5-3.93,6-6.46.13-.48.6-4.38.6-4.38-1.28-1-6.15,1.79-9.44,5.19-2.7,2.75-2.05,3.5-5.17,7.21-3,3.38-4.37,3.59-4.91,5.64C573.51,281.66,577.72,285.7,577.72,285.7Z"/><path class="cls-17" d="M601.4,234.65s1.13,1.2,10.68-1.51c7.38-2.15,8-2.95,13.82-4.58,7.55-2.17,17.77-3.35,21.11-5.5,2.74-1.66,5.65-2.87,7-4.63l-7.8-.32-9.38-5.23,19.9-8.41c6-1.79,8.92-2.69,13.08-3.78,10.94-2.77,13.42-3,13.55-3.8.09-1.72-11.35-3.6-20.69-3.55a50.12,50.12,0,0,0-9.93.7,46.89,46.89,0,0,0-13.05,4.56,34.8,34.8,0,0,0-12.51,10.45c-5,6.89-2.87,10.08-7.26,13.2-4.69,3.46-13.82,4.9-13.82,4.9Z"/><path class="cls-17" d="M664.31,183.94a130,130,0,0,1,19.45,0c5,.27,8.29,1.08,13.79,2.42,21.38,5.23,36.8,13.65,37.68,12.22.72-1.43-13.29-9.44-11.86-12.77,1-2.53,9.93-.85,10.18-2.26.4-1.73-12.44-3.72-12.78-8.37-.25-2.48,2.91-5.25,6-5.69,4.33-.79,8.21,2.79,12.41,6.83,7.93,7.78,8.1,12.13,15.86,19.3,4.2,3.88,9,7,9.89,6.31.75-.81-3.16-5.17-7.86-14-3.69-6.86-6.21-11.59-4.58-13.52,2.53-3.06,13.54,3.83,14.12,2.71s-8.16-9.64-20.72-12.41a35.79,35.79,0,0,0-17.28-.1C719.52,167,718,172,710.53,172c-4.82,0-5.06-2-12.24-2.48a55.12,55.12,0,0,0-12.42.8c-6.49,1-9.74,1.47-13.09,3.47C667.75,176.49,664.31,183.94,664.31,183.94Z"/><path class="cls-17" d="M788.24,173.16c1.49,10.22,16.81,15.84,16.81,15.84s-1-10.39.65-11.08c2.45-1,13.58,16.75,13.58,16.75s-3.53-14.49-2.46-15c1.53-.69,14.69,25.26,14.69,25.26s.14-12.15-6.77-21.84a40.13,40.13,0,0,0-11.47-10.6c-8.29-5.12-21.2-8.82-24.45-4.49C787.78,169.44,788,171.3,788.24,173.16Z"/><path class="cls-17" d="M831.72,182.51c-.55,1.89,13.22,11.62,13.22,11.62s2.11,2.4,2.42,2.24c1.22-.67-7.59-14.8-7.59-14.8S832.13,181.09,831.72,182.51Z"/><path class="cls-17" d="M883.28,227.33a43.21,43.21,0,0,0-5.37,2.08s.64,4.33,1.31,5.4a10.88,10.88,0,0,0,4.21,4.19A90.27,90.27,0,0,0,901,247.18S893.08,227.26,883.28,227.33Z"/><circle class="cls-12" cx="677.06" cy="409.89" r="20.68"/><circle class="cls-13" cx="677.06" cy="409.89" r="18.97"/><circle class="cls-14" cx="677.06" cy="409.89" r="10.11"/><circle class="cls-15" cx="673" cy="401.64" r="4.35"/><path class="cls-1" d="M853,816.14l-140.17,5.5a4.32,4.32,0,0,0-4.13,4.46l1.88,48.09a4.33,4.33,0,0,0,4.47,4.13l17.19-.68,123-4.82a4.32,4.32,0,0,0,4.12-4.47l-1.88-48.09A4.46,4.46,0,0,0,853,816.14Z"/><polygon class="cls-1" points="751.05 876.7 741.63 877.07 732.02 877.45 732.56 891.36 751.05 876.7"/><path class="cls-2" d="M741.41,845.31l-3.51-.88a3.57,3.57,0,0,1,2-6.85l3.52.89a4.56,4.56,0,0,1,1.68,1l1.88-4.17-4-1.9-3.91-.46a7.76,7.76,0,0,0-9.19,6.1l-.15,1.24a7.76,7.76,0,0,0,6.1,9.19l5,1.23,2.06-5A6.77,6.77,0,0,1,741.41,845.31Z"/><path class="cls-2" d="M736.24,849.2l3.32,1.1a3.6,3.6,0,0,1,2.43,4.42c-.54,1.86-2.57,2.56-4.42,2.42l-3.32-1.09a11.28,11.28,0,0,1-2.72-1.54l-3.1,4.63,2.52,1.54,2.51,1.34,2.28.73,1.85.13c4.15,1.07,9.53-2.83,10.39-7l.37-1a7.81,7.81,0,0,0-5.7-9.41l-5-1-2.07,4.8C735.62,849,736,849,736.24,849.2Z"/><rect class="cls-2" x="753.16" y="832.43" width="6.76" height="29.08" transform="translate(-32.62 30.31) rotate(-2.25)"/><rect class="cls-2" x="774.86" y="831.58" width="6.76" height="29.08" transform="translate(-32.57 31.16) rotate(-2.25)"/><rect class="cls-2" x="816.19" y="829.96" width="6.76" height="29.08" transform="translate(-32.47 32.78) rotate(-2.25)"/><polygon class="cls-2" points="800.18 833.37 798.52 838.15 791.39 860.16 785.25 860.4 794.57 831.54 797.89 832.64 800.18 833.37"/><polygon class="cls-18" points="813.69 859.28 807.35 859.53 798.52 838.15 796.49 833.31 797.89 832.64 801.73 831.06 813.69 859.28"/><rect class="cls-2" x="794.61" y="830.79" width="7.17" height="3.28" transform="translate(-32.02 31.93) rotate(-2.25)"/><rect class="cls-2" x="792.9" y="848.96" width="13.93" height="5.32" transform="translate(-32.77 32.01) rotate(-2.25)"/><polygon class="cls-2" points="780.58 856.28 775.64 860.98 758.44 840.54 754.36 835.79 755.75 834.71 758.95 832.53 780.58 856.28"/><polygon class="cls-2" points="841.93 858.17 825.64 839.96 821.29 843.82 834.36 858.47 841.93 858.17"/><polygon class="cls-2" points="832.4 829.45 821.3 844.23 825.74 847.74 839.37 829.38 839.16 829.18 832.4 829.45"/><path class="cls-19" d="M850.78,759.66l-166.17,6.52a4.32,4.32,0,0,0-4.13,4.46l1.88,47.89a4.32,4.32,0,0,0,4.47,4.12l10-.39L853,816.14a4.33,4.33,0,0,0,4.13-4.47l-1.89-48.09A4.42,4.42,0,0,0,850.78,759.66Z"/><polygon class="cls-19" points="715.89 821.51 706.27 821.89 696.86 822.26 697.4 836.18 715.89 821.51"/><path class="cls-20" d="M704.63,780.15c.37,9.41.94,18.82,1.31,28.23v.2"/><polyline class="cls-20" points="716.07 779.08 703.99 779.56 705.13 808.62 712.29 808.33 711.91 798.51 719.48 798.21"/><polyline class="cls-20" points="715.57 792.63 711.48 792.79 711.17 784.81 715.67 784.63"/><rect class="cls-21" x="704.56" y="779.41" width="7.17" height="29.08" transform="translate(-30.58 28.37) rotate(-2.25)"/><rect class="cls-21" x="756.13" y="777.38" width="7.17" height="29.08" transform="translate(-30.46 30.39) rotate(-2.25)"/><rect class="cls-21" x="826.53" y="774.83" width="7.17" height="29.08" transform="translate(-30.3 33.15) rotate(-2.25)"/><rect class="cls-21" x="819.45" y="774.67" width="20.07" height="5.94" transform="translate(-29.84 33.11) rotate(-2.25)"/><polygon class="cls-21" points="766.82 777.09 766.87 778.52 778.66 802.04 784.87 798.52 774.39 776.79 766.82 777.09"/><polygon class="cls-21" points="796.9 776.12 796.93 776.73 787.61 800.46 781.15 797.64 788.72 776.44 796.9 776.12"/><polygon class="cls-21" points="776.88 798.63 787.94 798.4 785.55 805.46 780.23 805.67 776.88 798.63"/><polygon class="cls-21" points="808.67 778.32 807.02 783.1 799.88 804.9 793.74 805.14 803.07 776.49 806.39 777.59 808.67 778.32"/><polygon class="cls-21" points="822.18 804.02 816.04 804.26 807.02 783.1 804.97 778.05 806.39 777.59 810.42 775.79 822.18 804.02"/><rect class="cls-21" x="803.1" y="775.53" width="7.17" height="3.28" transform="translate(-29.84 32.22) rotate(-2.25)"/><rect class="cls-21" x="801.4" y="793.91" width="13.93" height="5.32" transform="matrix(1, -0.04, 0.04, 1, -30.6, 32.3)"/><path class="cls-21" d="M725.41,787.12a8.1,8.1,0,0,0-8.52-7.87l-3.89.15a7.86,7.86,0,0,0-1.83.3h0a8.21,8.21,0,0,0-6,8.22l.11,2.65a8.21,8.21,0,0,0,6.64,7.72h0a8,8,0,0,0,1.84.15h0l3.89-.15a8.22,8.22,0,0,0,7.87-8.52Zm-11.07,5.55-2.46.1-.31-7.77,2.46-.09c2.25-.3,3.94,1.27,4,3.72A4,4,0,0,1,714.34,792.67Z"/><rect class="cls-21" x="729.73" y="778.42" width="7.17" height="29.08" transform="translate(-30.52 29.35) rotate(-2.25)"/><path class="cls-21" d="M749.75,786a8.21,8.21,0,0,0-8.52-7.86l-3.88.15a5.07,5.07,0,0,0-1,.12h0a8.19,8.19,0,0,0-6.85,8.06c0,.11,0,.21,0,.32l.07,1.64a8.19,8.19,0,0,0,6.5,7.68h0a5.06,5.06,0,0,0,1,.15h0a5.8,5.8,0,0,0,1,0l3.89-.16a7.8,7.8,0,0,0,2.69-.58h0a8.2,8.2,0,0,0,5.17-7.92Zm-8.57,5.33-.18.09a3.54,3.54,0,0,1-.39.14,3.33,3.33,0,0,1-.89.16l-2.46.09-.22-5.52L737,784l2.46-.1c2.24-.3,3.93,1.28,4,3.73a4,4,0,0,1-2.09,3.57h0Z"/><path class="cls-21" d="M741.34,791.21a3.82,3.82,0,0,1-1.62.47l-1.64.07-.82,0-.21-5.53-5.37,4.11,13,16.91,8.18-.32.4-.22Z"/></g><path class="cls-22" d="M793.29,566.46,761.93,571l-31.67-1.07c-11.26.11-21-6.67-21.51-16.19h0c-.57-10.44,17.48-21.25,29.49-20.64L760,535.24l19.4-4.42c15.1-3.62,33,6.52,33.51,16.66l0,.55C813.44,557.55,804.61,565.84,793.29,566.46Z"/><path class="cls-23" d="M811.57,540.73c-12.14,4.67-30,6.47-50.49,7.58s-39.22,1.34-51.78-1.95c2.8-5.82,12-11.2,20.74-13.3l11.58-.63,18.18,1.44L776,530.56l15.88-.86C800.9,531.14,808.86,535.65,811.57,540.73Z"/><path class="cls-24" d="M810.11,539.25c-12.15,4.4-28.65,5.35-49.17,6.47s-37,1.92-49.58-1.1c2.82-5.44,11.44-9.81,20.21-11.8l10.39-.56,18.35,1.92,16.74-3.83,15.59-.85C801.61,530.82,807.42,534.51,810.11,539.25Z"/><path class="cls-25" d="M812.83,546.44l0,.55c.52,9.52-8.31,17.81-19.62,18.43l-31.36,4.5-31.68-1.07c-11.3.61-20.68-7.33-21.2-16.85a7.24,7.24,0,0,1,.52-3.79c2.75-6.71,11.89-12.85,20.64-15.2a28.49,28.49,0,0,1,5.85-1,19.68,19.68,0,0,1,2.17,0l3.55.36,18.2,1.81,16.22-3.69,3.17-.72a30.43,30.43,0,0,1,12.71-.14c9,1.75,16.21,6.46,19,12.36C811.62,543.27,812.76,545.13,812.83,546.44Z"/><path class="cls-16" d="M763.24,583.5c-13.08.51-24.72-.75-31.9-3.11,5.31,3.5,17.38,5.63,31.33,5.09,12.76-.5,23.78-3.12,29.41-6.56C785,581.32,774.74,583.05,763.24,583.5Z"/><path class="cls-26" d="M756.37,522.49a20.57,20.57,0,0,1,1.33-8.9c-1.37,1.49-2.24,4.87-2.08,8.75.14,3.55,1.09,6.61,2.39,8.17A22.47,22.47,0,0,1,756.37,522.49Z"/><path class="cls-26" d="M764.91,522.28a20.57,20.57,0,0,0-2-8.77c1.48,1.38,2.61,4.68,2.77,8.56.13,3.55-.58,6.68-1.75,8.33A22.34,22.34,0,0,0,764.91,522.28Z"/><path class="cls-27" d="M543.85,262.36c17.86,95.74-64.34,243.32-64.34,243.32-.16,5-3.44,22.08,13.37,43.1,17.82,22.29,64.37,47.9,73.82,52.29-20.48.14-110.6-5.93-137.69-18.11-18.74-8.43-40.88-18.73-51.84-33a381.28,381.28,0,0,1-123.88,32.14c-50.71,4.3-76.67,5-109.83-15.78-39.3-24.6-105.71-94.06-123.94-199.21-16.26-93.79-9.69-219.72,7.18-246,52-81,115.32-76.42,206-88,94-12,161-4,236,42C495,91.22,525.73,165.2,543.85,262.36Z"/></svg>
