<svg xmlns="http://www.w3.org/2000/svg" viewBox="0 0 960 960"><defs><style>.cls-1{fill:#1f2532;}.cls-2{fill:#2b3342;}.cls-15,.cls-28,.cls-3{fill:#fff;}.cls-3{stroke:#28231f;}.cls-11,.cls-26,.cls-28,.cls-3,.cls-5{stroke-miterlimit:10;}.cls-4{fill:#68594a;}.cls-5,.cls-6{fill:#ebbf8d;}.cls-5{stroke:#28190c;}.cls-7{fill:#1f1403;}.cls-8{fill:#28190c;}.cls-9{fill:#594939;}.cls-10{fill:#d8995b;}.cls-11{fill:#e5e2e1;}.cls-11,.cls-28{stroke:#000;}.cls-12{fill:#3f2d20;}.cls-13{fill:#5b381e;}.cls-14{fill:#0a0806;opacity:0.49;isolation:isolate;}.cls-16{fill:#514337;}.cls-17{fill:#050505;}.cls-18{fill:#ff9207;}.cls-19{fill:#f2c69c;}.cls-20{fill:#fcc07e;}.cls-21,.cls-26{fill:none;}.cls-22{fill:#9b928c;}.cls-23{fill:#280a07;}.cls-24{fill:#c1c4cd;}.cls-25{fill:#e1e6f0;}.cls-26{stroke:#160b0c;stroke-width:2px;}.cls-27{fill:#5e4d41;}.cls-28{stroke-width:4px;}</style></defs><title>maaikke</title><g id="Layer_4" data-name="Layer 4"><rect class="cls-1" width="960" height="960"/></g><g id="Layer_3" data-name="Layer 3"><path class="cls-2" d="M567.27,961H215.64A526.45,526.45,0,0,1,80,607.5C80,315.62,316.62,79,608.5,79A526.49,526.49,0,0,1,960,212.84V961H567.27Z"/></g><g id="fyr"><g id="mand"><g id="trøje"><path class="cls-3" d="M960,647.19V765.71c-2.83,3.32-1.33,12.75,0,23.68v56.82c-2,16.61-5.26,31-7.86,42.55-6.64,29.2-4.92,33.33-4.3,53.23.13,5.43.16,11.12.7,19H508.17A95.28,95.28,0,0,1,507,947.92c-.85-17.86,3.45-27.22,6.93-45.56,2.06-11.13.64-7.81,3.58-43.72,2.63-32.16,3.82-33.46,6.25-63,1.9-23,1.4-23.87,3.44-47.14,3.37-37.18-1.25-47.89,4.71-58.55,3.92-7.31,17.34-18.27,30.32-24.69,8.39-4.22,13-6.43,35-7.75,21.27-1.16,29.59-3.5,35.76-4.84,28.26-6.16,62.53-30.54,76.46-30.51h.16a11.84,11.84,0,0,1,1.24.09h0a5.72,5.72,0,0,1,2.36.83c2.27,1.43.65,3.12-2.13,5h0l-.22.15-.06,0h0l-.89.59c-5.58,3.51-13.8,7.62-8.56,11.92a63.16,63.16,0,0,1,14.78,15.91l9.56,5.7c.77-4.54,23.06,12.47,43.67,14,5.31.41,15.16-2.16,27.78-9.81,14.9-9,20-17,22.16-26.24,1.39-5.68-1.77-9.09-5.11-11.48h0c-.21-.15-.41-.29-.62-.42h0l-.32-.22h0c-.43-.26-.84-.53-1.24-.78h0c-2.93-1.8-5.19-3-3.59-4.53a13.44,13.44,0,0,1,4.55-2.74h0a6.51,6.51,0,0,1,.91-.32h0a2.51,2.51,0,0,1,.46-.16h0c21-6.41,74.94,10.57,131.5,23.82C951.43,644.87,956.08,646.07,960,647.19Z"/><path class="cls-4" d="M960,723.31a1,1,0,0,1,0-.29V725A14,14,0,0,1,960,723.31Z"/><path class="cls-4" d="M606,913.22c-2.72-1.76-6.38,4-16,5.29-3.25.44-5.44.06-6.17,1.49-1,1.91,1,5.56,3.72,7.48,5.44,3.68,15.92,1.24,18.93-5.41C607.8,919.06,608.09,914.54,606,913.22Z"/><path class="cls-4" d="M620.4,958.26c0,1,0,1.87,0,2.74h-7.29c-.31-10.23-.75-19.82-1.15-24.5-.5-7.09-2-11.09-4.55-17.31,0,0,0,0,0,0h0c-.77-1.84-1.63-3.87-2.58-6.24h0a302.28,302.28,0,0,1-10.94-33.11c-6-21.4-6.47-34-8.48-45.58-2.4-13.28-5.36-25.62-7.45-51.07-1.17-14.11-1.94-25.44-3.69-46.39-1-12.72,6.12-6.62,6.43-6.63.78-.18-.12,20.71,5.76,55.33,11.48,66.63,10.35,61.54,11.31,66.33Z"/></g><path class="cls-5" d="M571.61,393.18c12.56-1.11,24.23,14.61,26.92,35.52a1.93,1.93,0,0,1,1.37-.68c3.73-.14,7.14,11.4,7.7,25.69a72,72,0,0,1-1.17,17.79c6.75,17.32,6.44,33.06-1.5,36.95-9.32,4.56-25.39-8.35-35.85-28.95A91,91,0,0,1,563.77,467c-6.35-6.91-11.15-18.24-12.29-31.42C549.52,413.35,558.58,394.31,571.61,393.18Z"/><path class="cls-5" d="M929.72,373.06c-12.61-.13-23,16.47-24.05,37.52a1.94,1.94,0,0,0-1.42-.57c-3.73.15-6.23,11.92-5.67,26.22a72.36,72.36,0,0,0,2.56,17.64c-5.37,17.8-3.82,33.46,4.4,36.71,9.64,3.83,24.65-10.3,33.46-31.66A92.52,92.52,0,0,0,943.32,446c5.78-7.39,9.68-19.06,9.79-32.29C953.17,391.44,942.8,373.17,929.72,373.06Z"/><path class="cls-5" d="M697.24,628.09a14.73,14.73,0,0,0-1.82,9.1c.21,1.24.6,3.24,6.12,9.25s8.46,9.16,10.38,10.65c7.86,5.91,8.19,6.37,17.62,12.69,5.75,3.82,6.18,2.71,11.91,6.07a65.49,65.49,0,0,0,17.1,7.42c2.51.52,7,0,12.43-.64,6.19-.71,10.3-3,18.22-7.57,5.63-3.33,12.33-7,19.53-14,6-5.68,5-6.58,11.2-12.11,3.76-3.26,6.64-5.09,8.66-9.37.57-1.11,3.16-6.66,1.18-9.54-3.14-4.7-21-2.6-25-1.36-8.93,2.53-17.67,5.83-30.17,8.5s-26.23,1.81-35.79.16C712.37,632.94,702.2,619.65,697.24,628.09Z"/><path class="cls-6" d="M798.32,649.65l-70.86,2.78a16.66,16.66,0,0,1-17.28-16l-5.4-137.52a16.66,16.66,0,0,1,16-17.28l70.86-2.78a16.65,16.65,0,0,1,17.28,16l5.39,137.53A16.65,16.65,0,0,1,798.32,649.65Z"/><path class="cls-5" d="M905.15,393.33a179.81,179.81,0,0,0,3-41.37c-3.68-93.86-77.05-167.09-164.08-163.67-86.86,3.4-154.43,82.16-150.75,176a176,176,0,0,0,5.7,38.38c-.19,7-.22,14,.06,21.16a264.88,264.88,0,0,0,18,86.92c16,57.74,62.18,101.37,118.41,110.37A114.14,114.14,0,0,0,760.85,623l.94,0,1.24,0c78.16-3.06,139.3-71.3,139.64-153.8a271.49,271.49,0,0,0,3.82-57.27C906.25,405.58,905.85,399.37,905.15,393.33Z"/><path class="cls-7" d="M602.65,438.5c3.69-1.24,3.28-23.48-3.73-43.59-1.95-5.84-4.48-11-3.69-18.53.46-4.22,2-8.17,5.29-15.93,4.55-10.92,6.8-13,7.64-19.44.12-.94.23-2-.46-11.81-1-14.28-1.6-17.06-1.91-25-.38-9.64-.57-14.46.66-18.71.69-2.36,3.75-11.66,12.58-16.68,4.26-2.34,8-2.8,12.62-3.45,6.66-.88,9.35.1,19.17.65,6.24.38,10.76.36,19.62.16,8.4-.17,10.1-.39,20.51-.8,17.87-.7,18.37.06,27.53-.61s8.82-1.28,27.39-4c9.13-1.3,18.43-2.28,37.18-4.42,12.86-1.44,19.37-2.16,24.49-2.36,9.63-.54,16.17-.48,29.41-.22,15.27.33,18.72,1,22.67,2.53a35.63,35.63,0,0,1,14.58,10.79c4.59,5.74,6.2,11.28,7.48,15.9a63.3,63.3,0,0,1,2.09,17.66c.12,7.15-.79,7.65-.38,14.17.19,4.82.53,9.48,2.6,14.69s3.63,5.15,7.8,12.45c1.85,3.36,5.35,9.29,7.05,16.85,1.13,5.09.75,7.28,1.1,16.14.46,11.81,1.21,11.16,1.76,21.1.92,15.68-.43,20.72,1.78,21.56,2.84,1.14,9-4.71,10.3-11.14.65-3.29-.34-4.66-.4-10.26-.11-2.79.23-5.92,1.54-12.35,2.09-10,4.6-17.61,7.35-26.75,3.85-12.91,5.78-19.37,6.34-24.84.59-4.85.19-11.06-.45-23.48-1.16-21.59-2.75-26.35-4.11-29.26-2.56-5.81-4-6.07-6.4-12.51-3.48-9.2-1.57-12.08-3.74-19.93-3.47-12.94-12.83-21.44-16.7-24.87-8.39-7.61-10.63-5.34-16.19-12.13-4.42-5.42-3.91-8.25-11-19.64s-9.33-11.62-10.26-11.43c-2.77.74-2,8.49-4.62,9.06s-3.55-7.18-10.74-11.88c-5.43-3.52-7.83-1.09-13.91-5.37-4.64-3.24-6.17-6.6-8-6.06-2.46.72-.51,6.71-3.54,9s-8.34-2.48-18.91-6.11c-5.68-2-4.23-.61-23.68-4.52-11.61-2.34-12.72-2.92-17.87-3.19s-5.75.23-17.09.67c-7.46.3-7.32,0-20.07.32-11.35.29-16.95.36-20,.79-7.28,1.06-12.5,2.83-20.94,5.8a132.28,132.28,0,0,0-19.76,8.09c-8.84,4.71-7.87,5.76-15.82,9.49-3.66,1.7-7,2.93-15.91,7a45.56,45.56,0,0,0-7.61,4.19,30.91,30.91,0,0,0-7.51,7.14c-3.26,4.18-2.23,6.47-5.52,10-1.19,1.3-1.81,1.48-4.84,3.62-5,3.46-8.63,6.09-11.91,9.8-3,3.23-4.58,6.25-6.9,10.55a75.08,75.08,0,0,0-4,8.56c-3,7-2.5,7.72-4.92,13.42s-2.76,4.93-6.79,13.5a80.23,80.23,0,0,0-4.52,11.53c-.4,1.73-.53,2.52-1.32,10-1.39,12.19-1.39,12.35-1.51,13.29-.38,6.08.4,10.1.91,15.21,2.12,18.28-.37,18.38,1.8,29.81,1.19,6.65,3.44,12.48,7.94,24,2.6,6.75,5.33,12.87,9.26,21.89,6.32,14.23,6.28,13.3,7.35,16.68,1.81,6.62,2,11.28,6,17.2C598.15,434.78,601,439,602.65,438.5Z"/><rect class="cls-8" x="812.89" y="612.01" width="1.4" height="16.48" transform="translate(-23.69 32.37) rotate(-2.25)"/><rect class="cls-8" x="709.43" y="614.52" width="1.4" height="13.84" transform="translate(-23.81 28.31) rotate(-2.25)"/><path class="cls-9" d="M910.54,455.37c1.09,4,2.9,6.58,5.09,6.8,5,.59,10.34-10.21,12-24s-1-25.48-5.85-26.07c-2.66-.36-5.65,2.87-7.93,8.09-.32-.3-.49-.45-.8-.43a2.41,2.41,0,0,0-1.22.51c2.81-7.58,6.83-12.41,10.74-11.94,6.09.7,9.42,14.11,7.4,29.91s-8.4,28-14.34,27.33c-3-.35-5.29-3.84-6.74-9.23A2.4,2.4,0,0,0,910.54,455.37Z"/><path class="cls-9" d="M913.52,404.36c10.46-11,15.85-16.34,16.34-15.89s-4.54,7.33-15.23,20.51Z"/><path class="cls-9" d="M597.18,473.73c-.77,4.08-2.38,6.79-4.54,7.18-4.94,1-11.11-9.37-13.82-23s-1-25.48,3.79-26.45c2.62-.57,5.85,2.42,8.54,7.45.3-.32.45-.48.76-.5a2.54,2.54,0,0,1,1.26.42c-3.4-7.34-7.78-11.83-11.64-11.06-6,1.17-8.29,14.8-5,30.39,3.1,15.6,10.56,27.29,16.43,26.13,2.93-.59,5-4.25,6-9.73A2.42,2.42,0,0,1,597.18,473.73Z"/><path class="cls-9" d="M590.22,423.11c-11.3-10.14-17.09-15.05-17.54-14.56s5.1,7,16.79,19.26Z"/><ellipse class="cls-10" cx="586.67" cy="455.95" rx="8.4" ry="27.22" transform="translate(-82.83 133.7) rotate(-12.15)"/><ellipse class="cls-10" cx="919.05" cy="437.66" rx="27.22" ry="9.02" transform="translate(362.83 1290.2) rotate(-82.34)"/><path class="cls-7" d="M777.62,356c-1.13,3-1,7.35,1.28,8.82,2.55,1.61,6.67-.42,13.11-2.85,2.61-1,7.52-2.94,18.49-4.77,14.08-2.27,21.34-3.49,26.32-3.53,8.09-.16,12.6-.18,18.28,1.78,11.83,4.05,17.79,13,19.6,11.52,1.21-1-.85-5.72-2.84-8.76a26.65,26.65,0,0,0-9.67-8.49c-11.14-6.26-19-8.28-20.72-8.53-4.54-.6-13.67.54-26.71,1.52-10.55.88-18.61,1.82-27.8,5.45C782.67,350,779,352.05,777.62,356Z"/><path class="cls-11" d="M828.81,379.51c2.18-.08,6.67-.57,8.85-.5,22.15,1.31,38.49,13.12,39.16,30.21h-.15l-4.78,5.17L867,419.73v-.16a8,8,0,0,1-4.75,1.9l-60.3,2.36-.62,0h0l-3,0-4.3-2.63a9,9,0,0,1-2.9-2.54l-4.9-5.87c-.6-15.23,11.35-27.84,29.54-32.45C819.62,379.4,824.46,379.68,828.81,379.51Z"/><circle class="cls-12" cx="829.65" cy="400.96" r="20.68"/><circle class="cls-13" cx="829.65" cy="400.96" r="18.97"/><circle class="cls-14" cx="829.65" cy="400.96" r="10.11"/><circle class="cls-15" cx="833.06" cy="392.57" r="4.35"/><path class="cls-7" d="M723.05,361.56c1.36,2.9,1.53,7.25-.58,8.89-2.42,1.81-6.69.11-13.3-1.81-2.68-.83-7.72-2.34-18.81-3.31-14.21-1.15-21.55-1.8-26.52-1.45-8.07.47-12.57.81-18.08,3.2-11.48,5-16.71,14.35-18.63,13-1.28-.89.39-5.78,2.14-9a26.63,26.63,0,0,1,9-9.22c10.62-7.11,18.3-9.75,20-10.12,4.48-1,13.68-.54,26.75-.59,10.59.06,18.69.36,28.14,3.26C717.55,356.17,721.35,357.89,723.05,361.56Z"/><path class="cls-14" d="M643.22,393.48a45.68,45.68,0,0,1,13-6.42,68.58,68.58,0,0,1,7.12-1.21c6.49-1,5.55-1.15,7.73-1.24,2-.23,2-.08,10.58.05,4.52.14,5.45.1,7.33.18a39.09,39.09,0,0,1,6.88,1Z"/><path class="cls-16" d="M773.71,403.15c-1.08.2-2.67,7.27-2.15,12.69.05,1.25-.36,2.82,1.89,12.38,1.69,7.4,2.46,11.11,3.53,14.8,1.44,4.93,2.66,8.15,3.7,10.91,1.58,4.45,2.44,6.59,2.75,6.58.61-.18-1.14-5.25-3-13.42-1.13-5.09-3.22-10.77-4.24-16.95-.62-3.87-2.23-9.26-2.58-14.07C773.18,409.4,774.64,403.11,773.71,403.15Z"/><path class="cls-16" d="M801.83,481.27a10.25,10.25,0,0,1,2.41,6l.07,1.71a9.52,9.52,0,0,1-8.95,10l-19.26.76a9.12,9.12,0,0,1-4,2.33,15.13,15.13,0,0,1-25.8.86,8.05,8.05,0,0,1-3.82-2l-19.42.76a9.52,9.52,0,0,1-9.7-9.27l-.07-1.71a9.37,9.37,0,0,1,1.5-5.5,9.28,9.28,0,0,0-2.69,7l.07,1.71a9.7,9.7,0,0,0,10,9.26l19.89-.78a8.56,8.56,0,0,0,4,2,16,16,0,0,0,26.74-.89,9,9,0,0,0,4.11-2.34l19.73-.78a9.69,9.69,0,0,0,9.26-10l-.07-1.71A10.52,10.52,0,0,0,801.83,481.27Z"/><path class="cls-11" d="M676.67,389.22c-2.18.08-6.7-.05-8.87.19-22,3-37.34,16.09-36.67,33.19h.15l5.17,4.78,5.33,4.92v-.15a7.91,7.91,0,0,0,4.88,1.52L707,431.29l.63,0h0l2.94-.27,4.09-3a9.17,9.17,0,0,0,2.69-2.75l4.43-6.25c-.6-15.23-13.51-26.86-32-30C685.82,388.39,681,389,676.67,389.22Z"/><path class="cls-14" d="M865.94,381.63a43.29,43.29,0,0,0-7.46-3.59,41.21,41.21,0,0,0-6-1.79,67.23,67.23,0,0,0-7.18-.65c-6.56-.53-5.63-.72-7.81-.63-2-.08-2,.08-10.55.88-4.49.49-5.42.52-7.28.75a40.38,40.38,0,0,0-6.79,1.51Z"/><path class="cls-17" d="M921.18,345.85c-.16-.15-.48-.45-.49-.6-4.05-4.2-7.82-5-10.53-6.75-1.28-.88-.82-.9-6.78-10-4.8-7.43-6.11-8.94-7.11-10.77,1.47-2.23,2.25-6.16,1.92-10.5a.58.58,0,0,0,.46-.17c2.26-1.8-3.07-14.82-8.22-23.18a40,40,0,0,1-4.26-9.33c-1.24-3.84-2.13-6.61-.83-9.15,2-4.28,8.38-4.69,8.18-5.77-.19-.92-5.78-.55-13.94-2.41-3-.66-3.78-1.09-4-1.87C875,252.72,887,249,886.67,247.6c-.53-1.7-18.3,1.8-18.67.26-.18-.77,5.39-1.61,8.16-6.23,2.05-3.35.59-8.9.59-8.9S861.08,250,859.16,248.67l-.16-.14c-1.35-2.6,2.12-9.43,3-13.66,1.45-6.6-4.95-15.06-4.95-15.06s-11.56,26.75-15.16,26.12c-3.3-.65-.86-25.65-3-25.88s-5.81,22.64-8.93,22.45c-2.65-.2-2.54-17.17-5.67-17.52s-7,16.31-8.24,16.05c-.78-.13,1.33-5.81-.48-12.28-1.83-6.93-7.35-12.78-9.8-11.91-1.38.52-1,2.53-2.19,7.87-1.45,6.59-2.77,12.71-7.15,16-3,2.14-8,3.42-10.22,1.33-2.42-2.08.23-5.92-1.41-12.24C783,223,775,218.36,775,218.36a39.11,39.11,0,0,1-2.92,12.87,25.05,25.05,0,0,1-6.49,9.13c-6.15-9.87-6.85-12-6.85-12-2.11-6.14.31-7.79-1.85-11.29-3.15-5-14.35-4.88-14.35-4.88s-.53,6.25.75,19.11c1.07,11.48,1.85,19.39-1.66,21.24-2.9,1.51-7.84-1.41-10.45-4.57-3.26-3.77-2.63-7.53-4-14-2-10.35-9.67-20.17-9.67-20.17s-1.48,1.93-3.69,16.8c-1.73,11.59-2,13.93-3.33,14.3-4.92,1.59-16-19.76-17.4-18.93-.91.5,5.23,10.38,2.54,13.13-3.74,3.88-22.57-8-22.86-7.51-.15.32,6,2.72,10.6,8.46,3.43,4.22,8,12.29,5.61,16-5.88,9-51.66-11.51-52.95-8.66-.57,1.27,8.48,5.74,7.61,7.48-.43,1-3.1.28-7.3.29a38.15,38.15,0,0,0-16,4c-2.75,1.36-5.16,3.47-10,7.71-4.37,3.75-6.63,5.71-7.48,7.61-2.31,4.6-.21,6.7-2.44,13.32-1.25,3.94-2.05,3.35-3.6,7.46-.84,2.21-3.24,8.53-1.89,15.32,1.19,6.49,4.29,6.06,4.8,11.18.27,2.79-.46,4.22-6.2,16.43-4.46,9.35-4.31,9.35-5,10.47-1.61,2.71-10.66,13.8-11.72,18.67-.27,1.1,2.47,11.42,8.09,23.65,7.51,16.82,16.65,35.76,15.75,36.58l1.58.56c.71-13.57-3-24.17-3.89-31.76-1.51-14.72-1-20.66,1.78-29.95,2.6-9.13,3.4-8.69,5.66-18.43.8-3.46.72-5.32,0-23-.75-19.11-.93-19.72-.4-22.08,3-13.82,13.15-21.84,14.81-23.15,6.8-5.25,13.91-10.35,16.69-10.93a55,55,0,0,1,17.68-1.62,182.91,182.91,0,0,0,34.36-.88c10.84-1.36,5.59-.38,23.45-1.39,12.11-.63,12.11-.63,31.84-1.72,15.69-.77,21.7-2.09,34-2.26,15.09-.28,12.88-1.13,20.32-1.73,11-1.06,16.13-1.42,30.91-1.68,12.44-.34,9.61-1,18.15-1.65,8.37-.8,11.88,1.4,19.46,8.11,4.67,4.17,9.07,5.24,10.62,8.92,3.93,8.87,3.79,13.39,5.39,18.31a29.58,29.58,0,0,0,.54,9.78,26.05,26.05,0,0,0,1.6,5.23c.26,2.64.9,7.13,2.3,14.85,1.22,7.43,1.41,8.35,1.78,9.74a58.3,58.3,0,0,0,6,13.46c4.51,7.76,6.37,7.53,7.81,12.46.72,2.46.84,5.72.95,12.25a105.75,105.75,0,0,0,.55,14.15,22.56,22.56,0,0,0,1.67,6.78s11.45-9.63,15.37-20.68C924.11,361,925.26,350.67,921.18,345.85Z"/><path class="cls-17" d="M903.82,260.31s8.52,2.93,10.33,1.46c2.11-1.79-3.42-11.69-4.76-14.13-2.85-5.18-7-11.25-14.14-19.37-5.21-5.71-12.53-14-15.28-12.47-1.67,1,.21,5.13-2.53,10.84a14.57,14.57,0,0,1-4.77,5.32,35.85,35.85,0,0,0,2.29-16.9c0-.62,0,.16-3.07-10.93-.73-2.62-1.27-4.62-3-5.64-1.28-.73-3.48-1.26-4.83-.12-3.18,2.3,1,9.92-2.47,12.55-.91.65-3.25.43-3.25.43s1.46-6.43-1-10.23c-.83-1.21-1.45-1.19-3.06-2.52-3.38-3-2.89-6.27-4.76-10.24-2.38-5.2-7.15-7.66-14.46-11.58-4.29-2.32-7-3.61-8.2-2.63-2.86,2.44,3.88,15.41,3.42,15.74-.46.17-3.36-10.3-12.31-16.33-1.12-.73-2.87-1.75-10.12-4a193.28,193.28,0,0,0-24.66-5.88c-11.9-1.87-24.12-3.72-25.1-1-1,3.15,14,10.82,13.67,11.3-.3.32-12.61-8.07-28.91-10.86-4.85-.74-8.84.66-16.32.49-12.46-.29-27-2.52-27-1-.09,1.72,23.34,3.91,23.21,4.54s-19.11.75-34.24-.06c-3.43-.17-7.74,1.09-13.06,4.25-3.05,1.83-3.24.75-7,3.39-5,3.46-8.27,3.44-14.64,7.73-2.73,1.82-4.84,3.62-3.9,3.58,5.28,0,18.66,3.63,18.65,3.47s-12.8-1-27.2.91a39.74,39.74,0,0,0-11,5.57,38.8,38.8,0,0,0-9.44,9.09c-1.77,2.55-3.85,5.13-2.84,7.11,1,2.14,4.91,2.14,4.93,2.61-.13.63-5.32-.73-9.9,1.63-1.83,1-1.65,1.62-4.94,5-4,4.05-5.13,4.09-9.33,8.15-3.9,3.73-5.69,5.67-5.76,7.85,0,3.89,4.7,8.69,8.75,8.68,8.24,0,13.22,0,13.22-.2,0,0-7.23,2.15-16.75,5.48-2.46.87-1,1.13-9.92,9.1-2.11,1.8-5.71,5-10.37,9.28-5.71,5.21-5.94,7.39-7.08,10.08-1,2.38-2.36,3.37-2.49,7.88-1,17.63-1.06,16.54-1,17.79.14,3.57.33,4.65,1.07,11.63.24,2,3.28,4.23,2.62,7.21-.81,3-.39,5.93-.31,7.79,1,9.77,0,7.94.57,10.72,1.56,7.88,3.84,14.48,2.78,23.24-.12.94-.6,4.53-1.07,4.4s-1.11-4.47-1.33-6c-1.43-12.71-3.69-14.8-6.24-32.13a170.85,170.85,0,0,1-2.29-26.68c-.13-11.36,0-17,2.2-23.28,3-7.89,5.9-8.32,10-19.37,1.41-3.79,1.65-5.52,4.32-12.94a104.66,104.66,0,0,1,4.82-12,48.45,48.45,0,0,1,8.57-11.55c6.44-6.47,8.68-5,14.8-11.63,2.53-2.74,3.11-4,7.58-9a65.52,65.52,0,0,1,6.44-6.48A66.79,66.79,0,0,1,636,189.57c6.54-3.68,6.4-3.36,12.48-7,4.11-2.49,8.06-4.82,10.94-6.81,5.6-3.95,6.19-4.75,8.94-6.26A40.26,40.26,0,0,1,679,165.63c9.26-1.92,13,1.2,17.35-1.93,3-2.14,2.32-4.29,5.53-6,3-1.52,5.26-.67,11.2-.13,6.24.53,4.81-.34,16.8,0,9.66.25,6.42.84,12.17.77,2.81,0,4.67,0,6.73,1,2.07,1.17,3.07,2.68,4.3,2.48,1.39-.37,1.32-2.23,2.87-2.45.77-.18,1.26.42,2.36.69a8.26,8.26,0,0,0,4-.31c3.08-.9,7.18.49,12.35,1.38,7.68,1.25,7-.12,13.9,1.17,1.09.11,5,1.35,13.22,3.68,9.13,2.6,10.07,2.87,11.82,3.74,5.07,2.44,7.51,5,8.41,4.34,1.67-1.31-2.44-10.8-2.44-10.8A137.42,137.42,0,0,1,835,171.34c10.51,6,12.7,6.19,15.81,10.27,3.77,4.84,4.43,9.79,5.83,9.58,2.32-.25,2.92-12.88,2.92-12.88s10.79,9.38,14.42,18.58c1.56,4.14,2.67,8.46,6.86,12.18a25.56,25.56,0,0,0,5.43,3.52,59.94,59.94,0,0,1,18,14.55,62,62,0,0,1,11.83,19.93c3,7.66,4.35,11.5,3.93,16.65-.34,3.28-1.17,6,.34,8.86,1.68,3.2,6.16,6.14,6.16,6.14a50.4,50.4,0,0,1,.1,10.42c-1.24,8.3,1.09,8.05,1,21.75,0,10.9-1.51,8.93-1.08,16.07.63,8.07,2.73,13.9-.69,18.09a23.14,23.14,0,0,1-2.73,1.81,153.1,153.1,0,0,1-.26-22.4c.19-3.12,0-11.2-.29-27.38-.14-3.42-.12-7-1.7-11.6-.52-1.38-.68-1.38-6.18-10.81-4.17-7-5.34-9.13-8-9.8Z"/><path class="cls-17" d="M578,286.63a25.71,25.71,0,0,1,3.43-7.92c1.46-2.39,3.11-4,6.42-6.94,3.3-3.09,5-3.93,6-6.46.14-.47.61-4.38.61-4.38-1.29-1-6.16,1.8-9.45,5.19-2.69,2.75-2,3.51-5.16,7.21-3,3.38-4.38,3.59-4.92,5.64C573.81,282.59,578,286.63,578,286.63Z"/><path class="cls-17" d="M601.69,235.59s1.14,1.2,10.68-1.51c7.39-2.16,8-3,13.83-4.59,7.54-2.17,17.77-3.35,21.11-5.5,2.73-1.66,5.64-2.87,7-4.63l-7.79-.32-9.39-5.23L657,205.4c6-1.79,8.93-2.68,13.09-3.78,10.94-2.76,13.42-3,13.54-3.8.09-1.72-11.34-3.6-20.68-3.55a50.88,50.88,0,0,0-9.93.7,47.1,47.1,0,0,0-13,4.56A34.9,34.9,0,0,0,627.46,210c-5,6.89-2.88,10.08-7.27,13.21-4.69,3.45-13.81,4.9-13.81,4.9Z"/><path class="cls-17" d="M664.6,184.87a130.15,130.15,0,0,1,19.46,0c5,.28,8.29,1.08,13.79,2.42,21.37,5.23,36.8,13.65,37.68,12.22.72-1.43-13.29-9.44-11.87-12.77,1-2.52,9.93-.85,10.19-2.26.4-1.73-12.44-3.72-12.78-8.37-.26-2.48,2.9-5.25,6-5.69,4.33-.79,8.2,2.8,12.41,6.83,7.93,7.79,8.1,12.14,15.85,19.3,4.2,3.88,9,7,9.9,6.31.75-.81-3.16-5.17-7.87-14-3.69-6.86-6.21-11.59-4.57-13.52,2.52-3.06,13.53,3.83,14.11,2.72s-8.16-9.65-20.72-12.42a35.78,35.78,0,0,0-17.28-.1c-9.09,2.38-10.6,7.42-18.07,7.4-4.83,0-5.06-2-12.24-2.48a55.08,55.08,0,0,0-12.42.8c-6.5,1-9.75,1.47-13.09,3.47C668.05,177.42,664.6,184.87,664.6,184.87Z"/><path class="cls-17" d="M788.54,174.09c1.49,10.22,16.8,15.84,16.8,15.84s-1-10.39.66-11.07c2.45-1,13.57,16.74,13.57,16.74s-3.52-14.49-2.45-15c1.53-.68,14.68,25.26,14.68,25.26S832,193.71,825,184a39.88,39.88,0,0,0-11.46-10.6c-8.3-5.12-21.2-8.81-24.46-4.48C788.08,170.38,788.31,172.23,788.54,174.09Z"/><path class="cls-17" d="M832,183.44c-.55,1.89,13.22,11.62,13.22,11.62s2.12,2.41,2.42,2.24c1.22-.67-7.58-14.8-7.58-14.8S832.42,182,832,183.44Z"/><path class="cls-17" d="M883.58,228.26a43.21,43.21,0,0,0-5.37,2.08s.64,4.33,1.3,5.4a11,11,0,0,0,4.21,4.19,90.22,90.22,0,0,0,17.6,8.18S893.38,228.19,883.58,228.26Z"/><circle class="cls-12" cx="677.36" cy="410.82" r="20.68"/><circle class="cls-13" cx="677.36" cy="410.82" r="18.97"/><circle class="cls-14" cx="677.36" cy="410.82" r="10.11"/><circle class="cls-15" cx="673.3" cy="402.58" r="4.35"/><path class="cls-18" d="M853.29,817.07l-140.18,5.5A4.33,4.33,0,0,0,709,827l1.89,48.09a4.33,4.33,0,0,0,4.47,4.13l17.19-.67,123-4.83a4.32,4.32,0,0,0,4.13-4.46l-1.89-48.09A4.46,4.46,0,0,0,853.29,817.07Z"/><polygon class="cls-18" points="751.34 877.63 741.93 878 732.31 878.38 732.86 892.29 751.34 877.63"/><path class="cls-19" d="M741.71,846.24l-3.52-.88a3.56,3.56,0,1,1,2-6.84l3.52.88a4.44,4.44,0,0,1,1.67,1l1.89-4.17-4-1.89-3.91-.47a7.76,7.76,0,0,0-9.19,6.1l-.16,1.24a7.76,7.76,0,0,0,6.1,9.19l5,1.24,2.06-5A6.61,6.61,0,0,1,741.71,846.24Z"/><path class="cls-19" d="M736.53,850.14l3.33,1.1a3.58,3.58,0,0,1,2.42,4.41c-.54,1.87-2.56,2.56-4.41,2.43l-3.32-1.1a11.54,11.54,0,0,1-2.73-1.54l-3.09,4.64,2.52,1.54,2.51,1.33,2.28.73,1.85.13c4.14,1.07,9.52-2.83,10.38-7l.37-1A7.8,7.8,0,0,0,743,846.4l-5-1-2.07,4.79C735.91,850,736.32,849.94,736.53,850.14Z"/><rect class="cls-19" x="753.46" y="833.36" width="6.76" height="29.08" transform="translate(-32.66 30.32) rotate(-2.25)"/><rect class="cls-19" x="775.15" y="832.51" width="6.76" height="29.08" transform="translate(-32.61 31.17) rotate(-2.25)"/><rect class="cls-19" x="816.49" y="830.89" width="6.76" height="29.08" transform="translate(-32.51 32.79) rotate(-2.25)"/><polygon class="cls-19" points="800.47 834.31 798.81 839.09 791.68 861.09 785.55 861.33 794.87 832.48 798.19 833.58 800.47 834.31"/><polygon class="cls-20" points="813.99 860.22 807.65 860.46 798.81 839.09 796.78 834.25 798.19 833.58 802.02 831.99 813.99 860.22"/><rect class="cls-19" x="794.9" y="831.72" width="7.17" height="3.28" transform="translate(-32.05 31.94) rotate(-2.25)"/><rect class="cls-19" x="793.2" y="849.9" width="13.93" height="5.32" transform="matrix(1, -0.04, 0.04, 1, -32.8, 32.02)"/><polygon class="cls-19" points="780.88 857.21 775.94 861.91 758.74 841.48 754.66 836.72 756.05 835.64 759.24 833.46 780.88 857.21"/><polygon class="cls-19" points="842.23 859.11 825.94 840.89 821.58 844.75 834.66 859.4 842.23 859.11"/><polygon class="cls-19" points="832.7 830.38 821.6 845.16 826.04 848.67 839.66 830.31 839.45 830.11 832.7 830.38"/><path class="cls-1" d="M851.07,760.59l-166.16,6.52a4.32,4.32,0,0,0-4.13,4.46l1.88,47.89a4.33,4.33,0,0,0,4.46,4.13l10-.4,156.14-6.12a4.33,4.33,0,0,0,4.13-4.47l-1.89-48.09A4.43,4.43,0,0,0,851.07,760.59Z"/><polygon class="cls-1" points="716.18 822.45 706.56 822.82 697.15 823.19 697.7 837.11 716.18 822.45"/><path class="cls-21" d="M704.93,781.08c.37,9.41.94,18.82,1.31,28.23v.2"/><polyline class="cls-21" points="716.36 780.01 704.29 780.49 705.43 809.55 712.59 809.27 712.21 799.44 719.78 799.15"/><polyline class="cls-21" points="715.87 793.56 711.78 793.72 711.46 785.74 715.97 785.56"/><rect class="cls-22" x="704.86" y="780.34" width="7.17" height="29.08" transform="translate(-30.61 28.38) rotate(-2.25)"/><rect class="cls-22" x="756.42" y="778.31" width="7.17" height="29.08" transform="translate(-30.49 30.4) rotate(-2.25)"/><rect class="cls-22" x="826.83" y="775.76" width="7.17" height="29.08" transform="translate(-30.34 33.16) rotate(-2.25)"/><rect class="cls-22" x="819.75" y="775.6" width="20.07" height="5.94" transform="translate(-29.88 33.12) rotate(-2.25)"/><polygon class="cls-22" points="767.11 778.02 767.17 779.46 778.95 802.97 785.17 799.45 774.68 777.73 767.11 778.02"/><polygon class="cls-22" points="797.2 777.05 797.23 777.66 787.91 801.39 781.44 798.57 789.01 777.37 797.2 777.05"/><polygon class="cls-22" points="777.18 799.56 788.24 799.33 785.85 806.39 780.53 806.6 777.18 799.56"/><polygon class="cls-22" points="808.97 779.25 807.31 784.03 800.17 805.83 794.03 806.07 803.36 777.42 806.69 778.52 808.97 779.25"/><polygon class="cls-22" points="822.48 804.96 816.34 805.2 807.31 784.03 805.27 778.99 806.69 778.52 810.71 776.72 822.48 804.96"/><rect class="cls-22" x="803.39" y="776.46" width="7.17" height="3.28" transform="translate(-29.88 32.23) rotate(-2.25)"/><rect class="cls-22" x="801.7" y="794.84" width="13.93" height="5.32" transform="matrix(1, -0.04, 0.04, 1, -30.64, 32.31)"/><path class="cls-22" d="M725.71,788.05a8.1,8.1,0,0,0-8.52-7.87l-3.89.15a7.86,7.86,0,0,0-1.83.3h0a8.21,8.21,0,0,0-6,8.22l.11,2.65a8.21,8.21,0,0,0,6.64,7.72h0a8,8,0,0,0,1.84.15h0l3.89-.15a8.22,8.22,0,0,0,7.87-8.52Zm-11.07,5.55-2.46.1-.31-7.77,2.46-.09c2.25-.3,3.94,1.27,4,3.72A4,4,0,0,1,714.64,793.6Z"/><rect class="cls-22" x="730.03" y="779.35" width="7.17" height="29.08" transform="translate(-30.56 29.37) rotate(-2.25)"/><path class="cls-22" d="M750.05,786.89a8.21,8.21,0,0,0-8.52-7.86l-3.88.15a5.07,5.07,0,0,0-1,.12h0a8.19,8.19,0,0,0-6.85,8.06c0,.11,0,.21,0,.32l.07,1.64a8.19,8.19,0,0,0,6.5,7.68h0a5.06,5.06,0,0,0,1,.15h0a5.8,5.8,0,0,0,1,0l3.89-.16a7.8,7.8,0,0,0,2.69-.58h0a8.2,8.2,0,0,0,5.17-7.92Zm-8.57,5.33-.18.09a3.54,3.54,0,0,1-.39.14,3.33,3.33,0,0,1-.89.16l-2.46.09-.22-5.52-.09-2.24,2.46-.1c2.24-.3,3.93,1.28,4,3.73a4,4,0,0,1-2.09,3.57h0Z"/><path class="cls-22" d="M741.64,792.14a3.82,3.82,0,0,1-1.62.47l-1.64.07-.82,0-.22-5.53L732,791.29l13,16.91,8.19-.32.4-.22Z"/></g><path class="cls-23" d="M793.59,567.39l-31.37,4.51-31.66-1.08c-11.32.61-21-6.67-21.52-16.19h0c-.56-10.44,17.48-21.25,29.49-20.64l21.75,2.18,19.39-4.42c15.11-3.62,33,6.53,33.52,16.66l0,.56C813.73,558.48,804.9,566.77,793.59,567.39Z"/><path class="cls-24" d="M811.87,541.67c-12.14,4.67-30,6.46-50.49,7.58s-39.22,1.33-51.78-2c2.8-5.83,12-11.21,20.74-13.31l11.57-.63,18.18,1.44,16.25-3.31,15.87-.86C801.19,532.07,809.15,536.58,811.87,541.67Z"/><path class="cls-25" d="M810.41,540.18c-12.16,4.4-28.66,5.35-49.17,6.47s-37,1.92-49.59-1.1c2.82-5.44,11.45-9.8,20.21-11.79l10.4-.57,18.35,1.92,16.73-3.83,15.59-.85C801.91,531.75,807.71,535.44,810.41,540.18Z"/><path class="cls-26" d="M813.13,547.37l0,.55c.52,9.53-8.31,17.81-19.63,18.43l-31.36,4.5-31.67-1.07c-11.31.61-21-6.67-21.51-16.19a10.13,10.13,0,0,1,.82-4.45c2.75-6.71,11.89-12.85,20.64-15.2a28.6,28.6,0,0,1,5.85-1,19.85,19.85,0,0,1,2.18,0l3.55.36,18.2,1.81,16.22-3.68,3.17-.73a30.42,30.42,0,0,1,12.71-.14c9,1.75,17,7,19.75,12.93A10,10,0,0,1,813.13,547.37Z"/><path class="cls-16" d="M763.53,584.43c-13.08.52-24.72-.75-31.9-3.11C737,584.83,749,587,763,586.41c12.76-.5,23.79-3.12,29.41-6.55C785.32,582.25,775,584,763.53,584.43Z"/><path class="cls-27" d="M756.67,523.42a20.57,20.57,0,0,1,1.33-8.9c-1.37,1.5-2.24,4.87-2.09,8.75.14,3.56,1.1,6.62,2.4,8.17A22.21,22.21,0,0,1,756.67,523.42Z"/><path class="cls-27" d="M765.21,523.21a20.57,20.57,0,0,0-2-8.77c1.48,1.39,2.61,4.68,2.76,8.56.14,3.56-.58,6.68-1.75,8.33A22.32,22.32,0,0,0,765.21,523.21Z"/></g><g id="Layer_5" data-name="Layer 5"><path class="cls-28" d="M544.15,263.29C562,359,479.81,506.61,479.81,506.61c-.17,5-3.45,22.09,13.37,43.11C511,572,557.55,597.61,567,602c-20.49.14-110.6-5.93-137.69-18.11-18.74-8.43-40.88-18.73-51.85-33A380.88,380.88,0,0,1,253.59,583c-50.71,4.3-76.67,5-109.84-15.78C104.46,542.62,38,473.16,19.82,368,3.56,274.22,10.12,148.29,27,122,79,41,142.31,45.58,233,34c94-12,161-4,236,42C495.33,92.15,526,166.13,544.15,263.29Z"/></g></svg>
