<svg id="Layer_1" data-name="Layer 1" xmlns="http://www.w3.org/2000/svg" viewBox="0 0 449.11 325.71"><defs><style>.cls-1{fill:#fff;stroke:#000;stroke-miterlimit:10;stroke-width:4px;}.cls-2{fill:#f39131;}.cls-3{fill:#1f2532;}</style></defs><title>privat_link</title><path class="cls-1" d="M171.6,43.6c-9.62,26.62,9.12,61.86,31,70,11.89,4.42,34.92,4.64,34.93,4.64h0A27.2,27.2,0,0,1,236.39,132a29.53,29.53,0,0,1-10.52,13.75A134.68,134.68,0,0,0,253.61,138a125.64,125.64,0,0,0,19.25-9.71,362.36,362.36,0,0,0,69.74,2.31c34.26-2.2,51.38-8.29,56-10,19.8-7.33,36.16-13.39,44-29,9.2-18.32,3.38-43.28-9-59-14.88-18.88-47.11-22.13-111-27.86-57.91-5.2-75.93-1.88-87,.86C209.31,12.1,180.4,19.26,171.6,43.6Z"/><rect class="cls-2" x="24.6" y="138.6" width="285" height="106" rx="53"/><path class="cls-3" d="M73.69,177a3.51,3.51,0,0,1,.51,2c0,2-1.07,5-3.23,9.12-2.24,4.33-4.08,6.49-5.5,6.49a.87.87,0,0,1-.82-.61,15.37,15.37,0,0,0-.1,2c0,1.36.08,2.92.24,4.69a2.74,2.74,0,0,0,.17.78,3.28,3.28,0,0,1,.17.82c0,.43-.3.79-.89,1.09a2.52,2.52,0,0,1-1.09.2,4.49,4.49,0,0,1-2.1-.51,2.1,2.1,0,0,1-1.3-1.43,3.15,3.15,0,0,1,0-.4,1.44,1.44,0,0,1,.36-.94,1.4,1.4,0,0,0,.35-.56l-.61-22a1.5,1.5,0,0,0-.1-.41,1.51,1.51,0,0,1-.1-.48c0-.4.29-.72.88-1a3.83,3.83,0,0,1,1.43-.27c.16,0,.79.07,1.9.2a13.51,13.51,0,0,0,2-.73,8.91,8.91,0,0,1,3.21-.73A5.56,5.56,0,0,1,73.69,177Zm-5.06,1.36a4,4,0,0,0-2.09.87,10.9,10.9,0,0,0-2.23,2l.14,7.82a13.51,13.51,0,0,0,3.24-4.5,12.64,12.64,0,0,0,1.75-5.15Q69.44,178.37,68.63,178.37Z"/><path class="cls-3" d="M95.72,200.47a1.67,1.67,0,0,1,0,.37,2,2,0,0,1-1.19,1.72,4.91,4.91,0,0,1-2.48.7,2.32,2.32,0,0,1-1.26-.31,1.65,1.65,0,0,1-.6-.8,1.8,1.8,0,0,0-.56-.8l-7.51-5,.3,3.13a3.57,3.57,0,0,0,.53,1,2.44,2.44,0,0,1,.49,1.26,1.76,1.76,0,0,1-1,1.4,2.47,2.47,0,0,1-1.46.4,4.31,4.31,0,0,1-2.35-.68,2.67,2.67,0,0,1-1.42-1.73,1.61,1.61,0,0,1,0-.34,1,1,0,0,1,.46-.83c.31-.24.46-.46.46-.67l-1.09-19.38a3.53,3.53,0,0,0-.37-1.17,2.89,2.89,0,0,1-.34-1.07c0-.59.38-1.06,1.15-1.43a4.4,4.4,0,0,1,1.94-.47,3.13,3.13,0,0,1,1.12.18,1.11,1.11,0,0,1,.65.58c.11.26.25.39.41.39a17.46,17.46,0,0,0,2.07-.75,12.48,12.48,0,0,1,4.18-.88,5.3,5.3,0,0,1,4.22,1.84,2.12,2.12,0,0,1,.44,1.42c0,1.66-1,4-2.85,7a32.53,32.53,0,0,1-5.61,6.8l8.77,6.12s.59.29,1.7.81A1.92,1.92,0,0,1,95.72,200.47Zm-9.11-21.12a4.78,4.78,0,0,0-2.38,1.43c-.22.18-1.06,1-2.51,2.35l-.07,6.08a32.4,32.4,0,0,0,3.81-5.15c1.13-1.89,1.7-3.24,1.7-4.06C87.16,179.57,87,179.35,86.61,179.35Z"/><path class="cls-3" d="M104.05,202.44c-.2.57-.79.85-1.76.85a5.69,5.69,0,0,1-.89-.07c-1.86-.29-2.94-.85-3.26-1.66a1.18,1.18,0,0,1-.1-.48,2,2,0,0,1,.78-1.43q-.13-5.1-.61-20.81a2.18,2.18,0,0,0-.24-1,2.49,2.49,0,0,1-.27-.87,1.83,1.83,0,0,1,.78-1.29,2.23,2.23,0,0,1,1.53-.48,5.8,5.8,0,0,1,2.38.58c1,.48,1.49,1.05,1.49,1.73a9,9,0,0,1-.71,1.84l.34,20.6a2.42,2.42,0,0,0,.31,1,2.55,2.55,0,0,1,.3,1A1.59,1.59,0,0,1,104.05,202.44Z"/><path class="cls-3" d="M123.13,179.46l-5.51,20a1.39,1.39,0,0,0,0,.3,6.23,6.23,0,0,0,.08.85,7.08,7.08,0,0,1,.09,1,2.29,2.29,0,0,1-.6,1.65,2,2,0,0,1-1.44.62,4.31,4.31,0,0,1-2.76-1.34,3.63,3.63,0,0,1-1.49-2.57,2.77,2.77,0,0,1,.17-.74,1.44,1.44,0,0,0,.06-.75l-3.87-19.38c0-.16-.26-.41-.7-.75a1.41,1.41,0,0,1-.66-1.09c0-1,1-1.53,2.89-1.53a6.22,6.22,0,0,1,2.29.41,2,2,0,0,1,1.28,1.12,1.47,1.47,0,0,1,.07.41,2.2,2.2,0,0,1-.28.88,1.64,1.64,0,0,0-.2,1L115,192.24l3.47-13.6a3.69,3.69,0,0,0,.06-.71V177a1.87,1.87,0,0,1,1-1.66A2.77,2.77,0,0,1,121,175a4.84,4.84,0,0,1,2.55.73,2.07,2.07,0,0,1,1.19,1.72,1.59,1.59,0,0,1-.13.6,1.84,1.84,0,0,1-.74.68A1.38,1.38,0,0,0,123.13,179.46Z"/><path class="cls-3" d="M140.13,195.78a1.31,1.31,0,0,1-1.06.54l-1.46.07a10.23,10.23,0,0,0,1.77,3.81,2,2,0,0,1,.88,1.7c0,1.11-.68,1.66-2,1.66a3.1,3.1,0,0,1-2.65-1,2,2,0,0,1-.3-.92c0-.25,0-.51,0-.78a27.92,27.92,0,0,1-1.83-3.95q-2.79.4-6.87,1.16a23.28,23.28,0,0,0-.89,2.85,3.07,3.07,0,0,1,.07.65,1.7,1.7,0,0,1-.61,1.41,2.26,2.26,0,0,1-1.46.49,2.6,2.6,0,0,1-1.77-.71,2.18,2.18,0,0,1-.82-1.67,2,2,0,0,1,.79-1.53A108.56,108.56,0,0,1,128,178.16a5.52,5.52,0,0,1-.06-.81,2.24,2.24,0,0,1,1.15-2.25,3.29,3.29,0,0,1,1.23-.2,5.75,5.75,0,0,1,2.38.44,2,2,0,0,1,1.22,1.84,3.38,3.38,0,0,1-.61,2,83.33,83.33,0,0,0,2.79,13.33c.13,0,.6-.13,1.39-.34a4.62,4.62,0,0,1,1.09-.2,1.19,1.19,0,0,1,.71.2,2.73,2.73,0,0,1,1.19,2.25A2.68,2.68,0,0,1,140.13,195.78ZM132,193.19q-.58-2.15-1.84-8.23a31.13,31.13,0,0,0-2.85,9Z"/><path class="cls-3" d="M154.54,179.25A1.62,1.62,0,0,1,153,180a8.73,8.73,0,0,0-1.87.1c-.84.36-1.82.77-2.93,1.22-.07,1.73-.1,3.62-.1,5.68q0,6.28.37,12.89a3.14,3.14,0,0,0,.36,1.24,3.1,3.1,0,0,1,.36,1.1,1.24,1.24,0,0,1-.31.82,2.59,2.59,0,0,1-2.24,1,4.75,4.75,0,0,1-2.47-.7,2.47,2.47,0,0,1-1.34-1.65c-.07-.34.11-.72.53-1.15a1.83,1.83,0,0,0,.63-1.23q-.24-6.76-.24-11.83c0-2,0-3.67.1-4.9l-1,.34a2.9,2.9,0,0,1-1,.24,1.46,1.46,0,0,1-1-.37,14.34,14.34,0,0,1-1.36-1.23,1.87,1.87,0,0,1-.55-1.29,2.22,2.22,0,0,1,.07-.54c.07-.32,1.72-1,5-1.94a55.19,55.19,0,0,0,5.65-1.87,2.26,2.26,0,0,0,.83-.61,1.71,1.71,0,0,1,1-.55,3.12,3.12,0,0,1,2,1,3.37,3.37,0,0,1,1.36,2.48A2.07,2.07,0,0,1,154.54,179.25Z"/><path class="cls-3" d="M170.15,197.07a7,7,0,0,1-1.68,4.64,5.23,5.23,0,0,1-4.17,2,7.72,7.72,0,0,1-7.34-4.76q-2.55-1.66-2.55-2.82a1.11,1.11,0,0,1,.71-1,5.56,5.56,0,0,1,2.55-.74c1.68,0,2.8,1,3.37,3,.27.54.55,1.09.85,1.63a1.34,1.34,0,0,0,1.19.82c1.34,0,2-1,2-2.86,0-1.7-.3-2.84-.91-3.43A18.36,18.36,0,0,0,160.9,192a7.69,7.69,0,0,1-3.67-3.26,8.68,8.68,0,0,1-1.29-4.39,11.53,11.53,0,0,1,1.83-6.53q2-3.06,4.9-3.06a5.3,5.3,0,0,1,5,2.72,9.07,9.07,0,0,1,1.16,4.22,8.45,8.45,0,0,1,.37,2.35,3,3,0,0,1-.17,1.12,2,2,0,0,1-2,1.26,3,3,0,0,1-2-.82,3.93,3.93,0,0,1-1.26-2.48,1.55,1.55,0,0,1,.22-1.09,2.83,2.83,0,0,0,.32-.61.22.22,0,0,0-.06-.14,1.87,1.87,0,0,0,0-.34c0-.68-.4-1-1.19-.95a2.17,2.17,0,0,0-1.8,1.53,6.1,6.1,0,0,0-.51,2.89q.11,2.9,3.81,4.62a12.09,12.09,0,0,1,4,2.69A8,8,0,0,1,170.15,197.07Z"/><path class="cls-3" d="M190.48,200.26a3.13,3.13,0,0,1-.85,2.06,2.36,2.36,0,0,1-1.94.77,4.21,4.21,0,0,1-3.94-2.83,4.13,4.13,0,0,1-.2-1.32,3.53,3.53,0,0,0-.34-1.33q-1.26-1.94-2.32-3.74a60.47,60.47,0,0,1-3.8-7.27q-.14,3.47.54,13.05a3,3,0,0,0,.34.92,2.87,2.87,0,0,1,.34,1.19,1.76,1.76,0,0,1-.41,1.12,2,2,0,0,1-1.73.75,4.33,4.33,0,0,1-2.4-.76,2.6,2.6,0,0,1-1.31-1.79,1.31,1.31,0,0,1,.44-1.26q.56-.44.51-.78l-1-20.81a3.31,3.31,0,0,0-.06-.51,2.41,2.41,0,0,1-.07-.51.9.9,0,0,1,.52-.81,2.94,2.94,0,0,1,1.48-.31,4.44,4.44,0,0,1,3.64,1.33,1.14,1.14,0,0,1,.31.81,2.64,2.64,0,0,1-.07.55,2.38,2.38,0,0,0-.07.47.52.52,0,0,0,0,.21q.67,3.47,7.14,14.55l-.41-16.59a1.27,1.27,0,0,0-.24-.68,1.25,1.25,0,0,1-.24-.58A1.85,1.85,0,0,1,185,175a1.48,1.48,0,0,1,1.16-.41,4.63,4.63,0,0,1,2.58.88,2.51,2.51,0,0,1,1.36,1.91,1.1,1.1,0,0,1-.52,1c-.38.25-.57.5-.57.74l.48,18.64A2.31,2.31,0,0,0,190,199,2.12,2.12,0,0,1,190.48,200.26Z"/><path class="cls-3" d="M212,195.78a1.3,1.3,0,0,1-1.05.54l-1.47.07a10.23,10.23,0,0,0,1.77,3.81,2,2,0,0,1,.89,1.7c0,1.11-.68,1.66-2,1.66a3.11,3.11,0,0,1-2.66-1,2,2,0,0,1-.3-.92,7,7,0,0,0,0-.78,27.92,27.92,0,0,1-1.83-3.95q-2.79.4-6.87,1.16a21.89,21.89,0,0,0-.88,2.85,3.83,3.83,0,0,1,.06.65,1.7,1.7,0,0,1-.61,1.41,2.24,2.24,0,0,1-1.46.49,2.62,2.62,0,0,1-1.77-.71,2.17,2.17,0,0,1-.81-1.67,2,2,0,0,1,.78-1.53,107.83,107.83,0,0,1,6.19-21.42,4.43,4.43,0,0,1-.07-.81A2.24,2.24,0,0,1,201,175.1a3.29,3.29,0,0,1,1.23-.2,5.75,5.75,0,0,1,2.38.44,2,2,0,0,1,1.22,1.84,3.38,3.38,0,0,1-.61,2A83.33,83.33,0,0,0,208,192.51c.13,0,.6-.13,1.39-.34a4.62,4.62,0,0,1,1.09-.2,1.19,1.19,0,0,1,.71.2,2.73,2.73,0,0,1,1.19,2.25A2.68,2.68,0,0,1,212,195.78Zm-8.16-2.59Q203.22,191,202,185a31.13,31.13,0,0,0-2.85,9Z"/><path class="cls-3" d="M232.44,199a2.88,2.88,0,0,1,.1.78,3.88,3.88,0,0,1-1.12,2.65A3.28,3.28,0,0,1,229,203.7a2.29,2.29,0,0,1-.78-.14,2.63,2.63,0,0,1-1.63-2,4.34,4.34,0,0,0-1.09-2.28l-6.12-4.76.41,4.08a5.15,5.15,0,0,0,.34,1.31,4.16,4.16,0,0,1,.3,1.24,1.8,1.8,0,0,1-.66,1.33,2.28,2.28,0,0,1-1.61.61,4.15,4.15,0,0,1-2.25-.78,2.4,2.4,0,0,1-1.29-1.87,1.38,1.38,0,0,1,.37-.82,1.3,1.3,0,0,0,.38-.81l-.88-20.06a3.08,3.08,0,0,0-.36-1.06,2.16,2.16,0,0,1-.32-.92,2.08,2.08,0,0,1,.88-1.42,2,2,0,0,1,1.09-.17c2,0,3.28.46,3.8,1.39a1.47,1.47,0,0,1,.21.71,2.2,2.2,0,0,1-.31.94,2.35,2.35,0,0,0-.3,1v8.3l5.71-10.13c.23-.59.44-1.18.64-1.77a1.6,1.6,0,0,1,1.57-.92,3.89,3.89,0,0,1,2.21.78c.84.59,1.2,1.23,1.09,1.91a1.34,1.34,0,0,1-.65,1,2.25,2.25,0,0,0-.78.61l-6.87,12,7.89,6,1.48.92A2.13,2.13,0,0,1,232.44,199Z"/><path class="cls-3" d="M240.29,198.87a2.29,2.29,0,0,1-.07.95l-.3,1c0,.37,0,.75-.09,1.14a1.52,1.52,0,0,1-.37.94,1.82,1.82,0,0,1-1.28.34,3.51,3.51,0,0,1-1.66-.38,1.33,1.33,0,0,1-.89-1.12,2,2,0,0,1,.19-.75,5.26,5.26,0,0,0,.24-.68,7.72,7.72,0,0,0,0-1.29,1.49,1.49,0,0,1,.4-1.15,1.74,1.74,0,0,1,1.24-.38,3.65,3.65,0,0,1,1.66.39A1.55,1.55,0,0,1,240.29,198.87Z"/><path class="cls-3" d="M257.46,180.54c.09,1.52-.43,4.19-1.56,8A58.34,58.34,0,0,1,251.82,199q-2.76,5.15-5,5.14a3.2,3.2,0,0,1-2.22-1,2.93,2.93,0,0,1-1.07-2.11,1.51,1.51,0,0,1,.3-.92q-.54-14.66-.41-19.92a3.92,3.92,0,0,1-.71-1.74,1.75,1.75,0,0,1,.92-1.43,2.92,2.92,0,0,1,1.7-.57,2,2,0,0,1,1.36.47,21.32,21.32,0,0,1,5.88-1.73,3.38,3.38,0,0,1,1.53.37,6.15,6.15,0,0,1,2.14,1.91A5.92,5.92,0,0,1,257.46,180.54Zm-4.62-1a1.12,1.12,0,0,0-.89-.4q-1,0-4.15,2.44c-.13,1.7-.2,3.59-.2,5.65,0,2.95.14,6,.41,9.11q1.8-4.38,3.33-9.21a29.71,29.71,0,0,0,1.63-6.94A1.13,1.13,0,0,0,252.84,179.52Z"/><path class="cls-3" d="M278.1,199a2.88,2.88,0,0,1,.1.78,3.84,3.84,0,0,1-1.12,2.65,3.28,3.28,0,0,1-2.42,1.23,2.29,2.29,0,0,1-.78-.14,2.63,2.63,0,0,1-1.63-2,4.34,4.34,0,0,0-1.09-2.28L265,194.55l.41,4.08a5.15,5.15,0,0,0,.34,1.31,4.26,4.26,0,0,1,.31,1.24,1.81,1.81,0,0,1-.67,1.33,2.28,2.28,0,0,1-1.61.61,4.15,4.15,0,0,1-2.25-.78,2.4,2.4,0,0,1-1.29-1.87,1.34,1.34,0,0,1,.38-.82,1.33,1.33,0,0,0,.37-.81l-.88-20.06a3.08,3.08,0,0,0-.36-1.06,2.16,2.16,0,0,1-.32-.92,2.08,2.08,0,0,1,.88-1.42,2,2,0,0,1,1.09-.17c2,0,3.28.46,3.81,1.39a1.57,1.57,0,0,1,.2.71,2.2,2.2,0,0,1-.31.94,2.35,2.35,0,0,0-.3,1v8.3l5.71-10.13c.23-.59.44-1.18.65-1.77a1.58,1.58,0,0,1,1.56-.92,3.89,3.89,0,0,1,2.21.78c.84.59,1.2,1.23,1.09,1.91a1.34,1.34,0,0,1-.65,1,2.25,2.25,0,0,0-.78.61l-6.87,12,7.89,6,1.48.92A2.13,2.13,0,0,1,278.1,199Z"/><path class="cls-1" d="M181.86,82.72c1.68,16-11.32,33.5-26.1,38.3a189.56,189.56,0,0,1-20.31,5.07,19,19,0,0,0,.05,9.11,19.85,19.85,0,0,0,5.81,9.64,80.4,80.4,0,0,1-16.65-6.71,77.78,77.78,0,0,1-11.35-7.49,258.68,258.68,0,0,1-42.8,5.26c-17.13.68-25.83.77-36-2.73-12-4.14-31.09-15.81-32.46-33.4C.85,84.08,14.36,72,19.73,67.25,37,51.81,57.86,49.55,88.6,46.64c30.2-2.86,49.78-4.45,69,6.72C163.92,57,180.17,66.47,181.86,82.72Z"/><path class="cls-3" d="M53.74,81.9a4.77,4.77,0,0,1-1.3,2.86c-.17.2-1,1.11-2.6,2.74-.25.48-.51,1-.76,1.42a1.27,1.27,0,0,1-1.2.6A3.23,3.23,0,0,1,45.6,88.1a1.34,1.34,0,0,1-.32-.78,1,1,0,0,1,.44-.76q-.19-1.09-.38-6c-.09-2.67-.14-4.49-.14-5.46a2.49,2.49,0,0,1-.42-1.36,1.17,1.17,0,0,1,.3-.84.86.86,0,0,1,.64-.22,2.17,2.17,0,0,1,1.76.82,9.59,9.59,0,0,1,3.16-.72,1.88,1.88,0,0,1,1.84.88,2.58,2.58,0,0,1,.3,1.24,6.51,6.51,0,0,1-2.26,4.4l1.84.56a1.85,1.85,0,0,1,1.12.87A2.67,2.67,0,0,1,53.74,81.9Zm-4.26-6.6a4.46,4.46,0,0,0-1.84.88c0,.12,0,.51,0,1.17s0,1.1,0,1.31A9,9,0,0,0,49.19,77a2.91,2.91,0,0,0,.67-1.41C49.86,75.41,49.73,75.3,49.48,75.3Zm.68,6.36a3.34,3.34,0,0,0-2.2.88l.08,3C50,84.07,50.9,83,50.9,82.2,50.9,81.84,50.65,81.66,50.16,81.66Z"/><path class="cls-3" d="M62.7,78.46c-.05.28-.31.47-.76.58a2.2,2.2,0,0,0-1,.46l-3.26,3.76v3a1.8,1.8,0,0,0,.25.89,1.56,1.56,0,0,1,.25.69,1.38,1.38,0,0,1-1.52,1.3,1.46,1.46,0,0,1-1.14-.46,1.05,1.05,0,0,1-.28-.76,4.39,4.39,0,0,1,0-.52,4.68,4.68,0,0,0,0-.58V79.38a.85.85,0,0,0-.16-.44.82.82,0,0,1-.16-.42.71.71,0,0,1,.08-.28q.25-.48,1.62-.48c.71,0,1.11.17,1.2.5a1.22,1.22,0,0,1,.06.34.39.39,0,0,1-.16.34.31.31,0,0,0-.16.24l0,.72,1.72-1.82c.2-.23.41-.45.63-.68a1.26,1.26,0,0,1,.77-.38,2.2,2.2,0,0,1,1.31.3,1.06,1.06,0,0,1,.63.94A1.36,1.36,0,0,1,62.7,78.46Z"/><path class="cls-3" d="M71.2,78.9a1.09,1.09,0,0,1-.12.64,4.08,4.08,0,0,0-.24.68A32.45,32.45,0,0,1,70.5,86q-.73,3.41-3.14,3.4-3.49,0-3.5-6.38a27.7,27.7,0,0,1,.26-3.64,3,3,0,0,1-.14-.82,1.4,1.4,0,0,1,.38-1,1.22,1.22,0,0,1,.94-.34,2.15,2.15,0,0,1,.94.21c.29.14.47.3.52.49a.9.9,0,0,1,0,.28,2.59,2.59,0,0,1-.22.83,2,2,0,0,0-.18.93,16.88,16.88,0,0,0-.2,2.82,15.17,15.17,0,0,0,.22,2.86Q66.71,87,67.2,87c.56,0,.93-1,1.1-2.84.09-1,.14-2.45.14-4.52a4,4,0,0,0-.06-.58,4,4,0,0,1-.06-.56.67.67,0,0,1,.36-.66,1.22,1.22,0,0,1,.56-.1,2.64,2.64,0,0,1,1.22.28A1.22,1.22,0,0,1,71.2,78.9Z"/><path class="cls-3" d="M79.68,78c0,1.15.08,3,.18,5.66,0,1.85.08,3.18.08,4a10.28,10.28,0,0,1-.42,3.6,1.84,1.84,0,0,1-1.7,1.06A3.83,3.83,0,0,1,75,91.5a3.82,3.82,0,0,1-.76-.28,1,1,0,0,1-.44-.68c-.12-.63.37-.94,1.48-.94a3,3,0,0,1,.8.1,1.31,1.31,0,0,1,.62.47,1,1,0,0,0,.64.43c.38,0,.58-.52.58-1.64,0-.48,0-1.26-.1-2.34a12.76,12.76,0,0,1-1,1.58,2.09,2.09,0,0,1-1.54.68c-.83,0-1.5-.57-2-1.72a9.38,9.38,0,0,1-.7-3.84,9.2,9.2,0,0,1,.74-3.92,2.67,2.67,0,0,1,2.32-1.84,1.67,1.67,0,0,1,1.18.32c.25.23.5.46.74.7a1,1,0,0,1,.12-1.08.88.88,0,0,1,.66-.22,1.76,1.76,0,0,1,.84.22A1.08,1.08,0,0,1,79.68,78Zm-2.4,5.1a5.56,5.56,0,0,0-.28-2.2c-.27-.77-.61-1.16-1-1.16s-.65.39-.92,1.16a7.26,7.26,0,0,0-.4,2.2,8.46,8.46,0,0,0,.18,2.2c.19.77.44,1.16.78,1.16s.63-.38,1-1.13A5.85,5.85,0,0,0,77.28,83.14Z"/><path class="cls-3" d="M93.32,79.18a.81.81,0,0,1-.73.58l-1.07.1-1.44.4,0,6.5a1.48,1.48,0,0,0,.38,1,1.38,1.38,0,0,1,.38.7.71.71,0,0,1-.06.28,1.13,1.13,0,0,1-1.18.7,2.07,2.07,0,0,1-1.07-.29,1.15,1.15,0,0,1-.59-.71,6.06,6.06,0,0,1-.12-1.32V80.86A1.52,1.52,0,0,1,87,81c-.92-.12-1.38-.49-1.38-1.12a1.24,1.24,0,0,1,.18-.6q.12-.2.72-.3a9.43,9.43,0,0,0,1.2-.26,14,14,0,0,1,.52-4.3A3.79,3.79,0,0,1,90.8,72a1,1,0,0,1,.32,0,2.33,2.33,0,0,1,1.17.36c.41.24.59.45.55.64s-.3.49-.72.62a2.29,2.29,0,0,0-1,.54,4.55,4.55,0,0,0-.94,1.84A8.3,8.3,0,0,0,90,78.06l1-.3a3,3,0,0,1,1-.14,1.41,1.41,0,0,1,.93.42,1.16,1.16,0,0,1,.43.86A.9.9,0,0,1,93.32,79.18Z"/><path class="cls-3" d="M100.34,78.34c.89.91,1.34,2.43,1.34,4.58a9,9,0,0,1-.94,4.26,3.24,3.24,0,0,1-2.92,2A3.1,3.1,0,0,1,95,87.38a8,8,0,0,1-.88-4,9.94,9.94,0,0,1,.68-3.8c.48-1.2,1.09-1.91,1.84-2.12a4.29,4.29,0,0,1,1.2-.16A3.42,3.42,0,0,1,100.34,78.34Zm-2.28,1c-.44,0-.82.38-1.14,1.24A7.34,7.34,0,0,0,96.5,83a14.8,14.8,0,0,0,.16,2.66c.18.93.57,1.45,1.16,1.54.37,0,.72-.46,1-1.54a12,12,0,0,0,.46-3.34C99.32,80.39,98.9,79.38,98.06,79.3Z"/><path class="cls-3" d="M110.88,78.46c-.06.28-.31.47-.76.58a2.09,2.09,0,0,0-1,.46l-3.26,3.76v3a1.8,1.8,0,0,0,.25.89,1.7,1.7,0,0,1,.25.69,1.38,1.38,0,0,1-1.52,1.3,1.46,1.46,0,0,1-1.14-.46,1.05,1.05,0,0,1-.28-.76,4.39,4.39,0,0,1,0-.52c0-.24,0-.43,0-.58V79.38a1,1,0,0,0-.16-.44.82.82,0,0,1-.16-.42.57.57,0,0,1,.08-.28q.26-.48,1.62-.48c.7,0,1.1.17,1.2.5a1.22,1.22,0,0,1,.06.34.41.41,0,0,1-.16.34.31.31,0,0,0-.16.24l0,.72,1.72-1.82c.2-.23.41-.45.63-.68A1.23,1.23,0,0,1,109,77a2.2,2.2,0,0,1,1.31.3,1.06,1.06,0,0,1,.63.94A1.36,1.36,0,0,1,110.88,78.46Z"/><path class="cls-3" d="M123.12,86.56A3.32,3.32,0,0,1,122,88.18a2.74,2.74,0,0,1-1.1.58,4.53,4.53,0,0,1-1.9.36,2.85,2.85,0,0,1-2.36-1.72,7.89,7.89,0,0,1-.78-3.68,9.21,9.21,0,0,1,.88-4.14,3.53,3.53,0,0,1,2.62-2.2,4.4,4.4,0,0,1,.62,0c1.58,0,2.46,1,2.62,2.92a4.36,4.36,0,0,1-1.06,2.92,6.83,6.83,0,0,1-3.28,2.44,6.46,6.46,0,0,0,.34,1,.85.85,0,0,0,.76.5,1.77,1.77,0,0,0,1-.36,2,2,0,0,0,.6-.58s.1-.18.16-.45a.79.79,0,0,1,.42-.59.61.61,0,0,1,.28-.06,1.31,1.31,0,0,1,.93.47A1.09,1.09,0,0,1,123.12,86.56Zm-3.14-7c-.54,0-1,.38-1.3,1.14a6.23,6.23,0,0,0-.54,3,3.65,3.65,0,0,0,1.74-1.4,3.5,3.5,0,0,0,.8-2C120.68,79.78,120.44,79.52,120,79.52Z"/><path class="cls-3" d="M133.8,87.38a1,1,0,0,1-.58.75,2.33,2.33,0,0,1-1.2.31,1.41,1.41,0,0,1-1.34-.62q.15-6.16-.36-6.24t-2.44,5.52v1.2a1.34,1.34,0,0,1-.39,1,1.24,1.24,0,0,1-.79.3,2.32,2.32,0,0,1-1.54-.78c-.16-.13-.25-1.15-.26-3q0,1.74,0-6.46c0-.12,0-.28,0-.49a3.39,3.39,0,0,1,0-.45,1.08,1.08,0,0,1,.2-.66.84.84,0,0,1,.76-.36,2.34,2.34,0,0,1,1.13.33,1.55,1.55,0,0,1,.71.63,1.14,1.14,0,0,1,.08.4,1.68,1.68,0,0,1-.16.56,1.49,1.49,0,0,0-.16.6v2.76a23.59,23.59,0,0,1,1.9-3.54,3,3,0,0,1,2.58-1.38c.57,0,1,.57,1.22,1.6a17.29,17.29,0,0,1,.3,3.44v3.6a2.1,2.1,0,0,0,.28.5A.79.79,0,0,1,133.8,87.38Z"/><path class="cls-3" d="M47.44,107.14a8.29,8.29,0,0,1-.9,3.86c-.67,1.25-1.49,1.88-2.46,1.88-.55,0-1.11-.43-1.68-1.3v2.56a1.94,1.94,0,0,0,.26.82,1.92,1.92,0,0,1,.26.76.85.85,0,0,1-.1.4,1.63,1.63,0,0,1-1.64.9c-.67,0-1.08-.24-1.24-.72a1.54,1.54,0,0,1-.08-.46,1.81,1.81,0,0,1,.13-.59,1.91,1.91,0,0,0,.13-.63V103.24a1.16,1.16,0,0,0-.16-.53,1.16,1.16,0,0,1-.16-.51.88.88,0,0,1,.08-.34c.16-.37.65-.56,1.48-.56a1.31,1.31,0,0,1,1,.32.44.44,0,0,1,.1.3,1.49,1.49,0,0,1-.1.44,2.08,2.08,0,0,0-.12.46,2.62,2.62,0,0,1,2.16-1.32,2.55,2.55,0,0,1,2.42,1.88A10.24,10.24,0,0,1,47.44,107.14Zm-2.52,0a22.37,22.37,0,0,0-.08-2.42c-.13-.87-.47-1.3-1-1.3-.31,0-.58.42-.83,1.25a8.56,8.56,0,0,0-.37,2.47,7.12,7.12,0,0,0,.4,2.16c.27.88.53,1.32.8,1.32s.59-.41.8-1.22A8.69,8.69,0,0,0,44.92,107.14Z"/><path class="cls-3" d="M56.62,102.46c-.06.28-.31.47-.76.58a2.15,2.15,0,0,0-1,.46l-3.26,3.76v3a1.8,1.8,0,0,0,.25.89,1.7,1.7,0,0,1,.25.69,1.38,1.38,0,0,1-1.52,1.3,1.46,1.46,0,0,1-1.14-.46,1.05,1.05,0,0,1-.28-.76,4.39,4.39,0,0,1,0-.52c0-.24,0-.43,0-.58v-7.48a1,1,0,0,0-.16-.44.82.82,0,0,1-.16-.42.71.71,0,0,1,.08-.28q.26-.48,1.62-.48c.71,0,1.1.17,1.2.5a1.22,1.22,0,0,1,.06.34.39.39,0,0,1-.16.34.31.31,0,0,0-.16.24l0,.72,1.72-1.82c.2-.23.41-.45.63-.68a1.26,1.26,0,0,1,.77-.38,2.2,2.2,0,0,1,1.31.3,1.06,1.06,0,0,1,.63.94A1.36,1.36,0,0,1,56.62,102.46Z"/><path class="cls-3" d="M61,102.54a2.27,2.27,0,0,1-.31.87,2.18,2.18,0,0,0-.31,1v5.88a4.11,4.11,0,0,0,.22,1.13,4.63,4.63,0,0,1,.22,1,.66.66,0,0,1-.32.6,2,2,0,0,1-1.08.32,1.15,1.15,0,0,1-1.08-.52c-.28-.43-.42-1.7-.42-3.82q0-.77,0-2.37c0-1.07,0-1.86,0-2.35a5.72,5.72,0,0,0-.06-.73,5.64,5.64,0,0,1-.06-.65,1.56,1.56,0,0,1,.48-1.14,1.06,1.06,0,0,1,.74-.2,3.69,3.69,0,0,1,1.08.17,1.27,1.27,0,0,1,.69.39A.78.78,0,0,1,61,102.54Zm-.26-4.88a.28.28,0,0,1,.06.2,2.75,2.75,0,0,1-.12.62c-.1.36-.16.61-.18.74a3.19,3.19,0,0,0,0,.88.58.58,0,0,1-.25.55,1.34,1.34,0,0,1-.63.13,2.92,2.92,0,0,1-1.1-.22c-.46-.19-.68-.43-.68-.74a1,1,0,0,1,.12-.39,1.65,1.65,0,0,0,.14-.41,4.86,4.86,0,0,0,0-.8.72.72,0,0,1,.2-.68,2,2,0,0,1,1.14-.24A1.76,1.76,0,0,1,60.76,97.66Z"/><path class="cls-3" d="M72.14,101.86a1.14,1.14,0,0,1,.14.54,2.22,2.22,0,0,1-.34,1,7.65,7.65,0,0,0-.56,1q-.88,2.52-2.26,6.36a5.3,5.3,0,0,1-.66,1.88,1.54,1.54,0,0,1-1.48.7,2,2,0,0,1-1.26-.38,1,1,0,0,1-.24-.74v-.42a2.52,2.52,0,0,0-.06-.6l-2-7.32a2.63,2.63,0,0,0-.52-.78.86.86,0,0,1-.3-.78c.13-.59.6-.88,1.42-.88a2.45,2.45,0,0,1,.48,0c.52.11,1,1,1.54,2.74s.83,3.22,1.26,4.82l2.08-6.4a3.54,3.54,0,0,1,.26-.66,1.29,1.29,0,0,1,.51-.5,1.67,1.67,0,0,1,.81-.18A1.27,1.27,0,0,1,72.14,101.86Z"/><path class="cls-3" d="M81.78,111.82a1.38,1.38,0,0,1-1.48,1,1,1,0,0,1-1.08-1,13,13,0,0,0-.48-1.78,3.5,3.5,0,0,1-1.2,2.23,3.33,3.33,0,0,1-2.3,1.13c-1,0-1.65-.65-2-1.94a4.82,4.82,0,0,1-.2-1.36,3.81,3.81,0,0,1,1.9-3.18c1-.61,2.08-1.22,3.14-1.82a3.13,3.13,0,0,0,.08-.66c0-.41-.12-.66-.34-.73a2.07,2.07,0,0,0-.58-.11.93.93,0,0,0-.69.27l-.51.51a2.7,2.7,0,0,0-.62.74,1,1,0,0,1-.66.5,1.1,1.1,0,0,1-.94-.36,1.35,1.35,0,0,1-.42-1,1.06,1.06,0,0,1,.16-.58,3.82,3.82,0,0,1,1.38-1.32,6.69,6.69,0,0,1,3.5-.84,1.84,1.84,0,0,1,1.84,1.28,13.67,13.67,0,0,1,.48,3.22,34,34,0,0,0,.44,4.18,1.58,1.58,0,0,0,.34.66,1.24,1.24,0,0,1,.3.7A1.35,1.35,0,0,1,81.78,111.82ZM78.3,106.9c-.4.21-.8.43-1.19.66a4.39,4.39,0,0,0-1.09.9,2.34,2.34,0,0,0-.72,1.4,1.78,1.78,0,0,0,.36,1,.54.54,0,0,0,.44.28c.34,0,.72-.39,1.13-1.16A13.94,13.94,0,0,0,78.3,106.9Z"/><path class="cls-3" d="M89.52,103.58a1.46,1.46,0,0,1-.5-.13,1.54,1.54,0,0,0-.52-.13.67.67,0,0,0-.28.06l-.74.38v6.84a1.86,1.86,0,0,0,.41,1,1.37,1.37,0,0,1,.33,1,1.09,1.09,0,0,1-.59.7,2.27,2.27,0,0,1-1,.26,1.44,1.44,0,0,1-1.46-.94,7.1,7.1,0,0,1-.14-1.78c0-.67,0-1.71,0-3.12,0-1.6,0-2.61,0-3a1.7,1.7,0,0,0-.4.27.92.92,0,0,1-.56.23,1.71,1.71,0,0,1-.56-.12c-.94-.32-1.4-.65-1.4-1a.65.65,0,0,1,.06-.26.59.59,0,0,1,.52-.36,3.14,3.14,0,0,0,.7-.14c.3-.12.86-.41,1.68-.86v-1.74a1.91,1.91,0,0,0-.11-.53,1.51,1.51,0,0,1-.11-.49.61.61,0,0,1,.1-.34,1.59,1.59,0,0,1,1.4-.8,1.5,1.5,0,0,1,1.44.8,1.35,1.35,0,0,1,.16.52.75.75,0,0,1-.24.5.73.73,0,0,0-.24.48v1a3.4,3.4,0,0,0,.8-.54,1,1,0,0,1,.58-.28.64.64,0,0,1,.22,0,1.48,1.48,0,0,1,1.26,1.52,1.31,1.31,0,0,1-.23.72A.69.69,0,0,1,89.52,103.58Z"/><path class="cls-3" d="M101.92,110a3.4,3.4,0,0,1-3.36,3.38,2.7,2.7,0,0,1-1.78-.82,7.11,7.11,0,0,1-1.3-1.62c-.34-.56-.48-.91-.44-1.06.14-.33.6-.5,1.38-.5a1.78,1.78,0,0,1,.76.14.93.93,0,0,1,.54.66.92.92,0,0,0,.2.58c.28.43.53.64.76.64s.33-.12.49-.35a1.5,1.5,0,0,0,.23-.83,2.09,2.09,0,0,0-.1-.6c-.07-.2-.43-.51-1.08-.92a7.9,7.9,0,0,1-1.68-1.3,3.23,3.23,0,0,1-.86-2.24,4.13,4.13,0,0,1,.88-2.63,2.72,2.72,0,0,1,2.24-1.13,2.45,2.45,0,0,1,2.14,1.06,2.52,2.52,0,0,1,.5,1.74,1.21,1.21,0,0,1,.22.8,1.37,1.37,0,0,1-.44,1,1.33,1.33,0,0,1-.9.42c-.46,0-.85-.3-1.18-.9a1.19,1.19,0,0,1-.14-.64q0-.18,0-.51c0-.22,0-.38,0-.47,0-.35-.13-.52-.38-.52s-.58.38-.58,1.14a2.41,2.41,0,0,0,.76,1.86,6.68,6.68,0,0,0,1.3.8,3.6,3.6,0,0,1,1.22.9A3,3,0,0,1,101.92,110Z"/><path class="cls-3" d="M112.64,111.38a1,1,0,0,1-.58.75,2.33,2.33,0,0,1-1.2.31,1.41,1.41,0,0,1-1.34-.62q.15-6.16-.36-6.24t-2.44,5.52v1.2a1.34,1.34,0,0,1-.39,1,1.24,1.24,0,0,1-.79.3,2.32,2.32,0,0,1-1.54-.78c-.16-.13-.25-1.15-.26-3q0,1.74,0-6.46c0-.12,0-.28,0-.49a3.39,3.39,0,0,1,0-.45,1.08,1.08,0,0,1,.2-.66.84.84,0,0,1,.76-.36,2.34,2.34,0,0,1,1.13.33,1.55,1.55,0,0,1,.71.63,1.14,1.14,0,0,1,.08.4,1.68,1.68,0,0,1-.16.56,1.49,1.49,0,0,0-.16.6v2.76a23.59,23.59,0,0,1,1.9-3.54,3,3,0,0,1,2.58-1.38c.57,0,1,.57,1.22,1.6a17.29,17.29,0,0,1,.3,3.44v3.6a2.1,2.1,0,0,0,.28.5A.79.79,0,0,1,112.64,111.38Z"/><path class="cls-3" d="M122.94,111.82a1.38,1.38,0,0,1-1.48,1,1,1,0,0,1-1.08-1,13,13,0,0,0-.48-1.78,3.5,3.5,0,0,1-1.2,2.23,3.33,3.33,0,0,1-2.3,1.13c-1,0-1.65-.65-2-1.94a4.82,4.82,0,0,1-.2-1.36,3.81,3.81,0,0,1,1.9-3.18c1-.61,2.08-1.22,3.14-1.82a3.13,3.13,0,0,0,.08-.66c0-.41-.12-.66-.34-.73a2.07,2.07,0,0,0-.58-.11.93.93,0,0,0-.69.27l-.51.51a2.7,2.7,0,0,0-.62.74,1,1,0,0,1-.66.5,1.1,1.1,0,0,1-.94-.36,1.35,1.35,0,0,1-.42-1,1.06,1.06,0,0,1,.16-.58,3.82,3.82,0,0,1,1.38-1.32,6.69,6.69,0,0,1,3.5-.84,1.84,1.84,0,0,1,1.84,1.28,13.67,13.67,0,0,1,.48,3.22,34,34,0,0,0,.44,4.18,1.58,1.58,0,0,0,.34.66,1.24,1.24,0,0,1,.3.7A1.35,1.35,0,0,1,122.94,111.82Zm-3.48-4.92c-.4.21-.8.43-1.19.66a4.39,4.39,0,0,0-1.09.9,2.34,2.34,0,0,0-.72,1.4,1.78,1.78,0,0,0,.36,1,.54.54,0,0,0,.44.28c.34,0,.72-.39,1.13-1.16A13.94,13.94,0,0,0,119.46,106.9Z"/><path class="cls-3" d="M134,111.1a1.32,1.32,0,0,1,0,.28,1.63,1.63,0,0,1-1.33,1.62,1.78,1.78,0,0,1-.46.08.85.85,0,0,1-.66-.34,4.83,4.83,0,0,0-.57-.56l-3.6-2.52v1.68a1.16,1.16,0,0,0,.12.45,1.32,1.32,0,0,1,.11.41.7.7,0,0,1-.23.46,1.88,1.88,0,0,1-1.44.52,1.13,1.13,0,0,1-1.16-.6,1.15,1.15,0,0,1-.07-.58,5.76,5.76,0,0,0,.07-.7V98.14a7.3,7.3,0,0,1,.08-1.08c.12-.29.49-.44,1.1-.44.81,0,1.32.15,1.54.44a.8.8,0,0,1,.19.52,2.59,2.59,0,0,1-.16.68,3,3,0,0,0-.15.72q0,1.15,0,6.54c.75-.72,1.71-1.66,2.89-2.82a5.68,5.68,0,0,0,.61-.86,1.08,1.08,0,0,1,.67-.48.77.77,0,0,1,.27,0,2.09,2.09,0,0,1,1.2.44,1.22,1.22,0,0,1,.61.94,1.13,1.13,0,0,1-.4.68c-.27.27-.54.52-.81.76l-3.31,3.44,3.56,2.56a6.1,6.1,0,0,0,.79.32A.78.78,0,0,1,134,111.1Z"/><path class="cls-3" d="M140.48,97.18a2.55,2.55,0,0,1,1.1,2.06,7.25,7.25,0,0,1-1.2,3.2,31.09,31.09,0,0,0-1.94,3.62,1.55,1.55,0,0,0-.14.56.68.68,0,0,0,0,.2.88.88,0,0,1,0,.28c0-.13,0,.11,0,.74a.62.62,0,0,1-.22.53.89.89,0,0,1-.5.15,1.91,1.91,0,0,1-1.24-.53,1.7,1.7,0,0,1-.68-1.13c-.07-.61.44-1.93,1.52-4A13,13,0,0,0,139,99c0-.36-.1-.54-.28-.54-.43,0-1.16.74-2.2,2.22a1.77,1.77,0,0,0-.29.48,1.08,1.08,0,0,1-.41.49,1.13,1.13,0,0,1-.56.13,1.59,1.59,0,0,1-1-.36,1,1,0,0,1-.44-.86,1.28,1.28,0,0,1,1-1.16,15,15,0,0,1,1.84-1.94,3.54,3.54,0,0,1,2.18-.92A2.87,2.87,0,0,1,140.48,97.18ZM139.2,113a.85.85,0,0,1-.76.44,1.63,1.63,0,0,1-.95-.34,2.38,2.38,0,0,1-.73-.76,1.24,1.24,0,0,1-.16-.64v-.72a3.76,3.76,0,0,0-.11-.48,1.76,1.76,0,0,1-.09-.44.62.62,0,0,1,.13-.38c.08-.12.35-.18.79-.18a1.71,1.71,0,0,1,1.6.68,1.26,1.26,0,0,1,.16.64v.68a3.24,3.24,0,0,0,.12.57,2.82,2.82,0,0,1,.1.55A.86.86,0,0,1,139.2,113Z"/><path class="cls-3" d="M211.37,40.13a1.87,1.87,0,0,1,.27,1.06A12.08,12.08,0,0,1,209.93,46q-1.78,3.43-2.92,3.44a.47.47,0,0,1-.43-.33,10,10,0,0,0-.05,1c0,.72,0,1.54.12,2.48a1.61,1.61,0,0,0,.09.41,1.68,1.68,0,0,1,.09.44c0,.22-.15.42-.46.57a1.36,1.36,0,0,1-.58.11,2.4,2.4,0,0,1-1.12-.27,1.1,1.1,0,0,1-.68-.76,1.83,1.83,0,0,1,0-.21.8.8,0,0,1,.19-.5.74.74,0,0,0,.19-.29L204,40.49a.77.77,0,0,0-.06-.21,1.14,1.14,0,0,1-.05-.26c0-.21.15-.38.47-.5a1.92,1.92,0,0,1,.75-.14c.09,0,.42,0,1,.1a6.59,6.59,0,0,0,1.07-.38,4.62,4.62,0,0,1,1.7-.39A2.94,2.94,0,0,1,211.37,40.13Zm-2.68.72a2.21,2.21,0,0,0-1.11.46,6.28,6.28,0,0,0-1.18,1l.07,4.14a7,7,0,0,0,1.72-2.38,6.66,6.66,0,0,0,.93-2.73C209.12,41,209,40.85,208.69,40.85Z"/><path class="cls-3" d="M219.4,53a1.24,1.24,0,0,1-1.33.89,1.21,1.21,0,0,1-.58-.13,1.18,1.18,0,0,1-.39-.79,11,11,0,0,0-.44-1.6,3.07,3.07,0,0,1-1.08,2,3,3,0,0,1-2.07,1c-.87,0-1.48-.58-1.81-1.75a4.6,4.6,0,0,1-.19-1.22,3.43,3.43,0,0,1,1.71-2.86c.94-.55,1.88-1.1,2.83-1.64a2.44,2.44,0,0,0,.07-.59c0-.38-.1-.59-.3-.66a1.68,1.68,0,0,0-.53-.1.86.86,0,0,0-.62.24l-.45.46a2.31,2.31,0,0,0-.56.67.9.9,0,0,1-.6.45,1,1,0,0,1-.84-.33,1.2,1.2,0,0,1-.38-.88,1,1,0,0,1,.14-.52,3.64,3.64,0,0,1,1.24-1.19,6.1,6.1,0,0,1,3.15-.75A1.65,1.65,0,0,1,218,44.85a11.74,11.74,0,0,1,.43,2.9,31.39,31.39,0,0,0,.4,3.76,1.41,1.41,0,0,0,.3.59,1,1,0,0,1,.27.63A1,1,0,0,1,219.4,53Zm-3.13-4.42-1.07.59a3.56,3.56,0,0,0-1,.81,2.05,2.05,0,0,0-.65,1.26,1.62,1.62,0,0,0,.32.9.49.49,0,0,0,.4.25c.31,0,.65-.35,1-1A12.21,12.21,0,0,0,216.27,48.56Zm1.49-7.89A2.47,2.47,0,0,1,215.42,43a1.62,1.62,0,0,1-1.62-1.64,2.27,2.27,0,0,1,.65-1.56,2.23,2.23,0,0,1,1.67-.76,1.55,1.55,0,0,1,1.18.48A1.58,1.58,0,0,1,217.76,40.67Zm-1.49-.54a1.54,1.54,0,0,0-1,.53,1.5,1.5,0,0,0-.55,1q0,.54.51.54a1.44,1.44,0,0,0,1.11-.69,1.46,1.46,0,0,0,.36-.81Q216.75,40.13,216.27,40.13Z"/><path class="cls-2" d="M232.14,40.13a1.87,1.87,0,0,1,.27,1.06A12.08,12.08,0,0,1,230.7,46q-1.78,3.43-2.91,3.44a.47.47,0,0,1-.44-.33,10,10,0,0,0,0,1c0,.72,0,1.54.13,2.48a1.61,1.61,0,0,0,.09.41,1.68,1.68,0,0,1,.09.44c0,.22-.16.42-.47.57a1.36,1.36,0,0,1-.58.11,2.36,2.36,0,0,1-1.11-.27,1.09,1.09,0,0,1-.69-.76,1.83,1.83,0,0,1,0-.21.8.8,0,0,1,.19-.5.74.74,0,0,0,.19-.29l-.32-11.67a.77.77,0,0,0-.06-.21,1.14,1.14,0,0,1-.05-.26c0-.21.16-.38.47-.5a1.92,1.92,0,0,1,.75-.14c.09,0,.42,0,1,.1A6.59,6.59,0,0,0,228,39.1a4.66,4.66,0,0,1,1.7-.39A2.94,2.94,0,0,1,232.14,40.13Zm-2.68.72a2.21,2.21,0,0,0-1.11.46,6.28,6.28,0,0,0-1.18,1l.08,4.14A7.25,7.25,0,0,0,229,44.12a6.76,6.76,0,0,0,.92-2.73C229.89,41,229.75,40.85,229.46,40.85Z"/><path class="cls-2" d="M239.49,44.56c-.05.25-.28.43-.69.52a1.77,1.77,0,0,0-.91.42L235,48.88v2.74a1.66,1.66,0,0,0,.23.8,1.4,1.4,0,0,1,.22.62,1.08,1.08,0,0,1-.13.48,1.21,1.21,0,0,1-1.24.69,1.3,1.3,0,0,1-1-.42.94.94,0,0,1-.26-.68c0-.1,0-.25,0-.47s0-.39,0-.52V45.39a.8.8,0,0,0-.15-.4.81.81,0,0,1-.14-.38.56.56,0,0,1,.07-.25c.16-.29.64-.43,1.46-.43q.94,0,1.08.45a1.32,1.32,0,0,1,0,.31.36.36,0,0,1-.14.3.3.3,0,0,0-.15.22l0,.65,1.55-1.64c.18-.21.37-.41.57-.61a1.05,1.05,0,0,1,.69-.35,2.07,2.07,0,0,1,1.18.27,1,1,0,0,1,.56.85A1.09,1.09,0,0,1,239.49,44.56Z"/><path class="cls-2" d="M243.45,44.63a2,2,0,0,1-.28.78,2,2,0,0,0-.28.88v5.29a3.57,3.57,0,0,0,.2,1,3.79,3.79,0,0,1,.19.91.59.59,0,0,1-.28.54,1.8,1.8,0,0,1-1,.28,1.05,1.05,0,0,1-1-.46,8.71,8.71,0,0,1-.38-3.44q0-.69,0-2.13c0-1,0-1.68,0-2.12a4.7,4.7,0,0,0-.06-.66c0-.27,0-.46,0-.58a1.4,1.4,0,0,1,.43-1,.94.94,0,0,1,.67-.18,3.27,3.27,0,0,1,1,.15,1.2,1.2,0,0,1,.62.36A.69.69,0,0,1,243.45,44.63Zm-.24-4.39a.24.24,0,0,1,.06.18,2.73,2.73,0,0,1-.11.56c-.09.32-.14.54-.16.66a2.88,2.88,0,0,0,0,.8.5.5,0,0,1-.22.49,1.2,1.2,0,0,1-.57.12,2.77,2.77,0,0,1-1-.2c-.41-.17-.61-.39-.61-.67a.79.79,0,0,1,.11-.35,1.2,1.2,0,0,0,.12-.37,2.61,2.61,0,0,0,0-.72.67.67,0,0,1,.18-.61,1.84,1.84,0,0,1,1-.21A1.54,1.54,0,0,1,243.21,40.24Z"/><path class="cls-2" d="M253.45,44a1,1,0,0,1,.13.49,1.89,1.89,0,0,1-.31.9,9.9,9.9,0,0,0-.5.91c-.53,1.52-1.21,3.42-2,5.73a4.66,4.66,0,0,1-.6,1.69,1.36,1.36,0,0,1-1.33.63,1.83,1.83,0,0,1-1.13-.34.9.9,0,0,1-.22-.67V53a2.76,2.76,0,0,0-.05-.54l-1.84-6.58a2.27,2.27,0,0,0-.47-.71.79.79,0,0,1-.27-.7c.12-.53.55-.79,1.28-.79a1.91,1.91,0,0,1,.43,0c.47.09.93.91,1.39,2.46s.75,2.9,1.13,4.34l1.87-5.76a3.72,3.72,0,0,1,.24-.59,1.05,1.05,0,0,1,.46-.45,1.49,1.49,0,0,1,.73-.17A1.14,1.14,0,0,1,253.45,44Z"/><path class="cls-2" d="M262.13,53a1.23,1.23,0,0,1-1.33.89,1.21,1.21,0,0,1-.58-.13,1.18,1.18,0,0,1-.39-.79,11,11,0,0,0-.44-1.6,3.07,3.07,0,0,1-1.08,2,3,3,0,0,1-2.07,1c-.87,0-1.48-.58-1.81-1.75a4.56,4.56,0,0,1-.18-1.22A3.43,3.43,0,0,1,256,48.54c.93-.55,1.87-1.1,2.82-1.64a2.44,2.44,0,0,0,.07-.59c0-.38-.1-.59-.3-.66a1.67,1.67,0,0,0-.52-.1.83.83,0,0,0-.62.24l-.46.46a2.48,2.48,0,0,0-.56.67.9.9,0,0,1-.6.45A1,1,0,0,1,255,47a1.2,1.2,0,0,1-.38-.88,1,1,0,0,1,.14-.52A3.59,3.59,0,0,1,256,44.45a6.07,6.07,0,0,1,3.15-.75,1.64,1.64,0,0,1,1.65,1.15,11.74,11.74,0,0,1,.43,2.9,31.39,31.39,0,0,0,.4,3.76,1.46,1.46,0,0,0,.31.59,1.11,1.11,0,0,1,.27.63A1,1,0,0,1,262.13,53ZM259,48.56l-1.07.59a3.71,3.71,0,0,0-1,.81,2.05,2.05,0,0,0-.65,1.26,1.62,1.62,0,0,0,.32.9.49.49,0,0,0,.4.25c.31,0,.65-.35,1-1A12.76,12.76,0,0,0,259,48.56Z"/><path class="cls-2" d="M269.1,45.57a1.36,1.36,0,0,1-.45-.12,1.45,1.45,0,0,0-.47-.12.54.54,0,0,0-.25.06l-.67.34v6.16a1.7,1.7,0,0,0,.37.88,1.28,1.28,0,0,1,.3.86.93.93,0,0,1-.54.63,1.91,1.91,0,0,1-.94.24,1.31,1.31,0,0,1-1.31-.85,5.94,5.94,0,0,1-.13-1.6c0-.6,0-1.54,0-2.81,0-1.44,0-2.35,0-2.74a1.81,1.81,0,0,0-.36.25.8.8,0,0,1-.5.2,1.57,1.57,0,0,1-.5-.1c-.84-.29-1.26-.59-1.26-.89a.5.5,0,0,1,.05-.23.52.52,0,0,1,.47-.32,2.65,2.65,0,0,0,.63-.13c.27-.11.78-.37,1.51-.77V42.94a1.51,1.51,0,0,0-.1-.48,1.43,1.43,0,0,1-.1-.44.53.53,0,0,1,.09-.3,1.43,1.43,0,0,1,1.26-.72,1.35,1.35,0,0,1,1.3.72,1.16,1.16,0,0,1,.14.46.67.67,0,0,1-.21.45.66.66,0,0,0-.22.44V44a3,3,0,0,0,.72-.49.87.87,0,0,1,.52-.25.51.51,0,0,1,.2,0,1.32,1.32,0,0,1,1.13,1.36,1.18,1.18,0,0,1-.2.65A.62.62,0,0,1,269.1,45.57Z"/><path class="cls-2" d="M276.37,51.33a3.06,3.06,0,0,1-3,3,2.48,2.48,0,0,1-1.6-.74,6.46,6.46,0,0,1-1.17-1.46c-.3-.5-.43-.82-.39-1,.13-.3.54-.45,1.24-.45a1.44,1.44,0,0,1,.68.13.83.83,0,0,1,.49.59.78.78,0,0,0,.18.52c.25.39.48.58.68.58s.3-.11.44-.32a1.31,1.31,0,0,0,.21-.74A1.7,1.7,0,0,0,274,51c-.06-.18-.38-.46-1-.83A7.62,7.62,0,0,1,271.53,49a2.93,2.93,0,0,1-.78-2,3.75,3.75,0,0,1,.79-2.36,2.45,2.45,0,0,1,2-1,2.23,2.23,0,0,1,1.93.95,2.26,2.26,0,0,1,.45,1.57,1.05,1.05,0,0,1,.19.72,1.25,1.25,0,0,1-.39.92,1.2,1.2,0,0,1-.81.37c-.41,0-.76-.27-1.06-.81a1,1,0,0,1-.13-.57c0-.11,0-.26,0-.46s0-.34,0-.42c0-.32-.11-.47-.34-.47s-.52.34-.52,1a2.19,2.19,0,0,0,.68,1.68,5.91,5.91,0,0,0,1.17.72,3.1,3.1,0,0,1,1.1.81A2.7,2.7,0,0,1,276.37,51.33Z"/><path class="cls-2" d="M286,52.59a.9.9,0,0,1-.53.67,2.07,2.07,0,0,1-1.08.28,1.25,1.25,0,0,1-1.2-.56c.09-3.69,0-5.56-.33-5.61s-1,1.61-2.19,5v1.08a1.15,1.15,0,0,1-.35.91,1.13,1.13,0,0,1-.71.27,2.08,2.08,0,0,1-1.39-.7,7.87,7.87,0,0,1-.23-2.73q0,1.56,0-5.82a4.39,4.39,0,0,0,0-.44,2.73,2.73,0,0,1,0-.4,1,1,0,0,1,.18-.6.78.78,0,0,1,.69-.32,2.14,2.14,0,0,1,1,.29,1.36,1.36,0,0,1,.64.57.92.92,0,0,1,.07.36,1.31,1.31,0,0,1-.14.51,1.27,1.27,0,0,0-.14.54v2.48A20.92,20.92,0,0,1,282,45.15a2.67,2.67,0,0,1,2.32-1.24c.51,0,.88.52,1.1,1.44a16,16,0,0,1,.27,3.1v3.24a1.8,1.8,0,0,0,.25.45A.72.72,0,0,1,286,52.59Z"/><path class="cls-2" d="M295.29,53a1.24,1.24,0,0,1-1.34.89,1.14,1.14,0,0,1-.57-.13A1.18,1.18,0,0,1,293,53a11.18,11.18,0,0,0-.43-1.6,3.16,3.16,0,0,1-1.08,2,3,3,0,0,1-2.07,1c-.88,0-1.48-.58-1.82-1.75a4.56,4.56,0,0,1-.18-1.22,3.43,3.43,0,0,1,1.71-2.86c.94-.55,1.88-1.1,2.83-1.64a2.44,2.44,0,0,0,.07-.59c0-.38-.1-.59-.31-.66a1.58,1.58,0,0,0-.52-.1.84.84,0,0,0-.62.24l-.46.46a2.68,2.68,0,0,0-.56.67.88.88,0,0,1-.59.45,1,1,0,0,1-.85-.33,1.19,1.19,0,0,1-.37-.88,1,1,0,0,1,.14-.52,3.64,3.64,0,0,1,1.24-1.19,6.07,6.07,0,0,1,3.15-.75,1.65,1.65,0,0,1,1.66,1.15,12.26,12.26,0,0,1,.43,2.9,31.39,31.39,0,0,0,.4,3.76,1.41,1.41,0,0,0,.3.59,1.11,1.11,0,0,1,.27.63A1,1,0,0,1,295.29,53Zm-3.14-4.42-1.07.59a3.88,3.88,0,0,0-1,.81,2.11,2.11,0,0,0-.65,1.26,1.56,1.56,0,0,0,.33.9.49.49,0,0,0,.39.25c.32,0,.65-.35,1-1A11.77,11.77,0,0,0,292.15,48.56Z"/><path class="cls-2" d="M305.24,52.34a2,2,0,0,1,0,.25,1.48,1.48,0,0,1-1.21,1.46,1.76,1.76,0,0,1-.41.07.78.78,0,0,1-.6-.31,3.43,3.43,0,0,0-.5-.5L299.3,51v1.51a1.05,1.05,0,0,0,.1.41,1.21,1.21,0,0,1,.1.37.63.63,0,0,1-.2.41,1.72,1.72,0,0,1-1.3.47,1,1,0,0,1-1-.54.93.93,0,0,1-.07-.52c0-.32.07-.53.07-.63V40.67a5.68,5.68,0,0,1,.07-1c.11-.26.44-.4,1-.4a1.78,1.78,0,0,1,1.39.4.81.81,0,0,1,.16.47,2.33,2.33,0,0,1-.14.61,2.22,2.22,0,0,0-.13.65c0,.69,0,2.66,0,5.88.67-.64,1.53-1.49,2.59-2.53a5.4,5.4,0,0,0,.56-.78,1,1,0,0,1,.59-.43.93.93,0,0,1,.25,0,1.9,1.9,0,0,1,1.08.4,1.09,1.09,0,0,1,.54.85,1,1,0,0,1-.36.61c-.24.24-.48.47-.72.68l-3,3.1,3.2,2.3a4.68,4.68,0,0,0,.72.29A.74.74,0,0,1,305.24,52.34Z"/><path class="cls-2" d="M309.38,51.71a1.28,1.28,0,0,1,0,.5c-.09.3-.15.47-.16.5,0,.2,0,.4,0,.61a.81.81,0,0,1-.2.49,1,1,0,0,1-.68.18,1.79,1.79,0,0,1-.88-.2.69.69,0,0,1-.47-.59,1.22,1.22,0,0,1,.1-.4,1.8,1.8,0,0,0,.13-.36,4,4,0,0,0,0-.68.83.83,0,0,1,.2-.61A1,1,0,0,1,308,51a1.9,1.9,0,0,1,.88.21A.82.82,0,0,1,309.38,51.71Z"/><path class="cls-2" d="M317.59,53.63c-.15.33-.59.49-1.34.49a1.17,1.17,0,0,1-.93-.29.33.33,0,0,1-.09-.25,1.4,1.4,0,0,1,.09-.4,3.81,3.81,0,0,0,.11-.41,2.38,2.38,0,0,1-1.95,1.17,2.29,2.29,0,0,1-2.17-1.69,9.12,9.12,0,0,1-.53-3.37,7.43,7.43,0,0,1,.81-3.47q.9-1.71,2.22-1.71c.49,0,1,.39,1.51,1.18V42.56a1.69,1.69,0,0,0-.24-.74,1.72,1.72,0,0,1-.23-.68.8.8,0,0,1,.09-.36,1.47,1.47,0,0,1,1.48-.81c.6,0,1,.22,1.11.65a1.22,1.22,0,0,1,.07.41,1.6,1.6,0,0,1-.11.53,1.76,1.76,0,0,0-.12.57V52.39a1.19,1.19,0,0,0,.14.48,1,1,0,0,1,.15.46A.92.92,0,0,1,317.59,53.63Zm-2.49-4.75a6.66,6.66,0,0,0-.34-1.94c-.25-.8-.5-1.19-.74-1.19s-.5.36-.66,1.1a9,9,0,0,0-.2,2c0,.13,0,.35,0,.65v.66c0,1.36.29,2,.88,2,.28,0,.53-.39.76-1.17A7.77,7.77,0,0,0,315.1,48.88Z"/><path class="cls-2" d="M327.74,52.34a2,2,0,0,1,0,.25,1.48,1.48,0,0,1-1.21,1.46,1.76,1.76,0,0,1-.41.07.78.78,0,0,1-.6-.31,3.43,3.43,0,0,0-.5-.5L321.8,51v1.51a1.05,1.05,0,0,0,.1.41,1.21,1.21,0,0,1,.1.37.63.63,0,0,1-.2.41,1.72,1.72,0,0,1-1.3.47,1,1,0,0,1-1-.54.93.93,0,0,1-.07-.52c0-.32.07-.53.07-.63V40.67a5.68,5.68,0,0,1,.07-1c.11-.26.44-.4,1-.4a1.78,1.78,0,0,1,1.39.4.81.81,0,0,1,.16.47,2.33,2.33,0,0,1-.14.61,2.22,2.22,0,0,0-.13.65c0,.69,0,2.66,0,5.88.67-.64,1.53-1.49,2.59-2.53A5.4,5.4,0,0,0,325,44a1,1,0,0,1,.59-.43.93.93,0,0,1,.25,0,1.9,1.9,0,0,1,1.08.4,1.09,1.09,0,0,1,.54.85,1,1,0,0,1-.36.61c-.24.24-.48.47-.72.68l-3,3.1,3.2,2.3a4.68,4.68,0,0,0,.72.29A.74.74,0,0,1,327.74,52.34Z"/><path class="cls-3" d="M340.88,52.34a2,2,0,0,1,0,.25,1.48,1.48,0,0,1-1.21,1.46,1.76,1.76,0,0,1-.41.07.78.78,0,0,1-.6-.31,3.43,3.43,0,0,0-.5-.5L334.94,51v1.51a1.05,1.05,0,0,0,.1.41,1.21,1.21,0,0,1,.1.37.63.63,0,0,1-.2.41,1.72,1.72,0,0,1-1.3.47,1,1,0,0,1-1-.54.93.93,0,0,1-.07-.52c0-.32.07-.53.07-.63V40.67a5.68,5.68,0,0,1,.07-1c.11-.26.44-.4,1-.4a1.78,1.78,0,0,1,1.39.4.81.81,0,0,1,.16.47,2.33,2.33,0,0,1-.14.61,2.22,2.22,0,0,0-.13.65c0,.69,0,2.66,0,5.88.67-.64,1.53-1.49,2.59-2.53a5.4,5.4,0,0,0,.56-.78,1,1,0,0,1,.59-.43.93.93,0,0,1,.25,0,1.9,1.9,0,0,1,1.08.4,1.09,1.09,0,0,1,.54.85,1,1,0,0,1-.36.61c-.24.24-.48.47-.72.68l-3,3.1,3.2,2.3a4.68,4.68,0,0,0,.72.29A.74.74,0,0,1,340.88,52.34Z"/><path class="cls-3" d="M350,53a1.23,1.23,0,0,1-1.33.89,1.21,1.21,0,0,1-.58-.13,1.18,1.18,0,0,1-.39-.79,11,11,0,0,0-.44-1.6,3.07,3.07,0,0,1-1.08,2,3,3,0,0,1-2.07,1c-.87,0-1.48-.58-1.81-1.75a4.56,4.56,0,0,1-.18-1.22,3.43,3.43,0,0,1,1.71-2.86c.93-.55,1.87-1.1,2.82-1.64a2.44,2.44,0,0,0,.07-.59c0-.38-.1-.59-.3-.66a1.67,1.67,0,0,0-.52-.1.83.83,0,0,0-.62.24c-.17.16-.32.32-.46.46a2.48,2.48,0,0,0-.56.67.9.9,0,0,1-.6.45,1,1,0,0,1-.84-.33,1.2,1.2,0,0,1-.38-.88,1,1,0,0,1,.14-.52,3.59,3.59,0,0,1,1.25-1.19A6.07,6.07,0,0,1,347,43.7a1.64,1.64,0,0,1,1.65,1.15,11.74,11.74,0,0,1,.43,2.9,31.39,31.39,0,0,0,.4,3.76,1.46,1.46,0,0,0,.31.59,1.11,1.11,0,0,1,.27.63A1,1,0,0,1,350,53Zm-3.13-4.42-1.07.59a3.71,3.71,0,0,0-1,.81,2.05,2.05,0,0,0-.65,1.26,1.62,1.62,0,0,0,.32.9.49.49,0,0,0,.4.25c.31,0,.65-.35,1-1A12.76,12.76,0,0,0,346.91,48.56Z"/><path class="cls-3" d="M359.63,52.59a.86.86,0,0,1-.52.67,2.07,2.07,0,0,1-1.08.28,1.24,1.24,0,0,1-1.2-.56q.14-5.53-.33-5.61t-2.19,5v1.08a1.15,1.15,0,0,1-.36.91,1.09,1.09,0,0,1-.71.27,2.08,2.08,0,0,1-1.38-.7,7.71,7.71,0,0,1-.24-2.73c0,1,0-.9,0-5.82a4.39,4.39,0,0,0,0-.44,2.73,2.73,0,0,1,0-.4,1,1,0,0,1,.18-.6.76.76,0,0,1,.68-.32,2.14,2.14,0,0,1,1,.29,1.36,1.36,0,0,1,.64.57.92.92,0,0,1,.07.36,1.51,1.51,0,0,1-.14.51,1.3,1.3,0,0,0-.15.54v2.48a22.94,22.94,0,0,1,1.71-3.19,2.7,2.7,0,0,1,2.33-1.24c.51,0,.88.52,1.09,1.44a14.51,14.51,0,0,1,.27,3.1v3.24a2.48,2.48,0,0,0,.26.45A.66.66,0,0,1,359.63,52.59Z"/><path class="cls-3" d="M371.44,53.63c-.14.33-.59.49-1.33.49a1.2,1.2,0,0,1-.94-.29.33.33,0,0,1-.09-.25,1.4,1.4,0,0,1,.09-.4,2.34,2.34,0,0,0,.11-.41,2.36,2.36,0,0,1-1.94,1.17,2.31,2.31,0,0,1-2.18-1.69,9.14,9.14,0,0,1-.52-3.37,7.43,7.43,0,0,1,.81-3.47c.6-1.14,1.34-1.71,2.21-1.71.49,0,1,.39,1.51,1.18V42.56a1.65,1.65,0,0,0-.23-.74,1.57,1.57,0,0,1-.23-.68.8.8,0,0,1,.09-.36,1.46,1.46,0,0,1,1.47-.81,1,1,0,0,1,1.12.65,1.22,1.22,0,0,1,.07.41,1.67,1.67,0,0,1-.12.53,1.71,1.71,0,0,0-.11.57V52.39a1.05,1.05,0,0,0,.14.48,1,1,0,0,1,.14.46A.72.72,0,0,1,371.44,53.63ZM369,48.88a7,7,0,0,0-.34-1.94c-.26-.8-.5-1.19-.74-1.19s-.5.36-.67,1.1a9.56,9.56,0,0,0-.2,2c0,.13,0,.35,0,.65v.66c0,1.36.29,2,.88,2,.27,0,.53-.39.75-1.17A7.44,7.44,0,0,0,369,48.88Z"/><path class="cls-3" d="M379.56,45a1,1,0,0,1-.11.57,2.92,2.92,0,0,0-.21.61,29.91,29.91,0,0,1-.31,5.21c-.44,2-1.39,3.06-2.83,3.06q-3.15,0-3.15-5.75a23.77,23.77,0,0,1,.24-3.27,2.41,2.41,0,0,1-.13-.74,1.26,1.26,0,0,1,.34-.88,1.11,1.11,0,0,1,.85-.31,2.07,2.07,0,0,1,.85.19c.26.13.42.27.46.44a.77.77,0,0,1,0,.25,2.45,2.45,0,0,1-.2.75,1.94,1.94,0,0,0-.16.84,14.84,14.84,0,0,0-.18,2.54,14,14,0,0,0,.2,2.57c.17.79.4,1.19.7,1.19.5,0,.83-.85,1-2.56.08-.85.13-2.21.13-4.07a3.28,3.28,0,0,0-.06-.52,4.55,4.55,0,0,1,0-.5.62.62,0,0,1,.32-.6,1.16,1.16,0,0,1,.51-.09,2.37,2.37,0,0,1,1.09.26A1.09,1.09,0,0,1,379.56,45Z"/><path class="cls-3" d="M390.76,51.33a3.06,3.06,0,0,1-3,3,2.48,2.48,0,0,1-1.6-.74A6.46,6.46,0,0,1,385,52.17a2,2,0,0,1-.4-1c.14-.3.55-.45,1.25-.45a1.47,1.47,0,0,1,.68.13.83.83,0,0,1,.49.59.78.78,0,0,0,.18.52c.25.39.48.58.68.58s.3-.11.44-.32a1.31,1.31,0,0,0,.21-.74,1.7,1.7,0,0,0-.09-.54c-.06-.18-.39-.46-1-.83A7.75,7.75,0,0,1,385.91,49a3,3,0,0,1-.77-2,3.69,3.69,0,0,1,.79-2.36,2.45,2.45,0,0,1,2-1,2.2,2.2,0,0,1,1.92.95,2.26,2.26,0,0,1,.45,1.57,1,1,0,0,1,.2.72,1.25,1.25,0,0,1-.39.92,1.2,1.2,0,0,1-.81.37c-.41,0-.77-.27-1.07-.81a1.15,1.15,0,0,1-.12-.57c0-.11,0-.26,0-.46s0-.34,0-.42c0-.32-.11-.47-.34-.47s-.52.34-.52,1a2.19,2.19,0,0,0,.68,1.68,5.91,5.91,0,0,0,1.17.72,3.19,3.19,0,0,1,1.1.81A2.76,2.76,0,0,1,390.76,51.33Z"/><path class="cls-3" d="M398.39,45.57a1.36,1.36,0,0,1-.45-.12,1.45,1.45,0,0,0-.47-.12.57.57,0,0,0-.25.06l-.67.34v6.16a1.7,1.7,0,0,0,.37.88,1.23,1.23,0,0,1,.3.86.94.94,0,0,1-.53.63,2,2,0,0,1-.95.24,1.31,1.31,0,0,1-1.31-.85,6.43,6.43,0,0,1-.13-1.6c0-.6,0-1.54,0-2.81,0-1.44,0-2.35,0-2.74a1.55,1.55,0,0,0-.37.25.8.8,0,0,1-.5.2,1.57,1.57,0,0,1-.5-.1c-.84-.29-1.26-.59-1.26-.89a.5.5,0,0,1,0-.23.53.53,0,0,1,.47-.32,2.65,2.65,0,0,0,.63-.13,16.78,16.78,0,0,0,1.51-.77V42.94a1.51,1.51,0,0,0-.1-.48,1.81,1.81,0,0,1-.1-.44.53.53,0,0,1,.09-.3,1.44,1.44,0,0,1,1.26-.72,1.34,1.34,0,0,1,1.3.72,1.16,1.16,0,0,1,.14.46.67.67,0,0,1-.21.45.66.66,0,0,0-.22.44V44a3,3,0,0,0,.72-.49.87.87,0,0,1,.52-.25.51.51,0,0,1,.2,0,1.33,1.33,0,0,1,1.14,1.36,1.12,1.12,0,0,1-.21.65A.62.62,0,0,1,398.39,45.57Z"/><path class="cls-3" d="M403.28,44.63a1.88,1.88,0,0,1-.28.78,2.13,2.13,0,0,0-.28.88v5.29a4,4,0,0,0,.2,1,4,4,0,0,1,.2.91.6.6,0,0,1-.29.54,1.77,1.77,0,0,1-1,.28,1,1,0,0,1-1-.46,8.71,8.71,0,0,1-.38-3.44q0-.69,0-2.13c0-1,0-1.68,0-2.12a4.46,4.46,0,0,0-.05-.66,4,4,0,0,1-.05-.58,1.4,1.4,0,0,1,.43-1,.93.93,0,0,1,.66-.18,3.33,3.33,0,0,1,1,.15,1.2,1.2,0,0,1,.62.36A.67.67,0,0,1,403.28,44.63Zm-.23-4.39a.3.3,0,0,1,.05.18A2.17,2.17,0,0,1,403,41l-.16.66a3.58,3.58,0,0,0,0,.8.5.5,0,0,1-.23.49,1.19,1.19,0,0,1-.56.12,2.69,2.69,0,0,1-1-.2c-.41-.17-.62-.39-.62-.67a1,1,0,0,1,.11-.35,1.27,1.27,0,0,0,.13-.37,3.91,3.91,0,0,0,0-.72.63.63,0,0,1,.18-.61,1.8,1.8,0,0,1,1-.21A1.59,1.59,0,0,1,403.05,40.24Z"/><path class="cls-3" d="M407.51,53.83a1.35,1.35,0,0,1-1.33.68,1.33,1.33,0,0,1-1.26-.61.77.77,0,0,1-.11-.39,2.23,2.23,0,0,1,.13-.6,2.5,2.5,0,0,0,.12-.68L405,40.6v-1q.06-.24.51-.39a3,3,0,0,1,.95-.15c.49,0,.8.09.94.27a.92.92,0,0,1,.19.56,2.28,2.28,0,0,1-.14.65,2.51,2.51,0,0,0-.14.75v10.8a2.31,2.31,0,0,0,.15.71,2.36,2.36,0,0,1,.15.64A.74.74,0,0,1,407.51,53.83Z"/><path class="cls-3" d="M412,53.83a1.35,1.35,0,0,1-1.33.68,1.33,1.33,0,0,1-1.26-.61.77.77,0,0,1-.11-.39,2.23,2.23,0,0,1,.13-.6,2.5,2.5,0,0,0,.12-.68l-.07-11.63v-1q.06-.24.51-.39a3,3,0,0,1,.95-.15c.49,0,.8.09.94.27a.92.92,0,0,1,.19.56,2.28,2.28,0,0,1-.14.65,2.51,2.51,0,0,0-.14.75v10.8a2.31,2.31,0,0,0,.15.71,2.36,2.36,0,0,1,.15.64A.74.74,0,0,1,412,53.83Z"/><path class="cls-3" d="M420,51.85a3,3,0,0,1-1,1.46,2.65,2.65,0,0,1-1,.52,4,4,0,0,1-1.71.32,2.57,2.57,0,0,1-2.13-1.54,7.12,7.12,0,0,1-.7-3.32,8.28,8.28,0,0,1,.79-3.72,3.2,3.2,0,0,1,2.36-2,3.6,3.6,0,0,1,.56,0c1.43,0,2.21.88,2.36,2.63a3.92,3.92,0,0,1-1,2.63A6.11,6.11,0,0,1,415.63,51a5.18,5.18,0,0,0,.31.94.75.75,0,0,0,.68.45,2,2,0,0,0,1.42-.85s.1-.16.15-.4a.7.7,0,0,1,.37-.53.55.55,0,0,1,.26-.06,1.19,1.19,0,0,1,.83.43A1,1,0,0,1,420,51.85Zm-2.83-6.34c-.48,0-.87.35-1.17,1a5.54,5.54,0,0,0-.48,2.7A3.22,3.22,0,0,0,417.05,48a3.14,3.14,0,0,0,.72-1.76C417.77,45.75,417.56,45.51,417.14,45.51Z"/><path class="cls-3" d="M209.71,72.93a2.91,2.91,0,0,1-.9,2.15,2.94,2.94,0,0,1-2.13.89,2.48,2.48,0,0,1-1.6-.74,6.46,6.46,0,0,1-1.17-1.46c-.3-.5-.43-.82-.39-1,.13-.3.54-.45,1.24-.45a1.44,1.44,0,0,1,.68.13.83.83,0,0,1,.49.59.78.78,0,0,0,.18.52c.25.39.48.58.68.58a.55.55,0,0,0,.44-.32,1.31,1.31,0,0,0,.21-.74,1.7,1.7,0,0,0-.09-.54c-.06-.18-.38-.46-1-.83a7.62,7.62,0,0,1-1.51-1.17,2.93,2.93,0,0,1-.78-2,3.75,3.75,0,0,1,.79-2.36,2.45,2.45,0,0,1,2-1,2.23,2.23,0,0,1,1.93,1,2.26,2.26,0,0,1,.45,1.57,1.05,1.05,0,0,1,.19.72,1.25,1.25,0,0,1-.39.92,1.2,1.2,0,0,1-.81.37c-.41,0-.76-.27-1.06-.81a1,1,0,0,1-.13-.57c0-.11,0-.26,0-.46a3.94,3.94,0,0,0,0-.42c0-.32-.11-.47-.34-.47s-.52.34-.52,1a2.19,2.19,0,0,0,.68,1.68,5.91,5.91,0,0,0,1.17.72,3.1,3.1,0,0,1,1.1.81A2.7,2.7,0,0,1,209.71,72.93Z"/><path class="cls-3" d="M218,70.37a7.5,7.5,0,0,1-.81,3.48c-.6,1.12-1.34,1.69-2.21,1.69-.5,0-1-.39-1.52-1.17v2.3a1.69,1.69,0,0,0,.24.74,1.77,1.77,0,0,1,.23.68.8.8,0,0,1-.09.36,1.46,1.46,0,0,1-1.47.81c-.6,0-1-.21-1.12-.64a1.32,1.32,0,0,1-.07-.42,1.67,1.67,0,0,1,.12-.53,2,2,0,0,0,.11-.57V66.86a1.19,1.19,0,0,0-.14-.48,1,1,0,0,1-.15-.45.75.75,0,0,1,.08-.31c.14-.34.58-.5,1.33-.5a1.16,1.16,0,0,1,.93.28.44.44,0,0,1,.09.27,1.4,1.4,0,0,1-.09.4,2.12,2.12,0,0,0-.1.41,2.35,2.35,0,0,1,1.94-1.18A2.29,2.29,0,0,1,217.45,67,9.2,9.2,0,0,1,218,70.37Zm-2.27,0a19.16,19.16,0,0,0-.07-2.18q-.18-1.17-.9-1.17c-.28,0-.52.38-.75,1.13a7.86,7.86,0,0,0-.33,2.22,6.55,6.55,0,0,0,.36,1.95c.24.79.48,1.18.72,1.18s.53-.36.72-1.09A7.92,7.92,0,0,0,215.7,70.37Z"/><path class="cls-3" d="M224.23,66.05c.81.82,1.21,2.19,1.21,4.12a8,8,0,0,1-.85,3.84A2.89,2.89,0,0,1,222,75.79a2.8,2.8,0,0,1-2.56-1.6,7.2,7.2,0,0,1-.79-3.57,9,9,0,0,1,.61-3.42,2.83,2.83,0,0,1,1.66-1.9,3.81,3.81,0,0,1,1.08-.15A3,3,0,0,1,224.23,66.05Zm-1.11,2c-.22-.73-.53-1.12-.94-1.15s-.85.48-1.11,1.6a8.81,8.81,0,0,0-.29,2.19Q221.59,69.86,223.12,68.07Zm.18,2.36a16.25,16.25,0,0,0-1.51,1.63c-.32.4-.57.72-.78,1q.27.92,1,1,.45.08.84-1.08A10.05,10.05,0,0,0,223.3,70.43Z"/><path class="cls-3" d="M233.2,66.16c0,.25-.28.43-.69.52a1.77,1.77,0,0,0-.91.42l-2.94,3.38v2.74a1.66,1.66,0,0,0,.23.8,1.4,1.4,0,0,1,.22.62,1.21,1.21,0,0,1-.12.48,1.23,1.23,0,0,1-1.25.69,1.3,1.3,0,0,1-1-.42.94.94,0,0,1-.25-.68c0-.1,0-.25,0-.47a3.76,3.76,0,0,0,0-.52V67a.8.8,0,0,0-.15-.4.81.81,0,0,1-.14-.38.56.56,0,0,1,.07-.25c.16-.29.64-.43,1.46-.43q1,0,1.08.45a1,1,0,0,1,0,.31.34.34,0,0,1-.14.3.28.28,0,0,0-.14.22l0,.65,1.55-1.64c.18-.21.37-.41.57-.61a1.1,1.1,0,0,1,.69-.35,2.07,2.07,0,0,1,1.18.27,1,1,0,0,1,.57.85A1.1,1.1,0,0,1,233.2,66.16Z"/><path class="cls-3" d="M239.88,65.78c0,1,.07,2.73.16,5.1.05,1.66.07,2.86.07,3.58a9.32,9.32,0,0,1-.38,3.24,1.65,1.65,0,0,1-1.53,1,3.45,3.45,0,0,1-2.54-.75,3.56,3.56,0,0,1-.68-.26.88.88,0,0,1-.4-.61c-.1-.56.34-.84,1.34-.84a2.84,2.84,0,0,1,.72.09,1.06,1.06,0,0,1,.55.42.94.94,0,0,0,.58.39c.35,0,.52-.47.52-1.48,0-.43,0-1.13-.09-2.11a11.07,11.07,0,0,1-.93,1.43,1.91,1.91,0,0,1-1.39.61c-.74,0-1.34-.52-1.8-1.55a8.52,8.52,0,0,1-.63-3.46,8.25,8.25,0,0,1,.67-3.52,2.4,2.4,0,0,1,2.08-1.66,1.51,1.51,0,0,1,1.07.29c.22.2.45.41.66.63a.85.85,0,0,1,.11-1,.77.77,0,0,1,.59-.2,1.52,1.52,0,0,1,.76.2A1,1,0,0,1,239.88,65.78Zm-2.16,4.59a5.05,5.05,0,0,0-.26-2c-.24-.69-.55-1-.93-1s-.59.35-.83,1a6.54,6.54,0,0,0-.36,2,8.19,8.19,0,0,0,.16,2c.17.7.4,1.05.7,1.05s.57-.34.92-1A5.25,5.25,0,0,0,237.72,70.37Z"/><path class="cls-3" d="M247.83,72.93a3.06,3.06,0,0,1-3,3,2.46,2.46,0,0,1-1.6-.74A6,6,0,0,1,242,73.77c-.3-.5-.44-.82-.4-1,.13-.3.55-.45,1.24-.45a1.49,1.49,0,0,1,.69.13.81.81,0,0,1,.48.59.91.91,0,0,0,.18.52c.25.39.48.58.69.58s.3-.11.44-.32a1.39,1.39,0,0,0,.2-.74,1.7,1.7,0,0,0-.09-.54c-.06-.18-.38-.46-1-.83A7.62,7.62,0,0,1,243,70.59a2.92,2.92,0,0,1-.77-2,3.69,3.69,0,0,1,.79-2.36,2.45,2.45,0,0,1,2-1,2.22,2.22,0,0,1,1.93,1,2.26,2.26,0,0,1,.45,1.57,1.05,1.05,0,0,1,.2.72,1.22,1.22,0,0,1-.4.92,1.16,1.16,0,0,1-.81.37c-.41,0-.76-.27-1.06-.81a1.14,1.14,0,0,1-.13-.57c0-.11,0-.26,0-.46s0-.34,0-.42c0-.32-.12-.47-.34-.47s-.53.34-.53,1a2.16,2.16,0,0,0,.69,1.68,5.91,5.91,0,0,0,1.17.72,3.29,3.29,0,0,1,1.1.81A2.76,2.76,0,0,1,247.83,72.93Z"/><path class="cls-3" d="M260.83,75.34a1,1,0,0,1-1.06.67,1.75,1.75,0,0,1-1.55-.72,7.26,7.26,0,0,1-.27-2.72v-1c0-.42,0-.71,0-.88,0-.84-.05-1.27-.13-1.29s-.79,1.6-1.84,5c0,0,0,.3-.07.86a.78.78,0,0,1-.36.7,1,1,0,0,1-.52.13,1.8,1.8,0,0,1-1-.34,1.47,1.47,0,0,1-.61-.81,12,12,0,0,1-.16-2.63q0-2.86,0-2.76c0-.5,0-.76-.1-.77a14.64,14.64,0,0,0-.72,1.31,7.82,7.82,0,0,0-.85,2.52,2,2,0,0,0,0,.85c0,.36,0,.61-.16.74a1,1,0,0,1-.63.2,1.7,1.7,0,0,1-.87-.25,1.61,1.61,0,0,1-.64-.55,7,7,0,0,1-.33-2.62V66.81a2.22,2.22,0,0,0-.14-.51,1.57,1.57,0,0,1-.13-.48.59.59,0,0,1,.09-.31c.16-.24.56-.36,1.19-.36.78,0,1.25.19,1.41.58a.74.74,0,0,1,0,.25,1.17,1.17,0,0,1-.17.47,1,1,0,0,0-.17.5v2c.36-.75.83-1.71,1.42-2.88l.21-.46a1.1,1.1,0,0,1,.29-.42,1,1,0,0,1,.67-.18,3.51,3.51,0,0,1,1.45.33c.49.21.73.47.75.77a1.28,1.28,0,0,1-.14.71.83.83,0,0,0-.15.41l0,3.88q.28-.64,1.05-3.06a5.58,5.58,0,0,1,.9-2,2,2,0,0,1,1.17-.29c1,0,1.45.28,1.49.83,0,1.47,0,3.91,0,7.35,0,.13.12.29.36.47a.77.77,0,0,1,.36.59A1,1,0,0,1,260.83,75.34Z"/><path class="cls-3" d="M269.11,74.58a1.24,1.24,0,0,1-1.33.89,1.19,1.19,0,0,1-.58-.13,1.23,1.23,0,0,1-.4-.79,10,10,0,0,0-.43-1.6,3.07,3.07,0,0,1-1.08,2,3,3,0,0,1-2.07,1c-.87,0-1.48-.58-1.82-1.75a4.56,4.56,0,0,1-.18-1.22,3.43,3.43,0,0,1,1.71-2.86c.94-.55,1.88-1.1,2.83-1.64a2.44,2.44,0,0,0,.07-.59c0-.38-.1-.59-.3-.66a1.68,1.68,0,0,0-.53-.1.84.84,0,0,0-.62.24l-.46.46a2.49,2.49,0,0,0-.55.67.9.9,0,0,1-.6.45,1,1,0,0,1-.84-.33,1.17,1.17,0,0,1-.38-.88,1,1,0,0,1,.14-.52,3.64,3.64,0,0,1,1.24-1.19,6.07,6.07,0,0,1,3.15-.75,1.65,1.65,0,0,1,1.66,1.15,11.74,11.74,0,0,1,.43,2.9,31.39,31.39,0,0,0,.4,3.76,1.41,1.41,0,0,0,.3.59,1.11,1.11,0,0,1,.27.63A1,1,0,0,1,269.11,74.58ZM266,70.16l-1.07.59a3.75,3.75,0,0,0-1,.81,2.08,2.08,0,0,0-.64,1.26,1.55,1.55,0,0,0,.32.9.49.49,0,0,0,.4.25c.31,0,.65-.35,1-1A12.21,12.21,0,0,0,266,70.16Zm1.49-7.89a2.47,2.47,0,0,1-2.34,2.34,1.53,1.53,0,0,1-1.14-.47,1.56,1.56,0,0,1-.48-1.17,2.27,2.27,0,0,1,.65-1.56,2.23,2.23,0,0,1,1.67-.76,1.61,1.61,0,0,1,1.64,1.62ZM266,61.73a1.54,1.54,0,0,0-1,.53,1.46,1.46,0,0,0-.55,1q0,.54.51.54a1.44,1.44,0,0,0,1.11-.69,1.46,1.46,0,0,0,.36-.81Q266.46,61.73,266,61.73Z"/><path class="cls-3" d="M272.38,75.43a1.35,1.35,0,0,1-1.33.68,1.33,1.33,0,0,1-1.26-.61.77.77,0,0,1-.11-.39,2.72,2.72,0,0,1,.13-.6,2.57,2.57,0,0,0,.13-.68l-.08-11.63v-1q.06-.24.51-.39a3,3,0,0,1,.95-.15c.49,0,.81.09.94.27a.94.94,0,0,1,.2.56,2.41,2.41,0,0,1-.15.65,2.88,2.88,0,0,0-.14.75v10.8a2.31,2.31,0,0,0,.15.71,2.36,2.36,0,0,1,.15.64A.74.74,0,0,1,272.38,75.43Z"/><path class="cls-3" d="M283.29,66.05c.81.82,1.21,2.19,1.21,4.12a8,8,0,0,1-.85,3.84A2.9,2.9,0,0,1,281,75.79a2.79,2.79,0,0,1-2.55-1.6,7.2,7.2,0,0,1-.79-3.57,9,9,0,0,1,.61-3.42,2.85,2.85,0,0,1,1.65-1.9,3.91,3.91,0,0,1,1.08-.15A3,3,0,0,1,283.29,66.05Zm-2.05.87c-.4,0-.74.33-1,1.11a6.65,6.65,0,0,0-.37,2.23,13.38,13.38,0,0,0,.14,2.4c.17.84.52,1.3,1,1.38.34,0,.65-.41.94-1.38a10.48,10.48,0,0,0,.41-3C282.37,67.9,282,67,281.24,66.92Z"/><path class="cls-3" d="M297.87,75.34a1,1,0,0,1-1.06.67,1.76,1.76,0,0,1-1.55-.72,7.26,7.26,0,0,1-.27-2.72v-1c0-.42,0-.71,0-.88,0-.84,0-1.27-.13-1.29s-.79,1.6-1.83,5c0,0,0,.3-.07.86a.82.82,0,0,1-.36.7,1.07,1.07,0,0,1-.53.13,1.77,1.77,0,0,1-1-.34,1.49,1.49,0,0,1-.62-.81,12,12,0,0,1-.16-2.63c0-1.91,0-2.83,0-2.76,0-.5-.05-.76-.11-.77a14.64,14.64,0,0,0-.72,1.31,8.34,8.34,0,0,0-.85,2.52,2,2,0,0,0,0,.85c0,.36,0,.61-.17.74a.93.93,0,0,1-.63.2,1.73,1.73,0,0,1-.87-.25,1.69,1.69,0,0,1-.64-.55,6.84,6.84,0,0,1-.32-2.62V66.81a1.9,1.9,0,0,0-.15-.51,1.49,1.49,0,0,1-.12-.48.59.59,0,0,1,.09-.31c.15-.24.55-.36,1.19-.36s1.24.19,1.4.58a.56.56,0,0,1,.05.25,1,1,0,0,1-.17.47,1.13,1.13,0,0,0-.17.5v2c.36-.75.84-1.71,1.42-2.88.08-.15.14-.31.21-.46a1.25,1.25,0,0,1,.3-.42,1,1,0,0,1,.66-.18,3.47,3.47,0,0,1,1.45.33c.49.21.74.47.75.77a1.2,1.2,0,0,1-.14.71.83.83,0,0,0-.15.41l0,3.88c.19-.43.54-1.45,1-3.06a6,6,0,0,1,.9-2,2,2,0,0,1,1.17-.29c1,0,1.46.28,1.49.83,0,1.47,0,3.91,0,7.35,0,.13.12.29.36.47a.77.77,0,0,1,.36.59A1,1,0,0,1,297.87,75.34Z"/><path class="cls-3" d="M311.59,73.94a2,2,0,0,1,0,.25,1.48,1.48,0,0,1-1.21,1.46,1.76,1.76,0,0,1-.41.07.78.78,0,0,1-.6-.31,3.43,3.43,0,0,0-.5-.5l-3.24-2.27v1.51a1.05,1.05,0,0,0,.1.41,1.21,1.21,0,0,1,.1.37.63.63,0,0,1-.2.41,1.72,1.72,0,0,1-1.3.47,1,1,0,0,1-1-.54.93.93,0,0,1-.07-.52c0-.32.07-.53.07-.63V62.27a5.68,5.68,0,0,1,.07-1c.11-.26.44-.4,1-.4a1.78,1.78,0,0,1,1.39.4.81.81,0,0,1,.16.47,2.33,2.33,0,0,1-.14.61,2.22,2.22,0,0,0-.13.65c0,.69,0,2.66,0,5.88.67-.64,1.53-1.49,2.59-2.53a5.4,5.4,0,0,0,.56-.78,1,1,0,0,1,.59-.43.93.93,0,0,1,.25,0,1.85,1.85,0,0,1,1.07.4,1.08,1.08,0,0,1,.55.85,1,1,0,0,1-.36.61c-.24.24-.48.47-.72.68l-3,3.1,3.2,2.3a4.68,4.68,0,0,0,.72.29A.74.74,0,0,1,311.59,73.94Z"/><path class="cls-3" d="M317.2,66.05c.81.82,1.21,2.19,1.21,4.12a8,8,0,0,1-.85,3.84,2.89,2.89,0,0,1-2.62,1.78,2.8,2.8,0,0,1-2.56-1.6,7.2,7.2,0,0,1-.79-3.57,9,9,0,0,1,.61-3.42,2.83,2.83,0,0,1,1.66-1.9,3.81,3.81,0,0,1,1.08-.15A3,3,0,0,1,317.2,66.05Zm-1.11,2c-.22-.73-.53-1.12-.94-1.15s-.85.48-1.11,1.6a8.81,8.81,0,0,0-.29,2.19Q314.56,69.86,316.09,68.07Zm.18,2.36a16.25,16.25,0,0,0-1.51,1.63c-.32.4-.57.72-.78,1q.27.92,1,1,.45.08.84-1.08A10.05,10.05,0,0,0,316.27,70.43Z"/><path class="cls-3" d="M327.46,74.19a.86.86,0,0,1-.52.67,2.07,2.07,0,0,1-1.08.28,1.24,1.24,0,0,1-1.2-.56q.13-5.53-.33-5.61t-2.19,5V75a1.15,1.15,0,0,1-.36.91,1.09,1.09,0,0,1-.71.27,2.08,2.08,0,0,1-1.38-.7,7.71,7.71,0,0,1-.24-2.73c0,1,0-.9,0-5.82a4.39,4.39,0,0,0,0-.44,2.73,2.73,0,0,1,0-.4,1,1,0,0,1,.18-.6.76.76,0,0,1,.68-.32,2.05,2.05,0,0,1,1,.3,1.35,1.35,0,0,1,.64.56.92.92,0,0,1,.07.36,1.51,1.51,0,0,1-.14.51,1.3,1.3,0,0,0-.15.54v2.48a22.94,22.94,0,0,1,1.71-3.19,2.7,2.7,0,0,1,2.33-1.24c.51,0,.88.52,1.09,1.44a14.51,14.51,0,0,1,.27,3.1v3.24a2.48,2.48,0,0,0,.26.45A.66.66,0,0,1,327.46,74.19Z"/><path class="cls-3" d="M330.56,74.51a.93.93,0,0,1-.4,1.06l-1,1.41q-.53.7-.81.72a1.15,1.15,0,0,1-.81-.4.87.87,0,0,1-.34-.83,5.82,5.82,0,0,1,.58-.62,2.7,2.7,0,0,0,.73-1,1,1,0,0,0,.14-.48.69.69,0,0,1,.13-.44.5.5,0,0,1,.36-.11A2.22,2.22,0,0,1,330,74C330.34,74.15,330.52,74.32,330.56,74.51Z"/><path class="cls-3" d="M344.53,73.94a2,2,0,0,1,0,.25,1.48,1.48,0,0,1-1.21,1.46,1.76,1.76,0,0,1-.41.07.78.78,0,0,1-.6-.31,3.43,3.43,0,0,0-.5-.5l-3.24-2.27v1.51a1.05,1.05,0,0,0,.1.41,1.21,1.21,0,0,1,.1.37.63.63,0,0,1-.2.41,1.72,1.72,0,0,1-1.3.47,1,1,0,0,1-1-.54.93.93,0,0,1-.07-.52c0-.32.07-.53.07-.63V62.27a5.68,5.68,0,0,1,.07-1c.11-.26.44-.4,1-.4a1.78,1.78,0,0,1,1.39.4.81.81,0,0,1,.16.47,2.33,2.33,0,0,1-.14.61,2.22,2.22,0,0,0-.13.65c0,.69,0,2.66,0,5.88.67-.64,1.53-1.49,2.59-2.53a5.4,5.4,0,0,0,.56-.78,1,1,0,0,1,.59-.43.93.93,0,0,1,.25,0,1.85,1.85,0,0,1,1.07.4,1.08,1.08,0,0,1,.55.85,1,1,0,0,1-.36.61c-.24.24-.48.47-.72.68l-3,3.1,3.2,2.3a4.68,4.68,0,0,0,.72.29A.74.74,0,0,1,344.53,73.94Z"/><path class="cls-3" d="M352.66,66.16c0,.25-.27.43-.68.52a1.82,1.82,0,0,0-.92.42l-2.93,3.38v2.74a1.64,1.64,0,0,0,.22.8,1.44,1.44,0,0,1,.23.62,1.24,1.24,0,0,1-.13.48,1.22,1.22,0,0,1-1.24.69,1.33,1.33,0,0,1-1-.42.94.94,0,0,1-.25-.68,3.62,3.62,0,0,1,0-.47c0-.21,0-.39,0-.52V67a.87.87,0,0,0-.14-.4.71.71,0,0,1-.14-.38.56.56,0,0,1,.07-.25c.15-.29.64-.43,1.45-.43.64,0,1,.15,1.09.45a1.32,1.32,0,0,1,.05.31.36.36,0,0,1-.14.3.3.3,0,0,0-.15.22l0,.65,1.55-1.64c.18-.21.36-.41.56-.61a1.1,1.1,0,0,1,.7-.35,2,2,0,0,1,1.17.27,1,1,0,0,1,.57.85A.55.55,0,0,1,352.66,66.16Z"/><path class="cls-3" d="M358.57,66.05c.8.82,1.2,2.19,1.2,4.12a8.13,8.13,0,0,1-.84,3.84,2.92,2.92,0,0,1-2.63,1.78,2.8,2.8,0,0,1-2.56-1.6,7.2,7.2,0,0,1-.79-3.57,9,9,0,0,1,.61-3.42,2.85,2.85,0,0,1,1.66-1.9,3.91,3.91,0,0,1,1.08-.15A3.05,3.05,0,0,1,358.57,66.05Zm-2.06.87q-.58-.06-1,1.11a6.65,6.65,0,0,0-.38,2.23,14.42,14.42,0,0,0,.14,2.4q.25,1.26,1.05,1.38c.33,0,.65-.41.93-1.38a10.48,10.48,0,0,0,.42-3Q357.65,67,356.51,66.92Z"/><path class="cls-3" d="M368,70.37a7.5,7.5,0,0,1-.81,3.48A2.61,2.61,0,0,1,365,75.54c-.49,0-1-.39-1.51-1.17v2.3a1.79,1.79,0,0,0,.23.74,1.67,1.67,0,0,1,.24.68.8.8,0,0,1-.09.36,1.47,1.47,0,0,1-1.48.81c-.6,0-1-.21-1.11-.64a1.32,1.32,0,0,1-.07-.42,1.6,1.6,0,0,1,.11-.53,1.71,1.71,0,0,0,.12-.57V66.86a1.08,1.08,0,0,0-.15-.48,1.08,1.08,0,0,1-.14-.45.73.73,0,0,1,.07-.31c.15-.34.59-.5,1.33-.5a1.18,1.18,0,0,1,.94.28.44.44,0,0,1,.09.27,1.4,1.4,0,0,1-.09.4,2.34,2.34,0,0,0-.11.41,2.36,2.36,0,0,1,1.95-1.18A2.28,2.28,0,0,1,367.49,67,9.18,9.18,0,0,1,368,70.37Zm-2.27,0c0-1.14,0-1.86-.07-2.18q-.18-1.17-.9-1.17c-.28,0-.53.38-.75,1.13a7.86,7.86,0,0,0-.33,2.22,6.55,6.55,0,0,0,.36,1.95c.24.79.48,1.18.72,1.18s.53-.36.72-1.09A8.38,8.38,0,0,0,365.75,70.37Z"/><path class="cls-3" d="M370.66,74.51a.85.85,0,0,1,0,.25,1.45,1.45,0,0,1-.43.81l-1,1.41q-.53.7-.81.72a1.15,1.15,0,0,1-.81-.4.87.87,0,0,1-.34-.83,6.93,6.93,0,0,1,.59-.62,2.66,2.66,0,0,0,.72-1,.88.88,0,0,0,.14-.48.76.76,0,0,1,.13-.44.53.53,0,0,1,.36-.11,2.22,2.22,0,0,1,.91.23C370.44,74.15,370.63,74.32,370.66,74.51Z"/><path class="cls-3" d="M382,72.93a2.91,2.91,0,0,1-.9,2.15A2.94,2.94,0,0,1,379,76a2.48,2.48,0,0,1-1.6-.74,6.46,6.46,0,0,1-1.17-1.46c-.3-.5-.43-.82-.39-1,.13-.3.54-.45,1.24-.45a1.44,1.44,0,0,1,.68.13.83.83,0,0,1,.49.59.78.78,0,0,0,.18.52c.25.39.48.58.68.58a.55.55,0,0,0,.44-.32,1.31,1.31,0,0,0,.21-.74,1.7,1.7,0,0,0-.09-.54c-.06-.18-.38-.46-1-.83a7.62,7.62,0,0,1-1.51-1.17,2.93,2.93,0,0,1-.78-2,3.75,3.75,0,0,1,.79-2.36,2.45,2.45,0,0,1,2-1,2.23,2.23,0,0,1,1.93,1,2.26,2.26,0,0,1,.45,1.57,1.05,1.05,0,0,1,.19.72,1.25,1.25,0,0,1-.39.92,1.2,1.2,0,0,1-.81.37c-.41,0-.76-.27-1.06-.81a1,1,0,0,1-.13-.57c0-.11,0-.26,0-.46a3.94,3.94,0,0,0,0-.42c0-.32-.11-.47-.34-.47s-.52.34-.52,1a2.19,2.19,0,0,0,.68,1.68,5.91,5.91,0,0,0,1.17.72,3.1,3.1,0,0,1,1.1.81A2.7,2.7,0,0,1,382,72.93Z"/><path class="cls-3" d="M390,73.45a3,3,0,0,1-1,1.46,2.47,2.47,0,0,1-1,.52,4,4,0,0,1-1.71.32,2.56,2.56,0,0,1-2.12-1.54,7.12,7.12,0,0,1-.7-3.32,8.28,8.28,0,0,1,.79-3.72,3.18,3.18,0,0,1,2.36-2,3.6,3.6,0,0,1,.56,0c1.42,0,2.21.88,2.35,2.63a3.85,3.85,0,0,1-1,2.63,6.11,6.11,0,0,1-2.95,2.19,6.56,6.56,0,0,0,.3.94.77.77,0,0,0,.69.45,1.61,1.61,0,0,0,.88-.32,1.81,1.81,0,0,0,.54-.53c.05,0,.1-.15.14-.4a.73.73,0,0,1,.38-.53.51.51,0,0,1,.25-.06,1.19,1.19,0,0,1,.84.43A1,1,0,0,1,390,73.45Zm-2.83-6.34c-.48,0-.87.35-1.17,1a5.55,5.55,0,0,0-.49,2.7,3.2,3.2,0,0,0,1.57-1.26,3.14,3.14,0,0,0,.72-1.76C387.78,67.35,387.57,67.11,387.15,67.11Z"/><path class="cls-3" d="M398.69,65.8a.66.66,0,0,1-.36.58,2.33,2.33,0,0,0-.61.54l-2.06,3.56,1.73,3.35s.15.22.38.56a1,1,0,0,1,.22.55.72.72,0,0,1-.06.29,1.12,1.12,0,0,1-1.13.78,1.59,1.59,0,0,1-.67-.15c-.3-.13-.46-.3-.49-.51s-.06-.42-.08-.62l-1-2.41-1.08,2.16a6.68,6.68,0,0,1-.25.71.55.55,0,0,1-.56.35,1.66,1.66,0,0,1-1-.36,1,1,0,0,1-.45-.92.83.83,0,0,1,.24-.42,1.59,1.59,0,0,0,.26-.34l1.58-2.88-1.11-3.49a1.1,1.1,0,0,0-.35-.44.93.93,0,0,1-.34-.49c0-.28.14-.53.51-.74a2.22,2.22,0,0,1,1.08-.27.91.91,0,0,1,.5.11,1,1,0,0,1,.49.64c.06.25.11.51.16.76l.54,1.69L396,66.27c.11-.23.22-.46.35-.7a1,1,0,0,1,.51-.49,1.06,1.06,0,0,1,.45-.09,1.8,1.8,0,0,1,.91.26C398.51,65.43,398.66,65.61,398.69,65.8Z"/><path class="cls-3" d="M402.27,74.51a.93.93,0,0,1-.4,1.06l-1,1.41q-.52.7-.81.72a1.15,1.15,0,0,1-.81-.4.87.87,0,0,1-.34-.83,5.82,5.82,0,0,1,.58-.62,2.7,2.7,0,0,0,.73-1,1,1,0,0,0,.14-.48.69.69,0,0,1,.13-.44.5.5,0,0,1,.36-.11,2.22,2.22,0,0,1,.91.23C402.05,74.15,402.23,74.32,402.27,74.51Z"/><path class="cls-3" d="M210.42,88.41a.73.73,0,0,1-.65.52l-1,.09-1.29.36,0,5.85a1.34,1.34,0,0,0,.34.88,1.21,1.21,0,0,1,.34.63.7.7,0,0,1,0,.25,1,1,0,0,1-1.06.63,1.83,1.83,0,0,1-1-.26,1,1,0,0,1-.53-.64,5.44,5.44,0,0,1-.11-1.18V89.92a1.38,1.38,0,0,1-.75.11c-.83-.11-1.24-.45-1.24-1a1.07,1.07,0,0,1,.16-.54c.07-.12.29-.21.65-.27a9.49,9.49,0,0,0,1.08-.23,13,13,0,0,1,.46-3.87,3.42,3.42,0,0,1,2.34-2.18.88.88,0,0,1,.29,0,2.07,2.07,0,0,1,1.06.33c.36.21.53.4.49.57s-.26.44-.65.56a2.25,2.25,0,0,0-.9.49,4,4,0,0,0-.84,1.65,7.72,7.72,0,0,0-.13,1.91l.88-.27a2.68,2.68,0,0,1,.88-.13,1.34,1.34,0,0,1,.84.38,1.05,1.05,0,0,1,.39.78A.77.77,0,0,1,210.42,88.41Z"/><path class="cls-3" d="M215.82,87.65c.81.82,1.21,2.19,1.21,4.12a8,8,0,0,1-.85,3.84,2.9,2.9,0,0,1-2.63,1.78,2.79,2.79,0,0,1-2.55-1.6,7.2,7.2,0,0,1-.79-3.57,9,9,0,0,1,.61-3.42,2.85,2.85,0,0,1,1.65-1.9,3.91,3.91,0,0,1,1.08-.15A3,3,0,0,1,215.82,87.65Zm-1.11,2c-.22-.73-.53-1.12-.94-1.15s-.85.48-1.12,1.6a9.26,9.26,0,0,0-.28,2.19Q213.18,91.45,214.71,89.67Zm.18,2.36a18.3,18.3,0,0,0-1.52,1.63c-.31.4-.57.72-.77,1,.18.61.5.95,1,1,.3,0,.59-.31.85-1.08A10.52,10.52,0,0,0,214.89,92Z"/><path class="cls-3" d="M220.57,97a1.35,1.35,0,0,1-1.33.68A1.33,1.33,0,0,1,218,97.1a.77.77,0,0,1-.11-.39,2.72,2.72,0,0,1,.13-.6,2.57,2.57,0,0,0,.13-.68l-.08-11.63v-1q.06-.24.51-.39a3,3,0,0,1,.95-.15c.49,0,.81.09.94.27a.94.94,0,0,1,.2.56,2.41,2.41,0,0,1-.15.65,2.88,2.88,0,0,0-.14.75v10.8a2.31,2.31,0,0,0,.15.71,2.36,2.36,0,0,1,.15.64A.74.74,0,0,1,220.57,97Z"/><path class="cls-3" d="M228.53,95.05a3,3,0,0,1-1,1.46,2.65,2.65,0,0,1-1,.52,4,4,0,0,1-1.71.32,2.57,2.57,0,0,1-2.13-1.54,7.25,7.25,0,0,1-.7-3.32,8.41,8.41,0,0,1,.79-3.72,3.2,3.2,0,0,1,2.36-2,3.6,3.6,0,0,1,.56,0c1.43,0,2.21.88,2.36,2.63a3.92,3.92,0,0,1-1,2.63,6.06,6.06,0,0,1-2.95,2.19,6.17,6.17,0,0,0,.31.94.76.76,0,0,0,.68.45,2,2,0,0,0,1.42-.85c.05,0,.1-.15.15-.4a.71.71,0,0,1,.38-.53.49.49,0,0,1,.25-.06,1.19,1.19,0,0,1,.84.43A1,1,0,0,1,228.53,95.05Zm-2.83-6.34c-.48,0-.87.35-1.17,1a5.66,5.66,0,0,0-.48,2.7,3.22,3.22,0,0,0,1.56-1.26,3.14,3.14,0,0,0,.72-1.76C226.33,89,226.12,88.71,225.7,88.71Z"/><path class="cls-3" d="M232.62,97a1.37,1.37,0,0,1-1.34.68A1.33,1.33,0,0,1,230,97.1a.76.76,0,0,1-.1-.39,2.54,2.54,0,0,1,.12-.6,2.22,2.22,0,0,0,.13-.68L230.1,83.8v-1c0-.16.2-.29.5-.39a3,3,0,0,1,1-.15c.5,0,.81.09.94.27a.94.94,0,0,1,.2.56,2.41,2.41,0,0,1-.15.65,2.88,2.88,0,0,0-.14.75v10.8a2.31,2.31,0,0,0,.15.71,2.12,2.12,0,0,1,.16.64A.74.74,0,0,1,232.62,97Z"/><path class="cls-3" d="M240.16,94.53a2.91,2.91,0,0,1-.9,2.15,2.94,2.94,0,0,1-2.13.89,2.48,2.48,0,0,1-1.6-.74,6.46,6.46,0,0,1-1.17-1.46c-.3-.5-.43-.82-.39-1,.13-.3.54-.45,1.24-.45a1.44,1.44,0,0,1,.68.13.83.83,0,0,1,.49.59.78.78,0,0,0,.18.52c.25.39.48.58.68.58s.3-.11.44-.32a1.31,1.31,0,0,0,.21-.74,1.7,1.7,0,0,0-.09-.54c-.06-.18-.38-.46-1-.83a7.62,7.62,0,0,1-1.51-1.17,2.93,2.93,0,0,1-.78-2,3.75,3.75,0,0,1,.79-2.36,2.45,2.45,0,0,1,2-1,2.23,2.23,0,0,1,1.93.95,2.26,2.26,0,0,1,.45,1.57,1.05,1.05,0,0,1,.19.72,1.25,1.25,0,0,1-.39.92,1.2,1.2,0,0,1-.81.37c-.41,0-.76-.27-1.06-.81a1,1,0,0,1-.13-.57c0-.11,0-.26,0-.46a3.94,3.94,0,0,0,0-.42c0-.32-.11-.47-.34-.47s-.52.34-.52,1a2.19,2.19,0,0,0,.68,1.68,5.91,5.91,0,0,0,1.17.72,3.1,3.1,0,0,1,1.1.81A2.7,2.7,0,0,1,240.16,94.53Z"/><path class="cls-3" d="M248.1,95.05a3,3,0,0,1-1,1.46,2.47,2.47,0,0,1-1,.52,4,4,0,0,1-1.71.32,2.56,2.56,0,0,1-2.12-1.54,7.12,7.12,0,0,1-.7-3.32,8.28,8.28,0,0,1,.79-3.72,3.18,3.18,0,0,1,2.36-2,3.6,3.6,0,0,1,.56,0c1.42,0,2.21.88,2.35,2.63a3.85,3.85,0,0,1-.95,2.63,6.11,6.11,0,0,1-3,2.19,6.56,6.56,0,0,0,.3.94.77.77,0,0,0,.69.45,1.61,1.61,0,0,0,.88-.32,1.81,1.81,0,0,0,.54-.53c.05,0,.1-.15.14-.4a.73.73,0,0,1,.38-.53.51.51,0,0,1,.25-.06,1.19,1.19,0,0,1,.84.43A1,1,0,0,1,248.1,95.05Zm-2.83-6.34c-.48,0-.87.35-1.17,1a5.55,5.55,0,0,0-.49,2.7,3.2,3.2,0,0,0,1.57-1.26,3.14,3.14,0,0,0,.72-1.76C245.9,89,245.69,88.71,245.27,88.71Z"/><path class="cls-3" d="M256.34,87.76c0,.25-.28.43-.68.52a1.82,1.82,0,0,0-.92.42l-2.94,3.38v2.74a1.66,1.66,0,0,0,.23.8,1.4,1.4,0,0,1,.22.62,1.21,1.21,0,0,1-.12.48,1.22,1.22,0,0,1-1.24.69,1.31,1.31,0,0,1-1-.42.94.94,0,0,1-.25-.68c0-.1,0-.25,0-.47a3.76,3.76,0,0,0,0-.52V88.59a.87.87,0,0,0-.14-.4.74.74,0,0,1-.15-.38.73.73,0,0,1,.07-.25c.16-.29.65-.43,1.46-.43q1,0,1.08.45a1,1,0,0,1,.06.31.34.34,0,0,1-.15.3.31.31,0,0,0-.14.22l0,.65,1.55-1.64c.18-.21.37-.41.57-.61a1.1,1.1,0,0,1,.69-.35,2.07,2.07,0,0,1,1.18.27,1,1,0,0,1,.57.85A1.1,1.1,0,0,1,256.34,87.76Z"/><path class="cls-3" d="M266.28,87.65c.8.82,1.2,2.19,1.2,4.12a8.13,8.13,0,0,1-.84,3.84A2.92,2.92,0,0,1,264,97.39a2.8,2.8,0,0,1-2.56-1.6,7.2,7.2,0,0,1-.79-3.57,9,9,0,0,1,.61-3.42,2.85,2.85,0,0,1,1.66-1.9,3.91,3.91,0,0,1,1.08-.15A3.05,3.05,0,0,1,266.28,87.65Zm-2.06.87q-.59-.06-1,1.11a6.65,6.65,0,0,0-.38,2.23,14.42,14.42,0,0,0,.14,2.4q.26,1.26,1.05,1.38c.33,0,.65-.41.93-1.38a10.48,10.48,0,0,0,.42-3Q265.36,88.63,264.22,88.52Z"/><path class="cls-3" d="M275.42,87.38c0,1,.08,2.73.16,5.1.05,1.66.07,2.86.07,3.58a9.08,9.08,0,0,1-.38,3.24,1.65,1.65,0,0,1-1.53,1,3.41,3.41,0,0,1-2.53-.75,3.76,3.76,0,0,1-.69-.26.87.87,0,0,1-.39-.61c-.11-.56.33-.84,1.33-.84a2.84,2.84,0,0,1,.72.09,1.07,1.07,0,0,1,.56.42.9.9,0,0,0,.57.39c.35,0,.52-.47.52-1.48,0-.43,0-1.13-.09-2.11a11.07,11.07,0,0,1-.93,1.43,1.91,1.91,0,0,1-1.39.61c-.74,0-1.34-.52-1.8-1.55a8.52,8.52,0,0,1-.63-3.46,8.25,8.25,0,0,1,.67-3.52A2.4,2.4,0,0,1,271.75,87a1.48,1.48,0,0,1,1.06.29q.35.3.66.63a.85.85,0,0,1,.11-1,.78.78,0,0,1,.6-.2,1.51,1.51,0,0,1,.75.2A1,1,0,0,1,275.42,87.38ZM273.26,92a5.05,5.05,0,0,0-.25-2c-.24-.69-.56-1-.94-1s-.59.35-.83,1a7.22,7.22,0,0,0-.36,2,8.19,8.19,0,0,0,.16,2c.17.7.41,1,.71,1s.57-.34.91-1A5.25,5.25,0,0,0,273.26,92Z"/><path class="cls-3" d="M288.7,96.18a1.23,1.23,0,0,1-1.33.89,1.21,1.21,0,0,1-.58-.13,1.18,1.18,0,0,1-.39-.79,12.7,12.7,0,0,0-.43-1.6,3.16,3.16,0,0,1-1.08,2,3,3,0,0,1-2.07,1c-.88,0-1.49-.58-1.82-1.75a4.56,4.56,0,0,1-.18-1.22,3.43,3.43,0,0,1,1.71-2.86l2.82-1.64a2.46,2.46,0,0,0,.08-.59c0-.38-.11-.59-.31-.66a1.62,1.62,0,0,0-.52-.1A.84.84,0,0,0,284,89l-.46.46a2.48,2.48,0,0,0-.56.67.91.91,0,0,1-.59.45,1,1,0,0,1-.85-.33,1.2,1.2,0,0,1-.38-.88,1,1,0,0,1,.15-.52,3.55,3.55,0,0,1,1.24-1.19,6.07,6.07,0,0,1,3.15-.75,1.64,1.64,0,0,1,1.65,1.15,11.61,11.61,0,0,1,.44,2.9,31.89,31.89,0,0,0,.39,3.76,1.6,1.6,0,0,0,.31.59,1.11,1.11,0,0,1,.27.63A.69.69,0,0,1,288.7,96.18Zm-3.13-4.42-1.07.59a3.88,3.88,0,0,0-1,.81,2.11,2.11,0,0,0-.65,1.26,1.62,1.62,0,0,0,.32.9.5.5,0,0,0,.4.25c.31,0,.65-.35,1-1A12.76,12.76,0,0,0,285.57,91.76Z"/><path class="cls-3" d="M292.93,97a1.35,1.35,0,0,1-1.33.68,1.33,1.33,0,0,1-1.26-.61.77.77,0,0,1-.11-.39,2.23,2.23,0,0,1,.13-.6,2.5,2.5,0,0,0,.12-.68l-.07-11.63v-1q.06-.24.51-.39a3,3,0,0,1,.95-.15c.49,0,.8.09.94.27a.92.92,0,0,1,.19.56,2.28,2.28,0,0,1-.14.65,2.51,2.51,0,0,0-.14.75v10.8a2.31,2.31,0,0,0,.15.71,2.36,2.36,0,0,1,.15.64A.74.74,0,0,1,292.93,97Z"/><path class="cls-3" d="M300.74,88.77a1.49,1.49,0,0,1-.45-.12,1.41,1.41,0,0,0-.46-.12.62.62,0,0,0-.26.06l-.66.34v6.16a1.7,1.7,0,0,0,.37.88,1.21,1.21,0,0,1,.29.86.91.91,0,0,1-.53.63,1.93,1.93,0,0,1-.94.24,1.32,1.32,0,0,1-1.32-.85,6.67,6.67,0,0,1-.12-1.6c0-.6,0-1.54,0-2.81,0-1.44,0-2.35,0-2.74a1.81,1.81,0,0,0-.36.25.76.76,0,0,1-.5.2,1.67,1.67,0,0,1-.51-.1c-.84-.29-1.26-.59-1.26-.89a.58.58,0,0,1,.53-.55,3,3,0,0,0,.63-.13c.27-.11.78-.37,1.51-.77V86.14a1.51,1.51,0,0,0-.1-.48,1.37,1.37,0,0,1-.1-.44.53.53,0,0,1,.09-.3,1.43,1.43,0,0,1,1.26-.72,1.36,1.36,0,0,1,1.3.72,1.16,1.16,0,0,1,.14.46.64.64,0,0,1-.22.45.69.69,0,0,0-.21.44v.88a3.41,3.41,0,0,0,.72-.49.87.87,0,0,1,.52-.25.51.51,0,0,1,.2,0,1.33,1.33,0,0,1,1.13,1.36,1.18,1.18,0,0,1-.2.65A.62.62,0,0,1,300.74,88.77Z"/><path class="cls-3" d="M312.66,96.83c-.14.33-.59.49-1.33.49a1.2,1.2,0,0,1-.94-.29.33.33,0,0,1-.09-.25,1.4,1.4,0,0,1,.09-.4,2.34,2.34,0,0,0,.11-.41,2.36,2.36,0,0,1-1.94,1.17,2.3,2.3,0,0,1-2.18-1.69,9.14,9.14,0,0,1-.52-3.37,7.43,7.43,0,0,1,.81-3.47c.6-1.14,1.33-1.71,2.21-1.71.49,0,1,.39,1.51,1.18V85.76a1.79,1.79,0,0,0-.23-.74,1.62,1.62,0,0,1-.24-.68A.8.8,0,0,1,310,84a1.48,1.48,0,0,1,1.48-.81,1,1,0,0,1,1.12.65,1.53,1.53,0,0,1,.07.41,1.67,1.67,0,0,1-.12.53,1.76,1.76,0,0,0-.12.57V95.59a1.08,1.08,0,0,0,.15.48,1.12,1.12,0,0,1,.14.46A.72.72,0,0,1,312.66,96.83Zm-2.48-4.75a6.71,6.71,0,0,0-.35-1.94c-.25-.8-.49-1.19-.73-1.19s-.5.36-.67,1.1a9.56,9.56,0,0,0-.2,2c0,.13,0,.35,0,.65v.66c0,1.36.3,2,.89,2q.4,0,.75-1.17A7.44,7.44,0,0,0,310.18,92.08Z"/><path class="cls-3" d="M320.29,95.05a2.94,2.94,0,0,1-1,1.46,2.47,2.47,0,0,1-1,.52,4,4,0,0,1-1.71.32,2.54,2.54,0,0,1-2.12-1.54,7.12,7.12,0,0,1-.71-3.32,8.28,8.28,0,0,1,.8-3.72,3.17,3.17,0,0,1,2.35-2,3.69,3.69,0,0,1,.56,0c1.43,0,2.22.88,2.36,2.63a4,4,0,0,1-.95,2.63,6.13,6.13,0,0,1-3,2.19,7.61,7.61,0,0,0,.31.94.77.77,0,0,0,.68.45,1.64,1.64,0,0,0,.89-.32,1.81,1.81,0,0,0,.54-.53s.09-.15.14-.4a.71.71,0,0,1,.38-.53.49.49,0,0,1,.25-.06,1.19,1.19,0,0,1,.84.43A1,1,0,0,1,320.29,95.05Zm-2.82-6.34c-.48,0-.87.35-1.17,1a5.55,5.55,0,0,0-.49,2.7,3.24,3.24,0,0,0,1.57-1.26,3.14,3.14,0,0,0,.72-1.76C318.1,89,317.89,88.71,317.47,88.71Z"/><path class="cls-3" d="M328.54,87.76c-.05.25-.28.43-.69.52a1.87,1.87,0,0,0-.92.42L324,92.08v2.74a1.66,1.66,0,0,0,.23.8,1.4,1.4,0,0,1,.22.62,1.08,1.08,0,0,1-.13.48,1.21,1.21,0,0,1-1.24.69,1.3,1.3,0,0,1-1-.42.94.94,0,0,1-.26-.68c0-.1,0-.25,0-.47s0-.39,0-.52V88.59a.8.8,0,0,0-.15-.4.81.81,0,0,1-.14-.38.56.56,0,0,1,.07-.25c.16-.29.64-.43,1.46-.43q.94,0,1.08.45a1.32,1.32,0,0,1,.05.31.36.36,0,0,1-.14.3.3.3,0,0,0-.15.22l0,.65,1.55-1.64c.18-.21.37-.41.57-.61a1.05,1.05,0,0,1,.69-.35,2.07,2.07,0,0,1,1.18.27,1,1,0,0,1,.56.85A1.09,1.09,0,0,1,328.54,87.76Z"/><path class="cls-3" d="M335.9,87.83a1.88,1.88,0,0,1-.28.78,2,2,0,0,0-.28.88v5.29a4,4,0,0,0,.2,1,4,4,0,0,1,.2.91.6.6,0,0,1-.29.54,1.79,1.79,0,0,1-1,.28,1.07,1.07,0,0,1-1-.46,8.8,8.8,0,0,1-.37-3.44c0-.46,0-1.17,0-2.13s0-1.68,0-2.12a6.45,6.45,0,0,0-.05-.66,4.48,4.48,0,0,1-.06-.58,1.44,1.44,0,0,1,.43-1,1,1,0,0,1,.67-.18,3,3,0,0,1,1,.16,1.09,1.09,0,0,1,.62.35A.69.69,0,0,1,335.9,87.83Zm-.24-4.39a.24.24,0,0,1,.06.18,2.73,2.73,0,0,1-.11.56c-.08.32-.14.54-.16.66a3.36,3.36,0,0,0,0,.8.5.5,0,0,1-.22.49,1.2,1.2,0,0,1-.57.12,2.77,2.77,0,0,1-1-.2c-.41-.17-.61-.39-.61-.67a1,1,0,0,1,.11-.35,1.2,1.2,0,0,0,.12-.37,2.61,2.61,0,0,0,0-.72.67.67,0,0,1,.18-.61,1.86,1.86,0,0,1,1-.21A1.54,1.54,0,0,1,335.66,83.44Z"/><path class="cls-3" d="M349.49,96.94a1,1,0,0,1-1.06.67,1.75,1.75,0,0,1-1.55-.72,7.26,7.26,0,0,1-.27-2.72v-1c0-.42,0-.71,0-.88,0-.84-.05-1.27-.13-1.29s-.79,1.6-1.84,5c0,0,0,.3-.07.86a.78.78,0,0,1-.36.7,1,1,0,0,1-.52.13,1.8,1.8,0,0,1-1-.34,1.47,1.47,0,0,1-.61-.81,12,12,0,0,1-.16-2.63q0-2.86,0-2.76c0-.5,0-.76-.1-.77a14.64,14.64,0,0,0-.72,1.31,7.82,7.82,0,0,0-.85,2.52,2,2,0,0,0,0,.85c.05.36,0,.61-.16.74a1,1,0,0,1-.63.2,1.7,1.7,0,0,1-.87-.25,1.61,1.61,0,0,1-.64-.55,7,7,0,0,1-.33-2.62V88.41a2.22,2.22,0,0,0-.14-.51,1.57,1.57,0,0,1-.13-.48.59.59,0,0,1,.09-.31c.16-.24.56-.36,1.19-.36.78,0,1.25.19,1.41.58a.74.74,0,0,1,.05.25,1.17,1.17,0,0,1-.17.47,1.13,1.13,0,0,0-.17.5v2c.36-.75.83-1.71,1.42-2.88l.21-.46a1.1,1.1,0,0,1,.29-.42,1,1,0,0,1,.67-.18,3.51,3.51,0,0,1,1.45.33c.49.21.73.47.75.77a1.28,1.28,0,0,1-.14.71.83.83,0,0,0-.15.41l0,3.88q.28-.65,1-3.06a5.58,5.58,0,0,1,.9-2,2,2,0,0,1,1.17-.29c1,0,1.45.28,1.49.83,0,1.47,0,3.91,0,7.35,0,.13.12.29.36.47a.77.77,0,0,1,.36.59A1,1,0,0,1,349.49,96.94Z"/><path class="cls-3" d="M356.76,95.05a3,3,0,0,1-1,1.46,2.65,2.65,0,0,1-1,.52,4,4,0,0,1-1.71.32A2.57,2.57,0,0,1,351,95.81a7.25,7.25,0,0,1-.7-3.32,8.41,8.41,0,0,1,.79-3.72,3.2,3.2,0,0,1,2.36-2,3.6,3.6,0,0,1,.56,0c1.43,0,2.21.88,2.36,2.63a3.92,3.92,0,0,1-1,2.63,6.06,6.06,0,0,1-2.95,2.19,6.17,6.17,0,0,0,.31.94.76.76,0,0,0,.68.45,2,2,0,0,0,1.42-.85c.05,0,.1-.15.15-.4a.71.71,0,0,1,.38-.53.49.49,0,0,1,.25-.06,1.19,1.19,0,0,1,.84.43A1,1,0,0,1,356.76,95.05Zm-2.83-6.34c-.48,0-.87.35-1.17,1a5.66,5.66,0,0,0-.48,2.7,3.22,3.22,0,0,0,1.56-1.26,3.14,3.14,0,0,0,.72-1.76C354.56,89,354.35,88.71,353.93,88.71Z"/><path class="cls-3" d="M360.85,97a1.37,1.37,0,0,1-1.34.68,1.33,1.33,0,0,1-1.26-.61.76.76,0,0,1-.1-.39,2.54,2.54,0,0,1,.12-.6,2.22,2.22,0,0,0,.13-.68l-.07-11.63v-1c0-.16.2-.29.5-.39a3,3,0,0,1,.95-.15c.5,0,.81.09.94.27a.94.94,0,0,1,.2.56,2.41,2.41,0,0,1-.15.65,2.88,2.88,0,0,0-.14.75v10.8a2.31,2.31,0,0,0,.15.71,2.49,2.49,0,0,1,.16.64A.74.74,0,0,1,360.85,97Z"/><path class="cls-3" d="M365.35,97a1.37,1.37,0,0,1-1.34.68,1.33,1.33,0,0,1-1.26-.61.76.76,0,0,1-.1-.39,2.54,2.54,0,0,1,.12-.6,2.22,2.22,0,0,0,.13-.68l-.07-11.63v-1c0-.16.2-.29.5-.39a3,3,0,0,1,.95-.15c.5,0,.81.09.94.27a.94.94,0,0,1,.2.56,2.41,2.41,0,0,1-.15.65,2.88,2.88,0,0,0-.14.75v10.8a2.31,2.31,0,0,0,.15.71,2.49,2.49,0,0,1,.16.64A.74.74,0,0,1,365.35,97Z"/><path class="cls-3" d="M373.3,95.05a3,3,0,0,1-1,1.46,2.65,2.65,0,0,1-1,.52,4,4,0,0,1-1.71.32,2.54,2.54,0,0,1-2.12-1.54,7.12,7.12,0,0,1-.71-3.32,8.28,8.28,0,0,1,.8-3.72,3.17,3.17,0,0,1,2.35-2,3.6,3.6,0,0,1,.56,0c1.43,0,2.21.88,2.36,2.63a3.92,3.92,0,0,1-1,2.63,6.06,6.06,0,0,1-3,2.19,7.61,7.61,0,0,0,.31.94.76.76,0,0,0,.68.45,1.64,1.64,0,0,0,.89-.32,1.81,1.81,0,0,0,.54-.53s.09-.15.14-.4a.71.71,0,0,1,.38-.53.49.49,0,0,1,.25-.06,1.19,1.19,0,0,1,.84.43A1,1,0,0,1,373.3,95.05Zm-2.83-6.34c-.48,0-.87.35-1.16,1a5.55,5.55,0,0,0-.49,2.7,3.24,3.24,0,0,0,1.57-1.26,3.14,3.14,0,0,0,.72-1.76C371.11,89,370.89,88.71,370.47,88.71Z"/><path class="cls-3" d="M386.55,96.94a1,1,0,0,1-1.06.67,1.75,1.75,0,0,1-1.55-.72,7.26,7.26,0,0,1-.27-2.72v-1c0-.42,0-.71,0-.88,0-.84-.05-1.27-.13-1.29s-.79,1.6-1.84,5c0,0,0,.3-.07.86a.78.78,0,0,1-.36.7,1,1,0,0,1-.52.13,1.8,1.8,0,0,1-1-.34,1.52,1.52,0,0,1-.61-.81A12,12,0,0,1,379,94c0-1.91,0-2.83,0-2.76,0-.5,0-.76-.11-.77a14.64,14.64,0,0,0-.72,1.31,7.82,7.82,0,0,0-.85,2.52,2,2,0,0,0,0,.85c.05.36,0,.61-.16.74a1,1,0,0,1-.63.2,1.7,1.7,0,0,1-.87-.25,1.61,1.61,0,0,1-.64-.55,7,7,0,0,1-.33-2.62V88.41a2.22,2.22,0,0,0-.14-.51,1.49,1.49,0,0,1-.12-.48.59.59,0,0,1,.09-.31c.15-.24.55-.36,1.18-.36.78,0,1.25.19,1.41.58a.74.74,0,0,1,.05.25,1.17,1.17,0,0,1-.17.47,1.13,1.13,0,0,0-.17.5v2c.36-.75.83-1.71,1.42-2.88l.21-.46a1,1,0,0,1,.3-.42,1,1,0,0,1,.66-.18,3.51,3.51,0,0,1,1.45.33c.49.21.73.47.75.77a1.28,1.28,0,0,1-.14.71.83.83,0,0,0-.15.41l0,3.88c.2-.43.54-1.45,1-3.06a5.58,5.58,0,0,1,.9-2,2,2,0,0,1,1.17-.29c1,0,1.46.28,1.49.83,0,1.47,0,3.91,0,7.35,0,.13.12.29.36.47a.77.77,0,0,1,.36.59A1,1,0,0,1,386.55,96.94Z"/><path class="cls-3" d="M390.6,83.22a1.15,1.15,0,0,1,0,.26,1.85,1.85,0,0,1-.12.53,1.66,1.66,0,0,0-.13.58v6a3,3,0,0,0,.14.74,2.7,2.7,0,0,1,.13.66.64.64,0,0,1-.28.55,1.13,1.13,0,0,1-.71.21,1.73,1.73,0,0,1-1.44-.65.78.78,0,0,1-.16-.49,2,2,0,0,1,0-.33,1.38,1.38,0,0,0,0-.4c-.1-1.5-.16-3-.16-4.65q0-3.1.27-3.42a1.23,1.23,0,0,1,.9-.23C390,82.56,390.48,82.78,390.6,83.22Zm0,11.34a1.08,1.08,0,0,1,.09.44,3.7,3.7,0,0,1-.06.52,2.8,2.8,0,0,0-.07.56s0,.15.06.54a.83.83,0,0,1-.13.52.81.81,0,0,1-.74.32,1.68,1.68,0,0,1-1.42-.63,1,1,0,0,1-.13-.56c0-.09,0-.31,0-.64a6.68,6.68,0,0,0,0-.74,3.76,3.76,0,0,0-.06-.38.61.61,0,0,1,0-.38c.1-.23.37-.34.81-.34A1.53,1.53,0,0,1,390.6,94.56Z"/><path class="cls-1" d="M282.6,156.37c-1.36,13,9.22,27.25,21.25,31.16a153.92,153.92,0,0,0,16.52,4.12,15.54,15.54,0,0,1,0,7.42,16.19,16.19,0,0,1-4.73,7.84,65.44,65.44,0,0,0,13.55-5.46,63.64,63.64,0,0,0,9.23-6.09,211,211,0,0,0,34.83,4.28c13.94.55,21,.63,29.27-2.22,9.78-3.37,25.29-12.87,26.41-27.18,1-12.76-10-22.56-14.37-26.46-14.08-12.57-31-14.4-56-16.77-24.58-2.33-40.5-3.62-56.15,5.47C297.2,135.46,284,143.14,282.6,156.37Z"/><path class="cls-3" d="M334.77,167.35a1.76,1.76,0,0,1,.06.46,2.27,2.27,0,0,1-.66,1.56,1.92,1.92,0,0,1-1.42.72,1.44,1.44,0,0,1-.46-.08,1.54,1.54,0,0,1-1-1.16,2.54,2.54,0,0,0-.64-1.34l-3.6-2.8.24,2.4a2.9,2.9,0,0,0,.2.77,2.41,2.41,0,0,1,.18.73,1.05,1.05,0,0,1-.39.78,1.36,1.36,0,0,1-.95.36,2.42,2.42,0,0,1-1.32-.46,1.41,1.41,0,0,1-.76-1.1.74.74,0,0,1,.22-.48.74.74,0,0,0,.22-.48l-.52-11.8a1.56,1.56,0,0,0-.21-.62,1.28,1.28,0,0,1-.19-.54,1.24,1.24,0,0,1,.52-.84,1.18,1.18,0,0,1,.64-.1c1.19,0,1.93.27,2.24.82a.9.9,0,0,1,.12.42,1.32,1.32,0,0,1-.18.55,1.34,1.34,0,0,0-.18.59v4.88l3.36-6c.13-.35.26-.69.38-1a.93.93,0,0,1,.92-.54,2.24,2.24,0,0,1,1.3.46c.49.35.71.72.64,1.12a.79.79,0,0,1-.38.6,1.42,1.42,0,0,0-.46.36l-4,7,4.64,3.52.87.54A1.26,1.26,0,0,1,334.77,167.35Z"/><path class="cls-3" d="M339.09,169.61a1.52,1.52,0,0,1-1.48.76,1.49,1.49,0,0,1-1.4-.68.83.83,0,0,1-.12-.44,2.86,2.86,0,0,1,.14-.66,2.87,2.87,0,0,0,.14-.76l-.08-12.92v-1.08c0-.17.23-.32.56-.43a3.36,3.36,0,0,1,1.06-.17c.55,0,.89.1,1,.3a1,1,0,0,1,.22.62,2.68,2.68,0,0,1-.16.73,2.82,2.82,0,0,0-.16.83v12a2.68,2.68,0,0,0,.17.79,2.63,2.63,0,0,1,.17.71A.77.77,0,0,1,339.09,169.61Z"/><path class="cls-3" d="M344,159.39a2.11,2.11,0,0,1-.31.87,2.18,2.18,0,0,0-.31,1v5.88a4.11,4.11,0,0,0,.22,1.13,4.08,4.08,0,0,1,.22,1,.66.66,0,0,1-.32.6,2,2,0,0,1-1.08.32,1.15,1.15,0,0,1-1.08-.52c-.28-.43-.42-1.7-.42-3.82q0-.77,0-2.37c0-1.07,0-1.86,0-2.35a5.72,5.72,0,0,0-.06-.73,5.64,5.64,0,0,1-.06-.65,1.56,1.56,0,0,1,.48-1.14,1.06,1.06,0,0,1,.74-.2,3.69,3.69,0,0,1,1.08.17,1.27,1.27,0,0,1,.69.39A.78.78,0,0,1,344,159.39Zm-.26-4.88a.28.28,0,0,1,.06.2,2.75,2.75,0,0,1-.12.62l-.18.74a3.67,3.67,0,0,0,0,.88.56.56,0,0,1-.25.55,1.34,1.34,0,0,1-.63.13,2.92,2.92,0,0,1-1.1-.22c-.45-.19-.68-.43-.68-.74a1,1,0,0,1,.12-.39,1.32,1.32,0,0,0,.14-.41,3.25,3.25,0,0,0,0-.8.72.72,0,0,1,.2-.68,2,2,0,0,1,1.14-.24A1.76,1.76,0,0,1,343.77,154.51Z"/><path class="cls-3" d="M355.11,168a2.64,2.64,0,0,1,0,.28,1.64,1.64,0,0,1-1.34,1.62,1.71,1.71,0,0,1-.46.08.86.86,0,0,1-.66-.34,5.18,5.18,0,0,0-.56-.56l-3.6-2.52v1.68a1.32,1.32,0,0,0,.11.45,1.32,1.32,0,0,1,.11.41.68.68,0,0,1-.22.46,1.88,1.88,0,0,1-1.44.52,1.12,1.12,0,0,1-1.16-.6,1.06,1.06,0,0,1-.08-.58,6.59,6.59,0,0,0,.08-.7V155a6.13,6.13,0,0,1,.08-1.08c.12-.29.49-.44,1.1-.44a2,2,0,0,1,1.54.44.84.84,0,0,1,.18.52,2.48,2.48,0,0,1-.15.68,2.55,2.55,0,0,0-.15.72q0,1.15,0,6.54,1.13-1.08,2.88-2.82a5,5,0,0,0,.62-.86,1.09,1.09,0,0,1,.66-.48.79.79,0,0,1,.28,0,2.06,2.06,0,0,1,1.19.44,1.2,1.2,0,0,1,.61.94,1.08,1.08,0,0,1-.4.68c-.27.27-.53.52-.8.76l-3.32,3.44,3.56,2.56a6.73,6.73,0,0,0,.8.32A.8.8,0,0,1,355.11,168Z"/><path class="cls-3" d="M368.51,167.83a3.77,3.77,0,0,1,.12.64.79.79,0,0,1-.49.69,2.16,2.16,0,0,1-1.05.27,1,1,0,0,1-1.1-.64,1.18,1.18,0,0,1-.1-.44,1,1,0,0,1,.23-.56,1,1,0,0,0,.23-.56,14.16,14.16,0,0,0,.24-3q0-3.4-.48-3.48c-.24,0-.63.34-1.16,1.14a12.79,12.79,0,0,0-1.4,2.82A8,8,0,0,0,363,168a.53.53,0,0,0-.06.24,1.24,1.24,0,0,0,.16.51,1.27,1.27,0,0,1,.16.53.64.64,0,0,1-.14.38q-.54.78-1.08.78c-.37,0-.73-.29-1.08-.88q-.3-.52-.3-6c0-1.33,0-4.37.1-9.1,0-.08,0-.2,0-.37s0-.3,0-.39a.77.77,0,0,1,.12-.36,1,1,0,0,1,.94-.42,2.08,2.08,0,0,1,1.17.34c.35.23.49.49.41.8a.57.57,0,0,1-.19.28.46.46,0,0,0-.17.32v6.44a4,4,0,0,1,3.36-2.72q1.2-.07,1.92,1.8a11.83,11.83,0,0,1,.66,4.22A13.17,13.17,0,0,1,368.51,167.83Z"/><path class="cls-3" d="M377.83,167.41a3.32,3.32,0,0,1-1.08,1.62,2.66,2.66,0,0,1-1.1.58,4.51,4.51,0,0,1-1.9.36,2.85,2.85,0,0,1-2.36-1.72,7.91,7.91,0,0,1-.78-3.68,9.21,9.21,0,0,1,.88-4.14,3.55,3.55,0,0,1,2.62-2.2,4.4,4.4,0,0,1,.62,0c1.59,0,2.46,1,2.62,2.92a4.31,4.31,0,0,1-1.06,2.92,6.79,6.79,0,0,1-3.28,2.44,7.71,7.71,0,0,0,.34,1,.86.86,0,0,0,.76.5,1.75,1.75,0,0,0,1-.36,2,2,0,0,0,.6-.58c.05,0,.11-.18.16-.45a.79.79,0,0,1,.42-.59.61.61,0,0,1,.28-.06,1.31,1.31,0,0,1,.93.47A1.06,1.06,0,0,1,377.83,167.41Zm-3.14-7c-.53,0-1,.38-1.3,1.14a6.18,6.18,0,0,0-.54,3,3.56,3.56,0,0,0,1.74-1.4,3.5,3.5,0,0,0,.8-2C375.39,160.63,375.16,160.37,374.69,160.37Z"/><path class="cls-3" d="M387,159.31c-.06.28-.31.47-.76.58a2.05,2.05,0,0,0-1,.46L382,164.11v3a1.8,1.8,0,0,0,.25.89,1.56,1.56,0,0,1,.25.69,1.38,1.38,0,0,1-1.52,1.3,1.46,1.46,0,0,1-1.14-.46,1.05,1.05,0,0,1-.28-.76,4.39,4.39,0,0,1,0-.52,4.68,4.68,0,0,0,0-.58v-7.48a1,1,0,0,0-.16-.44.82.82,0,0,1-.16-.42.71.71,0,0,1,.08-.28q.25-.48,1.62-.48c.71,0,1.11.17,1.2.5a1.22,1.22,0,0,1,.06.34.39.39,0,0,1-.16.34.31.31,0,0,0-.16.24l0,.72,1.72-1.82c.2-.23.41-.45.63-.68a1.21,1.21,0,0,1,.77-.38,2.2,2.2,0,0,1,1.31.3,1.06,1.06,0,0,1,.63.94A1.36,1.36,0,0,1,387,159.31Z"/><path class="cls-3" d="M391.15,154.27a1.35,1.35,0,0,1,0,.28,2.07,2.07,0,0,1-.14.59,1.86,1.86,0,0,0-.14.65v6.64a3.19,3.19,0,0,0,.15.82,3.12,3.12,0,0,1,.15.74.74.74,0,0,1-.31.61,1.32,1.32,0,0,1-.79.23,1.89,1.89,0,0,1-1.6-.72.88.88,0,0,1-.18-.54,2.44,2.44,0,0,1,0-.37,2.46,2.46,0,0,0,0-.45q-.18-2.5-.18-5.16c0-2.31.1-3.57.3-3.8a1.35,1.35,0,0,1,1-.26C390.47,153.53,391,153.78,391.15,154.27Zm0,12.6a1.29,1.29,0,0,1,.1.48,5,5,0,0,1-.07.58,3.51,3.51,0,0,0-.07.62s0,.17.06.6a.91.91,0,0,1-.14.58.89.89,0,0,1-.82.36,1.86,1.86,0,0,1-1.58-.7,1,1,0,0,1-.14-.62c0-.11,0-.35,0-.72a6,6,0,0,0,0-.82s0-.18-.06-.42a.6.6,0,0,1,0-.42c.11-.25.4-.38.9-.38A1.71,1.71,0,0,1,391.15,166.87Z"/></svg>
