<svg id="Layer_1" data-name="Layer 1" xmlns="http://www.w3.org/2000/svg" viewBox="0 0 1920 1080"><defs><style>.cls-1{fill:#9d483d;}.cls-2{fill:#c9b53f;}.cls-3{fill:#f6e257;}.cls-4,.cls-6{fill:#7b4e2b;}.cls-4{stroke:#190908;}.cls-19,.cls-22,.cls-26,.cls-28,.cls-29,.cls-30,.cls-31,.cls-32,.cls-33,.cls-34,.cls-35,.cls-4,.cls-8{stroke-miterlimit:10;}.cls-19,.cls-5{fill:#1f1402;}.cls-7{fill:#54331d;}.cls-8{fill:#e3e0df;}.cls-29,.cls-30,.cls-31,.cls-32,.cls-33,.cls-34,.cls-35,.cls-8{stroke:#000;}.cls-9{fill:#3f2d20;}.cls-10{fill:#5b381e;}.cls-11{fill:#0a0806;opacity:0.49;isolation:isolate;}.cls-12,.cls-29,.cls-30,.cls-32,.cls-33,.cls-35{fill:#fff;}.cls-13{fill:#f28f31;}.cls-14{fill:#f0c49a;}.cls-15{fill:#f7bd7e;}.cls-16{fill:#1f2532;}.cls-17,.cls-26,.cls-34{fill:none;}.cls-18{fill:#99908a;}.cls-19{stroke:#0f0c0a;}.cls-19,.cls-26{stroke-width:2px;}.cls-20{fill:#14120f;}.cls-21{fill:#2d1d08;}.cls-22{fill:#60241e;stroke:#4f1d1c;}.cls-23{fill:#280a07;}.cls-24{fill:#c1c4cd;}.cls-25{fill:#e1e6f0;}.cls-26{stroke:#160b0c;}.cls-27{fill:#514337;}.cls-28{fill:#785034;stroke:#211313;}.cls-29{stroke-width:4px;}.cls-30,.cls-31,.cls-33{stroke-width:6px;}.cls-32,.cls-34{stroke-width:5px;}.cls-33{stroke-linecap:round;}.cls-35{stroke-width:3px;}</style></defs><title>slut_gul</title><rect class="cls-1" x="1.17" y="-1.1" width="1920" height="1080"/><circle class="cls-2" cx="1301.67" cy="541.4" r="529"/><path class="cls-3" d="M-.83-2.1v1082h1920V-2.1Zm1300.5,1073.48c-292.16,0-529-237.28-529-530s236.84-530,529-530,529,237.28,529,530S1591.83,1071.38,1299.67,1071.38Z"/><path class="cls-4" d="M1627.22,733.93c1.57-1.17,4.81.32,11.3,3.31,3.76,1.73,7,3.24,10.51,6.25,2.29,2,4,4,9.44,13.09,3.18,5.27,4.77,8.16,8.33,14.37,7.16,12.5,7.49,12.67,10.12,17.66,3.61,6.86,3.1,6.74,7.58,15.74,5.18,10.39,7.77,15.59,11.45,21.23,2.49,3.83,8.07,12,11.17,18a35.11,35.11,0,0,1,3.24,9.07s.29,1.41.45,2.74c.89,7.38-2,15.33-2.19,15.26s1.19-11.57,6.13-22.86a81,81,0,0,1,9.69-16.24c4-5.38,4.75-5.21,13.13-14.85,6.64-7.64,6.23-7.83,12.32-14.69,5-5.62,9.35-10.1,12.28-13.11,5.43-5.58,5.9-5.79,11-11.1s7.46-7.81,9.62-10.31c5.55-6.41,5.83-7.64,8.52-9a6.94,6.94,0,0,0,3.46-3,7.46,7.46,0,0,0,.23-5.1c-1.82-7.45-4.38-10-5.47-15.11-1-4.88-.16-9.31.93-14.84.56-2.8,1-3.7,2-8.95,1.4-6.92,1.35-8.61,1.16-10a24.89,24.89,0,0,0-2.81-8c-2-4-3.28-4.82-3.36-7.35,0-.22-.08-3.93,2.29-5.69,2.83-2.09,7.28,0,9.48,1.58,4.94,3.58,6.08,10.16,6.51,12.64.82,4.75-.27,6.13,1.12,11.46.85,3.26,1.59,6,3.81,7.07,2.91,1.48,6.5-.68,8.06-1.62,2.28-1.38,3.86-3.1,7.06-7.87,3.77-5.61,6.35-10.3,7.55-12.51,3.64-6.72,3.4-7,6.28-12.07.88-1.54,3-4.83,7.25-11.4,4.54-7,6-9.11,8.72-9.78,1.77-.42,4.54-.37,5.75,1.29,1.47,2-.09,5.33-2.71,11.53-5.84,13.76-3.71,10.47-6.77,16.7-5.73,11.67-9.9,16.56-9.19,17.2,1.12,1,12.38-9.93,19.16-17.46,2.52-2.79,5.29-5.32,7.87-8,2.77-2.91,4.42-4.74,7.38-6.19,1.89-.93,5.28-2.59,7.5-1s1.93,5.3,1.89,5.73c-.19,2.52-1.45,4.58-7.4,10.55-3.4,3.41-6.17,5.94-7.67,7.3-3.29,3-4.11,3.62-10.49,9.26a130.51,130.51,0,0,0-9.32,9.2c-3,3.27-3.07,3.69-2.95,3.91.54,1,4.69-1.56,10.8-4.79,2.7-1.43,5.91-2.81,9.22-4.71,2.65-1.53,3.93-3.42,7.91-6.59a49,49,0,0,1,8.24-5.14c5.86-2.92,7.52-2.3,8.15-2a5.11,5.11,0,0,1,2.74,4c.19,2.65-2.31,4.79-5.36,7.18-9.23,7.26-12.61,8.35-19.33,13.83-3.45,2.82-3.53,3.33-7.92,6.83s-6.26,4.52-6,5.39c.46,1.71,8,1.81,14.86,0,5.85-1.57,7.37-3.55,13.28-4.06,1.35-.12,7.79-.69,8.68,1.74.12.33.37,1.35-1.34,3.58-2.87,3.72-7,5.34-13.72,7.12-7.14,1.89-7.7,1.44-14.25,3.39-4.12,1.23-7.25,2.4-10.45,4.9a40.54,40.54,0,0,0-4.11,4,82.32,82.32,0,0,1-10.29,8.52c-12,8.87-15.46,7.53-21.84,14.69-1.7,1.9-.87,1.34-5.46,7.55-5.87,8-10.51,13.3-13.16,16.42-8.23,9.69-7.41,9.82-21.48,27.52-14.21,17.87-12.37,14.38-20.43,25,0,0-10.19,13.47-19.43,24.14-5,5.72-7.22,7.84-10.23,9.73-2.63,1.65-4.23,2.13-6.53,4.46-3,3-3.1,5.09-5.51,6.34-.57.29-2.88,1.37-7.91-.33-6.24-2.11-10.14-6.3-13.1-9.39-11.66-12.2-9.52-8.31-17.16-17-5.2-5.87-8.56-10.36-15.06-19.11-8.81-11.83-13.26-17.7-14.67-20.58-2.17-4.46-4.33-13.49-8.67-31.56-2.13-8.88-3.25-14.21-3.66-16.18-2.13-10.28-2.09-11.83-3.73-20.17C1627.79,742.8,1624.49,736,1627.22,733.93Z"/><path class="cls-5" d="M1708.18,845.36a.57.57,0,0,1,0,.31c-.58,1.67-7.57,2.64-7.69,3.1-.84,2.24-3.88,2.9-8.66,3.65-6.81,1.13-7.6,2.62-14.89,3.74-4.28.7-3.55.92-9.51,1.63l-1.76.2c-3,.25-6.69,1.88-7.17.76-.36-.63-.74-6.79-.62-7.66.12-2.74.12-2.74-4.27-8.6-3.5-7.67-4.54-7.1-4.66-9.34,0-.12-.36-.76-.71-1.63v26.32a21.43,21.43,0,0,1-10.64,18.71,203.85,203.85,0,0,0-1,40.54c.48,6.33,2.23,15.85,4.35,26.32.83,4,.33.31,1.23,4.49-49,26-101.69,86-159,91,0-.43-3.64-57-3.61-57.45.06-1,.13-2.08.21-3.17,1.88-24.18,9-62.68,9-62.68l.48-40.05a21.36,21.36,0,0,1-9-17.58V827.53h-1c.6,3.62-1.08,10.11-.84,26.57,0,2.24.12,4,.12,5.24,0,0-7.77-.75-16-2-1.8-.25-.24-.13-8-1.38-6.21-1-9.32-1.49-12.79-3.24-2.39-1.25-3.82-2-4.54-3.62-1.07-2.11,0-3.49,1-8.35.24-1.37,1-11.47,1.07-13.23v-.12l4.08-29,6.08-43.29c0-10.35,9-18.83,18.76-20.58a105.63,105.63,0,0,1,22.11-4.12c2.92-.29,5.81-.46,8.55-.5,2,0,3.88,0,5.67,0a12.17,12.17,0,0,1,4-5.62l9.44-15.34,5.26,3.62-3.35,5.36c11.12-4.24,27.13-7,45.06-7,20.67,0,38.84,3.62,49.83,9.11l-4.18-6.61,5.26-3.62,12.43,20.09c3.34,0,6.93.12,10.63.49a102.71,102.71,0,0,1,21.52,3.87c9.8,1.37,17.56,10.35,17.56,21.08,2.51,23.7,21.62,44.69,24.13,68.39,1.2,1.74.92,4.13,3.36,11.78C1706.12,837.63,1707.94,843.11,1708.18,845.36Z"/><g id="kvinde"><rect class="cls-5" x="1518.04" y="678.41" width="98.83" height="48.16"/><ellipse class="cls-6" cx="1568.59" cy="695.5" rx="49.48" ry="16.49"/><path class="cls-4" d="M1443.46,530c8.49-.36,16,10.52,17.33,24.86a2.36,2.36,0,0,1,1-.48c2.51,0,4.54,7.89,4.54,17.69a56.08,56.08,0,0,1-1.2,12.07c4.18,12,3.47,22.59-2,25.1-6.45,2.86-17-6.34-23.66-20.56a77.19,77.19,0,0,1-3.23-8.61c-4.18-4.9-7.05-12.66-7.53-21.75C1428,543,1434.62,530.34,1443.46,530Z"/><ellipse class="cls-7" cx="1453.02" cy="571.81" rx="7.41" ry="18.52" transform="matrix(0.99, -0.17, 0.17, 0.99, -76.7, 258.44)"/><path class="cls-5" d="M1458.76,585.43c-.6,2.75-1.79,4.54-3.35,4.78-3.34.48-7.29-6.57-8.72-16s0-17.45,3.34-17.93c1.8-.24,3.83,1.79,5.62,5.26a.91.91,0,0,1,.48-.24,2.22,2.22,0,0,1,.84.24c-2.16-5.14-5-8.25-7.65-7.89-4.07.6-6,9.8-4.31,20.56s6.46,18.88,10.52,18.16c2-.35,3.47-2.74,4.3-6.45C1459.48,586,1459.12,585.79,1458.76,585.43Z"/><path class="cls-5" d="M1455.41,550.77c-7.41-7.17-11.23-10.63-11.59-10.39s3.23,4.78,10.87,13.5"/><path class="cls-4" d="M1678.9,572.24a162.51,162.51,0,0,0-4.67-38.6c-6.33-66.45-50.67-118-104.45-118-56.88,0-103.13,57.61-105.17,129.55a167.5,167.5,0,0,0-2.27,27,156.62,156.62,0,0,0,6.22,44.22c0,.72-.12,1.44-.12,2.15,0,20.44,11.35,39.08,29.88,52.47a111.22,111.22,0,0,0,28.08,22.47C1533,703.7,1550.3,711,1570.62,711s37.65-7.29,44.22-17.44a109.16,109.16,0,0,0,28.08-22.47c18.41-13.39,29.88-32,29.88-52.47a13,13,0,0,0-.12-2.15A161.72,161.72,0,0,0,1678.9,572.24Z"/><path d="M1516,534.4c-2.86-2-10.15.12-16.25,1.91-4.54,1.32-7.65,2.51-10.88,4.78-2.27,1.44-3.94,3.11-5.49,4.07a7.51,7.51,0,0,1-3.23.48,13.24,13.24,0,0,1,2.39,2.27c.24.71-1.19.59-2.15.59a9.58,9.58,0,0,1-4.54-1.07s1.79,5.85,5.38,9.56a20.79,20.79,0,0,0,8.24,5.62,29,29,0,0,0,4.78,1.07C1504.89,564.4,1522.34,539.06,1516,534.4Z"/><path class="cls-8" d="M1517,534.28c-1.55,0-4.54-.24-6-.12-15,1.56-25.93,10-25.93,21.51h.12l3.47,3.35,3.46,3.47v-.12a5.39,5.39,0,0,0,3.35,1.07H1537l1.91-.12,2.87-1.91a9.17,9.17,0,0,0,1.91-1.79l3.11-4.06c0-10.4-8.49-18.65-20.92-21.28C1523.29,533.92,1520.07,534.28,1517,534.28Z"/><circle class="cls-9" cx="1516.96" cy="548.98" r="14.1"/><circle class="cls-10" cx="1516.96" cy="548.98" r="12.91"/><circle class="cls-11" cx="1516.96" cy="548.98" r="6.81"/><circle class="cls-12" cx="1514.45" cy="543.25" r="2.99"/><path d="M1628.82,536.91c2.87-2,10.16.12,16.25,1.91,4.55,1.32,7.65,2.51,10.88,4.78,2.27,1.44,3.94,3.11,5.5,4.07a7.61,7.61,0,0,0,3.22.48,13.24,13.24,0,0,0-2.39,2.27c-.24.71,1.2.59,2.15.59a9.59,9.59,0,0,0,4.55-1.07s-1.8,5.85-5.38,9.56a20.79,20.79,0,0,1-8.25,5.62,28.77,28.77,0,0,1-4.78,1.07C1639.94,566.91,1622.49,541.57,1628.82,536.91Z"/><path class="cls-8" d="M1627.86,536.79c1.56,0,4.55-.24,6-.12,15.06,1.56,25.93,10,25.93,21.51h-.12l-3.46,3.35-3.47,3.47v-.12a5.36,5.36,0,0,1-3.34,1.07h-41.59l-1.92-.12-2.86-1.91a9,9,0,0,1-1.92-1.79l-3.1-4.07c0-10.39,8.48-18.64,20.91-21.27C1621.65,536.43,1624.88,536.79,1627.86,536.79Z"/><circle class="cls-9" cx="1627.98" cy="551.37" r="14.1"/><circle class="cls-10" cx="1627.98" cy="551.37" r="12.91"/><circle class="cls-11" cx="1627.98" cy="551.37" r="6.81"/><circle class="cls-12" cx="1630.49" cy="545.76" r="2.99"/><path class="cls-5" d="M1548,520.18c.84,2,.84,5-.71,6-1.68,1.19-4.43.71-8.85-1-1.79-.6-5.74-.84-12.79-3.47-9.68-3.46-13.86-4.9-17.33-4.9a43.91,43.91,0,0,0-14.22,2.63c-8,3.11-10.63,11.48-12,10.52-.83-.6.48-3.94,1.68-6a17.69,17.69,0,0,1,6.33-6c7.41-4.54,12.79-6.1,13.86-6.34,3-.47,9.32,0,18.17.36,7.17.24,12.79.72,19,3C1544.45,516.36,1547,517.67,1548,520.18Z"/><path class="cls-5" d="M1597.75,522.93c-.84,2-.84,4.9.72,6s4.42.72,8.84-.95c1.79-.6,5.74-.84,12.79-3.47,9.68-3.46,13.61-7.58,17.07-7.58,5.5.12,7.18.56,11,2,8,3.11,14.11,14.78,15.43,13.83.83-.6-.48-4-1.67-6-1.68-2.75-1.37-4.42-3.76-5.85-4.42-9.88-16-10-17-11-3-.48-8,3-17.61,4.9-7.17.24-12.78.72-19,3C1601.21,519.1,1598.7,520.42,1597.75,522.93Z"/><path class="cls-5" d="M1584.48,566.07c.12,1.68.24,3.95.48,6.58.36,6,.48,6.69.72,7.88a69.32,69.32,0,0,0,2.27,7.65c.84,2.27,1.55,4.3,2,5.62"/><path class="cls-5" d="M1597.15,607.18a9.19,9.19,0,0,0-1.19-2.39h-1.2a1.71,1.71,0,0,1,.24.72c.12.48,1.67,3.23,1.43,6-.24,2.51-.47,4.78-2.27,6.33-2.27,1.79-6.81.24-7.53,0a24.68,24.68,0,0,1-3.94-1.91c-1.67-1-1.91-1.44-2.63-1.32-1.19.24-1.31,1.68-3.11,4.07a11.32,11.32,0,0,1-3,2.51,7.8,7.8,0,0,1-4.78,1.43,6.19,6.19,0,0,1-4.07-1.19c-1.43-1.08-1.43-1.56-3.58-4.43a5,5,0,0,0-2.87-1.91c-1.32-.36-1.56.12-3.83,1-1.43.48-4.42,1.67-6.45.59a7.19,7.19,0,0,1-3.35-4.78c-.12-1.91,1-3.82,1.44-5.49.24-.72.48-1.32.72-1.92H1546a16,16,0,0,0-1.67,3.71,10.51,10.51,0,0,0-.6,5.14c.12.48.72,3.34,3.11,4.54s4.78.36,6.45-.12c2.51-.72,3.23-1.79,4.78-1.43.84.24,1.55,1,2.75,2.39,2.39,2.86,2.39,3.22,3.94,4.3a7.89,7.89,0,0,0,4.31,1.19,10.25,10.25,0,0,0,5.49-1.19,14.09,14.09,0,0,0,3.35-2.63c2-2.39,2.15-3.82,3.47-4.06.71-.12,1.07.35,2.86,1.31a26.82,26.82,0,0,0,4.31,1.91c.71.24,4.18,1.08,6.57-.71,2-1.56,2.27-4.07,2.63-6.58A14.47,14.47,0,0,0,1597.15,607.18Z"/><path class="cls-11" d="M1489.47,537.51a22.74,22.74,0,0,1,5-2.63,17.39,17.39,0,0,1,4.07-1.31,41.06,41.06,0,0,1,4.89-.72c4.55-.48,3.83-.6,5.38-.72,1.32-.12,1.32,0,7.17.36a31.63,31.63,0,0,1,5,.36c1.91.24,3.59.6,4.66.83"/><path class="cls-11" d="M1655.71,540a22.52,22.52,0,0,0-5-2.63,17.84,17.84,0,0,0-4.06-1.32,44.18,44.18,0,0,0-4.9-.71c-4.54-.48-3.83-.6-5.38-.72-1.31-.12-1.31,0-7.17.36a31.63,31.63,0,0,0-5,.36c-1.91.24-3.59.6-4.66.83"/><path class="cls-11" d="M1673.16,613.52a16.67,16.67,0,0,1-1.43,4.3,13.7,13.7,0,0,1-1.56,2.75,21.82,21.82,0,0,1-2.51,2.63c-2.39,2.39-1.91,2.15-2.75,2.87a46.5,46.5,0,0,1-4.42,2.86c-1.91,1.2-2.27,1.44-3.11,1.92-1.31.59-2.51,1.07-3.22,1.31"/><path class="cls-11" d="M1468.68,614.83a16.16,16.16,0,0,0,1.43,4.3,13.43,13.43,0,0,0,1.56,2.75,20.79,20.79,0,0,0,2.5,2.63c2.4,2.39,1.92,2.15,2.75,2.87a45.51,45.51,0,0,0,4.43,2.87c1.91,1.19,2.27,1.43,3.1,1.91,1.32.6,2.51,1.08,3.23,1.32"/><path class="cls-13" d="M1605.77,804.46H1525.5a2.45,2.45,0,0,0-2.47,2.47v27.43a2.45,2.45,0,0,0,2.47,2.47h80.27a2.45,2.45,0,0,0,2.47-2.47V806.93A2.54,2.54,0,0,0,1605.77,804.46Z"/><polygon class="cls-13" points="1546.26 836.83 1540.74 836.83 1535.37 836.83 1535.37 844.82 1546.26 836.83"/><path class="cls-14" d="M1541.32,818.69l-1.88-.58a2.06,2.06,0,1,1,1.3-3.92l1.89.58a1.29,1.29,0,0,1,.87.58l1.16-2.47-2.18-1.16-2.17-.44a4.48,4.48,0,0,0-5.37,3.2l-.15.58a4.48,4.48,0,0,0,3.2,5.37l2.75.72,1.31-2.75C1541.76,818.83,1541.61,818.83,1541.32,818.69Z"/><path class="cls-14" d="M1538.42,820.72l1.89.72a2.27,2.27,0,0,1,1.3,2.62,2.33,2.33,0,0,1-2.61,1.3l-1.89-.72a5.41,5.41,0,0,1-1.45-1l-1.88,2.61,1.45,1,1.3.87,1.31.44,1,.14c2.32.73,5.51-1.45,6.09-3.77l.15-.58a4.5,4.5,0,0,0-3-5.52l-2.76-.72-1.31,2.61Z"/><rect class="cls-14" x="1548" y="811.72" width="3.77" height="16.55"/><rect class="cls-14" x="1560.48" y="811.72" width="3.77" height="16.55"/><rect class="cls-14" x="1584.15" y="811.72" width="3.77" height="16.55"/><polygon class="cls-14" points="1575.15 813.17 1574.13 815.93 1569.63 828.27 1566 828.27 1572.1 812.01 1573.98 812.73 1575.15 813.17"/><polygon class="cls-15" points="1582.26 828.27 1578.78 828.27 1574.13 815.93 1573.11 813.02 1573.98 812.73 1576.16 811.86 1582.26 828.27"/><rect class="cls-14" x="1572.1" y="811.72" width="4.21" height="1.89"/><rect class="cls-14" x="1570.65" y="822.17" width="7.98" height="3.05"/><polygon class="cls-14" points="1563.53 825.8 1560.63 828.41 1551.19 816.36 1549.02 813.61 1549.89 813.02 1551.78 811.72 1563.53 825.8"/><polygon class="cls-14" points="1598.52 828.27 1589.66 817.52 1587.05 819.7 1594.16 828.27 1598.52 828.27"/><polygon class="cls-14" points="1593.73 811.72 1587.05 819.85 1589.52 821.88 1597.79 811.86 1597.5 811.72 1593.73 811.72"/><path class="cls-16" d="M1605.77,772.23h-95.08a2.45,2.45,0,0,0-2.46,2.47v27.44a2.45,2.45,0,0,0,2.46,2.47h95.08a2.45,2.45,0,0,0,2.47-2.47V774.7A2.45,2.45,0,0,0,1605.77,772.23Z"/><polygon class="cls-16" points="1527.24 804.61 1521.87 804.46 1516.36 804.46 1516.36 812.44 1527.24 804.61"/><path class="cls-17" d="M1521.87,780.65c0,5.37.15,10.75.15,16.12v.14"/><polyline class="cls-17" points="1528.4 780.36 1521.58 780.36 1521.58 796.91 1525.65 796.91 1525.65 791.25 1530 791.25"/><polyline class="cls-17" points="1527.82 788.06 1525.5 788.06 1525.5 783.41 1527.97 783.41"/><rect class="cls-18" x="1521.58" y="780.36" width="4.06" height="16.55"/><rect class="cls-18" x="1551.05" y="780.36" width="4.06" height="16.55"/><rect class="cls-18" x="1591.26" y="780.36" width="4.06" height="16.55"/><rect class="cls-18" x="1587.51" y="780.35" width="11.47" height="3.34"/><polygon class="cls-18" points="1557.44 780.36 1557.44 781.09 1563.53 794.73 1567.31 792.99 1561.65 780.36 1557.44 780.36"/><polygon class="cls-18" points="1574.71 780.36 1574.71 780.65 1568.76 794.15 1565.13 792.27 1570.07 780.36 1574.71 780.36"/><polygon class="cls-18" points="1562.66 792.85 1569.05 792.99 1567.45 796.91 1564.4 796.91 1562.66 792.85"/><polygon class="cls-18" points="1581.24 781.96 1580.37 784.57 1575.73 796.91 1572.24 796.91 1578.19 780.8 1580.08 781.38 1581.24 781.96"/><polygon class="cls-18" points="1588.5 796.91 1584.87 796.91 1580.37 784.57 1579.21 781.67 1580.08 781.38 1582.4 780.65 1588.5 796.91"/><rect class="cls-18" x="1578.19" y="780.36" width="4.21" height="1.89"/><rect class="cls-18" x="1576.74" y="790.82" width="7.98" height="3.05"/><path class="cls-18" d="M1528.84,780.36h-2.32a4.59,4.59,0,0,0-4.65,4.65v1.45a4.59,4.59,0,0,0,4.65,4.65h2.32a4.59,4.59,0,0,0,4.64-4.65V785A4.59,4.59,0,0,0,1528.84,780.36Zm.58,5.37a2.23,2.23,0,0,1-2.18,2.18h-1.45v-4.5h1.45a2.27,2.27,0,0,1,2.18,2.32Z"/><rect class="cls-18" x="1535.81" y="780.36" width="4.06" height="16.55"/><path class="cls-18" d="M1542.78,780.36h-2.33a4.59,4.59,0,0,0-4.64,4.65v.87a4.58,4.58,0,0,0,4.64,4.64h2.33a4.58,4.58,0,0,0,4.64-4.64V785A4.59,4.59,0,0,0,1542.78,780.36Zm1.16,5.37a2.23,2.23,0,0,1-2.18,2.18h-1.45v-4.5h1.45a2.27,2.27,0,0,1,2.18,2.32Z"/><path class="cls-18" d="M1542.63,787.77a1.9,1.9,0,0,1-.87.14h-1.45v-3.19l-3.2,2.32,7,10h4.65l.29-.15Z"/><path class="cls-19" d="M1445.49,528.67c-3.22-5.38-6.69-11.24-8.6-18.53a48,48,0,0,1-1.32-16.37,74.7,74.7,0,0,1,4.78-20.2c2.63-6.81,4.19-8.13,3.83-12.07-.48-4.9-3.35-7.17-2.15-11.11.83-2.87,2.63-2.51,4.3-5.62,2.63-4.9-.84-7.77.48-15.42.36-2.63,1.19-7.77,5.14-11.11a38,38,0,0,1,8.12-4.78c2.27-.48,5-1.56,6-3.83,1.55-3.7-3-6.93-1.67-11.59.95-3.47,4.66-5.62,6.93-6.93a56.38,56.38,0,0,1,7.76-3c1.68-.6,6.94-2.27,5.14-1.67-1.91-5.5-1.07-11.47,2.63-15.42,5-5.62,13.87-5.85,14.58-4.3.48,1-1.67,3.35-2.63,3-1.19-.36-.71-5.5,0-8.61.72-3.34,1.2-5.5,3-6.93.6-.48,1.79-1.19,9.44-.84,3.35.12,6.46.48,9.44.84,7.29.84,7.29,1.2,8.13.84,5.5-2.39,2.63-15.06,7.77-16.73,2.15-.72,4.78.83,5.62,1.31,3.58,2.15,3.22,5.14,5.14,5.62,3.94.83,7.88-12.19,12.9-11.6,1.68.12,2.87,1.68,4.78,3.83,3,3.58,2.39,5.38,3.83,6,3.7,1.56,8-8.72,15.89-8.6a20.54,20.54,0,0,1,7.29,1.67c3.59,1.44,3.83,2.63,5.62,2.63,3.35-.24,4.9-3.1,8.13-6.93,2-2.39,7.64-3.35,10.15-1.91,3.23,2,1.68,7.89,3.59,7.89,2.27,0,3.23-7.53,6.33-7.89,1.8-.24,6,1.55,7.29,2.87,2.39,2.27-.83,5.61,1,7.17,1.43,1.19,4.54,5.73,7.29,1.67,4.66-6.93,3.11-4.54,4.06-5.86s9.09-9.91,10.4,1.68c.36,2.75,0,7.65-1,8.24-1.55,1.08-6.09-1.79-1.91,3.59,1.79,2.27,3.11,3.94,5.62,4.78,0,0,1.55.48,8.13,0,3.82-1,6.93-1.91,9-2.63,2.75-1,3.82-1.43,5.62-1.31,2.86.12,4.9,1.55,6.93,3,2.39,1.68,4.9,3.47,5.61,6.46.6,2.39-.35,4.3.48,4.78,1.08.59,2.87-2.51,5.14-2.15,1.79.35,2.87,2.74,3.83,4.78,1.43,3.1,1,4.54,2.15,5.14,1.67.83,3.22-1.8,6.93-2.63,4.18-.84,8.6,1.19,11.11,3.82a9.68,9.68,0,0,1,3,5.14c.6,3-1,4.42,0,5.62,1.32,1.67,4.9-.84,10.28,0,1,.12,6.81,1.19,8.6,5.14.24.47,0,.12.48,6.93,0,0,.12,1.67.72,6,0,.24,0,.36.12.48.72,2.15,4.42,2.75,6.45,3,4.54.6,5.14-.48,7.77.48a9.11,9.11,0,0,1,4.78,3.82c1.79,3.23-.48,5.14.84,8.13,1.67,3.82,6.21,2.51,9,6.93a9.83,9.83,0,0,1,.84,8.6c-1.92,4.43-6.94,5.38-7.77,5.62a12,12,0,0,1-9.92-2.63c-2.51-2.15-1.91-3.82-4.3-5.14-2.63-1.55-4,.12-8.13-.83-4.78-1.08-6.45-4-8.13-3-1.31.72-1.79,3.22-.83,4.78,1.19,1.91,3.7.84,5.61,2.63,2.75,2.63-.47,7.65,1.68,9.44,2.39,2,7.76-3.11,11.11-.84,2.51,1.68,1,5.14,3.47,6.93,3,2,6.69-2.27,10.75-.47,3.23,1.43,4.42,6,5.14,8.6,1.56,5.86-.48,8.25,1.68,10.76s4.78.83,6.93,3.46c1.91,2.27.36,4.3,1.67,8.13,1.43,4.18,3.94,3.82,7.29,8.6,1.31,1.92,5,7.17,3.82,12.43s-6.09,5.86-6,9.92c.12,3.59,3.94,4.07,6.45,10.28,1,2.39,2.39,5.74.84,8.13-1.91,3.22-8.37,3.82-12.07,1.31-2.51-1.79-3.59-5-5.62-11.59-1.19-3.94-.84-4.18-1.67-5.14-3-3.7-8.25-1.55-11.12-5.14-2.27-2.75-1.19-6.45-1.67-6.45-.84,0-4.3,8.6-.84,15.41,1.68,3.47,3.35,3,5.62,6.94.6,1,4.18,7.29,2.15,13.26s-7.89,6-8.6,11.12c-.24,1.43,1,4.42,3.46,10.27,3.11,7.41,3.71,8,3.47,9.92-.72,4.66-5.62,4.66-6.93,9.44-1.56,5.62,4.3,9.33,2.15,13.75-1.2,2.51-3.11,1.55-6.45,5.14a20.61,20.61,0,0,0-4.79,9.44c-1.19,6.09,1.56,7.53-.47,11.11-1.44,2.51-3.11,2.51-6,6.93a26.16,26.16,0,0,0-2.15,3.83c-2.15,4.9-.72,7-2.63,9s-5.26,2.15-7.77,1.32c-4.06-1.44-5.85-6.1-5.61-9.44.35-5.5,6-7.77,5.13-9.45-1.07-2.15-12.9-1.67-17.56,5.14-4.19,6.1,0,13.39-4.31,16.38-3.58,2.51-8.72-1.2-11.11,1.67-1.31,1.55-.12,2.75-.84,7.29-.47,2.63-1.07,6.33-3.82,9-2.15,2-6.45,4.19-10.28,2.63a9.17,9.17,0,0,1-5.14-6.93c-.36-2.63.84-3.59,0-5.62-1.19-2.63-3.94-2-5.14-4.3-1.91-3.35,2.39-7.77.84-9.44s-6.21,2.15-8.6.48c-2.87-2-.6-10,1.67-18,2.15-7.65.48-9,2.15-15.77,2-8.25,5.38-10.88,5.14-13-.6-5-2.75-6.45-3-10.76-.24-5.14,4.54-6.69,3.83-11.11,0-.24-.48-1.08-1-2.27-.72-1.56-1.44-2.63-1.55-2.87-1.44-2.27-3-9.08,0-13.74,1.91-2.87-4-2.27-3.35-4.43.72-3.1,2.39-4.42.36-9.8-1.68-4.54,1.19-8.12-.84-9.91-1.79-1.56-4.06.83-7.77-.48-3.94-1.44-5.49-5.74-6-6.93-.36-1-2.27-5.86,0-9.45,1.67-2.62-3.83,3.71,1.31-1.19.48-.36-1.43,2.39-5.61,1.43-.72-.12-5.26-1.43-7.29-4.3s1.55-3.46-.24-6-6.1,3.58-9.21,3c-1.31-.24-5.14-8.72-12.43-6.69s-8.48.6-12.42,0c-4.31-.72-7.29-4.3-9-6.45a14.92,14.92,0,0,1-3.46-6.93,25.8,25.8,0,0,1,0-4.31c0-1.55-4.54,1.8-6.82-1.55s-3.58-8.37-7.29-9.56c-7.41-2.39-6.81-3.94-11.23-6.1-4.9-2.39-8.48-7.76-9.44-12.9-1.2-6.58.48-5-2.75-5.62-4.66-.84-6.45-1.08-12.67.48-2.51.6-4.3-1.2-15.41-1-12.91.24-12.67,5.86-15.42,5.62-6.45-.72-6.45,4.9-12.55,5.14-5.74.24-2.75.6-5.86,3.11-3.34,2.74-4.78-1.56-7,3.82-1.07,2.75-2.39,10.4-8.72,12.55s.84,8.12-1.44,10.51-5.61-4.9-6.81,4.55c-.12,1.43-1.79,5.37-3.34,8.72-1.8,3.82-1.2,3.82-2.15,6.57-1.92,5.38,1.79,9.8-.6,14-1.32,2.39-4.3,1.31-4.54,3.22-.24,2.51-1.32,1.32.12,5.14,1.55,4.18-1.2,9.56-1.2,9.56a29.83,29.83,0,0,0-1.19,9.68c.23,6,1.07,8.85-.12,12.43-.84,2.63,1.07,9-1.68,9-3.94.11-11-9.21-11.23-9.92-3.35-7.41,1.79-12.31-1.32-20.68C1449,533.33,1448.84,534.28,1445.49,528.67Z"/><path class="cls-20" d="M1475.61,430.43c.6,1.07,3.35-.6,6.93-.24,5.74.6,9,6,10,5.14s-3.11-6-.84-9.68c.36-.48.72-.84,1-1.2,1.79-1.67,4.06-2.15,7.41-2.27,6.45-.24,7.53,1.32,8.84.24,1.91-1.55-.12-4.78,1.08-13.26.36-2.63.83-4.67,2.39-6.46a7.29,7.29,0,0,1,4.3-2.87c3.47-.59,5.62,2.63,7.17,1.68,1.32-.84-.24-3.71,1.44-5.5s4.06.12,6-1.44c2.39-1.91-.24-5.73,2.63-10.27a12.26,12.26,0,0,1,2.75-3,13.4,13.4,0,0,1,5-2.39c4.78-1.32,5.85.72,8.84-.84.6-.36,1-.59,4.42-2.63.24-.12.6-.36,1.32-.71,3.22-1.92,3.58-2,4.9-2.87a21.62,21.62,0,0,0,2.63-1.68,24.16,24.16,0,0,1,3.94-2.15c3.59-1.07,6.22,1.8,7.17.84s-.6-4.9-3.11-5.74c-1.55-.47-2.51.6-6,2-5.26,2.15-5.74.83-8.61,2.62-4.42,2.63-4.54,6.58-7.17,6.58s-3.22-3.35-6.33-3.47c-.48,0-1.79,0-4.54,2.27-6.1,4.9-6,9.2-9.68,10-2,.48-3-.72-5.5.24a6.45,6.45,0,0,0-3.47,2.87c-1.07,2.15.36,3.82-.83,5.5-.48.59-1.2.83-2.63,1.43-4.06,1.55-5.26.72-6.93,2a7.06,7.06,0,0,0-2.27,4.54,16.6,16.6,0,0,0,0,3.47c.12,2.75.24,6.93-1.44,7.77s-3.82-2.15-5.5-1.2c-.83.48-1,1.68-1.19,2.87-.36,2.27.6,3,0,4.3a4.53,4.53,0,0,1-2.87,2.27,5.39,5.39,0,0,1-3.46,0,6.72,6.72,0,0,1-3.71-3.1c-1.55-2.75-.48-5.62,0-7.17s1.08-3.11,2.27-3.71c2.15-1.19,4.07,1.08,6.34,0,1.79-1,2.27-3.35,2.62-4.54.72-3.35-.83-4.66.24-6.33.72-1.08,2-1.44,4.9-2.28,3.11-.95,4.19-.71,4.31-1.19.12-1-5.62-3.71-10.88-2-1.19.36-3.58,1.19-4.3,3.11s.84,3.46,0,4.9c-.72,1.19-2.75,1.31-6.93,1.67-3.23.24-3.59,0-4.31.6-2.51,1.79-2,7.17-2,7.76.12,2,.72,3,0,4.07-.59.83-1.55,1.07-3.1,1.43-2.51.6-3,0-4.55.6a6.88,6.88,0,0,0-4.06,3.46c-.6,1.56-.84,3.95.24,4.9,1.31,1,3-.71,5.14.24a4.2,4.2,0,0,1,2,2.27C1478.36,426.6,1474.77,429.23,1475.61,430.43Z"/><path class="cls-20" d="M1525.44,440.23c-1.55-3.71,5-9.8,12.43-16.73a21.25,21.25,0,0,1,9-5.62c1.91-.48,5.38-1.55,9,0,4.66,1.91,6.57,6.57,6.93,7.29,1.44,3.58.48,5.62,2.63,7.77,1,.95,1.32.6,4.3,2.15,3.35,1.79,5.74,3,6.46,5.14a5.35,5.35,0,0,1-.84,5.14c-2.75,3.1-9.8-.24-17.57-2.15C1538.59,438.44,1527.36,444.65,1525.44,440.23Z"/><path class="cls-20" d="M1622.13,357.89h0c-.48-.6-1-1.32-1.44-1.92a23.1,23.1,0,0,0-6.45-3.46c-2.87-.84-5.38-.12-7.77.48a21.23,21.23,0,0,0-7.29,3.46c-4.18-1.43-5.14-1.31-5.14-1.31-1.07.12-2.63.71-4.3,3H1592a7.76,7.76,0,0,1,3.35-.71,10,10,0,0,1,3.34.59h4.19a4.91,4.91,0,0,1,1.79-.35,10.12,10.12,0,0,1,1.79-.48c.12,0,.36-.12.48-.12a8.36,8.36,0,0,1,4.42-1.2,7,7,0,0,1,2.75.48,7.8,7.8,0,0,1,5,1.79Z"/><path class="cls-20" d="M1646.15,355.61h.12a7.13,7.13,0,0,1,3.23.72,6.34,6.34,0,0,1,2.27,1.32H1655a45.73,45.73,0,0,0-4.78-5.14,15.21,15.21,0,0,0-8.6-2.15,16.12,16.12,0,0,0-10.28,3.46,15,15,0,0,0-3.23,4.07h2.39a6.45,6.45,0,0,1,1.92-1.2,8.19,8.19,0,0,1,4.78-1.79,7.8,7.8,0,0,1,3.82-.84A8.26,8.26,0,0,1,1646.15,355.61Z"/><path class="cls-20" d="M1645.67,397.56c1.32,0,1.56-1.67,3.71-2.87.36-.23,2.75-1.55,4.9-.83,2.39.83,1.91,3.58,4.3,4.9,1.79.95,2.87-.12,8-.6,4.06-.36,6.81-.6,8.6,1.2,1.2,1.07,1.43,2.51,1.67,4.54a19.2,19.2,0,0,1-.59,8.24c-.72,3.11-1.44,4.07-.84,4.9.84,1.08,2.63,0,6,.84a9,9,0,0,1,4.3,2.27c.48.48,1,1.2,1.67,7.17.6,4.18.48,4.9,0,5.74-.84,1.31-1.91.95-3.11,2.63a6.36,6.36,0,0,0-1.43,4.06c0,1.67.72,2.27,1.19,3.7,1.08,4.19-2.74,8.37-2.27,8.61s1.8-2.27,2.27-2,.24,4.42-2.27,6.33c-2.27,1.67-4.9.84-5.14,1.67s1.8,2.4,4.07,2.87c3.46.72,5.38-1.79,7.41-.59,1.31.71,1.67,2.27,2,3.46.12.24,1,4.06-1.2,6.57-1.67,2-3.94,1.92-4.06,2.87s2.75,1.08,4.54,3.47a8.13,8.13,0,0,1,1.2,6c-.48,2.16-1.8,2.75-1.44,3.47.48,1,3.59-.24,8-.84,3-.47,4.78-.83,7-.47,1.91.23,3.35.35,3.83,1.43,1,1.91-3.23,4.54-2.27,7.17.71,2.15,3.7,1.91,4.06,3.7.36,2-2.63,5-5.74,5.74-.12,0-1.55.12-4.3.24-3.23.24-3.94.24-4.54.84-1.08,1.19,0,2.51-.84,3.7-1.07,1.32-3.34.48-8,.24-6.33-.24-7.29,1.08-9.68-.24s-2.74-3.11-5.13-3.7c-1.08-.24-1.08.24-4.9.83-2.39.36-2.16.12-4.9.6-1.08.12-2.28.84-3.47.36a.37.37,0,0,1-.24-.12c-1.31-.72-1.43-2.63-1.67-4.54-.48-3.83.48-5.26-.6-6.34a4.15,4.15,0,0,0-3.7-.59c-1.32.36-1.68,1.31-2.28,1.19s-.59-1.55-1.43-4.3a7.66,7.66,0,0,0-1.19-2.87c-.48-.48-1.32-1.19-6-1.67-3.7-.36-4.42-.12-5.14-.84s-.48-1.19-.84-5.14c-.35-3.7-.59-4.18-.83-4.54-1.2-1.55-3.47-1.67-5.5-1.67s-3,.24-5.5.6c-1,.12-1.19.12-8,0a37.25,37.25,0,0,1-8.25-.6c-3-.6-3.59-1.2-4.06-1.67-.72-1.08-.36-2-.24-5.74.12-5.26-.48-6.1-.84-6.57a5.29,5.29,0,0,0-3.7-1.2c-2,.12-2.39,1.08-4.9,2a17.43,17.43,0,0,1-6.94.6,27.71,27.71,0,0,1-4.9-.84c-3.94-1.19-5.49-3.22-6.33-2.63s0,3,.24,3.71a8.28,8.28,0,0,0,3.47,4.54c2.15,1.31,4.3,1.2,6.57,1.2,3.82-.12,4.9-1.32,6.57-.6s1.2,2.15,3.11,5.14a11.19,11.19,0,0,0,2.87,3.46c2.63,1.68,4.78.12,6.33,1.68,1.32,1.43.12,3.22,1.44,4.3.71.6,1.43.36,5.49,0,4.3-.48,4.78-.36,5.14,0,1.08,1.19-.6,3.34-.24,6.93.12,1.31.36,3.94,2.27,5.5,1.32,1.07,2.75,1.07,4.54,1.19,4.19.12,5.62-1.31,8.85-1.43,2.51-.12,4.3.6,7.17,1.67,4.78,1.91,6.93,3.83,13.74,8.61,10.16,7.05,11.48,7.05,14,10.63,2.74,3.71,2,4.78,4.9,7.41,4.54,4.3,8.6,3.59,10,7.17s-1.67,6.81-.23,8,4.66-.72,6.33-2.27a8,8,0,0,0,2-2.87,4.89,4.89,0,0,0,.48-2c.24-3.23-2.39-4.3-2-6.57.36-2,3-3.23,3.46-3.47,1.92-.84,2.51-.12,3.71-.84,2.15-1.43.6-4.54,2.63-6.57,1.31-1.43,2.51-.48,7.77-2,2.86-.84,4.18-1.2,5.49-2.27,2.15-1.91,2.63-4.54,3.11-7.17.36-2.15.72-3.71,0-5.5-.84-2-2.51-2.51-4.06-3.7-5.62-4.67-1.92-14.23-6.34-16.38-2.15-1-3.82.72-5.14-.6s-.24-3.22,0-8.84c.12-4.9-.59-4.9,0-7.77.72-3.46,2.27-5,1.44-6.33s-2.87-.24-4.54-1.67a5.81,5.81,0,0,1-1.2-5.74c.84-2.27,2.51-2,4.3-4.9a7.35,7.35,0,0,0,1.44-5.74,5.83,5.83,0,0,0-2.63-3.7c-1.67-1.08-2.51-.24-3.71-1.2-2.27-1.67-1.79-5.85-1.67-6.93.24-2.63,1.08-2.87,1.2-5.14,0-.83,0-4.18-2-5.73s-4.18.35-6.33-1.2c-1.31-1-1.67-2.75-2.27-6.33s-.12-4.54-1.2-6-2.63-2.15-4.9-2.87a15.28,15.28,0,0,0-8.6-.83c-3.35.71-4.18,2.39-6.33,1.67-1.2-.36-1.2-1-3.11-2.63s-4-3.23-6.34-3.11c-2,0-2,1.32-5.73,2.63-2.51.84-3.71.6-4.07,1.44C1642.33,395.29,1644.12,397.56,1645.67,397.56Z"/><path class="cls-20" d="M1685.83,457.56c0,.47,5-.12,6.69,2.63s-2,6.69-.48,9,5.62-.36,11,1.91c.83.36,5.73,2.51,6.69,6.45,1.19,5-4.66,8.73-3,13.15.84,2,2.51,3.47,3.23,3.23,1.31-.6-1.79-7.53.48-9.2,1.55-1.2,3.7,1.43,7.88,1.07,3.35-.24,7.17-2.39,7.29-4.78.12-1.67-1.67-3.11-3.82-4.78-5.14-3.82-7.53-2.75-9.68-5.62-2.51-3.34-.72-7.17-2.75-8.12s-4.18,2.75-7.53,2.15-3.11-4.42-7.29-6.69C1690.37,455.88,1685.83,457.2,1685.83,457.56Z"/><path class="cls-20" d="M1692.4,549.46c-.72-1,1.08-4.42,4.18-5.74a7.56,7.56,0,0,1,6.34.48,8.77,8.77,0,0,1,4.18,4.78c.84,2.39-.12,3.59,1,5a5.13,5.13,0,0,0,3.7,1.67c.84.12,2.63.24,3.59-.71,1.31-1.32,0-3.11,1.19-4.54s4.18-1.2,5.86-1,4.3.6,5.85,2.63c1.2,1.55.48,2.39,1.56,6,1,3,1.43,4.9,3,5.86,2.28,1.43,4.07-.72,8.49.12a14,14,0,0,1,6.57,3.35c2.27,2.15,1.8,3.22,4.31,5.49s4.3,2.39,4.42,3.71c.12,1.79-2.87,2.51-2.75,4.06.24,2,6.33,1.68,7.05,4.19.48,1.91-2.51,5.25-4.54,4.9-2.27-.48-1.44-5.38-5.62-12.31a31.3,31.3,0,0,0-5.5-6.46,15.48,15.48,0,0,0-7.17-3.7,3.84,3.84,0,0,0-2.63.12c-1.19.83-.71,3-.12,7.29,1,7.41.6,8,.24,8.12-1.55,1-6.33-3.94-6.93-4.42-3.7-3.7-3.58-5.73-6-6.45-2.87-.84-4.43,1.55-6.58.24-1.67-1-2.27-3.23-2.75-4.78-.47-1.92-.11-2.15-.71-3.83a6.79,6.79,0,0,0-2.75-4.06c-1.55-.84-2.27.12-5-.48-1.32-.24-3.59-.72-4.42-2.27-.6-1.19.24-1.79-.12-4.06-.12-.48-.6-3.59-2.15-4.07-1-.24-1.44.72-3.59,1C1693.6,549.82,1692.76,549.94,1692.4,549.46Z"/><path class="cls-20" d="M1687.62,537.27c2.27-2.51,1.08-1.31,1-2s6.69-3.35,9-1c.6.6.84,2,1.19,5,.48,3.59.12,4.18.84,5.5a7.07,7.07,0,0,0,3.83,2.87c2.39.71,3.34-.36,4.78.59s2.15,3.47,1.31,4.55c-1.43,1.79-6.69-1.2-8,.59-.59.84.48,1.8.12,4.19-.12.59-.48,3.34-2.39,4.18-1.55.72-3.46-.12-4.54-1-1.79-1.43-1.67-3.34-3-3.58-1.07-.12-2,1.07-2.15,1.19-1.19,1.44-.72,3.71,0,5,1.08,2,2.39,1.8,3.35,3.59a6.17,6.17,0,0,1-.72,6.21c-1.55,1.68-3.35.72-6.33,2.87-1.56,1.2-1.8,2-2.39,1.91-1.08-.24-1-3.46-1.44-8.12-.36-3.47-.59-3.35-1.19-8.13-.72-5.5-.6-6.57-.12-7.77.72-1.91,1.55-2.27,3.11-4.78,2.86-4.54,3.22-5.5,3-6.45-.36-2-2.15-2.39-2-3.47C1685,536.43,1682.36,543.13,1687.62,537.27Z"/><circle class="cls-20" cx="1687.14" cy="535.48" r="3.82"/><path class="cls-20" d="M1725.12,437.78c-.45,1.21,1.61,2,1.72,4.15.11,2.36-1.88,3.13-1.47,4.81.41,1.5,2.32,2.43,3.93,2.43s1.88-1.35,3.64-1.69c2.18-.44,4.88,1.21,6,3.35.66,1.24.63,2.51.57,4.88-.09,3.31-.9,4.19-.18,5,1.07,1.14,4.08.49,5.9-.45,2.23-1,2.44-2.14,3.71-2.12,2,.08,3.59,2.62,4.33,3.94s2.49,4.37,1.52,7.21c-1,3.26-4.31,3.5-4.28,5.95a3.89,3.89,0,0,0,2.44,3.35c2.15.83,3.74-1.44,5.64-.69s2.88,3.76,2.32,6.16c-.93,3.68-5.87,4.67-5.47,6,.2.66,1.46.52,5,1.28s5.13,1.12,6,2.26c1.61,1.95.38,4.55,1.33,4.93s2.22-3.15,6.1-5.12c2.9-1.4,4.13-.44,5.83-2a7.18,7.18,0,0,0,1.55-8.45,7.42,7.42,0,0,0-8.22-3.76c-1.92.52-2.6,2.16-4,1.88a3.77,3.77,0,0,1-2.43-3c-.48-3,3.27-4.3,3.2-7.6a4.64,4.64,0,0,0-2.66-4.19c-2.22-.57-4.53,2.5-5.24,1.86-.35-.32.27-1.54,1.16-4.12,1.13-3,1.56-4.56,1.43-5.65-.37-2.44-2.83-4.35-4.9-5.1-2.67-1-3.62.43-5.53-.67-2.35-1.32-1.37-4-3.83-5.74s-4.4-.13-5.92-1.83.3-4.42-1.2-5.78-3.36.66-6.7-.28c-2.32-.65-2.29-1.92-4.69-2.48C1728.83,435.83,1725.56,436.41,1725.12,437.78Z"/><path class="cls-20" d="M1723.83,618.66c-3.23-3.23-9.32-3.35-12.91-.48a10.09,10.09,0,0,0-2.39,3.23c-3,6.09.84,11.11-1.55,13.5s-6.69-1.31-9.2,1.08c-1.79,1.67-.24,4.3-.6,11.83-.24,5.49-1.31,9.08-.84,9.2.72.24,1.44-8.37,7.89-13.27,2.87-2.15,4.54-1.91,7-4.78,2.75-3,1.8-4.18,4.31-7.88,4.18-6.1,9.91-7.41,9.44-10.52C1725,619.85,1724.55,619.37,1723.83,618.66Z"/><path class="cls-21" d="M1479.43,451.82c0,.24-.71,0-2.75.36a34.38,34.38,0,0,0-5,1.31c-5,1.8-6.1,3.11-6.94,2.63-1.07-.83-.59-4.66,1.68-6.45C1470.71,446.32,1479.55,451,1479.43,451.82Z"/><path class="cls-21" d="M1451.11,453c1,1.31,5,.23,7.77-1.68.71-.6,3.46-2.51,3.82-5.61a14,14,0,0,0-.83-5.62h0s-2.63-5-4.31-4.78-.83,4.54-3.46,10.75C1452.3,450.51,1450.39,452.06,1451.11,453Z"/><path class="cls-21" d="M1470,443.22c-.71-.72,1-3,0-3.83s-3.22,1-4.78,0c-1.31-.84-1.55-3.58-.48-5.14,1.68-2.39,6.58-2,9.68-.71a4.51,4.51,0,0,0,.72.35c4.78,1.92,8.61-3.58,12.07-2.15,1.79.72,2.51,3,2.63,4.3a5.87,5.87,0,0,1-3.82,6c-2.51.72-3.47-2-6.94-2.15C1474.41,439.51,1471.07,444.17,1470,443.22Z"/><path class="cls-21" d="M1516.84,417.88c1-.24-.48-7.77,1.67-8.61,1.92-.71,3.71,4.43,8.61,5.14,2.63.36,6-.59,6.93-2.63s-1.43-3.94-.48-5.61c1.2-1.91,4.9-.12,6.45-2.15,1.44-1.8-1-4.31.48-6,1.56-1.91,5.38.36,7.29-1.67,1.56-1.68-.12-3.83,1.32-5.62,1.79-2.15,5.26.24,10.28-.84,4.18-.83,4.3-3,13.26-8.12,5.38-3.11,6.45-3,6.93-2.63,1.2,1.31-4.3,6.81-2.63,9.44,1.2,1.79,4.19,0,7.29,2.15s1.8,5.62,5.14,7.77a8.27,8.27,0,0,0,6.46.84c2.86-.72,3.34-2.75,5.14-2.63,2.15.12,4.06,2.74,4.78,5.14,1.55,5.13-2.75,8.84-.84,11.11,1.31,1.67,4.78,1.79,6.93.48,2.75-1.91,1.79-5.86,3.83-6.46s5,2.75,5.61,3.47c2.39,2.87,2.15,4.9,3.47,5.14,2,.48,6-3.83,5.61-8.13a8.27,8.27,0,0,0-5.61-6.93c-3.71-1.08-6,2-9.92.48a6.26,6.26,0,0,1-3.47-3c-.95-2,.48-3.35-.48-5.14-1.07-2.27-4.54-2.87-5.61-3,0,0-1.2-.23-6.46.48,0,0-.23-7.05-3.82-9.44-2.39-1.55-4.18.12-6.93-1.67-.6-.36-.84-.72-3.47-4.78-3.22-4.9-3.22-5.14-3.82-5.62-3.35-2.39-8.37-.6-9-.48-3.7,1.32-3.46,3.35-6.93,4.3-3.94,1.08-6-1.19-8.12.48s-.84,4.54-3,6c-2.51,1.79-5.5-1.79-10.76-.48a10.81,10.81,0,0,0-5.14,3c-2.86,3.11-3,7.53-3,9-.12,3.59.95,5,0,6-1.68,1.67-5.86-1.32-7.77.47-1.68,1.56.36,4.67-1.32,6,0,0-.71.6-6.45-.48,0,0-4.42-1.91-6-.83C1510.27,403.9,1515.41,418.12,1516.84,417.88Z"/><path class="cls-21" d="M1645.67,346.53c2.87-.24,5-.12,6.46-1.67,1.79-1.91,1.79-5.62.47-6.45s-3,1.67-7.29,3a17.07,17.07,0,0,1-8.6.48c-5.86-1.43-7.29-6.33-10.28-5.62-2.75.72-2.87,5-5.14,5.14s-2.63-3.94-6.45-5.14c-3.23-1.07-6.46.6-6.93.84-3.59,1.91-3.11,4.9-5.62,5.62-3.23.83-5-3.83-10.28-3.83a11.79,11.79,0,0,0-5.61,1.68c-3.23,2-3.11,4.18-6.46,6-1.43.84-3.7,2-5.62,1.32-3-1.2-1.67-6.22-5.61-9-.36-.24-2.75-1.91-5.14-1.31-2,.6-2.27,2.39-5.14,6-2.39,3.11-4.66,5.86-6.93,5.62-2.51-.36-2.75-4.3-5.62-4.78-1-.12-1.91.24-5.62,3-4.54,3.46-5.25,4.66-7.29,6-3.7,2.51-7.53,2.75-9.92,3-8.48.72-12.07-3.46-15.89-.83-2.27,1.55-3,4.42-3.47,6-1.31,5.38,1.56,8-.47,11.12-1.2,1.91-2.27,1-5.62,3.82-1.79,1.55-4.42,3.82-5.14,7.29-.6,3.11,1,4.18,0,5.62-1.55,2.39-6.09-.24-11.11,2.15s-6.7,8.12-6.94,8.6c-1.19,4.66.12,10.4,2.16,10.76,3.22.48,8.24-13,8.6-12.91s-1.55,3.35-.84,3.83c1,.71,5.86-4.43,6.94-5.62,4.42-4.66,5.49-7.17,6.93-6.93.36.12.83.48,2.15,6.93,1.07,5.26,1.07,6.21.48,6.93-1,1.08-2.51.12-5.14.48a13.32,13.32,0,0,0-7.77,3.82c-4.42,5-1.91,15.06.48,15.42.95.12,1.43-1.2,5.61-6,3.35-3.82,3.23-3.22,5.14-5.61a45.87,45.87,0,0,0,6.93-12.07,24,24,0,0,0,1.68-7.29c.24-4.78-1.32-8.49-.84-8.61s1.91,6.69,6,7.77c2.39.6,5.61-.72,6.45-3a4.66,4.66,0,0,0-.72-4.18c-.83-1.2-1.91-1.44-1.91-1.79.24-1.08,9.44,1.79,11.59-1.32,1.8-2.51-3.1-6.93-1.31-9.92,1.55-2.51,6.69-2.27,10.75-2.15,5.26.24,6.46,1.44,9,.48,3.34-1.32,2.63-3.94,6-6,4.19-2.51,6.82.48,12.43-1.67,4.54-1.67,3.71-3.94,8.13-5.62,2.39-1,6-.71,12.91-.47,7.17.35,7.88.83,9.92,0,3.94-1.56,3.58-3.95,7.76-5.62.6-.24,5.5-2.15,9.92,0,3.59,1.67,3.23,4.3,6,5.14,3.11,1,4.54-1.91,11.59-4.78C1635.39,348.8,1639.82,347,1645.67,346.53Z"/><path class="cls-21" d="M1592.37,362c0,2.27,5.86,4.9,7.77,3.46,1.67-1.19.24-5.25,1.31-5.61.72-.24,1.32,1.91,3.47,3,2.87,1.43,5.26-.84,6.93.47s-.6,5,1.32,7.29c1.67,2,6,2.15,7.76.48,1.56-1.55.36-3.58,1.68-4.78,1.67-1.43,4.06,1.32,8.6,1.32,3.35,0,3.59-1.44,10.28-3,3.58-.84,5.38-1.2,6.93-.48,2.87,1.43,1.91,4.9,4.78,6.45s5.14-1.31,8.61,0c4.42,1.68,4.06,7.89,6.93,8.13,3.82.36,6.81-10.88,10.75-10.28,1.56.24,1.32,1.91,3.83,3.47,3.82,2.39,6.57-.12,9.44,1.67,4.06,2.63,1.43,9.68,5.14,11.59,2.75,1.44,4.78-2,9-.83,3.83,1.07,3.47,4.18,7.77,5.61,4.06,1.32,6.09-1,8.6.84.84.6,1,1.2,3,6,1.79,4.3,2.75,6.33,3.47,6.93,3.34,2.27,7.29-2,10.75,0s1.56,7.53,5.14,9.44c2.51,1.31,4.19-.84,6.93.48,4.19,2,2.63,9,6,10.27,2.87,1.08,7.65-2.27,7.77-5.13.12-3.47-6.46-7.29-6.46-7.29h0s-6.33-.36-10.27-3.47a13.64,13.64,0,0,1-4.31-6.45c-2.15-5.5-.12-7.65-1.67-10.76-3.35-6.69-17.69-7.17-18-6-.11.59,2.63,2.39,3.47,1.67s-.6-5.38-3.82-8.13a13.31,13.31,0,0,0-6-2.63c-6.57-1.31-9.68,1.8-12.91-.48-1.55-1.07-.71-1.79-3.46-4.78-1.44-1.55-3.47-3.7-6.46-4.3-2.51-.48-3,.6-4.78,0-3.34-1.31-2.27-6.09-5.61-8.6-2.27-1.8-5.26-1.32-10.76-.48-5,.84-6.09,2-11.59,2.63-2.63.24-4.3.48-6.45,0-3.71-.72-4.9-2.39-8.61-4.3-3.23-1.68-7.65-3.83-12.07-3-4.78.95-5,4.54-11.11,6a22.3,22.3,0,0,1-6.46.48c-4.66-.36-6.45-1.79-9.44-2.63C1601.57,354.54,1592.37,359.08,1592.37,362Z"/><path class="cls-21" d="M1577.79,413.58c3.23,2.15,6.33.24,7.77,2.15,1.55,2.15-1.67,6.09,0,7.77,1.19,1.19,3.11-.36,4.78.83,2,1.56.36,5.14,2.15,6.46,1.55,1.07,4.66-.24,6.45-2.15,3-3.23,2.63-9.33,0-11.12-2.75-2-7.41,1.2-8.6-.48s2.75-4.42,1.67-7.29c-1.19-3.22-7.65-3.58-12.07-3.82-4.18-.24-4.9.48-5.14.83C1573.73,408.2,1575.28,411.78,1577.79,413.58Z"/><path class="cls-21" d="M1647.35,400.67c1.67.6,4.06-3.47,6-2.63.36.12.6.48,1.08,1.2a13.91,13.91,0,0,1,1.91,3.94c1.31,3,5.38,1.79,6.93,4.3,1.79,3-2.63,6.46-.84,10.28,1.2,2.63,3.83,2,4.78,4.3,1.44,3.71-4.54,6.22-5.14,12.43s5,8.49,3.47,14.22c-.72,2.51-1.79,2.15-3.82,6.46-1.8,3.7-3.47,7.29-2.15,9.92,1.55,3.1,5.37,1.43,9,5.13,2.63,2.63,3.23,6.1,3.82,9,1.08,5.38-.36,6.69,1.32,9.92s5.38,5.49,6.93,4.78.6-3.95,1.67-4.3c1.32-.36,2.63,3.94,6.93,5.61,1.2.48,2.87,1.08,4.31.48,1-.48,1.55-1.31,4.06-3a2,2,0,0,1,1.08-.48c.83.24.83,1.8,1.79,4a11.09,11.09,0,0,0,1.67,3c2,2.27,6.81,2.63,8.13.83,1.67-2.27-1.79-8.84-6.93-11.59-1.2-.6-4.19-2.27-7.29-1.31s-3.35,3.46-5.62,3.46-5.14-2.87-5.14-5.62c0-3,3.23-4.54,2.63-6-.84-1.79-5.74.12-7.29-2.15-1.08-1.56-.36-4.54,1.31-6s3.23-.48,4.78-1.67c2.16-1.91,2-7.41-.47-9s-6.34,1.43-8.13-.48c-1.2-1.2-1.32-4.3-1.32-4.3h0l3.47-6h0c-3.23,6.1,5.14-8.13,5.14-8.13-.24-3-3.59-3.94-3-6,.48-1.68,2.63-1.32,4.3-3.47a7.53,7.53,0,0,0,.84-7.29c-1.79-4.54-7.65-5.14-8.13-5.14-4.18-.36-7.17,2-7.76,1.32-.72-1,4.06-3.71,5.13-9,.12-.47,1.2-5.85-1.67-8.6-3.11-2.87-6.93.48-11.59-2.15-4.18-2.39-3.11-6.22-7.29-8.13-2.87-1.31-7.17-1.19-9,1.32C1645.19,396.13,1645.91,400.07,1647.35,400.67Z"/><path class="cls-21" d="M1676.39,457.92c-.24.59,5.85,2,6.93,6.45.71,3-.84,7.29-.84,7.29h0c6.81-.48,7.29.48,7.29.48.36.71-.24,1.31-1.31,4.3-1.2,3.47-1.92,5.14-1.32,6,1.32,1.92,6.22-1.43,9.44.84,2.75,1.91,3.35,7.41,1.68,11.12-1.8,4.06-5,3.94-6.46,8.12-1.07,3.23-.36,6.93.84,7.29,1.91.6,4.78-6.57,6.45-6,1.44.48-.48,5.61,2.15,10.75.36.6,2.39,4.66,6.46,6,6.09,2,10.16-4.3,15.89-2.15,3.59,1.31,3,4.06,7.29,6,4.66,2.15,11,1.56,12.07-.83s-3.34-7.89-8.6-9.44c-4.3-1.32-6.1.83-10.76-.84-3-1.08-4.9-3-7.29-5.62-.83-.95-2.75-2.87-6.93-9.92s-6.45-10.87-6.45-14.22c0-4.42,2.15-4.78,1.67-8.13-.72-6.09-8.37-9.92-15.06-13.26C1682.48,458.63,1676.63,457.44,1676.39,457.92Z"/><path class="cls-20" d="M1460.07,453.73c-1.19.48-.36,2.51-1.91,4.07s-3.58.71-4.54,2.15-.24,3.34.84,4.54,2.27.48,3.7,1.55c1.79,1.32,2.39,4.42,1.55,6.69-.47,1.32-1.43,2.16-3.22,3.71-2.51,2.15-3.71,2.15-3.83,3.23-.12,1.55,2.39,3.34,4.31,4.06,2.27,1,3.22.36,4.06,1.31,1.31,1.56.48,4.43,0,5.86s-1.55,4.78-4.3,6c-3.11,1.43-5.5-.84-7.29.83a3.9,3.9,0,0,0-.84,4.07c.84,2.15,3.59,1.79,4.3,3.7s-.83,4.66-3,5.86c-3.34,1.79-7.41-1.2-8.12,0-.36.59.6,1.43,2.39,4.54s2.63,4.54,2.39,6c-.36,2.51-3.11,3.35-2.75,4.31s3.82-.48,7.89,1.07c3,1.2,3.1,2.75,5.37,3a7.18,7.18,0,0,0,7.3-4.54,7.43,7.43,0,0,0-2.75-8.61c-1.68-1.07-3.35-.48-4.07-1.67a3.78,3.78,0,0,1,.6-3.82c1.91-2.39,5.38-.48,7.77-2.75a4.65,4.65,0,0,0,1.31-4.78c-1.07-2-4.9-1.68-4.9-2.63,0-.48,1.32-.84,3.83-1.92,3-1.19,4.42-1.91,5.14-2.74,1.55-1.92,1.31-5,.47-7.06-1.07-2.62-2.74-2.39-3.22-4.54-.6-2.63,2-3.7,1.67-6.69s-2.87-3.35-2.63-5.62,3.47-2.74,3.47-4.78-2.75-2-4.3-5.14c-1.08-2.15-.12-3-1.32-5.13C1464,455.17,1461.39,453.13,1460.07,453.73Z"/><path class="cls-21" d="M1443.58,483.13c1.2,3.71,4.9,4.07,4.9,6.34,0,2.74-5,3.82-4.66,6.21.24,1.67,2.75,1.55,3.23,3.59.71,2.51-2.87,4.3-2.16,6.45.6,1.79,3.95,2.63,6.46,2.15,4.42-.84,7.65-5.86,6.69-9s-6.57-3.47-6.57-5.5,4.9-1.91,5.73-4.78c1.08-3.23-3.94-7.53-7.29-10.4s-4.18-2.51-4.66-2.39C1443.58,476.44,1442.62,480.14,1443.58,483.13Z"/><ellipse class="cls-22" cx="1570.94" cy="658.26" rx="40.66" ry="18.64"/><path class="cls-22" d="M1582.12,634.86a2.47,2.47,0,0,0-1.82.68,15.66,15.66,0,0,1-9.34,3.12,17,17,0,0,1-9.65-2.76,2.46,2.46,0,0,0-1.64-.6c-16.33,2-26.14,9.32-28.06,15.39-2.8,8.83,17.53,16.54,39.14,16.54s41.46-7.61,39.15-16.54C1608,643.23,1598.19,636.92,1582.12,634.86Z"/><path class="cls-23" d="M1595.13,669.16l-24.26,2.15-24.25-2.15c-8.71,0-15.83-6-15.83-13.31h0c0-8,14.3-15.58,23.49-14.61l16.59,2.58,15.07-2.58c11.74-2.15,25,6.38,25,14.18v.43C1611,663.17,1603.84,669.16,1595.13,669.16Z"/><path class="cls-24" d="M1610.23,650.19c-9.51,3.08-23.27,3.71-39.06,3.71s-30.15-.61-39.65-3.66c2.39-4.35,9.66-8.1,16.47-9.34h8.91l13.89,1.86,12.6-1.86h12.22C1602.44,642.38,1608.36,646.17,1610.23,650.19Z"/><path class="cls-25" d="M1609.17,649c-9.51,2.87-22.21,2.91-38,2.91s-28.5-.07-38-2.91c2.39-4.06,9.19-7,16-8.21h8l14,2.24,13-2.24h12C1603,642.16,1607.3,645.24,1609.17,649Z"/><path class="cls-26" d="M1611,654.62v.43c0,7.32-7.12,13.31-15.83,13.31l-24.25,2.15-24.26-2.15c-8.7,0-15.83-6-15.83-13.31a7.79,7.79,0,0,1,.82-3.39c2.39-5,9.66-9.36,16.47-10.8a22.07,22.07,0,0,1,4.53-.51,15.16,15.16,0,0,1,1.67.09l2.71.42,13.89,2.15,12.6-2.15,2.46-.42a23.27,23.27,0,0,1,9.76.42c6.83,1.72,12.75,6.1,14.62,10.74A7.81,7.81,0,0,1,1611,654.62Z"/><g id="Layer_9" data-name="Layer 9"><path class="cls-27" d="M1568.11,866.28c14.82-1.67,29-1.55,32.51-.48l.36-.95c-1.8-1.68-14.82-1.8-33,.36s-32.15,6.45-31.91,8.84l.36.84C1540.5,872.5,1553.29,868,1568.11,866.28Z"/></g></g><path class="cls-28" d="M1484.67,1038.4a34.09,34.09,0,0,1,1.37-9c1.32-3.83,3.48-7.19,4.09-7,.93.36-3.39,8.18,0,13.27,1.24,1.85,3.08,2.73,5,3.66,2.57,1.23,7.92,3,9.14,1.37s-4.15-5.18-5.94-13.26c-.91-4.11-.52-7.86,0-12.81.7-6.75,1.71-6.55,1.37-9.61-.46-4.11-2.91-7.37-7.78-13.72-4.08-5.34-4.8-5.16-6.4-8.24-1.34-2.57-1.93-4.79-3.2-11.89-1.33-7.41-2-11.11-2.29-14.18-1.11-11.44,1-18.93,1.83-26.08,1.1-9.84-1.68-6.17-5.49-35.22-2.1-16-2-21.63-5.49-26.54-.6-.84-.6-3-.46-6.17.14-2.9,0-4.85,2.29-8s5.89-8.26,6-11c.08-3.87-8.44-9.18-37.51-16-.07,9.29-.16,14.06-1.08,19-.42,2.3,1.07,7.16.62,10.75a85,85,0,0,0-.46,15.55,208.9,208.9,0,0,0,2.29,21c2.43,16.84,3.84,25.23,4.11,27.45,2.29,18.76,3.82,17.8,4.81,26.31,1.13,9.73,1.42,13,2.51,19.9.49,3.07,3.19,7.22,4.73,9.38a3.15,3.15,0,0,1,.3,3.16,41.3,41.3,0,0,1-2.28,4.38c-2.7,4.25-3.78,8.32-6,16.47a64.37,64.37,0,0,0-2.74,20.13c.35,9.68,3,16.49,5,21.5,2.12,5.36,0,1.83,1.59,3.36"/><path class="cls-5" d="M1470.67,858.26l-28.94-5.57c-3.06-1.43-5.06-3.43-5.06-6.43l5.29-33.11a5.91,5.91,0,0,1,6.74-4.92l27.72,4.35a5.9,5.9,0,0,1,4.91,6.75l-3.66,32.93C1479.5,860.52,1480.23,861.34,1470.67,858.26Z"/><path class="cls-29" d="M1538.16,198.13c1.29,66-54.45,132.91-113,147.44-37.16,9.23-79.92,13.78-79.92,13.78a82.12,82.12,0,0,0,16.53,78.55,303.58,303.58,0,0,1-103.34-67.52,947.62,947.62,0,0,1-166.74,6.89c-66.24-3.09-99.81-5.68-137.8-23.43-45-21-114.74-75.16-114.37-147.44.33-64.47,56.28-109,78.55-126.78C989.8,22.5,1070.77,20.4,1190.23,19c117.36-1.37,193.34-1.18,263.88,51C1477.27,87.11,1536.86,131.19,1538.16,198.13Z"/><path class="cls-12" d="M814.8,568.16q-52.63,78.62-109.67,159Q606.27,866.41,507.72,991.77L202,772.42,620.62,443Z"/><path class="cls-30" d="M875.12,553.08q-47.68-25-96.9-49.91-36.76-18.6-73.09-36.46s-39-19.66-197.41-101.44a555.67,555.67,0,0,0-67.17,60.32C383,486.43,360.08,538.48,321.28,603.8A1306,1306,0,0,1,207.5,765.57"/><path class="cls-30" d="M807.26,585.3q11.82,6.51,24,13,15.91,8.49,31.53,16.45c2.82-4.6,6.9-11.6,11.23-20.45,7.24-14.78,10.83-22.31,9.33-28.9-2.39-10.49-14.72-18.32-24-19.88-27-4.53-56,39.32-69.92,61.69-35.37,57-184.1,306-219.34,349.58-2.92,3.61-24.08,29.17-50.74,32.68a42.17,42.17,0,0,1-9.58.22c-16.8-1.53-34-13.22-38.38-26.05-7-20.59,21.93-54.83,21.93-54.83S473.79,880,335.68,821.09c-81.05-34.56-91.57-37.72-108.3-46.61-9.29-4.93-17.62-8.32-34.28-15.08-21.54-8.75-28.79-8.23-28.79-8.23S141.46,771,132.78,789.56c-7.63,16.34-6.44,22.9-5.48,26.05,2.81,9.24,11.27,14.27,15.08,16.45,68.68,39.29,186.44,85,186.44,85,38,14.74,35.56,16,98.71,41.13,32.57,13,60.62,23.56,82.25,31.53"/><path class="cls-31" d="M878.44,584.47,835,558.28l1.13-1.87C843,547.94,857,547,868,553.93c10.25,6.44,15.51,18.19,12.1,27.73C879.57,582.6,879,583.54,878.44,584.47Z"/><path class="cls-32" d="M810.69,579.13l53.47,28.79"/><path class="cls-32" d="M817.73,569l55,25.79"/><path class="cls-33" d="M126.61,808.07l176.85,82.25"/><path class="cls-33" d="M132.44,794.48,363.78,902.66"/><path class="cls-33" d="M143.41,779.4,396.68,895.8"/><path class="cls-33" d="M152.26,763.05l291,130"/><path class="cls-33" d="M166.24,754.19c56.56,21.46,116.83,46.9,179.72,77.18,53.32,25.68,102.68,52,148.05,78.14"/><path class="cls-34" d="M478.07,932c-1.21,2.5-8.07,17.31-1.19,31.69,5,10.53,14.6,15,17.82,16.45,20.48,9.49,51.73-2.58,79.51-28.78"/><path class="cls-35" d="M508.62,798a20.64,20.64,0,0,0-23.9-30L563,705.69l23.9,30Z"/><path class="cls-35" d="M584.54,824.72a20.65,20.65,0,0,0-38-5.59l14.58-99,38,5.6Z"/><circle class="cls-35" cx="588.61" cy="702.51" r="53.46"/><path d="M497.57,492.83q-5.25,9.66-16.93,18A96.92,96.92,0,0,1,460.25,522q-9.66,3.69-13.09,3.32a10,10,0,0,1-3.48-1.2,25.43,25.43,0,0,1-8-7.57A25,25,0,0,1,431,508.3l34.63-63.76a3.44,3.44,0,0,1,4.3-1.22,42.31,42.31,0,0,1,4.35,3.17q.8.54,6.58,1.17a25,25,0,0,1,9.17,2.45,18.48,18.48,0,0,1,6.76,6.31,62.35,62.35,0,0,1,3.87,8.3q3.49,8.55,2.29,15.23Q502.14,484.42,497.57,492.83Zm-6.28-25.54a3.46,3.46,0,0,0-1.35-1.08q-5-2.7-14.12-2.39l-21.64,39.85q8.25,0,20.06-11,10.14-9.51,15.29-19Q492.22,468.72,491.29,467.29Z"/><path d="M500.21,548.51q-1.36,3.39-4.51,2.71a9.43,9.43,0,0,1-1.36-.62,38.05,38.05,0,0,1-7.62-5.86q-4.56-4.32-4.64-6.42c-.06-.65.72-1.41,2.34-2.29q1.56-.87,3.49-4.41l20.2-37.19a20.86,20.86,0,0,1,1.32-5.13c.42-.77,1.78-.52,4.1.73a31.08,31.08,0,0,1,6.93,5.89q4.13,4.36,4.48,6.16a1.52,1.52,0,0,1-.2,1,8.11,8.11,0,0,1-2.52,2.07,7.93,7.93,0,0,0-2.66,2.34l-19.34,35.59a4.44,4.44,0,0,0-.12,2.8A6,6,0,0,1,500.21,548.51Zm33.52-61a1.93,1.93,0,0,1-.29.76,22.9,22.9,0,0,1-3.59,4.59c-1.84,1.91-3.11,2.82-3.8,2.75s-3.09-2.19-7-6.28-5.88-6.53-5.84-7.35a2.83,2.83,0,0,1,.44-1.48,13.09,13.09,0,0,1,4-4.34q3.14-2.19,5.21-1.53,2.34.81,6.65,5.62C532.41,483.41,533.81,485.84,533.73,487.47Z"/><path d="M532.73,570a4.78,4.78,0,0,1-2-.53q-2.43-1.32-5.22-9.83l-9.28,17.09a14.5,14.5,0,0,0-.53,3,8.7,8.7,0,0,1-.72,3.1q-1,1.86-3.63.44a32.11,32.11,0,0,1-6.17-5c-1.52-1.51-3-3.06-4.52-4.63a3.79,3.79,0,0,1-1.22-4.22,9.13,9.13,0,0,1,2.57-3.08,22.54,22.54,0,0,0,2.48-2.43l31.31-57.65c1.06-1.95,1.58-3.27,1.56-4-.14-2,.14-3.17.84-3.56.5-.34,1.44-.13,2.82.61a45.49,45.49,0,0,1,6,4.31q4.44,3.67,4.81,3.88a3.47,3.47,0,0,1,1.28,3.45,5.11,5.11,0,0,1-.58,1.29,85.52,85.52,0,0,1-7,10.19q4.56-3,9.07-6c4-2.51,6.7-3.17,8.22-2q16.39,13.61,6.63,31.58-5.52,10.18-16.89,17.37T532.73,570ZM553,527.66q-3.18-2.17-25,27.85,6.45.63,14.81-4.58t11.86-11.67Q558.83,531.73,553,527.66Z"/><path d="M613.79,523.28a5.53,5.53,0,0,1-1.33,1.45l-1.24,1a43.69,43.69,0,0,0-4.11,4.88L577.58,585a3.77,3.77,0,0,0-.47,2.21,3,3,0,0,1-.19,1.68q-3.07,5.66-5.56,4.88c-.63-.18-2.4-1.66-5.31-4.42s-4.56-4.6-5-5.51c-.76-1.86-.89-3.27-.37-4.22a1.46,1.46,0,0,1,.8-.59,2.69,2.69,0,0,0,1.2-1.3l33.91-62.43a2.55,2.55,0,0,0,.27-1.28,2.57,2.57,0,0,1,.27-1.29c.9-1.35,2.57-1.66,5-.95a22.88,22.88,0,0,1,3.94,2.14,35.56,35.56,0,0,1,5.46,4.23Q614.85,521.33,613.79,523.28Z"/><path d="M642.44,562.35q3.9,5.1,2.92,13.62a46.3,46.3,0,0,1-5.65,16.43q-6.5,12-15.56,18.38-9.89,6.79-16.52,2-2.29-2.05-7.06-5.78a49.53,49.53,0,0,1-6.21-5.1q-4.62-4.23-3.86-13.22a44.81,44.81,0,0,1,5.66-17.34,49.94,49.94,0,0,1,12-14.93q7.8-6.32,15.67-6.28a7,7,0,0,1,3.1,1,51.73,51.73,0,0,1,6.78,5.17A65.37,65.37,0,0,1,642.44,562.35Zm-14.82,2.27q-2.54-1.38-7.84,3.25a36.47,36.47,0,0,0-8.19,10,57.06,57.06,0,0,0-5.23,13.44q-1.89,7.69.17,9.5,2.67,2.25,8.81-3.48a53.26,53.26,0,0,0,10.33-13.65,38.28,38.28,0,0,0,3.64-9.61Q631.18,566.55,627.62,564.62Z"/><path d="M704.83,654.61a9.34,9.34,0,0,1-1.08,3.77,4.11,4.11,0,0,1-4.12,2.46,8,8,0,0,1-2.49-1,42,42,0,0,1-7.09-5.05c-2.6-2.21-4-3.79-4.35-4.72a1.9,1.9,0,0,1,.16-1.4,8.12,8.12,0,0,1,3.11-2.38,8.12,8.12,0,0,0,3.11-2.38q19.14-34.78,18.53-35.46-1.26-1.26-9.89,3.68-9.48,5.4-12.75,11.42l-9.43,17.36a12.45,12.45,0,0,1-1.08,3.54q-1.2,2.22-4.26,2a8.42,8.42,0,0,1-2.49-1,42.94,42.94,0,0,1-7.08-5.05q-3.9-3.33-4.36-4.72a1.35,1.35,0,0,1,.11-1.09,9.22,9.22,0,0,1,3.09-2.45,9.07,9.07,0,0,0,3.19-2.63q19.13-34.78,18.53-35.46-1.08-1.16-10.8,4.46Q663.15,604.45,660.7,609l-9,16.56a4.27,4.27,0,0,1-.32,3.49,5.21,5.21,0,0,1-5.69,2.88,3.07,3.07,0,0,1-1.22-.44,41.14,41.14,0,0,1-6.8-5.12c-2.85-2.51-4.33-4.09-4.45-4.77a2.83,2.83,0,0,1,.3-1.9,4.07,4.07,0,0,1,2.24-1.54,4.78,4.78,0,0,0,1.94-1l22.37-41.17a4.39,4.39,0,0,0,.26-2.27,2.53,2.53,0,0,1,.59-2.2,4,4,0,0,1,4.2-.82q1.68.47,6.5,4.79,5.22,4.68,5,6.49a5.21,5.21,0,0,1-1.87,2.77,26.63,26.63,0,0,0-3,3A7.51,7.51,0,0,0,671,590a30.71,30.71,0,0,1,8.22-5.74q5.34-2.49,8.44-.81t7,6.65q3.63,4.71,3.93,6.83c.18,1-.35,3.48-1.59,7.4q7.5-4.65,8.59-5.31,5.64-2.79,8.55-1.21,3.18,1.73,7.11,6.56T725,611.3Q724.49,618.4,704.83,654.61Z"/></svg>
