<svg xmlns="http://www.w3.org/2000/svg" viewBox="0 0 1920 1080"><defs><style>.cls-1{fill:#7aaa4b;}.cls-2{fill:#638e3d;}.cls-3,.cls-5{fill:#755031;}.cls-3{stroke:#170a08;}.cls-18,.cls-21,.cls-25,.cls-27,.cls-28,.cls-29,.cls-3,.cls-30,.cls-31,.cls-32,.cls-33,.cls-34,.cls-35,.cls-37,.cls-38,.cls-39,.cls-41,.cls-48,.cls-56,.cls-58,.cls-60,.cls-62,.cls-63,.cls-65,.cls-69,.cls-7,.cls-71,.cls-73,.cls-76,.cls-77,.cls-80{stroke-miterlimit:10;}.cls-18,.cls-4{fill:#1d1405;}.cls-6{fill:#4f3521;}.cls-7{fill:#e3e0df;}.cls-28,.cls-29,.cls-30,.cls-31,.cls-33,.cls-34,.cls-35,.cls-36,.cls-37,.cls-50,.cls-56,.cls-58,.cls-60,.cls-62,.cls-63,.cls-65,.cls-69,.cls-7,.cls-71,.cls-80{stroke:#000;}.cls-8{fill:#3c2d22;}.cls-9{fill:#573a23;}.cls-10{fill:#090806;opacity:0.49;isolation:isolate;}.cls-11,.cls-28,.cls-45,.cls-52{fill:#fff;}.cls-12{fill:#e59347;}.cls-13{fill:#eac5a0;}.cls-14{fill:#efbf86;}.cls-15{fill:#202531;}.cls-16,.cls-25,.cls-32,.cls-38,.cls-39,.cls-41,.cls-47,.cls-48,.cls-50,.cls-56,.cls-58,.cls-60,.cls-63,.cls-73,.cls-76,.cls-77,.cls-80{fill:none;}.cls-17{fill:#97908a;}.cls-18{stroke:#0e0c0a;}.cls-18,.cls-25,.cls-47,.cls-63,.cls-65,.cls-73{stroke-width:2px;}.cls-19{fill:#14120f;}.cls-20{fill:#2b1e0c;}.cls-21{fill:#592721;stroke:#49201e;}.cls-22{fill:#240b08;}.cls-23{fill:#c2c4cc;}.cls-24{fill:#e2e6ef;}.cls-25{stroke:#150c0c;}.cls-26{fill:#4f4439;}.cls-27{fill:#725238;stroke:#1f1313;}.cls-28,.cls-29,.cls-30,.cls-31,.cls-33,.cls-34,.cls-35,.cls-36,.cls-37,.cls-50,.cls-56,.cls-62,.cls-69{stroke-width:4px;}.cls-29,.cls-71{fill:#efbe9e;}.cls-30{fill:#50638b;}.cls-31{fill:#2d3238;}.cls-32{stroke:#3f3f3f;}.cls-33{fill:#ab460f;}.cls-34{fill:#f5bb98;}.cls-35,.cls-57{fill:#262626;}.cls-36{fill:#f5b791;}.cls-37{fill:#d75a04;}.cls-38{stroke:#b94027;opacity:0.25;}.cls-38,.cls-60{stroke-width:3px;}.cls-39{stroke:#ac2e07;}.cls-39,.cls-52{stroke-width:0.75px;}.cls-40{fill:#a72901;opacity:0.62;}.cls-41{stroke:#b93906;}.cls-42{fill:#b83c02;}.cls-42,.cls-44,.cls-45,.cls-64,.cls-66,.cls-67{opacity:0.4;}.cls-43,.cls-44{fill:#b83e02;}.cls-43{opacity:0.64;}.cls-46{fill:#b56953;opacity:0.45;}.cls-47{stroke:#8a532e;}.cls-48{stroke:#bb725f;}.cls-48,.cls-72,.cls-76{opacity:0.47;}.cls-49{fill:#436cae;}.cls-51{fill:#5d0203;}.cls-52{stroke:#9a9896;}.cls-53{fill:#b35e50;}.cls-54{fill:#e8b39b;}.cls-55{fill:#643f23;}.cls-59{fill:#b0b2b3;}.cls-61{fill:#1f1f1f;}.cls-62,.cls-65{fill:#e7b6a4;}.cls-64{fill:#af7e75;}.cls-66{fill:#b0807a;}.cls-67{fill:#b28076;}.cls-68{fill:#e2a98c;}.cls-69{fill:#efbf9e;}.cls-70{fill:#cc8870;}.cls-71,.cls-80{stroke-width:5px;}.cls-72{fill:#bd725f;}.cls-73{stroke:#966b53;}.cls-74{fill:#436cb0;}.cls-75{fill:#876840;}.cls-76{stroke:#bd725f;}.cls-77{stroke:#763d32;}.cls-78{fill:#eac987;}.cls-79{fill:#cbab6a;}.cls-81{fill:#d39873;}</style></defs><title>slut_groen</title><g id="baggrund"><circle class="cls-1" cx="1297.6" cy="545.35" r="531.46"/><path class="cls-2" d="M-.64.3v1082h1920V.3Zm1300.5,1073.49c-292.15,0-529-237.28-529-530s236.85-530,529-530,529,237.28,529,530S1592,1073.79,1299.86,1073.79Z"/><path class="cls-3" d="M1607,747.75c1.57-1.18,4.81.31,11.3,3.3,3.76,1.73,7,3.24,10.51,6.25,2.29,2,4,4,9.44,13.1,3.18,5.27,4.77,8.15,8.33,14.36,7.16,12.51,7.49,12.67,10.12,17.66,3.61,6.86,3.1,6.74,7.58,15.74,5.18,10.4,7.78,15.59,11.45,21.23,2.49,3.83,8.07,12,11.17,18a35.11,35.11,0,0,1,3.24,9.07s.29,1.41.45,2.74c.89,7.38-2,15.33-2.19,15.26s1.19-11.57,6.13-22.85a81.1,81.1,0,0,1,9.69-16.25c4-5.38,4.75-5.21,13.13-14.85,6.64-7.64,6.23-7.83,12.32-14.69,5-5.61,9.35-10.1,12.28-13.1,5.43-5.59,5.9-5.8,11-11.11s7.46-7.81,9.62-10.3c5.55-6.42,5.83-7.65,8.52-9a6.94,6.94,0,0,0,3.46-3,7.46,7.46,0,0,0,.23-5.1c-1.82-7.45-4.38-10-5.47-15.11-1-4.88-.16-9.31.93-14.84.56-2.8,1-3.7,2-9,1.4-6.92,1.35-8.6,1.16-10a24.87,24.87,0,0,0-2.81-8c-2-4-3.28-4.82-3.36-7.34,0-.23-.08-3.94,2.29-5.7,2.83-2.09,7.28,0,9.48,1.58,4.94,3.58,6.08,10.16,6.51,12.64.83,4.75-.27,6.13,1.12,11.46.85,3.26,1.59,5.95,3.81,7.07,2.91,1.48,6.5-.68,8.06-1.62,2.28-1.37,3.86-3.1,7.06-7.87,3.77-5.61,6.35-10.3,7.55-12.5,3.64-6.73,3.4-7,6.28-12.08.88-1.54,3-4.83,7.25-11.4,4.54-7,6-9.11,8.72-9.77,1.77-.43,4.54-.38,5.75,1.28,1.47,2-.09,5.33-2.71,11.53-5.84,13.77-3.71,10.47-6.77,16.71-5.73,11.66-9.9,16.55-9.19,17.19,1.12,1,12.38-9.92,19.16-17.46,2.52-2.79,5.29-5.31,7.87-8,2.77-2.92,4.42-4.74,7.38-6.2,1.89-.92,5.28-2.59,7.5-1s1.93,5.29,1.89,5.72c-.19,2.52-1.45,4.58-7.4,10.55-3.39,3.41-6.17,5.94-7.67,7.3-3.29,3-4.11,3.62-10.49,9.26a130.51,130.51,0,0,0-9.32,9.2c-3,3.28-3.07,3.69-3,3.91.54,1,4.69-1.55,10.8-4.79,2.7-1.43,5.91-2.81,9.22-4.71,2.65-1.53,3.93-3.42,7.91-6.59a49,49,0,0,1,8.24-5.14c5.86-2.92,7.52-2.3,8.15-2a5.06,5.06,0,0,1,2.74,4c.19,2.65-2.31,4.79-5.36,7.18-9.23,7.26-12.61,8.35-19.32,13.83-3.46,2.82-3.54,3.33-7.93,6.83s-6.26,4.52-6,5.39c.46,1.71,8,1.81,14.86,0,5.85-1.58,7.37-3.55,13.28-4.07,1.35-.12,7.79-.69,8.68,1.74.12.33.37,1.35-1.34,3.58-2.87,3.72-7,5.34-13.72,7.12-7.14,1.89-7.7,1.45-14.24,3.39-4.13,1.23-7.26,2.4-10.46,4.9a41.61,41.61,0,0,0-4.11,4,83.29,83.29,0,0,1-10.29,8.53c-12,8.86-15.46,7.52-21.84,14.68-1.7,1.9-.87,1.35-5.46,7.55-5.87,7.95-10.51,13.3-13.16,16.43-8.23,9.68-7.41,9.81-21.48,27.51-14.21,17.87-12.37,14.38-20.43,25,0,0-10.19,13.46-19.43,24.13-5,5.72-7.22,7.84-10.23,9.73-2.63,1.65-4.23,2.13-6.53,4.46-3,3-3.1,5.09-5.51,6.34-.57.29-2.88,1.38-7.91-.33-6.24-2.11-10.14-6.29-13.1-9.39-11.66-12.2-9.52-8.31-17.16-16.95-5.2-5.87-8.56-10.36-15.06-19.11-8.81-11.83-13.26-17.7-14.67-20.58-2.17-4.46-4.33-13.49-8.67-31.56-2.13-8.88-3.25-14.21-3.66-16.17-2.13-10.29-2.09-11.84-3.73-20.18C1607.52,756.61,1604.22,749.78,1607,747.75Z"/><path class="cls-4" d="M1687.91,859.17a.55.55,0,0,1-.05.31c-.58,1.68-7.57,2.64-7.69,3.1-.84,2.25-3.88,2.9-8.66,3.66-6.81,1.12-7.6,2.61-14.89,3.74-4.28.69-3.55.92-9.51,1.62l-1.76.2c-3,.26-6.69,1.88-7.17.76-.36-.62-.74-6.79-.62-7.66.12-2.74.12-2.74-4.27-8.6-3.5-7.67-4.54-7.09-4.66-9.34,0-.12-.35-.75-.71-1.63v26.32a21.43,21.43,0,0,1-10.64,18.71,203.91,203.91,0,0,0-1,40.54c.48,6.34,2.23,15.85,4.35,26.32.83,4,.34.31,1.23,4.49-49,26-101.69,86-159,91,0-.43-3.64-57-3.61-57.45.06-1,.13-2.08.21-3.17,1.88-24.18,9-62.68,9-62.68l.48-40a21.36,21.36,0,0,1-9-17.58V841.34h-1c.6,3.62-1.08,10.11-.84,26.57,0,2.25.12,4,.12,5.25,0,0-7.77-.76-16-2-1.8-.25-.24-.13-8-1.38-6.21-1-9.32-1.49-12.79-3.23-2.39-1.26-3.82-2-4.54-3.62-1.07-2.12,0-3.49,1-8.36.24-1.37,1-11.47,1.07-13.23v-.12l4.08-29.05,6.08-43.29c0-10.35,9-18.83,18.76-20.58a106.28,106.28,0,0,1,22.11-4.12c2.92-.29,5.81-.45,8.55-.5,2,0,3.88,0,5.68,0a12.07,12.07,0,0,1,3.94-5.62l9.44-15.34,5.26,3.62-3.35,5.36c11.12-4.24,27.13-7,45.06-7,20.67,0,38.84,3.62,49.83,9.11l-4.18-6.61,5.26-3.62L1608,743.69c3.34,0,6.93.12,10.63.49a102.71,102.71,0,0,1,21.52,3.87c9.8,1.38,17.56,10.35,17.56,21.08,2.51,23.7,21.62,44.69,24.13,68.39,1.2,1.74.92,4.13,3.36,11.78C1685.85,851.44,1687.67,856.93,1687.91,859.17Z"/><g id="kvinde"><rect class="cls-4" x="1497.77" y="692.22" width="98.83" height="48.16"/><ellipse class="cls-5" cx="1548.32" cy="709.31" rx="49.48" ry="16.49"/><path class="cls-3" d="M1423.19,543.79c8.49-.36,16,10.52,17.33,24.86a2.36,2.36,0,0,1,1-.48c2.51,0,4.54,7.89,4.54,17.69a56.08,56.08,0,0,1-1.2,12.07c4.19,12,3.47,22.59-2,25.1-6.45,2.86-17-6.34-23.66-20.56a77.81,77.81,0,0,1-3.23-8.6c-4.18-4.9-7.05-12.67-7.53-21.75C1407.77,556.82,1414.35,544.15,1423.19,543.79Z"/><ellipse class="cls-6" cx="1432.75" cy="585.62" rx="7.41" ry="18.52" transform="matrix(0.99, -0.17, 0.17, 0.99, -79.37, 255.16)"/><path class="cls-4" d="M1438.49,599.24c-.6,2.75-1.79,4.55-3.35,4.78-3.34.48-7.29-6.57-8.72-16s0-17.45,3.34-17.93c1.8-.24,3.83,1.8,5.62,5.26a.91.91,0,0,1,.48-.24,2.22,2.22,0,0,1,.84.24c-2.16-5.14-5-8.24-7.65-7.89-4.07.6-6,9.8-4.31,20.56s6.46,18.88,10.52,18.17c2-.36,3.47-2.75,4.3-6.46C1439.21,599.84,1438.85,599.6,1438.49,599.24Z"/><path class="cls-4" d="M1435.14,564.59c-7.41-7.17-11.23-10.64-11.59-10.4s3.23,4.78,10.88,13.5"/><path class="cls-3" d="M1658.63,586.05a163,163,0,0,0-4.66-38.6c-6.34-66.45-50.68-118-104.46-118-56.88,0-103.13,57.6-105.17,129.54a167.5,167.5,0,0,0-2.27,27,156.62,156.62,0,0,0,6.22,44.22c0,.72-.12,1.44-.12,2.15,0,20.44,11.35,39.08,29.88,52.47a111.22,111.22,0,0,0,28.08,22.47c6.57,10.16,23.9,17.45,44.22,17.45s37.65-7.29,44.22-17.45a109.16,109.16,0,0,0,28.08-22.47c18.41-13.39,29.88-32,29.88-52.47a13,13,0,0,0-.12-2.15A161.72,161.72,0,0,0,1658.63,586.05Z"/><path d="M1495.73,548.21c-2.86-2-10.15.12-16.25,1.92-4.54,1.31-7.65,2.51-10.87,4.78-2.28,1.43-3.95,3.1-5.5,4.06a7.51,7.51,0,0,1-3.23.48,13.24,13.24,0,0,1,2.39,2.27c.24.72-1.19.6-2.15.6a9.52,9.52,0,0,1-4.54-1.08s1.79,5.86,5.38,9.56a20.79,20.79,0,0,0,8.24,5.62,29,29,0,0,0,4.78,1.07C1484.62,578.21,1502.07,552.87,1495.73,548.21Z"/><path class="cls-7" d="M1496.69,548.09c-1.55,0-4.54-.24-6-.12-15,1.56-25.93,10-25.93,21.52h.12l3.47,3.34,3.46,3.47v-.12a5.33,5.33,0,0,0,3.35,1.07h41.59l1.91-.12,2.87-1.91a8.93,8.93,0,0,0,1.91-1.79l3.11-4.06c0-10.4-8.49-18.65-20.92-21.28C1503,547.74,1499.8,548.09,1496.69,548.09Z"/><circle class="cls-8" cx="1496.69" cy="562.79" r="14.1"/><circle class="cls-9" cx="1496.69" cy="562.79" r="12.91"/><circle class="cls-10" cx="1496.69" cy="562.79" r="6.81"/><circle class="cls-11" cx="1494.18" cy="557.06" r="2.99"/><path d="M1608.55,550.72c2.87-2,10.16.12,16.25,1.92,4.55,1.31,7.65,2.51,10.88,4.78,2.27,1.43,3.94,3.1,5.5,4.06a7.45,7.45,0,0,0,3.22.48,13.24,13.24,0,0,0-2.39,2.27c-.23.71,1.2.6,2.16.6a9.66,9.66,0,0,0,4.54-1.08s-1.8,5.86-5.38,9.56a20.79,20.79,0,0,1-8.25,5.62,28.77,28.77,0,0,1-4.78,1.07C1619.67,580.72,1602.22,555.38,1608.55,550.72Z"/><path class="cls-7" d="M1607.6,550.6c1.55,0,4.54-.24,6-.12,15.06,1.56,25.93,10,25.93,21.52h-.11l-3.47,3.34-3.47,3.47v-.12a5.3,5.3,0,0,1-3.34,1.07h-41.59l-1.91-.12-2.87-1.91a9,9,0,0,1-1.92-1.79l-3.1-4.06c0-10.4,8.48-18.65,20.91-21.28C1601.38,550.25,1604.61,550.6,1607.6,550.6Z"/><circle class="cls-8" cx="1607.71" cy="565.18" r="14.1"/><circle class="cls-9" cx="1607.71" cy="565.18" r="12.91"/><circle class="cls-10" cx="1607.71" cy="565.18" r="6.81"/><circle class="cls-11" cx="1610.22" cy="559.57" r="2.99"/><path class="cls-4" d="M1527.76,534c.84,2,.84,5-.71,6-1.68,1.19-4.43.71-8.85-1-1.79-.6-5.73-.84-12.79-3.46-9.68-3.47-13.86-4.9-17.32-4.9a43.67,43.67,0,0,0-14.23,2.62c-8,3.11-10.63,11.48-11.95,10.52-.83-.6.48-3.94,1.68-6a17.64,17.64,0,0,1,6.33-6c7.41-4.54,12.79-6.09,13.86-6.33,3-.48,9.32,0,18.17.36,7.17.23,12.79.71,19,3C1524.18,530.17,1526.69,531.48,1527.76,534Z"/><path class="cls-4" d="M1577.48,536.74c-.84,2-.84,4.9.72,6s4.42.71,8.84-1c1.79-.6,5.74-.84,12.79-3.47,9.68-3.46,13.61-7.58,17.07-7.58,5.5.12,7.18.57,11,2,8,3.11,14.11,14.79,15.43,13.83.84-.6-.48-3.94-1.67-6-1.68-2.74-1.37-4.42-3.76-5.85-4.42-9.88-16-10-17-11-3-.48-8,3-17.61,4.9-7.17.24-12.78.72-19,3C1580.94,532.92,1578.43,534.23,1577.48,536.74Z"/><path class="cls-4" d="M1564.21,579.88c.12,1.68.24,4,.48,6.58.36,6,.48,6.69.72,7.88a68.69,68.69,0,0,0,2.27,7.65c.84,2.27,1.55,4.31,2,5.62"/><path class="cls-4" d="M1576.88,621a9.12,9.12,0,0,0-1.19-2.4h-1.2a1.71,1.71,0,0,1,.24.72c.12.48,1.67,3.23,1.43,6-.23,2.51-.47,4.78-2.27,6.33-2.27,1.79-6.81.24-7.53,0a24.68,24.68,0,0,1-3.94-1.91c-1.67-1-1.91-1.43-2.63-1.32-1.19.24-1.31,1.68-3.11,4.07a11.32,11.32,0,0,1-3,2.51,7.73,7.73,0,0,1-4.78,1.43,6.19,6.19,0,0,1-4.07-1.19c-1.43-1.08-1.43-1.56-3.58-4.43a5,5,0,0,0-2.87-1.91c-1.32-.36-1.55.12-3.83,1-1.43.48-4.42,1.67-6.45.6a7.24,7.24,0,0,1-3.35-4.78c-.11-1.92,1-3.83,1.44-5.5.24-.72.48-1.32.72-1.91h-1.2a15.64,15.64,0,0,0-1.67,3.7,10.51,10.51,0,0,0-.6,5.14c.12.48.72,3.35,3.11,4.54s4.78.36,6.45-.12c2.51-.72,3.23-1.79,4.78-1.43.84.24,1.55.95,2.75,2.39,2.39,2.87,2.39,3.22,3.94,4.3a7.83,7.83,0,0,0,4.31,1.2,10.32,10.32,0,0,0,5.49-1.2,14.09,14.09,0,0,0,3.35-2.63c2-2.39,2.15-3.82,3.47-4.06.71-.12,1.07.36,2.86,1.31a25.94,25.94,0,0,0,4.31,1.91c.71.24,4.18,1.08,6.57-.71,2-1.56,2.27-4.07,2.63-6.58A14.39,14.39,0,0,0,1576.88,621Z"/><path class="cls-10" d="M1469.2,551.32a23.18,23.18,0,0,1,5-2.63,17.88,17.88,0,0,1,4.07-1.31,41,41,0,0,1,4.9-.72c4.54-.48,3.82-.6,5.37-.72,1.32-.12,1.32,0,7.17.36a31.63,31.63,0,0,1,5,.36c1.92.24,3.59.6,4.66.84"/><path class="cls-10" d="M1635.44,553.83a23,23,0,0,0-5-2.63,17.76,17.76,0,0,0-4.06-1.31,41.32,41.32,0,0,0-4.9-.72c-4.54-.48-3.83-.6-5.38-.72-1.31-.12-1.31,0-7.17.36a31.75,31.75,0,0,0-5,.36c-1.91.24-3.58.6-4.66.84"/><path class="cls-10" d="M1652.89,627.33a16.53,16.53,0,0,1-1.43,4.3,13.7,13.7,0,0,1-1.56,2.75,21.08,21.08,0,0,1-2.51,2.63c-2.39,2.39-1.91,2.15-2.75,2.87a42.87,42.87,0,0,1-4.42,2.87c-1.91,1.19-2.27,1.43-3.11,1.91-1.31.6-2.51,1.07-3.22,1.31"/><path class="cls-10" d="M1448.41,628.64a16.25,16.25,0,0,0,1.43,4.31,13.67,13.67,0,0,0,1.56,2.74,20.34,20.34,0,0,0,2.51,2.63c2.39,2.39,1.91,2.16,2.74,2.87a45.51,45.51,0,0,0,4.43,2.87c1.91,1.2,2.27,1.43,3.1,1.91,1.32.6,2.51,1.08,3.23,1.32"/><path class="cls-12" d="M1585.51,818.27h-80.28a2.46,2.46,0,0,0-2.47,2.47v27.43a2.45,2.45,0,0,0,2.47,2.47h80.28a2.44,2.44,0,0,0,2.46-2.47V820.74A2.54,2.54,0,0,0,1585.51,818.27Z"/><polygon class="cls-12" points="1525.99 850.64 1520.47 850.64 1515.1 850.64 1515.1 858.63 1525.99 850.64"/><path class="cls-13" d="M1521.05,832.5l-1.88-.58a2.06,2.06,0,1,1,1.3-3.92l1.89.58a1.29,1.29,0,0,1,.87.58l1.16-2.47-2.17-1.16-2.18-.44a4.49,4.49,0,0,0-5.37,3.2l-.15.58a4.48,4.48,0,0,0,3.2,5.37l2.75.73,1.31-2.76C1521.49,832.64,1521.34,832.64,1521.05,832.5Z"/><path class="cls-13" d="M1518.15,834.53l1.89.73a2.25,2.25,0,0,1,1.3,2.61,2.33,2.33,0,0,1-2.61,1.3l-1.89-.72a5.41,5.41,0,0,1-1.45-1l-1.88,2.62,1.45,1,1.3.87,1.31.44,1,.14c2.32.73,5.51-1.45,6.09-3.77l.15-.58a4.51,4.51,0,0,0-3-5.52l-2.76-.72-1.3,2.61Z"/><rect class="cls-13" x="1527.73" y="825.53" width="3.77" height="16.55"/><rect class="cls-13" x="1540.22" y="825.53" width="3.77" height="16.55"/><rect class="cls-13" x="1563.88" y="825.53" width="3.77" height="16.55"/><polygon class="cls-13" points="1554.88 826.98 1553.86 829.74 1549.36 842.08 1545.73 842.08 1551.83 825.82 1553.71 826.55 1554.88 826.98"/><polygon class="cls-14" points="1561.99 842.08 1558.51 842.08 1553.86 829.74 1552.84 826.84 1553.71 826.55 1555.89 825.67 1561.99 842.08"/><rect class="cls-13" x="1551.83" y="825.53" width="4.21" height="1.89"/><rect class="cls-13" x="1550.38" y="835.98" width="7.98" height="3.05"/><polygon class="cls-13" points="1543.26 839.61 1540.36 842.22 1530.92 830.17 1528.75 827.42 1529.62 826.84 1531.51 825.53 1543.26 839.61"/><polygon class="cls-13" points="1578.25 842.08 1569.39 831.34 1566.78 833.51 1573.89 842.08 1578.25 842.08"/><polygon class="cls-13" points="1573.46 825.53 1566.78 833.66 1569.25 835.69 1577.52 825.67 1577.23 825.53 1573.46 825.53"/><path class="cls-15" d="M1585.51,786.05h-95.08a2.44,2.44,0,0,0-2.47,2.46V816a2.44,2.44,0,0,0,2.47,2.47h95.08A2.45,2.45,0,0,0,1588,816V788.51A2.44,2.44,0,0,0,1585.51,786.05Z"/><polygon class="cls-15" points="1506.97 818.42 1501.6 818.27 1496.09 818.27 1496.09 826.26 1506.97 818.42"/><path class="cls-16" d="M1501.6,794.47c0,5.37.15,10.74.15,16.11v.14"/><polyline class="cls-16" points="1508.13 794.17 1501.31 794.17 1501.31 810.72 1505.38 810.72 1505.38 805.06 1509.73 805.06"/><polyline class="cls-16" points="1507.55 801.87 1505.23 801.87 1505.23 797.22 1507.7 797.22"/><rect class="cls-17" x="1501.31" y="794.18" width="4.06" height="16.55"/><rect class="cls-17" x="1530.78" y="794.18" width="4.06" height="16.55"/><rect class="cls-17" x="1570.99" y="794.18" width="4.06" height="16.55"/><rect class="cls-17" x="1567.25" y="794.16" width="11.47" height="3.34"/><polygon class="cls-17" points="1537.17 794.17 1537.17 794.9 1543.26 808.55 1547.04 806.8 1541.38 794.17 1537.17 794.17"/><polygon class="cls-17" points="1554.44 794.17 1554.44 794.47 1548.49 807.97 1544.86 806.08 1549.8 794.17 1554.44 794.17"/><polygon class="cls-17" points="1542.39 806.66 1548.78 806.8 1547.18 810.72 1544.13 810.72 1542.39 806.66"/><polygon class="cls-17" points="1560.97 795.77 1560.1 798.38 1555.46 810.72 1551.97 810.72 1557.92 794.61 1559.81 795.19 1560.97 795.77"/><polygon class="cls-17" points="1568.23 810.72 1564.6 810.72 1560.1 798.38 1558.94 795.48 1559.81 795.19 1562.13 794.47 1568.23 810.72"/><rect class="cls-17" x="1557.92" y="794.18" width="4.21" height="1.89"/><rect class="cls-17" x="1556.47" y="804.63" width="7.98" height="3.05"/><path class="cls-17" d="M1508.57,794.18h-2.32a4.58,4.58,0,0,0-4.65,4.64v1.45a4.6,4.6,0,0,0,4.65,4.65h2.32a4.6,4.6,0,0,0,4.65-4.65v-1.45A4.59,4.59,0,0,0,1508.57,794.18Zm.58,5.37a2.23,2.23,0,0,1-2.18,2.17h-1.45v-4.5H1507a2.27,2.27,0,0,1,2.18,2.33Z"/><rect class="cls-17" x="1515.54" y="794.18" width="4.06" height="16.55"/><path class="cls-17" d="M1522.51,794.18h-2.33a4.58,4.58,0,0,0-4.64,4.64v.87a4.59,4.59,0,0,0,4.64,4.65h2.33a4.59,4.59,0,0,0,4.64-4.65v-.87A4.58,4.58,0,0,0,1522.51,794.18Zm1.16,5.37a2.23,2.23,0,0,1-2.18,2.17H1520v-4.5h1.45a2.27,2.27,0,0,1,2.18,2.33Z"/><path class="cls-17" d="M1522.36,801.58a1.9,1.9,0,0,1-.87.14H1520v-3.19l-3.2,2.32,7,10h4.65l.29-.15Z"/><path class="cls-18" d="M1425.22,542.48c-3.22-5.38-6.69-11.24-8.6-18.53a48,48,0,0,1-1.32-16.37,74.7,74.7,0,0,1,4.78-20.2c2.63-6.81,4.19-8.12,3.83-12.07-.48-4.9-3.35-7.17-2.15-11.11.83-2.87,2.63-2.51,4.3-5.62,2.63-4.9-.84-7.77.48-15.42.36-2.63,1.19-7.76,5.14-11.11a38,38,0,0,1,8.12-4.78c2.27-.48,5-1.55,6-3.83,1.55-3.7-3-6.93-1.67-11.59,1-3.46,4.66-5.61,6.93-6.93a56.14,56.14,0,0,1,7.77-3c1.67-.59,6.93-2.27,5.13-1.67-1.91-5.5-1.07-11.47,2.63-15.42,5-5.61,13.87-5.85,14.58-4.3.48,1-1.67,3.35-2.63,3-1.19-.36-.71-5.5,0-8.61.72-3.34,1.2-5.49,3-6.93.6-.48,1.79-1.19,9.44-.83,3.35.12,6.46.47,9.44.83,7.29.84,7.29,1.2,8.13.84,5.5-2.39,2.63-15.06,7.77-16.73,2.15-.72,4.78.83,5.62,1.31,3.58,2.15,3.22,5.14,5.14,5.62,3.94.84,7.88-12.19,12.9-11.59,1.68.12,2.87,1.67,4.78,3.82,3,3.59,2.39,5.38,3.83,6,3.7,1.55,8-8.73,15.89-8.61a20.54,20.54,0,0,1,7.29,1.67c3.59,1.44,3.83,2.63,5.62,2.63,3.35-.24,4.9-3.1,8.13-6.93,2-2.39,7.64-3.34,10.15-1.91,3.23,2,1.68,7.89,3.59,7.89,2.27,0,3.23-7.53,6.33-7.89,1.8-.24,6,1.55,7.29,2.87,2.39,2.27-.83,5.62,1,7.17,1.43,1.19,4.54,5.74,7.29,1.67,4.66-6.93,3.11-4.54,4.06-5.85s9.09-9.92,10.4,1.67c.36,2.75,0,7.65-1,8.25-1.55,1.07-6.09-1.8-1.91,3.58,1.8,2.27,3.11,3.94,5.62,4.78,0,0,1.55.48,8.13,0,3.82-1,6.93-1.91,9-2.63,2.75-1,3.82-1.43,5.62-1.31,2.86.12,4.9,1.55,6.93,3,2.39,1.67,4.9,3.46,5.62,6.45.59,2.39-.36,4.3.47,4.78,1.08.6,2.87-2.51,5.14-2.15,1.79.36,2.87,2.75,3.83,4.78,1.43,3.11,1,4.54,2.15,5.14,1.67.83,3.22-1.8,6.93-2.63,4.18-.84,8.6,1.19,11.11,3.82a9.68,9.68,0,0,1,3,5.14c.6,3-1,4.42,0,5.62,1.32,1.67,4.9-.84,10.28,0,1,.12,6.81,1.19,8.6,5.14.24.48,0,.12.48,6.93,0,0,.12,1.67.72,6,0,.24,0,.36.12.48.72,2.15,4.42,2.75,6.45,3,4.54.6,5.14-.48,7.77.48a9.11,9.11,0,0,1,4.78,3.82c1.79,3.23-.48,5.14.84,8.13,1.67,3.82,6.21,2.51,9,6.93a9.85,9.85,0,0,1,.84,8.61c-1.92,4.42-6.93,5.37-7.77,5.61a12,12,0,0,1-9.92-2.63c-2.51-2.15-1.91-3.82-4.3-5.14-2.63-1.55-4,.12-8.13-.83-4.78-1.08-6.45-4-8.13-3-1.31.72-1.79,3.23-.83,4.78,1.19,1.91,3.7.84,5.61,2.63,2.75,2.63-.47,7.65,1.68,9.44,2.39,2,7.77-3.11,11.11-.84,2.51,1.68,1,5.14,3.47,6.94,3,2,6.69-2.27,10.75-.48,3.23,1.43,4.43,6,5.14,8.6,1.56,5.86-.48,8.25,1.68,10.76s4.78.83,6.93,3.46c1.91,2.27.36,4.31,1.67,8.13,1.43,4.18,3.94,3.83,7.29,8.61,1.32,1.91,5,7.17,3.82,12.42s-6.09,5.86-6,9.92c.12,3.59,3.94,4.07,6.45,10.28,1,2.39,2.39,5.74.84,8.13-1.91,3.23-8.37,3.82-12.07,1.31-2.51-1.79-3.59-5-5.62-11.59-1.19-3.94-.83-4.18-1.67-5.14-3-3.7-8.25-1.55-11.12-5.14-2.27-2.75-1.19-6.45-1.67-6.45-.84,0-4.3,8.6-.84,15.42,1.68,3.46,3.35,3,5.62,6.93.6.95,4.18,7.29,2.15,13.26s-7.88,6-8.6,11.12c-.24,1.43,1,4.42,3.46,10.28,3.11,7.41,3.71,8,3.47,9.91-.72,4.67-5.62,4.67-6.93,9.45-1.56,5.61,4.3,9.32,2.15,13.74-1.2,2.51-3.11,1.55-6.45,5.14a20.51,20.51,0,0,0-4.78,9.44c-1.2,6.1,1.55,7.53-.48,11.11-1.44,2.51-3.11,2.51-6,6.94a25.46,25.46,0,0,0-2.15,3.82c-2.15,4.9-.72,7.05-2.63,9s-5.26,2.15-7.77,1.32c-4.06-1.44-5.85-6.1-5.61-9.44.35-5.5,6-7.77,5.14-9.44-1.08-2.16-12.91-1.68-17.57,5.13-4.19,6.1,0,13.39-4.3,16.38-3.59,2.51-8.73-1.2-11.12,1.67-1.31,1.55-.12,2.75-.84,7.29-.47,2.63-1.07,6.33-3.82,9-2.15,2-6.45,4.19-10.28,2.63a9.17,9.17,0,0,1-5.14-6.93c-.36-2.63.84-3.58,0-5.62-1.19-2.62-3.94-2-5.14-4.3-1.91-3.34,2.39-7.77.84-9.44s-6.21,2.15-8.6.48c-2.87-2-.6-10,1.67-18.05,2.15-7.65.48-9,2.15-15.77,2-8.25,5.38-10.88,5.14-13-.6-5-2.75-6.45-3-10.75-.24-5.14,4.54-6.7,3.83-11.12,0-.24-.48-1.07-1-2.27-.72-1.55-1.43-2.63-1.55-2.87-1.44-2.27-3-9.08,0-13.74,1.91-2.87-3.95-2.27-3.35-4.42.72-3.11,2.39-4.43.36-9.8-1.68-4.54,1.19-8.13-.84-9.92-1.79-1.56-4.06.83-7.77-.48-3.94-1.44-5.49-5.74-6-6.93-.36-1-2.27-5.86,0-9.44,1.67-2.63-3.83,3.7,1.31-1.2.48-.36-1.43,2.39-5.61,1.44-.72-.12-5.26-1.44-7.29-4.31s1.55-3.46-.24-6-6.1,3.58-9.21,3c-1.31-.24-5.13-8.73-12.42-6.7s-8.49.6-12.43,0c-4.31-.71-7.29-4.3-9-6.45a14.92,14.92,0,0,1-3.46-6.93,25.68,25.68,0,0,1,0-4.3c0-1.56-4.54,1.79-6.81-1.56s-3.59-8.36-7.3-9.56c-7.4-2.39-6.81-3.94-11.23-6.09-4.9-2.39-8.48-7.77-9.44-12.91-1.2-6.57.48-5-2.75-5.62-4.66-.84-6.45-1.07-12.67.48-2.51.6-4.3-1.2-15.41-1-12.91.24-12.67,5.86-15.42,5.62-6.45-.72-6.45,4.9-12.55,5.14-5.74.24-2.75.6-5.86,3.11-3.34,2.75-4.78-1.56-7,3.82-1.07,2.75-2.39,10.4-8.72,12.55s.84,8.13-1.43,10.52-5.62-4.9-6.82,4.54c-.12,1.43-1.79,5.38-3.34,8.72-1.8,3.83-1.2,3.83-2.15,6.58-1.92,5.37,1.79,9.79-.6,14-1.32,2.39-4.3,1.31-4.54,3.22-.24,2.51-1.32,1.32.12,5.14,1.55,4.19-1.2,9.56-1.2,9.56a29.83,29.83,0,0,0-1.19,9.68c.23,6,1.07,8.85-.12,12.43-.84,2.63,1.07,9-1.68,9-3.94.12-11-9.21-11.23-9.92-3.35-7.41,1.79-12.31-1.32-20.68C1428.69,547.14,1428.57,548.09,1425.22,542.48Z"/><path class="cls-19" d="M1455.34,444.24c.6,1.08,3.35-.6,6.93-.24,5.74.6,9,6,10,5.14s-3.11-6-.84-9.68c.36-.48.72-.84,1-1.2,1.79-1.67,4.06-2.15,7.41-2.27,6.45-.24,7.53,1.32,8.84.24,1.91-1.55-.12-4.78,1.08-13.26.36-2.63.84-4.66,2.39-6.46a7.29,7.29,0,0,1,4.3-2.86c3.47-.6,5.62,2.62,7.17,1.67,1.32-.84-.24-3.71,1.44-5.5s4.06.12,6-1.43c2.39-1.92-.24-5.74,2.63-10.28a12.45,12.45,0,0,1,2.75-3,13.4,13.4,0,0,1,5-2.39c4.78-1.31,5.85.72,8.84-.84.6-.35,1-.59,4.42-2.63.24-.11.6-.35,1.32-.71,3.23-1.91,3.58-2,4.9-2.87a23.29,23.29,0,0,0,2.63-1.67,22.59,22.59,0,0,1,3.94-2.15c3.59-1.08,6.22,1.79,7.17.83s-.6-4.9-3.11-5.73c-1.55-.48-2.5.59-6,2-5.26,2.15-5.74.83-8.61,2.63-4.42,2.63-4.54,6.57-7.17,6.57s-3.22-3.35-6.33-3.47c-.48,0-1.79,0-4.54,2.27-6.1,4.9-6,9.21-9.68,10-2,.48-3-.71-5.5.24a6.41,6.41,0,0,0-3.46,2.87c-1.08,2.15.35,3.82-.84,5.5-.48.6-1.2.83-2.63,1.43-4.06,1.56-5.26.72-6.93,2a7.06,7.06,0,0,0-2.27,4.55,16.49,16.49,0,0,0,0,3.46c.12,2.75.24,6.93-1.44,7.77s-3.82-2.15-5.49-1.2c-.84.48-1,1.68-1.2,2.87-.36,2.27.6,3,0,4.3a4.55,4.55,0,0,1-2.87,2.28,5.53,5.53,0,0,1-3.46,0,6.73,6.73,0,0,1-3.71-3.11c-1.55-2.75-.48-5.62,0-7.17s1.08-3.11,2.27-3.71c2.15-1.19,4.07,1.08,6.34,0,1.79-.95,2.27-3.34,2.63-4.54.71-3.35-.84-4.66.23-6.33.72-1.08,2-1.44,4.9-2.27,3.11-1,4.19-.72,4.31-1.2.12-.95-5.62-3.7-10.88-2-1.19.36-3.58,1.19-4.3,3.11s.84,3.46,0,4.9c-.72,1.19-2.75,1.31-6.93,1.67-3.23.24-3.59,0-4.3.6-2.51,1.79-2,7.17-2,7.77.12,2,.72,3,0,4.06-.59.84-1.55,1.07-3.1,1.43-2.51.6-3,0-4.55.6a6.91,6.91,0,0,0-4.06,3.47c-.6,1.55-.84,3.94.24,4.9,1.31,1,3-.72,5.14.24a4.16,4.16,0,0,1,2,2.27C1458.09,440.42,1454.5,443,1455.34,444.24Z"/><path class="cls-19" d="M1505.18,454c-1.56-3.71,5-9.8,12.42-16.73a21.25,21.25,0,0,1,9-5.62c1.91-.48,5.38-1.55,9,0,4.66,1.91,6.57,6.57,6.93,7.29,1.44,3.59.48,5.62,2.63,7.77,1,1,1.32.6,4.3,2.15,3.35,1.79,5.74,3,6.46,5.14a5.33,5.33,0,0,1-.84,5.14c-2.75,3.11-9.8-.24-17.57-2.15C1518.32,452.25,1507.09,458.46,1505.18,454Z"/><path class="cls-19" d="M1601.86,371.7h0c-.48-.6-1-1.32-1.44-1.92a23.39,23.39,0,0,0-6.45-3.46c-2.87-.84-5.38-.12-7.77.48a21.42,21.42,0,0,0-7.29,3.46c-4.18-1.43-5.14-1.31-5.14-1.31-1.07.12-2.63.72-4.3,3h2.27a7.62,7.62,0,0,1,3.35-.72,9.84,9.84,0,0,1,3.35.6h4.18a4.77,4.77,0,0,1,1.79-.36,10.12,10.12,0,0,1,1.79-.48c.12,0,.36-.12.48-.12a8.36,8.36,0,0,1,4.42-1.19,7,7,0,0,1,2.75.47,7.75,7.75,0,0,1,5,1.8Z"/><path class="cls-19" d="M1625.88,369.43h.12a7.23,7.23,0,0,1,3.23.71,6.34,6.34,0,0,1,2.27,1.32h3.22a47.26,47.26,0,0,0-4.78-5.14,15.21,15.21,0,0,0-8.6-2.15,16.12,16.12,0,0,0-10.28,3.46,15,15,0,0,0-3.23,4.07h2.39a6.45,6.45,0,0,1,1.92-1.2,8.26,8.26,0,0,1,4.78-1.79,7.8,7.8,0,0,1,3.82-.84A8.2,8.2,0,0,1,1625.88,369.43Z"/><path class="cls-19" d="M1625.4,411.37c1.32,0,1.56-1.67,3.71-2.86.36-.24,2.75-1.56,4.9-.84,2.39.84,1.91,3.58,4.3,4.9,1.79,1,2.87-.12,8-.6,4.06-.36,6.81-.6,8.6,1.2,1.2,1.07,1.44,2.51,1.67,4.54A19.2,19.2,0,0,1,1656,426c-.72,3.11-1.44,4.07-.84,4.9.84,1.08,2.63,0,6,.84a9,9,0,0,1,4.3,2.27c.48.48,1,1.2,1.67,7.17.6,4.19.48,4.9,0,5.74-.84,1.31-1.91.95-3.11,2.63a6.42,6.42,0,0,0-1.43,4.06c0,1.67.72,2.27,1.2,3.71,1.07,4.18-2.75,8.36-2.28,8.6s1.8-2.27,2.28-2,.23,4.42-2.28,6.33c-2.27,1.68-4.9.84-5.13,1.68s1.79,2.39,4.06,2.86c3.46.72,5.38-1.79,7.41-.59,1.31.71,1.67,2.27,2,3.46.12.24,1,4.07-1.2,6.58-1.67,2-3.94,1.91-4.06,2.86s2.75,1.08,4.54,3.47a8.15,8.15,0,0,1,1.2,6c-.48,2.15-1.79,2.74-1.44,3.46.48,1,3.59-.24,8-.84,3-.47,4.78-.83,7-.47,1.91.24,3.35.36,3.83,1.43,1,1.91-3.23,4.54-2.27,7.17.71,2.15,3.7,1.91,4.06,3.71.36,2-2.63,5-5.74,5.73-.12,0-1.55.12-4.3.24-3.23.24-3.94.24-4.54.84-1.08,1.19,0,2.51-.84,3.7-1.07,1.32-3.34.48-8,.24-6.34-.24-7.29,1.08-9.69-.24s-2.74-3.1-5.13-3.7c-1.08-.24-1.08.24-4.9.83-2.39.36-2.16.12-4.9.6-1.08.12-2.27.84-3.47.36a.37.37,0,0,1-.24-.12c-1.31-.72-1.43-2.63-1.67-4.54-.48-3.82.48-5.26-.6-6.33a4.12,4.12,0,0,0-3.7-.6c-1.32.36-1.68,1.31-2.27,1.19s-.6-1.55-1.44-4.3A7.66,7.66,0,0,0,1627,502c-.48-.48-1.32-1.19-6-1.67-3.7-.36-4.42-.12-5.14-.84s-.48-1.19-.84-5.14c-.35-3.7-.59-4.18-.83-4.54-1.2-1.55-3.47-1.67-5.5-1.67s-3,.24-5.5.6c-1,.12-1.19.12-8,0a37.25,37.25,0,0,1-8.25-.6c-3-.6-3.59-1.2-4.06-1.67-.72-1.08-.36-2-.24-5.74.12-5.26-.48-6.09-.84-6.57a5.29,5.29,0,0,0-3.7-1.2c-2,.12-2.39,1.08-4.9,2a17.39,17.39,0,0,1-6.93.6,27.42,27.42,0,0,1-4.9-.84c-3.95-1.19-5.5-3.22-6.34-2.62s0,3,.24,3.7a8.28,8.28,0,0,0,3.47,4.54c2.15,1.32,4.3,1.2,6.57,1.2,3.82-.12,4.9-1.32,6.57-.6s1.2,2.15,3.11,5.14a11.19,11.19,0,0,0,2.87,3.46c2.63,1.68,4.78.12,6.33,1.68,1.32,1.43.12,3.22,1.44,4.3.71.6,1.43.36,5.49,0,4.31-.48,4.78-.36,5.14,0,1.08,1.19-.6,3.35-.24,6.93.12,1.32.36,3.94,2.27,5.5,1.32,1.07,2.75,1.07,4.55,1.19,4.18.12,5.61-1.31,8.84-1.43,2.51-.12,4.3.6,7.17,1.67,4.78,1.91,6.93,3.83,13.74,8.61,10.16,7,11.48,7,14,10.63,2.74,3.71,2,4.78,4.9,7.41,4.54,4.31,8.6,3.59,10,7.17s-1.67,6.82-.23,8,4.66-.72,6.33-2.27a7.92,7.92,0,0,0,2-2.87,4.89,4.89,0,0,0,.48-2c.24-3.23-2.39-4.3-2-6.57.36-2,3-3.23,3.46-3.47,1.92-.83,2.51-.12,3.71-.83,2.15-1.44.6-4.55,2.63-6.58,1.31-1.43,2.51-.48,7.77-2,2.86-.84,4.18-1.19,5.49-2.27,2.15-1.91,2.63-4.54,3.11-7.17.36-2.15.72-3.71,0-5.5-.84-2-2.51-2.51-4.06-3.7-5.62-4.66-1.92-14.22-6.34-16.38-2.15-.95-3.82.72-5.14-.59s-.23-3.23,0-8.85c.12-4.9-.59-4.9,0-7.77.72-3.46,2.27-5,1.44-6.33s-2.87-.24-4.54-1.67a5.81,5.81,0,0,1-1.2-5.74c.84-2.27,2.51-2,4.3-4.9a7.34,7.34,0,0,0,1.44-5.74,5.85,5.85,0,0,0-2.63-3.7c-1.67-1.08-2.51-.24-3.71-1.2-2.27-1.67-1.79-5.85-1.67-6.93.24-2.63,1.08-2.87,1.2-5.14,0-.83,0-4.18-2-5.73s-4.18.36-6.33-1.2c-1.31-1-1.67-2.75-2.27-6.33s-.12-4.54-1.2-6-2.62-2.15-4.9-2.87a15.28,15.28,0,0,0-8.6-.83c-3.35.72-4.18,2.39-6.33,1.67-1.2-.36-1.2-.95-3.11-2.63s-4-3.22-6.34-3.11c-2,0-2,1.32-5.73,2.63-2.51.84-3.71.6-4.07,1.44C1622.06,409.1,1623.85,411.37,1625.4,411.37Z"/><path class="cls-19" d="M1665.56,471.37c0,.48,5-.12,6.69,2.63s-2,6.69-.48,9,5.62-.36,11,1.91c.83.36,5.73,2.51,6.69,6.46,1.19,5-4.66,8.72-3,13.14.84,2,2.51,3.47,3.23,3.23,1.31-.6-1.79-7.53.48-9.2,1.55-1.2,3.7,1.43,7.88,1.07,3.35-.24,7.17-2.39,7.29-4.78.12-1.67-1.67-3.1-3.82-4.78-5.14-3.82-7.53-2.75-9.68-5.62-2.51-3.34-.72-7.17-2.75-8.12s-4.18,2.75-7.53,2.15-3.11-4.42-7.29-6.69C1670.1,469.7,1665.56,471,1665.56,471.37Z"/><path class="cls-19" d="M1672.13,563.27c-.72-.95,1.08-4.42,4.18-5.73a7.57,7.57,0,0,1,6.34.47,8.77,8.77,0,0,1,4.18,4.78c.84,2.39-.12,3.59,1,5a5.15,5.15,0,0,0,3.7,1.68c.84.12,2.63.24,3.59-.72,1.31-1.32,0-3.11,1.19-4.54s4.18-1.2,5.86-1,4.3.6,5.85,2.63c1.2,1.55.48,2.39,1.56,6,1,3,1.43,4.9,3,5.85,2.27,1.44,4.06-.71,8.48.12a14,14,0,0,1,6.57,3.35c2.27,2.15,1.8,3.23,4.31,5.5s4.3,2.39,4.42,3.7c.12,1.79-2.87,2.51-2.75,4.06.24,2,6.33,1.68,7,4.19.48,1.91-2.51,5.26-4.54,4.9-2.27-.48-1.44-5.38-5.62-12.31a31.3,31.3,0,0,0-5.5-6.46,15.57,15.57,0,0,0-7.17-3.7,3.84,3.84,0,0,0-2.63.12c-1.19.83-.71,3-.11,7.29,1,7.41.59,8,.23,8.13-1.55,1-6.33-4-6.93-4.43-3.7-3.7-3.58-5.73-6-6.45-2.87-.84-4.42,1.55-6.58.24-1.67-1-2.27-3.23-2.74-4.78-.48-1.91-.12-2.15-.72-3.83a6.79,6.79,0,0,0-2.75-4.06c-1.55-.84-2.27.12-5-.48-1.31-.24-3.59-.71-4.42-2.27-.6-1.19.24-1.79-.12-4.06-.12-.48-.6-3.59-2.15-4.06-1-.24-1.44.71-3.59.95C1673.33,563.63,1672.49,563.75,1672.13,563.27Z"/><path class="cls-19" d="M1667.35,551.08c2.27-2.51,1.08-1.31,1-2s6.69-3.35,9-1c.6.6.84,2,1.19,5,.48,3.59.12,4.19.84,5.5a7.07,7.07,0,0,0,3.83,2.87c2.39.72,3.34-.36,4.78.6s2.15,3.46,1.31,4.54c-1.43,1.79-6.69-1.2-8,.6-.59.83.48,1.79.12,4.18-.12.6-.48,3.34-2.39,4.18-1.55.72-3.46-.12-4.54-1-1.79-1.44-1.67-3.35-3-3.59-1.07-.12-2,1.08-2.15,1.19-1.19,1.44-.71,3.71,0,5,1.08,2,2.39,1.8,3.35,3.59a6.14,6.14,0,0,1-.72,6.21c-1.55,1.68-3.34.72-6.33,2.87-1.56,1.2-1.8,2-2.39,1.91-1.08-.23-1-3.46-1.44-8.12-.36-3.47-.59-3.35-1.19-8.13-.72-5.5-.6-6.57-.12-7.77.72-1.91,1.55-2.27,3.11-4.78,2.86-4.54,3.22-5.49,3-6.45-.35-2-2.15-2.39-2-3.47C1664.72,550.25,1662.09,556.94,1667.35,551.08Z"/><circle class="cls-19" cx="1666.87" cy="549.29" r="3.82"/><path class="cls-19" d="M1704.85,451.59c-.45,1.21,1.61,2,1.72,4.15.11,2.36-1.88,3.14-1.47,4.81.41,1.5,2.32,2.43,3.93,2.44s1.88-1.36,3.64-1.7c2.18-.44,4.88,1.21,6,3.35.65,1.24.62,2.51.56,4.88-.09,3.31-.9,4.19-.18,5,1.07,1.14,4.08.49,5.9-.44,2.23-1,2.44-2.15,3.71-2.13,2,.08,3.59,2.63,4.33,3.94s2.49,4.37,1.52,7.21c-1,3.26-4.31,3.5-4.28,5.95a3.9,3.9,0,0,0,2.44,3.36c2.15.83,3.74-1.45,5.64-.69s2.88,3.75,2.32,6.15c-.93,3.68-5.87,4.67-5.47,6,.2.67,1.46.52,5,1.29s5.13,1.11,6,2.25c1.61,1.95.38,4.55,1.33,4.93s2.22-3.15,6.1-5.11c2.9-1.41,4.13-.45,5.83-2a7.17,7.17,0,0,0,1.55-8.45,7.42,7.42,0,0,0-8.22-3.76c-1.92.52-2.6,2.16-4,1.88a3.79,3.79,0,0,1-2.43-3c-.48-3,3.27-4.3,3.2-7.6a4.66,4.66,0,0,0-2.66-4.19c-2.22-.57-4.53,2.5-5.24,1.86-.35-.32.27-1.54,1.16-4.12,1.13-3,1.56-4.56,1.43-5.65-.37-2.43-2.83-4.35-4.9-5.1-2.67-1-3.62.43-5.53-.67-2.35-1.32-1.37-4-3.82-5.74s-4.41-.13-5.93-1.83.3-4.41-1.2-5.78-3.36.67-6.7-.28c-2.31-.65-2.29-1.92-4.69-2.48C1708.56,449.64,1705.29,450.22,1704.85,451.59Z"/><path class="cls-19" d="M1703.56,632.47c-3.22-3.23-9.32-3.35-12.91-.48a10.19,10.19,0,0,0-2.39,3.23c-3,6.09.84,11.11-1.55,13.5s-6.69-1.31-9.2,1.08c-1.79,1.67-.24,4.3-.6,11.83-.24,5.5-1.31,9.08-.84,9.2.72.24,1.44-8.36,7.89-13.26,2.87-2.16,4.54-1.92,7-4.79,2.75-3,1.8-4.18,4.31-7.88,4.18-6.1,9.92-7.41,9.44-10.52C1704.76,633.66,1704.28,633.19,1703.56,632.47Z"/><path class="cls-20" d="M1459.16,465.63c0,.24-.71,0-2.74.36a33.3,33.3,0,0,0-5,1.32c-5,1.79-6.1,3.1-6.94,2.62-1.07-.83-.59-4.66,1.68-6.45C1450.44,460.13,1459.28,464.8,1459.16,465.63Z"/><path class="cls-20" d="M1430.84,466.83c1,1.31,5,.24,7.77-1.68.72-.59,3.46-2.51,3.82-5.61a14,14,0,0,0-.83-5.62h0s-2.63-5-4.31-4.78-.83,4.54-3.46,10.76C1432,464.32,1430.12,465.87,1430.84,466.83Z"/><path class="cls-20" d="M1449.72,457c-.71-.72,1-3,0-3.83s-3.22,1-4.78,0c-1.31-.83-1.55-3.58-.48-5.14,1.68-2.39,6.58-2,9.68-.71a3.94,3.94,0,0,0,.72.36c4.78,1.91,8.61-3.59,12.07-2.16,1.79.72,2.51,3,2.63,4.31a5.86,5.86,0,0,1-3.82,6c-2.51.72-3.47-2-6.93-2.15C1454.14,453.32,1450.8,458,1449.72,457Z"/><path class="cls-20" d="M1496.57,431.69c1-.24-.48-7.77,1.67-8.6,1.92-.72,3.71,4.42,8.61,5.14,2.63.35,6-.6,6.93-2.63s-1.43-4-.48-5.62c1.2-1.91,4.9-.12,6.46-2.15,1.43-1.79-1-4.3.47-6,1.56-1.91,5.38.36,7.29-1.67,1.56-1.67-.12-3.83,1.32-5.62,1.79-2.15,5.26.24,10.28-.83,4.18-.84,4.3-3,13.26-8.13,5.38-3.11,6.46-3,6.93-2.63,1.2,1.31-4.3,6.81-2.63,9.44,1.2,1.79,4.19,0,7.29,2.15s1.8,5.62,5.14,7.77a8.23,8.23,0,0,0,6.46.84c2.87-.72,3.34-2.75,5.14-2.63,2.15.12,4.06,2.75,4.78,5.14,1.55,5.14-2.75,8.84-.84,11.11,1.31,1.67,4.78,1.79,6.93.48,2.75-1.91,1.79-5.86,3.83-6.45s5,2.74,5.61,3.46c2.39,2.87,2.15,4.9,3.47,5.14,2,.48,6-3.82,5.62-8.13a8.31,8.31,0,0,0-5.62-6.93c-3.71-1.07-6,2-9.92.48a6.26,6.26,0,0,1-3.47-3c-.95-2,.48-3.34-.48-5.14-1.07-2.27-4.54-2.86-5.61-3,0,0-1.2-.24-6.46.47,0,0-.23-7.05-3.82-9.44-2.39-1.55-4.18.12-6.93-1.67-.6-.36-.84-.72-3.47-4.78-3.22-4.9-3.22-5.14-3.82-5.62-3.35-2.39-8.37-.6-9-.48-3.71,1.32-3.47,3.35-6.94,4.31-3.94,1.07-6-1.2-8.12.47s-.84,4.55-3,6c-2.51,1.79-5.5-1.79-10.76-.48a10.81,10.81,0,0,0-5.14,3c-2.86,3.11-3,7.53-3,9-.12,3.59,1,5,0,6-1.68,1.67-5.86-1.32-7.77.48-1.67,1.55.36,4.66-1.32,6,0,0-.71.6-6.45-.48,0,0-4.42-1.91-6-.83C1490,417.71,1495.14,431.93,1496.57,431.69Z"/><path class="cls-20" d="M1625.4,360.34c2.87-.24,5-.12,6.46-1.67,1.79-1.91,1.79-5.62.47-6.45s-3,1.67-7.29,3a17.07,17.07,0,0,1-8.6.48c-5.86-1.43-7.29-6.33-10.28-5.61-2.75.71-2.87,5-5.14,5.13s-2.63-3.94-6.45-5.13c-3.23-1.08-6.45.59-6.93.83-3.59,1.91-3.11,4.9-5.62,5.62-3.23.84-5-3.83-10.28-3.83a11.79,11.79,0,0,0-5.61,1.68c-3.23,2-3.11,4.18-6.46,6-1.43.84-3.7,2-5.61,1.32-3-1.2-1.68-6.22-5.62-9-.36-.23-2.75-1.91-5.14-1.31-2,.6-2.27,2.39-5.14,6-2.39,3.1-4.66,5.85-6.93,5.61-2.51-.36-2.75-4.3-5.62-4.78-.95-.12-1.91.24-5.62,3-4.54,3.47-5.25,4.66-7.29,6-3.7,2.51-7.52,2.74-9.91,3-8.49.72-12.08-3.46-15.9-.83-2.27,1.55-3,4.42-3.47,6-1.31,5.38,1.56,8-.47,11.12-1.2,1.91-2.27,1-5.62,3.82-1.79,1.55-4.42,3.83-5.14,7.29-.6,3.11,1,4.18,0,5.62-1.55,2.39-6.09-.24-11.11,2.15s-6.7,8.13-6.94,8.6c-1.19,4.66.12,10.4,2.16,10.76,3.22.48,8.24-13,8.6-12.91s-1.55,3.35-.84,3.83c1,.71,5.86-4.42,6.94-5.62,4.42-4.66,5.49-7.17,6.93-6.93.36.12.83.48,2.15,6.93,1.07,5.26,1.07,6.21.48,6.93-1,1.08-2.51.12-5.14.48a13.32,13.32,0,0,0-7.77,3.82c-4.42,5-1.91,15.06.48,15.42.95.12,1.43-1.19,5.61-6,3.35-3.83,3.23-3.23,5.14-5.62a45.56,45.56,0,0,0,6.93-12.07,24,24,0,0,0,1.68-7.29c.24-4.78-1.32-8.49-.84-8.61s1.91,6.7,6,7.77c2.39.6,5.61-.72,6.45-3a4.66,4.66,0,0,0-.72-4.18c-.83-1.19-1.91-1.43-1.91-1.79.24-1.08,9.44,1.79,11.59-1.32,1.8-2.51-3.1-6.93-1.31-9.92,1.55-2.51,6.69-2.27,10.76-2.15,5.25.24,6.45,1.44,9,.48,3.34-1.31,2.63-3.94,6-6,4.19-2.51,6.82.47,12.43-1.68,4.54-1.67,3.71-3.94,8.13-5.61,2.39-1,6-.72,12.91-.48,7.17.36,7.88.83,9.92,0,3.94-1.56,3.58-3.95,7.76-5.62.6-.24,5.5-2.15,9.92,0,3.59,1.67,3.23,4.3,6,5.14,3.11,1,4.54-1.91,11.59-4.78C1615.12,362.61,1619.55,360.82,1625.4,360.34Z"/><path class="cls-20" d="M1572.1,375.76c0,2.27,5.86,4.9,7.77,3.47,1.67-1.2.24-5.26,1.31-5.62.72-.24,1.32,1.91,3.47,3,2.87,1.43,5.26-.84,6.93.47s-.6,5,1.32,7.3c1.67,2,6,2.15,7.76.47,1.56-1.55.36-3.58,1.68-4.78,1.67-1.43,4.06,1.32,8.6,1.32,3.35,0,3.59-1.44,10.28-3,3.58-.84,5.38-1.2,6.93-.48,2.87,1.44,1.91,4.9,4.78,6.46s5.14-1.32,8.61,0c4.42,1.67,4.06,7.88,6.93,8.12,3.82.36,6.81-10.87,10.75-10.28,1.56.24,1.32,1.92,3.83,3.47,3.82,2.39,6.57-.12,9.44,1.67,4.06,2.63,1.43,9.68,5.14,11.6,2.75,1.43,4.78-2,9-.84,3.83,1.07,3.47,4.18,7.77,5.62,4.06,1.31,6.09-1,8.6.83.84.6,1,1.2,3,6,1.79,4.3,2.75,6.33,3.47,6.93,3.34,2.27,7.29-2,10.75,0s1.56,7.53,5.14,9.44c2.51,1.32,4.19-.84,6.93.48,4.19,2,2.63,9,6,10.28,2.87,1.07,7.65-2.27,7.77-5.14.12-3.47-6.46-7.29-6.46-7.29h0s-6.33-.36-10.27-3.47a13.64,13.64,0,0,1-4.31-6.45c-2.15-5.5-.11-7.65-1.67-10.76-3.34-6.69-17.69-7.17-18-6-.12.59,2.62,2.39,3.46,1.67s-.6-5.38-3.82-8.13a13.27,13.27,0,0,0-6-2.63c-6.57-1.31-9.68,1.8-12.91-.47-1.55-1.08-.71-1.8-3.46-4.78-1.44-1.56-3.47-3.71-6.46-4.31-2.5-.47-3,.6-4.78,0-3.34-1.31-2.27-6.09-5.61-8.6-2.27-1.79-5.26-1.32-10.76-.48-5,.84-6.09,2-11.59,2.63-2.63.24-4.3.48-6.45,0-3.71-.72-4.9-2.39-8.61-4.3-3.23-1.68-7.65-3.83-12.07-3-4.78,1-5,4.54-11.11,6a22.58,22.58,0,0,1-6.46.47c-4.66-.36-6.45-1.79-9.44-2.63C1581.3,368.35,1572.1,372.89,1572.1,375.76Z"/><path class="cls-20" d="M1557.52,427.39c3.23,2.15,6.33.24,7.77,2.15,1.55,2.15-1.67,6.09,0,7.77,1.19,1.19,3.11-.36,4.78.83,2,1.56.36,5.14,2.15,6.46,1.55,1.07,4.66-.24,6.45-2.15,3-3.23,2.63-9.32,0-11.12-2.74-2-7.41,1.2-8.6-.48s2.75-4.42,1.67-7.29c-1.19-3.22-7.65-3.58-12.07-3.82-4.18-.24-4.9.48-5.14.84C1553.46,422,1555,425.6,1557.52,427.39Z"/><path class="cls-20" d="M1627.08,414.48c1.67.6,4.06-3.46,6-2.63.36.12.6.48,1.08,1.2A13.91,13.91,0,0,1,1636,417c1.31,3,5.38,1.79,6.93,4.3,1.79,3-2.63,6.46-.84,10.28,1.2,2.63,3.83,2,4.78,4.3,1.44,3.71-4.54,6.22-5.13,12.43s5,8.49,3.46,14.22c-.72,2.51-1.79,2.16-3.82,6.46-1.8,3.7-3.47,7.29-2.15,9.92,1.55,3.1,5.37,1.43,9,5.14,2.63,2.63,3.23,6.09,3.82,9,1.08,5.38-.36,6.69,1.32,9.92s5.38,5.5,6.93,4.78.6-3.94,1.67-4.3c1.32-.36,2.63,3.94,6.93,5.61,1.2.48,2.87,1.08,4.31.48,1-.48,1.55-1.31,4.06-3a2,2,0,0,1,1.08-.47c.83.24.83,1.79,1.79,3.94a11.09,11.09,0,0,0,1.67,3c2,2.27,6.81,2.63,8.13.83,1.67-2.27-1.79-8.84-6.93-11.59-1.2-.6-4.19-2.27-7.29-1.31s-3.35,3.46-5.62,3.46-5.14-2.87-5.14-5.61c0-3,3.23-4.55,2.63-6-.84-1.79-5.74.12-7.29-2.15-1.08-1.55-.36-4.54,1.31-6s3.23-.47,4.78-1.67c2.16-1.91,2-7.41-.47-9s-6.34,1.43-8.13-.48c-1.2-1.2-1.31-4.3-1.31-4.3h0l3.46-6h0c-3.23,6.1,5.14-8.12,5.14-8.12-.24-3-3.59-3.95-3-6,.48-1.67,2.63-1.32,4.3-3.47a7.53,7.53,0,0,0,.84-7.29c-1.79-4.54-7.65-5.14-8.13-5.14-4.18-.35-7.17,2-7.76,1.32-.72-1,4.06-3.71,5.14-9,.11-.48,1.19-5.86-1.68-8.61-3.11-2.87-6.93.48-11.59-2.15-4.18-2.39-3.11-6.21-7.29-8.13-2.87-1.31-7.17-1.19-9,1.32C1624.92,409.94,1625.64,413.88,1627.08,414.48Z"/><path class="cls-20" d="M1656.12,471.73c-.24.59,5.85,2,6.93,6.45.72,3-.84,7.29-.84,7.29h0c6.81-.48,7.29.48,7.29.48.36.72-.24,1.31-1.31,4.3-1.2,3.47-1.92,5.14-1.32,6,1.32,1.91,6.22-1.44,9.44.83,2.75,1.92,3.35,7.41,1.68,11.12-1.8,4.06-5,3.94-6.46,8.12-1.07,3.23-.36,6.94.84,7.29,1.91.6,4.78-6.57,6.45-6,1.44.48-.47,5.62,2.15,10.75.36.6,2.39,4.67,6.46,6,6.09,2,10.16-4.3,15.89-2.15,3.59,1.31,3,4.06,7.29,6,4.66,2.16,11,1.56,12.07-.83s-3.34-7.89-8.6-9.44c-4.3-1.32-6.1.83-10.76-.84-3-1.08-4.9-3-7.29-5.62-.83-1-2.75-2.87-6.93-9.92s-6.45-10.87-6.45-14.22c0-4.42,2.15-4.78,1.67-8.12-.72-6.1-8.36-9.92-15.06-13.27C1662.21,472.44,1656.36,471.25,1656.12,471.73Z"/><path class="cls-19" d="M1439.8,467.54c-1.19.48-.36,2.51-1.91,4.07s-3.58.71-4.54,2.15-.24,3.34.84,4.54,2.27.48,3.7,1.55c1.79,1.32,2.39,4.43,1.55,6.7-.47,1.31-1.43,2.15-3.22,3.7-2.51,2.15-3.71,2.15-3.83,3.23-.12,1.55,2.39,3.34,4.31,4.06,2.27,1,3.22.36,4.06,1.32,1.31,1.55.48,4.42,0,5.85s-1.55,4.78-4.3,6c-3.11,1.43-5.5-.84-7.29.83a3.9,3.9,0,0,0-.84,4.07c.84,2.15,3.59,1.79,4.3,3.7s-.83,4.66-3,5.86c-3.34,1.79-7.4-1.2-8.12,0-.36.6.6,1.43,2.39,4.54s2.63,4.54,2.39,6c-.36,2.51-3.11,3.35-2.75,4.31s3.82-.48,7.89,1.07c3,1.2,3.1,2.75,5.38,3a7.17,7.17,0,0,0,7.29-4.54,7.43,7.43,0,0,0-2.75-8.61c-1.68-1.07-3.35-.47-4.07-1.67a3.79,3.79,0,0,1,.6-3.82c1.91-2.39,5.38-.48,7.77-2.75a4.65,4.65,0,0,0,1.31-4.78c-1.07-2-4.9-1.68-4.9-2.63,0-.48,1.32-.84,3.83-1.91,3-1.2,4.42-1.92,5.14-2.75,1.55-1.91,1.31-5,.48-7.05-1.08-2.63-2.75-2.39-3.23-4.54-.6-2.63,2-3.71,1.67-6.7s-2.87-3.34-2.63-5.61,3.47-2.75,3.47-4.78-2.75-2-4.3-5.14c-1.08-2.15-.12-3-1.32-5.14C1443.75,469,1441.12,467,1439.8,467.54Z"/><path class="cls-20" d="M1423.31,496.94c1.2,3.71,4.9,4.07,4.9,6.34,0,2.75-5,3.82-4.66,6.21.24,1.68,2.75,1.56,3.23,3.59.71,2.51-2.87,4.3-2.15,6.45.59,1.79,3.94,2.63,6.45,2.15,4.42-.83,7.65-5.85,6.69-9s-6.57-3.47-6.57-5.5,4.9-1.91,5.73-4.78c1.08-3.23-3.94-7.53-7.29-10.4s-4.18-2.51-4.66-2.39C1423.31,490.25,1422.35,494,1423.31,496.94Z"/><ellipse class="cls-21" cx="1550.67" cy="672.07" rx="40.66" ry="18.64"/><path class="cls-21" d="M1561.85,648.67a2.51,2.51,0,0,0-1.82.68,15.65,15.65,0,0,1-9.33,3.12,16.93,16.93,0,0,1-9.66-2.76,2.46,2.46,0,0,0-1.64-.6c-16.33,2-26.14,9.32-28.06,15.39-2.8,8.83,17.53,16.54,39.14,16.54s41.46-7.61,39.15-16.54C1587.69,657,1577.92,650.73,1561.85,648.67Z"/><path class="cls-22" d="M1574.86,683l-24.25,2.14L1526.35,683c-8.71,0-15.83-6-15.83-13.32h0c0-8,14.3-15.58,23.49-14.61l16.6,2.58,15.06-2.58c11.74-2.15,25,6.38,25,14.18v.43C1590.69,677,1583.57,683,1574.86,683Z"/><path class="cls-23" d="M1590,664c-9.51,3.08-23.27,3.71-39.06,3.71s-30.15-.61-39.65-3.66c2.39-4.35,9.66-8.1,16.47-9.34h8.91l13.89,1.86,12.6-1.86h12.22C1582.17,656.19,1588.09,660,1590,664Z"/><path class="cls-24" d="M1588.9,662.8c-9.51,2.87-22.21,2.91-38,2.91s-28.5-.07-38-2.91c2.39-4.06,9.19-7,16-8.21h8l14,2.24,13-2.24h12C1582.73,656,1587,659.05,1588.9,662.8Z"/><path class="cls-25" d="M1590.69,668.43v.43c0,7.32-7.12,13.32-15.83,13.32l-24.25,2.14-24.26-2.14c-8.7,0-15.83-6-15.83-13.32a7.83,7.83,0,0,1,.82-3.39c2.39-5,9.66-9.36,16.47-10.8a22,22,0,0,1,4.53-.5,15.19,15.19,0,0,1,1.67.08l2.71.42,13.89,2.16,12.6-2.16,2.46-.42a23.27,23.27,0,0,1,9.76.42c6.83,1.72,12.75,6.1,14.62,10.75A7.76,7.76,0,0,1,1590.69,668.43Z"/><g id="Layer_9" data-name="Layer 9"><path class="cls-26" d="M1547.84,880.09c14.82-1.67,29-1.55,32.51-.48l.36-1c-1.8-1.67-14.82-1.79-33,.36s-32.15,6.45-31.91,8.84l.36.84C1520.23,886.31,1533,881.77,1547.84,880.09Z"/></g></g><path class="cls-27" d="M1464.4,1052.21a34.09,34.09,0,0,1,1.37-9c1.32-3.83,3.48-7.19,4.09-7,.93.36-3.39,8.18,0,13.27,1.24,1.85,3.08,2.73,5,3.66,2.57,1.23,7.92,3,9.15,1.37s-4.16-5.18-6-13.26c-.91-4.1-.52-7.86,0-12.81.7-6.75,1.71-6.55,1.37-9.61-.46-4.11-2.91-7.37-7.78-13.72-4.08-5.34-4.8-5.16-6.4-8.24-1.34-2.57-1.93-4.79-3.2-11.89-1.33-7.4-2-11.1-2.29-14.18-1.11-11.43,1-18.93,1.83-26.08,1.1-9.84-1.68-6.17-5.49-35.22-2.1-16-2-21.63-5.49-26.53-.6-.85-.6-3-.46-6.18.14-2.9,0-4.85,2.29-8s5.89-8.26,6-11c.08-3.88-8.44-9.19-37.51-16-.06,9.29-.16,14.07-1.08,19-.42,2.3,1.07,7.16.62,10.75a85,85,0,0,0-.46,15.55,209.42,209.42,0,0,0,2.29,21c2.43,16.83,3.84,25.22,4.12,27.44,2.28,18.76,3.81,17.8,4.8,26.31,1.13,9.74,1.42,13,2.51,19.9.49,3.07,3.19,7.22,4.73,9.38a3.15,3.15,0,0,1,.3,3.16,41.3,41.3,0,0,1-2.28,4.38c-2.69,4.25-3.78,8.32-6,16.47a64.37,64.37,0,0,0-2.74,20.13c.35,9.68,3,16.49,5,21.5,2.12,5.36,0,1.84,1.59,3.36"/><path class="cls-4" d="M1450.41,872.07l-29-5.57c-3-1.43-5-3.43-5-6.43l5.28-33.11a5.91,5.91,0,0,1,6.74-4.92l27.72,4.35a5.9,5.9,0,0,1,4.91,6.75l-3.65,32.93C1459.23,874.34,1460,875.16,1450.41,872.07Z"/><path class="cls-28" d="M1517.9,211.94c1.28,66-54.46,132.91-113,147.45-37.16,9.22-79.92,13.78-79.92,13.78a82.11,82.11,0,0,0,16.53,78.54,303.58,303.58,0,0,1-103.34-67.52,947.62,947.62,0,0,1-166.74,6.89c-66.24-3.09-99.81-5.68-137.8-23.43-45-21-114.74-75.16-114.37-147.44.33-64.47,56.28-109,78.55-126.77C969.53,36.31,1050.5,34.21,1170,32.81c117.37-1.38,193.34-1.19,263.88,51C1457,100.92,1516.6,145,1517.9,211.94Z"/></g><g id="Lag_1" data-name="Lag 1"><path class="cls-29" d="M661.75,1137.77l1.66,2,8.05-5.34a72.68,72.68,0,0,0,18.88-34.84,118.84,118.84,0,0,0-9.34-55.73,363.54,363.54,0,0,0,24.29-132.79c1.11-15.48,3.06-48.25,1.57-80.07-.5-10.53-1.57-18-3.73-32.92-1.56-10.8-3.1-19.09-7.76-28.57a74.41,74.41,0,0,0-5.9-9.93,410.16,410.16,0,0,0-42.85-11.49c-11.25-2.37-22-4.13-32-5.43l-5.67-38.86-71.28-.22q-3,18.95-5.93,37.89l-16.33,2.8Q455.6,754.4,396.8,762.81l3,52.62A201.91,201.91,0,0,1,466.1,817a197.51,197.51,0,0,1,24.36,6.3c-.89,14.46-1.37,29.87-1.27,46.14.11,17.26.87,33.56,2.06,48.79l-12.56,108.27.78,8.77c0,21.48.87,44.53,2.85,68.93,2.38,29.43,6.09,56.7,10.5,81.57-1.05,3.7-2,7.64-2.82,11.81a148.93,148.93,0,0,0-2.68,32.13c1.54,15.65,3.85,32.53,7.24,50.43,2.73,14.44,5.88,28,9.24,40.58-15.47,21.36-26.4,28.5-33.73,30.88-1.93.62-7.92,2.32-11.67,7.68a20.41,20.41,0,0,0-3.24,12.43,136.21,136.21,0,0,0,29.43,3.52c4,0,7.78-.11,11.36-.38A120.58,120.58,0,0,0,547.74,1363a58.06,58.06,0,0,0-1.08-14.33c-1.43-7-3.47-10.29-6-18.22a112.19,112.19,0,0,1-3.93-16.88c3.19-13.11,6.17-27.15,8.77-42,2.7-15.53,4.69-30.32,6.14-44.25a85.3,85.3,0,0,0-2.44-44A396.14,396.14,0,0,0,560,1112.86a394.46,394.46,0,0,0,.25-44.82l24.32-.78a460,460,0,0,0,17.26,116.12,129.36,129.36,0,0,0-4.71,43.93,273.28,273.28,0,0,0,14.91,87.87,110.6,110.6,0,0,0-12.55,43.94,81,81,0,0,0,43.15,15.69c3.17,1,17.08,4.93,31-2.47a38.53,38.53,0,0,0,13.38-12,28.26,28.26,0,0,0-3.14-6,32.17,32.17,0,0,0-13.66-10.81c-6-2.8-15-9.5-27.54-26.84A364.17,364.17,0,0,0,656.79,1174c3.73-23.63,6.83-49.34,8.78-76.93,2.06-29.2,3.33-45.57,2.21-69-1.41-29.13-2.38-49.3-8.46-73.81-1.76-7.12-5.28-19.92-5.78-37.82-.29-10.6.67-15.81,1.58-26.79,3-36.86-.64-64.74.1-64.78.46,0,1.52,10.81,2.33,20.34,2.28,27.17.05,39.2,7.22,55.14a67.75,67.75,0,0,0,6.14,10.82,51.57,51.57,0,0,0-5.68,8.73,55.59,55.59,0,0,0-5.81,24.08c-.88,25.49,4.24,42.45,5.73,76.8.13,3.1.22,5.62.31,10.67.07,4-1,43.85-2.71,98.49"/></g><g id="tøj"><path class="cls-30" d="M483.34,1107.66q-1-11.6-1.65-23.76a651.89,651.89,0,0,1,1.1-83.46l180.3-2.58q1.35,6.66,2.51,13.51c9.69,57.75,5.64,112.19-5.09,160.78a305.66,305.66,0,0,1-5.26,115.66,6.78,6.78,0,0,1,1,2.34,6.5,6.5,0,0,1,0,2.58,11.12,11.12,0,0,1-3,6.9c.13,1.69.26,3.37.4,5a18,18,0,0,1-8.54,2.31,15.94,15.94,0,0,1-2.76-.23c-3.24-.54-12.88-.78-35.42-.23a7.77,7.77,0,0,1-1-4.15,7.89,7.89,0,0,1,1.38-4.15,19,19,0,0,1-1.84-2.77,19.48,19.48,0,0,1-1.85-4.84l.7-5.77c-3-17.7-4.71-32.63-5.75-43.85-1.6-17.3-1.53-25.1-.71-32.94a125.85,125.85,0,0,1,5.15-24.72,317.42,317.42,0,0,1-16.76-115.79,37.62,37.62,0,0,1-24.64.49,257.38,257.38,0,0,1-9.36,113.82,94.41,94.41,0,0,1,5,22.74c1.4,15-1.42,24.09-6,52.58-1,6-2.42,15.45-4,27.18l1,5.42a5.82,5.82,0,0,1-1.64,4.06,5.54,5.54,0,0,1-2.3,1.36,5.82,5.82,0,0,1,1.6,2.56,6.28,6.28,0,0,1-.62,4.83c-4.13.84-8.54,1.56-13.21,2.09a155.62,155.62,0,0,1-36.06-.12,6.49,6.49,0,0,1,2-7.39,6.07,6.07,0,0,1-2.35-.79,6.23,6.23,0,0,1-2.58-3.15,6.43,6.43,0,0,1-.18-5.38,5.51,5.51,0,0,1,1.66-2l-.28-4.45a162.87,162.87,0,0,1,.77-95.09,654.4,654.4,0,0,1-11.76-78.64"/><path class="cls-31" d="M554.18,1065.51a43.14,43.14,0,0,0,39.71-1"/><path class="cls-32" d="M568,1067.41c0-4.58-.29-38.94-.38-51.52"/><path class="cls-32" d="M576.47,1029.41c.18,2.59.36,6.29.37,11.06,0,.41,0,.58,0,.74,0,5.14-.07,10.29-2.22,12.62-.34.37-2.22,2.26-6.53.92"/><path class="cls-31" d="M432.54,816.1a116.84,116.84,0,0,0-13-62.24q19-4.51,38.51-8.82,10.16-2.24,20.19-4.36,11.91-1.95,24-3.82,14.54-2.26,28.9-4.37c-.39,4-1.68,21.7,10.74,37.18,1.68,2.09,13.43,16.12,28.63,17.21,22.69,1.64,48.66-22.56,45.6-55.13a382.82,382.82,0,0,0,39.53,9.37c21.69,3.91,30.41,3.49,38.23,10.72,9.14,8.46,10,20.9,10.86,30.67,1.94,20.92,5.28,48.68,11.59,86.58-8.78,3.86-18.36,7.66-28.72,11.22-8,2.76-15.71,5.1-23.07,7.11q-5.25-37.09-10.51-74.18c7.18,48.18,13,98.91,17,152q2.07,27.53,3.38,54.22a748.19,748.19,0,0,1-201.94,5.37c5-37.73,9-76.9,11.51-117.43.17-2.75.55-10.81,1.25-22.22,1.62-26.42,3.4-47.69,4.62-61.36-4.59-.81-9.26-1.59-14-2.33C461,819.17,446.52,817.4,432.54,816.1Z"/><path class="cls-31" d="M580.5,798.75a48,48,0,0,1-53-24.54,64.69,64.69,0,0,0,53,24.54Z"/><path class="cls-31" d="M616.81,955.26A119.68,119.68,0,0,1,532,993a193.34,193.34,0,0,0,84.77-37.76Z"/><path class="cls-31" d="M636.8,989.59c-10.44,5.49-29.35,13.79-56.27,17.3a207.25,207.25,0,0,1-61.09-1.38,326.35,326.35,0,0,0,57.56-2A286.14,286.14,0,0,0,636.8,989.59Z"/><path class="cls-31" d="M436.63,763.79a55.12,55.12,0,0,1,.75,42.73,89,89,0,0,0-.75-42.73Z"/><rect class="cls-33" x="223.21" y="685.88" width="179.75" height="129.19" transform="translate(284.8 1563.14) rotate(-155.36)"/><path class="cls-34" d="M144.45,793l78.4-22.53,46.3,3.76,14.6-20L326.36,746l-2.51,31.26,34.28,11.52,31.77,10.69,47.74,50.93L447,893.56A264.32,264.32,0,0,1,444.48,773l-6.84-23.72q-.58-10.71-1.15-21.43L427,714.76c2.05-4.92,4.3-5.94,5.52-6.2,5.37-1.12,12.9,7.73,18.86,22.45a67.18,67.18,0,0,0,15,20,68.57,68.57,0,0,1-13.33-18.73l12.55-15.51c1.24-4.71,9.28-35,13.85-38.32.61-.44,2.19-1.6,3.7-1.14a4.26,4.26,0,0,1,2.29,2.67c2,5-6.61,35.38-8,40.13a218.48,218.48,0,0,0,16-22.91c4.57-7.55,8.68-15.4,13.52-14.92a5,5,0,0,1,3.06,1.53c1.68,1.89,3.63,8.73-20.42,40.91a203.44,203.44,0,0,0,21.17-19.47c2.63-2.81,6.83-7.5,9.95-6.39,1.55.55,2.49,2.43,2.69,4,.52,4-3.64,7.5-5.11,8.81-5.5,4.85-13.38,13.73-24.74,28.24a89.93,89.93,0,0,0,19.91-7.64c6.3-3.35,12.06-7.43,14.35-5.54,1.08.89.91,2.73.85,3.41-.82,9-23.88,17.15-29,18.9L465.93,782.5l6.08-2.43a477.68,477.68,0,0,1,1.47,78.66c-.91,14.3-2.42,27.77-4.31,40.34-1,8.18-6.53,14-12.53,14.49a12.68,12.68,0,0,1-8.72-3.1,112.33,112.33,0,0,1-33.15-21.93l-42.34-34.69c-3.81,9.61-8.3,19.79-13.61,30.36a378.54,378.54,0,0,1-25.67,43.6,103.64,103.64,0,0,1-6.63,38.26,89.72,89.72,0,0,1,2.55,46.42,126.82,126.82,0,0,1-2.17,18.15c-.84,4.32-1.85,8.31-2.93,11.95l-1.53,16.32.62,11.32-65.4.92.51-11.22-10.2-1-2.56,10.2-66.82,1.53q4.57-14.4,10-29.36,2.1-5.82,4.26-11.49a125.73,125.73,0,0,1,26.08-80l2.55-62.23a53.21,53.21,0,0,1-5.81-15.9,51.8,51.8,0,0,1-.82-6.55A66.83,66.83,0,0,1,224,829.87l-3.06-15.82A349.84,349.84,0,0,1,107.18,841.6"/><path class="cls-35" d="M218.25,947.86l108.59,16.52A172.17,172.17,0,0,1,324.5,1056a25.79,25.79,0,0,1-.39,16.52l-65.38.85a20.54,20.54,0,0,1-.34-3.58,21.8,21.8,0,0,1,.84-6.13l4.95-1.37a21.23,21.23,0,0,1-11.18,1.2,20.68,20.68,0,0,1-5.73-1.87l-4.5-2.08,7.36,3.44a17.63,17.63,0,0,1-3.2,10l-71.49.27L191,1030.46a149.55,149.55,0,0,1,27.24-82.6Z"/><path class="cls-36" d="M234.09,592.61c-3.88,12.6-6,21.88-9.73,38.89-8.43,38.15-7.55,48.67-6.78,54.35,1.69,12.46,5.78,23.38,8.55,30.79,5,13.34,7.5,20,11.55,24.75,18.28,21.34,55.68,17.27,66.2,16.21a121.49,121.49,0,0,0,15-2.61c11-2.43,32.47-7.18,47.66-19,6.73-5.24,12.65-12.19,24.26-38.65,19.38-44.17,29.08-66.26,28-95-.56-15.32-1.45-39.58-17.51-60.94C370.94,501,301.2,490.9,268.44,518.06,253.13,530.75,246.78,551.37,234.09,592.61Z"/><path class="cls-37" d="M299.28,977.29a39.74,39.74,0,0,0,19.89-13.95l6.17-23.3c-4.5,17.92-4.22,31.43-3.07,40.6.78,6.24,2.65,16,.57,29a79,79,0,0,1-3.29,13.11c5.13-.9,28.93-5.63,42.18-26.9A55.27,55.27,0,0,0,369.21,976a57.15,57.15,0,0,1-4.92,16.49,58.35,58.35,0,0,1-18.7,22.28,74.23,74.23,0,0,0,32.68-19.87c19.21-20.22,20.35-44.9,20.45-51.17a97.81,97.81,0,0,1-4.29,23.75c-2.4,7.64-4.63,11.32-8.57,21.26-3.62,9.14-6,16.84-7.49,22a27.37,27.37,0,0,0,9.45-2c12.25-5,18.45-18.36,33.24-66.63,3-9.69,5.41-17.93,7.21-24.1a1439.15,1439.15,0,0,1,24.28-151.25c23.3-107.66,47.11-156.7,25.7-219.63-5.44-16-17.29-49.06-49.86-67.8-19.27-11.09-38.67-12.85-50.57-12.88-8.79-4.22-37.9-16.81-73.15-7.61-52.87,13.78-72.84,64.36-74.75,69.47-1.84,3.82-4.6,9.73-7.66,17.06-16.23,38.78-21.51,70.34-24,84.23-6.23,34.76-17.57,84.82-34.67,154.3.38,5.68.74,10.56,1,14.42.59,7.7.81,9.73,2.23,10.58,3.86,2.31,12.82-6.31,14.86-8.33,18.42-18.16,33.84-28.11,49.12-28.19,7.86,0,13.8,3,19.64-1.22,3.87-2.8,5.53-7.21,6.32-10.49a91.61,91.61,0,0,1-29.31-39,179.08,179.08,0,0,1-3.69-74.33c-4.67,13.59-9.12,28.11-13.16,43.52a611.62,611.62,0,0,0-16.69,91.76c12.87-77.71,22.62-118.93,29.35-142.4,1.66-5.79,4.63-15.7,10.41-36,12.68-44.39,12.84-47.47,17.48-59.56,6.32-16.5,10.71-27.64,21.24-39.4a92.43,92.43,0,0,1,22.94-18.5,83.42,83.42,0,0,0-20.29,15.45,85.57,85.57,0,0,0-20.61,36.53c8.82-15.76,25.19-25,41.61-23.55,16.74,1.49,26.73,13.51,28.77,16.07,16.05-3.87,28.05-1.48,34.08.23,22.36,6.32,35.55,26,47.69,43.62a175.54,175.54,0,0,1,10.74,17.66c.61-4,1.26-9.2,1.62-15.37a173.3,173.3,0,0,0,0-20.17c-1.66-22.6-11.94-42-11.74-41.56,6.53,13.59,14.22,34.82,12.76,60.55-.78,13.81-3.91,23.68-7,33.56-12,38.5-24.58,80.46-27.9,92.81-15,55.78-1.25,102.74-2.65,102.85-.63,0-2.21-9.4-6.43-52.36-4.19,12.34-7.11,22.6-9,29.73-4.74,17.75-5.35,24.22-9.76,36.9a180.75,180.75,0,0,1-12,27.05C337.05,862.23,323.47,896.38,299.28,977.29Z"/><path class="cls-11" d="M320,623.73c.26,1,5.61,21.31,25.66,27.54a38.41,38.41,0,0,0,39.29-10.61,39,39,0,0,0-6.1-17.64,43.44,43.44,0,0,0-5.34-6.45c-5.47-5.51-14.9-12.27-27.38-11C329.33,607.34,320.81,622.22,320,623.73Z"/><path class="cls-38" d="M360.86,479.36A114.26,114.26,0,0,0,326.62,523"/><path class="cls-38" d="M345.3,513.82a22.7,22.7,0,0,0-17.94,7,11.16,11.16,0,0,0-1-6,12.05,12.05,0,0,0-7.75-6.14"/><path class="cls-39" d="M361.69,479.34A114.2,114.2,0,0,0,327.45,523"/><path class="cls-39" d="M346.14,513.8a22.7,22.7,0,0,0-17.95,7,11.17,11.17,0,0,0-1-6,12,12,0,0,0-7.74-6.13"/><path class="cls-40" d="M391.72,526.66a58,58,0,0,1,19,22.35,57,57,0,0,1,5.41,20.62q-.41,11-.83,22L403.7,572.49a45.89,45.89,0,0,0,1-22.14A46.36,46.36,0,0,0,391.72,526.66Z"/><path class="cls-41" d="M411.29,585c4.51,27.79,2.92,49.64.47,64.8C410,661,407.88,667.43,400.9,697c-4.4,18.66-7.81,34-10,44.34"/><path class="cls-41" d="M424,800.78a302,302,0,0,0-8.74,101.76"/><path class="cls-41" d="M385.91,812.31a267,267,0,0,1-8.12,106.41"/><path class="cls-41" d="M218.07,712.22a211,211,0,0,0-8.38,55.65"/><path class="cls-42" d="M375.56,758.54,364.73,799.1q1.62,8.55,3.14,17.36,1.19,6.87,2.27,13.62l5.19-11.31a158.08,158.08,0,0,1,4.43,15.35c7.53,32.23,3.46,61.22-2.06,82a273.28,273.28,0,0,0,9.88-95.79A271.73,271.73,0,0,0,375.56,758.54Z"/><path class="cls-43" d="M388.53,489.31l-1.82,1.19a35.73,35.73,0,0,0-28.84-4.08l-7.52,6.44a32.39,32.39,0,0,1,24.33,5.07l-1.71,1.5a112.3,112.3,0,0,0-29.6.89c-.69.79-1.39,1.57-2.09,2.35a32.42,32.42,0,0,1,23.37,1.07l-.86,1.89a60.71,60.71,0,0,0-25.54,2l-2.39,2.46a14.64,14.64,0,0,1,10.81,2.42c0,1,.07,2.06.11,3.09a44.51,44.51,0,0,0-6.86,1.68,46.15,46.15,0,0,0-15,8.35,19.1,19.1,0,0,0-7.08-13.91,2.21,2.21,0,0,1,1.62-4.08,21,21,0,0,1,10.52-.25c.5-1.63,1-3.27,1.49-4.9-2.07-1-4.27-1.9-6.6-2.77a89.94,89.94,0,0,0-28.16-5.56A52.75,52.75,0,0,1,303,492a51.69,51.69,0,0,1,6.46-1.35,49.25,49.25,0,0,1,6.28-.42,53.58,53.58,0,0,1,23,5.21L346,483a46.48,46.48,0,0,0-21.11-7.65l2.78-3.3a36.25,36.25,0,0,1,25.14,7.72A7.22,7.22,0,0,0,354,475a7,7,0,0,0-1.14-3.06l2-2.14a10.16,10.16,0,0,1,4.91,4.79,9.73,9.73,0,0,1,.88,4.72,30.71,30.71,0,0,1,27.9,10Z"/><path class="cls-44" d="M332.69,943.46a411.54,411.54,0,0,0-2.52,43c-.09,13.39.48,25.88,1.44,37.35a43.89,43.89,0,0,0,20.92-7.12c10.66-7.15,15.56-17.78,19.34-26a86.32,86.32,0,0,0,4.33-11.48l-14,33.52c5-4.89,16.18-17.17,18.08-35.36a51.89,51.89,0,0,0-.24-12.65l-34,38.73a233.62,233.62,0,0,0-13.35-60Z"/><path class="cls-45" d="M386,480.83a56.85,56.85,0,0,1,31.13,38.51,31.14,31.14,0,0,0-14-12.5,17.63,17.63,0,0,1,5.79,10.31,141.33,141.33,0,0,0-14.6-15.47,137.28,137.28,0,0,0-10.87-9,70.46,70.46,0,0,1,9.77,3.55,73.75,73.75,0,0,1,6.86,3.52,23,23,0,0,0-.89-3.8C396.45,487.59,389.56,482.86,386,480.83Z"/><path class="cls-45" d="M370.16,512.78c.48-.56,5.53,2,9.1,6.75.35.46,4.15,5.49,3,6.79s-6.42-3.38-17.21-7.08c-6.9-2.37-11.59-2.77-11.54-3.94,0-1,3.59-2,6.93-2,7.07.15,12.05,5.19,12.7,4.41S369.68,513.34,370.16,512.78Z"/><path class="cls-45" d="M354.9,525.76c.27-.93,9.38-.34,17.51,4.44,5.89,3.47,10.27,8.54,9.72,9.28s-5.1-2.65-17.3-8.67C357.2,527,354.75,526.26,354.9,525.76Z"/><path class="cls-45" d="M335.78,533.68c.17-.87-3.26-2.19-4.15-2.53a19.6,19.6,0,0,0-8-1.42c-4.83.16-10.12,2.07-10,3.2s5.68,1.27,13.14,1.47C331.33,534.52,335.6,534.61,335.78,533.68Z"/><path class="cls-45" d="M374.31,509.16c.25-.34,7.65,3.46,13.66,10.91,3.93,4.85,6.19,9.93,5.9,10.12s-2.72-4-7.45-9.44C379.63,513,374.08,509.45,374.31,509.16Z"/><path class="cls-45" d="M384.6,500.61c.39-.39,8.53,5,14.89,14.29,4.57,6.67,8.34,15.52,6.87,16.52s-7.19-7.7-22.17-20.43c-7.49-6.36-13.06-10.09-12.51-11s5.68.89,9.91,3.46,6.93,5.66,7.39,5.25c.09-.08.14-.36-1.3-2.92C385.58,502,384.43,500.78,384.6,500.61Z"/><path class="cls-45" d="M437.23,500.43c.78-.65,9.51,5.89,14.45,16.27,4.77,10,4.46,20.45,3.41,20.67s-2.32-8.88-9.15-22.06C440.87,505.51,436.62,500.94,437.23,500.43Z"/><path class="cls-45" d="M442.49,549.27c.78-.29,3.6,5.52,4.28,6.94,10,20.68,5.66,57.27,3.76,57.19-1.49-.06,2.2-22.43-5.38-50.94C444.11,558.54,441.55,549.62,442.49,549.27Z"/><path class="cls-45" d="M434.28,604.47a64.18,64.18,0,0,0-4.9,8.36,70.27,70.27,0,0,0-6.83,27.63c-2.27,38-3.4,57-2.83,57,1,0,1.1-22.91,7.94-58.93,2.76-14.54,5.72-26.44,7.9-34.56"/><path class="cls-45" d="M434.18,784.51c.8,0,0-13.4,1.27-38.71,1.51-29.95,4.65-51,3.81-51.08-.57-.08-1.84,9.4-5.19,23.14-3.89,16-11.46,41.33-14.42,40.78s-.86-25.33,1.05-40.22c2.64-20.66,6.57-33.77,5.88-34s-6.94,14.48-9.83,32.95c-4.21,27-.53,53.67,2.88,53.84.78,0,1.42-1.32,5-12.84,6.24-20,9.38-33.39,10-33.28s-1.8,9.88-2.68,22.54C430.53,767.5,433.26,784.55,434.18,784.51Z"/><path class="cls-45" d="M400.18,852.68c1.13.08,1.06,12.74.76,16.2-.26,3.07-.79,6.17-.79,6.17s0,.26-.09.52c-.69,3.83-8.24,32-9.6,31.66-.67-.17,1.16-7,5.37-32C398.53,859.19,399.36,852.62,400.18,852.68Z"/><path class="cls-45" d="M362.24,914c.64.25,4.2-5.8,6.45-12.89,1.13-3.53,1.36-5.53,3-17.21,1.78-12.83,2.13-14.92,1.94-15-.46-.09-2.5,12.4-7.83,31.37C363.34,909,361.69,913.74,362.24,914Z"/><path class="cls-45" d="M369.84,852.66A232.84,232.84,0,0,1,358,885.89c-7.2,16.21-19.45,38.65-22.92,37.33-5.41-2.06,12.65-60.92,12.49-61s-21.79,72.65-17.55,74.1c4.66,1.6,36.65-84.4,39.65-83.3s-24,81.73-24.38,81.61S369.93,852.69,369.84,852.66Z"/><path class="cls-46" d="M270,651.06c-1.17.76,1.08,9.86,8,14.61,7.13,4.88,16.75,3.47,17,2.07.22-1.14-6-1.74-14.06-7.33C273.56,655.31,271,650.46,270,651.06Z"/><path class="cls-47" d="M290.36,628.56a26,26,0,0,1-4.14,8.06,30.51,30.51,0,0,1-4.17,4.37c-4.92,4.37-7.33,4.35-8.66,7.52a13,13,0,0,0-.8,4.47,19.5,19.5,0,0,0,.58,5.37c1.1,3.84,5.16,7.53,10.65,9.63"/><path class="cls-47" d="M274.6,646.91a6.09,6.09,0,0,0-6,6,5.93,5.93,0,0,0,4.29,5.2"/><path class="cls-47" d="M301.11,662.14a9.71,9.71,0,0,1-1.8,4.62,5.81,5.81,0,0,1-3.3,2.64c-1.75.37-3.26-.61-4.72-1.55a12.5,12.5,0,0,1-3.67-3.68"/><path class="cls-11" d="M290.79,612.13a31.21,31.21,0,0,1-53.05-26.3c8.09-9.3,19.93-13.82,30.95-11.4a29.78,29.78,0,0,1,16.52,10.47C294.38,596.46,291.24,610.33,290.79,612.13Z"/><path d="M389.77,627a23.69,23.69,0,0,1-5.81-3.08c-3.18-2.33-4.29-4.43-8.44-7.53-1.17-.87-2.18-1.52-2.85-1.93a65.65,65.65,0,0,1,8.94,13.07,66.32,66.32,0,0,1,5.2,13.37l3.42-1.82a5.23,5.23,0,0,1-4.11-2.28,20.83,20.83,0,0,0,8-4.67,11.72,11.72,0,0,1-4.33-.12,11.45,11.45,0,0,1-4.33-1.94,9.23,9.23,0,0,0,4.33-3.07Z"/><path d="M241.93,572.62a23.13,23.13,0,0,0,6.48,1.16c3.93.13,6.1-.85,11.28-.73,1.46,0,2.66.14,3.44.23a65.84,65.84,0,0,0-27.43,12.13c-.52-1.19-1-2.37-1.57-3.55a5.19,5.19,0,0,0,4.64.73,20.92,20.92,0,0,1-1.66-2.88,21.47,21.47,0,0,1-1.75-5.71,11.55,11.55,0,0,0,8.09,3.72,9.09,9.09,0,0,1-1.52-5.1Z"/><path class="cls-48" d="M270.58,569a31.78,31.78,0,0,1,8.56,3.25,32.1,32.1,0,0,1,8.54,6.86"/><path class="cls-48" d="M347.33,600.43a31.75,31.75,0,0,1,11.36.68,31.09,31.09,0,0,1,12.08,6.06"/><ellipse class="cls-49" cx="276.9" cy="595.18" rx="11.59" ry="12.13" transform="translate(-358.68 431) rotate(-50.57)"/><path d="M281.46,599.43a5.8,5.8,0,1,1-.65-7.92A5.81,5.81,0,0,1,281.46,599.43Z"/><ellipse class="cls-11" cx="278.09" cy="590.25" rx="3.91" ry="4.05" transform="translate(-354.44 430.13) rotate(-50.57)"/><ellipse class="cls-49" cx="367.09" cy="626.16" rx="12.13" ry="11.59" transform="translate(-270.43 279.18) rotate(-31.06)"/><path d="M362,629.7a5.8,5.8,0,1,0,1.8-7.74A5.81,5.81,0,0,0,362,629.7Z"/><ellipse class="cls-11" cx="366.63" cy="621.11" rx="4.05" ry="3.91" transform="translate(-267.89 278.21) rotate(-31.06)"/><path class="cls-50" d="M320.69,623.38c.26,1,5.62,21.31,25.66,27.54a38.42,38.42,0,0,0,39.3-10.61,39.16,39.16,0,0,0-6.1-17.64,44.15,44.15,0,0,0-5.34-6.45c-5.48-5.51-14.9-12.27-27.39-11C330,607,321.52,621.87,320.69,623.38Z"/><path class="cls-50" d="M290.81,612.49a31.21,31.21,0,0,1-53.06-26.3c8.1-9.3,19.94-13.82,30.95-11.4a29.78,29.78,0,0,1,16.52,10.47C294.4,596.83,291.25,610.69,290.81,612.49Z"/><path class="cls-50" d="M321.41,623.86c1.2-1.66,12.1-16.21,29.23-16,16.64.26,32.21,14.38,35.63,34.42"/><path class="cls-50" d="M238.15,586.88c8.59-10.22,22.62-13.79,34.43-9,13.23,5.37,21,20.16,17.79,34.9"/><path class="cls-51" d="M247.5,670.08a72.88,72.88,0,0,0,2,26.82c1.85,7,6.33,23.72,17,29.35,13.71,7.28,38.73-3.44,57.82-29.11a132.69,132.69,0,0,1-76.75-27.06Z"/><path class="cls-52" d="M248.22,671.18l-.15,10.38a110.12,110.12,0,0,0,68.69,23.82l5.59-7.83a140.6,140.6,0,0,1-74.13-26.37Z"/><path class="cls-52" d="M253.61,704.28c.35,1.64,3.43,15,15.07,20.85,9.18,4.63,20.13,2.8,28.22-4.67a58.7,58.7,0,0,1-23.15-3.78A63.92,63.92,0,0,1,253.61,704.28Z"/><ellipse cx="246.77" cy="667.76" rx="2.14" ry="1.48" transform="translate(-355.35 287.95) rotate(-37.47)"/><ellipse cx="326.47" cy="695.39" rx="1.48" ry="2.14" transform="matrix(0.93, -0.38, 0.38, 0.93, -237.83, 174.13)"/><path class="cls-53" d="M252,671.47a67.25,67.25,0,0,1,13.94.7,65.59,65.59,0,0,1,7.18,1.54,13,13,0,0,0,4.66,3.88,13.27,13.27,0,0,0,8.26,1.08q5,2.24,10.15,4.77c7.51,3.7,14.47,7.54,20.9,11.38A138.15,138.15,0,0,1,252,671.47Z"/><path class="cls-53" d="M246.35,684c-1,.17,1.86,18,5.8,32.78a23.35,23.35,0,0,0,5.45,10.78A22.86,22.86,0,0,0,269.89,734c8.48,1.69,15.49-1.5,21-4.09,13.18-6.23,21.57-16,26.31-22.93A86.32,86.32,0,0,1,295,722.1c-10.15,4.78-18.16,8.56-25.86,5.51-6.64-2.62-9.71-9-14.57-19.05C247.73,694.42,247.14,683.91,246.35,684Z"/><path class="cls-50" d="M247.71,669.53a72.88,72.88,0,0,0,2,26.82c1.86,6.95,6.33,23.71,17,29.35,13.71,7.27,38.73-3.44,57.82-29.11a132.88,132.88,0,0,1-76.75-27.06Z"/><path class="cls-54" d="M268.49,728.94a1.23,1.23,0,0,1,.12,1,1.25,1.25,0,0,1-.75.81,24.27,24.27,0,0,1-4.8-1.67,24.56,24.56,0,0,1-3.08-1.72,1.08,1.08,0,0,1,0-.91,1.1,1.1,0,0,1,.46-.48c1.14.35,2.31.75,3.51,1.19C265.55,727.7,267.07,728.32,268.49,728.94Z"/><path class="cls-54" d="M272.5,730.26a1.68,1.68,0,0,0-.34,1.62,2.69,2.69,0,0,0,.9.43,2.72,2.72,0,0,0,1.33,0,2,2,0,0,0,.24-.65,1.92,1.92,0,0,0,0-.81,5.32,5.32,0,0,0-.75-.3A7,7,0,0,0,272.5,730.26Z"/><path class="cls-55" d="M248.57,558.61a34.07,34.07,0,0,1,17.72-11,51,51,0,0,1,41.93,19.47c1,4.16.13,7.44-1.61,8.13a2.79,2.79,0,0,1-2.23-.2,71.6,71.6,0,0,0-22.94-15.83,69.11,69.11,0,0,0-11.77-3.85,29.61,29.61,0,0,0-6.08-.61A32,32,0,0,0,248.57,558.61Z"/><path class="cls-55" d="M398,611.25a34.06,34.06,0,0,0-6.21-19.89,51,51,0,0,0-44.43-12.75c-3.49,2.49-5,5.54-4.12,7.21a2.8,2.8,0,0,0,1.82,1.3,71.68,71.68,0,0,1,27.7,3.06A69.87,69.87,0,0,1,384.14,595a31.35,31.35,0,0,1,5,3.53A32,32,0,0,1,398,611.25Z"/><path class="cls-56" d="M211.44,958.5a160.48,160.48,0,0,0,110.15,16.81"/><path class="cls-57" d="M235.51,954.57a16.93,16.93,0,0,0-3.19,7.53,17.13,17.13,0,0,0,1.17,9.33l-6.07-.86a23.61,23.61,0,0,1,0-10.71,23.3,23.3,0,0,1,2.76-6.69Z"/><path class="cls-58" d="M230.21,953.17a20.76,20.76,0,0,0-2.79,17.4"/><path class="cls-58" d="M235.65,954.22a20.7,20.7,0,0,0-2.79,17.41"/><path class="cls-57" d="M290.69,963.84a17,17,0,0,1-.36,17h6.13a23.68,23.68,0,0,0,1.46-10.61,23.16,23.16,0,0,0-1.79-7Z"/><path class="cls-58" d="M296.13,963.19a20.71,20.71,0,0,1,.33,17.63"/><path class="cls-58" d="M290.6,963.48a20.81,20.81,0,0,1,.33,17.63"/><path class="cls-56" d="M261.39,953q-2.46,18.27-4.52,37.45c-2.66,24.88-4.53,48.86-5.77,71.82"/><path class="cls-56" d="M273.53,979.05c-1,9.84-2.52,20.29-4.63,31.25q-1.57,8.13-3.39,15.7a14.27,14.27,0,0,1-6.81,4.49,14,14,0,0,1-5.69.46"/><ellipse cx="271.74" cy="966.71" rx="3.42" ry="1.86"/><circle class="cls-59" cx="267.49" cy="966.17" r="4.4"/><path class="cls-60" d="M218.21,972.55a73.85,73.85,0,0,1-24.4,32.92"/><path class="cls-60" d="M310.58,985.77A57.48,57.48,0,0,0,312,996.9a58.68,58.68,0,0,0,8.71,19.84"/><path class="cls-61" d="M227.37,1044.09c-.34.42,4.36,6.12,11.71,9.41,4.62,2.08,9.26,2.74,9.41,2.3s-4.28-1.8-11.05-5.52S227.62,1043.78,227.37,1044.09Z"/><path class="cls-61" d="M254.34,1058.65c0,.41,5.41,2.08,11.54,1.09,3.86-.63,7.13-2.17,7-2.52s-3.52.66-9.46,1.14S254.37,1058.34,254.34,1058.65Z"/><path class="cls-62" d="M347.36,787.13a173.17,173.17,0,0,1-63.91,54.75A142.61,142.61,0,0,1,260,774.31a22.8,22.8,0,0,0-10.13-1.3,22.48,22.48,0,0,0-5.6,1.3q-2.82,8.36-5.82,16.84-7,19.9-14.45,38.72A48,48,0,0,0,213.92,855a44,44,0,0,0,1.68,17.13c1.82,5.89,3.69,7.19,5.37,12.1,2.87,8.39,1.23,15.77.34,20.82-1.64,9.2-3,23.06-2.42,44.73,11.9,4.46,21.23,4.83,27.61,4.31,7.55-.61,12.59-2.59,21.49-1,5.61,1,6.92,2.37,13.77,4.37a85.19,85.19,0,0,0,21.91,3.3Q329.52,887.72,356,815q4.11-11.31,8.25-22.62Z"/><path class="cls-63" d="M227.77,886.09a6.4,6.4,0,0,1-6.73-3.4"/><path class="cls-64" d="M289.57,895c.52-.34,1.41.57,2.86,1.39,2,1.14,3.73,1.35,6.63,1.72,7.74,1,17.51-1.36,18,.08.37,1.07-4.41,4.26-9.49,5.32a20,20,0,0,1-9.57-.41,23.3,23.3,0,0,1-6.22-2.94,5,5,0,0,1-1.57-1.37C289.22,897.37,288.93,895.36,289.57,895Z"/><path class="cls-65" d="M287.26,892.53a31.57,31.57,0,0,0,32,3.73"/><path class="cls-64" d="M223,886.58c-.12-.42-.22-.67-.14-.72s.06,0,.31.08l.3.11c.3.12,1.78.53,2.14.61,1.94.43,7.49-.79,8.31.55.64,1-1.23,4.17-4,4.92a5.93,5.93,0,0,1-4.46-.78,4.35,4.35,0,0,1-1.82-1.94,3.15,3.15,0,0,1-.17-.78,2.06,2.06,0,0,0,0-.41,2.22,2.22,0,0,0-.14-.48C223.07,887.31,223.16,887.28,223,886.58Z"/><path class="cls-66" d="M222.26,939c-1.89.11-4.3,6.71-1.84,9.74.83,1,1.91,1.26,5.77,1.9,6.31,1,11.49,1.88,11.59,1.37s-5.53-.53-9.94-4.66C223.7,943.5,223.84,938.94,222.26,939Z"/><path class="cls-66" d="M257.47,951.28a26.3,26.3,0,0,1-5.51,1.06,29.08,29.08,0,0,1-3.32.06,14.59,14.59,0,0,1-4.94-8.88,23.71,23.71,0,0,0,13.77,7.76Z"/><path class="cls-67" d="M276.7,954.21a40.3,40.3,0,0,0,9.93-2.42,40.77,40.77,0,0,0,6.58-3.24,32.41,32.41,0,0,1-1.53,3.43,30.3,30.3,0,0,1-1.87,3.19,28.12,28.12,0,0,0,4.94-.39,29.22,29.22,0,0,0,9.18-3.18,13.76,13.76,0,0,1-3.95,3.7,14.2,14.2,0,0,1-7.76,2.08,61.75,61.75,0,0,1-7.06-.9A60.15,60.15,0,0,1,276.7,954.21Z"/><path class="cls-34" d="M107.18,841.6A12.48,12.48,0,0,1,96,821.7c6.31-13.82,13.27-28.12,21-42.79,11.23-21.41,22.73-41.14,34.12-59.23l4.08,5.11a78.84,78.84,0,0,1-16.84-46.42c-20.22-24.78-19.7-29.83-18.6-31.2a4.09,4.09,0,0,1,2.28-1.39c2.89-.48,5.73,3.38,7,5.06,3.75,5,9,11.52,16,19.88-4.1-18.61-7.1-32.39-8.64-38.56-.36-1.42-1.29-5.07.52-6.81a4.74,4.74,0,0,1,4.19-.88c4.54,1.1,5.73,8.85,9.78,23.23,1.39,4.94,3,10.25,4.89,15.89-1-14.52-1.78-26.71-2.45-36.5-.22-3.3-.68-10,2.8-12.05a4.85,4.85,0,0,1,4.19-.35c2.94,1.21,3.68,5.64,4,7.86,1.09,7.09,3,20.91,5.18,39,6.16-33.47,10.27-41.14,13-41.07a4.78,4.78,0,0,1,3,1.39c2.12,2.2,1.23,6.21.87,7.86-1.31,6-3.54,17.41-6.62,32.33a48.44,48.44,0,0,1,4.08,19.9c2-1.3,4.14-2.59,6.38-3.85a129.45,129.45,0,0,1,16.58-7.88,12.1,12.1,0,0,1,8.74,1.24c.83.5,3.29,2,3.15,3.67s-3.26,3.4-7.81,3.76a33.19,33.19,0,0,1-7.39,8.46,32.3,32.3,0,0,1-4.85,3.27A23.13,23.13,0,0,1,183.18,711l-5.61,7.14L144.45,793"/><line class="cls-34" x1="179.41" y1="685.96" x2="183.69" y2="681.94"/></g><g id="Hår"><path d="M549.69,461.71a.33.33,0,0,0,0-.66.33.33,0,0,0,0,.66Z"/><path d="M492.8,831.67v-.34a.14.14,0,0,0-.28,0v.34a.14.14,0,0,0,.28,0Z"/><path class="cls-68" d="M503.28,668.34a21.17,21.17,0,0,0,.47-2.85,20.38,20.38,0,0,0-.3-5.69c-.9-2.9-3-4.33-4-4s-1.67,2.37-1.17,4.81a23.14,23.14,0,0,0,5,7.7Z"/><path class="cls-68" d="M646.2,668.25a21.17,21.17,0,0,1-.47-2.85,20.38,20.38,0,0,1,.3-5.69c.9-2.9,3-4.33,4-4s1.67,2.37,1.17,4.81a23.14,23.14,0,0,1-5,7.7Z"/><path class="cls-69" d="M456.66,562.16a23.82,23.82,0,0,1,1.92,5.29c.75,3.24.49,5.29.48,7.94,0,5,0,12.65,4.33,16.59,1.83,1.65,2.84,1.21,4.33,3.13,2.11,2.71,1.92,6,1.92,8.65,0,4.84,1.38,9.6,1.68,14.43.36,5.76,2.33,14.75,9.38,28.85a15.85,15.85,0,0,1-14.67-1,92.58,92.58,0,0,1-19.95-27.89c-7-15.08-7.58-27.38-7.46-33.66.26-13,4-16.92,5.53-18.28C448.39,562.48,453.89,562.12,456.66,562.16Z"/><path class="cls-70" d="M467.28,605.7c0,2.36.48,4.92,1.47,9.95,2.34,12,4,15,2.53,16.22-1.76,1.45-6.22-1.32-7.47-2.09-8-5-11-14-13.13-20.35a65.33,65.33,0,0,1-2.38-9.64c-1.69-9.39-3.06-17,.71-19.76,2.72-2,7.82-1.33,10.31,1.18,2.95,3,.29,6.47,3.73,12.11,1.63,2.67,3.07,3.17,3.94,6.13C467.64,601.68,467.3,603,467.28,605.7Z"/><path class="cls-71" d="M660.8,675.46A125.07,125.07,0,0,1,575.47,728a140.29,140.29,0,0,1-77.58-45.49,227.5,227.5,0,0,1-27.5-73.34q-2.11-66.3-4.24-132.59a419.72,419.72,0,0,1,223.57-.7,350.09,350.09,0,0,1-.35,56.77c-1.08,12-2.36,18.91-3.88,35.61-1.69,18.52-2.25,33.62-2.47,43.38a279.61,279.61,0,0,1-12.34,41.25C667.53,661,664.19,668.57,660.8,675.46Z"/><path class="cls-72" d="M590.2,638c0,.57-1.89,1.11-5.71,2.21-4.53,1.3-6.8,2-9.49,1.84-.81,0-1.25-.1-8.14-1.93-6.22-1.66-6.78-1.84-6.77-2.12,0-1.08,8.11-2,15-2C581.6,636,590.14,636.68,590.2,638Z"/><path class="cls-73" d="M592,627.34a8.64,8.64,0,0,1,1.64,2.6c1.06,2.62,1.1,6.48-.72,7.71s-3.41-1.38-7-1.06c-5.09.46-5.91,5.62-10.15,5.71-3.55.08-3.85-3.55-9.3-4.86-4-1-6.33.85-7.82-.85s-.69-4.8-.51-5.55a9.57,9.57,0,0,1,1.51-3.29"/><path class="cls-73" d="M587.1,596.57a58.33,58.33,0,0,0,2,19.27"/><path class="cls-11" d="M492.67,577.52a34.48,34.48,0,0,1,12.22-10.83,35.57,35.57,0,0,1,15.55-3.88c4.27-.22,14.93-.75,24.71,6.38A34.59,34.59,0,0,1,556,582.52c-1.47,1.53-14.66,14.83-34.43,12.49C503.64,592.9,494.1,579.59,492.67,577.52Z"/><ellipse class="cls-74" cx="524.49" cy="575" rx="13.57" ry="12.97"/><path d="M531.45,575.44a6.49,6.49,0,1,1-6.19-6.39A6.48,6.48,0,0,1,531.45,575.44Z"/><ellipse class="cls-11" cx="522.02" cy="569.9" rx="4.53" ry="4.38"/><path class="cls-11" d="M656.5,577.81A34.29,34.29,0,0,0,644.28,567a35.47,35.47,0,0,0-15.54-3.89c-4.28-.21-14.94-.75-24.72,6.39A34.51,34.51,0,0,0,593.2,582.8c1.46,1.53,14.65,14.83,34.42,12.5C645.53,593.19,655.07,579.88,656.5,577.81Z"/><ellipse class="cls-74" cx="624.68" cy="575.29" rx="13.57" ry="12.97"/><path d="M617.72,575.72a6.49,6.49,0,1,0,6.19-6.39A6.51,6.51,0,0,0,617.72,575.72Z"/><ellipse class="cls-11" cx="627.16" cy="570.18" rx="4.53" ry="4.38"/><path class="cls-75" d="M555.61,555.24a5.28,5.28,0,0,1,0,5c-4.55-.5-8.19-1.08-10.48-1.47-10.77-1.87-15.17-3.7-24.7-5-4.26-.58-7.7-.81-9.69-.9a41.87,41.87,0,0,0-8.7,1.1,42.38,42.38,0,0,0-11.8,4.7,1.89,1.89,0,0,1-.9-.6,2,2,0,0,1-.2-1.88c2.24-2.17,4.17-3.93,5.59-5.2,6-5.33,8.37-6.72,10.47-7.65A27.6,27.6,0,0,1,509,542c1.17.08,2.84.21,4.84.45A97,97,0,0,1,533,546.94C539,548.86,546.69,551.55,555.61,555.24Z"/><path class="cls-75" d="M595.38,554.58a5.36,5.36,0,0,0,0,5c4.56-.5,8.19-1.08,10.49-1.48,10.76-1.86,15.16-3.7,24.69-5,4.26-.58,7.71-.8,9.7-.9a42.52,42.52,0,0,1,20.49,5.8,1.67,1.67,0,0,0,.9-.6,2,2,0,0,0,.2-1.88c-2.24-2.17-4.16-3.92-5.59-5.19-6-5.34-8.36-6.72-10.46-7.65A25.19,25.19,0,0,0,642,541.3c-1.16.07-2.84.21-4.84.45A97.77,97.77,0,0,0,618,546.27C612,548.2,604.3,550.88,595.38,554.58Z"/><path class="cls-76" d="M504.33,563a46.19,46.19,0,0,1,28.69-.45"/><path class="cls-60" d="M492.85,577.62a34.57,34.57,0,0,1,12.22-10.83,35.79,35.79,0,0,1,15.55-3.89c4.27-.21,14.93-.75,24.71,6.39a34.59,34.59,0,0,1,10.83,13.33c-1.46,1.53-14.66,14.83-34.43,12.49C503.82,593,494.29,579.69,492.85,577.62Z"/><path class="cls-76" d="M643.16,563.37a46.39,46.39,0,0,0-28.69-.45"/><path class="cls-60" d="M655.45,577.78A34.48,34.48,0,0,0,643.23,567a35.57,35.57,0,0,0-15.54-3.88c-4.28-.22-14.94-.75-24.72,6.38a34.45,34.45,0,0,0-10.82,13.33c1.46,1.53,14.65,14.83,34.43,12.49C644.48,593.16,654,579.85,655.45,577.78Z"/><path class="cls-77" d="M447.77,574.58c6,4.65,10.07,9.5,9.32,13.88-.35,2-1.56,2.83-2.62,5.24-1.39,3.14-2.08,7.94.58,15.42"/><path class="cls-77" d="M461,627.85q8.85,5.68,10.4,4.12c.39-.39.43-1.11.15-2.17"/><path class="cls-78" d="M697.49,552.35a66.67,66.67,0,0,0-4.82,20.88c-.38,6.46.25,13-4.11,17.13a12.08,12.08,0,0,1-5.13,2.83q-.12-22.82-.26-45.61A113.57,113.57,0,0,1,674.68,498q4.65,6.22,9.28,12.46a57.14,57.14,0,0,0-19.21-20.14c-15-9.2-30.91-8.35-53.63-6.85-8.18.54-34.46,2.74-54,3.94-3.71.23-12.21.64-20.56-4.11a31.85,31.85,0,0,1-7.76-6.25l7.69-8.75c-4.42,4.76-14.28,14.06-28.89,17.4-5.14,1.17-13.56,3.1-21.92-1a24.91,24.91,0,0,1-5.41-3.64l3.18,3.71a52.59,52.59,0,0,0-3.6,8.15c-4.72,13.79-1,22.22-3.43,35.64a57.25,57.25,0,0,1-6.76,18.26v49.59a18.33,18.33,0,0,1-7.28-5.83c-3.59-5-3-10.35-3.43-17.65a99.8,99.8,0,0,0-3.34-20.54L457,562.69a19.49,19.49,0,0,0-6-.94,19.16,19.16,0,0,0-3.78.41c.07-2.82.13-7.06,0-12.23-.36-15.48-1.84-19.41-1.89-32.21,0-10.92,0-16.52,2.92-23a38,38,0,0,1,11-13.88,25.46,25.46,0,0,0-12,14.71c.34-6.89,2.07-16.63,8.57-25.33,3-4,7.76-10.39,13.88-9.77,3.41.35,5.9,2.74,7.25,4.34a47.52,47.52,0,0,1,3.49-22.33c15.33-35.62,79.49-50.1,159.33-38.39a69.15,69.15,0,0,0-25.82,3c-1.08.35-2.13.72-3.16,1.11A133.65,133.65,0,0,1,702,462.19l-19.89-12.73a72.93,72.93,0,0,1,29.17,50.91,33.18,33.18,0,0,1-1.25,5.34,32.16,32.16,0,0,1-2.73,6.07,33.83,33.83,0,0,1,.26,21.21,39.65,39.65,0,0,0-1.71,5.75c-1.07,5-.69,8-.91,17.43-.05,2.45-.13,4.43-.18,5.63a10.71,10.71,0,0,0-9.39,2.22Z"/><path class="cls-58" d="M542.33,486a88.31,88.31,0,0,0,65.49,3"/><path class="cls-79" d="M577.92,456.56a49.11,49.11,0,0,0,40.38,7.68,109.19,109.19,0,0,1-40.38-7.68Z"/><path class="cls-79" d="M700.07,534.25c.18.75.34,1.52.49,2.29a99.69,99.69,0,0,1,2,17.14h-6.2a22.57,22.57,0,0,0-3.1,5.39c-3.44,8.53.29,14.77-3.76,22.36a18.06,18.06,0,0,1-2.38,3.44,102,102,0,0,1,13-50.62Z"/><path class="cls-79" d="M451.94,541.18a3.67,3.67,0,0,0-2.73-.16c-3.13,1.24-3.87,8.44-2.17,18l8.12.16a20.63,20.63,0,0,1,3.09,4.88c3.7,8.3-.32,14.74,3.75,22.37a18.9,18.9,0,0,0,2.38,3.44,95.28,95.28,0,0,0-12.44-48.69Z"/><path class="cls-45" d="M662.55,472.2a85.39,85.39,0,0,0-45.34.66,79.68,79.68,0,0,1,22-8.5,21.86,21.86,0,0,0-4.15-2.78,22.33,22.33,0,0,0-5.66-2A46.65,46.65,0,0,1,652.77,465,45.22,45.22,0,0,1,662.55,472.2Z"/><path class="cls-79" d="M637.59,459.81a50.61,50.61,0,0,1,17.07,4.09,52.41,52.41,0,0,1,23.21,20.26,131.26,131.26,0,0,0-40.28-24.35Z"/><path class="cls-45" d="M614.14,435.31c-6.71,2-12.17,3.55-15.93,4.59-7,1.91-9.39,2.46-13.17,4.28-4.44,2.13-4,2.79-10.2,6.41a93,93,0,0,1-16.27,7.63,88.21,88.21,0,0,1-9.35,2.73,114.12,114.12,0,0,0,14.93-9.7c4.77-3.67,7.87-6.69,14.31-11,3.22-2.16,5.95-3.77,7.74-4.77L558.73,445a108.09,108.09,0,0,1,25.72-12.53c15.49-5.13,28.39-5.45,36.91-5.59a144.65,144.65,0,0,1,24,1.58A103.11,103.11,0,0,0,603.62,433a88.49,88.49,0,0,0-19.4,9.22,81.31,81.31,0,0,1,17-5.39A80.47,80.47,0,0,1,614.14,435.31Z"/><path class="cls-79" d="M662.64,433.48a134.75,134.75,0,0,0-107.45,13.06,60.22,60.22,0,0,1,12.62-10.66,58.46,58.46,0,0,1,6.87-3.72,66.22,66.22,0,0,1,37.62-22.74,53.42,53.42,0,0,0-15.88,10.44A51.9,51.9,0,0,0,591.7,425a113.67,113.67,0,0,1,70.94,8.47Z"/><path class="cls-45" d="M677.64,440.33a36.62,36.62,0,0,1,12.63,1.55,37.07,37.07,0,0,1,15.54,9.52,86.66,86.66,0,0,0-28.17-11.07Z"/><path class="cls-45" d="M562.74,421.86a36.48,36.48,0,0,0-23.18,17.33,70.85,70.85,0,0,1,23.18-17.33Z"/><path class="cls-45" d="M503.48,427.63A45.81,45.81,0,0,0,480.56,468a65.87,65.87,0,0,1,22.92-40.36Z"/><path class="cls-79" d="M579.67,484a102.89,102.89,0,0,1-20.23,2.63c-8.3.23-13.5.33-19.51-2.23A32.54,32.54,0,0,1,527.56,475a53.54,53.54,0,0,1-14.84,8.41,42.47,42.47,0,0,1-12.1,2.86,40,40,0,0,1-19.16-3.51,75.51,75.51,0,0,0-6.44,8.12,78,78,0,0,0-10.83,23.33A55.87,55.87,0,0,1,474,478.36l-10.57,8.25a27.56,27.56,0,0,1,.35-8.18,29.29,29.29,0,0,1,9.17-15.86,14.59,14.59,0,0,1,1.88,1.58c1.35,1.34,1.89,2.43,2.2,2.3s0-.95,0-2.62c0,0,0-.7.11-2.62a31.62,31.62,0,0,1,4.29-12.38,38.93,38.93,0,0,1,10.43-11.6,51.06,51.06,0,0,0-10.38,29.53l9-2.06L492,475a37.09,37.09,0,0,0,18.82-.51,128.82,128.82,0,0,0,23.53-10.2c14.49-8.08,18.74-14.17,28.59-19.34,8.11-4.25,20.73-8.26,39.9-6a91.27,91.27,0,0,0-35.53,16.47,88.49,88.49,0,0,0-12.93,12.15,108.82,108.82,0,0,0,48.41,3.66A73.56,73.56,0,0,1,554.15,475a48.71,48.71,0,0,0,9.83,5.43A49.39,49.39,0,0,0,579.67,484Z"/><path class="cls-63" d="M697.08,552.21a66.67,66.67,0,0,0-4.82,20.88c-.38,6.46.25,13-4.11,17.13a12.05,12.05,0,0,1-5.12,2.83l-.27-45.61a113.38,113.38,0,0,1-8.48-49.59q4.63,6.22,9.28,12.46a57.27,57.27,0,0,0-19.22-20.14c-15-9.2-30.91-8.35-53.63-6.85-8.18.54-34.45,2.74-54,3.94-3.71.23-12.2.64-20.56-4.11a31.61,31.61,0,0,1-7.76-6.25l7.69-8.75c-4.41,4.76-14.28,14.06-28.88,17.4-5.15,1.17-13.57,3.1-21.93-1a24.91,24.91,0,0,1-5.41-3.64l3.18,3.71a52.59,52.59,0,0,0-3.6,8.15c-4.71,13.79-1,22.22-3.42,35.64a57.67,57.67,0,0,1-6.76,18.26v49.59A18.28,18.28,0,0,1,462,590.4c-3.59-5-3-10.35-3.43-17.65a99.8,99.8,0,0,0-3.34-20.54l1.33,10.34a19.49,19.49,0,0,0-6-.94,19,19,0,0,0-3.77.41c.06-2.82.12-7.06,0-12.23-.36-15.48-1.84-19.41-1.88-32.21,0-10.92,0-16.52,2.91-23a38,38,0,0,1,11-13.88,25.39,25.39,0,0,0-12,14.71c.33-6.89,2.07-16.63,8.57-25.33,3-4,7.75-10.39,13.87-9.77,3.41.35,5.9,2.74,7.26,4.34a47.43,47.43,0,0,1,3.48-22.33c15.34-35.62,79.5-50.1,159.33-38.39l-35.8,4.24a131.71,131.71,0,0,1,62.28,20,130.39,130.39,0,0,1,35.84,33.79L681.7,449.32a72.92,72.92,0,0,1,29.17,50.92,33.33,33.33,0,0,1-1.25,5.33,31.87,31.87,0,0,1-2.73,6.07,33.92,33.92,0,0,1,.27,21.21,40,40,0,0,0-1.72,5.75c-1.07,5-.69,8-.91,17.43,0,2.45-.13,4.43-.18,5.63a10.66,10.66,0,0,0-4-.18,10.88,10.88,0,0,0-5.4,2.4Z"/><path class="cls-80" d="M470.88,596.48l-2.42,0a18.28,18.28,0,0,1-7.29-5.83c-3.05-4.26-2.13-8.48-3.43-17.65a95.2,95.2,0,0,0-2-10.2,19.49,19.49,0,0,0-6-.94,19,19,0,0,0-3.77.41c.06-2.82.12-7.06,0-12.23-.36-15.35-1.83-21.4-1.88-32.21a125,125,0,0,1,1.88-22.12c.33-6.89,2.07-16.63,8.57-25.33,3-4,7.75-10.39,13.87-9.77,3.41.35,5.9,2.74,7.26,4.34a47.48,47.48,0,0,1,3.48-22.33c15-34.73,76.65-49.25,153.17-38.11l-14,3.64a136,136,0,0,1,77.48,49.47,7.43,7.43,0,0,1-4.71-2.93c-.67-1-1.09-2.35-.88-2.47s1.7,1.88,2.73,3.35a95.36,95.36,0,0,1,9.48,17.89,164.31,164.31,0,0,1,7.65,27,31.3,31.3,0,0,1-1.25,5.33,31.87,31.87,0,0,1-2.73,6.07,33.72,33.72,0,0,1,1.82,9.9,34.11,34.11,0,0,1-1.55,11.31,40,40,0,0,0-1.72,5.75c-1.07,5-.69,8.05-.9,17.43-.06,2.45-.14,4.43-.19,5.63a33.49,33.49,0,0,1-4-.18,31.28,31.28,0,0,1-3.13-.49,86.77,86.77,0,0,1-11.89,31.87"/><path class="cls-69" d="M700,551.77a23.82,23.82,0,0,0-1.92,5.29c-.75,3.24-.49,5.29-.48,7.94,0,5,0,12.65-4.33,16.59-1.83,1.65-2.84,1.21-4.33,3.12-2.11,2.72-1.92,6-1.92,8.66,0,4.84-1.38,9.6-1.68,14.43-.36,5.76-2.33,14.75-9.38,28.85a15.85,15.85,0,0,0,14.67-1,92.58,92.58,0,0,0,19.95-27.89c7-15.08,7.58-27.38,7.46-33.66-.26-13-4-16.92-5.53-18.28C708.23,552.09,702.73,551.73,700,551.77Z"/><path class="cls-70" d="M689,594.19c0,2.36-.48,4.92-1.47,9.95-2.34,12-4,15-2.53,16.22,1.77,1.45,6.23-1.32,7.47-2.09,8-5,11-14,13.13-20.35a65.33,65.33,0,0,0,2.38-9.64c1.69-9.39,3.06-17-.71-19.76-2.72-2-7.82-1.33-10.31,1.18-3,3-.29,6.47-3.73,12.11-1.63,2.67-3.07,3.17-3.94,6.13C688.64,590.17,689,591.53,689,594.19Z"/><path class="cls-77" d="M708.72,566.61c-6,4.65-10.07,9.5-9.32,13.88.35,2,1.56,2.84,2.62,5.24,1.39,3.14,2.08,7.94-.58,15.43"/><path class="cls-77" d="M695.07,616.69c-5.9,3.78-9.36,5.16-10.4,4.11-.38-.38-.43-1.11-.14-2.16"/><path class="cls-51" d="M531.93,655.19a79.93,79.93,0,0,0,11.74,27c4.43,6.51,15.12,22.2,28.13,24.18,16.8,2.55,38.76-17.56,49.2-51a145.41,145.41,0,0,1-89.07-.18Z"/><path class="cls-52" d="M533.08,656.05l3.59,10.79a120.69,120.69,0,0,0,79.57-.25l2.94-10.11a153.81,153.81,0,0,1-86.1-.43Z"/><ellipse cx="530.35" cy="653.05" rx="2.34" ry="1.62" transform="translate(-306.54 738.86) rotate(-56.77)"/><path class="cls-81" d="M537.07,655a58.64,58.64,0,0,1,27.07-2.9,39.14,39.14,0,0,1,4.73,1.12c2.74.84,2.92,1.22,4.28,1.35,1.78.19,2.69-.34,6.53-1.57,1.26-.41,3.11-1,5.4-1.58a72.79,72.79,0,0,1,27.66,4.15,151.07,151.07,0,0,1-75.67-.57Z"/><path class="cls-81" d="M535.8,670c-1.15.63,4.57,17.89,17.84,31.77,5,5.19,8.71,7.52,12.68,8.86a28.82,28.82,0,0,0,17.14.17c2.69-.78,7.95-2.7,14.9-9.48,11.28-11,16.45-24.54,18.88-33.2a94.25,94.25,0,0,1-17.45,23.6c-8.75,8.62-15.66,15.41-24.72,15-7.8-.31-13.28-5.78-21.93-14.41C541,680.24,536.57,669.6,535.8,670Z"/><path class="cls-50" d="M532,654.54a79.93,79.93,0,0,0,11.74,27c4.43,6.51,15.11,22.2,28.13,24.18,16.8,2.55,38.75-17.56,49.19-51a145.38,145.38,0,0,1-89.06-.18Z"/><ellipse cx="623.73" cy="652.3" rx="1.62" ry="2.34" transform="translate(-255.45 448.41) rotate(-33.23)"/></g></svg>
