<svg xmlns="http://www.w3.org/2000/svg" viewBox="0 0 1920 1080"><defs><style>.cls-1{fill:#a93b36;}.cls-2{fill:#e54e4e;}.cls-3,.cls-5{fill:#814b24;}.cls-3{stroke:#1b0707;}.cls-18,.cls-21,.cls-25,.cls-27,.cls-28,.cls-29,.cls-3,.cls-30,.cls-31,.cls-32,.cls-33,.cls-35,.cls-36,.cls-37,.cls-38,.cls-40,.cls-41,.cls-7{stroke-miterlimit:10;}.cls-18,.cls-4{fill:#201401;}.cls-6{fill:#583119;}.cls-7{fill:#e5e1e0;}.cls-28,.cls-29,.cls-30,.cls-31,.cls-32,.cls-33,.cls-35,.cls-36,.cls-37,.cls-38,.cls-40,.cls-41,.cls-7{stroke:#000;}.cls-8{fill:#412c1e;}.cls-9{fill:#603619;}.cls-10{fill:#0a0806;opacity:0.49;isolation:isolate;}.cls-11,.cls-41{fill:#fff;}.cls-12{fill:#ff8900;}.cls-13{fill:#f7c497;}.cls-14{fill:#ffbd76;}.cls-15{fill:#1f2433;}.cls-16,.cls-25{fill:none;}.cls-17{fill:#9b918a;}.cls-18{stroke:#0f0c0a;}.cls-18,.cls-25,.cls-35,.cls-37{stroke-width:2px;}.cls-19{fill:#14120f;}.cls-20{fill:#2f1d05;}.cls-21{fill:#671918;stroke:#551418;}.cls-22{fill:#2b0505;}.cls-23{fill:#c2c5ce;}.cls-24{fill:#e2e6f2;}.cls-25{stroke:#180a0b;}.cls-26{fill:#534336;}.cls-27{fill:#7d4e2f;stroke:#231112;}.cls-28{fill:#1f1f1f;}.cls-28,.cls-29{stroke-width:3px;}.cls-29,.cls-39{fill:#333;}.cls-30{fill:#a96147;}.cls-30,.cls-40,.cls-41{stroke-width:4px;}.cls-31,.cls-37{fill:#b3b3b3;}.cls-31,.cls-33{stroke-width:7px;}.cls-32,.cls-36{fill:#67362b;}.cls-33{fill:#eee;}.cls-34{fill:#ccc;}.cls-35{fill:gray;}.cls-36{stroke-width:1.5px;}.cls-38{fill:#884a3c;}.cls-40{fill:#8b493a;}</style></defs><title>slut_dårlig</title><g id="Layer_2" data-name="Layer 2"><rect class="cls-1" x="2" y="-1" width="1920" height="1080"/></g><g id="Layer_4" data-name="Layer 4"><circle class="cls-2" cx="1302.5" cy="541.5" r="529"/></g><g id="Layer_8" data-name="Layer 8"><path class="cls-1" d="M0-2V1080H1920V-2ZM1300.5,1071.48c-292.16,0-529-237.28-529-530s236.84-530,529-530,529,237.29,529,530S1592.66,1071.48,1300.5,1071.48Z"/></g><g id="person"><path class="cls-3" d="M1628,734c1.58-1.18,4.82.32,11.31,3.3,3.75,1.73,7.05,3.24,10.51,6.25,2.29,2,4,4,9.44,13.1,3.18,5.27,4.77,8.15,8.33,14.36,7.16,12.51,7.49,12.67,10.12,17.66,3.61,6.86,3.1,6.74,7.58,15.74,5.18,10.4,7.77,15.59,11.44,21.23,2.49,3.83,8.08,12,11.18,18a35.07,35.07,0,0,1,3.24,9.08s.29,1.4.45,2.73c.89,7.38-2,15.33-2.19,15.26s1.19-11.57,6.13-22.85a81.1,81.1,0,0,1,9.69-16.25c4-5.38,4.75-5.21,13.13-14.85,6.64-7.64,6.23-7.83,12.32-14.69,5-5.61,9.35-10.1,12.28-13.1,5.43-5.59,5.9-5.8,11-11.11s7.46-7.81,9.62-10.3c5.55-6.42,5.83-7.65,8.52-9a6.94,6.94,0,0,0,3.46-3,7.52,7.52,0,0,0,.23-5.1c-1.83-7.45-4.38-10-5.47-15.11-1-4.88-.16-9.31.93-14.84.56-2.8,1-3.7,2-8.95,1.4-6.92,1.35-8.6,1.16-10a24.87,24.87,0,0,0-2.81-8c-2-4-3.28-4.82-3.36-7.34,0-.23-.08-3.94,2.29-5.7,2.83-2.09,7.28,0,9.48,1.58,4.94,3.58,6.08,10.16,6.51,12.64.82,4.75-.27,6.13,1.12,11.46.85,3.26,1.59,6,3.81,7.08,2.91,1.47,6.5-.69,8-1.63,2.29-1.37,3.86-3.1,7.07-7.87,3.77-5.61,6.35-10.3,7.54-12.5,3.65-6.73,3.41-7,6.29-12.08.88-1.54,3-4.83,7.25-11.4,4.54-7,6-9.11,8.72-9.77,1.77-.43,4.53-.38,5.75,1.28,1.47,2-.09,5.34-2.71,11.53-5.84,13.77-3.72,10.47-6.77,16.71-5.73,11.67-9.9,16.55-9.19,17.19,1.12,1,12.38-9.92,19.16-17.46,2.52-2.79,5.29-5.31,7.87-8,2.77-2.91,4.42-4.74,7.38-6.2,1.89-.92,5.28-2.59,7.5-1s1.93,5.29,1.89,5.72c-.19,2.52-1.45,4.58-7.4,10.55-3.4,3.41-6.17,5.94-7.67,7.3-3.29,3-4.11,3.62-10.49,9.26a130.51,130.51,0,0,0-9.32,9.2c-3,3.28-3.07,3.69-3,3.91.55,1,4.7-1.55,10.81-4.79,2.69-1.43,5.91-2.81,9.22-4.71,2.65-1.53,3.93-3.42,7.91-6.58a48.19,48.19,0,0,1,8.23-5.15c5.87-2.92,7.53-2.3,8.16-2a5.11,5.11,0,0,1,2.74,4c.19,2.65-2.31,4.79-5.36,7.18-9.23,7.26-12.61,8.35-19.33,13.83-3.45,2.82-3.53,3.33-7.92,6.83s-6.26,4.52-6,5.39c.46,1.71,8,1.81,14.86,0,5.85-1.58,7.37-3.55,13.28-4.07,1.35-.12,7.79-.69,8.68,1.74.12.33.37,1.35-1.35,3.58-2.86,3.72-7,5.34-13.71,7.12-7.14,1.89-7.7,1.45-14.25,3.39-4.12,1.23-7.25,2.4-10.45,4.9a39.52,39.52,0,0,0-4.11,4,83.29,83.29,0,0,1-10.29,8.53c-12,8.86-15.46,7.52-21.84,14.68-1.7,1.9-.87,1.35-5.46,7.55-5.87,8-10.51,13.3-13.17,16.43-8.22,9.68-7.4,9.81-21.47,27.51-14.21,17.87-12.37,14.38-20.43,25,0,0-10.2,13.46-19.43,24.13-5,5.72-7.22,7.84-10.23,9.73-2.63,1.65-4.24,2.13-6.53,4.46-3,3-3.1,5.09-5.51,6.34-.57.29-2.88,1.38-7.91-.33-6.24-2.11-10.14-6.29-13.1-9.39-11.66-12.2-9.52-8.31-17.16-16.94-5.2-5.88-8.56-10.37-15.06-19.12-8.81-11.83-13.27-17.7-14.67-20.58-2.17-4.46-4.34-13.49-8.67-31.56-2.13-8.88-3.25-14.21-3.66-16.17-2.13-10.29-2.09-11.84-3.73-20.18C1628.62,742.9,1625.32,736.07,1628,734Z"/><path class="cls-4" d="M1709,845.46a.55.55,0,0,1,0,.31c-.58,1.68-7.58,2.64-7.7,3.1-.83,2.25-3.87,2.9-8.65,3.66-6.81,1.12-7.6,2.61-14.89,3.74-4.28.69-3.55.92-9.51,1.62l-1.76.21c-3,.25-6.69,1.87-7.17.75-.36-.62-.74-6.79-.62-7.66.12-2.74.12-2.74-4.27-8.6-3.5-7.67-4.54-7.09-4.66-9.34,0-.12-.36-.75-.71-1.63v26.32a21.43,21.43,0,0,1-10.64,18.71,203.91,203.91,0,0,0-1,40.54c.48,6.34,2.23,15.85,4.35,26.32.83,4,.33.31,1.23,4.49-49,26-101.69,86-159,91,0-.43-3.64-57-3.61-57.45.06-1,.13-2.08.21-3.17,1.88-24.17,9-62.68,9-62.68l.48-40.05a21.36,21.36,0,0,1-9-17.58V827.63h-.95c.59,3.62-1.08,10.11-.84,26.57,0,2.25.12,4,.12,5.25,0,0-7.77-.76-16-2-1.8-.25-.24-.13-8-1.37-6.22-1-9.32-1.5-12.79-3.24-2.39-1.26-3.82-2-4.54-3.62-1.08-2.12,0-3.49,1-8.36.23-1.37,1-11.47,1.07-13.23v-.12l4.08-29,6.08-43.29c0-10.35,9-18.83,18.76-20.58a106.28,106.28,0,0,1,22.11-4.12c2.92-.29,5.81-.45,8.55-.5,2-.05,3.88-.05,5.67,0a12.17,12.17,0,0,1,4-5.62l9.44-15.34,5.26,3.62-3.35,5.37c11.12-4.25,27.13-7,45.06-7,20.67,0,38.84,3.63,49.83,9.11l-4.18-6.61,5.26-3.62L1629.06,730c3.34,0,6.93.12,10.63.49a102.71,102.71,0,0,1,21.52,3.87c9.79,1.38,17.56,10.35,17.56,21.08,2.51,23.7,21.62,44.69,24.13,68.39,1.2,1.74.92,4.13,3.36,11.78C1707,837.73,1708.77,843.22,1709,845.46Z"/><g id="kvinde"><rect class="cls-4" x="1518.86" y="678.51" width="98.83" height="48.16"/><ellipse class="cls-5" cx="1569.42" cy="695.6" rx="49.48" ry="16.49"/><path class="cls-3" d="M1444.29,530.08c8.49-.36,16,10.52,17.33,24.86a2.4,2.4,0,0,1,1-.48c2.51,0,4.55,7.89,4.55,17.69a56.08,56.08,0,0,1-1.2,12.07c4.18,11.95,3.47,22.59-2,25.1-6.45,2.87-17-6.34-23.66-20.56a77.07,77.07,0,0,1-3.23-8.6c-4.18-4.9-7-12.67-7.53-21.75C1428.87,543.11,1435.45,530.44,1444.29,530.08Z"/><ellipse class="cls-6" cx="1453.85" cy="571.91" rx="7.41" ry="18.52" transform="matrix(0.99, -0.17, 0.17, 0.99, -76.7, 258.58)"/><path class="cls-4" d="M1459.59,585.53c-.6,2.75-1.8,4.55-3.35,4.79-3.35.47-7.29-6.58-8.72-16s0-17.45,3.34-17.93c1.8-.23,3.83,1.8,5.62,5.26a.91.91,0,0,1,.48-.24,2.13,2.13,0,0,1,.83.24c-2.15-5.14-5-8.24-7.64-7.89-4.07.6-6,9.8-4.31,20.56s6.46,18.88,10.52,18.17c2-.36,3.47-2.75,4.3-6.46C1460.3,586.13,1460,585.89,1459.59,585.53Z"/><path class="cls-4" d="M1456.24,550.88c-7.41-7.17-11.23-10.64-11.59-10.4s3.23,4.78,10.87,13.5"/><path class="cls-3" d="M1679.72,572.34a162.51,162.51,0,0,0-4.66-38.6c-6.33-66.44-50.67-117.95-104.45-117.95-56.88,0-103.14,57.6-105.17,129.55a167.28,167.28,0,0,0-2.27,27,156.62,156.62,0,0,0,6.22,44.22c0,.72-.12,1.44-.12,2.15,0,20.44,11.35,39.08,29.87,52.47a111.44,111.44,0,0,0,28.09,22.47c6.57,10.16,23.9,17.45,44.22,17.45s37.64-7.29,44.22-17.45a109.16,109.16,0,0,0,28.08-22.47c18.41-13.39,29.88-32,29.88-52.47a13,13,0,0,0-.12-2.15A162.1,162.1,0,0,0,1679.72,572.34Z"/><path d="M1516.83,534.5c-2.87-2-10.16.12-16.25,1.92-4.54,1.31-7.65,2.51-10.88,4.78-2.27,1.43-3.94,3.1-5.49,4.06a7.51,7.51,0,0,1-3.23.48,13.24,13.24,0,0,1,2.39,2.27c.24.72-1.2.6-2.15.6a9.52,9.52,0,0,1-4.54-1.08s1.79,5.86,5.38,9.56a20.79,20.79,0,0,0,8.24,5.62,27.74,27.74,0,0,0,4.78,1.07C1505.72,564.5,1523.17,539.16,1516.83,534.5Z"/><path class="cls-7" d="M1517.79,534.38c-1.55,0-4.54-.23-6-.12-15.06,1.56-25.93,10-25.93,21.52h.12l3.46,3.34,3.47,3.47v-.12a5.33,5.33,0,0,0,3.35,1.07h41.59l1.91-.11,2.87-1.92a9.17,9.17,0,0,0,1.91-1.79l3.11-4.06c0-10.4-8.49-18.65-20.92-21.28C1524.12,534,1520.9,534.38,1517.79,534.38Z"/><circle class="cls-8" cx="1517.79" cy="549.08" r="14.1"/><circle class="cls-9" cx="1517.79" cy="549.08" r="12.91"/><circle class="cls-10" cx="1517.79" cy="549.08" r="6.81"/><circle class="cls-11" cx="1515.28" cy="543.35" r="2.99"/><path d="M1629.65,537c2.87-2,10.16.12,16.25,1.92,4.54,1.31,7.65,2.51,10.88,4.78,2.27,1.43,3.94,3.1,5.5,4.06a7.45,7.45,0,0,0,3.22.48,13.24,13.24,0,0,0-2.39,2.27c-.24.72,1.2.6,2.15.6a9.58,9.58,0,0,0,4.55-1.08s-1.8,5.86-5.38,9.56a20.79,20.79,0,0,1-8.25,5.62,28.77,28.77,0,0,1-4.78,1.07C1640.76,567,1623.32,541.67,1629.65,537Z"/><path class="cls-7" d="M1628.69,536.89c1.56,0,4.55-.24,6-.12,15.06,1.56,25.93,10,25.93,21.52h-.12l-3.46,3.34-3.47,3.47V565a5.3,5.3,0,0,1-3.34,1.07h-41.59l-1.92-.12-2.86-1.91a9,9,0,0,1-1.92-1.79l-3.1-4.06c0-10.4,8.48-18.65,20.91-21.28C1622.48,536.54,1625.71,536.89,1628.69,536.89Z"/><circle class="cls-8" cx="1628.81" cy="551.47" r="14.1"/><circle class="cls-9" cx="1628.81" cy="551.47" r="12.91"/><circle class="cls-10" cx="1628.81" cy="551.47" r="6.81"/><circle class="cls-11" cx="1631.32" cy="545.86" r="2.99"/><path class="cls-4" d="M1548.86,520.28c.84,2,.84,5-.72,6-1.67,1.19-4.42.71-8.84-1-1.79-.6-5.74-.84-12.79-3.46-9.68-3.47-13.86-4.9-17.33-4.9a43.65,43.65,0,0,0-14.22,2.63c-8,3.1-10.63,11.47-12,10.51-.84-.6.48-3.94,1.67-6a17.83,17.83,0,0,1,6.34-6c7.41-4.54,12.79-6.09,13.86-6.33,3-.48,9.32,0,18.17.36,7.17.23,12.78.71,19,3C1545.28,516.46,1547.79,517.77,1548.86,520.28Z"/><path class="cls-4" d="M1598.58,523c-.84,2-.84,4.9.71,6s4.43.71,8.85-1c1.79-.6,5.73-.84,12.79-3.47,9.68-3.46,13.6-7.58,17.07-7.58,5.5.12,7.18.57,11,2,8,3.11,14.11,14.79,15.43,13.83.83-.6-.48-3.94-1.68-6-1.67-2.75-1.36-4.43-3.75-5.86-4.42-9.88-16-10-17-11-3-.48-8,3-17.61,4.9-7.17.24-12.79.72-19,3C1602,519.21,1599.53,520.52,1598.58,523Z"/><path class="cls-4" d="M1585.31,566.17c.12,1.68.24,4,.48,6.58.36,6,.48,6.69.72,7.88a68.69,68.69,0,0,0,2.27,7.65c.83,2.27,1.55,4.31,2,5.62"/><path class="cls-4" d="M1598,607.29a8.56,8.56,0,0,0-1.2-2.39h-1.19a1.62,1.62,0,0,1,.24.71c.12.48,1.67,3.23,1.43,6-.24,2.51-.48,4.78-2.27,6.33-2.27,1.79-6.81.24-7.53,0a24.68,24.68,0,0,1-3.94-1.91c-1.67-1-1.91-1.43-2.63-1.31-1.2.23-1.31,1.67-3.11,4.06a11.23,11.23,0,0,1-3,2.51,7.71,7.71,0,0,1-4.78,1.43,6.18,6.18,0,0,1-4.06-1.19c-1.43-1.08-1.43-1.56-3.58-4.42a5,5,0,0,0-2.87-1.92c-1.32-.36-1.56.12-3.83,1-1.43.48-4.42,1.67-6.45.6a7.24,7.24,0,0,1-3.35-4.78c-.12-1.92,1-3.83,1.44-5.5.24-.72.48-1.32.71-1.91h-1.19a15.25,15.25,0,0,0-1.67,3.7,10.51,10.51,0,0,0-.6,5.14c.12.48.72,3.35,3.11,4.54s4.78.36,6.45-.12c2.51-.71,3.23-1.79,4.78-1.43.84.24,1.55,1,2.75,2.39,2.39,2.87,2.39,3.23,3.94,4.3a7.82,7.82,0,0,0,4.3,1.2,10.24,10.24,0,0,0,5.5-1.2,14.09,14.09,0,0,0,3.35-2.63c2-2.39,2.15-3.82,3.46-4.06.72-.12,1.08.36,2.87,1.31a26.14,26.14,0,0,0,4.3,1.91c.72.24,4.19,1.08,6.58-.71,2-1.56,2.27-4.07,2.63-6.58A14.39,14.39,0,0,0,1598,607.29Z"/><path class="cls-10" d="M1490.3,537.61a23.18,23.18,0,0,1,5-2.63,17.94,17.94,0,0,1,4.06-1.31,41.66,41.66,0,0,1,4.9-.72c4.55-.48,3.83-.6,5.38-.72,1.32-.12,1.32,0,7.17.36a31.63,31.63,0,0,1,5,.36c1.91.24,3.59.6,4.66.84"/><path class="cls-10" d="M1656.54,540.12a23,23,0,0,0-5-2.63,17.94,17.94,0,0,0-4.06-1.31,41.32,41.32,0,0,0-4.9-.72c-4.54-.48-3.83-.6-5.38-.72-1.32-.12-1.32,0-7.17.36a31.63,31.63,0,0,0-5,.36c-1.91.24-3.59.6-4.66.84"/><path class="cls-10" d="M1674,613.62a16.11,16.11,0,0,1-1.44,4.3,13.1,13.1,0,0,1-1.55,2.75,21.88,21.88,0,0,1-2.51,2.63c-2.39,2.39-1.91,2.15-2.75,2.87a42.87,42.87,0,0,1-4.42,2.87c-1.91,1.19-2.27,1.43-3.11,1.91-1.31.6-2.51,1.07-3.22,1.31"/><path class="cls-10" d="M1469.51,614.93a16.25,16.25,0,0,0,1.43,4.31,14.38,14.38,0,0,0,1.55,2.75,22.82,22.82,0,0,0,2.51,2.62c2.39,2.39,1.92,2.16,2.75,2.87a46,46,0,0,0,4.42,2.87c1.92,1.2,2.28,1.44,3.11,1.91,1.32.6,2.51,1.08,3.23,1.32"/><path class="cls-12" d="M1606.6,804.56h-80.27a2.45,2.45,0,0,0-2.47,2.47v27.44a2.45,2.45,0,0,0,2.47,2.46h80.27a2.44,2.44,0,0,0,2.47-2.46V807A2.54,2.54,0,0,0,1606.6,804.56Z"/><polygon class="cls-12" points="1547.09 836.93 1541.57 836.93 1536.2 836.93 1536.2 844.92 1547.09 836.93"/><path class="cls-13" d="M1542.15,818.79l-1.88-.58a2.06,2.06,0,1,1,1.3-3.92l1.89.58a1.34,1.34,0,0,1,.87.58l1.16-2.47-2.18-1.16-2.17-.44a4.48,4.48,0,0,0-5.37,3.2l-.15.58a4.48,4.48,0,0,0,3.19,5.37l2.76.73,1.31-2.76C1542.59,818.93,1542.44,818.93,1542.15,818.79Z"/><path class="cls-13" d="M1539.25,820.82l1.89.73a2.25,2.25,0,0,1,1.3,2.61,2.35,2.35,0,0,1-2.61,1.31l-1.89-.73a5.41,5.41,0,0,1-1.45-1l-1.89,2.62,1.46,1,1.3.87,1.31.44,1,.14c2.33.73,5.52-1.45,6.1-3.77l.15-.58a4.51,4.51,0,0,0-3-5.52l-2.76-.72-1.31,2.61Z"/><rect class="cls-13" x="1548.83" y="811.82" width="3.77" height="16.55"/><rect class="cls-13" x="1561.31" y="811.82" width="3.77" height="16.55"/><rect class="cls-13" x="1584.97" y="811.82" width="3.77" height="16.55"/><polygon class="cls-13" points="1575.97 813.27 1574.96 816.03 1570.46 828.37 1566.83 828.37 1572.93 812.11 1574.81 812.84 1575.97 813.27"/><polygon class="cls-14" points="1583.09 828.37 1579.6 828.37 1574.96 816.03 1573.94 813.13 1574.81 812.84 1576.99 811.97 1583.09 828.37"/><rect class="cls-13" x="1572.93" y="811.82" width="4.21" height="1.89"/><rect class="cls-13" x="1571.47" y="822.27" width="7.98" height="3.05"/><polygon class="cls-13" points="1564.36 825.9 1561.46 828.51 1552.02 816.47 1549.85 813.71 1550.72 813.13 1552.6 811.82 1564.36 825.9"/><polygon class="cls-13" points="1599.35 828.37 1590.49 817.63 1587.88 819.8 1594.99 828.37 1599.35 828.37"/><polygon class="cls-13" points="1594.56 811.82 1587.88 819.95 1590.35 821.98 1598.62 811.97 1598.33 811.82 1594.56 811.82"/><path class="cls-15" d="M1606.6,772.34h-95.08a2.44,2.44,0,0,0-2.46,2.46v27.44a2.44,2.44,0,0,0,2.46,2.47h95.08a2.45,2.45,0,0,0,2.47-2.47V774.8A2.44,2.44,0,0,0,1606.6,772.34Z"/><polygon class="cls-15" points="1528.07 804.71 1522.7 804.56 1517.18 804.56 1517.18 812.55 1528.07 804.71"/><path class="cls-16" d="M1522.7,780.76c0,5.37.15,10.74.15,16.11V797"/><polyline class="cls-16" points="1529.23 780.47 1522.41 780.47 1522.41 797.01 1526.47 797.01 1526.47 791.35 1530.83 791.35"/><polyline class="cls-16" points="1528.65 788.16 1526.33 788.16 1526.33 783.51 1528.8 783.51"/><rect class="cls-17" x="1522.41" y="780.47" width="4.06" height="16.55"/><rect class="cls-17" x="1551.88" y="780.47" width="4.06" height="16.55"/><rect class="cls-17" x="1592.09" y="780.47" width="4.06" height="16.55"/><rect class="cls-17" x="1588.34" y="780.45" width="11.47" height="3.34"/><polygon class="cls-17" points="1558.27 780.47 1558.27 781.19 1564.36 794.84 1568.14 793.1 1562.47 780.47 1558.27 780.47"/><polygon class="cls-17" points="1575.54 780.47 1575.54 780.76 1569.59 794.26 1565.96 792.37 1570.89 780.47 1575.54 780.47"/><polygon class="cls-17" points="1563.49 792.95 1569.88 793.1 1568.28 797.01 1565.23 797.01 1563.49 792.95"/><polygon class="cls-17" points="1582.07 782.06 1581.2 784.67 1576.56 797.01 1573.07 797.01 1579.02 780.9 1580.91 781.48 1582.07 782.06"/><polygon class="cls-17" points="1589.33 797.01 1585.7 797.01 1581.2 784.67 1580.04 781.77 1580.91 781.48 1583.23 780.76 1589.33 797.01"/><rect class="cls-17" x="1579.02" y="780.47" width="4.21" height="1.89"/><rect class="cls-17" x="1577.57" y="790.92" width="7.98" height="3.05"/><path class="cls-17" d="M1529.67,780.47h-2.32a4.58,4.58,0,0,0-4.65,4.64v1.45a4.59,4.59,0,0,0,4.65,4.65h2.32a4.58,4.58,0,0,0,4.64-4.65v-1.45A4.58,4.58,0,0,0,1529.67,780.47Zm.58,5.37a2.23,2.23,0,0,1-2.18,2.17h-1.45v-4.5h1.45a2.27,2.27,0,0,1,2.18,2.33Z"/><rect class="cls-17" x="1536.64" y="780.47" width="4.06" height="16.55"/><path class="cls-17" d="M1543.6,780.47h-2.32a4.58,4.58,0,0,0-4.64,4.64V786a4.59,4.59,0,0,0,4.64,4.65h2.32a4.59,4.59,0,0,0,4.65-4.65v-.87A4.58,4.58,0,0,0,1543.6,780.47Zm1.17,5.37a2.23,2.23,0,0,1-2.18,2.17h-1.45v-4.5h1.45a2.27,2.27,0,0,1,2.18,2.33Z"/><path class="cls-17" d="M1543.46,787.87a1.9,1.9,0,0,1-.87.14h-1.45v-3.19l-3.2,2.32,7,10h4.65l.29-.15Z"/><path class="cls-18" d="M1446.32,528.77c-3.23-5.38-6.69-11.24-8.6-18.53a47.76,47.76,0,0,1-1.32-16.37,74.7,74.7,0,0,1,4.78-20.2c2.63-6.81,4.19-8.12,3.83-12.07-.48-4.9-3.35-7.17-2.15-11.11.83-2.87,2.63-2.51,4.3-5.62,2.63-4.9-.84-7.77.48-15.42.35-2.62,1.19-7.76,5.14-11.11a38,38,0,0,1,8.12-4.78c2.27-.48,5-1.55,6-3.82,1.55-3.71-3-6.94-1.68-11.6,1-3.46,4.67-5.61,6.94-6.93a56.38,56.38,0,0,1,7.76-3c1.68-.59,6.94-2.27,5.14-1.67-1.91-5.5-1.07-11.47,2.63-15.42,5-5.61,13.87-5.85,14.58-4.3.48,1-1.67,3.35-2.63,3-1.19-.36-.71-5.5,0-8.61.72-3.34,1.2-5.49,3-6.93.6-.48,1.79-1.19,9.44-.83,3.35.12,6.46.47,9.44.83,7.29.84,7.29,1.2,8.13.84,5.5-2.39,2.63-15.06,7.77-16.73,2.15-.72,4.78.83,5.62,1.31,3.58,2.15,3.22,5.14,5.13,5.62,3.95.84,7.89-12.19,12.91-11.59,1.67.12,2.87,1.67,4.78,3.82,3,3.59,2.39,5.38,3.83,6,3.7,1.55,8-8.73,15.89-8.61a20.36,20.36,0,0,1,7.29,1.68c3.59,1.43,3.83,2.62,5.62,2.62,3.34-.23,4.9-3.1,8.12-6.93,2-2.39,7.65-3.34,10.16-1.91,3.23,2,1.68,7.89,3.59,7.89,2.27,0,3.23-7.53,6.33-7.89,1.8-.24,6,1.55,7.29,2.87,2.39,2.27-.83,5.62,1,7.17,1.43,1.19,4.54,5.74,7.29,1.67,4.66-6.93,3.11-4.54,4.06-5.85s9.08-9.92,10.4,1.67c.36,2.75,0,7.65-1,8.25-1.55,1.07-6.09-1.8-1.91,3.58,1.79,2.27,3.11,3.94,5.62,4.78,0,0,1.55.48,8.12,0,3.83-.95,6.94-1.91,9-2.63,2.75-.95,3.82-1.43,5.62-1.31,2.86.12,4.89,1.55,6.93,3,2.39,1.67,4.9,3.46,5.61,6.45.6,2.39-.35,4.3.48,4.78,1.08.6,2.87-2.51,5.14-2.15,1.79.36,2.87,2.75,3.82,4.78,1.44,3.11,1,4.54,2.16,5.14,1.67.83,3.22-1.8,6.93-2.63,4.18-.84,8.6,1.19,11.11,3.82a9.68,9.68,0,0,1,3,5.14c.6,3-1,4.42,0,5.62,1.31,1.67,4.9-.84,10.28,0,1,.12,6.81,1.19,8.6,5.14.24.48,0,.12.48,6.93,0,0,.12,1.67.72,6,0,.24,0,.36.12.48.71,2.15,4.42,2.75,6.45,3,4.54.6,5.14-.48,7.77.48a9.11,9.11,0,0,1,4.78,3.82c1.79,3.23-.48,5.14.84,8.13,1.67,3.82,6.21,2.51,9,6.93a9.85,9.85,0,0,1,.84,8.61c-1.92,4.42-6.94,5.37-7.77,5.61a12,12,0,0,1-9.92-2.63c-2.51-2.15-1.91-3.82-4.3-5.14-2.63-1.55-4,.12-8.13-.83-4.78-1.08-6.45-3.95-8.13-3-1.31.72-1.79,3.23-.83,4.78,1.19,1.91,3.7.84,5.61,2.63,2.75,2.63-.48,7.65,1.68,9.44,2.39,2,7.76-3.11,11.11-.84,2.51,1.68,1,5.14,3.47,6.94,3,2,6.69-2.27,10.75-.48,3.23,1.43,4.42,6,5.14,8.6,1.55,5.86-.48,8.25,1.67,10.76s4.78.84,6.94,3.46c1.91,2.28.35,4.31,1.67,8.13,1.43,4.18,3.94,3.83,7.29,8.61,1.31,1.91,5,7.17,3.82,12.43s-6.09,5.85-6,9.91c.12,3.59,3.94,4.07,6.45,10.28,1,2.39,2.39,5.74.84,8.13-1.91,3.23-8.37,3.82-12.07,1.31-2.51-1.79-3.59-5-5.62-11.59-1.19-3.94-.84-4.18-1.67-5.14-3-3.7-8.25-1.55-11.12-5.14-2.27-2.75-1.19-6.45-1.67-6.45-.84,0-4.3,8.6-.84,15.42,1.68,3.46,3.35,3,5.62,6.93.6,1,4.18,7.29,2.15,13.26s-7.89,6-8.6,11.12c-.24,1.43,1,4.42,3.46,10.28,3.11,7.41,3.71,8,3.47,9.92-.72,4.66-5.62,4.66-6.93,9.44-1.56,5.61,4.3,9.32,2.15,13.74-1.2,2.51-3.11,1.55-6.46,5.14a20.72,20.72,0,0,0-4.78,9.44c-1.19,6.1,1.56,7.53-.47,11.11-1.44,2.51-3.11,2.51-6,6.94a25.46,25.46,0,0,0-2.15,3.82c-2.15,4.9-.72,7-2.63,9s-5.26,2.16-7.77,1.32c-4.06-1.44-5.85-6.1-5.62-9.44.36-5.5,6-7.77,5.14-9.44-1.07-2.16-12.9-1.68-17.56,5.13-4.19,6.1,0,13.39-4.31,16.38-3.58,2.51-8.72-1.2-11.11,1.67-1.32,1.55-.12,2.75-.84,7.29-.48,2.63-1.07,6.34-3.82,9-2.15,2-6.46,4.19-10.28,2.63a9.17,9.17,0,0,1-5.14-6.93c-.36-2.63.84-3.58,0-5.61-1.19-2.63-3.94-2-5.14-4.31-1.91-3.34,2.39-7.77.84-9.44s-6.22,2.15-8.61.48c-2.86-2-.59-10,1.68-18,2.15-7.65.48-9,2.15-15.77,2-8.25,5.38-10.88,5.14-13-.6-5-2.75-6.45-3-10.75-.24-5.14,4.54-6.7,3.82-11.12,0-.24-.47-1.07-1-2.27a32.22,32.22,0,0,0-1.56-2.87c-1.43-2.27-3-9.08,0-13.74,1.92-2.87-3.94-2.27-3.34-4.42.72-3.11,2.39-4.43.36-9.8-1.68-4.54,1.19-8.13-.84-9.92-1.79-1.56-4.06.83-7.77-.48-3.94-1.43-5.5-5.74-6-6.93-.36-1-2.27-5.86,0-9.44,1.67-2.63-3.83,3.7,1.31-1.2.48-.36-1.43,2.39-5.62,1.44-.71-.12-5.25-1.44-7.29-4.31s1.56-3.46-.23-6-6.1,3.58-9.21,3c-1.31-.24-5.14-8.73-12.43-6.7s-8.48.6-12.43,0c-4.3-.71-7.29-4.3-9-6.45a14.92,14.92,0,0,1-3.46-6.93,25.68,25.68,0,0,1,0-4.3c0-1.56-4.55,1.79-6.82-1.56s-3.58-8.36-7.29-9.56c-7.41-2.39-6.81-3.94-11.23-6.09-4.9-2.39-8.49-7.77-9.44-12.91-1.2-6.57.48-5-2.75-5.62-4.66-.83-6.45-1.07-12.67.48-2.51.6-4.3-1.2-15.42-1-12.9.24-12.66,5.86-15.41,5.62-6.46-.72-6.46,4.9-12.55,5.14-5.74.24-2.75.6-5.86,3.11-3.34,2.75-4.78-1.56-7.05,3.82-1.07,2.75-2.39,10.4-8.72,12.55s.83,8.13-1.44,10.52-5.61-4.9-6.81,4.54c-.12,1.43-1.79,5.38-3.34,8.72-1.8,3.83-1.2,3.83-2.16,6.58-1.91,5.37,1.8,9.8-.59,14-1.32,2.39-4.31,1.31-4.54,3.22-.24,2.51-1.32,1.32.11,5.14,1.56,4.19-1.19,9.56-1.19,9.56a30,30,0,0,0-1.2,9.69c.24,6,1.08,8.84-.11,12.42-.84,2.63,1.07,9-1.68,9-3.94.12-11-9.2-11.23-9.92-3.35-7.41,1.79-12.31-1.32-20.68C1449.79,533.43,1449.67,534.38,1446.32,528.77Z"/><path class="cls-19" d="M1476.44,430.53c.6,1.08,3.34-.6,6.93-.24,5.74.6,9,6,10,5.14s-3.11-6-.84-9.68c.36-.48.72-.84,1-1.2,1.79-1.67,4.06-2.15,7.41-2.27,6.45-.24,7.53,1.32,8.84.24,1.91-1.55-.12-4.78,1.08-13.26.36-2.63.83-4.66,2.39-6.46a7.25,7.25,0,0,1,4.3-2.86c3.47-.6,5.62,2.62,7.17,1.67,1.31-.84-.24-3.71,1.43-5.5s4.07.12,6-1.43c2.39-1.92-.24-5.74,2.63-10.28a12.22,12.22,0,0,1,2.75-3,13.4,13.4,0,0,1,5-2.39c4.78-1.31,5.85.72,8.84-.84.6-.35,1-.59,4.42-2.62.24-.12.6-.36,1.32-.72,3.22-1.91,3.58-2,4.9-2.87a23.29,23.29,0,0,0,2.63-1.67,22.59,22.59,0,0,1,3.94-2.15c3.59-1.08,6.21,1.79,7.17.83s-.6-4.9-3.11-5.73c-1.55-.48-2.51.59-6,2-5.26,2.15-5.74.83-8.61,2.63-4.42,2.63-4.54,6.57-7.17,6.57s-3.22-3.35-6.33-3.47c-.48,0-1.79,0-4.54,2.27-6.1,4.9-6,9.21-9.68,10-2,.48-3-.71-5.5.24a6.45,6.45,0,0,0-3.47,2.87c-1.07,2.15.36,3.83-.83,5.5-.48.6-1.2.83-2.63,1.43-4.07,1.56-5.26.72-6.93,2a7.06,7.06,0,0,0-2.27,4.55,16.49,16.49,0,0,0,0,3.46c.12,2.75.23,6.93-1.44,7.77s-3.82-2.15-5.5-1.2c-.83.48-1,1.68-1.19,2.87-.36,2.27.6,3,0,4.3a4.55,4.55,0,0,1-2.87,2.28,5.5,5.5,0,0,1-3.47,0,6.7,6.7,0,0,1-3.7-3.11c-1.55-2.75-.48-5.62,0-7.17s1.08-3.11,2.27-3.71c2.15-1.19,4.06,1.08,6.33,0,1.8-.95,2.28-3.34,2.63-4.54.72-3.34-.83-4.66.24-6.33.72-1.08,2-1.44,4.9-2.27,3.11-1,4.19-.72,4.31-1.2.11-.95-5.62-3.7-10.88-2-1.2.36-3.59,1.2-4.3,3.11s.83,3.46,0,4.9c-.72,1.19-2.75,1.31-6.93,1.67-3.23.24-3.59,0-4.31.6-2.51,1.79-2,7.17-2,7.77.12,2,.72,3,0,4.06-.6.84-1.55,1.07-3.11,1.43-2.5.6-3,0-4.54.6a6.91,6.91,0,0,0-4.06,3.47c-.6,1.55-.84,3.94.24,4.9,1.31.95,3-.72,5.14.24a4.16,4.16,0,0,1,2,2.27C1479.19,426.71,1475.6,429.33,1476.44,430.53Z"/><path class="cls-19" d="M1526.27,440.33c-1.55-3.7,5-9.8,12.43-16.73a21.25,21.25,0,0,1,9-5.62c1.91-.48,5.37-1.55,9,0,4.66,1.91,6.57,6.57,6.93,7.29,1.44,3.59.48,5.62,2.63,7.77,1,1,1.31.6,4.3,2.15,3.35,1.79,5.74,3,6.46,5.14a5.38,5.38,0,0,1-.84,5.14c-2.75,3.11-9.8-.24-17.57-2.15C1539.42,438.54,1528.19,444.75,1526.27,440.33Z"/><path class="cls-19" d="M1623,358h0c-.48-.6-1-1.32-1.44-1.91a23.29,23.29,0,0,0-6.45-3.47c-2.87-.84-5.38-.12-7.77.48a21.42,21.42,0,0,0-7.29,3.46c-4.18-1.43-5.14-1.31-5.14-1.31-1.07.12-2.63.72-4.3,3h2.27a7.62,7.62,0,0,1,3.35-.72,9.74,9.74,0,0,1,3.34.6h4.19a4.73,4.73,0,0,1,1.79-.36,9.9,9.9,0,0,1,1.79-.48c.12,0,.36-.12.48-.12a8.33,8.33,0,0,1,4.42-1.19,7.17,7.17,0,0,1,2.75.47,7.75,7.75,0,0,1,5,1.8Z"/><path class="cls-19" d="M1647,355.72h.12a7.26,7.26,0,0,1,3.23.71,6.34,6.34,0,0,1,2.27,1.32h3.22a47.26,47.26,0,0,0-4.78-5.14,15.21,15.21,0,0,0-8.6-2.15,16.12,16.12,0,0,0-10.28,3.46,15,15,0,0,0-3.23,4.07h2.39a6.45,6.45,0,0,1,1.92-1.2A8.23,8.23,0,0,1,1638,355a7.8,7.8,0,0,1,3.82-.84A8.22,8.22,0,0,1,1647,355.72Z"/><path class="cls-19" d="M1646.5,397.66c1.32,0,1.55-1.67,3.71-2.86a6.45,6.45,0,0,1,4.9-.84c2.39.84,1.91,3.59,4.3,4.9,1.79,1,2.87-.12,8-.6,4.06-.36,6.81-.6,8.6,1.2,1.19,1.07,1.43,2.51,1.67,4.54a19.25,19.25,0,0,1-.59,8.25c-.72,3.1-1.44,4.06-.84,4.89.84,1.08,2.63,0,6,.84a9,9,0,0,1,4.31,2.27c.47.48,1,1.2,1.67,7.17.6,4.19.48,4.9,0,5.74-.84,1.31-1.91,1-3.11,2.63a6.36,6.36,0,0,0-1.43,4.06c0,1.67.72,2.27,1.19,3.71,1.08,4.18-2.75,8.36-2.27,8.6s1.8-2.27,2.27-2,.24,4.42-2.27,6.33c-2.27,1.68-4.9.84-5.14,1.68s1.8,2.39,4.07,2.87c3.46.71,5.38-1.8,7.41-.6,1.31.71,1.67,2.27,2,3.46.12.24,1,4.07-1.2,6.58-1.67,2-3.94,1.91-4.06,2.86s2.75,1.08,4.54,3.47a8.15,8.15,0,0,1,1.2,6c-.48,2.15-1.8,2.74-1.44,3.46.48,1,3.59-.24,8-.83,3-.48,4.78-.84,7-.48,1.91.24,3.35.36,3.83,1.43.95,1.91-3.23,4.54-2.28,7.17.72,2.15,3.71,1.91,4.07,3.71.36,2-2.63,5-5.74,5.73-.12,0-1.55.12-4.3.24-3.23.24-4,.24-4.54.84-1.08,1.19,0,2.51-.84,3.7-1.07,1.32-3.35.48-8,.24-6.33-.24-7.29,1.08-9.68-.24s-2.75-3.1-5.14-3.7c-1.07-.24-1.07.24-4.9.84-2.39.35-2.15.11-4.9.59-1.07.12-2.27.84-3.46.36a.37.37,0,0,1-.24-.12c-1.31-.72-1.43-2.63-1.67-4.54-.48-3.82.47-5.26-.6-6.33a4.14,4.14,0,0,0-3.71-.6c-1.31.36-1.67,1.31-2.27,1.19s-.59-1.55-1.43-4.3a7.46,7.46,0,0,0-1.2-2.87c-.47-.47-1.31-1.19-6-1.67-3.71-.36-4.42-.12-5.14-.84s-.48-1.19-.84-5.14c-.36-3.7-.59-4.18-.83-4.54-1.2-1.55-3.47-1.67-5.5-1.67s-3,.24-5.5.6c-1,.12-1.19.12-8,0a37.25,37.25,0,0,1-8.25-.6c-3-.6-3.59-1.19-4.06-1.67-.72-1.08-.36-2-.24-5.74.12-5.26-.48-6.09-.84-6.57a5.3,5.3,0,0,0-3.7-1.2c-2,.12-2.4,1.08-4.9,2a17.44,17.44,0,0,1-6.94.6,28.28,28.28,0,0,1-4.9-.83c-3.94-1.2-5.49-3.23-6.33-2.63s0,3,.24,3.7a8.25,8.25,0,0,0,3.46,4.54c2.16,1.32,4.31,1.2,6.58,1.2,3.82-.12,4.9-1.32,6.57-.6s1.2,2.15,3.11,5.14a11.19,11.19,0,0,0,2.87,3.46c2.63,1.68,4.78.12,6.33,1.68,1.31,1.43.12,3.22,1.43,4.3.72.6,1.44.36,5.5,0,4.3-.48,4.78-.36,5.14,0,1.08,1.19-.6,3.35-.24,6.93.12,1.32.36,3.95,2.27,5.5,1.32,1.07,2.75,1.07,4.54,1.19,4.19.12,5.62-1.31,8.85-1.43,2.51-.12,4.3.6,7.17,1.67,4.78,1.92,6.93,3.83,13.74,8.61,10.16,7.05,11.47,7.05,14,10.63,2.75,3.71,2,4.78,4.9,7.41,4.55,4.31,8.61,3.59,10,7.17s-1.67,6.82-.24,8,4.67-.72,6.34-2.27a7.92,7.92,0,0,0,2-2.87,4.89,4.89,0,0,0,.48-2c.24-3.23-2.39-4.3-2-6.57.36-2,3-3.23,3.46-3.47,1.91-.83,2.51-.12,3.71-.83,2.15-1.44.59-4.55,2.63-6.58,1.31-1.43,2.51-.48,7.76-2,2.87-.84,4.19-1.19,5.5-2.27,2.15-1.91,2.63-4.54,3.11-7.17.36-2.15.72-3.71,0-5.5-.84-2-2.51-2.51-4.06-3.7-5.62-4.66-1.92-14.22-6.34-16.38-2.15-.95-3.82.72-5.14-.59s-.24-3.23,0-8.85c.12-4.9-.59-4.9,0-7.77.72-3.46,2.27-5,1.44-6.33s-2.87-.24-4.54-1.67a5.81,5.81,0,0,1-1.2-5.74c.84-2.27,2.51-2,4.3-4.9a7.38,7.38,0,0,0,1.44-5.74,5.87,5.87,0,0,0-2.63-3.7c-1.68-1.08-2.51-.24-3.71-1.2-2.27-1.67-1.79-5.85-1.67-6.93.24-2.63,1.08-2.86,1.19-5.14,0-.83,0-4.18-2-5.73s-4.18.36-6.33-1.2c-1.32-.95-1.67-2.75-2.27-6.33s-.12-4.54-1.2-6-2.63-2.15-4.9-2.86a15.18,15.18,0,0,0-8.6-.84c-3.35.72-4.18,2.39-6.34,1.67-1.19-.36-1.19-.95-3.1-2.63s-4-3.22-6.34-3.1c-2,0-2,1.31-5.73,2.62-2.51.84-3.71.6-4.07,1.44C1643.15,395.39,1645,397.66,1646.5,397.66Z"/><path class="cls-19" d="M1686.66,457.66c0,.48,5-.12,6.69,2.63s-2,6.69-.48,9,5.62-.36,11,1.91c.83.36,5.73,2.51,6.69,6.46,1.19,5-4.66,8.72-3,13.14.84,2,2.51,3.47,3.23,3.23,1.31-.6-1.8-7.53.48-9.2,1.55-1.2,3.7,1.43,7.88,1.07,3.35-.24,7.17-2.39,7.29-4.78.12-1.67-1.67-3.1-3.82-4.78-5.14-3.82-7.53-2.75-9.68-5.61-2.51-3.35-.72-7.18-2.75-8.13s-4.18,2.75-7.53,2.15-3.11-4.42-7.29-6.69C1691.2,456,1686.66,457.3,1686.66,457.66Z"/><path class="cls-19" d="M1693.23,549.56c-.72-.95,1.08-4.42,4.18-5.73a7.57,7.57,0,0,1,6.34.47,8.77,8.77,0,0,1,4.18,4.78c.84,2.39-.12,3.59,1,5a5.15,5.15,0,0,0,3.7,1.68c.84.12,2.63.24,3.59-.72,1.31-1.32,0-3.11,1.19-4.54s4.18-1.2,5.86-1,4.3.6,5.85,2.63c1.2,1.55.48,2.39,1.56,6,.95,3,1.43,4.9,3,5.85,2.27,1.44,4.07-.71,8.49.12a14.15,14.15,0,0,1,6.57,3.35c2.27,2.15,1.79,3.23,4.3,5.5s4.31,2.39,4.43,3.7c.12,1.79-2.87,2.51-2.75,4.06.24,2,6.33,1.68,7,4.19.48,1.91-2.51,5.26-4.54,4.9-2.27-.48-1.44-5.38-5.62-12.31a31.3,31.3,0,0,0-5.5-6.46,15.57,15.57,0,0,0-7.17-3.7,3.84,3.84,0,0,0-2.63.12c-1.19.84-.71,3-.12,7.29,1,7.41.6,8,.24,8.13-1.55,1-6.33-3.95-6.93-4.43-3.7-3.7-3.58-5.73-6-6.45-2.87-.84-4.43,1.55-6.58.24-1.67-1-2.27-3.23-2.75-4.78-.47-1.91-.12-2.15-.71-3.83a6.79,6.79,0,0,0-2.75-4.06c-1.56-.84-2.27.12-5-.48-1.32-.24-3.59-.71-4.42-2.27-.6-1.19.24-1.79-.12-4.06-.12-.48-.6-3.59-2.15-4.06-1-.24-1.44.71-3.59.95C1694.42,549.92,1693.59,550,1693.23,549.56Z"/><path class="cls-19" d="M1688.45,537.37c2.27-2.51,1.07-1.31,1-2s6.69-3.35,9-1c.6.6.83,2,1.19,5,.48,3.59.12,4.19.84,5.5a7.09,7.09,0,0,0,3.82,2.87c2.39.72,3.35-.36,4.78.6s2.16,3.46,1.32,4.54c-1.43,1.79-6.69-1.2-8,.6-.6.83.48,1.79.12,4.18-.12.6-.48,3.35-2.39,4.18-1.55.72-3.46-.12-4.54-1-1.79-1.44-1.67-3.35-3-3.59-1.07-.12-2,1.08-2.15,1.2-1.19,1.43-.72,3.7,0,5,1.08,2,2.39,1.8,3.35,3.59a6.19,6.19,0,0,1-.72,6.21c-1.55,1.68-3.35.72-6.33,2.87-1.56,1.2-1.8,2-2.39,1.92-1.08-.24-1-3.47-1.44-8.13-.36-3.47-.6-3.35-1.19-8.13-.72-5.5-.6-6.57-.12-7.77.71-1.91,1.55-2.27,3.1-4.78,2.87-4.54,3.23-5.49,3-6.45-.36-2-2.15-2.39-2-3.47C1685.82,536.54,1683.19,543.23,1688.45,537.37Z"/><circle class="cls-19" cx="1687.97" cy="535.58" r="3.82"/><path class="cls-19" d="M1726,437.88c-.45,1.21,1.61,2,1.72,4.15.11,2.37-1.88,3.14-1.47,4.81.41,1.5,2.32,2.43,3.93,2.44s1.88-1.36,3.64-1.7c2.18-.44,4.88,1.21,6,3.35.65,1.24.63,2.51.57,4.88-.09,3.31-.9,4.19-.18,5,1.07,1.14,4.08.49,5.9-.44,2.23-1,2.43-2.15,3.7-2.13,2,.08,3.6,2.63,4.34,3.94s2.49,4.37,1.52,7.21c-1,3.26-4.32,3.5-4.28,5.95a3.89,3.89,0,0,0,2.44,3.36c2.15.83,3.74-1.45,5.63-.69s2.89,3.75,2.33,6.15c-.93,3.68-5.87,4.67-5.47,6,.2.67,1.46.52,5,1.29s5.12,1.11,6,2.25c1.62,2,.39,4.55,1.34,4.93s2.22-3.15,6.1-5.11c2.89-1.41,4.12-.45,5.83-2a7.18,7.18,0,0,0,1.55-8.45,7.44,7.44,0,0,0-8.22-3.76c-1.92.52-2.61,2.16-4,1.88a3.77,3.77,0,0,1-2.43-3c-.48-3,3.27-4.3,3.19-7.6a4.63,4.63,0,0,0-2.65-4.19c-2.22-.57-4.53,2.5-5.24,1.86-.35-.32.27-1.54,1.16-4.12,1.13-3,1.56-4.55,1.42-5.65-.37-2.43-2.82-4.35-4.89-5.1-2.67-1-3.62.43-5.53-.66-2.35-1.33-1.37-4-3.83-5.75s-4.4-.13-5.92-1.83.3-4.41-1.2-5.78-3.36.67-6.7-.28c-2.32-.65-2.29-1.92-4.69-2.48C1729.66,435.93,1726.39,436.51,1726,437.88Z"/><path class="cls-19" d="M1724.66,618.76c-3.23-3.23-9.32-3.35-12.91-.48a10.19,10.19,0,0,0-2.39,3.23c-3,6.09.84,11.11-1.55,13.5s-6.69-1.31-9.2,1.08c-1.8,1.67-.24,4.3-.6,11.83-.24,5.5-1.31,9.08-.84,9.2.72.24,1.44-8.36,7.89-13.26,2.87-2.16,4.54-1.92,7-4.78,2.75-3,1.79-4.19,4.3-7.89,4.19-6.1,9.92-7.41,9.45-10.52C1725.86,620,1725.38,619.48,1724.66,618.76Z"/><path class="cls-20" d="M1480.26,451.92c0,.24-.71,0-2.75.36a34,34,0,0,0-5,1.32c-5,1.79-6.09,3.1-6.93,2.62-1.07-.83-.59-4.66,1.68-6.45C1471.54,446.42,1480.38,451.09,1480.26,451.92Z"/><path class="cls-20" d="M1451.94,453.12c1,1.31,5,.24,7.77-1.68.71-.59,3.46-2.51,3.82-5.61a13.92,13.92,0,0,0-.84-5.62h0s-2.62-5-4.3-4.78-.83,4.54-3.46,10.76C1453.13,450.61,1451.22,452.16,1451.94,453.12Z"/><path class="cls-20" d="M1470.82,443.32c-.72-.72,1-3,0-3.83s-3.23,1-4.78,0c-1.31-.83-1.55-3.58-.48-5.14,1.68-2.39,6.58-2,9.68-.71a3.94,3.94,0,0,0,.72.36c4.78,1.91,8.6-3.59,12.07-2.16,1.79.72,2.51,3,2.63,4.31a5.86,5.86,0,0,1-3.82,6c-2.51.72-3.47-2-6.94-2.15C1475.24,439.61,1471.9,444.27,1470.82,443.32Z"/><path class="cls-20" d="M1517.67,418c1-.24-.48-7.77,1.67-8.6,1.91-.72,3.71,4.42,8.61,5.14,2.63.35,6-.6,6.93-2.63s-1.44-3.95-.48-5.62c1.2-1.91,4.9-.12,6.45-2.15,1.44-1.79-.95-4.3.48-6,1.56-1.91,5.38.36,7.29-1.67,1.56-1.67-.12-3.82,1.32-5.62,1.79-2.15,5.26.24,10.27-.83,4.19-.84,4.31-3,13.27-8.13,5.38-3.11,6.45-3,6.93-2.63,1.2,1.31-4.3,6.81-2.63,9.44,1.2,1.79,4.19,0,7.29,2.15s1.8,5.62,5.14,7.77a8.23,8.23,0,0,0,6.46.84c2.86-.72,3.34-2.75,5.13-2.63,2.16.12,4.07,2.75,4.78,5.14,1.56,5.14-2.74,8.84-.83,11.11,1.31,1.67,4.78,1.79,6.93.48,2.75-1.91,1.79-5.86,3.82-6.45s5,2.74,5.62,3.46c2.39,2.87,2.15,4.9,3.47,5.14,2,.48,6-3.82,5.61-8.13a8.29,8.29,0,0,0-5.61-6.93c-3.71-1.07-6,2-9.92.48a6.26,6.26,0,0,1-3.47-3c-1-2,.48-3.34-.48-5.14-1.07-2.27-4.54-2.86-5.61-3,0,0-1.2-.24-6.46.47,0,0-.24-7.05-3.82-9.44-2.39-1.55-4.18.12-6.93-1.67-.6-.36-.84-.72-3.47-4.78-3.23-4.9-3.23-5.14-3.82-5.62-3.35-2.39-8.37-.6-9-.48-3.7,1.32-3.46,3.35-6.93,4.31-3.94,1.07-6-1.2-8.12.47s-.84,4.55-3,6c-2.51,1.79-5.5-1.79-10.76-.48a10.81,10.81,0,0,0-5.14,3c-2.87,3.11-3,7.53-3,9-.12,3.59,1,5,0,6-1.68,1.67-5.86-1.32-7.77.48-1.68,1.55.36,4.66-1.32,6,0,0-.71.6-6.45-.48,0,0-4.42-1.91-6-.83C1511.1,404,1516.24,418.22,1517.67,418Z"/><path class="cls-20" d="M1646.5,346.63c2.87-.24,5-.12,6.45-1.67,1.8-1.91,1.8-5.62.48-6.45s-3,1.67-7.29,3a17.23,17.23,0,0,1-8.6.47c-5.86-1.43-7.29-6.33-10.28-5.61-2.75.71-2.87,5-5.14,5.14s-2.63-3.95-6.45-5.14c-3.23-1.08-6.46.59-6.93.83-3.59,1.91-3.11,4.9-5.62,5.62-3.23.84-5-3.82-10.28-3.82a11.91,11.91,0,0,0-5.62,1.67c-3.22,2-3.1,4.18-6.45,6-1.43.84-3.7,2-5.62,1.32-3-1.2-1.67-6.22-5.61-9-.36-.24-2.75-1.92-5.14-1.32-2,.6-2.27,2.39-5.14,6-2.39,3.1-4.66,5.85-6.93,5.61-2.51-.36-2.75-4.3-5.62-4.78-1-.12-1.91.24-5.62,3-4.54,3.47-5.26,4.66-7.29,6-3.7,2.51-7.53,2.74-9.92,3-8.48.72-12.07-3.46-15.89-.83-2.27,1.55-3,4.42-3.47,6-1.31,5.38,1.56,8-.47,11.12-1.2,1.91-2.28.95-5.62,3.82-1.79,1.56-4.42,3.83-5.14,7.29-.6,3.11,1,4.18,0,5.62-1.55,2.39-6.1-.24-11.12,2.15s-6.69,8.13-6.93,8.6c-1.19,4.67.12,10.4,2.15,10.76,3.23.48,8.25-13,8.61-12.91s-1.55,3.35-.84,3.83c1,.71,5.86-4.42,6.93-5.62,4.43-4.66,5.5-7.17,6.94-6.93.35.12.83.48,2.15,6.93,1.07,5.26,1.07,6.22.47,6.93-1,1.08-2.5.12-5.13.48a13.32,13.32,0,0,0-7.77,3.82c-4.42,5-1.91,15.06.48,15.42,1,.12,1.43-1.19,5.61-6,3.35-3.83,3.23-3.23,5.14-5.62a45.87,45.87,0,0,0,6.93-12.07,24,24,0,0,0,1.68-7.29c.24-4.78-1.32-8.49-.84-8.61s1.91,6.7,6,7.77c2.39.6,5.61-.72,6.45-3a4.66,4.66,0,0,0-.72-4.18c-.83-1.19-1.91-1.43-1.91-1.79.24-1.08,9.44,1.79,11.59-1.32,1.79-2.51-3.1-6.93-1.31-9.92,1.55-2.51,6.69-2.27,10.75-2.15,5.26.24,6.46,1.44,9,.48,3.34-1.31,2.63-3.94,6-6,4.19-2.51,6.81.47,12.43-1.68,4.54-1.67,3.71-3.94,8.13-5.61,2.39-1,6-.72,12.91-.48,7.17.36,7.88.83,9.91,0,3.95-1.56,3.59-4,7.77-5.62.6-.24,5.5-2.15,9.92,0,3.59,1.67,3.23,4.3,6,5.14,3.11,1,4.54-1.91,11.59-4.78C1636.22,348.9,1640.64,347.11,1646.5,346.63Z"/><path class="cls-20" d="M1593.2,362.05c0,2.27,5.86,4.9,7.77,3.47,1.67-1.2.24-5.26,1.31-5.62.72-.24,1.32,1.91,3.47,3,2.87,1.43,5.26-.84,6.93.48s-.6,5,1.31,7.29c1.68,2,6,2.15,7.77.47,1.56-1.55.36-3.58,1.68-4.78,1.67-1.43,4.06,1.32,8.6,1.32,3.35,0,3.59-1.44,10.28-3,3.58-.84,5.38-1.2,6.93-.48,2.87,1.44,1.91,4.9,4.78,6.46s5.14-1.32,8.6,0c4.43,1.67,4.07,7.88,6.94,8.12,3.82.36,6.81-10.87,10.75-10.28,1.56.24,1.32,1.92,3.83,3.47,3.82,2.39,6.57-.12,9.44,1.67,4.06,2.63,1.43,9.68,5.14,11.6,2.75,1.43,4.78-2,9-.84,3.82,1.07,3.47,4.18,7.77,5.62,4.06,1.31,6.09-1,8.6.83.84.6,1,1.2,3,6,1.79,4.3,2.75,6.33,3.47,6.93,3.34,2.27,7.29-2,10.75,0s1.56,7.53,5.14,9.44c2.51,1.32,4.18-.84,6.93.48,4.19,2,2.63,9,6,10.28,2.87,1.07,7.65-2.27,7.77-5.14.12-3.47-6.46-7.29-6.46-7.29h0s-6.33-.36-10.27-3.47a13.64,13.64,0,0,1-4.31-6.45c-2.15-5.5-.12-7.65-1.67-10.76-3.35-6.69-17.69-7.17-18.05-6-.12.59,2.63,2.39,3.47,1.67s-.6-5.38-3.82-8.13a13.36,13.36,0,0,0-6-2.63c-6.57-1.31-9.68,1.8-12.91-.47-1.55-1.08-.71-1.8-3.46-4.78-1.44-1.56-3.47-3.71-6.46-4.31-2.51-.47-3,.6-4.78,0-3.34-1.31-2.27-6.09-5.61-8.6-2.27-1.79-5.26-1.32-10.76-.48-5,.84-6.09,2-11.59,2.63-2.63.24-4.3.48-6.46,0-3.7-.72-4.9-2.39-8.6-4.3-3.23-1.68-7.65-3.83-12.07-3-4.78,1-5,4.54-11.12,6a22.5,22.5,0,0,1-6.45.47c-4.66-.36-6.45-1.79-9.44-2.63C1602.4,354.64,1593.2,359.18,1593.2,362.05Z"/><path class="cls-20" d="M1578.62,413.68c3.23,2.15,6.33.24,7.77,2.15,1.55,2.15-1.68,6.1,0,7.77,1.19,1.19,3.1-.36,4.78.84,2,1.55.36,5.13,2.15,6.45,1.55,1.07,4.66-.24,6.45-2.15,3-3.23,2.63-9.32,0-11.12-2.75-2-7.41,1.2-8.6-.48s2.75-4.42,1.67-7.29c-1.19-3.22-7.65-3.58-12.07-3.82-4.18-.24-4.9.48-5.14.84C1574.56,408.3,1576.11,411.89,1578.62,413.68Z"/><path class="cls-20" d="M1648.17,400.77c1.68.6,4.07-3.46,6-2.63.36.12.6.48,1.08,1.2a14,14,0,0,1,1.91,3.94c1.31,3,5.38,1.79,6.93,4.3,1.79,3-2.63,6.46-.84,10.28,1.2,2.63,3.83,2,4.78,4.3,1.44,3.71-4.54,6.22-5.14,12.43s5,8.49,3.47,14.23c-.72,2.5-1.79,2.15-3.82,6.45-1.8,3.7-3.47,7.29-2.16,9.92,1.56,3.11,5.38,1.43,9,5.14,2.63,2.63,3.22,6.09,3.82,9,1.08,5.38-.36,6.69,1.32,9.92s5.37,5.5,6.93,4.78.6-3.94,1.67-4.3c1.32-.36,2.63,3.94,6.93,5.61,1.2.48,2.87,1.08,4.31.48,1-.48,1.55-1.31,4.06-3a2,2,0,0,1,1.07-.47c.84.24.84,1.79,1.8,3.94a11.09,11.09,0,0,0,1.67,3c2,2.27,6.81,2.63,8.13.83,1.67-2.27-1.8-8.84-6.93-11.59-1.2-.6-4.19-2.27-7.29-1.31s-3.35,3.46-5.62,3.46-5.14-2.86-5.14-5.61c0-3,3.23-4.54,2.63-6-.84-1.79-5.74.12-7.29-2.15-1.08-1.55-.36-4.54,1.31-6s3.23-.47,4.78-1.67c2.15-1.91,2-7.41-.47-9s-6.34,1.43-8.13-.48c-1.2-1.2-1.32-4.3-1.32-4.3h0l3.47-6h0c-3.23,6.1,5.14-8.12,5.14-8.12-.24-3-3.59-4-3-6,.48-1.67,2.63-1.31,4.3-3.47a7.53,7.53,0,0,0,.84-7.29c-1.79-4.54-7.65-5.13-8.13-5.13-4.18-.36-7.17,2-7.77,1.31-.71-1,4.07-3.71,5.14-9,.12-.48,1.2-5.86-1.67-8.61-3.11-2.87-6.93.48-11.59-2.15-4.18-2.39-3.11-6.21-7.29-8.13-2.87-1.31-7.17-1.19-9,1.32C1646,396.23,1646.74,400.17,1648.17,400.77Z"/><path class="cls-20" d="M1677.22,458c-.24.59,5.85,2,6.93,6.45.71,3-.84,7.29-.84,7.29h0c6.81-.48,7.29.48,7.29.48.36.72-.24,1.31-1.31,4.3-1.2,3.47-1.92,5.14-1.32,6,1.32,1.91,6.22-1.44,9.44.83,2.75,1.92,3.35,7.41,1.68,11.12-1.8,4.06-5,3.94-6.46,8.12-1.07,3.23-.36,6.94.84,7.29,1.91.6,4.78-6.57,6.45-6,1.44.48-.48,5.62,2.15,10.76.36.59,2.39,4.66,6.46,6,6.09,2,10.16-4.3,15.89-2.15,3.59,1.31,3,4.06,7.29,6,4.66,2.16,11,1.56,12.07-.83s-3.34-7.89-8.6-9.44c-4.3-1.32-6.1.83-10.76-.84-3-1.08-4.9-3-7.29-5.62-.83-1-2.75-2.86-6.93-9.92s-6.45-10.87-6.45-14.22c0-4.42,2.15-4.78,1.67-8.12-.72-6.1-8.37-9.92-15.06-13.27C1683.31,458.73,1677.45,457.54,1677.22,458Z"/><path class="cls-19" d="M1460.9,453.83c-1.19.48-.36,2.51-1.91,4.07s-3.59.71-4.54,2.15-.24,3.35.83,4.54,2.28.48,3.71,1.55c1.79,1.32,2.39,4.43,1.55,6.7-.47,1.31-1.43,2.15-3.22,3.7-2.51,2.15-3.71,2.15-3.83,3.23-.12,1.55,2.39,3.34,4.3,4.06,2.28,1,3.23.36,4.07,1.32,1.31,1.55.48,4.42,0,5.85s-1.56,4.78-4.3,6c-3.11,1.43-5.5-.84-7.29.83a3.9,3.9,0,0,0-.84,4.07c.84,2.15,3.58,1.79,4.3,3.7s-.84,4.66-3,5.86c-3.34,1.79-7.41-1.2-8.12,0-.36.6.59,1.43,2.39,4.54s2.63,4.54,2.39,6c-.36,2.5-3.11,3.34-2.75,4.3s3.82-.48,7.89,1.07c3,1.2,3.1,2.75,5.37,3a7.15,7.15,0,0,0,7.29-4.54,7.41,7.41,0,0,0-2.74-8.61c-1.68-1.07-3.35-.47-4.07-1.67a3.76,3.76,0,0,1,.6-3.82c1.91-2.39,5.38-.48,7.77-2.75a4.65,4.65,0,0,0,1.31-4.78c-1.07-2-4.9-1.67-4.9-2.63,0-.48,1.32-.84,3.83-1.91,3-1.2,4.42-1.92,5.14-2.75,1.55-1.91,1.31-5,.47-7.05-1.07-2.63-2.74-2.39-3.22-4.54-.6-2.63,2-3.71,1.67-6.7s-2.87-3.34-2.63-5.61,3.47-2.75,3.47-4.78-2.75-2-4.31-5.14c-1.07-2.15-.12-3-1.31-5.14C1464.85,455.27,1462.22,453.24,1460.9,453.83Z"/><path class="cls-20" d="M1444.41,483.23c1.19,3.71,4.9,4.07,4.9,6.34,0,2.75-5,3.82-4.66,6.21.24,1.68,2.75,1.56,3.23,3.59.71,2.51-2.87,4.3-2.16,6.45.6,1.79,4,2.63,6.46,2.15,4.42-.83,7.65-5.85,6.69-9s-6.57-3.47-6.57-5.5,4.9-1.91,5.73-4.78c1.08-3.23-3.94-7.53-7.29-10.4s-4.18-2.51-4.66-2.39C1444.41,476.54,1443.45,480.25,1444.41,483.23Z"/><ellipse class="cls-21" cx="1571.77" cy="658.36" rx="40.66" ry="18.64"/><path class="cls-21" d="M1583,635a2.51,2.51,0,0,0-1.82.68,15.66,15.66,0,0,1-9.34,3.12,17,17,0,0,1-9.65-2.75,2.43,2.43,0,0,0-1.65-.61c-16.32,2-26.13,9.32-28,15.39-2.8,8.83,17.52,16.54,39.14,16.54s41.46-7.61,39.15-16.54C1608.79,643.33,1599,637,1583,635Z"/><path class="cls-22" d="M1596,669.27l-24.26,2.14-24.25-2.14c-8.71,0-15.83-6-15.83-13.32h0c0-8,14.3-15.58,23.49-14.61l16.59,2.58,15.07-2.58c11.74-2.15,25,6.38,25,14.18V656C1611.79,663.27,1604.67,669.27,1596,669.27Z"/><path class="cls-23" d="M1611.06,650.29c-9.51,3.08-23.27,3.71-39.06,3.71s-30.15-.61-39.65-3.66c2.39-4.35,9.66-8.1,16.47-9.34h8.91l13.89,1.86,12.6-1.86h12.22C1603.27,642.48,1609.19,646.27,1611.06,650.29Z"/><path class="cls-24" d="M1610,649.09c-9.51,2.87-22.21,2.91-38,2.91s-28.5-.07-38-2.91c2.39-4.06,9.19-7.05,16-8.21h8l14,2.24,13-2.24h12C1603.83,642.27,1608.13,645.34,1610,649.09Z"/><path class="cls-25" d="M1611.79,654.72v.43c0,7.33-7.12,13.32-15.83,13.32l-24.25,2.14-24.26-2.14c-8.7,0-15.83-6-15.83-13.32a7.83,7.83,0,0,1,.82-3.39c2.39-5,9.66-9.36,16.47-10.8a22,22,0,0,1,4.53-.5,15.19,15.19,0,0,1,1.67.08l2.71.42,13.89,2.16,12.6-2.16,2.46-.42a23.27,23.27,0,0,1,9.76.42c6.83,1.72,12.75,6.1,14.62,10.75A7.76,7.76,0,0,1,1611.79,654.72Z"/><g id="Layer_9" data-name="Layer 9"><path class="cls-26" d="M1568.94,866.38c14.82-1.67,29-1.55,32.51-.47l.35-1c-1.79-1.67-14.82-1.79-33,.36s-32.15,6.45-31.91,8.84l.36.84C1541.33,872.6,1554.12,868.06,1568.94,866.38Z"/></g></g><g id="arm"><path class="cls-27" d="M1485.5,1038.5a34.09,34.09,0,0,1,1.37-9c1.32-3.83,3.48-7.19,4.09-7,.93.35-3.39,8.17,0,13.26,1.24,1.85,3.08,2.73,5,3.66,2.58,1.23,7.93,3,9.15,1.37s-4.15-5.18-5.94-13.26c-.91-4.1-.52-7.86,0-12.81.7-6.75,1.71-6.55,1.37-9.61-.46-4.11-2.91-7.37-7.78-13.72-4.09-5.33-4.8-5.16-6.4-8.24-1.34-2.57-1.93-4.79-3.2-11.89-1.33-7.4-2-11.1-2.29-14.18-1.11-11.43,1-18.93,1.83-26.08,1.1-9.84-1.68-6.17-5.49-35.22-2.1-16-2-21.63-5.49-26.53-.6-.85-.6-3-.46-6.18.14-2.9,0-4.85,2.29-8s5.89-8.26,6-11c.08-3.88-8.44-9.19-37.52-16-.06,9.29-.15,14.07-1.07,19-.43,2.3,1.07,7.16.62,10.75a84.09,84.09,0,0,0-.46,15.55,209.42,209.42,0,0,0,2.29,21.05c2.43,16.83,3.84,25.22,4.11,27.44,2.29,18.76,3.82,17.8,4.81,26.31,1.13,9.74,1.42,13,2.51,19.9.49,3.07,3.19,7.22,4.73,9.38a3.15,3.15,0,0,1,.3,3.16,43.24,43.24,0,0,1-2.28,4.38c-2.7,4.25-3.78,8.32-6,16.47a64.37,64.37,0,0,0-2.74,20.13c.34,9.68,3,16.49,5,21.5,2.12,5.36,0,1.84,1.59,3.36"/></g><g id="stump"><path class="cls-4" d="M1471.5,858.36l-28.94-5.57c-3.06-1.43-5.06-3.43-5.06-6.43l5.29-33.11a5.89,5.89,0,0,1,6.74-4.91l27.72,4.34a5.9,5.9,0,0,1,4.91,6.75l-3.66,32.93C1480.33,860.63,1481.06,861.45,1471.5,858.36Z"/></g></g><g id="Layer_1" data-name="Layer 1"><path class="cls-28" d="M1143,896.94c39.75,3.28,75.82-18.45,88.21-52.88,11.93-33.15-.53-71.38-31-94.62L873.81,630.67a473.81,473.81,0,0,1-54.09,148.64Z"/><ellipse class="cls-29" cx="845.92" cy="705.23" rx="77.88" ry="25.46" transform="translate(-103.96 1262.59) rotate(-70.22)"/><path class="cls-30" d="M827.25,768.49a326.48,326.48,0,0,0,43.3-120.41L667.27,575,624,695.38Z"/><ellipse class="cls-31" cx="459.69" cy="720.35" rx="52.45" ry="148.06" transform="translate(-378.91 884.55) rotate(-68.53)"/><path class="cls-32" d="M589.74,763.19q10.47-22,20.93-44c-29,3-92.26,5.62-161.35-26.61a303.92,303.92,0,0,1-99.27-74.45q-7.23,19.47-14.47,38.94a264.06,264.06,0,0,0,101.87,84.64C504.58,773.12,565.91,766.89,589.74,763.19Z"/><ellipse class="cls-33" cx="572.15" cy="424.38" rx="52.45" ry="142.34" transform="translate(-32.16 801.56) rotate(-68.53)"/><ellipse class="cls-34" cx="572.05" cy="421.68" rx="40.29" ry="126.61" transform="translate(-29.72 799.74) rotate(-68.53)"/><path class="cls-35" d="M695.84,490.43q-2.64,6.65-5.29,13.28c-30.06,3.22-99.29,6.36-172.34-31.39a298.8,298.8,0,0,1-88.28-69.67q2.38-5.49,4.79-11c15.34,19.38,55.2,64.38,123.93,88.22A272.48,272.48,0,0,0,695.84,490.43Z"/><path class="cls-32" d="M676.64,551.19,691.7,504c-29,3.05-92.27,5.63-161.36-26.61a304.15,304.15,0,0,1-99.27-74.45l-14.46,38.94a277,277,0,0,0,101.87,84.64C587.54,559.83,651.17,554.67,676.64,551.19Z"/><path class="cls-36" d="M616.88,710.16c11.74-24.58,23.47-51.77,34.52-81.48,10.12-27.22,18.41-53.18,25.24-77.49-27.42,4.4-93.61,11.16-166-21.61a288.56,288.56,0,0,1-99.27-74.45c-10.79,24.87-21.47,51.44-31.72,79.68q-13.71,37.76-24.24,72.89a284.06,284.06,0,0,0,108.35,82.44C530.9,719.09,591.07,713.92,616.88,710.16Z"/><path class="cls-37" d="M677.1,542.15q-2.65,6.65-5.29,13.28c-30.07,3.22-99.29,6.36-172.34-31.4a298.7,298.7,0,0,1-88.29-69.66q2.4-5.49,4.79-11c15.35,19.38,55.21,64.38,123.94,88.22A272.48,272.48,0,0,0,677.1,542.15Z"/><path class="cls-37" d="M618.53,708.12l-9,13.68c-31.68,2.14-99.46,2.22-170.95-35.6a313.7,313.7,0,0,1-88.28-69.66l4.79-11A286.37,286.37,0,0,0,618.53,708.12Z"/><path class="cls-38" d="M354,589.58l15.33,5.51a161.56,161.56,0,0,0,36.23-100.74l-15.33-5.51A129,129,0,0,1,354,589.58Z"/><path class="cls-39" d="M1125.11,853.27c47.73,24,96.53,1.84,106.11-26,9.1-26.45-12.78-70.54-60.2-84.63l-285.4-101.4A193.46,193.46,0,0,1,851,756.72Z"/><ellipse class="cls-40" cx="370.03" cy="538.13" rx="53.53" ry="16.29" transform="translate(-261.57 704.23) rotate(-70.22)"/><path class="cls-30" d="M638,983.53a1631.92,1631.92,0,0,1-272.35,27.54A1632.28,1632.28,0,0,1,78,990.41v-104a1250.37,1250.37,0,0,0,281.53,29.84A1251.25,1251.25,0,0,0,638,882.55Z"/><ellipse class="cls-30" cx="358" cy="882.93" rx="280" ry="34.81"/><path class="cls-30" d="M521,879.18a949.32,949.32,0,0,1-158.28,16,949.13,949.13,0,0,1-167.16-12V822.72A726.39,726.39,0,0,0,521,820.49Z"/><ellipse class="cls-30" cx="358.23" cy="820.72" rx="162.72" ry="20.23"/><path class="cls-41" d="M1539,198.23c1.29,66-54.45,132.91-113,147.45-37.17,9.23-79.92,13.78-79.92,13.78A82.11,82.11,0,0,0,1362.61,438a303.31,303.31,0,0,1-103.34-67.52,947.62,947.62,0,0,1-166.74,6.89c-66.24-3.09-99.81-5.68-137.8-23.43-45-21-114.74-75.16-114.37-147.44.33-64.47,56.28-109,78.55-126.77C990.62,22.6,1071.6,20.5,1191.06,19.1c117.36-1.38,193.34-1.19,263.88,51C1478.1,87.21,1537.69,131.29,1539,198.23Z"/></g></svg>
