<svg id="Layer_1" data-name="Layer 1" xmlns="http://www.w3.org/2000/svg" viewBox="0 0 285 106"><defs><style>.cls-1{fill:#f39131;}.cls-2,.cls-4{fill:#1f2532;}.cls-2,.cls-3{stroke:#f39131;stroke-miterlimit:10;}.cls-3{fill:none;stroke-width:4px;}</style></defs><title>spiligen</title><rect class="cls-1" width="285" height="106" rx="53"/><circle class="cls-2" cx="235.5" cy="53.5" r="33"/><path class="cls-3" d="M230.5,40.5l15,13-15,12"/><path class="cls-4" d="M57.1,41.41a3.51,3.51,0,0,1,.51,2c0,2-1.08,5-3.23,9.12Q51,59,48.87,59a.88.88,0,0,1-.82-.61,15.37,15.37,0,0,0-.1,2c0,1.36.08,2.92.24,4.69a2.74,2.74,0,0,0,.17.78,3.28,3.28,0,0,1,.17.82c0,.43-.3.79-.89,1.09a2.51,2.51,0,0,1-1.08.2,4.53,4.53,0,0,1-2.11-.51,1.91,1.91,0,0,1-1.33-1.83,1.42,1.42,0,0,1,.36-.94,1.35,1.35,0,0,0,.36-.56l-.62-22a1.5,1.5,0,0,0-.1-.41,1.51,1.51,0,0,1-.1-.48c0-.4.29-.72.88-1A3.86,3.86,0,0,1,45.33,40c.16,0,.8.07,1.91.2a13.63,13.63,0,0,0,2-.73,8.91,8.91,0,0,1,3.21-.73A5.57,5.57,0,0,1,57.1,41.41ZM52,42.77a4.07,4.07,0,0,0-2.09.87,11.17,11.17,0,0,0-2.23,2l.14,7.82a13.47,13.47,0,0,0,3.25-4.5,12.8,12.8,0,0,0,1.75-5.15C52.85,43.11,52.57,42.77,52,42.77Z"/><path class="cls-4" d="M79.13,64.87a2.51,2.51,0,0,1,0,.37A2,2,0,0,1,78,67a4.88,4.88,0,0,1-2.48.7,2.35,2.35,0,0,1-1.26-.31,1.64,1.64,0,0,1-.59-.8,1.82,1.82,0,0,0-.56-.8l-7.52-5,.31,3.13a3.43,3.43,0,0,0,.52,1,2.47,2.47,0,0,1,.5,1.26,1.78,1.78,0,0,1-1,1.4,2.52,2.52,0,0,1-1.47.4,4.25,4.25,0,0,1-2.34-.68,2.68,2.68,0,0,1-1.43-1.73,2.47,2.47,0,0,1,0-.34,1,1,0,0,1,.45-.83c.31-.24.46-.46.46-.67L60.5,44.26a3.86,3.86,0,0,0-.38-1.17A3.09,3.09,0,0,1,59.78,42c0-.59.39-1.06,1.16-1.43a4.36,4.36,0,0,1,1.94-.47A3.17,3.17,0,0,1,64,40.3a1.12,1.12,0,0,1,.64.58c.12.26.25.39.41.39a19.7,19.7,0,0,0,2.08-.75,12.43,12.43,0,0,1,4.18-.88,5.29,5.29,0,0,1,4.21,1.84A2.07,2.07,0,0,1,76,42.9c0,1.66-1,4-2.86,7a31.92,31.92,0,0,1-5.61,6.8l8.77,6.12s.59.29,1.7.81A1.94,1.94,0,0,1,79.13,64.87ZM70,43.75a4.74,4.74,0,0,0-2.38,1.43c-.23.18-1.07,1-2.52,2.35l-.07,6.08a31.22,31.22,0,0,0,3.81-5.15c1.13-1.89,1.7-3.24,1.7-4.06C70.56,44,70.38,43.75,70,43.75Z"/><path class="cls-4" d="M95.75,52.83a23.32,23.32,0,0,1-1.56,9.4q-1.8,4.84-3.84,5.46a3.9,3.9,0,0,1-1.6.2l-1.6-.2q-7-.81-7.72-14.86a22.52,22.52,0,0,1,1.23-8.16q1.32-4,2.75-5a1.35,1.35,0,0,1,.75-.23,4,4,0,0,1,1,.18,3.68,3.68,0,0,0,1,.19,9.81,9.81,0,0,0,1.48-.19,10.56,10.56,0,0,1,1.58-.18,2,2,0,0,1,.78.13Q95.21,41.72,95.75,52.83Zm-5.06-4.15q-.91-5.84-3.27-5.84a2.49,2.49,0,0,0-1.07.27c-.37.18-.86,1.35-1.48,3.5a24.54,24.54,0,0,0-1,6.22,20.85,20.85,0,0,0,.14,2.25Q84.33,54.81,90.69,48.68ZM91.16,53q-2,2.1-6.35,6c.88,3.34,1.77,5,2.68,5q1.13,0,2.48-3.81A18.18,18.18,0,0,0,91.16,53Z"/><path class="cls-4" d="M113.4,43.86l-5.51,20a1.39,1.39,0,0,0,0,.3,8.5,8.5,0,0,0,.08.85,7.08,7.08,0,0,1,.09,1,2.29,2.29,0,0,1-.6,1.65,1.93,1.93,0,0,1-1.44.62,4.31,4.31,0,0,1-2.76-1.34,3.67,3.67,0,0,1-1.49-2.57,2.77,2.77,0,0,1,.17-.74,1.58,1.58,0,0,0,.07-.75L98.1,43.45c0-.16-.26-.41-.7-.75a1.41,1.41,0,0,1-.66-1.09c0-1,1-1.53,2.89-1.53a6.22,6.22,0,0,1,2.29.41,2,2,0,0,1,1.28,1.12,1.47,1.47,0,0,1,.07.41,2.31,2.31,0,0,1-.27.88,1.66,1.66,0,0,0-.21,1l2.45,12.78L108.71,43a3.63,3.63,0,0,0,.07-.71v-.89a1.86,1.86,0,0,1,1-1.66,2.79,2.79,0,0,1,1.49-.38,4.84,4.84,0,0,1,2.55.73A2.05,2.05,0,0,1,115,41.85a1.59,1.59,0,0,1-.13.6,1.79,1.79,0,0,1-.73.68A1.37,1.37,0,0,0,113.4,43.86Z"/><path class="cls-4" d="M130.81,66.84c-.21.57-.8.85-1.77.85a5.57,5.57,0,0,1-.88-.07c-1.86-.29-3-.85-3.27-1.66a1.18,1.18,0,0,1-.1-.48,2,2,0,0,1,.78-1.43q-.13-5.1-.61-20.81a2.18,2.18,0,0,0-.24-1,2.49,2.49,0,0,1-.27-.87,1.83,1.83,0,0,1,.78-1.29,2.23,2.23,0,0,1,1.53-.48,5.8,5.8,0,0,1,2.38.58c1,.48,1.5,1.05,1.5,1.73a9.35,9.35,0,0,1-.72,1.84l.34,20.6a2.57,2.57,0,0,0,.31,1,2.61,2.61,0,0,1,.31,1A2,2,0,0,1,130.81,66.84Z"/><path class="cls-4" d="M149.27,57.12a2,2,0,0,1-1.6.64c-.63,0-1.26,0-1.87,0a24.08,24.08,0,0,1-1.66,6.42c-.87,2-1.78,3.2-2.76,3.61a1.53,1.53,0,0,1-.54.1,5,5,0,0,1-3.1-1.53,13,13,0,0,1-3.12-4.32,16.32,16.32,0,0,1-1.4-6.73,31.53,31.53,0,0,1,1.67-10.51c1.29-3.62,3.05-5.45,5.27-5.47q2.47,0,4,3.13a18.61,18.61,0,0,1,1.67,6,2.34,2.34,0,0,1,.54,1.49,1.84,1.84,0,0,1-.54,1.38,1.89,1.89,0,0,1-1.36.53,4.84,4.84,0,0,1-2-.46,3.15,3.15,0,0,1-1.37-1,1.12,1.12,0,0,1-.21-.65,7.87,7.87,0,0,0,.28-1.32c-.32-2.63-.69-3.95-1.09-3.95s-.83,1.25-1.4,3.74a30.87,30.87,0,0,0-.91,6.94,19.89,19.89,0,0,0,.69,4.85c.47,1.8.87,2.7,1.21,2.7s.68-.49,1.09-1.46a11.45,11.45,0,0,0,.81-3A5.12,5.12,0,0,1,140,57.12a3,3,0,0,1-.92-1.87,1.17,1.17,0,0,1,.48-.94,2.67,2.67,0,0,1,1.6-.42c2,0,3.13-.08,3.33-.11l1.07-.49a2.44,2.44,0,0,1,1-.25,3,3,0,0,1,2.06,1,2.75,2.75,0,0,1,1,2A1.76,1.76,0,0,1,149.27,57.12Z"/><path class="cls-4" d="M164.36,43.24a3,3,0,0,1-2,.65,7.82,7.82,0,0,1-1.19-.1c-.66.2-1.25.41-1.77.61a10,10,0,0,0-2.52,1.22q-.19,3.54,0,8.1a3.6,3.6,0,0,1,1-.28,1.5,1.5,0,0,1,1.4-.71,4.11,4.11,0,0,1,2.29,1c.88.64,1.31,1.26,1.31,1.87a1.18,1.18,0,0,1-.1.48,2,2,0,0,1-1.26,1.29,4.1,4.1,0,0,1-1.49.09,2.93,2.93,0,0,0-1.26.05c-.52.25-1.16.54-1.91.88a22.09,22.09,0,0,0,.21,3.94,10.8,10.8,0,0,0,2.38-.81,3.93,3.93,0,0,1,.34-.44,1.45,1.45,0,0,1,1.22-.31,3.24,3.24,0,0,1,2,1.09,3,3,0,0,1,1,2.07,1.46,1.46,0,0,1-.78,1.36,4.85,4.85,0,0,1-2.62.31l-3.19,1.6a5.6,5.6,0,0,0-.89.68,1.49,1.49,0,0,1-.91.44,1.2,1.2,0,0,1-.31,0,6.16,6.16,0,0,1-3.26-2.82A.76.76,0,0,1,152,65c0-.06.13-.52.38-1.36q-.37-9.89-.14-21.08a1.15,1.15,0,0,1-.24-.68c0-.74.7-1.22,2.08-1.42a2.05,2.05,0,0,1,1.12.23l.85.45,4.08-1.3a4.56,4.56,0,0,0,.78-.4,2,2,0,0,1,1-.28,4.39,4.39,0,0,1,.65.07A2.51,2.51,0,0,1,164,40.41a3.48,3.48,0,0,1,.73,2A1.06,1.06,0,0,1,164.36,43.24Z"/><path class="cls-4" d="M184.76,64.66a3.08,3.08,0,0,1-.85,2.06,2.34,2.34,0,0,1-1.93.77A4.21,4.21,0,0,1,178,64.66a4.13,4.13,0,0,1-.2-1.32,3.53,3.53,0,0,0-.34-1.33q-1.26-1.93-2.31-3.74A59.33,59.33,0,0,1,171.37,51q-.13,3.47.54,13a3,3,0,0,0,.34.92,2.87,2.87,0,0,1,.34,1.19,1.71,1.71,0,0,1-.41,1.12,2,2,0,0,1-1.73.75,4.33,4.33,0,0,1-2.4-.76,2.6,2.6,0,0,1-1.31-1.79,1.32,1.32,0,0,1,.45-1.26q.54-.44.51-.78l-1-20.81a3.67,3.67,0,0,0-.07-.51,2.41,2.41,0,0,1-.07-.51.91.91,0,0,1,.53-.81,2.89,2.89,0,0,1,1.48-.31,4.41,4.41,0,0,1,3.63,1.33,1.12,1.12,0,0,1,.31.81,2.64,2.64,0,0,1-.07.55,3.53,3.53,0,0,0-.07.47.78.78,0,0,0,0,.21q.68,3.47,7.14,14.55l-.41-16.59a1.27,1.27,0,0,0-.24-.68,1.25,1.25,0,0,1-.24-.58,1.85,1.85,0,0,1,.68-1.12,1.48,1.48,0,0,1,1.16-.41,4.63,4.63,0,0,1,2.58.88,2.51,2.51,0,0,1,1.36,1.91,1.08,1.08,0,0,1-.52,1c-.38.25-.56.49-.56.74l.47,18.64a2.34,2.34,0,0,0,.5,1.2A2.1,2.1,0,0,1,184.76,64.66Z"/></svg>
