<svg id="Layer_1" data-name="Layer 1" xmlns="http://www.w3.org/2000/svg" viewBox="0 0 285 106"><defs><style>.cls-1{fill:#f39131;}.cls-2,.cls-4{fill:#1f2532;}.cls-2,.cls-3{stroke:#f39131;stroke-miterlimit:10;}.cls-3{fill:none;stroke-width:4px;}</style></defs><title>spilvidere</title><rect class="cls-1" width="285" height="106" rx="53"/><circle class="cls-2" cx="235.5" cy="53.5" r="33"/><path class="cls-3" d="M230.5,40.5l15,13-15,12"/><path class="cls-4" d="M47.84,61.47a7,7,0,0,1-1.68,4.64,5.23,5.23,0,0,1-4.16,2,7.73,7.73,0,0,1-7.35-4.76q-2.55-1.67-2.55-2.82a1.1,1.1,0,0,1,.72-1,5.56,5.56,0,0,1,2.55-.74c1.67,0,2.8,1,3.36,3,.27.54.56,1.09.85,1.63a1.35,1.35,0,0,0,1.19.82c1.34,0,2-1,2-2.86,0-1.7-.31-2.84-.92-3.43A18.08,18.08,0,0,0,38.6,56.4a7.71,7.71,0,0,1-3.68-3.26,8.78,8.78,0,0,1-1.29-4.39,11.46,11.46,0,0,1,1.84-6.53q2-3.06,4.89-3.06a5.32,5.32,0,0,1,5,2.72,9.07,9.07,0,0,1,1.15,4.22,8.49,8.49,0,0,1,.38,2.35,3.26,3.26,0,0,1-.17,1.12,2,2,0,0,1-2,1.26,3,3,0,0,1-2-.82,3.93,3.93,0,0,1-1.26-2.48,1.56,1.56,0,0,1,.23-1.09,3.52,3.52,0,0,0,.32-.61.19.19,0,0,0-.07-.14,1.87,1.87,0,0,0,0-.34c0-.68-.39-1-1.19-1a2.17,2.17,0,0,0-1.8,1.53,6.35,6.35,0,0,0-.51,2.89q.11,2.9,3.81,4.62a12.15,12.15,0,0,1,4,2.69A8.1,8.1,0,0,1,47.84,61.47Z"/><path class="cls-4" d="M63.76,41.41a3.51,3.51,0,0,1,.51,2c0,2-1.08,5-3.23,9.12Q57.67,59,55.53,59a.88.88,0,0,1-.82-.61,15.37,15.37,0,0,0-.1,2c0,1.36.08,2.92.24,4.69a2.74,2.74,0,0,0,.17.78,3.28,3.28,0,0,1,.17.82c0,.43-.3.79-.89,1.09a2.51,2.51,0,0,1-1.08.2,4.53,4.53,0,0,1-2.11-.51,1.91,1.91,0,0,1-1.33-1.83,1.42,1.42,0,0,1,.36-.94,1.35,1.35,0,0,0,.36-.56l-.62-22a1.5,1.5,0,0,0-.1-.41,1.51,1.51,0,0,1-.1-.48c0-.4.29-.72.88-1A3.86,3.86,0,0,1,52,40c.16,0,.8.07,1.91.2a13.63,13.63,0,0,0,2-.73,8.91,8.91,0,0,1,3.21-.73A5.57,5.57,0,0,1,63.76,41.41Zm-5.07,1.36a4.07,4.07,0,0,0-2.09.87,11.17,11.17,0,0,0-2.23,2l.14,7.82a13.34,13.34,0,0,0,3.24-4.5,12.7,12.7,0,0,0,1.76-5.15C59.51,43.11,59.23,42.77,58.69,42.77Z"/><path class="cls-4" d="M72.8,66.84c-.2.57-.79.85-1.77.85a5.57,5.57,0,0,1-.88-.07c-1.86-.29-3-.85-3.27-1.66a1.37,1.37,0,0,1-.1-.48,2,2,0,0,1,.78-1.43Q67.43,59,67,43.24a2.18,2.18,0,0,0-.24-1,2.49,2.49,0,0,1-.27-.87,1.83,1.83,0,0,1,.78-1.29,2.26,2.26,0,0,1,1.53-.48,5.8,5.8,0,0,1,2.38.58c1,.48,1.5,1.05,1.5,1.73a9.69,9.69,0,0,1-.71,1.84l.34,20.6a2.53,2.53,0,0,0,.3,1,2.44,2.44,0,0,1,.31,1A2,2,0,0,1,72.8,66.84Z"/><path class="cls-4" d="M89.19,61.88a2.06,2.06,0,0,1,.2.91,2.91,2.91,0,0,1-.53,1.64,2.56,2.56,0,0,1-1.22,1,6.06,6.06,0,0,1-2,.26,7.5,7.5,0,0,0-1.87.17,3.06,3.06,0,0,0-1.32,1,3.66,3.66,0,0,1-2.25,1,2.57,2.57,0,0,1-2-.68,4,4,0,0,1-1.4-2,1.9,1.9,0,0,1-.07-.44,1.56,1.56,0,0,1,.5-1,1.34,1.34,0,0,0,.45-1L76.27,42.22a1.67,1.67,0,0,0-.36-.62,1.54,1.54,0,0,1-.36-.84,1.26,1.26,0,0,1,.51-.92,3,3,0,0,1,2-.64,5.22,5.22,0,0,1,2.16.47,2.43,2.43,0,0,1,1.31,1.13,1.65,1.65,0,0,1,.17.64.87.87,0,0,1-.3.61.73.73,0,0,0-.28.58L82.39,61.4l2-.82c.43-.2.86-.4,1.31-.59a2.94,2.94,0,0,1,1.1-.29C87.66,59.7,88.44,60.43,89.19,61.88Z"/><path class="cls-4" d="M114.35,43.86l-5.51,20a1.36,1.36,0,0,0,0,.3,6.76,6.76,0,0,0,.09.85,6.76,6.76,0,0,1,.08,1,2.29,2.29,0,0,1-.59,1.65,2,2,0,0,1-1.45.62,4.31,4.31,0,0,1-2.75-1.34,3.65,3.65,0,0,1-1.5-2.57,3.25,3.25,0,0,1,.17-.74,1.46,1.46,0,0,0,.07-.75L99.05,43.45c0-.16-.26-.41-.7-.75a1.41,1.41,0,0,1-.66-1.09c0-1,1-1.53,2.89-1.53a6.22,6.22,0,0,1,2.29.41,2,2,0,0,1,1.28,1.12,1.45,1.45,0,0,1,.06.41,2.31,2.31,0,0,1-.27.88,1.64,1.64,0,0,0-.2,1l2.45,12.78L109.65,43a3,3,0,0,0,.07-.71v-.89a1.88,1.88,0,0,1,1-1.66,2.83,2.83,0,0,1,1.5-.38,4.84,4.84,0,0,1,2.55.73,2.07,2.07,0,0,1,1.19,1.72,1.62,1.62,0,0,1-.14.6,1.73,1.73,0,0,1-.73.68A1.34,1.34,0,0,0,114.35,43.86Z"/><path class="cls-4" d="M124.68,66.84c-.2.57-.79.85-1.77.85a5.66,5.66,0,0,1-.88-.07c-1.86-.29-3-.85-3.26-1.66a1.2,1.2,0,0,1-.11-.48,2,2,0,0,1,.79-1.43q-.14-5.1-.62-20.81a2,2,0,0,0-.23-1,2.36,2.36,0,0,1-.28-.87,1.81,1.81,0,0,1,.79-1.29,2.23,2.23,0,0,1,1.53-.48,5.84,5.84,0,0,1,2.38.58c1,.48,1.49,1.05,1.49,1.73a9.69,9.69,0,0,1-.71,1.84l.34,20.6a2.53,2.53,0,0,0,.3,1,2.44,2.44,0,0,1,.31,1A1.59,1.59,0,0,1,124.68,66.84Z"/><path class="cls-4" d="M141.75,44.94c.09,1.52-.43,4.19-1.56,8a58.34,58.34,0,0,1-4.08,10.44c-1.84,3.42-3.52,5.14-5,5.14a3.2,3.2,0,0,1-2.22-1,2.93,2.93,0,0,1-1.07-2.11,1.51,1.51,0,0,1,.3-.92q-.54-14.65-.41-19.92A3.92,3.92,0,0,1,127,42.8a1.75,1.75,0,0,1,.92-1.43,2.92,2.92,0,0,1,1.7-.57,2,2,0,0,1,1.36.47,21.32,21.32,0,0,1,5.88-1.73,3.38,3.38,0,0,1,1.53.37,6.15,6.15,0,0,1,2.14,1.91A5.92,5.92,0,0,1,141.75,44.94Zm-4.62-1a1.12,1.12,0,0,0-.89-.4q-1.05,0-4.15,2.44c-.13,1.7-.2,3.59-.2,5.65,0,3,.14,6,.41,9.11q1.8-4.38,3.33-9.21a29.71,29.71,0,0,0,1.63-6.94A1.13,1.13,0,0,0,137.13,43.92Z"/><path class="cls-4" d="M156.17,43.24a3,3,0,0,1-2,.65,7.82,7.82,0,0,1-1.19-.1c-.66.2-1.25.41-1.77.61a9.73,9.73,0,0,0-2.51,1.22,77.85,77.85,0,0,0,0,8.1,3.39,3.39,0,0,1,1-.28,1.47,1.47,0,0,1,1.39-.71,4.11,4.11,0,0,1,2.29,1c.88.64,1.31,1.26,1.31,1.87a1.18,1.18,0,0,1-.1.48,2,2,0,0,1-1.26,1.29,4.1,4.1,0,0,1-1.49.09,2.93,2.93,0,0,0-1.26.05l-1.9.88a22.46,22.46,0,0,0,.2,3.94,10.8,10.8,0,0,0,2.38-.81c.11-.16.23-.31.34-.44a1.46,1.46,0,0,1,1.22-.31,3.26,3.26,0,0,1,2,1.09,3,3,0,0,1,1,2.07,1.47,1.47,0,0,1-.79,1.36,4.83,4.83,0,0,1-2.61.31l-3.2,1.6a5.25,5.25,0,0,0-.88.68,1.51,1.51,0,0,1-.92.44,1.2,1.2,0,0,1-.31,0,6.16,6.16,0,0,1-3.26-2.82.76.76,0,0,1-.1-.41c0-.06.12-.52.37-1.36q-.37-9.89-.14-21.08a1.14,1.14,0,0,1-.23-.68c0-.74.69-1.22,2.07-1.42a2.05,2.05,0,0,1,1.12.23l.85.45,4.08-1.3a4.56,4.56,0,0,0,.78-.4,2,2,0,0,1,1-.28,4.39,4.39,0,0,1,.65.07,2.51,2.51,0,0,1,1.48,1.18,3.41,3.41,0,0,1,.73,2A1.08,1.08,0,0,1,156.17,43.24Z"/><path class="cls-4" d="M178.16,64.87a1.67,1.67,0,0,1,0,.37A2,2,0,0,1,177,67a4.91,4.91,0,0,1-2.49.7,2.29,2.29,0,0,1-1.25-.31,1.65,1.65,0,0,1-.6-.8,1.82,1.82,0,0,0-.56-.8l-7.51-5,.3,3.13a3.57,3.57,0,0,0,.53,1,2.44,2.44,0,0,1,.49,1.26,1.78,1.78,0,0,1-.95,1.4,2.49,2.49,0,0,1-1.46.4,4.31,4.31,0,0,1-2.35-.68,2.71,2.71,0,0,1-1.43-1.73,2.47,2.47,0,0,1,0-.34,1,1,0,0,1,.46-.83c.31-.24.46-.46.46-.67l-1.09-19.38a3.78,3.78,0,0,0-.37-1.17,2.89,2.89,0,0,1-.34-1.07c0-.59.38-1.06,1.15-1.43a4.4,4.4,0,0,1,1.94-.47,3.13,3.13,0,0,1,1.12.18,1.14,1.14,0,0,1,.65.58c.11.26.25.39.41.39a20.19,20.19,0,0,0,2.07-.75,12.48,12.48,0,0,1,4.18-.88,5.31,5.31,0,0,1,4.22,1.84A2.12,2.12,0,0,1,175,42.9c0,1.66-.95,4-2.85,7a32.24,32.24,0,0,1-5.62,6.8l8.78,6.12s.59.29,1.7.81A1.92,1.92,0,0,1,178.16,64.87Zm-9.11-21.12a4.78,4.78,0,0,0-2.38,1.43c-.23.18-1.07,1-2.52,2.35l-.06,6.08a32.4,32.4,0,0,0,3.81-5.15c1.13-1.89,1.69-3.24,1.69-4.06C169.59,44,169.41,43.75,169.05,43.75Z"/><path class="cls-4" d="M192.92,43.24a3,3,0,0,1-2,.65,7.92,7.92,0,0,1-1.19-.1c-.66.2-1.24.41-1.77.61a10.1,10.1,0,0,0-2.51,1.22,77.85,77.85,0,0,0,0,8.1,3.39,3.39,0,0,1,1-.28,1.47,1.47,0,0,1,1.39-.71,4.17,4.17,0,0,1,2.3,1c.87.64,1.31,1.26,1.31,1.87a1.2,1.2,0,0,1-.11.48,2,2,0,0,1-1.25,1.29,4.14,4.14,0,0,1-1.5.09,2.93,2.93,0,0,0-1.26.05l-1.9.88a23.56,23.56,0,0,0,.2,3.94,10.62,10.62,0,0,0,2.38-.81c.12-.16.23-.31.34-.44a1.49,1.49,0,0,1,1.23-.31,3.26,3.26,0,0,1,2,1.09,3,3,0,0,1,1,2.07,1.46,1.46,0,0,1-.78,1.36,4.88,4.88,0,0,1-2.62.31l-3.2,1.6a5.72,5.72,0,0,0-.88.68,1.51,1.51,0,0,1-.92.44,1.25,1.25,0,0,1-.31,0,6.16,6.16,0,0,1-3.26-2.82.76.76,0,0,1-.1-.41c0-.06.12-.52.37-1.36q-.37-9.89-.13-21.08a1.15,1.15,0,0,1-.24-.68c0-.74.69-1.22,2.07-1.42a2,2,0,0,1,1.12.23l.85.45,4.08-1.3a4.47,4.47,0,0,0,.79-.4,1.9,1.9,0,0,1,1-.28,4.27,4.27,0,0,1,.64.07,2.51,2.51,0,0,1,1.48,1.18,3.41,3.41,0,0,1,.73,2A1.05,1.05,0,0,1,192.92,43.24Z"/></svg>
