<svg id="Lag_1" data-name="Lag 1" xmlns="http://www.w3.org/2000/svg" viewBox="0 0 1066.66 938.09"><defs><style>.cls-1,.cls-3{fill:#7b4e2b;}.cls-1{stroke:#190908;}.cls-1,.cls-16,.cls-19,.cls-23,.cls-25,.cls-26,.cls-5{stroke-miterlimit:10;}.cls-16,.cls-2{fill:#1f1402;}.cls-4{fill:#54331d;}.cls-5{fill:#e3e0df;}.cls-26,.cls-5{stroke:#000;}.cls-6{fill:#3f2d20;}.cls-7{fill:#5b381e;}.cls-8{fill:#0a0806;opacity:0.49;isolation:isolate;}.cls-26,.cls-9{fill:#fff;}.cls-10{fill:#f28f31;}.cls-11{fill:#f0c49a;}.cls-12{fill:#f7bd7e;}.cls-13{fill:#1f2532;}.cls-14,.cls-23{fill:none;}.cls-15{fill:#99908a;}.cls-16{stroke:#0f0c0a;}.cls-16,.cls-23{stroke-width:2px;}.cls-17{fill:#14120f;}.cls-18{fill:#2d1d08;}.cls-19{fill:#60241e;stroke:#4f1d1c;}.cls-20{fill:#280a07;}.cls-21{fill:#c1c4cd;}.cls-22{fill:#e1e6f0;}.cls-23{stroke:#160b0c;}.cls-24{fill:#514337;}.cls-25{fill:#785034;stroke:#211313;}.cls-26{stroke-width:4px;}</style></defs><title>forklaring</title><path class="cls-1" d="M838.9,623.79c-1.57-1.18-4.82.32-11.3,3.3-3.76,1.73-7.05,3.24-10.51,6.25-2.29,2-4,4-9.44,13.1-3.18,5.27-4.78,8.15-8.33,14.36-7.17,12.51-7.49,12.67-10.12,17.67-3.61,6.85-3.1,6.73-7.59,15.73-5.18,10.4-7.77,15.59-11.44,21.23-2.49,3.83-8.07,12-11.17,18a34.33,34.33,0,0,0-3.24,9.08s-.29,1.4-.45,2.73c-.89,7.38,1.94,15.33,2.19,15.26s-1.19-11.57-6.13-22.85a81,81,0,0,0-9.7-16.25c-4-5.38-4.74-5.21-13.12-14.85-6.64-7.64-6.23-7.83-12.32-14.69-5-5.61-9.35-10.1-12.28-13.1-5.44-5.59-5.91-5.8-11-11.11s-7.46-7.81-9.62-10.3c-5.56-6.42-5.84-7.65-8.52-9a6.92,6.92,0,0,1-3.46-3,7.43,7.43,0,0,1-.23-5.11c1.82-7.45,4.37-10,5.47-15.11,1-4.88.16-9.31-.94-14.84-.55-2.8-1-3.7-2-8.95-1.4-6.92-1.34-8.6-1.16-10a25.36,25.36,0,0,1,2.81-8c2-4,3.29-4.82,3.37-7.34,0-.23.07-3.94-2.29-5.7-2.83-2.09-7.28,0-9.48,1.58-4.95,3.58-6.09,10.16-6.51,12.64-.83,4.75.27,6.13-1.12,11.46-.85,3.26-1.59,6-3.81,7.08-2.92,1.47-6.5-.69-8.06-1.63-2.28-1.37-3.86-3.1-7.06-7.87-3.77-5.61-6.36-10.3-7.55-12.5-3.64-6.73-3.41-7-6.29-12.08-.87-1.54-3-4.83-7.24-11.4-4.54-7-6-9.11-8.72-9.77-1.77-.43-4.54-.38-5.75,1.28-1.47,2,.09,5.34,2.71,11.53,5.83,13.77,3.71,10.48,6.77,16.71,5.72,11.67,9.9,16.55,9.18,17.19-1.11,1-12.37-9.92-19.16-17.46-2.51-2.79-5.28-5.31-7.87-8-2.76-2.91-4.41-4.74-7.37-6.2-1.89-.92-5.28-2.59-7.5-1s-1.93,5.29-1.9,5.72c.2,2.52,1.46,4.58,7.41,10.56,3.39,3.41,6.17,5.93,7.67,7.29,3.28,3,4.11,3.62,10.48,9.26a129.72,129.72,0,0,1,9.33,9.2c3,3.28,3.07,3.69,3,3.91-.54,1-4.69-1.55-10.81-4.79-2.69-1.42-5.9-2.81-9.21-4.71-2.65-1.53-3.93-3.42-7.91-6.58a48,48,0,0,0-8.24-5.15c-5.86-2.92-7.52-2.3-8.15-2a5.06,5.06,0,0,0-2.74,4c-.19,2.65,2.31,4.79,5.35,7.18,9.24,7.26,12.62,8.35,19.33,13.83,3.45,2.82,3.54,3.33,7.93,6.83s6.25,4.52,6,5.4c-.46,1.7-8,1.8-14.87,0-5.85-1.58-7.36-3.55-13.28-4.07-1.34-.12-7.78-.69-8.67,1.74-.12.33-.37,1.35,1.34,3.58,2.86,3.72,7,5.34,13.72,7.12,7.14,1.89,7.69,1.45,14.24,3.39,4.13,1.23,7.26,2.4,10.46,4.9a41.61,41.61,0,0,1,4.11,4,82.55,82.55,0,0,0,10.29,8.53c12,8.86,15.45,7.52,21.84,14.68,1.7,1.91.87,1.35,5.45,7.55,5.88,8,10.52,13.3,13.17,16.43,8.23,9.68,7.41,9.81,21.48,27.51,14.2,17.87,12.37,14.38,20.43,25,0,0,10.19,13.46,19.43,24.13,4.95,5.72,7.22,7.84,10.23,9.73,2.63,1.66,4.23,2.13,6.53,4.46,3,3,3.1,5.09,5.51,6.34.57.29,2.88,1.38,7.91-.33,6.24-2.11,10.13-6.29,13.1-9.39,11.66-12.2,9.52-8.31,17.16-16.94,5.19-5.88,8.55-10.37,15.06-19.12,8.8-11.83,13.26-17.7,14.66-20.58,2.17-4.46,4.34-13.49,8.68-31.56,2.13-8.88,3.25-14.21,3.66-16.17,2.13-10.29,2.09-11.84,3.72-20.17C838.32,632.65,841.63,625.82,838.9,623.79Z"/><path class="cls-2" d="M757.94,735.21a.65.65,0,0,0,0,.31c.59,1.68,7.58,2.65,7.7,3.1.84,2.25,3.87,2.9,8.65,3.66,6.82,1.12,7.6,2.61,14.89,3.74,4.28.69,3.55.92,9.52,1.62l1.75.21c3,.25,6.7,1.87,7.18.75.35-.62.74-6.79.62-7.66-.12-2.74-.12-2.74,4.26-8.59,3.5-7.68,4.54-7.1,4.66-9.35,0-.12.36-.75.72-1.63v26.32a21.44,21.44,0,0,0,10.64,18.72,203.38,203.38,0,0,1,.95,40.53c-.47,6.34-2.22,15.85-4.35,26.32a7.67,7.67,0,0,1-.55,2.15l-.06.07h0s-.75,30.55-2.23,93.57L983,928.75c0-.43,3.63-57,3.61-57.45-.06-1-.13-2.08-.22-3.17-1.87-24.17-9-62.68-9-62.68l-.48-40.05a21.35,21.35,0,0,0,9-17.58V717.38h1c-.6,3.62,1.07,10.11.84,26.57,0,2.25-.12,4-.12,5.25,0,0,7.76-.76,16-2,1.79-.25.24-.13,8-1.37,6.21-1,9.32-1.5,12.79-3.24,2.39-1.26,3.82-2,4.54-3.62,1.07-2.12,0-3.49-1-8.36-.24-1.37-1-11.47-1.08-13.23v-.12l-4.07-29-6.08-43.29c0-10.35-9-18.83-18.77-20.58a106,106,0,0,0-22.11-4.12c-2.91-.29-5.8-.45-8.54-.5-2-.05-3.89-.05-5.68,0a12.14,12.14,0,0,0-3.94-5.62l-9.44-15.34-5.26,3.62,3.34,5.37c-11.11-4.25-27.12-7-45-7-20.68,0-38.84,3.63-49.84,9.11l4.19-6.61-5.26-3.62-12.43,20.09c-3.35,0-6.93.12-10.64.49a102.73,102.73,0,0,0-21.51,3.87c-9.8,1.38-17.57,10.35-17.57,21.08-2.51,23.7-21.62,44.69-24.13,68.39-1.19,1.74-.92,4.13-3.35,11.78C760,727.48,758.18,733,757.94,735.21Z"/><g id="kvinde"><rect class="cls-2" x="849.25" y="568.26" width="98.83" height="48.16"/><ellipse class="cls-3" cx="897.53" cy="585.35" rx="49.48" ry="16.49"/><path class="cls-1" d="M1022.66,419.83c-8.49-.36-16,10.52-17.33,24.86a2.36,2.36,0,0,0-1-.48c-2.51,0-4.54,7.89-4.54,17.69A56.8,56.8,0,0,0,1001,474c-4.18,11.95-3.46,22.59,2,25.1,6.45,2.87,17-6.34,23.66-20.56a79.09,79.09,0,0,0,3.23-8.6c4.18-4.9,7-12.67,7.53-21.75C1038.07,432.86,1031.5,420.19,1022.66,419.83Z"/><ellipse class="cls-4" cx="1013.1" cy="461.66" rx="18.52" ry="7.41" transform="matrix(0.17, -0.99, 0.99, 0.17, 384.07, 1380.26)"/><path class="cls-2" d="M1007.36,475.29c.6,2.74,1.79,4.54,3.35,4.78,3.34.47,7.29-6.58,8.72-16s0-17.45-3.35-17.93c-1.79-.23-3.82,1.8-5.61,5.26a.91.91,0,0,0-.48-.24,2.22,2.22,0,0,0-.84.24c2.15-5.14,5-8.24,7.65-7.88,4.06.59,6,9.8,4.3,20.55s-6.45,18.88-10.51,18.17c-2-.36-3.47-2.75-4.31-6.46C1006.64,475.88,1007,475.64,1007.36,475.29Z"/><path class="cls-2" d="M1010.71,440.63c7.4-7.17,11.23-10.64,11.59-10.4s-3.23,4.78-10.88,13.5"/><path class="cls-1" d="M787.22,462.1a162.53,162.53,0,0,1,4.66-38.61c6.34-66.44,50.67-117.95,104.45-117.95,56.89,0,103.14,57.6,105.17,129.55a166.18,166.18,0,0,1,2.27,27,157,157,0,0,1-6.21,44.21c0,.72.12,1.44.12,2.16,0,20.43-11.35,39.07-29.88,52.46a111.4,111.4,0,0,1-28.08,22.47c-6.58,10.16-23.91,17.45-44.22,17.45s-37.65-7.29-44.22-17.45a109.37,109.37,0,0,1-28.09-22.47c-18.4-13.39-29.87-32-29.87-52.46a13,13,0,0,1,.12-2.16A161.7,161.7,0,0,1,787.22,462.1Z"/><path d="M950.11,424.25c2.87-2,10.16.12,16.26,1.92,4.54,1.31,7.65,2.51,10.87,4.78,2.27,1.43,4,3.1,5.5,4.06a7.51,7.51,0,0,0,3.23.48,13.24,13.24,0,0,0-2.39,2.27c-.24.72,1.19.6,2.15.6a9.52,9.52,0,0,0,4.54-1.08s-1.79,5.86-5.38,9.56a20.6,20.6,0,0,1-8.25,5.62,27.74,27.74,0,0,1-4.78,1.07C961.23,454.25,943.78,428.92,950.11,424.25Z"/><path class="cls-5" d="M949.16,424.13c1.55,0,4.54-.23,6-.11,15.06,1.55,25.94,10,25.94,21.51H981l-3.47,3.34L974,452.34v-.12a5.36,5.36,0,0,1-3.35,1.08H929.08l-1.91-.12-2.87-1.92a8.47,8.47,0,0,1-1.91-1.79l-3.11-4.06c0-10.4,8.49-18.65,20.91-21.28C942.82,423.78,946.05,424.13,949.16,424.13Z"/><circle class="cls-6" cx="949.16" cy="438.83" r="14.1"/><circle class="cls-7" cx="949.16" cy="438.83" r="12.91"/><circle class="cls-8" cx="949.16" cy="438.83" r="6.81"/><circle class="cls-9" cx="951.67" cy="433.1" r="2.99"/><path d="M837.3,426.76c-2.87-2-10.16.12-16.26,1.92-4.54,1.31-7.65,2.51-10.87,4.78-2.27,1.43-3.95,3.1-5.5,4.06a7.51,7.51,0,0,1-3.23.48,13.24,13.24,0,0,1,2.39,2.27c.24.72-1.19.6-2.15.6a9.52,9.52,0,0,1-4.54-1.08s1.79,5.86,5.38,9.56a20.79,20.79,0,0,0,8.24,5.62,28,28,0,0,0,4.79,1.07C826.18,456.76,843.63,431.42,837.3,426.76Z"/><path class="cls-5" d="M838.25,426.64c-1.55,0-4.54-.23-6-.11-15.06,1.55-25.94,10-25.94,21.51h.12l3.47,3.34,3.46,3.47v-.12a5.35,5.35,0,0,0,3.35,1.07h41.59l1.91-.11,2.87-1.92A8.47,8.47,0,0,0,865,452l3.11-4.06c0-10.4-8.49-18.65-20.91-21.28C844.47,426.29,841.24,426.64,838.25,426.64Z"/><circle class="cls-6" cx="838.13" cy="441.22" r="14.1"/><circle class="cls-7" cx="838.13" cy="441.22" r="12.91"/><circle class="cls-8" cx="838.13" cy="441.22" r="6.81"/><circle class="cls-9" cx="835.62" cy="435.61" r="2.99"/><path class="cls-2" d="M918.09,410c-.84,2-.84,5,.71,6,1.68,1.19,4.42.72,8.85-1,1.79-.6,5.73-.83,12.78-3.46,9.68-3.47,13.87-4.9,17.33-4.9A43.54,43.54,0,0,1,972,409.32c8,3.1,10.64,11.47,12,10.51.83-.6-.48-3.94-1.68-6a17.73,17.73,0,0,0-6.33-6c-7.41-4.54-12.79-6.09-13.87-6.33-3-.48-9.32,0-18.16.36-7.17.24-12.79.71-19,3C921.67,406.21,919.16,407.52,918.09,410Z"/><path class="cls-2" d="M868.37,412.78c.84,2,.84,4.9-.72,6s-4.42.71-8.84-1c-1.79-.6-5.74-.84-12.79-3.46-9.68-3.47-13.61-7.59-17.07-7.59-5.5.12-7.18.57-11,2-8,3.11-14.12,14.79-15.43,13.83-.84-.6.48-3.94,1.67-6,1.67-2.75,1.37-4.43,3.76-5.86,4.42-9.88,16-10,17-11,3-.48,8,3,17.6,4.9,7.18.24,12.79.72,19,3C864.9,409,867.41,410.27,868.37,412.78Z"/><path class="cls-2" d="M881.63,455.92c-.12,1.68-.23,3.95-.47,6.58-.36,6-.48,6.69-.72,7.89a71.64,71.64,0,0,1-2.27,7.64c-.84,2.27-1.56,4.31-2,5.62"/><path class="cls-2" d="M869,497a8.32,8.32,0,0,1,1.19-2.39h1.2a1.62,1.62,0,0,0-.24.71c-.12.48-1.68,3.23-1.44,6,.24,2.51.48,4.78,2.27,6.33,2.27,1.8,6.82.24,7.53,0a24.45,24.45,0,0,0,3.95-1.91c1.67-1,1.91-1.43,2.63-1.31,1.19.23,1.31,1.67,3.1,4.06a11.37,11.37,0,0,0,3,2.51,7.73,7.73,0,0,0,4.78,1.43,6.19,6.19,0,0,0,4.07-1.19c1.43-1.08,1.43-1.56,3.58-4.42a4.93,4.93,0,0,1,2.87-1.92c1.31-.35,1.55.12,3.82,1,1.44.48,4.42,1.67,6.46.6a7.21,7.21,0,0,0,3.34-4.78c.12-1.92-1-3.83-1.43-5.5-.24-.72-.48-1.32-.72-1.91h1.2a16.06,16.06,0,0,1,1.67,3.7,10.53,10.53,0,0,1,.6,5.14c-.12.48-.72,3.35-3.11,4.54s-4.78.36-6.45-.12c-2.51-.71-3.23-1.79-4.78-1.43-.84.24-1.56.95-2.75,2.39-2.39,2.87-2.39,3.23-3.95,4.3a7.78,7.78,0,0,1-4.3,1.2,10.27,10.27,0,0,1-5.5-1.2,13.76,13.76,0,0,1-3.34-2.63c-2-2.39-2.15-3.82-3.47-4.06-.72-.12-1.07.36-2.87,1.31a26.43,26.43,0,0,1-4.3,1.92c-.72.23-4.18,1.07-6.57-.72-2-1.56-2.27-4.06-2.63-6.57A14.42,14.42,0,0,1,869,497Z"/><path class="cls-8" d="M976.64,427.36a23.15,23.15,0,0,0-5-2.63,18.06,18.06,0,0,0-4.07-1.31,41,41,0,0,0-4.9-.72c-4.54-.48-3.82-.6-5.38-.72-1.31-.12-1.31,0-7.17.36a31.87,31.87,0,0,0-5,.36c-1.91.24-3.58.6-4.66.84"/><path class="cls-8" d="M810.41,429.87a23,23,0,0,1,5-2.63,17.76,17.76,0,0,1,4.06-1.31,41,41,0,0,1,4.9-.72c4.54-.48,3.82-.6,5.38-.72,1.31-.12,1.31,0,7.17.36a31.87,31.87,0,0,1,5,.36c1.91.24,3.58.6,4.66.84"/><path class="cls-8" d="M793,503.37a16.16,16.16,0,0,0,1.43,4.3,13.43,13.43,0,0,0,1.56,2.75,20.34,20.34,0,0,0,2.51,2.63c2.39,2.39,1.91,2.15,2.74,2.87a45.51,45.51,0,0,0,4.43,2.87c1.91,1.19,2.27,1.43,3.1,1.91,1.32.6,2.51,1.07,3.23,1.31"/><path class="cls-8" d="M997.44,504.68A16.63,16.63,0,0,1,996,509a14,14,0,0,1-1.56,2.75,22,22,0,0,1-2.51,2.62c-2.39,2.4-1.91,2.16-2.75,2.87a42.87,42.87,0,0,1-4.42,2.87c-1.91,1.2-2.27,1.44-3.11,1.91-1.31.6-2.51,1.08-3.22,1.32"/><path class="cls-10" d="M955.42,694.31H875.15a2.45,2.45,0,0,0-2.47,2.47v27.44a2.45,2.45,0,0,0,2.47,2.46h80.27a2.44,2.44,0,0,0,2.47-2.46V696.78A2.54,2.54,0,0,0,955.42,694.31Z"/><polygon class="cls-10" points="895.91 726.68 890.39 726.68 885.02 726.68 885.02 734.67 895.91 726.68"/><path class="cls-11" d="M891,708.54l-1.89-.58a2.07,2.07,0,0,1,1.31-3.92l1.89.58a1.34,1.34,0,0,1,.87.58l1.16-2.47-2.18-1.16-2.17-.43a4.48,4.48,0,0,0-5.38,3.19l-.14.58a4.48,4.48,0,0,0,3.19,5.37l2.76.73,1.31-2.76C891.41,708.68,891.26,708.68,891,708.54Z"/><path class="cls-11" d="M888.07,710.57l1.89.73a2.25,2.25,0,0,1,1.3,2.61,2.34,2.34,0,0,1-2.61,1.31l-1.89-.73a5.41,5.41,0,0,1-1.45-1l-1.89,2.62,1.45,1,1.31.87,1.31.44,1,.14c2.33.73,5.52-1.45,6.1-3.77l.15-.58a4.51,4.51,0,0,0-3-5.52l-2.76-.72-1.31,2.61Z"/><rect class="cls-11" x="897.65" y="701.57" width="3.77" height="16.55"/><rect class="cls-11" x="910.13" y="701.57" width="3.77" height="16.55"/><rect class="cls-11" x="933.79" y="701.57" width="3.77" height="16.55"/><polygon class="cls-11" points="924.79 703.02 923.78 705.78 919.28 718.12 915.65 718.12 921.75 701.86 923.63 702.59 924.79 703.02"/><polygon class="cls-12" points="931.91 718.12 928.42 718.12 923.78 705.78 922.76 702.88 923.63 702.59 925.81 701.72 931.91 718.12"/><rect class="cls-11" x="921.75" y="701.57" width="4.21" height="1.89"/><rect class="cls-11" x="920.29" y="712.02" width="7.98" height="3.05"/><polygon class="cls-11" points="913.18 715.65 910.28 718.26 900.84 706.22 898.66 703.46 899.54 702.88 901.42 701.57 913.18 715.65"/><polygon class="cls-11" points="948.16 718.12 939.31 707.38 936.7 709.55 943.81 718.12 948.16 718.12"/><polygon class="cls-11" points="943.37 701.57 936.7 709.7 939.16 711.73 947.44 701.72 947.15 701.57 943.37 701.57"/><path class="cls-13" d="M955.42,662.09H860.34a2.45,2.45,0,0,0-2.47,2.46V692a2.45,2.45,0,0,0,2.47,2.47h95.08a2.45,2.45,0,0,0,2.47-2.47V664.55A2.44,2.44,0,0,0,955.42,662.09Z"/><polygon class="cls-13" points="876.89 694.46 871.52 694.31 866 694.31 866 702.3 876.89 694.46"/><path class="cls-14" d="M871.52,670.51c0,5.37.14,10.74.14,16.11v.14"/><polyline class="cls-14" points="878.05 670.22 871.23 670.22 871.23 686.76 875.29 686.76 875.29 681.1 879.65 681.1"/><polyline class="cls-14" points="877.47 677.91 875.15 677.91 875.15 673.26 877.62 673.26"/><rect class="cls-15" x="871.23" y="670.22" width="4.06" height="16.55"/><rect class="cls-15" x="900.7" y="670.22" width="4.06" height="16.55"/><rect class="cls-15" x="940.91" y="670.22" width="4.06" height="16.55"/><rect class="cls-15" x="937.16" y="670.2" width="11.47" height="3.34"/><polygon class="cls-15" points="907.08 670.22 907.08 670.94 913.18 684.59 916.96 682.85 911.29 670.22 907.08 670.22"/><polygon class="cls-15" points="924.36 670.22 924.36 670.51 918.41 684.01 914.78 682.12 919.71 670.22 924.36 670.22"/><polygon class="cls-15" points="912.31 682.7 918.7 682.85 917.1 686.76 914.05 686.76 912.31 682.7"/><polygon class="cls-15" points="930.89 671.81 930.02 674.43 925.37 686.76 921.89 686.76 927.84 670.65 929.73 671.23 930.89 671.81"/><polygon class="cls-15" points="938.15 686.76 934.52 686.76 930.02 674.43 928.86 671.52 929.73 671.23 932.05 670.51 938.15 686.76"/><rect class="cls-15" x="927.84" y="670.22" width="4.21" height="1.89"/><rect class="cls-15" x="926.39" y="680.67" width="7.98" height="3.05"/><path class="cls-15" d="M878.49,670.22h-2.33a4.58,4.58,0,0,0-4.64,4.64v1.45a4.58,4.58,0,0,0,4.64,4.65h2.33a4.58,4.58,0,0,0,4.64-4.65v-1.45A4.58,4.58,0,0,0,878.49,670.22Zm.58,5.37a2.23,2.23,0,0,1-2.18,2.17h-1.45v-4.5h1.45a2.27,2.27,0,0,1,2.18,2.33Z"/><rect class="cls-15" x="885.46" y="670.22" width="4.06" height="16.55"/><path class="cls-15" d="M892.42,670.22H890.1a4.58,4.58,0,0,0-4.64,4.64v.87a4.58,4.58,0,0,0,4.64,4.65h2.32a4.59,4.59,0,0,0,4.65-4.65v-.87A4.58,4.58,0,0,0,892.42,670.22Zm1.16,5.37a2.22,2.22,0,0,1-2.17,2.17H890v-4.5h1.45a2.26,2.26,0,0,1,2.17,2.33Z"/><path class="cls-15" d="M892.28,677.62a1.9,1.9,0,0,1-.87.14H890v-3.19l-3.2,2.32,7,10h4.64l.29-.15Z"/><path class="cls-16" d="M1020.62,418.52c3.23-5.38,6.7-11.24,8.61-18.53a48,48,0,0,0,1.31-16.37,73.93,73.93,0,0,0-4.78-20.2c-2.63-6.81-4.18-8.12-3.82-12.07.48-4.9,3.35-7.17,2.15-11.11-.84-2.87-2.63-2.51-4.3-5.62-2.63-4.9.83-7.77-.48-15.42-.36-2.62-1.2-7.76-5.14-11.11a38.26,38.26,0,0,0-8.13-4.78c-2.27-.48-5-1.55-6-3.82-1.55-3.71,3-6.94,1.67-11.6-1-3.46-4.66-5.61-6.93-6.93a57.51,57.51,0,0,0-7.77-3c-1.67-.59-6.93-2.27-5.14-1.67,1.92-5.5,1.08-11.47-2.63-15.42-5-5.61-13.86-5.85-14.58-4.3-.47,1,1.68,3.35,2.63,3,1.2-.36.72-5.5,0-8.61-.71-3.34-1.19-5.49-3-6.93-.6-.47-1.8-1.19-9.45-.83-3.34.12-6.45.47-9.44.83-7.29.84-7.29,1.2-8.12.84-5.5-2.39-2.63-15.06-7.77-16.73-2.15-.72-4.78.83-5.62,1.31-3.58,2.15-3.23,5.14-5.14,5.62-3.94.84-7.89-12.19-12.91-11.59-1.67.12-2.86,1.67-4.78,3.82-3,3.59-2.39,5.38-3.82,6-3.7,1.55-8-8.73-15.89-8.61a20.27,20.27,0,0,0-7.29,1.68c-3.59,1.43-3.83,2.62-5.62,2.62-3.35-.23-4.9-3.1-8.13-6.93-2-2.39-7.65-3.34-10.16-1.91-3.22,2-1.67,7.89-3.58,7.89-2.27,0-3.23-7.53-6.34-7.89-1.79-.24-6,1.55-7.29,2.87-2.39,2.27.84,5.62-1,7.17-1.44,1.2-4.54,5.74-7.29,1.67-4.66-6.93-3.11-4.54-4.07-5.85s-9.08-9.92-10.39,1.67c-.36,2.75,0,7.65,1,8.25,1.56,1.07,6.1-1.8,1.91,3.58-1.79,2.27-3.1,3.95-5.61,4.78,0,0-1.56.48-8.13,0-3.82-1-6.93-1.91-9-2.63-2.75-.95-3.83-1.43-5.62-1.31-2.87.12-4.9,1.55-6.93,3-2.39,1.67-4.9,3.46-5.62,6.45-.6,2.39.36,4.3-.48,4.78-1.07.6-2.86-2.51-5.13-2.15-1.8.36-2.87,2.75-3.83,4.78-1.43,3.11-1,4.54-2.15,5.14-1.67.83-3.23-1.79-6.93-2.63-4.18-.84-8.61,1.19-11.12,3.82a9.68,9.68,0,0,0-3,5.14c-.6,3,1,4.42,0,5.62-1.32,1.67-4.9-.84-10.28,0-1,.12-6.81,1.19-8.61,5.14-.24.48,0,.12-.47,6.93,0,0-.12,1.67-.72,6,0,.23,0,.35-.12.47-.72,2.15-4.42,2.75-6.45,3-4.55.6-5.14-.48-7.77.48a9.11,9.11,0,0,0-4.78,3.82c-1.8,3.23.47,5.14-.84,8.13-1.67,3.82-6.21,2.51-9,6.93a9.82,9.82,0,0,0-.84,8.61c1.91,4.42,6.93,5.37,7.77,5.61a11.94,11.94,0,0,0,9.92-2.63c2.51-2.15,1.91-3.82,4.3-5.13,2.63-1.56,3.94.11,8.13-.84,4.78-1.08,6.45-3.95,8.12-3,1.32.72,1.8,3.23.84,4.78-1.19,1.91-3.7.84-5.62,2.63-2.75,2.63.48,7.65-1.67,9.44-2.39,2-7.77-3.11-11.11-.83-2.51,1.67-1,5.13-3.47,6.93-3,2-6.69-2.27-10.76-.48-3.22,1.43-4.42,6-5.13,8.6-1.56,5.86.47,8.25-1.68,10.76s-4.78.84-6.93,3.47c-1.91,2.27-.36,4.3-1.67,8.12-1.44,4.18-4,3.83-7.29,8.61-1.32,1.91-5,7.17-3.83,12.43s6.1,5.85,6,9.91c-.12,3.59-4,4.07-6.46,10.28-1,2.39-2.39,5.74-.83,8.13,1.91,3.23,8.36,3.82,12.07,1.31,2.51-1.79,3.58-5,5.62-11.59,1.19-3.94.83-4.18,1.67-5.14,3-3.7,8.25-1.55,11.11-5.14,2.27-2.75,1.2-6.45,1.68-6.45.83,0,4.3,8.6.83,15.42-1.67,3.46-3.34,3-5.61,6.93-.6.95-4.19,7.29-2.16,13.26s7.89,6,8.61,11.12c.24,1.43-1,4.42-3.47,10.28-3.1,7.41-3.7,8-3.46,9.92.71,4.66,5.61,4.66,6.93,9.44,1.55,5.61-4.3,9.32-2.15,13.74,1.19,2.51,3.11,1.55,6.45,5.14a20.61,20.61,0,0,1,4.78,9.44c1.2,6.1-1.55,7.53.48,11.12,1.43,2.51,3.11,2.51,6,6.93a26.38,26.38,0,0,1,2.15,3.82c2.15,4.9.71,7,2.63,9s5.25,2.16,7.76,1.32c4.07-1.43,5.86-6.1,5.62-9.44-.36-5.5-6-7.77-5.14-9.44,1.08-2.15,12.91-1.68,17.57,5.14,4.18,6.09,0,13.38,4.3,16.37,3.59,2.51,8.73-1.2,11.12,1.67,1.31,1.56.12,2.75.83,7.29.48,2.63,1.08,6.34,3.83,9,2.15,2,6.45,4.19,10.28,2.63a9.15,9.15,0,0,0,5.13-6.93c.36-2.63-.83-3.58,0-5.61,1.2-2.63,4-2,5.14-4.31,1.92-3.34-2.39-7.76-.83-9.44s6.21,2.15,8.6.48c2.87-2,.6-10-1.67-18.05-2.15-7.64-.48-9-2.15-15.77-2-8.25-5.38-10.88-5.14-13,.6-5,2.75-6.45,3-10.75.24-5.14-4.55-6.7-3.83-11.12,0-.24.48-1.07,1-2.27.72-1.55,1.43-2.63,1.55-2.87,1.44-2.27,3-9.08,0-13.74-1.91-2.87,4-2.27,3.35-4.42-.72-3.11-2.39-4.42-.36-9.8,1.67-4.54-1.2-8.13.84-9.92,1.79-1.56,4.06.83,7.76-.48,3.95-1.43,5.5-5.74,6-6.93.36-1,2.27-5.86,0-9.44-1.67-2.63,3.82,3.7-1.31-1.2-.48-.36,1.43,2.39,5.61,1.44.72-.12,5.26-1.44,7.29-4.31s-1.55-3.46.24-6,6.1,3.58,9.2,3c1.32-.24,5.14-8.73,12.43-6.7s8.49.6,12.43,0c4.3-.71,7.29-4.3,9-6.45a14.87,14.87,0,0,0,3.47-6.93,25.68,25.68,0,0,0,0-4.3c0-1.56,4.54,1.79,6.81-1.56s3.59-8.36,7.29-9.56c7.41-2.39,6.81-3.94,11.24-6.09,4.9-2.39,8.48-7.77,9.44-12.91,1.19-6.57-.48-5,2.75-5.62,4.66-.83,6.45-1.07,12.66.48,2.51.6,4.31-1.19,15.42-1,12.91.24,12.67,5.86,15.42,5.62,6.45-.72,6.45,4.9,12.55,5.14,5.73.24,2.75.6,5.85,3.11,3.35,2.75,4.78-1.56,7.05,3.82,1.08,2.75,2.39,10.4,8.73,12.55s-.84,8.13,1.43,10.52,5.62-4.9,6.81,4.54c.12,1.43,1.8,5.38,3.35,8.72,1.79,3.83,1.2,3.83,2.15,6.58,1.91,5.37-1.79,9.8.6,14,1.31,2.39,4.3,1.31,4.54,3.23.24,2.51,1.32,1.31-.12,5.13-1.55,4.19,1.2,9.57,1.2,9.57a29.76,29.76,0,0,1,1.19,9.68c-.24,6-1.07,8.84.12,12.42.84,2.63-1.07,9,1.67,9,4,.12,11-9.2,11.24-9.92,3.34-7.41-1.79-12.31,1.31-20.68C1017.16,423.18,1017.28,424.13,1020.62,418.52Z"/><path class="cls-17" d="M990.51,320.28c-.6,1.08-3.35-.6-6.93-.24-5.74.6-9,6-10,5.14s3.1-6,.83-9.68c-.35-.48-.71-.84-1-1.19-1.79-1.68-4.07-2.16-7.41-2.28-6.46-.23-7.53,1.32-8.85.24-1.91-1.55.12-4.78-1.07-13.26-.36-2.63-.84-4.66-2.39-6.46a7.29,7.29,0,0,0-4.3-2.86c-3.47-.6-5.62,2.63-7.17,1.67-1.32-.84.23-3.71-1.44-5.5s-4.06.12-6-1.43c-2.39-1.91.24-5.74-2.63-10.28a12.45,12.45,0,0,0-2.75-3,13.4,13.4,0,0,0-5-2.39c-4.78-1.31-5.86.72-8.84-.83-.6-.36-1-.6-4.43-2.63-.24-.12-.59-.36-1.31-.72-3.23-1.91-3.59-2-4.9-2.87a21.91,21.91,0,0,1-2.63-1.67,23.76,23.76,0,0,0-3.94-2.15c-3.59-1.08-6.22,1.79-7.17.83s.59-4.9,3.1-5.73c1.56-.48,2.51.59,6,2,5.26,2.15,5.73.83,8.6,2.63,4.42,2.63,4.54,6.57,7.17,6.57s3.23-3.35,6.34-3.47c.48,0,1.79,0,4.54,2.28,6.09,4.9,6,9.2,9.68,10,2,.48,3-.71,5.5.24a6.44,6.44,0,0,1,3.46,2.87c1.08,2.15-.36,3.83.84,5.5.48.6,1.19.84,2.63,1.43,4.06,1.56,5.26.72,6.93,2a7.11,7.11,0,0,1,2.27,4.55,16.49,16.49,0,0,1,0,3.46c-.12,2.75-.24,6.93,1.43,7.77s3.83-2.15,5.5-1.2c.84.48,1,1.68,1.2,2.87.36,2.27-.6,3,0,4.31a4.54,4.54,0,0,0,2.87,2.27,5.47,5.47,0,0,0,3.46,0,6.73,6.73,0,0,0,3.71-3.11c1.55-2.75.47-5.62,0-7.17s-1.08-3.11-2.27-3.71c-2.16-1.19-4.07,1.08-6.34,0-1.79-.95-2.27-3.34-2.63-4.54-.71-3.34.84-4.66-.24-6.33-.71-1.08-2-1.44-4.9-2.27-3.1-1-4.18-.72-4.3-1.2-.12-.95,5.62-3.7,10.88-2,1.19.36,3.58,1.2,4.3,3.11s-.84,3.46,0,4.9c.72,1.19,2.75,1.31,6.93,1.67,3.23.24,3.59,0,4.3.6,2.51,1.79,2,7.17,2,7.77-.12,2-.71,3,0,4.06.6.84,1.56,1.08,3.11,1.43,2.51.6,3,0,4.54.6a6.89,6.89,0,0,1,4.07,3.47c.59,1.55.83,3.94-.24,4.9-1.32.95-3-.72-5.14.24a4.12,4.12,0,0,0-2,2.27C987.76,316.46,991.34,319.09,990.51,320.28Z"/><path class="cls-17" d="M940.67,330.08c1.56-3.7-5-9.8-12.43-16.73a21.28,21.28,0,0,0-9-5.62c-1.91-.48-5.38-1.55-9,0-4.66,1.91-6.58,6.58-6.93,7.29-1.44,3.59-.48,5.62-2.63,7.77-1,1-1.32.6-4.31,2.15-3.34,1.79-5.73,3-6.45,5.14a5.33,5.33,0,0,0,.84,5.14c2.75,3.11,9.8-.24,17.56-2.15C927.53,328.29,938.76,334.5,940.67,330.08Z"/><path class="cls-17" d="M844,247.74h0c.48-.6,1-1.32,1.43-1.91a23.42,23.42,0,0,1,6.46-3.47c2.86-.84,5.37-.12,7.76.48a21.25,21.25,0,0,1,7.29,3.46c4.19-1.43,5.14-1.31,5.14-1.31,1.08.12,2.63.72,4.31,3h-2.27a7.65,7.65,0,0,0-3.35-.72,9.79,9.79,0,0,0-3.35.6h-4.18a4.8,4.8,0,0,0-1.79-.36,10,10,0,0,0-1.8-.48c-.12,0-.35-.12-.47-.12a8.37,8.37,0,0,0-4.43-1.19,7.12,7.12,0,0,0-2.74.47,7.73,7.73,0,0,0-5,1.8Z"/><path class="cls-17" d="M820,245.47h-.12a7.23,7.23,0,0,0-3.23.71,6.25,6.25,0,0,0-2.27,1.32h-3.23a48.87,48.87,0,0,1,4.78-5.14,15.25,15.25,0,0,1,8.61-2.15,16.15,16.15,0,0,1,10.28,3.46,14.79,14.79,0,0,1,3.22,4.07h-2.39a6.28,6.28,0,0,0-1.91-1.2,8.26,8.26,0,0,0-4.78-1.79,7.82,7.82,0,0,0-3.82-.84A8.2,8.2,0,0,0,820,245.47Z"/><path class="cls-17" d="M820.45,287.42c-1.32,0-1.56-1.68-3.71-2.87-.36-.24-2.75-1.56-4.9-.84-2.39.84-1.91,3.59-4.3,4.9-1.79,1-2.87-.12-8-.6-4.06-.36-6.81-.59-8.6,1.2-1.2,1.07-1.44,2.51-1.68,4.54a19.22,19.22,0,0,0,.6,8.25c.72,3.1,1.43,4.06.84,4.9-.84,1.07-2.63,0-6,.83a9,9,0,0,0-4.3,2.27c-.48.48-1,1.2-1.67,7.17-.6,4.19-.48,4.9,0,5.74.83,1.31,1.91,1,3.1,2.63a6.35,6.35,0,0,1,1.44,4.06c0,1.68-.72,2.27-1.2,3.71-1.07,4.18,2.75,8.36,2.27,8.6s-1.79-2.27-2.27-2-.24,4.42,2.27,6.33c2.27,1.68,4.9.84,5.14,1.68s-1.79,2.39-4.06,2.87c-3.47.71-5.38-1.8-7.41-.6-1.32.72-1.67,2.27-2,3.46-.12.24-1,4.07,1.19,6.58,1.68,2,4,1.91,4.07,2.87s-2.75,1.07-4.55,3.46a8.19,8.19,0,0,0-1.19,6c.48,2.15,1.79,2.75,1.43,3.46-.47,1-3.58-.24-8-.83-3-.48-4.78-.84-7.05-.48-1.92.24-3.35.36-3.83,1.43-1,1.91,3.23,4.54,2.27,7.17-.72,2.15-3.7,1.91-4.06,3.71-.36,2,2.63,5,5.73,5.73.12,0,1.56.12,4.31.24,3.22.24,3.94.24,4.54.84,1.07,1.19,0,2.51.84,3.7,1.07,1.32,3.34.48,8,.24,6.34-.24,7.29,1.08,9.68-.24s2.75-3.1,5.14-3.7c1.08-.24,1.08.24,4.9.84,2.39.35,2.15.12,4.9.59,1.08.12,2.27.84,3.47.36a.37.37,0,0,0,.24-.12c1.31-.71,1.43-2.63,1.67-4.54.48-3.82-.48-5.26.6-6.33a4.12,4.12,0,0,1,3.7-.6c1.32.36,1.67,1.31,2.27,1.19s.6-1.55,1.44-4.3a7.33,7.33,0,0,1,1.19-2.87c.48-.47,1.32-1.19,6-1.67,3.7-.36,4.42-.12,5.14-.84s.47-1.19.83-5.13c.36-3.71.6-4.19.84-4.55,1.19-1.55,3.46-1.67,5.5-1.67s3,.24,5.49.6c1,.12,1.2.12,8,0a37.31,37.31,0,0,0,8.25-.6c3-.6,3.58-1.19,4.06-1.67.72-1.08.36-2,.24-5.74-.12-5.26.48-6.09.84-6.57a5.28,5.28,0,0,1,3.7-1.2c2,.12,2.39,1.08,4.9,2a17.39,17.39,0,0,0,6.93.6,28.13,28.13,0,0,0,4.9-.83c4-1.2,5.5-3.23,6.34-2.63s0,3-.24,3.7a8.28,8.28,0,0,1-3.47,4.54c-2.15,1.32-4.3,1.2-6.57,1.2-3.83-.12-4.9-1.32-6.57-.6s-1.2,2.15-3.11,5.14a11.33,11.33,0,0,1-2.87,3.46c-2.63,1.68-4.78.12-6.33,1.68-1.32,1.43-.12,3.22-1.44,4.3-.72.6-1.43.36-5.5,0-4.3-.48-4.78-.36-5.13,0-1.08,1.2.59,3.35.23,6.93-.12,1.32-.35,3.95-2.27,5.5-1.31,1.08-2.75,1.08-4.54,1.19-4.18.12-5.61-1.31-8.84-1.43-2.51-.12-4.3.6-7.17,1.67-4.78,1.92-6.93,3.83-13.75,8.61-10.15,7.05-11.47,7.05-14,10.63-2.75,3.71-2,4.79-4.9,7.41-4.54,4.31-8.6,3.59-10,7.17s1.68,6.82.24,8-4.66-.71-6.33-2.27a7.8,7.8,0,0,1-2-2.87,4.89,4.89,0,0,1-.48-2c-.24-3.23,2.39-4.3,2-6.57-.36-2-3-3.23-3.47-3.47-1.91-.83-2.51-.12-3.7-.83-2.15-1.44-.6-4.55-2.63-6.58-1.31-1.43-2.51-.48-7.77-2-2.87-.84-4.18-1.19-5.5-2.27-2.15-1.91-2.62-4.54-3.1-7.17-.36-2.15-.72-3.7,0-5.5.83-2,2.51-2.51,4.06-3.7,5.62-4.66,1.91-14.22,6.33-16.38,2.16-.95,3.83.72,5.14-.59s.24-3.23,0-8.85c-.12-4.9.6-4.9,0-7.76-.71-3.47-2.27-5-1.43-6.34s2.87-.24,4.54-1.67a5.85,5.85,0,0,0,1.2-5.74c-.84-2.27-2.51-2-4.31-4.9a7.36,7.36,0,0,1-1.43-5.73,5.86,5.86,0,0,1,2.63-3.71c1.67-1.08,2.51-.24,3.7-1.19,2.27-1.68,1.8-5.86,1.68-6.94-.24-2.63-1.08-2.86-1.2-5.14,0-.83,0-4.18,2-5.73s4.19.36,6.34-1.2c1.31-.95,1.67-2.75,2.27-6.33s.12-4.54,1.19-6,2.63-2.15,4.9-2.86a15.22,15.22,0,0,1,8.61-.84c3.34.72,4.18,2.39,6.33,1.67,1.2-.36,1.2-.95,3.11-2.63s3.94-3.22,6.33-3.1c2,0,2,1.31,5.74,2.62,2.51.84,3.7.6,4.06,1.44C823.79,285.14,822,287.42,820.45,287.42Z"/><path class="cls-17" d="M780.29,347.41c0,.48-5-.12-6.69,2.63s2,6.69.48,9-5.62-.36-11,1.91c-.84.36-5.74,2.51-6.69,6.46-1.2,5,4.66,8.72,3,13.14-.84,2-2.51,3.47-3.23,3.23-1.32-.6,1.79-7.53-.48-9.2-1.55-1.2-3.7,1.43-7.89,1.07-3.34-.24-7.17-2.39-7.29-4.78-.12-1.67,1.68-3.1,3.83-4.78,5.14-3.82,7.53-2.75,9.68-5.61,2.51-3.35.71-7.17,2.75-8.13s4.18,2.75,7.53,2.15,3.1-4.42,7.29-6.69C775.75,345.74,780.29,347.05,780.29,347.41Z"/><path class="cls-17" d="M773.72,439.31c.71-.95-1.08-4.42-4.19-5.73a7.55,7.55,0,0,0-6.33.47,8.73,8.73,0,0,0-4.18,4.78c-.84,2.39.12,3.59-1,5a5.16,5.16,0,0,1-3.7,1.68c-.84.12-2.63.24-3.59-.72-1.31-1.31,0-3.11-1.19-4.54s-4.19-1.2-5.86-1-4.3.6-5.86,2.63c-1.19,1.56-.47,2.39-1.55,6-1,3-1.43,4.9-3,5.85-2.27,1.44-4.06-.71-8.48.12a14.15,14.15,0,0,0-6.58,3.35c-2.27,2.15-1.79,3.23-4.3,5.5s-4.3,2.39-4.42,3.7c-.12,1.79,2.87,2.51,2.75,4.06-.24,2-6.34,1.68-7,4.19-.48,1.91,2.51,5.26,4.54,4.9,2.27-.48,1.43-5.38,5.62-12.31a31.11,31.11,0,0,1,5.49-6.46,15.68,15.68,0,0,1,7.17-3.7,3.83,3.83,0,0,1,2.63.12c1.2.84.72,3,.12,7.29-.95,7.41-.6,8-.24,8.13,1.56.95,6.34-4,6.94-4.43,3.7-3.7,3.58-5.73,6-6.45,2.87-.84,4.42,1.55,6.57.24,1.68-1,2.27-3.23,2.75-4.78.48-1.91.12-2.15.72-3.83a6.79,6.79,0,0,1,2.75-4.06c1.55-.84,2.27.12,5-.48,1.31-.24,3.58-.71,4.42-2.27.6-1.19-.24-1.79.12-4.06.12-.48.6-3.59,2.15-4.06,1-.24,1.43.71,3.59.95C772.52,439.67,773.36,439.79,773.72,439.31Z"/><path class="cls-17" d="M778.5,427.12c-2.27-2.51-1.08-1.31-1-2s-6.69-3.35-9-1c-.6.6-.84,2-1.2,5-.48,3.59-.12,4.19-.83,5.5a7.07,7.07,0,0,1-3.83,2.87c-2.39.72-3.34-.36-4.78.6s-2.15,3.46-1.31,4.54c1.43,1.79,6.69-1.2,8,.6.6.83-.47,1.79-.12,4.18.12.6.48,3.35,2.39,4.18,1.56.72,3.47-.12,4.55-.95,1.79-1.44,1.67-3.35,3-3.59,1.08-.12,2,1.08,2.16,1.2,1.19,1.43.71,3.7,0,5-1.08,2-2.4,1.79-3.35,3.58a6.16,6.16,0,0,0,.72,6.22c1.55,1.67,3.34.71,6.33,2.86,1.55,1.2,1.79,2,2.39,1.92,1.08-.24,1-3.47,1.43-8.13.36-3.47.6-3.35,1.2-8.13.72-5.5.6-6.57.12-7.77-.72-1.91-1.55-2.27-3.11-4.78-2.87-4.54-3.23-5.49-3-6.45.36-2,2.16-2.39,2-3.47C781.13,426.29,783.76,433,778.5,427.12Z"/><circle class="cls-17" cx="778.98" cy="425.33" r="3.82"/><path class="cls-17" d="M741,327.63c.45,1.21-1.62,2-1.72,4.15-.11,2.37,1.88,3.14,1.46,4.81-.41,1.5-2.31,2.43-3.92,2.44s-1.88-1.36-3.64-1.7c-2.18-.44-4.88,1.21-6,3.35-.65,1.24-.62,2.51-.57,4.88.1,3.31.9,4.19.19,5-1.07,1.14-4.08.49-5.9-.44-2.24-1-2.44-2.15-3.71-2.13-2,.08-3.59,2.63-4.33,3.95s-2.49,4.36-1.53,7.2c1,3.26,4.32,3.5,4.29,5.95a3.9,3.9,0,0,1-2.44,3.36c-2.16.83-3.74-1.45-5.64-.69s-2.88,3.75-2.32,6.15c.93,3.68,5.87,4.68,5.47,6-.2.67-1.46.52-5,1.29s-5.13,1.11-6,2.25c-1.61,2-.38,4.55-1.33,4.93s-2.22-3.15-6.1-5.11c-2.9-1.41-4.13-.45-5.83-2a7.16,7.16,0,0,1-1.55-8.45,7.44,7.44,0,0,1,8.22-3.76c1.92.52,2.6,2.16,4,1.88a3.76,3.76,0,0,0,2.42-3c.49-3-3.26-4.3-3.19-7.6a4.67,4.67,0,0,1,2.65-4.19c2.23-.57,4.54,2.5,5.25,1.86.35-.32-.27-1.54-1.16-4.12-1.13-3-1.56-4.55-1.43-5.65.37-2.43,2.83-4.35,4.9-5.1,2.67-1,3.61.43,5.53-.66,2.34-1.33,1.37-4,3.82-5.75s4.41-.13,5.93-1.83-.3-4.41,1.2-5.78,3.35.67,6.7-.28c2.31-.65,2.29-1.92,4.68-2.48C737.28,325.68,740.56,326.26,741,327.63Z"/><path class="cls-17" d="M742.29,508.51c3.22-3.23,9.32-3.35,12.9-.48a10,10,0,0,1,2.39,3.23c3,6.09-.83,11.11,1.56,13.5s6.69-1.31,9.2,1.08c1.79,1.67.24,4.3.6,11.83.24,5.5,1.31,9.08.83,9.2-.71.24-1.43-8.36-7.88-13.26-2.87-2.16-4.55-1.92-7.06-4.78-2.74-3-1.79-4.19-4.3-7.89-4.18-6.1-9.92-7.41-9.44-10.52C741.09,509.7,741.57,509.23,742.29,508.51Z"/><path class="cls-18" d="M986.68,341.67c0,.24.72,0,2.75.36a33.63,33.63,0,0,1,5,1.32c5,1.79,6.1,3.1,6.93,2.63,1.08-.84.6-4.67-1.67-6.46C995.41,336.18,986.56,340.84,986.68,341.67Z"/><path class="cls-18" d="M1015,342.87c-1,1.31-5,.24-7.77-1.68-.72-.59-3.47-2.5-3.82-5.61a14,14,0,0,1,.83-5.62h0s2.63-5,4.3-4.78.84,4.54,3.47,10.76C1013.81,340.36,1015.72,341.91,1015,342.87Z"/><path class="cls-18" d="M996.13,333.07c.71-.72-1-3,0-3.83s3.22,1,4.78,0c1.31-.83,1.55-3.58.47-5.14-1.67-2.39-6.57-2-9.68-.71a3.92,3.92,0,0,1-.71.36c-4.78,1.91-8.61-3.59-12.07-2.15-1.8.71-2.51,3-2.63,4.3a5.85,5.85,0,0,0,3.82,6c2.51.72,3.47-2,6.93-2.15C991.7,329.36,995.05,334,996.13,333.07Z"/><path class="cls-18" d="M949.28,307.73c-1-.24.48-7.77-1.68-8.6-1.91-.72-3.7,4.42-8.6,5.14-2.63.35-6-.6-6.93-2.63s1.43-3.95.48-5.62c-1.2-1.91-4.9-.12-6.46-2.15-1.43-1.79,1-4.3-.48-6-1.55-1.91-5.37.36-7.29-1.67-1.55-1.67.12-3.82-1.31-5.62-1.79-2.15-5.26.24-10.28-.83-4.18-.84-4.3-3-13.26-8.13-5.38-3.11-6.46-3-6.94-2.63-1.19,1.32,4.31,6.81,2.63,9.44-1.19,1.79-4.18,0-7.29,2.15s-1.79,5.62-5.14,7.77a8.17,8.17,0,0,1-6.45.84c-2.87-.72-3.35-2.75-5.14-2.63-2.15.12-4.06,2.75-4.78,5.14-1.55,5.14,2.75,8.84.84,11.11-1.32,1.68-4.78,1.79-6.93.48-2.75-1.91-1.8-5.86-3.83-6.45s-5,2.75-5.61,3.46c-2.4,2.87-2.16,4.9-3.47,5.14-2,.48-6-3.82-5.62-8.13a8.31,8.31,0,0,1,5.62-6.93c3.7-1.07,6,2,9.92.48a6.18,6.18,0,0,0,3.46-3c1-2-.47-3.34.48-5.14,1.08-2.27,4.54-2.86,5.62-3,0,0,1.19-.24,6.45.47,0,0,.24-7.05,3.83-9.44,2.39-1.55,4.18.12,6.93-1.67.6-.36.84-.72,3.46-4.78,3.23-4.9,3.23-5.14,3.83-5.62,3.35-2.39,8.36-.59,9-.48,3.71,1.32,3.47,3.35,6.93,4.31,3.95,1.07,6-1.2,8.13.48s.84,4.54,3,6c2.51,1.79,5.5-1.79,10.75-.48a10.72,10.72,0,0,1,5.14,3c2.87,3.11,3,7.53,3,9,.12,3.59-1,5,0,6,1.67,1.67,5.86-1.32,7.77.48,1.67,1.55-.36,4.66,1.31,6,0,0,.72.6,6.46-.48,0,0,4.42-1.91,6-.83C955.85,293.75,950.71,308,949.28,307.73Z"/><path class="cls-18" d="M820.45,236.38c-2.87-.23-5-.12-6.46-1.67-1.79-1.91-1.79-5.62-.48-6.45s3,1.67,7.29,3a17.27,17.27,0,0,0,8.61.47c5.85-1.43,7.29-6.33,10.28-5.61,2.74.71,2.86,5,5.14,5.14s2.62-3.95,6.45-5.14c3.23-1.08,6.45.59,6.93.83,3.59,1.92,3.11,4.9,5.62,5.62,3.22.84,5-3.82,10.28-3.82a11.9,11.9,0,0,1,5.61,1.67c3.23,2,3.11,4.18,6.46,6,1.43.84,3.7,2,5.61,1.32,3-1.2,1.68-6.22,5.62-9,.36-.24,2.75-1.92,5.14-1.32,2,.6,2.27,2.39,5.14,6,2.39,3.1,4.66,5.85,6.93,5.61,2.51-.35,2.75-4.3,5.62-4.78,1-.12,1.91.24,5.61,3,4.54,3.47,5.26,4.66,7.29,6,3.71,2.51,7.53,2.75,9.92,3,8.49.72,12.07-3.46,15.9-.83,2.27,1.55,3,4.42,3.46,6,1.32,5.38-1.55,8,.48,11.12,1.2,1.91,2.27.95,5.62,3.82,1.79,1.56,4.42,3.83,5.14,7.29.59,3.11-1,4.18,0,5.62,1.55,2.39,6.09-.24,11.11,2.15s6.69,8.13,6.93,8.6c1.2,4.67-.12,10.4-2.15,10.76-3.22.48-8.24-13-8.6-12.91s1.55,3.35.83,3.83c-.95.72-5.85-4.42-6.93-5.62-4.42-4.66-5.5-7.17-6.93-6.93-.36.12-.84.48-2.15,6.93-1.08,5.26-1.08,6.22-.48,6.93,1,1.08,2.51.12,5.14.48a13.3,13.3,0,0,1,7.77,3.83c4.42,5,1.91,15-.48,15.41-1,.12-1.43-1.19-5.62-6-3.34-3.83-3.22-3.23-5.14-5.62A46.18,46.18,0,0,1,960,289a24.27,24.27,0,0,1-1.67-7.29c-.24-4.78,1.31-8.49.84-8.61s-1.92,6.7-6,7.77c-2.39.6-5.62-.71-6.45-3a4.69,4.69,0,0,1,.71-4.18c.84-1.19,1.92-1.43,1.92-1.79-.24-1.08-9.45,1.79-11.6-1.32-1.79-2.51,3.11-6.93,1.32-9.92-1.56-2.5-6.69-2.27-10.76-2.15-5.26.24-6.45,1.44-9,.48-3.35-1.31-2.63-3.94-6-6-4.18-2.51-6.81.47-12.43-1.68-4.54-1.67-3.7-3.94-8.12-5.61-2.39-1-6-.72-12.91-.48-7.17.36-7.89.83-9.92,0-3.94-1.56-3.58-3.95-7.77-5.62-.59-.24-5.49-2.15-9.92,0-3.58,1.67-3.22,4.3-6,5.14-3.11,1-4.54-1.91-11.59-4.78C830.72,238.66,826.3,236.86,820.45,236.38Z"/><path class="cls-18" d="M873.75,251.8c0,2.27-5.86,4.9-7.77,3.47-1.67-1.2-.24-5.26-1.32-5.62-.71-.24-1.31,1.91-3.46,3-2.87,1.43-5.26-.84-6.93.48s.59,5-1.32,7.29c-1.67,2-6,2.15-7.77.47-1.55-1.55-.35-3.58-1.67-4.78-1.67-1.43-4.06,1.32-8.6,1.32-3.35,0-3.59-1.44-10.28-3-3.59-.84-5.38-1.19-6.93-.48-2.87,1.44-1.92,4.9-4.78,6.46s-5.14-1.32-8.61,0c-4.42,1.67-4.06,7.88-6.93,8.12-3.82.36-6.81-10.87-10.76-10.28-1.55.24-1.31,1.92-3.82,3.47-3.82,2.39-6.57-.12-9.44,1.67-4.07,2.63-1.44,9.68-5.14,11.6-2.75,1.43-4.78-2-9-.84-3.83,1.08-3.47,4.18-7.77,5.62-4.07,1.31-6.1-1-8.61.83-.83.6-1,1.2-3,6-1.8,4.3-2.75,6.33-3.47,6.93-3.35,2.27-7.29-2-10.76,0s-1.55,7.53-5.14,9.44c-2.51,1.32-4.18-.83-6.93.48-4.18,2-2.63,9-6,10.28-2.87,1.07-7.65-2.27-7.77-5.14-.12-3.47,6.45-7.29,6.45-7.29h0s6.34-.36,10.28-3.47a13.54,13.54,0,0,0,4.3-6.45c2.15-5.5.12-7.65,1.68-10.76,3.34-6.69,17.68-7.17,18-6,.12.6-2.63,2.39-3.46,1.67s.59-5.38,3.82-8.13a13.27,13.27,0,0,1,6-2.63c6.57-1.31,9.68,1.8,12.9-.47,1.56-1.08.72-1.8,3.47-4.78,1.43-1.56,3.46-3.71,6.45-4.31,2.51-.47,3,.6,4.78,0,3.35-1.31,2.27-6.09,5.62-8.6,2.27-1.79,5.26-1.32,10.76-.48,5,.84,6.09,2,11.59,2.63,2.63.24,4.3.48,6.45,0,3.71-.72,4.9-2.39,8.61-4.3,3.22-1.67,7.65-3.83,12.07-3,4.78,1,5,4.54,11.11,6a22.58,22.58,0,0,0,6.46.47c4.66-.35,6.45-1.79,9.44-2.63C864.54,244.39,873.75,248.93,873.75,251.8Z"/><path class="cls-18" d="M888.33,303.43c-3.23,2.15-6.34.24-7.77,2.15-1.55,2.15,1.67,6.1,0,7.77-1.2,1.19-3.11-.36-4.78.84-2,1.55-.36,5.13-2.15,6.45-1.56,1.07-4.66-.24-6.46-2.15-3-3.23-2.63-9.32,0-11.12,2.75-2,7.41,1.2,8.61-.47s-2.75-4.43-1.67-7.29c1.19-3.23,7.64-3.59,12.07-3.83,4.18-.24,4.9.48,5.13.84C892.39,298.05,890.84,301.64,888.33,303.43Z"/><path class="cls-18" d="M818.77,290.52c-1.67.6-4.06-3.46-6-2.63-.36.12-.6.48-1.08,1.2a14,14,0,0,0-1.91,3.94c-1.32,3-5.38,1.79-6.93,4.3-1.8,3,2.63,6.46.83,10.28-1.19,2.63-3.82,2-4.78,4.3-1.43,3.71,4.54,6.22,5.14,12.43s-5,8.49-3.46,14.23c.71,2.51,1.79,2.15,3.82,6.45,1.79,3.7,3.47,7.29,2.15,9.92-1.55,3.11-5.38,1.43-9,5.14-2.63,2.63-3.23,6.09-3.83,9-1.07,5.38.36,6.69-1.31,9.92s-5.38,5.5-6.93,4.78-.6-3.94-1.68-4.3c-1.31-.36-2.62,3.94-6.93,5.62-1.19.47-2.86,1.07-4.3.47-1-.47-1.55-1.31-4.06-3a2,2,0,0,0-1.08-.48c-.83.24-.83,1.79-1.79,3.94a11.38,11.38,0,0,1-1.67,3c-2,2.27-6.82,2.63-8.13.84-1.67-2.28,1.79-8.85,6.93-11.6,1.2-.59,4.18-2.27,7.29-1.31s3.35,3.46,5.62,3.46,5.14-2.86,5.14-5.61c0-3-3.23-4.54-2.63-6,.83-1.79,5.73.12,7.29-2.15,1.07-1.55.36-4.54-1.32-6s-3.22-.47-4.78-1.67c-2.15-1.91-2-7.41.48-9s6.34,1.43,8.13-.48c1.19-1.19,1.31-4.3,1.31-4.3h0l-3.46-6h0c3.22,6.1-5.14-8.12-5.14-8.12.24-3,3.58-4,3-6-.48-1.67-2.63-1.31-4.31-3.47a7.55,7.55,0,0,1-.83-7.29c1.79-4.54,7.65-5.13,8.12-5.13,4.19-.36,7.17,2,7.77,1.31.72-1-4.06-3.7-5.14-9-.12-.48-1.19-5.86,1.68-8.61,3.1-2.87,6.93.48,11.59-2.15,4.18-2.39,3.11-6.21,7.29-8.13,2.87-1.31,7.17-1.19,9,1.32C820.92,286,820.21,289.92,818.77,290.52Z"/><path class="cls-18" d="M789.73,347.77c.24.6-5.85,2-6.93,6.45-.72,3,.84,7.29.84,7.29h0c-6.82-.48-7.29.48-7.29.48-.36.72.23,1.31,1.31,4.3,1.2,3.47,1.91,5.14,1.32,6-1.32,1.91-6.22-1.44-9.45.83-2.75,1.92-3.34,7.41-1.67,11.12,1.79,4.06,5,3.94,6.45,8.13,1.08,3.22.36,6.93-.83,7.29-1.91.59-4.78-6.58-6.46-6-1.43.48.48,5.62-2.15,10.76-.36.59-2.39,4.66-6.45,6-6.1,2-10.16-4.3-15.9-2.15-3.58,1.31-3,4.06-7.29,6-4.66,2.15-11,1.55-12.07-.84s3.35-7.89,8.61-9.44c4.3-1.32,6.09.83,10.75-.84,3-1.07,4.9-3,7.29-5.62.84-1,2.75-2.86,6.94-9.92s6.45-10.87,6.45-14.22c0-4.42-2.15-4.78-1.67-8.12.71-6.1,8.36-9.92,15.05-13.27C783.64,348.48,789.49,347.29,789.73,347.77Z"/><path class="cls-17" d="M1006,343.59c1.2.47.36,2.5,1.92,4.06s3.58.72,4.54,2.15.24,3.35-.84,4.54-2.27.48-3.7,1.55c-1.8,1.32-2.39,4.43-1.56,6.7.48,1.31,1.44,2.15,3.23,3.7,2.51,2.15,3.7,2.15,3.82,3.23.12,1.55-2.39,3.34-4.3,4.06-2.27,1-3.23.36-4.06,1.32-1.32,1.55-.48,4.42,0,5.85s1.55,4.78,4.3,6c3.11,1.43,5.5-.84,7.29.83a3.9,3.9,0,0,1,.84,4.07c-.84,2.15-3.59,1.79-4.3,3.7s.83,4.66,3,5.86c3.35,1.79,7.41-1.2,8.13,0,.36.6-.6,1.43-2.39,4.54s-2.63,4.54-2.39,6c.36,2.51,3.11,3.34,2.75,4.3s-3.83-.48-7.89,1.07c-3,1.2-3.11,2.75-5.38,3a7.16,7.16,0,0,1-7.29-4.54,7.41,7.41,0,0,1,2.75-8.6c1.67-1.08,3.35-.48,4.06-1.68a3.78,3.78,0,0,0-.59-3.82c-1.92-2.39-5.38-.48-7.77-2.75a4.66,4.66,0,0,1-1.32-4.78c1.08-2,4.9-1.67,4.9-2.63,0-.48-1.31-.84-3.82-1.91-3-1.2-4.42-1.91-5.14-2.75-1.55-1.91-1.31-5-.48-7.05,1.08-2.63,2.75-2.39,3.23-4.54.6-2.63-2-3.71-1.67-6.7s2.86-3.34,2.63-5.61-3.47-2.75-3.47-4.78,2.75-2,4.3-5.14c1.08-2.15.12-3,1.32-5.14C1002.1,345,1004.73,343,1006,343.59Z"/><path class="cls-18" d="M1022.54,373c-1.2,3.71-4.9,4.07-4.9,6.34,0,2.75,5,3.82,4.66,6.21-.24,1.68-2.75,1.56-3.23,3.59-.72,2.51,2.87,4.3,2.15,6.45-.6,1.79-3.94,2.63-6.45,2.15-4.42-.83-7.65-5.85-6.69-9s6.57-3.47,6.57-5.5-4.9-1.91-5.74-4.78c-1.07-3.22,4-7.53,7.29-10.4s4.19-2.51,4.66-2.39C1022.54,366.29,1023.49,370,1022.54,373Z"/><ellipse class="cls-19" cx="895.18" cy="548.12" rx="40.66" ry="18.64"/><path class="cls-19" d="M884,524.71a2.51,2.51,0,0,1,1.82.68,15.63,15.63,0,0,0,9.33,3.12,17,17,0,0,0,9.66-2.75,2.41,2.41,0,0,1,1.64-.61c16.33,2,26.13,9.32,28.06,15.39,2.8,8.83-17.53,16.54-39.15,16.54s-41.45-7.61-39.14-16.54C858.16,533.08,867.92,526.77,884,524.71Z"/><path class="cls-20" d="M871,559l24.25,2.15L919.5,559c8.7,0,15.83-6,15.83-13.32h0c0-8-14.3-15.58-23.49-14.61l-16.6,2.58-15.06-2.58c-11.75-2.15-25,6.38-25,14.18v.43C855.16,553,862.28,559,871,559Z"/><path class="cls-21" d="M855.89,540c9.51,3.08,23.27,3.71,39.06,3.71s30.15-.61,39.65-3.66c-2.39-4.35-9.66-8.1-16.47-9.34h-8.91l-13.89,1.86-12.6-1.86H870.51C863.68,532.23,857.76,536,855.89,540Z"/><path class="cls-22" d="M857,538.84c9.51,2.87,22.21,2.91,38,2.91s28.5-.07,38-2.91c-2.39-4.06-9.19-7.05-16-8.21h-8l-14,2.24-13-2.24H870C863.12,532,858.82,535.09,857,538.84Z"/><path class="cls-23" d="M855.16,544.47v.43c0,7.33,7.12,13.32,15.83,13.32l24.25,2.14,24.26-2.14c8.7,0,15.83-6,15.83-13.32a7.75,7.75,0,0,0-.82-3.38c-2.39-5-9.66-9.37-16.47-10.81a22,22,0,0,0-4.53-.5,15.19,15.19,0,0,0-1.67.08l-2.71.42-13.89,2.16-12.6-2.16-2.46-.42a23.27,23.27,0,0,0-9.76.42c-6.83,1.72-12.75,6.1-14.62,10.75A7.76,7.76,0,0,0,855.16,544.47Z"/><g id="Layer_9" data-name="Layer 9"><path class="cls-24" d="M898,756.13c-14.82-1.67-29-1.55-32.51-.47l-.36-1c1.79-1.67,14.82-1.79,33,.36s32.14,6.45,31.91,8.84l-.36.84C925.61,762.35,912.83,757.81,898,756.13Z"/></g></g><path class="cls-25" d="M981.45,928.25a34.54,34.54,0,0,0-1.37-9c-1.32-3.83-3.48-7.19-4.1-7-.92.35,3.4,8.17,0,13.26-1.23,1.85-3.07,2.73-5,3.66-2.58,1.23-7.92,3-9.15,1.37-1.34-1.82,4.16-5.18,6-13.26.91-4.1.52-7.86,0-12.81-.7-6.75-1.72-6.55-1.37-9.61.46-4.11,2.9-7.37,7.77-13.72,4.09-5.33,4.81-5.16,6.41-8.24,1.34-2.57,1.93-4.79,3.2-11.89,1.33-7.4,2-11.1,2.29-14.18,1.11-11.43-1-18.93-1.83-26.08-1.11-9.83,1.68-6.17,5.49-35.22,2.09-16,2-21.63,5.49-26.53.6-.85.6-3,.45-6.18-.13-2.9,0-4.85-2.28-8s-5.89-8.27-6-11c-.08-3.88,8.44-9.19,37.51-16,.06,9.29.16,14.07,1.07,19,.43,2.3-1.07,7.16-.61,10.75a85,85,0,0,1,.46,15.55,209.42,209.42,0,0,1-2.29,21.05c-2.43,16.83-3.85,25.22-4.12,27.44-2.29,18.76-3.82,17.8-4.8,26.31-1.13,9.74-1.42,13-2.52,19.9-.48,3.07-3.18,7.22-4.72,9.38a3.15,3.15,0,0,0-.3,3.16,40.36,40.36,0,0,0,2.28,4.38c2.69,4.25,3.78,8.33,6,16.47a64.66,64.66,0,0,1,2.74,20.13c-.35,9.68-3.05,16.49-5,21.5-2.13,5.36,0,1.84-1.59,3.36"/><path class="cls-2" d="M995.44,748.11l29-5.57c3-1.43,5-3.43,5-6.43L1024.16,703a5.9,5.9,0,0,0-6.75-4.91l-27.71,4.35a5.9,5.9,0,0,0-4.92,6.74l3.66,32.93C986.62,750.38,985.88,751.2,995.44,748.11Z"/><path class="cls-26" d="M700.63,181.49c1.29,66-54.45,132.9-113,147.44-37.16,9.23-79.92,13.78-79.92,13.78a82.11,82.11,0,0,0,16.53,78.54,303.58,303.58,0,0,1-103.34-67.52,947.62,947.62,0,0,1-166.74,6.89c-66.24-3.09-99.81-5.67-137.8-23.42C71.37,316.17,1.63,262,2,189.75,2.33,125.28,58.28,80.72,80.55,63,152.27,5.85,233.24,3.75,352.7,2.35,470.06,1,546,1.16,616.58,53.33,639.74,70.47,699.33,114.55,700.63,181.49Z"/><path d="M130.92,133a2.16,2.16,0,0,1-1.3,2.1.75.75,0,0,1-.52-.14,1,1,0,0,0-.48-.19,1,1,0,0,0-.48.13,75.06,75.06,0,0,1-2.27,8.26c-1,2.62-2.28,4.32-3.86,5.12a2.76,2.76,0,0,1-1.3.33,13.5,13.5,0,0,1-3.3-1.07,32.44,32.44,0,0,1-3.15-1.2q-2.16-1.16-3.34-5.33a33.35,33.35,0,0,1-1.08-9,39.68,39.68,0,0,1,1.71-12.14c1.23-3.89,2.87-6.06,4.9-6.53a3.49,3.49,0,0,1,.59,0,10.67,10.67,0,0,1,4.53,1.32,8.93,8.93,0,0,1,3.86,3.1,8.82,8.82,0,0,1,1.07,3.47c.23,1.6.36,2.46.41,2.6.07.47.17,1,.3,1.7a2.42,2.42,0,0,1-.37,1.26,2.1,2.1,0,0,1-.78.88c-.33.14-1.29-.06-2.9-.6a9.66,9.66,0,0,1-2.89-1.26c-.45-.33-.63-1-.56-1.94a1,1,0,0,1,.19-.51,1.17,1.17,0,0,0,.18-.56c0-2-.2-2.93-.59-2.93-.84,0-1.59,1.54-2.23,4.71a50.06,50.06,0,0,0-.89,9.74q0,7.86,2,9c.39.22.93-.54,1.61-2.27a17.57,17.57,0,0,0,1.21-4.88,12.1,12.1,0,0,0-2.27-1.28c-.89-.41-1.37-.77-1.44-1.07a2.9,2.9,0,0,1,.37-1.76,3.15,3.15,0,0,1,1.09-1.46,3.61,3.61,0,0,1,1.62-.38,9.07,9.07,0,0,0,1.7-.08,12,12,0,0,0,2-.7,4.9,4.9,0,0,1,1.74-.5,1.77,1.77,0,0,1,.41,0,7.28,7.28,0,0,1,2.73,1.85C130.36,131.87,130.94,132.61,130.92,133Z"/><path d="M150.59,145.18a10.1,10.1,0,0,1-.34,2.32,1.52,1.52,0,0,1-.55.08,7.82,7.82,0,0,1-2.42-.5,2.94,2.94,0,0,1-2.59-3.26,30.49,30.49,0,0,0-.75-3.68,21.28,21.28,0,0,0-3.28.91,12.41,12.41,0,0,0-2.84,1.24c-.3.94-.69,2.11-1.19,3.51-.07.31-.14.59-.2.87a1,1,0,0,1-.5.66.71.71,0,0,1-.26,0,6.61,6.61,0,0,1-2.4-.8c-1.1-.54-1.67-.89-1.72-1.06a5.6,5.6,0,0,1,.56-2.31c.61-1.76,1-2.84,1.07-3.22a2.25,2.25,0,0,1-.59-1.74c.07-.27.68-.76,1.82-1.44l3.82-14.59V120.4a.81.81,0,0,1,.93-.91,14.53,14.53,0,0,1,4,.8,7.7,7.7,0,0,1,3.11,1.43q.19,3.68,1.34,11Q149,141.76,150.59,145.18Zm-6.13-28.3a3.54,3.54,0,0,1-3.15,1.82,2.73,2.73,0,0,1-2-.82,3.64,3.64,0,0,1-1-2.69,4.66,4.66,0,0,1,.78-2.6,3.5,3.5,0,0,1,3.08-1.78,2.8,2.8,0,0,1,2,.83,3.57,3.57,0,0,1,1.11,2.68A4.58,4.58,0,0,1,144.46,116.88Zm-1.63,18.26c-.3-1.73-.46-2.64-.48-2.72-.2-1.49-.34-3-.41-4.59-.37,1-.84,2.56-1.41,4.52a29.19,29.19,0,0,0-.93,3.74C139.9,136,141,135.64,142.83,135.14Zm-.67-21.77A1.59,1.59,0,0,0,141,114a1.87,1.87,0,0,0-.53,1.29c0,.7.33,1.06,1,1.06a1.59,1.59,0,0,0,1.15-.62,1.89,1.89,0,0,0,.55-1.3A.89.89,0,0,0,142.16,113.37Z"/><path d="M176,115.81q3.56,2.1,3.56,7.23,0,3.72-2.64,9.42-2.93,6.36-6,6.36a2.07,2.07,0,0,1-1.32-.64l-1.43-1.26v7a4.68,4.68,0,0,0,.19,1.24c.17.66.28,1.12.33,1.37a3,3,0,0,1-.28,1.34q-.34,1-1,1.05a7.13,7.13,0,0,1-2.89-1,7.36,7.36,0,0,1-2.9-2.07,2.29,2.29,0,0,1,0-1.73,4.83,4.83,0,0,0,.26-1.37V117.21a2.89,2.89,0,0,0-.26-.9,2.37,2.37,0,0,1-.22-1c.15-1.33.6-2,1.34-2a9.59,9.59,0,0,1,1.5.48,7.78,7.78,0,0,0,2.1.51,7.14,7.14,0,0,0,2.84-.66,7.65,7.65,0,0,1,2.5-.7,3.35,3.35,0,0,1,.89.12,4.22,4.22,0,0,1,1.78,1.24A8.55,8.55,0,0,0,176,115.81ZM172.93,119a4.93,4.93,0,0,0-2.38,1,8.5,8.5,0,0,0-2.34,2.28v10q2-.7,3.79-5.08a18.29,18.29,0,0,0,1.63-6.73C173.63,119.47,173.4,119,172.93,119Z"/><path d="M199.76,145.18a10.1,10.1,0,0,1-.34,2.32,1.52,1.52,0,0,1-.55.08,7.82,7.82,0,0,1-2.42-.5,2.94,2.94,0,0,1-2.59-3.26,30.49,30.49,0,0,0-.75-3.68,21.28,21.28,0,0,0-3.28.91,12.41,12.41,0,0,0-2.84,1.24c-.3.94-.69,2.11-1.19,3.51-.07.31-.14.59-.2.87a1,1,0,0,1-.5.66.71.71,0,0,1-.26,0,6.61,6.61,0,0,1-2.4-.8c-1.1-.54-1.67-.89-1.72-1.06a5.6,5.6,0,0,1,.56-2.31c.61-1.76,1-2.84,1.07-3.22a2.25,2.25,0,0,1-.59-1.74c.07-.27.68-.76,1.82-1.44l3.82-14.59V120.4a.81.81,0,0,1,.93-.91,14.53,14.53,0,0,1,4,.8,7.7,7.7,0,0,1,3.11,1.43q.19,3.68,1.34,11Q198.21,141.76,199.76,145.18Zm-6.13-28.3a3.54,3.54,0,0,1-3.15,1.82,2.73,2.73,0,0,1-2-.82,3.64,3.64,0,0,1-1-2.69,4.73,4.73,0,0,1,.77-2.6,3.52,3.52,0,0,1,3.09-1.78,2.8,2.8,0,0,1,2,.83,3.57,3.57,0,0,1,1.11,2.68A4.58,4.58,0,0,1,193.63,116.88ZM192,135.14c-.3-1.73-.46-2.64-.48-2.72-.2-1.49-.34-3-.41-4.59-.37,1-.84,2.56-1.41,4.52a29.19,29.19,0,0,0-.93,3.74C189.07,136,190.14,135.64,192,135.14Zm-.67-21.77a1.59,1.59,0,0,0-1.17.59,1.87,1.87,0,0,0-.53,1.29c0,.7.33,1.06,1,1.06a1.59,1.59,0,0,0,1.15-.62,1.89,1.89,0,0,0,.55-1.3A.89.89,0,0,0,191.33,113.37Z"/><path d="M223.73,148.32a4.31,4.31,0,0,1-1.75-.22c-.64-.21-1.27-.43-1.89-.65s-1.9-.62-3.49-1.19c-2-1-3.47-2.87-4.49-5.7a27.33,27.33,0,0,1-1.33-9.09,45.72,45.72,0,0,1,1.33-10.12q1.83-7.77,4.72-7.77a2.85,2.85,0,0,1,.72.14,5.65,5.65,0,0,0,.72.19,16.21,16.21,0,0,1,3.53-.87c.25,0,.49,0,.74,0q4.46.63,7,6.2a28.83,28.83,0,0,1,2.3,12,28.28,28.28,0,0,1-2.08,11.36C228.29,146.11,226.28,148,223.73,148.32ZM223.06,118c-.54-.16-1.08.65-1.61,2.44s-1.07,2.68-1.62,2.68a1.17,1.17,0,0,1-.54-.22,1.76,1.76,0,0,0-.57-.27,24.33,24.33,0,0,0-1.26,8.84,30.38,30.38,0,0,0,.85,7.72q1,3.6,2.67,4c1.34.27,2.41-1.25,3.23-4.59a43.93,43.93,0,0,0,1.08-10.41,35.53,35.53,0,0,0-.56-6.85C224.33,119.36,223.78,118.26,223.06,118Z"/><path d="M248.55,115.81q3.57,2.1,3.57,7.23,0,3.72-2.64,9.42-2.92,6.36-6,6.36a2.07,2.07,0,0,1-1.32-.64l-1.43-1.26v7a4.68,4.68,0,0,0,.19,1.24c.17.66.28,1.12.33,1.37a3,3,0,0,1-.28,1.34q-.34,1-1,1.05a7.13,7.13,0,0,1-2.89-1,7.28,7.28,0,0,1-2.9-2.07,2.29,2.29,0,0,1,0-1.73,4.83,4.83,0,0,0,.26-1.37V117.21a2.89,2.89,0,0,0-.26-.9,2.37,2.37,0,0,1-.22-1c.15-1.33.59-2,1.34-2a9.59,9.59,0,0,1,1.5.48,7.78,7.78,0,0,0,2.1.51,7.18,7.18,0,0,0,2.84-.66,7.65,7.65,0,0,1,2.5-.7,3.41,3.41,0,0,1,.89.12,4.22,4.22,0,0,1,1.78,1.24A8.59,8.59,0,0,0,248.55,115.81ZM245.47,119a4.9,4.9,0,0,0-2.37,1,8.5,8.5,0,0,0-2.34,2.28v10q2-.7,3.79-5.08a18.29,18.29,0,0,0,1.63-6.73C246.18,119.47,245.94,119,245.47,119Z"/><path d="M271.9,127a25.77,25.77,0,0,1-2.19,9.79,41.76,41.76,0,0,1-4.38,8q-2.34,3.23-3.45,3.76a3,3,0,0,1-1.26.25,7.88,7.88,0,0,1-3.72-1.16,8.85,8.85,0,0,1-2.78-2.06V115.85a1.33,1.33,0,0,1,1.11-1.28,11.83,11.83,0,0,1,1.86.29,7.45,7.45,0,0,0,2.21-.87,7.74,7.74,0,0,1,3.21-.91,5.73,5.73,0,0,1,3.12,1,23.92,23.92,0,0,1,2.56,2.23,11.37,11.37,0,0,1,3.22,5A23.55,23.55,0,0,1,271.9,127Zm-6.16-8a1.17,1.17,0,0,0-.6-.12,8.76,8.76,0,0,0-4.71,1.9V139.4q2.52-1.62,4.3-7.89a36.49,36.49,0,0,0,1.53-9.83C266.26,120.13,266.08,119.25,265.74,119Z"/><path d="M295.35,145.39c0,.25-.07.84-.15,1.78a2.14,2.14,0,0,1-.29,1.11,1.27,1.27,0,0,1-.64.12,8.75,8.75,0,0,1-3-.7,5.57,5.57,0,0,1-2.67-1.57,7,7,0,0,1-.59-2.48,39.19,39.19,0,0,0-.93-4.58,25.16,25.16,0,0,0-4.12,1.13,14.92,14.92,0,0,0-3.53,1.55c-.37,1.19-.86,2.65-1.48,4.38-.08.39-.16.75-.24,1.1a1.44,1.44,0,0,1-.65.84.55.55,0,0,1-.34.09,8.18,8.18,0,0,1-3-1c-1.4-.68-2.12-1.14-2.17-1.36a6.87,6.87,0,0,1,.7-2.85c.79-2.2,1.25-3.55,1.37-4a2.62,2.62,0,0,1-.78-1.73,4.09,4.09,0,0,1,0-.46c.05-.33.81-.92,2.27-1.77l4.78-18.22a7.41,7.41,0,0,0,0-1.82c-.05-.74,0-1.21.22-1.41a1.33,1.33,0,0,1,.89-.2,18.51,18.51,0,0,1,5,1c2.15.66,3.43,1.25,3.86,1.78a136.58,136.58,0,0,0,1.67,13.75Q293.42,141.09,295.35,145.39Zm-9.69-12.56c-.32-1.73-.51-2.88-.59-3.43-.27-1.84-.46-3.76-.56-5.74q-.74,2-1.74,5.62a34,34,0,0,0-1.15,4.71A32,32,0,0,1,285.66,132.83Z"/><path d="M317.47,133a2.16,2.16,0,0,1-1.3,2.1.75.75,0,0,1-.52-.14,1,1,0,0,0-.48-.19,1.09,1.09,0,0,0-.49.13,75.76,75.76,0,0,1-2.26,8.26c-1,2.62-2.28,4.32-3.86,5.12a2.76,2.76,0,0,1-1.3.33,13.5,13.5,0,0,1-3.3-1.07,32.44,32.44,0,0,1-3.15-1.2q-2.16-1.16-3.34-5.33a33.35,33.35,0,0,1-1.08-9,39.68,39.68,0,0,1,1.71-12.14c1.23-3.89,2.87-6.06,4.89-6.53a3.7,3.7,0,0,1,.6,0,10.71,10.71,0,0,1,4.53,1.32,8.93,8.93,0,0,1,3.86,3.1,8.82,8.82,0,0,1,1.07,3.47c.22,1.6.36,2.46.41,2.6.07.47.17,1,.3,1.7a2.42,2.42,0,0,1-.37,1.26,2.1,2.1,0,0,1-.78.88c-.33.14-1.29-.06-2.9-.6a9.66,9.66,0,0,1-2.89-1.26c-.45-.33-.63-1-.56-1.94a1,1,0,0,1,.19-.51,1.17,1.17,0,0,0,.18-.56c0-2-.2-2.93-.59-2.93-.84,0-1.59,1.54-2.23,4.71a50.06,50.06,0,0,0-.89,9.74q0,7.86,2,9c.39.22.93-.54,1.61-2.27a17.57,17.57,0,0,0,1.21-4.88,12.1,12.1,0,0,0-2.27-1.28c-.89-.41-1.37-.77-1.44-1.07a2.9,2.9,0,0,1,.37-1.76,3.15,3.15,0,0,1,1.09-1.46,3.61,3.61,0,0,1,1.62-.38,9.07,9.07,0,0,0,1.7-.08,12,12,0,0,0,2-.7,5,5,0,0,1,1.75-.5,1.77,1.77,0,0,1,.41,0,7.36,7.36,0,0,1,2.73,1.85C316.9,131.87,317.49,132.61,317.47,133Z"/><path d="M336.54,142.5a3.79,3.79,0,0,1-.65,1.51,2.54,2.54,0,0,1-.95,1,.59.59,0,0,1-.4-.15,1,1,0,0,0-.49-.18.25.25,0,0,0-.14,0,12.37,12.37,0,0,0-2.3,1,21.32,21.32,0,0,0-5.05,3.59l-4.05-1.86c-1.53-.74-2.3-1.29-2.3-1.65V114.69c0-.19.29-.46.87-.82a2.55,2.55,0,0,1,1.28-.5,7.5,7.5,0,0,1,1.79.64,5.66,5.66,0,0,0,2.19.6,6,6,0,0,0,2.89-1.11c1.09-.72,1.77-1,2-.91a9,9,0,0,1,2.65,2.17,7.2,7.2,0,0,1,1.92,2.62c0,.25-.18.67-.69,1.28s-.92.91-1.24.91a1.15,1.15,0,0,1-.6-.12c-.12-.09-.21-.11-.26-.09a18,18,0,0,0-2.48.79,10.79,10.79,0,0,0-4.05,2.39v6.74a23.2,23.2,0,0,1,3.38-1.53c.39-.06,1.23.56,2.5,1.84s1.91,2.17,1.91,2.66a1.8,1.8,0,0,1-.52,1.08,2.4,2.4,0,0,1-1,.78c-.24,0-.68,0-1.3.08a18.72,18.72,0,0,0-5,2.65v4.34a32.51,32.51,0,0,1,3-1.76,8.15,8.15,0,0,1,2.35-1c.35,0,1.22.6,2.62,1.79S336.59,142.17,336.54,142.5Z"/><path d="M355.62,142.25c-.3,1.29-.77,2.08-1.42,2.35a1.41,1.41,0,0,1-.79.05,1.11,1.11,0,0,0-.73,0l-5.49,2.56a1.47,1.47,0,0,0-.54.7q-.27.59-.54.66c-.54.22-1.69,0-3.45-.62s-2.82-1.22-3.19-1.77a3.37,3.37,0,0,1-.26-2.07,10.13,10.13,0,0,0,.08-1V115.36a1.63,1.63,0,0,0-.3-.71.83.83,0,0,1-.22-.49c.05-.53.48-.91,1.3-1.16a7.91,7.91,0,0,1,3.37.62c2,.63,2.95,1.38,3,2.23a2.13,2.13,0,0,1-.41,1,2.19,2.19,0,0,0-.4,1v22.85l3.85-1.86a4.57,4.57,0,0,1,1.27-.74c.34-.06,1.27.53,2.78,1.75S355.71,141.86,355.62,142.25Z"/><path d="M373.87,141.46a7,7,0,0,1-1.82,5,6.79,6.79,0,0,1-5,2.05,6,6,0,0,1-1.75-.29c-1.13-.36-1.73-.54-1.78-.54l-1.8-.43a3.18,3.18,0,0,1-1.57-.93,7.31,7.31,0,0,1-1.64-3.22,18,18,0,0,0-1.18-3.27,5.21,5.21,0,0,1-.71-1.15,1.87,1.87,0,0,1,.2-1.22,1.51,1.51,0,0,1,.77-.77,2.84,2.84,0,0,1,.81-.08,18,18,0,0,1,3.17.35,5.17,5.17,0,0,1,2.1.64,11.89,11.89,0,0,1,.59,3c.23,1.65.56,2.57,1,2.76a.63.63,0,0,0,.33.09c.47,0,.87-.44,1.21-1.3a8.31,8.31,0,0,0,.5-3q0-3.58-2-4.79a24.07,24.07,0,0,1-6.45-5.12,9.14,9.14,0,0,1-1.93-6.45,14,14,0,0,1,2-6.26c1.22-2.1,2.52-3.34,3.88-3.69.57-.14,2.3.47,5.19,1.81.72.31,1.44.62,2.17,1a4.34,4.34,0,0,1,1.77,1.45q1,1.44,1,5c0,.44,0,1.09,0,1.94s0,1.27,0,1.57a6.23,6.23,0,0,0,.26,1,2.08,2.08,0,0,1,.15.91c0,1.21-.51,1.89-1.37,2a6.43,6.43,0,0,1-2.75-.62,5.6,5.6,0,0,1-2.82-1.69,2.48,2.48,0,0,1-.07-.83c0-.41,0-1.35.13-2.8s.13-2.53.13-3.19c0-1.18-.13-1.76-.38-1.73-.76,0-1.4.67-1.91,1.84a10.05,10.05,0,0,0-.76,4c0,2.48.66,4.25,2,5.29l4.45,3.14a9.53,9.53,0,0,1,2.93,3.06A12,12,0,0,1,373.87,141.46Z"/><path d="M393.43,142.5a3.79,3.79,0,0,1-.65,1.51,2.54,2.54,0,0,1-.95,1,.59.59,0,0,1-.4-.15,1,1,0,0,0-.49-.18.28.28,0,0,0-.15,0,13,13,0,0,0-2.3,1,21.47,21.47,0,0,0-5,3.59l-4.05-1.86c-1.53-.74-2.3-1.29-2.3-1.65V114.69c0-.19.29-.46.87-.82a2.52,2.52,0,0,1,1.28-.5A7.48,7.48,0,0,1,381,114a5.7,5.7,0,0,0,2.19.6,6,6,0,0,0,2.9-1.11c1.09-.72,1.77-1,2-.91a9,9,0,0,1,2.65,2.17,7,7,0,0,1,1.91,2.62c0,.25-.18.67-.68,1.28s-.92.91-1.25.91a1.11,1.11,0,0,1-.59-.12c-.12-.09-.21-.11-.26-.09a18.65,18.65,0,0,0-2.49.79,10.82,10.82,0,0,0-4,2.39v6.74a23.2,23.2,0,0,1,3.38-1.53c.39-.06,1.23.56,2.5,1.84s1.91,2.17,1.91,2.66a1.8,1.8,0,0,1-.52,1.08,2.4,2.4,0,0,1-1,.78c-.25,0-.68,0-1.3.08a18.57,18.57,0,0,0-5,2.65v4.34a33.5,33.5,0,0,1,3-1.76,8.16,8.16,0,0,1,2.36-1c.35,0,1.22.6,2.62,1.79S393.48,142.17,393.43,142.5Z"/><path d="M422.49,120.19a2,2,0,0,1-.82-.27,1.3,1.3,0,0,0-.85-.19L417,120.89v21.73a7.65,7.65,0,0,0,.52,2.6,3.45,3.45,0,0,1-.07,1.57,2.41,2.41,0,0,1-.71,1.61.87.87,0,0,1-.37,0,15.34,15.34,0,0,1-3.41-.54,6.22,6.22,0,0,1-2.9-1.2,2,2,0,0,1,0-2,4.51,4.51,0,0,0,.48-1.57V122.71l-2.63.74a2.31,2.31,0,0,0-.61.35.87.87,0,0,1-.73.23c-.57-.16-1.34-1-2.33-2.46s-1.43-2.47-1.3-3a2.44,2.44,0,0,1,1.74-1.45,2.31,2.31,0,0,1,1,0,2.33,2.33,0,0,0,.92,0l12.92-3.68a6.91,6.91,0,0,0,1.07-.49,1.86,1.86,0,0,1,1.08-.21,1.76,1.76,0,0,1,1.41.91,8.68,8.68,0,0,1,.56,1.86,13.17,13.17,0,0,1,.37,2.81,3.53,3.53,0,0,1-.21,1.38C423.67,120,423.23,120.16,422.49,120.19Z"/><path d="M433.73,115.23a2.74,2.74,0,0,1-.17.79c-.11.33-.18.53-.2.62a20.7,20.7,0,0,0-.45,2.56v25.36a1.76,1.76,0,0,0,.23.89,1.51,1.51,0,0,1,.22.64c0,1.76-.3,2.71-.89,2.85a9.7,9.7,0,0,1-2.6-.54,8.91,8.91,0,0,1-2.75-1,2.14,2.14,0,0,1-.81-1.44.68.68,0,0,1,.15-.38,1.21,1.21,0,0,0,.15-.7V115.73a1.29,1.29,0,0,0-.13-.52,1.14,1.14,0,0,1-.13-.52c0-.66.5-1.1,1.37-1.32a9.09,9.09,0,0,1,1.71,0,12.45,12.45,0,0,1,2.67.46C433.19,114.16,433.73,114.63,433.73,115.23Z"/><path d="M454,142.25c-.29,1.29-.76,2.08-1.41,2.35a1.41,1.41,0,0,1-.79.05,1.11,1.11,0,0,0-.73,0l-5.49,2.56a1.47,1.47,0,0,0-.54.7q-.27.59-.54.66c-.54.22-1.69,0-3.45-.62s-2.82-1.22-3.19-1.77a3.37,3.37,0,0,1-.26-2.07,10.13,10.13,0,0,0,.08-1V115.36a1.63,1.63,0,0,0-.3-.71.83.83,0,0,1-.22-.49c.05-.53.48-.91,1.3-1.16a7.93,7.93,0,0,1,3.37.62c2,.63,3,1.38,3,2.23a2.24,2.24,0,0,1-.41,1,2.24,2.24,0,0,0-.41,1v22.85l3.86-1.86a4.57,4.57,0,0,1,1.27-.74c.34-.06,1.27.53,2.78,1.75S454.05,141.86,454,142.25Z"/><path d="M481.27,117.13a3.54,3.54,0,0,1-.52,1.41,1.84,1.84,0,0,1-1.26.95,1.24,1.24,0,0,1-.67-.15,1.7,1.7,0,0,0-.63-.18,11.29,11.29,0,0,0-3.19,1.19,17.17,17.17,0,0,0-4,2.36v7.56c.12-.06.7-.44,1.74-1.16a3.74,3.74,0,0,1,1.67-.74q.66,0,2.49,2.31c1.21,1.57,1.79,2.62,1.74,3.14a2.69,2.69,0,0,1-.74,1.49,2.55,2.55,0,0,1-1,.74.78.78,0,0,1-.6-.1,1.55,1.55,0,0,0-.51-.19.37.37,0,0,0-.23.09q-1.08.5-1.89.9a9.86,9.86,0,0,0-2.63,1.7v6a1.57,1.57,0,0,0,.38.89,1.78,1.78,0,0,1,.39,1.09c-.05,1.55-.7,2.47-2,2.77a17.6,17.6,0,0,1-3.53-2.35,3.91,3.91,0,0,1-1.59-2.52V117.05a2.55,2.55,0,0,0-.43-1.34,1.61,1.61,0,0,1-.35-1,2.36,2.36,0,0,1,.7-1.26,2.28,2.28,0,0,1,1.34-.68,6.18,6.18,0,0,1,2,1.18,9,9,0,0,0,2.26,1.34l4.08-1.86a8,8,0,0,1,1.67-1c.62-.08,1.66.53,3.12,1.84S481.32,116.55,481.27,117.13Z"/><path d="M499.9,142.5a3.94,3.94,0,0,1-.65,1.51,2.62,2.62,0,0,1-.95,1c-.07,0-.21,0-.41-.15a1,1,0,0,0-.48-.18.28.28,0,0,0-.15,0,12.67,12.67,0,0,0-2.3,1,21.73,21.73,0,0,0-5,3.59l-4-1.86c-1.54-.74-2.3-1.29-2.3-1.65V114.69c0-.19.29-.46.87-.82a2.52,2.52,0,0,1,1.28-.5,7.48,7.48,0,0,1,1.78.64,5.66,5.66,0,0,0,2.19.6,6,6,0,0,0,2.9-1.11c1.08-.72,1.76-1,2-.91a9.13,9.13,0,0,1,2.65,2.17,7.25,7.25,0,0,1,1.91,2.62c.05.25-.18.67-.69,1.28s-.92.91-1.24.91a1.11,1.11,0,0,1-.59-.12c-.13-.09-.21-.11-.26-.09a18.65,18.65,0,0,0-2.49.79,10.74,10.74,0,0,0-4,2.39v6.74a23,23,0,0,1,3.37-1.53c.4-.06,1.23.56,2.51,1.84s1.91,2.17,1.91,2.66a1.8,1.8,0,0,1-.52,1.08,2.46,2.46,0,0,1-1,.78c-.25,0-.68,0-1.3.08a18.57,18.57,0,0,0-5,2.65v4.34a33.5,33.5,0,0,1,3-1.76,8,8,0,0,1,2.36-1c.34,0,1.22.6,2.61,1.79S500,142.17,499.9,142.5Z"/><path d="M518.15,141.46a7.08,7.08,0,0,1-1.81,5,6.83,6.83,0,0,1-5.05,2.05,6,6,0,0,1-1.75-.29c-1.13-.36-1.73-.54-1.78-.54l-1.8-.43a3.18,3.18,0,0,1-1.57-.93,7.31,7.31,0,0,1-1.64-3.22,18,18,0,0,0-1.18-3.27,5.21,5.21,0,0,1-.71-1.15,1.82,1.82,0,0,1,.21-1.22,1.49,1.49,0,0,1,.76-.77,2.84,2.84,0,0,1,.81-.08,18.11,18.11,0,0,1,3.18.35,5.16,5.16,0,0,1,2.09.64,12.16,12.16,0,0,1,.6,3c.22,1.65.55,2.57,1,2.76a.63.63,0,0,0,.33.09c.47,0,.87-.44,1.21-1.3a8.31,8.31,0,0,0,.5-3q0-3.58-2-4.79a24.07,24.07,0,0,1-6.45-5.12,9.14,9.14,0,0,1-1.93-6.45,14.15,14.15,0,0,1,2-6.26c1.22-2.1,2.52-3.34,3.88-3.69.57-.14,2.3.47,5.19,1.81.72.31,1.44.62,2.17,1a4.34,4.34,0,0,1,1.77,1.45q1,1.44,1,5c0,.44,0,1.09,0,1.94s0,1.27,0,1.57a6.23,6.23,0,0,0,.26,1,1.94,1.94,0,0,1,.15.91c0,1.21-.51,1.89-1.37,2a6.43,6.43,0,0,1-2.75-.62,5.6,5.6,0,0,1-2.82-1.69,2.48,2.48,0,0,1-.07-.83c0-.41,0-1.35.13-2.8s.13-2.53.13-3.19c0-1.18-.13-1.76-.37-1.73-.77,0-1.41.67-1.92,1.84a10.05,10.05,0,0,0-.76,4c0,2.48.66,4.25,2,5.29l4.45,3.14a9.69,9.69,0,0,1,2.94,3.06A12.13,12.13,0,0,1,518.15,141.46Z"/><path d="M538.6,120.19a1.89,1.89,0,0,1-.81-.27,1.32,1.32,0,0,0-.86-.19l-3.82,1.16v21.73a7.41,7.41,0,0,0,.52,2.6,3.5,3.5,0,0,1-.08,1.57,2.41,2.41,0,0,1-.7,1.61.87.87,0,0,1-.37,0,15.33,15.33,0,0,1-3.42-.54,6.17,6.17,0,0,1-2.89-1.2,1.94,1.94,0,0,1,0-2,4.51,4.51,0,0,0,.48-1.57V122.71l-2.64.74a2.48,2.48,0,0,0-.61.35.84.84,0,0,1-.72.23q-.86-.24-2.34-2.46c-1-1.47-1.42-2.47-1.3-3a2.46,2.46,0,0,1,1.75-1.45,2.25,2.25,0,0,1,1,0,2.38,2.38,0,0,0,.93,0l12.91-3.68a6.41,6.41,0,0,0,1.08-.49,1.83,1.83,0,0,1,1.08-.21,1.76,1.76,0,0,1,1.41.91,8.83,8.83,0,0,1,.55,1.86,12.55,12.55,0,0,1,.37,2.81,3.76,3.76,0,0,1-.2,1.38C539.78,120,539.34,120.16,538.6,120.19Z"/><path d="M559,142.5a3.79,3.79,0,0,1-.65,1.51,2.61,2.61,0,0,1-.94,1c-.08,0-.21,0-.41-.15a1,1,0,0,0-.48-.18.28.28,0,0,0-.15,0,12.37,12.37,0,0,0-2.3,1,21.32,21.32,0,0,0-5.05,3.59l-4-1.86c-1.53-.74-2.3-1.29-2.3-1.65V114.69c0-.19.29-.46.88-.82a2.49,2.49,0,0,1,1.28-.5,7.63,7.63,0,0,1,1.78.64,5.66,5.66,0,0,0,2.19.6,6,6,0,0,0,2.89-1.11c1.09-.72,1.77-1,2-.91a9,9,0,0,1,2.66,2.17,7.25,7.25,0,0,1,1.91,2.62c.05.25-.18.67-.69,1.28s-.92.91-1.24.91a1.15,1.15,0,0,1-.6-.12c-.12-.09-.21-.11-.26-.09a18,18,0,0,0-2.48.79,10.87,10.87,0,0,0-4,2.39v6.74a23.2,23.2,0,0,1,3.38-1.53c.39-.06,1.23.56,2.5,1.84s1.91,2.17,1.91,2.66a1.83,1.83,0,0,1-.51,1.08,2.48,2.48,0,0,1-1,.78c-.24,0-.68,0-1.3.08a18.72,18.72,0,0,0-5,2.65v4.34a32.51,32.51,0,0,1,3-1.76,8.15,8.15,0,0,1,2.35-1c.35,0,1.22.6,2.62,1.79S559.06,142.17,559,142.5Z"/><path d="M582.35,115.23a2.57,2.57,0,0,1-.15.87,7.55,7.55,0,0,0-.33,1.11v27.27c0-.08.06.43.19,1.53.14,1.27,0,2.09-.45,2.48s-1.45.49-3,.33a12,12,0,0,1-3.09-.79c-1.5-.52-2.33-1.07-2.48-1.65a10.9,10.9,0,0,0-.11-1.78q-2.08-6.1-4.83-13.42v12.23a2.13,2.13,0,0,0,.26.86,6.48,6.48,0,0,1,.34.75,4.38,4.38,0,0,1,.18,1.24c0,1.1-.44,1.65-1.33,1.65a12.28,12.28,0,0,1-3.68-.83,6.57,6.57,0,0,1-2.52-1.28,1.68,1.68,0,0,1,0-1.69,4.9,4.9,0,0,0,.44-1.28v-25.9a3.34,3.34,0,0,0-.11-.75,1.76,1.76,0,0,1,0-.78,2.68,2.68,0,0,1,1.44-1.9,2.34,2.34,0,0,1,.82-.09,11.2,11.2,0,0,1,3,.42,5.27,5.27,0,0,1,2.74,1.4q1.05,1.24,2.71,7.56a93.35,93.35,0,0,0,3.19,10.49V117.05a4.64,4.64,0,0,0-.14-.93,4.14,4.14,0,0,1-.15-.93,1.25,1.25,0,0,1,.07-.45c.13-.47.6-.82,1.41-1a4.84,4.84,0,0,1,1.86-.2,9.78,9.78,0,0,1,2,.45C581.75,114.34,582.33,114.76,582.35,115.23Z"/><path d="M593.56,143.2a3.67,3.67,0,0,1,.33,1.65,8,8,0,0,1-1.59,4.63,5.36,5.36,0,0,1-4.23,2.6,4.5,4.5,0,0,1-2.3-.54,2.11,2.11,0,0,1-1.38-1.9c0-.79.19-1.1.56-.9a1.07,1.07,0,0,0,.41.08,3.39,3.39,0,0,0,2.26-1.12A3.6,3.6,0,0,0,589,145a3.64,3.64,0,0,0-.13-.79,3.12,3.12,0,0,1-.13-.78,1.64,1.64,0,0,1,.89-1.7,3.65,3.65,0,0,1,2.08.37A3.73,3.73,0,0,1,593.56,143.2Z"/><path d="M123.16,197.9a4.27,4.27,0,0,1-1.74-.23c-.65-.21-1.28-.42-1.89-.64s-1.91-.62-3.49-1.2q-3-1.44-4.49-5.7a27.31,27.31,0,0,1-1.34-9.09,45.87,45.87,0,0,1,1.34-10.12q1.82-7.77,4.71-7.77a2.55,2.55,0,0,1,.72.15,5,5,0,0,0,.73.18,16.55,16.55,0,0,1,3.52-.86,6,6,0,0,1,.74,0q4.45.61,7,6.19a28.88,28.88,0,0,1,2.3,12,28.17,28.17,0,0,1-2.08,11.36Q127,197.4,123.16,197.9Zm-.67-30.28c-.54-.17-1.08.64-1.61,2.43s-1.07,2.69-1.61,2.69a1.14,1.14,0,0,1-.54-.23,1.89,1.89,0,0,0-.58-.27,24.4,24.4,0,0,0-1.26,8.84,30.46,30.46,0,0,0,.85,7.73c.65,2.39,1.54,3.72,2.68,4,1.33.28,2.41-1.25,3.22-4.58a43.93,43.93,0,0,0,1.08-10.41,34.85,34.85,0,0,0-.56-6.86C123.77,168.94,123.21,167.84,122.49,167.62Z"/><path d="M155.41,182.57a2.17,2.17,0,0,1-1.3,2.11.76.76,0,0,1-.52-.15,1,1,0,0,0-.48-.18,1.13,1.13,0,0,0-.48.12,74.39,74.39,0,0,1-2.27,8.26c-1,2.62-2.27,4.33-3.86,5.13a2.75,2.75,0,0,1-1.29.33,13.14,13.14,0,0,1-3.31-1.08,30,30,0,0,1-3.15-1.2c-1.44-.77-2.55-2.54-3.34-5.33a33.27,33.27,0,0,1-1.08-9A39.71,39.71,0,0,1,136,169.39q1.86-5.82,4.9-6.53a5,5,0,0,1,.59,0,10.67,10.67,0,0,1,4.53,1.32,7.33,7.33,0,0,1,4.93,6.57c.23,1.6.36,2.47.41,2.61.08.47.18,1,.3,1.69a2.37,2.37,0,0,1-.37,1.26,2,2,0,0,1-.78.89c-.32.14-1.29-.06-2.9-.6a10.39,10.39,0,0,1-2.89-1.26,2.09,2.09,0,0,1-.56-1.94,1,1,0,0,1,.19-.52,1.14,1.14,0,0,0,.18-.56c0-1.95-.19-2.93-.59-2.93q-1.26,0-2.23,4.71a50.09,50.09,0,0,0-.89,9.75q0,7.84,2,9c.4.22.93-.54,1.61-2.28a17.16,17.16,0,0,0,1.21-4.87,11.71,11.71,0,0,0-2.26-1.28c-.89-.42-1.38-.77-1.45-1.08a2.88,2.88,0,0,1,.37-1.75,3.14,3.14,0,0,1,1.1-1.47,3.57,3.57,0,0,1,1.61-.37,10.37,10.37,0,0,0,1.71-.08,13.28,13.28,0,0,0,2-.71,4.88,4.88,0,0,1,1.74-.49,1.73,1.73,0,0,1,.41,0,7.47,7.47,0,0,1,2.73,1.86C154.85,181.44,155.44,182.18,155.41,182.57Z"/><path d="M184,176.58a25.73,25.73,0,0,1-2.19,9.79,41.3,41.3,0,0,1-4.38,8c-1.56,2.14-2.71,3.4-3.45,3.75a3,3,0,0,1-1.26.25,7.79,7.79,0,0,1-3.71-1.15,9,9,0,0,1-2.79-2.07V165.43a1.33,1.33,0,0,1,1.12-1.29,13.73,13.73,0,0,1,1.85.29,7.59,7.59,0,0,0,2.21-.86,7.59,7.59,0,0,1,3.21-.91,5.65,5.65,0,0,1,3.12,1,22.8,22.8,0,0,1,2.56,2.23,11.48,11.48,0,0,1,3.23,5A24,24,0,0,1,184,176.58Zm-6.16-8a1,1,0,0,0-.6-.13,8.84,8.84,0,0,0-4.71,1.9V189q2.52-1.6,4.31-7.89a36.79,36.79,0,0,0,1.52-9.83C178.31,169.71,178.13,168.83,177.79,168.61Z"/><path d="M203.39,192.07a3.79,3.79,0,0,1-.65,1.51,2.53,2.53,0,0,1-.94,1c-.08,0-.21,0-.41-.14a1,1,0,0,0-.48-.19.28.28,0,0,0-.15,0,13.87,13.87,0,0,0-2.3,1,21.57,21.57,0,0,0-5.05,3.6l-4-1.86c-1.53-.75-2.3-1.3-2.3-1.65V164.27c0-.19.29-.47.88-.83a2.36,2.36,0,0,1,1.28-.49,7.17,7.17,0,0,1,1.78.64,5.66,5.66,0,0,0,2.19.6,6,6,0,0,0,2.89-1.12c1.09-.72,1.77-1,2-.91a9.17,9.17,0,0,1,2.66,2.17,7.34,7.34,0,0,1,1.91,2.62c.05.25-.18.68-.69,1.28s-.92.91-1.24.91a1.15,1.15,0,0,1-.6-.12c-.12-.08-.21-.11-.26-.08a19.54,19.54,0,0,0-2.48.78,10.88,10.88,0,0,0-4,2.4v6.73a25.56,25.56,0,0,1,3.38-1.53c.4,0,1.23.56,2.5,1.84s1.92,2.17,1.92,2.67a1.84,1.84,0,0,1-.52,1.07,2.46,2.46,0,0,1-1,.79c-.24,0-.68,0-1.29.08a18.14,18.14,0,0,0-5,2.64v4.34a34.93,34.93,0,0,1,3-1.76,8.48,8.48,0,0,1,2.35-1c.35,0,1.22.6,2.62,1.8S203.44,191.74,203.39,192.07Z"/><path d="M222.47,191.82c-.3,1.3-.77,2.08-1.41,2.36a1.47,1.47,0,0,1-.8,0,1.25,1.25,0,0,0-.73,0L214,196.82a1.56,1.56,0,0,0-.54.71c-.18.38-.36.6-.53.66-.55.22-1.7,0-3.45-.62s-2.83-1.23-3.2-1.78a3.37,3.37,0,0,1-.26-2.07,9.93,9.93,0,0,0,.08-1V164.93a1.54,1.54,0,0,0-.3-.7.85.85,0,0,1-.22-.5c0-.52.48-.91,1.3-1.15a7.84,7.84,0,0,1,3.37.61c2,.64,3,1.38,3,2.24a2.19,2.19,0,0,1-.4,1,2.13,2.13,0,0,0-.41,1v22.84l3.86-1.85a4.54,4.54,0,0,1,1.26-.75c.34-.05,1.27.53,2.78,1.76S222.57,191.44,222.47,191.82Z"/><path d="M251.56,181.79a10.16,10.16,0,0,1,.08,1.23,13.55,13.55,0,0,1-2.64,7.4,25.69,25.69,0,0,1-5.2,5.7c-1.88,1.51-3.15,2.22-3.82,2.11a14,14,0,0,1-3.93-1.84c-1.88-1.12-2.9-1.88-3-2.29a.92.92,0,0,1-.08-.38,2.11,2.11,0,0,1,.13-.64,2,2,0,0,0,.13-.59V165.71c0-.44.55-.66,1.63-.66a4.55,4.55,0,0,1,1.3.17,18.78,18.78,0,0,1,4.4-2.21,13.54,13.54,0,0,1,4.55-1,3.53,3.53,0,0,1,1.72.35,3.21,3.21,0,0,1,1.13,1.22,11.84,11.84,0,0,0,.93,1.49l1.23,1.11a2.77,2.77,0,0,1,.85,1.32,3.71,3.71,0,0,1,.15,1.08q0,3.25-3.9,7.1Q251.16,179.06,251.56,181.79Zm-6.49-13.43c0-.11-.19-.17-.41-.17a6.58,6.58,0,0,0-2.67,1,7.14,7.14,0,0,0-2.45,1.91v4.29a33.35,33.35,0,0,0,4.1-4.29C244.79,169.63,245.26,168.72,245.07,168.36Zm1.33,12.23a11.18,11.18,0,0,0-3.26,1,12.67,12.67,0,0,0-3.6,2.19v7.68c1.61-.49,3.19-2,4.75-4.54S246.55,182.3,246.4,180.59Z"/><path d="M262,164.81a2.39,2.39,0,0,1-.17.78c-.11.33-.18.54-.2.62a21.07,21.07,0,0,0-.45,2.56v25.37a1.79,1.79,0,0,0,.23.89,1.35,1.35,0,0,1,.22.64c0,1.76-.3,2.71-.89,2.85a10.71,10.71,0,0,1-2.6-.54,9,9,0,0,1-2.74-1,2.16,2.16,0,0,1-.82-1.45.66.66,0,0,1,.15-.37,1.23,1.23,0,0,0,.15-.7V165.3a1.24,1.24,0,0,0-.13-.51,1.17,1.17,0,0,1-.13-.52c.05-.66.5-1.1,1.37-1.32a7.59,7.59,0,0,1,1.71,0,12.5,12.5,0,0,1,2.67.45C261.41,163.73,262,164.2,262,164.81Z"/><path d="M282.18,191.82c-.3,1.3-.77,2.08-1.42,2.36a1.43,1.43,0,0,1-.79,0,1.25,1.25,0,0,0-.73,0l-5.49,2.56a1.56,1.56,0,0,0-.54.71q-.27.57-.54.66c-.54.22-1.69,0-3.45-.62s-2.82-1.23-3.19-1.78a3.37,3.37,0,0,1-.26-2.07,9.93,9.93,0,0,0,.08-1V164.93a1.54,1.54,0,0,0-.3-.7.85.85,0,0,1-.22-.5c.05-.52.48-.91,1.3-1.15a7.84,7.84,0,0,1,3.37.61c2,.64,2.95,1.38,3,2.24a2.13,2.13,0,0,1-.41,1,2.19,2.19,0,0,0-.4,1v22.84L276,188.4a4.8,4.8,0,0,1,1.27-.75c.34-.05,1.27.53,2.78,1.76S282.27,191.44,282.18,191.82Z"/><path d="M300,191.82c-.3,1.3-.77,2.08-1.41,2.36a1.47,1.47,0,0,1-.8,0,1.22,1.22,0,0,0-.72,0l-5.5,2.56a1.49,1.49,0,0,0-.53.71q-.28.57-.54.66c-.55.22-1.7,0-3.45-.62s-2.82-1.23-3.2-1.78a3.39,3.39,0,0,1-.25-2.07c0-.44.07-.78.07-1V164.93a1.54,1.54,0,0,0-.3-.7.85.85,0,0,1-.22-.5c.05-.52.48-.91,1.3-1.15a7.9,7.9,0,0,1,3.38.61c1.95.64,2.94,1.38,3,2.24a2.19,2.19,0,0,1-.4,1,2.13,2.13,0,0,0-.41,1v22.84l3.86-1.85a4.54,4.54,0,0,1,1.26-.75c.35-.05,1.27.53,2.78,1.76S300.09,191.44,300,191.82Z"/><path d="M317.8,192.07a3.79,3.79,0,0,1-.65,1.51,2.47,2.47,0,0,1-.95,1c-.07,0-.21,0-.4-.14a1,1,0,0,0-.49-.19.23.23,0,0,0-.14,0,14.34,14.34,0,0,0-2.31,1,21.51,21.51,0,0,0-5,3.6L303.77,197c-1.53-.75-2.3-1.3-2.3-1.65V164.27c0-.19.29-.47.87-.83a2.39,2.39,0,0,1,1.28-.49,7.19,7.19,0,0,1,1.79.64,5.66,5.66,0,0,0,2.18.6,6,6,0,0,0,2.9-1.12c1.09-.72,1.77-1,2-.91a9.17,9.17,0,0,1,2.65,2.17A7.28,7.28,0,0,1,317.1,167c0,.25-.18.68-.69,1.28s-.92.91-1.24.91a1.12,1.12,0,0,1-.6-.12c-.12-.08-.21-.11-.26-.08a19.54,19.54,0,0,0-2.48.78,10.79,10.79,0,0,0-4.05,2.4v6.73a25.56,25.56,0,0,1,3.38-1.53c.39,0,1.23.56,2.5,1.84s1.91,2.17,1.91,2.67a1.78,1.78,0,0,1-.52,1.07,2.44,2.44,0,0,1-1,.79c-.25,0-.68,0-1.3.08a18.28,18.28,0,0,0-5,2.64v4.34c.74-.5,1.75-1.08,3-1.76a8.49,8.49,0,0,1,2.36-1c.35,0,1.22.6,2.62,1.8S317.85,191.74,317.8,192.07Z"/><path d="M338.25,176.58a25.73,25.73,0,0,1-2.19,9.79,41.3,41.3,0,0,1-4.38,8c-1.56,2.14-2.71,3.4-3.45,3.75a3,3,0,0,1-1.26.25,7.79,7.79,0,0,1-3.71-1.15,9,9,0,0,1-2.79-2.07V165.43a1.33,1.33,0,0,1,1.12-1.29,13.73,13.73,0,0,1,1.85.29,7.59,7.59,0,0,0,2.21-.86,7.59,7.59,0,0,1,3.21-.91,5.65,5.65,0,0,1,3.12,1,22.8,22.8,0,0,1,2.56,2.23,11.48,11.48,0,0,1,3.23,5A24,24,0,0,1,338.25,176.58Zm-6.16-8a1,1,0,0,0-.6-.13,8.84,8.84,0,0,0-4.71,1.9V189q2.52-1.6,4.31-7.89a36.79,36.79,0,0,0,1.52-9.83C332.61,169.71,332.43,168.83,332.09,168.61Z"/><path d="M357.69,192.07a3.79,3.79,0,0,1-.65,1.51,2.53,2.53,0,0,1-.94,1c-.08,0-.21,0-.41-.14a1,1,0,0,0-.48-.19.28.28,0,0,0-.15,0,13.87,13.87,0,0,0-2.3,1,21.57,21.57,0,0,0-5.05,3.6l-4-1.86c-1.53-.75-2.3-1.3-2.3-1.65V164.27c0-.19.29-.47.88-.83a2.36,2.36,0,0,1,1.28-.49,7.17,7.17,0,0,1,1.78.64,5.66,5.66,0,0,0,2.19.6,6,6,0,0,0,2.89-1.12c1.09-.72,1.77-1,2-.91a9.17,9.17,0,0,1,2.66,2.17A7.34,7.34,0,0,1,357,167c.05.25-.18.68-.69,1.28s-.92.91-1.24.91a1.15,1.15,0,0,1-.6-.12c-.12-.08-.21-.11-.26-.08a19.54,19.54,0,0,0-2.48.78,10.88,10.88,0,0,0-4.05,2.4v6.73a25.56,25.56,0,0,1,3.38-1.53c.39,0,1.23.56,2.5,1.84s1.92,2.17,1.92,2.67a1.84,1.84,0,0,1-.52,1.07,2.46,2.46,0,0,1-1,.79c-.24,0-.68,0-1.29.08a18.14,18.14,0,0,0-5,2.64v4.34a34.93,34.93,0,0,1,3-1.76,8.48,8.48,0,0,1,2.35-1c.35,0,1.22.6,2.62,1.8S357.74,191.74,357.69,192.07Z"/><path d="M381,191.74c.23.47-.21,1.62-1.31,3.45s-2,2.73-2.77,2.71a2.22,2.22,0,0,1-1.89-1.41,6.33,6.33,0,0,0-.56-1.2l-7.83-8.13v7.64A3,3,0,0,0,367,196a2.83,2.83,0,0,1,.31,1c0,.82-.48,1.28-1.44,1.36a10.09,10.09,0,0,1-3.31-.45c-1.58-.39-2.37-.8-2.37-1.24a2.35,2.35,0,0,1,.09-.56,3.64,3.64,0,0,0,.09-.89V166.38a1.08,1.08,0,0,0-.11-.52,1,1,0,0,1-.11-.35c0-.75.52-1.19,1.49-1.32a5.66,5.66,0,0,1,2,.39,7.27,7.27,0,0,0,2.24.43,8.21,8.21,0,0,0,2.58-1.13,7.2,7.2,0,0,1,3.4-1.1,5.2,5.2,0,0,1,1.15.13,4,4,0,0,1,1.89,1.07c.57.55,1.11,1.1,1.63,1.65,1.36,1.43,2.07,2.19,2.12,2.27a4.83,4.83,0,0,1,1,2.77q.23,4.8-7.35,12.31,1.56,1.58,6.87,7.65a6.21,6.21,0,0,1,1,.49A5.75,5.75,0,0,1,381,191.74Zm-8.2-23.09q-1.74,0-6.16,4V179c1.07-.47,2.46-1.89,4.2-4.26s2.59-4.13,2.59-5.29C373.46,168.92,373.25,168.65,372.83,168.65Z"/><path d="M406,165.38q3.56,2.12,3.56,7.23,0,3.72-2.63,9.42-2.94,6.36-6,6.37a2.14,2.14,0,0,1-1.32-.65l-1.42-1.26v7a5.07,5.07,0,0,0,.18,1.24c.17.66.29,1.11.33,1.36a3,3,0,0,1-.27,1.34c-.24.65-.58,1-1,1.06a7.23,7.23,0,0,1-2.9-1,7.33,7.33,0,0,1-2.89-2.06,2.23,2.23,0,0,1,0-1.74,5.23,5.23,0,0,0,.26-1.36V166.79a3.17,3.17,0,0,0-.26-.91,2.26,2.26,0,0,1-.23-.95c.15-1.32.6-2,1.34-2a10.2,10.2,0,0,1,1.5.47,7.87,7.87,0,0,0,2.1.52,7.14,7.14,0,0,0,2.84-.66,7.65,7.65,0,0,1,2.5-.7,3.35,3.35,0,0,1,.89.12,4.15,4.15,0,0,1,1.79,1.24A8.49,8.49,0,0,0,406,165.38Zm-3.08,3.19a4.83,4.83,0,0,0-2.38,1,8.29,8.29,0,0,0-2.33,2.27v10q2-.71,3.78-5.09a18.24,18.24,0,0,0,1.63-6.73C403.63,169.05,403.4,168.57,402.93,168.57Z"/><path d="M429.76,194.76a10.1,10.1,0,0,1-.34,2.31,1.33,1.33,0,0,1-.55.08,7.66,7.66,0,0,1-2.41-.49,4.88,4.88,0,0,1-2.12-1.28,5.3,5.3,0,0,1-.48-2,30.5,30.5,0,0,0-.74-3.67,20,20,0,0,0-3.29.91,12,12,0,0,0-2.84,1.24c-.29.93-.69,2.1-1.18,3.51-.08.3-.15.59-.21.86a1,1,0,0,1-.5.67,1,1,0,0,1-.26,0,6.46,6.46,0,0,1-2.39-.81c-1.1-.54-1.68-.89-1.73-1a5.85,5.85,0,0,1,.56-2.32c.62-1.76,1-2.83,1.07-3.22a2.26,2.26,0,0,1-.59-1.73c.07-.28.68-.76,1.82-1.45l3.82-14.58V170a.81.81,0,0,1,.93-.91,14.63,14.63,0,0,1,4,.81,7.88,7.88,0,0,1,3.12,1.42q.18,3.68,1.33,11Q428.21,191.33,429.76,194.76Zm-6.12-28.3a3.57,3.57,0,0,1-3.16,1.82,2.7,2.7,0,0,1-2-.83,3.59,3.59,0,0,1-1-2.69,4.69,4.69,0,0,1,.78-2.6,3.51,3.51,0,0,1,3.08-1.77,2.79,2.79,0,0,1,2,.82,3.59,3.59,0,0,1,1.11,2.69A4.68,4.68,0,0,1,423.64,166.46ZM422,184.72c-.29-1.74-.46-2.65-.48-2.73-.2-1.49-.33-3-.41-4.58-.37,1-.84,2.55-1.41,4.52a29.19,29.19,0,0,0-.93,3.74A32.58,32.58,0,0,1,422,184.72ZM421.33,163a1.52,1.52,0,0,0-1.16.59,1.86,1.86,0,0,0-.54,1.28c0,.71.33,1.06,1,1.06a1.56,1.56,0,0,0,1.15-.61,1.92,1.92,0,0,0,.56-1.3A.9.9,0,0,0,421.33,163Z"/><path d="M459.22,176.58a25.73,25.73,0,0,1-2.19,9.79,41.26,41.26,0,0,1-4.37,8c-1.56,2.14-2.71,3.4-3.46,3.75a3,3,0,0,1-1.26.25,7.82,7.82,0,0,1-3.71-1.15,8.9,8.9,0,0,1-2.78-2.07V165.43a1.31,1.31,0,0,1,1.11-1.29,13.72,13.72,0,0,1,1.86.29,7.59,7.59,0,0,0,2.21-.86,7.51,7.51,0,0,1,3.21-.91,5.64,5.64,0,0,1,3.11,1,21.93,21.93,0,0,1,2.56,2.23,11.31,11.31,0,0,1,3.23,5A24,24,0,0,1,459.22,176.58Zm-6.16-8a1,1,0,0,0-.59-.13,8.84,8.84,0,0,0-4.71,1.9V189q2.52-1.6,4.3-7.89a36.39,36.39,0,0,0,1.52-9.83C453.58,169.71,453.41,168.83,453.06,168.61Z"/><path d="M478.67,192.07a3.94,3.94,0,0,1-.65,1.51,2.54,2.54,0,0,1-.95,1c-.07,0-.21,0-.41-.14a.9.9,0,0,0-.48-.19.28.28,0,0,0-.15,0,14.63,14.63,0,0,0-2.3,1,21.51,21.51,0,0,0-5,3.6L464.64,197c-1.53-.75-2.3-1.3-2.3-1.65V164.27c0-.19.29-.47.87-.83a2.39,2.39,0,0,1,1.28-.49,7,7,0,0,1,1.78.64,5.66,5.66,0,0,0,2.19.6,6,6,0,0,0,2.9-1.12c1.09-.72,1.77-1,2-.91a9.17,9.17,0,0,1,2.65,2.17A7.21,7.21,0,0,1,478,167c.05.25-.18.68-.68,1.28s-.92.91-1.25.91a1.11,1.11,0,0,1-.59-.12c-.12-.08-.21-.11-.26-.08a20.23,20.23,0,0,0-2.49.78,10.74,10.74,0,0,0-4,2.4v6.73a25,25,0,0,1,3.38-1.53c.39,0,1.23.56,2.5,1.84s1.91,2.17,1.91,2.67a1.78,1.78,0,0,1-.52,1.07,2.44,2.44,0,0,1-1,.79c-.25,0-.68,0-1.3.08a18.14,18.14,0,0,0-5,2.64v4.34c.74-.5,1.75-1.08,3-1.76a8.49,8.49,0,0,1,2.36-1c.35,0,1.22.6,2.62,1.8S478.72,191.74,478.67,192.07Z"/><path d="M506.2,191a7.1,7.1,0,0,1-1.81,5,6.79,6.79,0,0,1-5.05,2,5.67,5.67,0,0,1-1.75-.29c-1.13-.35-1.73-.53-1.78-.53l-1.8-.44a3.18,3.18,0,0,1-1.57-.93,7.25,7.25,0,0,1-1.64-3.22,18.14,18.14,0,0,0-1.18-3.26,5.33,5.33,0,0,1-.71-1.16,1.88,1.88,0,0,1,.2-1.22,1.49,1.49,0,0,1,.77-.76,2.51,2.51,0,0,1,.81-.08,17,17,0,0,1,3.17.35,4.85,4.85,0,0,1,2.1.64,11.88,11.88,0,0,1,.6,3c.22,1.65.55,2.58,1,2.77a.73.73,0,0,0,.33.08c.47,0,.87-.43,1.21-1.3a8.26,8.26,0,0,0,.5-2.95q0-3.6-2-4.8a24.07,24.07,0,0,1-6.45-5.12,9.12,9.12,0,0,1-1.93-6.44,14.11,14.11,0,0,1,2-6.26c1.22-2.11,2.52-3.34,3.88-3.7q.86-.21,5.19,1.82c.72.3,1.44.62,2.17.95a4.32,4.32,0,0,1,1.77,1.44q1,1.46,1,5c0,.44,0,1.09,0,2s0,1.26,0,1.57a6.23,6.23,0,0,0,.26.95,1.9,1.9,0,0,1,.15.9c-.05,1.22-.51,1.89-1.37,2a6.76,6.76,0,0,1-2.75-.62,5.6,5.6,0,0,1-2.82-1.7,2.41,2.41,0,0,1-.07-.82c0-.41,0-1.35.13-2.81s.13-2.52.13-3.18c0-1.19-.13-1.76-.38-1.74-.76.06-1.4.67-1.91,1.84a10.07,10.07,0,0,0-.76,4q0,3.72,2,5.29l4.45,3.14a9.67,9.67,0,0,1,2.94,3.05A12.18,12.18,0,0,1,506.2,191Z"/><path d="M521,197.9a4.27,4.27,0,0,1-1.74-.23c-.65-.21-1.28-.42-1.9-.64s-1.9-.62-3.48-1.2q-3-1.44-4.49-5.7a27.06,27.06,0,0,1-1.34-9.09,45.27,45.27,0,0,1,1.34-10.12q1.82-7.77,4.71-7.77a2.55,2.55,0,0,1,.72.15,5,5,0,0,0,.73.18,16.55,16.55,0,0,1,3.52-.86,6,6,0,0,1,.74,0q4.45.61,7,6.19a28.88,28.88,0,0,1,2.3,12,28.35,28.35,0,0,1-2.08,11.36Q524.84,197.4,521,197.9Zm-.67-30.28c-.54-.17-1.08.64-1.61,2.43s-1.07,2.69-1.62,2.69a1.15,1.15,0,0,1-.53-.23,1.89,1.89,0,0,0-.58-.27,24.4,24.4,0,0,0-1.26,8.84,30.46,30.46,0,0,0,.85,7.73c.65,2.39,1.54,3.72,2.67,4q2,.42,3.23-4.58a43.93,43.93,0,0,0,1.08-10.41,35.64,35.64,0,0,0-.56-6.86C521.62,168.94,521.06,167.84,520.34,167.62Z"/><path d="M551.33,188.56a2.67,2.67,0,0,1-.71,1.65,19.62,19.62,0,0,1-3.3,5.17q-2.42,2.76-3.9,2.76a1.7,1.7,0,0,1-.4,0c-1.09-.38-2.32-.86-3.68-1.44a11.18,11.18,0,0,1-5.56-6.32,25.94,25.94,0,0,1-1.71-9.79,29.08,29.08,0,0,1,2.34-12q2.48-5.53,6.23-5.74c1-.05,2.38.5,4.25,1.65a9.87,9.87,0,0,1,3.69,3.45q.9,1.73,1.23,7.5a7.32,7.32,0,0,1-.3,2.52c-.3,1-.68,1.49-1.15,1.41a19.25,19.25,0,0,1-3.27-.91c-1.58-.58-2.43-1.06-2.56-1.45a1.09,1.09,0,0,1-.07-.37,1.9,1.9,0,0,1,.32-.93,2.1,2.1,0,0,0,.31-.93,30.34,30.34,0,0,0,.19-3.18,6.81,6.81,0,0,0-.45-3q-2.22,1.81-3.38,6.07a31.57,31.57,0,0,0-1,8.14,31.11,31.11,0,0,0,.56,6.26c.37,1.83.81,2.94,1.33,3.32.25.17.94-.39,2.06-1.67a12.52,12.52,0,0,0,2.17-3.08,12.24,12.24,0,0,0,.34-1.32,1.3,1.3,0,0,1,.59-.91c.42-.17,1.5.23,3.25,1.18S551.38,188.18,551.33,188.56Z"/><path d="M561.31,164.81a2.39,2.39,0,0,1-.17.78c-.11.33-.18.54-.2.62a21.07,21.07,0,0,0-.45,2.56v25.37a1.79,1.79,0,0,0,.23.89,1.35,1.35,0,0,1,.22.64c0,1.76-.3,2.71-.89,2.85a10.71,10.71,0,0,1-2.6-.54,9,9,0,0,1-2.74-1,2.16,2.16,0,0,1-.82-1.45.66.66,0,0,1,.15-.37,1.23,1.23,0,0,0,.15-.7V165.3a1.24,1.24,0,0,0-.13-.51,1.17,1.17,0,0,1-.13-.52c.05-.66.5-1.1,1.37-1.32a7.59,7.59,0,0,1,1.71,0,12.5,12.5,0,0,1,2.67.45C560.77,163.73,561.31,164.2,561.31,164.81Z"/><path d="M587.44,195c0,.25-.08.84-.15,1.78a2.24,2.24,0,0,1-.3,1.12,1.2,1.2,0,0,1-.63.12,8.71,8.71,0,0,1-3-.7,5.64,5.64,0,0,1-2.68-1.57,7.59,7.59,0,0,1-.59-2.48,35.63,35.63,0,0,0-.93-4.59,25.7,25.7,0,0,0-4.12,1.14,14.78,14.78,0,0,0-3.52,1.55c-.37,1.18-.87,2.64-1.49,4.38-.07.38-.15.75-.24,1.09a1.35,1.35,0,0,1-.65.85.57.57,0,0,1-.33.08,8.19,8.19,0,0,1-3-1c-1.4-.69-2.12-1.14-2.17-1.36a6.9,6.9,0,0,1,.71-2.85c.79-2.21,1.25-3.56,1.37-4.05a2.63,2.63,0,0,1-.78-1.74,2.42,2.42,0,0,1,0-.45c0-.33.8-.93,2.26-1.78L572,166.25a8.12,8.12,0,0,0,0-1.82c0-.74,0-1.21.23-1.4s.42-.21.89-.21a18.45,18.45,0,0,1,5,1c2.15.67,3.44,1.26,3.86,1.78q.22,4.59,1.67,13.76Q585.51,190.66,587.44,195Zm-9.69-12.56c-.32-1.73-.52-2.87-.59-3.42a57.75,57.75,0,0,1-.56-5.75c-.5,1.35-1.08,3.23-1.74,5.62a35.39,35.39,0,0,0-1.16,4.71A33.75,33.75,0,0,1,577.75,182.4Z"/><path d="M606.84,191.82c-.29,1.3-.76,2.08-1.41,2.36a1.43,1.43,0,0,1-.79,0,1.25,1.25,0,0,0-.73,0l-5.49,2.56a1.56,1.56,0,0,0-.54.71q-.27.57-.54.66c-.54.22-1.69,0-3.45-.62s-2.82-1.23-3.19-1.78a3.37,3.37,0,0,1-.26-2.07,9.93,9.93,0,0,0,.08-1V164.93a1.54,1.54,0,0,0-.3-.7.85.85,0,0,1-.22-.5c0-.52.48-.91,1.29-1.15a7.88,7.88,0,0,1,3.38.61c2,.64,3,1.38,3,2.24a2.24,2.24,0,0,1-.41,1,2.24,2.24,0,0,0-.41,1v22.84l3.86-1.85a4.88,4.88,0,0,1,1.26-.75c.35-.05,1.28.53,2.79,1.76S606.94,191.44,606.84,191.82Z"/><path d="M624.66,192.07a4.11,4.11,0,0,1-.65,1.51,2.54,2.54,0,0,1-1,1c-.07,0-.21,0-.41-.14a1,1,0,0,0-.48-.19.28.28,0,0,0-.15,0,14.24,14.24,0,0,0-2.3,1,21.78,21.78,0,0,0-5.05,3.6l-4-1.86c-1.54-.75-2.3-1.3-2.3-1.65V164.27c0-.19.29-.47.87-.83a2.39,2.39,0,0,1,1.28-.49,7,7,0,0,1,1.78.64,5.66,5.66,0,0,0,2.19.6,6,6,0,0,0,2.9-1.12c1.08-.72,1.76-1,2-.91a9.31,9.31,0,0,1,2.65,2.17A7.34,7.34,0,0,1,624,167c0,.25-.18.68-.69,1.28s-.92.91-1.24.91a1.11,1.11,0,0,1-.59-.12c-.13-.08-.21-.11-.26-.08a20.23,20.23,0,0,0-2.49.78,10.74,10.74,0,0,0-4,2.4v6.73a25.36,25.36,0,0,1,3.37-1.53c.4,0,1.23.56,2.51,1.84s1.91,2.17,1.91,2.67a1.78,1.78,0,0,1-.52,1.07,2.5,2.5,0,0,1-1,.79c-.25,0-.68,0-1.3.08a18.14,18.14,0,0,0-5,2.64v4.34c.74-.5,1.75-1.08,3-1.76a8.36,8.36,0,0,1,2.36-1c.34,0,1.22.6,2.61,1.8S624.71,191.74,624.66,192.07Z"/><path d="M143.35,245.74c-.17,1.18-.47,1.83-.89,1.94a7.51,7.51,0,0,1-3.41-.54c-1.79-.55-2.8-1.1-3.05-1.65a1.8,1.8,0,0,1-.11-.62,5.84,5.84,0,0,1,.09-.81,5.09,5.09,0,0,0,.1-.93V224.38q-1.76,3.8-4.57,17.1a2.13,2.13,0,0,0,0,.37,10,10,0,0,0,.13,1.33c.08.6.12,1,.12,1.15a11.82,11.82,0,0,1-.11,1.65,1.16,1.16,0,0,1-.78,1,4.72,4.72,0,0,1-1.29.12q-4.83,0-6.65-1.86a1.23,1.23,0,0,1-.22-1,4.49,4.49,0,0,0,0-1.2c-.92-3.14-1.73-5.89-2.45-8.26a97.45,97.45,0,0,0-3.38-10.12v16.44a5.37,5.37,0,0,0,.3,1.49,12.82,12.82,0,0,1,.41,1.44,8.27,8.27,0,0,1,.07,2c0,.94-.22,1.52-.52,1.74a1.54,1.54,0,0,1-.85.16,12.17,12.17,0,0,1-3.27-.53,4.49,4.49,0,0,1-2.41-1.12,1.28,1.28,0,0,1-.18-.7,4.12,4.12,0,0,1,.13-.83,4.79,4.79,0,0,0,.13-.91V214.5a2.29,2.29,0,0,1,.37-1.13,1.88,1.88,0,0,1,.85-.85q.63-.28,4.86,1c3,.86,4.5,1.6,4.68,2.23a2.84,2.84,0,0,1,0,1c-.08.57-.12.92-.12,1a1.69,1.69,0,0,0,.12.66l5,15q1-3.69,3.78-14.92c.92-3.83,1.66-5.82,2.23-6a2.1,2.1,0,0,1,.59-.08,10,10,0,0,1,2.12.37,14,14,0,0,0,2.26.5c2,.19,3.08.31,3.38.37,1.16.25,1.82.7,2,1.36a2.45,2.45,0,0,1,.08.62,5.08,5.08,0,0,1-.19,1.18,5.55,5.55,0,0,0-.18,1.13v25.29a2.92,2.92,0,0,0,.46,1.24A2.1,2.1,0,0,1,143.35,245.74Z"/><path d="M163.13,241.65a3.7,3.7,0,0,1-.65,1.5,2.51,2.51,0,0,1-.95,1c-.07,0-.21,0-.4-.15a1.05,1.05,0,0,0-.49-.19.3.3,0,0,0-.15.05,13,13,0,0,0-2.3,1,21.18,21.18,0,0,0-5,3.59l-4.05-1.86c-1.53-.74-2.3-1.29-2.3-1.65V213.84c0-.19.29-.46.87-.82a2.43,2.43,0,0,1,1.28-.5,7.48,7.48,0,0,1,1.78.64,5.7,5.7,0,0,0,2.19.6,6,6,0,0,0,2.9-1.11c1.09-.72,1.77-1,2-.91a9,9,0,0,1,2.65,2.17,7.12,7.12,0,0,1,1.91,2.62c.05.25-.18.67-.68,1.28s-.92.91-1.25.91a1,1,0,0,1-.59-.13c-.12-.08-.21-.11-.26-.08a18.65,18.65,0,0,0-2.49.79,10.82,10.82,0,0,0-4,2.39v6.74a23.2,23.2,0,0,1,3.38-1.53c.39-.06,1.23.56,2.5,1.84s1.91,2.17,1.91,2.66a1.82,1.82,0,0,1-.52,1.08,2.4,2.4,0,0,1-1,.78c-.25,0-.68,0-1.3.08a18.57,18.57,0,0,0-5,2.65v4.33c.74-.49,1.75-1.08,3-1.75a8.16,8.16,0,0,1,2.36-1c.35,0,1.22.6,2.62,1.79S163.18,241.32,163.13,241.65Z"/><path d="M183.58,226.15a25.78,25.78,0,0,1-2.19,9.8,42.06,42.06,0,0,1-4.38,8q-2.34,3.22-3.45,3.76a3.2,3.2,0,0,1-1.27.25,7.88,7.88,0,0,1-3.71-1.16,8.71,8.71,0,0,1-2.78-2.07V215a1.31,1.31,0,0,1,1.11-1.28,11.83,11.83,0,0,1,1.86.29,7.45,7.45,0,0,0,2.21-.87,7.74,7.74,0,0,1,3.21-.91,5.7,5.7,0,0,1,3.11,1,22.08,22.08,0,0,1,2.56,2.23,11.31,11.31,0,0,1,3.23,5A24,24,0,0,1,183.58,226.15Zm-6.16-8a1.17,1.17,0,0,0-.6-.12,8.76,8.76,0,0,0-4.71,1.9v18.59q2.52-1.62,4.3-7.89a36.49,36.49,0,0,0,1.53-9.83C177.94,219.28,177.76,218.4,177.42,218.18Z"/><path d="M193.86,214.38a2.81,2.81,0,0,1-.17.79l-.21.62a23.35,23.35,0,0,0-.44,2.56v25.36a1.75,1.75,0,0,0,.22.89,1.38,1.38,0,0,1,.22.64c0,1.76-.29,2.71-.89,2.85a9.6,9.6,0,0,1-2.59-.54,8.79,8.79,0,0,1-2.75-1,2.17,2.17,0,0,1-.82-1.44.68.68,0,0,1,.15-.38,1.21,1.21,0,0,0,.15-.7V214.88a1.14,1.14,0,0,0-.13-.52,1.14,1.14,0,0,1-.13-.52c.05-.66.51-1.1,1.37-1.32a9.12,9.12,0,0,1,1.71,0,12.45,12.45,0,0,1,2.67.46C193.31,213.31,193.86,213.78,193.86,214.38Z"/><path d="M213.71,241.65a3.84,3.84,0,0,1-.65,1.5,2.58,2.58,0,0,1-.95,1c-.07,0-.21,0-.41-.15a1,1,0,0,0-.48-.19.3.3,0,0,0-.15.05,13,13,0,0,0-2.3,1,21.18,21.18,0,0,0-5,3.59l-4-1.86c-1.53-.74-2.3-1.29-2.3-1.65V213.84c0-.19.29-.46.87-.82a2.43,2.43,0,0,1,1.28-.5,7.48,7.48,0,0,1,1.78.64,5.66,5.66,0,0,0,2.19.6,6,6,0,0,0,2.9-1.11c1.09-.72,1.77-1,2-.91a9,9,0,0,1,2.65,2.17,7.12,7.12,0,0,1,1.91,2.62c.05.25-.18.67-.68,1.28s-.93.91-1.25.91a1,1,0,0,1-.59-.13c-.12-.08-.21-.11-.26-.08a18.65,18.65,0,0,0-2.49.79,10.74,10.74,0,0,0-4,2.39v6.74a22.72,22.72,0,0,1,3.38-1.53c.39-.06,1.23.56,2.5,1.84s1.91,2.17,1.91,2.66a1.82,1.82,0,0,1-.52,1.08,2.4,2.4,0,0,1-1,.78c-.25,0-.68,0-1.3.08a18.57,18.57,0,0,0-5,2.65v4.33c.74-.49,1.75-1.08,3-1.75a8.16,8.16,0,0,1,2.36-1c.35,0,1.22.6,2.62,1.79S213.76,241.32,213.71,241.65Z"/><path d="M237.05,241.32q.33.69-1.32,3.45t-2.76,2.7a2.21,2.21,0,0,1-1.89-1.4,5.81,5.81,0,0,0-.56-1.2l-7.83-8.14v7.64a3,3,0,0,0,.31,1.16,3,3,0,0,1,.32,1c0,.83-.48,1.28-1.45,1.37a9.87,9.87,0,0,1-3.3-.46c-1.58-.38-2.38-.8-2.38-1.24a2.55,2.55,0,0,1,.1-.56,3.61,3.61,0,0,0,.09-.88V216a1.27,1.27,0,0,0-.11-.52.76.76,0,0,1-.11-.35c0-.74.52-1.18,1.48-1.32a6.15,6.15,0,0,1,2,.39,7.42,7.42,0,0,0,2.25.44,8.6,8.6,0,0,0,2.58-1.14,7.17,7.17,0,0,1,3.39-1.09,5.69,5.69,0,0,1,1.15.12,4.09,4.09,0,0,1,1.9,1.07c.57.56,1.11,1.11,1.63,1.66,1.36,1.43,2.07,2.19,2.12,2.27a4.82,4.82,0,0,1,1,2.77q.22,4.78-7.34,12.31,1.56,1.56,6.86,7.64a6.48,6.48,0,0,1,1,.5A4.94,4.94,0,0,1,237.05,241.32Zm-8.2-23.1c-1.16,0-3.22,1.35-6.16,4.05v6.32c1.06-.47,2.46-1.88,4.19-4.25s2.6-4.13,2.6-5.29C229.48,218.5,229.27,218.22,228.85,218.22Z"/><path d="M246,234.33c-.05,1-.28,1.59-.7,1.7a1.64,1.64,0,0,1-.38,0,5.76,5.76,0,0,1-2.7-.95,9.36,9.36,0,0,1-2.68-2.27c-.29-.36-.29-1,0-2s.45-1.46.45-1.48V213.76a1.5,1.5,0,0,1,1.11-1.49,2.05,2.05,0,0,1,.63-.08,7,7,0,0,1,2.38.5,3.2,3.2,0,0,1,1.67,1.07,14.62,14.62,0,0,1,.07,2.23v16.86a5.31,5.31,0,0,0,.08.72A5,5,0,0,1,246,234.33Zm0,6a8.88,8.88,0,0,1,0,2q-.15,2.15-.15,2.64a16.65,16.65,0,0,1-.15,2.56,1.16,1.16,0,0,1-.92,1.08,6.24,6.24,0,0,1-2.56-.83,6.67,6.67,0,0,1-2.68-1.77,1.8,1.8,0,0,1,.19-1.49A4.14,4.14,0,0,0,240,243c-.05-.61-.05-1.76,0-3.47.1-1,.47-1.47,1.11-1.45a9.82,9.82,0,0,1,2.9.93C245.26,239.59,245.93,240,246,240.32Z"/></svg>
