<?xml version="1.0" standalone="no"?>
<!DOCTYPE svg PUBLIC "-//W3C//DTD SVG 20010904//EN"
 "http://www.w3.org/TR/2001/REC-SVG-20010904/DTD/svg10.dtd">
<svg version="1.0" xmlns="http://www.w3.org/2000/svg"
 width="260.000000pt" height="260.000000pt" viewBox="0 0 260.000000 260.000000"
 preserveAspectRatio="xMidYMid meet">
<metadata>
Created by potrace 1.11, written by Peter Selinger 2001-2013
</metadata>
<g transform="translate(0.000000,260.000000) scale(0.100000,-0.100000)"
fill="#000000" stroke="none">
<path d="M770 1826 c-149 -49 -267 -146 -332 -272 -49 -96 -63 -154 -63 -264
1 -239 150 -443 380 -521 91 -30 242 -33 325 -5 95 32 169 77 239 147 l67 67
32 -29 c18 -16 40 -29 50 -29 25 1 95 34 111 54 18 21 64 46 87 46 9 0 32 -16
51 -35 20 -20 45 -41 55 -46 34 -18 89 -1 127 40 56 59 69 59 125 1 26 -27 53
-51 59 -51 7 -1 24 -3 39 -4 16 -2 44 8 73 26 38 24 45 32 35 44 -9 11 -17 10
-47 -11 -52 -35 -86 -31 -128 13 -19 20 -35 40 -35 44 0 4 -14 12 -31 18 -36
12 -62 2 -92 -36 -22 -28 -68 -53 -97 -53 -11 0 -37 18 -58 40 -53 57 -104 61
-162 13 -12 -10 -31 -26 -43 -36 -41 -35 -81 -32 -121 8 -26 27 -9 43 43 41
39 -1 54 4 85 29 58 46 89 65 108 65 10 0 40 -20 68 -45 72 -64 112 -59 188
23 35 37 64 37 92 -1 22 -30 22 -31 53 -54 36 -28 85 -24 138 12 32 21 38 29
29 40 -9 11 -18 9 -48 -12 -54 -36 -90 -27 -151 36 -26 28 -53 51 -60 51 -20
0 -54 -22 -74 -47 -22 -27 -68 -53 -96 -53 -10 0 -40 20 -66 45 -37 36 -53 45
-73 42 -37 -5 -63 -18 -87 -40 -49 -47 -106 -69 -120 -47 -4 6 -1 26 5 44 8
25 18 35 38 39 15 3 43 17 62 31 19 14 46 33 59 43 42 30 76 25 116 -18 59
-64 115 -64 175 0 52 57 71 59 112 14 48 -54 63 -64 97 -69 49 -8 141 47 120
72 -8 10 -18 8 -46 -12 -52 -35 -86 -31 -128 13 -19 20 -35 40 -35 44 0 4 -14
12 -31 18 -38 13 -55 5 -111 -51 -36 -36 -44 -40 -75 -35 -23 4 -46 18 -67 42
-17 20 -42 38 -56 40 -26 5 -90 -12 -90 -23 -1 -12 -79 -66 -100 -69 -17 -2
-19 2 -15 38 2 23 5 42 7 43 2 1 19 9 38 19 19 9 52 31 72 48 53 45 92 44 132
-5 52 -61 132 -58 183 7 10 13 29 29 41 36 21 11 27 8 72 -38 70 -72 117 -78
188 -24 30 23 32 27 19 40 -14 14 -18 13 -37 -5 -47 -44 -109 -36 -145 18 -44
66 -104 75 -146 22 -25 -33 -68 -62 -91 -62 -10 0 -40 20 -68 45 -71 63 -92
61 -192 -16 -52 -41 -67 -43 -73 -11 -30 153 -73 239 -161 327 -107 106 -225
156 -379 160 -80 2 -113 -2 -165 -19z"/>
</g>
</svg>
