<svg id="Layer_1" data-name="Layer 1" xmlns="http://www.w3.org/2000/svg" xmlns:xlink="http://www.w3.org/1999/xlink" width="1329" height="653" viewBox="0 0 1329 653"><defs><style>.cls-1{fill:#ffe600;}.cls-2,.cls-6{font-size:190px;font-family:Impact;}.cls-2{fill:#00302a;}.cls-3{letter-spacing:0.04em;}.cls-4{letter-spacing:-0.02em;}.cls-5{letter-spacing:0.06em;}.cls-6{fill:#ff1212;}.cls-7{fill:url(#linear-gradient);}</style><linearGradient id="linear-gradient" x1="831.97" y1="234.79" x2="1029.17" y2="234.79" gradientTransform="translate(1.82 -9.53) rotate(0.59)" gradientUnits="userSpaceOnUse"><stop offset="0.12"/><stop offset="1" stop-color="red"/></linearGradient></defs><title>dataindsamling_ui</title><rect class="cls-1" x="62" y="80" width="1193" height="450" rx="75.2"/><text class="cls-2" transform="translate(128.4 294.11)"><tspan class="cls-3">D</tspan><tspan class="cls-4" x="112.62" y="0">A</tspan><tspan x="206.25" y="0">T</tspan><tspan class="cls-3" x="293.83" y="0">A</tspan><tspan x="397.92" y="0">-</tspan><tspan class="cls-3" x="0" y="177">INDSAMLI</tspan><tspan class="cls-5" x="781.37" y="177">N</tspan><tspan x="895.66" y="177">G</tspan></text><text class="cls-6" transform="translate(147.77 293.93)"><tspan class="cls-3">D</tspan><tspan class="cls-4" x="112.62" y="0">A</tspan><tspan x="206.25" y="0">T</tspan><tspan class="cls-3" x="293.83" y="0">A</tspan><tspan x="397.92" y="0">-</tspan><tspan class="cls-3" x="0" y="177">INDSAMLI</tspan><tspan class="cls-5" x="781.37" y="177">N</tspan><tspan x="895.66" y="177">G</tspan></text><path class="cls-7" d="M1028.25,234.7c-4-8.78-45-23.65-101-19.24C883,219,845.54,227.19,831.93,235.63l-.76,11.94c13.07,6.66,51.69,9.19,97.14,5.61C984.29,248.77,1032.42,243.8,1028.25,234.7Z"/><image width="1080" height="423" transform="matrix(-0.08, 0.02, 0.02, 0.08, 1052.04, 179.67)" xlink:href="dataindsamling_ui1.png"/><image width="614" height="173" transform="translate(696.44 153.43) rotate(-16.64) scale(0.71)" xlink:href="dataindsamling_ui2.png"/><image width="613" height="123" transform="matrix(0.62, -0.01, 0.01, 0.62, 741.79, 237.7)" xlink:href="dataindsamling_ui3.png"/><image width="1080" height="423" transform="matrix(-0.05, 0.01, 0.01, 0.05, 1110.7, 161.09)" xlink:href="dataindsamling_ui4.png"/><image width="1080" height="423" transform="matrix(-0.05, 0, 0, 0.05, 1110.67, 205.21)" xlink:href="dataindsamling_ui5.png"/></svg>
